<!DOCTYPE svg PUBLIC "-//W3C//DTD SVG 20010904//EN" "http://www.w3.org/TR/2001/REC-SVG-20010904/DTD/svg10.dtd">
<svg version="1.0" xmlns="http://www.w3.org/2000/svg" width="300px" height="300px" viewBox="0 0 3000 3000" preserveAspectRatio="xMidYMid meet">
<g id="layer101" fill="#000000" stroke="none">
 <path d="M913 2957 c-2 -4 5 -23 17 -42 l22 -35 259 0 259 0 0 40 0 39 -276 3 c-152 2 -278 0 -281 -5z"/>
 <path d="M1530 2920 l0 -40 241 0 240 0 15 35 c7 19 14 37 14 40 0 3 -115 5 -255 5 l-255 0 0 -40z"/>
 <path d="M2121 2888 l-13 -41 359 -359 360 -360 36 16 c21 8 37 19 37 23 0 9 -752 763 -761 763 -3 0 -11 -19 -18 -42z"/>
 <path d="M450 2504 l-375 -376 34 -14 c18 -8 38 -14 45 -14 6 0 170 159 364 353 l354 354 -16 36 c-8 21 -19 37 -23 37 -4 0 -177 -169 -383 -376z"/>
 <path d="M985 2794 c8 -20 15 -38 15 -40 0 -2 215 -4 478 -4 l478 0 17 35 c9 20 17 38 17 40 0 3 -230 5 -510 5 l-510 0 15 -36z"/>
 <path d="M2070 2760 l-14 -41 321 -321 c281 -281 324 -320 344 -314 64 17 70 10 -292 371 l-345 346 -14 -41z"/>
 <path d="M740 2605 l-145 -145 28 -27 27 -28 135 135 c74 74 135 140 135 147 0 16 -22 63 -29 63 -4 0 -71 -65 -151 -145z"/>
 <path d="M1030 2690 c0 -6 7 -24 15 -40 l16 -30 204 0 205 0 0 40 0 40 -220 0 c-147 0 -220 -3 -220 -10z"/>
 <path d="M1530 2660 l0 -40 188 0 189 0 16 40 15 40 -204 0 -204 0 0 -40z"/>
 <path d="M2018 2627 l-16 -34 286 -286 287 -286 38 16 39 16 -303 303 c-167 167 -306 304 -310 304 -3 0 -12 -15 -21 -33z"/>
 <path d="M812 2497 l-123 -123 21 -27 c12 -15 27 -27 33 -27 7 0 64 52 127 115 l114 114 -17 36 c-9 19 -20 35 -24 35 -5 0 -64 -55 -131 -123z"/>
 <path d="M1100 2536 c0 -2 7 -20 15 -40 l15 -36 170 0 170 0 0 40 0 40 -185 0 c-102 0 -185 -2 -185 -4z"/>
 <path d="M1530 2500 l0 -40 155 0 155 0 15 36 c8 20 15 38 15 40 0 2 -76 4 -170 4 l-170 0 0 -40z"/>
 <path d="M1950 2470 l-14 -41 240 -239 239 -238 38 17 37 16 -263 263 -263 263 -14 -41z"/>
 <path d="M912 2367 c-56 -56 -102 -107 -102 -112 0 -14 39 -47 51 -43 12 4 189 180 189 187 -1 3 -9 21 -18 38 l-17 33 -103 -103z"/>
 <path d="M1165 2374 c8 -20 15 -38 15 -40 0 -2 65 -4 145 -4 l145 0 0 40 0 40 -160 0 -160 0 15 -36z"/>
 <path d="M1530 2370 l0 -40 130 0 c72 0 130 2 130 4 0 2 7 20 15 40 l15 36 -145 0 -145 0 0 -40z"/>
 <path d="M366 2231 l-159 -159 42 -13 41 -12 68 64 c37 35 103 101 146 146 l80 83 -24 25 c-13 14 -26 25 -29 25 -4 0 -78 -72 -165 -159z"/>
 <path d="M1898 2342 l-16 -40 87 -85 86 -86 29 25 29 26 -100 100 -99 99 -16 -39z"/>
 <path d="M982 2257 c-45 -45 -82 -85 -82 -89 0 -4 12 -19 26 -34 l27 -26 75 75 76 76 -13 40 c-6 23 -15 41 -19 41 -4 0 -44 -37 -90 -83z"/>
 <path d="M477 2162 l-138 -138 41 -19 41 -19 125 125 c68 68 124 129 124 135 0 10 -41 54 -51 54 -2 0 -66 -62 -142 -138z"/>
 <path d="M1210 2270 c0 -6 7 -24 15 -40 l16 -30 114 0 115 0 0 40 0 40 -130 0 c-84 0 -130 -4 -130 -10z"/>
 <path d="M1530 2240 l0 -40 103 0 102 0 17 40 17 40 -120 0 -119 0 0 -40z"/>
 <path d="M1846 2215 c-9 -20 -16 -40 -16 -44 0 -4 29 -36 65 -71 l65 -65 30 30 30 30 -79 79 -79 79 -16 -38z"/>
 <path d="M946 2035 c-97 -97 -176 -179 -176 -183 0 -5 16 -14 36 -21 l37 -13 159 159 160 160 -16 36 c-8 21 -17 37 -20 37 -3 0 -84 -79 -180 -175z"/>
 <path d="M620 2075 c-63 -63 -112 -116 -110 -118 12 -11 50 -27 63 -27 10 0 161 144 214 204 2 1 -10 14 -25 29 l-28 27 -114 -115z"/>
 <path d="M1290 2070 l0 -40 90 0 90 0 0 40 0 40 -90 0 -90 0 0 -40z"/>
 <path d="M1530 2070 l0 -40 90 0 90 0 0 40 0 40 -90 0 -90 0 0 -40z"/>
 <path d="M2150 2085 l-24 -26 80 -80 81 -81 38 17 39 16 -89 89 c-49 50 -92 90 -96 90 -3 0 -16 -11 -29 -25z"/>
 <path d="M726 2001 l-98 -98 43 -17 43 -17 85 85 86 86 -30 30 -30 30 -99 -99z"/>
 <path d="M2930 2071 l-35 -16 -3 -258 -2 -257 40 0 39 0 3 271 c2 149 1 272 -2 274 -3 2 -21 -4 -40 -14z"/>
 <path d="M50 1785 l0 -245 40 0 40 0 0 230 0 230 -36 15 c-20 8 -38 15 -40 15 -2 0 -4 -110 -4 -245z"/>
 <path d="M2057 1992 l-27 -28 64 -62 c62 -60 66 -62 93 -50 50 21 49 26 -22 98 -38 39 -72 70 -75 70 -4 0 -18 -13 -33 -28z"/>
 <path d="M2788 2004 l-28 -15 0 -478 0 -478 40 -16 40 -15 0 509 c0 548 3 523 -52 493z"/>
 <path d="M180 1760 l0 -220 40 0 40 0 0 205 c0 113 -2 205 -4 205 -2 0 -20 7 -40 15 l-36 15 0 -220z"/>
 <path d="M1290 1940 l0 -40 90 0 90 0 0 40 0 40 -90 0 -90 0 0 -40z"/>
 <path d="M1530 1940 l0 -40 90 0 90 0 0 40 0 40 -90 0 -90 0 0 -40z"/>
 <path d="M2663 1953 l-33 -17 0 -426 0 -426 33 -12 c18 -7 36 -12 40 -12 4 0 7 205 7 455 0 250 -3 455 -7 454 -5 0 -23 -8 -40 -16z"/>
 <path d="M310 1485 c0 -239 2 -435 4 -435 2 0 20 7 40 15 l36 15 0 408 0 408 -33 12 c-18 7 -36 12 -40 12 -4 0 -7 -196 -7 -435z"/>
 <path d="M2503 1884 l-33 -14 0 -165 0 -165 40 0 40 0 0 180 c0 99 -3 180 -7 179 -5 0 -23 -7 -40 -15z"/>
 <path d="M470 1490 c0 -252 3 -370 10 -370 6 0 24 7 40 15 l30 16 0 339 0 340 -36 15 c-20 8 -38 15 -40 15 -2 0 -4 -166 -4 -370z"/>
 <path d="M2378 1829 l-38 -19 0 -304 0 -303 40 -16 40 -15 0 339 c0 186 -1 339 -2 339 -2 -1 -20 -10 -40 -21z"/>
 <path d="M1375 1806 c-121 -51 -205 -176 -205 -306 0 -122 76 -242 188 -297 49 -24 69 -28 142 -28 65 1 96 6 132 23 67 30 133 94 165 161 24 48 28 69 28 141 0 72 -4 93 -28 141 -55 113 -158 180 -287 186 -63 3 -85 0 -135 -21z m292 -36 c55 -31 86 -67 124 -140 33 -65 33 -195 0 -260 -42 -80 -79 -118 -149 -152 -59 -29 -75 -33 -144 -32 -93 2 -121 17 -149 77 -24 55 -24 83 4 137 30 60 62 80 140 90 83 10 129 38 156 94 33 68 22 145 -28 195 -29 29 -15 26 46 -9z m-127 -80 c11 -11 20 -27 20 -35 0 -8 -9 -24 -20 -35 -11 -11 -27 -20 -35 -20 -8 0 -24 9 -35 20 -11 11 -20 27 -20 35 0 8 9 24 20 35 11 11 27 20 35 20 8 0 24 -9 35 -20z"/>
 <path d="M1467 1362 c-33 -36 -8 -92 40 -92 25 0 53 30 53 57 0 46 -62 69 -93 35z"/>
 <path d="M600 1669 l0 -139 40 0 40 0 0 123 0 124 -40 16 -40 15 0 -139z"/>
 <path d="M2243 1773 l-33 -17 0 -108 0 -108 40 0 40 0 0 125 c0 69 -3 125 -7 124 -5 0 -23 -8 -40 -16z"/>
 <path d="M730 1490 c0 -143 2 -260 5 -260 3 0 21 7 40 14 l35 15 0 233 0 234 -33 12 c-18 7 -36 12 -40 12 -4 0 -7 -117 -7 -260z"/>
 <path d="M890 1615 l0 -95 40 0 40 0 0 95 0 95 -40 0 -40 0 0 -95z"/>
 <path d="M1020 1500 l0 -210 40 0 40 0 0 210 0 210 -40 0 -40 0 0 -210z"/>
 <path d="M1900 1620 l0 -90 40 0 40 0 0 90 0 90 -40 0 -40 0 0 -90z"/>
 <path d="M2030 1500 l0 -210 40 0 40 0 0 210 0 210 -40 0 -40 0 0 -210z"/>
 <path d="M1900 1385 l0 -95 40 0 40 0 0 95 0 95 -40 0 -40 0 0 -95z"/>
 <path d="M600 1320 l0 -150 36 15 c20 8 38 15 40 15 2 0 4 61 4 135 l0 135 -40 0 -40 0 0 -150z"/>
 <path d="M890 1380 l0 -90 40 0 40 0 0 90 0 90 -40 0 -40 0 0 -90z"/>
 <path d="M50 1200 c0 -143 2 -260 5 -260 3 0 21 7 40 14 l35 15 0 245 0 246 -40 0 -40 0 0 -260z"/>
 <path d="M180 1226 l0 -234 40 15 40 16 0 219 0 218 -40 0 -40 0 0 -234z"/>
 <path d="M2210 1359 l0 -100 35 -15 c19 -7 37 -14 40 -14 3 0 5 52 5 115 l0 115 -40 0 -40 0 0 -101z"/>
 <path d="M2470 1305 c0 -85 2 -155 4 -155 2 0 20 -7 40 -15 l36 -15 0 170 0 170 -40 0 -40 0 0 -155z"/>
 <path d="M2890 1220 l0 -240 36 -15 c20 -8 38 -15 40 -15 2 0 4 115 4 255 l0 255 -40 0 -40 0 0 -240z"/>
 <path d="M801 1153 l-34 -14 189 -190 189 -190 17 38 17 38 -167 168 c-92 92 -169 167 -172 166 -3 0 -20 -7 -39 -16z"/>
 <path d="M2104 1099 l-68 -68 24 -26 c13 -14 27 -25 31 -25 9 0 162 151 157 155 -2 2 -19 10 -39 18 l-37 15 -68 -69z"/>
 <path d="M673 1098 c-13 -6 -23 -14 -23 -17 0 -3 100 -107 223 -229 l223 -223 14 41 14 41 -200 200 c-109 109 -206 199 -214 198 -8 0 -25 -5 -37 -11z"/>
 <path d="M2091 906 l-203 -204 12 -36 c6 -19 15 -38 19 -40 4 -3 110 98 236 224 l229 229 -37 16 c-20 8 -40 15 -44 15 -5 0 -100 -92 -212 -204z"/>
 <path d="M1290 1060 l0 -40 210 0 210 0 0 40 0 40 -210 0 -210 0 0 -40z"/>
 <path d="M553 1045 c-18 -8 -33 -18 -33 -22 0 -5 47 -55 105 -113 l104 -104 26 24 c14 13 25 29 25 35 0 10 -182 196 -191 195 -2 -1 -19 -7 -36 -15z"/>
 <path d="M2188 813 l-247 -246 13 -30 c6 -17 16 -32 22 -34 5 -2 128 116 273 261 l264 264 -38 16 c-20 9 -38 16 -39 16 0 0 -112 -111 -248 -247z"/>
 <path d="M388 974 c-16 -8 -28 -18 -28 -22 0 -12 244 -252 256 -252 6 0 21 11 34 25 l24 26 -119 119 c-66 66 -124 120 -130 120 -5 -1 -22 -8 -37 -16z"/>
 <path d="M2462 867 c-67 -67 -122 -127 -122 -133 0 -6 11 -21 25 -34 l26 -24 141 141 141 141 -31 16 c-17 9 -37 16 -44 16 -7 0 -68 -55 -136 -123z"/>
 <path d="M1290 930 l0 -40 210 0 210 0 0 40 0 40 -210 0 -210 0 0 -40z"/>
 <path d="M1898 893 l-67 -68 17 -39 17 -38 79 77 79 77 -29 29 -29 29 -67 -67z"/>
 <path d="M2575 790 l-150 -150 28 -27 27 -28 162 162 162 162 -37 16 c-20 8 -38 15 -39 15 -2 0 -71 -67 -153 -150z"/>
 <path d="M258 917 c-16 -6 -28 -13 -28 -16 0 -4 155 -161 344 -350 l344 -344 16 31 c9 17 16 37 16 44 0 19 -632 648 -650 647 -8 -1 -27 -6 -42 -12z"/>
 <path d="M2685 720 l-169 -169 24 -26 c13 -14 28 -25 34 -25 14 0 362 348 355 354 -3 3 -21 12 -40 20 l-35 15 -169 -169z"/>
 <path d="M131 863 l-34 -14 384 -385 c211 -211 385 -384 386 -384 2 0 10 17 18 37 l16 37 -363 363 c-200 200 -365 363 -368 362 -3 0 -20 -7 -39 -16z"/>
 <path d="M1254 764 c-8 -20 -13 -38 -11 -40 2 -2 121 -3 264 -2 l261 3 -15 38 -15 37 -235 0 -234 0 -15 -36z"/>
 <path d="M827 762 l-27 -28 120 -119 119 -119 16 37 c8 20 15 40 15 44 0 9 -202 213 -211 213 -3 0 -17 -13 -32 -28z"/>
 <path d="M712 657 c-12 -13 -22 -28 -22 -33 0 -11 272 -284 282 -284 4 0 13 18 19 41 l13 40 -130 130 c-71 71 -131 129 -135 129 -3 0 -15 -10 -27 -23z"/>
 <path d="M1202 637 c-7 -18 -12 -36 -12 -40 0 -4 142 -7 315 -7 213 0 315 3 315 10 0 6 -7 24 -15 40 l-16 30 -287 0 -288 0 -12 -33z"/>
 <path d="M2132 537 c-67 -68 -122 -127 -122 -131 0 -13 30 -66 38 -66 4 0 68 61 142 135 l134 134 -24 26 c-13 14 -29 25 -35 25 -6 0 -66 -56 -133 -123z"/>
 <path d="M2211 426 l-143 -143 13 -37 c7 -20 16 -36 19 -36 3 0 75 70 160 155 l154 154 -24 26 c-13 14 -26 25 -29 25 -4 0 -71 -65 -150 -144z"/>
 <path d="M1147 503 l-15 -38 190 -3 c104 -1 272 -1 373 0 l183 3 -15 38 -15 37 -343 0 -343 0 -15 -37z"/>
 <path d="M2282 317 l-163 -163 16 -37 c8 -20 18 -37 22 -37 12 0 343 334 343 346 0 10 -41 54 -51 54 -2 0 -77 -73 -167 -163z"/>
 <path d="M1084 345 c-7 -19 -14 -37 -14 -40 0 -3 198 -5 439 -5 l440 0 -17 40 -17 40 -408 0 -408 0 -15 -35z"/>
 <path d="M1027 210 l-15 -40 229 0 229 0 0 40 0 40 -213 0 -214 0 -16 -40z"/>
 <path d="M1530 210 l0 -40 235 0 c157 0 235 3 235 10 0 6 -7 24 -15 40 l-16 30 -219 0 -220 0 0 -40z"/>
 <path d="M977 85 c-9 -20 -17 -38 -17 -40 0 -3 248 -5 550 -5 303 0 550 2 550 5 0 2 -8 20 -17 40 l-17 35 -516 0 -516 0 -17 -35z"/>
 </g>

</svg>