<?xml version="1.0" standalone="no"?>
<!DOCTYPE svg PUBLIC "-//W3C//DTD SVG 20010904//EN"
 "http://www.w3.org/TR/2001/REC-SVG-20010904/DTD/svg10.dtd">
<svg version="1.0" xmlns="http://www.w3.org/2000/svg"
 width="1000.000000pt" height="780.000000pt" viewBox="0 0 1000.000000 780.000000"
 preserveAspectRatio="xMidYMid meet">
<metadata>
Created by potrace 1.16, written by Peter Selinger 2001-2019
</metadata>
<g transform="translate(0.000000,780.000000) scale(0.100000,-0.100000)"
fill="#000000" stroke="none">
<path d="M7248 7227 c-28 -29 -48 -38 -123 -56 -49 -12 -175 -49 -280 -81
-212 -66 -239 -71 -550 -100 -390 -37 -508 -76 -621 -204 -73 -82 -119 -191
-174 -409 -56 -219 -77 -275 -115 -305 -37 -29 -68 -28 -106 6 -28 25 -32 34
-33 86 -1 44 -5 62 -18 70 -44 27 -80 -53 -59 -129 17 -64 48 -105 94 -125 54
-25 91 -25 141 0 75 37 107 102 166 339 22 86 48 181 59 211 l20 55 0 -196 c1
-195 1 -196 -26 -245 -26 -46 -27 -56 -28 -184 0 -74 4 -152 8 -172 7 -33 13
-39 50 -49 46 -12 144 -6 160 10 7 7 1 18 -18 33 -64 54 -65 55 -65 118 0 32
5 69 11 82 6 13 49 54 96 92 90 73 188 187 228 267 14 26 36 85 49 131 14 46
25 71 25 56 1 -23 -24 -112 -43 -159 -6 -14 5 -17 81 -21 74 -5 104 -12 188
-47 109 -46 181 -66 264 -75 l54 -5 -7 57 c-3 31 -8 75 -12 97 -4 28 -2 36 5
25 5 -9 21 -101 36 -205 35 -262 64 -412 84 -436 20 -25 120 -37 164 -20 39
15 34 40 -15 83 l-43 37 1 138 c1 128 32 396 54 470 8 26 8 25 9 -12 0 -22 -6
-71 -13 -108 -10 -53 -10 -65 -1 -55 14 15 315 495 322 514 3 7 -13 22 -36 34
-22 11 -48 32 -58 46 -19 29 -21 82 -4 111 9 14 10 10 5 -23 -12 -79 18 -107
179 -168 34 -13 75 -31 92 -40 38 -20 53 -10 107 65 l39 56 -53 98 c-53 98
-102 151 -179 191 -18 9 -32 26 -37 47 -11 44 -35 45 -74 4z"/>
<path d="M8652 7243 c-6 -10 -7 -34 -3 -53 6 -31 12 -35 62 -50 93 -28 180
-81 255 -155 39 -38 76 -78 81 -89 10 -18 11 -17 47 1 l37 19 -51 77 c-65 98
-143 166 -244 217 -100 49 -169 62 -184 33z"/>
<path d="M4954 7185 c-16 -7 -68 -19 -115 -25 -46 -6 -104 -20 -128 -31 l-44
-19 24 -19 c20 -15 32 -17 69 -11 128 23 250 76 250 109 0 14 -17 13 -56 -4z"/>
<path d="M4065 7159 c-44 -4 -136 -24 -205 -45 -232 -68 -265 -76 -372 -81
-78 -4 -137 -1 -217 12 -102 16 -114 16 -184 1 -155 -35 -274 -116 -324 -223
-19 -40 -26 -80 -33 -170 -10 -125 -24 -183 -45 -183 -7 0 -18 -6 -24 -14 -15
-18 -30 -101 -21 -116 18 -28 90 43 90 89 0 14 6 46 14 71 7 25 17 93 21 151
3 58 10 111 14 118 5 7 11 -27 14 -76 8 -113 35 -191 105 -300 82 -130 120
-203 132 -257 7 -31 28 -72 58 -113 48 -63 61 -90 82 -170 9 -36 15 -43 35
-43 22 0 25 -5 25 -34 0 -38 14 -46 92 -46 50 0 78 7 78 20 0 5 -20 32 -43 62
-47 57 -126 190 -164 277 -26 59 -26 63 13 201 13 47 35 133 48 190 16 66 25
92 25 71 1 -19 -11 -79 -25 -134 -26 -97 -26 -101 -8 -114 33 -24 200 -72 292
-84 90 -11 262 -5 262 10 0 4 -11 18 -25 31 -21 20 -25 33 -25 79 0 31 5 63
11 71 7 11 8 -1 3 -41 -3 -35 -2 -65 5 -77 6 -11 69 -64 141 -117 l129 -97
-19 -39 c-11 -21 -34 -48 -50 -61 -17 -12 -30 -29 -30 -39 0 -10 -12 -21 -30
-28 -27 -9 -30 -14 -32 -58 -2 -58 1 -85 8 -92 3 -3 29 7 59 22 55 29 127 105
193 204 61 92 41 162 -80 289 -66 69 -69 86 -33 154 30 55 31 50 6 -23 l-20
-57 23 -27 c22 -25 25 -26 57 -13 59 24 147 91 188 144 67 87 95 108 167 126
l65 17 -37 44 c-90 107 -120 238 -69 296 l25 28 -21 -40 c-37 -72 -5 -177 86
-284 25 -30 55 -71 65 -92 11 -21 30 -41 42 -45 13 -4 26 -12 30 -18 4 -6 25
-11 47 -11 63 0 73 17 78 132 2 54 11 133 20 175 13 61 14 87 5 130 -6 29 -7
56 -3 61 4 4 45 12 91 17 96 11 171 33 193 58 15 16 6 17 -160 14 -165 -4
-178 -3 -214 17 -94 53 -435 97 -624 80z"/>
<path d="M8491 7117 c-18 -23 0 -72 53 -144 88 -121 222 -205 358 -227 37 -6
68 -15 68 -21 -1 -21 -58 -101 -83 -114 -23 -12 -39 -12 -114 0 -126 20 -361
18 -443 -4 -187 -50 -309 -172 -327 -328 -5 -41 -9 -49 -24 -44 -9 3 -20 1
-24 -4 -3 -6 -18 -3 -38 9 -42 26 -47 25 -47 -5 0 -22 -4 -25 -27 -23 -34 4
-34 -14 2 -85 14 -27 25 -50 25 -52 0 -1 -10 -5 -22 -9 l-23 -6 25 -20 c36
-28 124 -60 168 -60 32 0 43 -7 80 -50 24 -28 61 -60 83 -73 35 -20 39 -26 39
-63 0 -23 6 -47 14 -53 9 -8 91 -11 277 -9 l264 3 -3 25 c-5 46 -40 69 -127
81 -44 6 -114 9 -155 6 -75 -6 -74 1 6 22 97 26 154 100 154 200 -1 97 -47
168 -133 203 -25 10 -34 17 -22 17 35 1 99 -34 132 -72 35 -40 53 -91 53 -153
0 -55 -46 -143 -89 -171 l-34 -23 29 0 c16 0 57 -7 91 -15 54 -13 68 -13 110
0 26 8 53 15 59 15 6 0 14 -23 18 -50 10 -76 29 -90 125 -90 56 0 82 4 91 15
19 22 2 54 -41 75 -35 18 -39 24 -38 58 0 20 4 46 9 57 6 15 9 6 9 -33 1 -48
3 -53 29 -63 15 -5 36 -21 47 -34 19 -23 22 -24 42 -10 19 14 21 19 11 41 -7
14 -27 32 -45 39 -30 13 -33 18 -33 55 0 38 6 46 89 128 62 61 98 106 121 151
36 73 70 196 70 256 0 42 0 42 66 75 82 40 106 74 100 143 -5 56 -17 73 -63
92 -18 8 -55 32 -81 53 -26 22 -58 45 -72 53 -39 20 -150 15 -205 -10 l-48
-21 -16 22 c-63 91 -195 190 -302 227 -86 30 -219 40 -238 18z"/>
<path d="M1292 7033 l-37 -36 45 -19 c25 -11 53 -26 62 -35 16 -14 20 -13 46
8 16 13 38 29 48 35 18 10 16 14 -18 48 -50 50 -96 50 -146 -1z"/>
<path d="M1745 6970 c-33 -4 -103 -5 -155 -2 -91 4 -97 3 -154 -27 l-59 -31
-50 25 c-58 29 -84 31 -132 11 -71 -30 -84 -129 -25 -188 23 -23 37 -28 77
-28 l48 -1 -23 -19 c-34 -28 -92 -41 -154 -34 -74 8 -246 -12 -310 -36 -112
-43 -207 -141 -274 -285 -44 -96 -58 -176 -50 -283 9 -100 9 -98 6 -214 -2
-77 1 -94 24 -142 48 -97 151 -165 283 -188 103 -17 210 0 408 67 197 67 271
85 355 85 83 0 131 -14 164 -46 30 -31 34 -70 11 -114 -35 -67 -107 -78 -305
-50 -163 24 -242 21 -324 -14 -50 -21 -41 -31 15 -16 73 20 185 14 314 -15
148 -33 214 -31 283 12 80 49 111 122 83 195 -15 40 -73 88 -125 103 -105 32
-241 15 -461 -55 -71 -23 -157 -48 -190 -56 -69 -16 -194 -18 -245 -4 -55 15
-142 72 -167 109 -21 30 -41 97 -32 106 2 2 29 -3 59 -11 30 -8 87 -14 126
-14 64 0 75 -3 109 -30 21 -17 48 -33 59 -35 94 -21 307 -28 305 -11 0 5 6 13
15 18 21 12 20 24 -4 48 -17 17 -34 20 -107 21 -85 0 -87 1 -63 17 57 37 116
108 129 155 34 121 -44 255 -173 297 -47 15 -111 8 -169 -20 l-42 -21 32 30
c20 18 51 34 85 41 134 30 275 -73 295 -215 6 -47 12 -52 45 -34 16 9 24 6 45
-13 52 -49 113 -140 120 -180 10 -64 39 -90 101 -91 28 0 55 2 58 6 4 4 -11
26 -33 50 -23 24 -43 53 -46 63 -13 43 -48 227 -43 231 6 6 122 -24 161 -43
18 -8 37 -26 43 -39 7 -14 20 -25 31 -25 11 0 22 -4 25 -8 6 -10 66 -3 66 7 0
4 -7 29 -16 55 -15 43 -22 50 -85 81 -90 46 -133 85 -164 150 l-25 53 30 73
c37 93 64 125 188 229 104 87 142 128 142 152 0 7 10 32 22 55 18 34 20 47 12
70 -8 25 -14 28 -59 29 -28 1 -77 -2 -110 -6z"/>
<path d="M7004 6358 l-67 -110 76 -76 c42 -43 97 -93 122 -112 l45 -35 -6
-111 c-7 -123 -3 -134 45 -109 53 27 61 49 61 162 l0 102 -46 88 c-26 48 -73
138 -105 199 l-58 112 -67 -110z"/>
<path d="M2825 6374 c-10 -36 -33 -89 -51 -116 -19 -28 -34 -54 -34 -58 0 -4
18 -52 40 -106 25 -64 41 -124 46 -169 7 -76 16 -95 45 -95 15 0 19 -7 19 -35
l0 -35 79 0 c44 0 82 4 85 9 4 5 -13 33 -36 62 -44 56 -128 248 -128 293 0 17
14 36 45 62 l45 38 -27 45 c-14 26 -45 74 -68 109 l-42 62 -18 -66z"/>
<path d="M6103 6333 c-12 -2 -38 -27 -58 -55 l-36 -50 11 -70 c7 -38 9 -93 6
-121 -7 -52 -6 -53 59 -147 36 -52 73 -101 82 -107 23 -18 167 -17 182 0 14
17 -19 54 -60 69 -22 8 -37 27 -65 84 l-37 73 37 98 c39 106 63 199 54 209
-18 18 -120 28 -175 17z"/>
<path d="M4113 6303 l-31 -16 38 -51 c46 -60 70 -114 70 -154 0 -15 -16 -54
-35 -86 l-35 -58 28 -66 c18 -42 36 -68 48 -72 13 -3 19 -14 19 -35 l0 -30 74
-3 c41 -2 78 1 83 6 5 5 -10 33 -36 67 -64 81 -138 282 -166 448 -7 37 -15 67
-19 66 -3 0 -20 -7 -38 -16z"/>
<path d="M7081 5454 c-12 -15 -21 -29 -21 -33 0 -3 -4 -12 -9 -19 -7 -11 -16
-10 -51 8 -80 41 -183 27 -265 -36 -25 -18 -62 -41 -82 -50 -38 -16 -38 -16
-16 -31 21 -14 21 -14 -18 -51 -22 -19 -49 -53 -60 -73 -16 -33 -17 -39 -4
-46 12 -7 7 -19 -24 -68 -21 -33 -48 -69 -60 -79 -20 -18 -20 -20 -5 -38 10
-10 24 -18 31 -18 31 0 4 -26 -58 -57 -110 -56 -234 -64 -412 -27 -38 8 -86
14 -108 14 -46 0 -128 -29 -172 -62 -18 -13 -61 -30 -97 -37 -189 -37 -308
-172 -345 -391 -19 -112 -35 -143 -98 -190 l-47 -35 26 -13 c13 -7 46 -16 73
-19 59 -7 129 21 161 65 13 17 28 28 35 25 16 -6 35 76 35 148 0 30 4 48 10
44 5 -3 12 7 16 22 21 96 59 175 103 217 l31 30 0 -55 c0 -135 33 -225 131
-360 74 -101 104 -163 120 -249 10 -53 25 -84 79 -167 37 -56 76 -122 85 -146
10 -27 25 -47 36 -50 13 -3 19 -14 19 -31 0 -25 2 -26 60 -26 69 0 74 8 34 61
-50 68 -166 289 -171 328 -3 22 4 91 17 158 12 65 28 172 36 238 l13 120 -3
-92 c-2 -77 1 -94 13 -97 63 -19 254 -49 340 -53 l105 -6 -24 33 c-26 37 -42
140 -21 140 6 0 11 -19 11 -47 0 -40 11 -65 75 -176 41 -71 75 -136 75 -145 0
-18 -52 -64 -94 -83 -21 -10 -34 -9 -63 3 -99 40 -103 40 -145 6 -21 -17 -38
-37 -36 -46 2 -9 22 -21 48 -28 25 -6 62 -19 84 -28 73 -32 102 -26 196 41
125 90 134 101 126 163 -4 28 -22 105 -41 170 -29 101 -32 123 -24 156 16 59
28 62 16 4 -6 -32 -6 -62 0 -83 l9 -32 65 65 c41 41 76 87 94 125 26 55 29 73
35 215 7 157 15 191 60 279 12 24 20 44 18 46 -2 1 -25 10 -51 20 -26 10 -57
29 -67 43 -21 26 -26 77 -10 102 7 11 8 6 4 -16 -14 -75 70 -136 193 -140 46
-2 74 -9 110 -29 42 -24 56 -27 97 -21 53 8 86 34 86 68 0 14 -21 44 -54 78
-30 30 -72 84 -94 120 -23 38 -58 79 -85 100 l-46 34 6 58 c7 65 -3 74 -36 32z"/>
<path d="M9010 5431 c0 -6 11 -11 25 -11 43 0 135 -41 171 -76 52 -53 41 -58
-32 -13 -37 22 -73 38 -80 35 -19 -7 -18 -76 2 -104 8 -12 30 -30 49 -40 l33
-17 -72 -105 c-58 -84 -83 -111 -126 -137 -75 -45 -190 -92 -269 -109 -80 -17
-263 -18 -383 -3 -106 14 -157 4 -241 -47 l-57 -35 -31 25 c-17 15 -35 24 -40
21 -4 -3 -20 2 -34 11 -24 16 -25 15 -25 -4 0 -15 -5 -19 -20 -15 -26 7 -25
-3 5 -54 13 -24 20 -43 14 -43 -20 0 -7 -22 25 -41 29 -17 34 -26 39 -69 3
-27 18 -87 32 -132 47 -147 44 -346 -7 -473 -22 -55 -54 -365 -39 -375 5 -3
10 -14 12 -25 3 -16 13 -21 52 -23 52 -3 56 2 31 50 -13 25 -15 51 -12 117 6
97 21 140 73 208 62 82 133 238 165 363 16 63 29 104 29 90 1 -22 -20 -124
-34 -171 -6 -17 57 -50 135 -70 84 -21 346 -8 371 19 4 4 2 49 -5 99 -6 51 -8
89 -4 85 18 -19 28 -163 28 -435 0 -255 2 -298 15 -303 8 -4 15 -17 15 -30 0
-22 4 -24 50 -24 56 0 60 7 28 53 -20 29 -22 42 -22 172 0 150 14 239 64 431
33 124 48 169 55 162 3 -2 -4 -37 -15 -76 -11 -39 -20 -74 -20 -77 0 -15 109
55 151 97 74 74 139 228 139 329 0 76 74 285 113 317 7 6 54 15 103 18 97 7
139 23 149 54 11 35 -5 59 -75 115 -37 30 -77 70 -89 88 -22 36 -55 54 -106
59 -17 1 -45 16 -65 35 -19 17 -61 44 -93 58 -63 29 -177 46 -177 26z"/>
<path d="M1891 5390 c6 -16 33 -48 60 -71 55 -46 89 -103 88 -146 0 -25 -2
-23 -16 15 -22 64 -70 107 -135 122 -96 21 -118 31 -133 58 -9 17 -14 21 -15
11 0 -30 49 -66 113 -84 94 -26 135 -73 152 -176 4 -24 14 -60 21 -79 l15 -34
-27 24 c-14 14 -43 61 -63 105 -47 102 -81 131 -158 140 -32 3 -67 10 -78 16
-16 8 -15 6 4 -11 13 -11 36 -20 52 -20 75 0 117 -40 159 -152 28 -75 58 -117
98 -139 46 -24 50 -30 15 -20 -69 20 -111 60 -147 143 -28 64 -60 98 -90 97
-21 0 -21 0 -1 -8 29 -12 51 -41 65 -86 23 -72 50 -115 92 -145 22 -17 37 -30
31 -30 -19 0 -77 51 -115 102 -78 105 -122 139 -175 137 -27 -1 -26 -1 7 -11
40 -11 80 -45 121 -105 31 -45 36 -58 17 -47 -8 4 -10 3 -5 -2 5 -5 12 -9 16
-9 5 0 21 -15 36 -33 15 -18 48 -44 74 -57 25 -13 39 -24 31 -24 -35 -1 -122
62 -171 124 -28 36 -65 75 -82 87 l-32 21 31 -34 c17 -19 50 -62 73 -95 96
-140 232 -182 389 -118 56 22 76 13 68 -28 -3 -18 -16 -43 -29 -56 -18 -19
-21 -33 -19 -73 1 -27 4 -69 5 -93 2 -36 5 -42 16 -33 13 11 11 70 -5 110 -3
9 -2 17 2 17 5 0 20 -25 33 -56 20 -46 22 -59 12 -81 -6 -14 -9 -28 -7 -31 3
-3 13 11 21 32 14 34 14 40 -6 86 -12 28 -19 53 -16 56 3 3 8 -5 12 -18 4 -13
17 -36 27 -51 15 -20 19 -37 14 -60 -5 -30 -5 -31 9 -13 19 25 18 43 -4 86
-19 34 -19 34 3 45 14 8 26 8 38 1 27 -16 31 -2 14 48 -21 62 -20 79 3 36 10
-19 21 -60 25 -90 10 -79 62 -126 95 -87 8 11 5 13 -19 9 -25 -4 -31 0 -40 23
-5 14 -10 48 -10 74 0 30 -9 65 -24 97 l-25 49 34 -39 c19 -21 37 -51 40 -68
8 -36 30 -46 55 -23 11 10 26 14 38 11 11 -4 31 -2 44 3 21 8 26 18 31 61 4
30 2 61 -4 72 -13 24 -4 35 15 19 8 -7 27 -14 41 -15 14 -2 28 -6 32 -9 12
-12 43 14 42 36 -1 20 -2 20 -6 2 -10 -40 -53 -41 -53 -1 0 13 -3 17 -8 9 -5
-8 -13 -9 -22 -3 -24 15 -76 11 -91 -6 -11 -14 -10 -22 8 -55 32 -59 9 -59
-51 0 -48 47 -51 54 -48 91 4 36 0 44 -36 78 -22 20 -59 51 -83 67 -28 19 -48
43 -55 64 l-11 33 -16 -24 c-23 -34 -22 -3 3 70 15 45 16 53 4 37 -9 -11 -22
-33 -30 -50 l-13 -30 -1 41 c0 22 6 62 14 87 18 60 11 60 -17 0 l-21 -48 -7
53 c-10 79 -19 75 -19 -8 l0 -73 -23 21 c-33 31 -42 27 -18 -7 25 -34 60 -110
61 -128 0 -15 -46 -17 -55 -3 -10 16 -25 12 -26 -7 -2 -33 -17 31 -18 76 -1
29 -11 62 -33 99 -17 31 -35 72 -39 92 l-7 35 -1 -43 c-1 -28 8 -60 24 -92 18
-36 25 -65 25 -109 0 -33 4 -71 10 -85 5 -14 6 -26 1 -26 -13 0 -29 44 -36
102 -9 75 -41 126 -103 168 -28 19 -57 47 -64 63 -17 36 -30 35 -17 -3z"/>
<path d="M4531 5123 c-24 -8 -63 -34 -87 -57 -36 -35 -44 -49 -44 -78 0 -24
-8 -42 -26 -59 -37 -35 -56 -75 -56 -123 0 -56 17 -93 85 -194 32 -45 57 -89
57 -96 0 -22 -35 -46 -68 -46 -35 0 -94 45 -118 91 -8 16 -30 88 -49 161 -46
171 -81 245 -147 312 -71 71 -146 100 -240 93 -144 -10 -239 -114 -239 -264 0
-150 53 -226 303 -433 245 -203 288 -254 288 -338 0 -106 -146 -121 -243 -27
-53 52 -89 108 -163 257 -37 73 -81 156 -99 183 -95 147 -233 217 -356 181
-109 -31 -169 -112 -169 -227 0 -116 57 -195 231 -322 98 -71 131 -113 137
-176 6 -65 -22 -98 -98 -115 -43 -10 -55 -17 -55 -32 0 -27 57 -40 113 -25 91
25 150 115 139 211 -10 80 -51 143 -165 249 -102 96 -142 152 -142 203 0 52
64 75 116 41 41 -26 80 -93 154 -258 37 -86 87 -185 110 -220 58 -88 146 -170
227 -208 62 -29 77 -32 163 -32 88 0 101 3 163 33 122 60 185 173 174 311 -2
36 -12 85 -22 109 -16 40 -19 42 -59 42 -122 0 -247 123 -311 307 -20 57 -31
71 -103 133 -89 77 -124 138 -103 179 19 35 58 27 106 -22 37 -37 47 -57 80
-162 86 -278 203 -414 355 -415 78 0 125 16 171 57 54 49 72 87 73 153 0 73
-26 129 -102 215 -42 46 -62 78 -62 95 0 42 15 55 64 55 36 0 52 6 77 30 57
55 99 163 85 220 -6 22 -11 25 -54 24 -26 0 -67 -8 -91 -16z"/>
<path d="M1641 5014 c-50 -25 -91 -48 -91 -51 0 -3 27 -3 60 -1 69 5 67 -7 -6
-42 -24 -12 -44 -24 -44 -27 0 -3 21 -3 48 1 l47 6 -47 -46 c-27 -25 -48 -47
-48 -48 0 -5 65 10 77 17 10 6 -10 -83 -23 -105 -5 -8 2 -9 24 -5 24 5 32 3
32 -8 0 -8 -8 -15 -18 -15 -30 0 -134 38 -164 60 -15 11 -29 20 -32 20 -9 0 6
-34 22 -52 23 -27 -3 -24 -63 7 -27 13 -51 22 -53 20 -3 -2 10 -18 27 -36 l32
-32 -48 6 c-26 3 -57 9 -68 12 -14 5 -10 -2 13 -25 19 -17 32 -32 30 -34 -21
-13 -82 -36 -96 -36 -13 -1 -11 -6 10 -23 l28 -23 -33 -19 -32 -19 30 -6 c20
-4 26 -8 17 -13 -21 -14 -55 -87 -39 -87 7 0 18 5 25 12 7 7 12 9 12 5 0 -16
-32 -82 -48 -101 -17 -18 -16 -19 21 -13 20 3 37 4 37 3 0 -14 -26 -75 -39
-90 -15 -18 -15 -19 12 -12 28 7 28 6 21 -31 -4 -21 -11 -44 -17 -50 -11 -15
-2 -17 21 -4 16 9 17 4 11 -52 -3 -34 -4 -64 -2 -67 2 -2 13 1 24 8 19 12 20
11 17 -35 -3 -54 -21 -63 -43 -23 -8 14 -33 67 -54 119 -68 160 -146 213 -247
165 -51 -24 -72 -78 -82 -215 -13 -155 -30 -186 -109 -204 -24 -5 -45 -1 -78
16 -49 24 -60 22 -50 -10 11 -36 80 -64 145 -59 108 8 149 64 179 246 10 61
22 115 25 121 4 6 18 11 31 11 30 0 43 -24 91 -161 35 -101 35 -101 18 -145
-22 -57 -13 -119 26 -191 l29 -55 -32 6 c-31 6 -77 -14 -77 -32 0 -4 37 -8 82
-9 45 -2 86 -7 92 -13 5 -5 27 -10 48 -10 22 0 52 -7 68 -15 25 -13 30 -13 30
-2 0 16 -26 41 -55 52 l-20 7 20 8 c11 4 32 5 48 3 16 -3 27 -1 27 5 0 16 -34
32 -67 32 -23 1 -25 2 -11 10 9 6 28 11 42 12 19 2 22 5 14 15 -19 23 -65 15
-101 -17 -19 -16 -44 -30 -56 -30 -25 0 -58 48 -67 98 -5 27 -2 38 21 62 25
26 31 28 84 23 38 -4 66 -1 82 8 13 7 57 14 96 15 53 2 82 8 105 22 37 23 90
76 106 107 10 18 11 18 18 -10 9 -38 32 -65 56 -65 19 0 19 1 -1 26 -12 15
-21 38 -21 51 0 13 -5 34 -11 46 -12 21 -18 61 -22 150 -1 26 -5 47 -9 47 -16
0 -40 -51 -35 -75 4 -24 3 -25 -13 -10 -10 9 -20 30 -24 46 -3 17 -10 28 -16
24 -14 -9 -13 -68 2 -83 9 -9 9 -12 0 -12 -7 0 -21 14 -32 32 -16 27 -20 29
-26 14 -11 -28 12 -64 55 -86 22 -11 44 -28 50 -37 12 -23 -9 -59 -55 -94
l-34 -27 -47 18 -46 17 -2 84 c-1 46 -5 140 -9 209 -10 148 0 198 49 247 60
60 123 37 164 -60 11 -24 29 -102 41 -173 34 -196 87 -336 145 -384 10 -8 11
-18 4 -40 -12 -34 1 -91 38 -163 l24 -49 -31 7 c-30 7 -80 -14 -80 -33 0 -4
36 -7 80 -7 48 0 86 -5 97 -12 9 -7 34 -13 55 -13 21 0 50 -7 64 -16 13 -9 27
-14 30 -12 10 11 -9 36 -42 54 -28 15 -31 20 -17 25 10 4 34 4 53 2 l35 -4
-25 21 c-16 15 -33 20 -53 17 -23 -3 -26 -1 -15 10 8 7 26 14 41 15 37 3 28
22 -12 26 -24 3 -40 -4 -67 -27 -61 -55 -95 -38 -122 61 -8 30 -7 39 6 52 15
13 25 12 87 -10 79 -26 130 -30 205 -12 46 11 53 10 62 -5 13 -24 72 -52 140
-67 l58 -13 -25 -23 c-25 -23 -34 -68 -16 -79 5 -3 13 4 16 16 8 25 93 109
111 109 6 0 23 15 38 34 15 20 38 37 56 41 17 4 28 11 24 16 -8 14 -57 11 -82
-7 -32 -22 -27 -1 9 41 29 33 30 35 10 35 -12 0 -33 -12 -48 -26 -33 -33 -37
-27 -14 19 12 23 15 37 7 37 -33 -1 -56 -43 -56 -102 0 -24 -5 -49 -12 -56
-17 -17 -57 -14 -105 8 -59 26 -60 63 -3 121 22 22 52 66 67 97 26 52 28 66
28 172 0 105 -2 120 -28 174 -60 130 -141 195 -337 271 -173 67 -228 113 -250
209 -5 25 -7 64 -4 86 6 34 3 44 -22 72 -16 18 -44 57 -63 86 -18 28 -37 52
-41 52 -4 0 -49 -21 -99 -46z m384 -729 l15 -40 -3 53 c-2 44 0 50 11 35 20
-28 34 -92 27 -125 -11 -48 12 -25 30 30 l15 47 -3 -77 c-3 -87 9 -90 39 -11
15 37 19 42 25 27 15 -38 9 -92 -16 -138 -13 -25 -20 -46 -14 -46 21 0 51 22
70 53 l21 32 -6 -38 c-12 -90 -87 -136 -161 -101 -60 28 -100 104 -131 247
-18 88 -17 102 5 52 l18 -40 7 33 c4 17 5 47 1 65 l-6 32 20 -25 c11 -14 27
-43 36 -65z"/>
<path d="M6824 4310 c-17 -15 -37 -29 -44 -32 -9 -3 -7 -24 9 -88 29 -116 35
-173 23 -197 -8 -15 -5 -42 13 -112 13 -51 26 -116 30 -144 10 -86 16 -107 29
-107 8 0 12 -9 9 -24 -5 -25 15 -36 69 -36 60 0 72 20 38 63 -25 31 -63 188
-90 366 -11 75 -28 182 -38 238 l-17 101 -31 -28z"/>
<path d="M493 4296 c4 -10 7 -21 7 -26 0 -4 26 -33 58 -64 56 -54 57 -57 56
-108 0 -29 -4 -79 -9 -111 -12 -86 -27 -56 -34 67 -6 112 -16 132 -73 162 -14
7 -33 21 -42 29 -9 9 -16 12 -16 6 0 -6 20 -26 45 -43 55 -39 70 -78 62 -163
-7 -72 4 -122 33 -153 12 -12 17 -22 11 -22 -17 0 -60 60 -70 97 -6 21 -8 53
-5 73 6 39 -17 110 -36 110 -6 0 -3 -11 6 -25 13 -20 15 -38 10 -89 -7 -63 5
-114 37 -156 7 -9 0 -3 -15 13 -18 20 -32 53 -43 106 -10 42 -22 85 -27 96
-15 29 -50 65 -62 65 -6 0 -4 -6 5 -13 30 -23 47 -63 58 -134 14 -95 25 -120
69 -167 l37 -39 -32 22 c-42 29 -79 92 -94 161 -11 53 -34 110 -45 110 -2 0 0
-8 5 -19 6 -10 15 -49 21 -87 24 -149 121 -244 249 -244 58 0 65 12 26 43 -23
18 -35 36 -35 52 0 35 16 39 55 15 l35 -21 -15 42 c-18 50 -19 88 -3 126 18
42 27 214 11 201 -8 -6 -13 -35 -13 -75 0 -44 -6 -76 -20 -103 -11 -22 -20
-52 -20 -67 0 -20 -3 -24 -12 -15 -9 9 -7 26 7 71 21 70 17 113 -20 182 -14
27 -25 61 -26 76 0 27 -1 27 -11 6 -8 -17 -5 -33 16 -78 27 -59 33 -131 15
-170 -6 -14 -7 -8 -3 22 9 66 -10 106 -77 164 -32 28 -59 57 -59 64 0 8 -5 17
-12 21 -8 5 -9 2 -5 -10z"/>
<path d="M9008 4235 l-57 -30 -21 -88 c-19 -80 -20 -106 -14 -279 5 -145 10
-191 21 -195 7 -3 13 -16 13 -29 0 -22 4 -24 44 -24 25 0 47 4 50 8 3 5 -4 24
-16 43 -43 70 -35 303 18 521 13 56 23 102 22 102 -2 1 -29 -12 -60 -29z"/>
<path d="M5748 4184 c-5 -68 -32 -129 -84 -187 -31 -33 -34 -43 -34 -97 0 -34
-5 -104 -11 -157 -9 -79 -8 -99 3 -108 7 -5 12 -20 10 -32 -2 -17 3 -23 28
-28 36 -8 100 2 100 15 0 5 -11 22 -25 38 -21 25 -25 40 -25 95 0 126 14 163
93 244 l70 72 -14 33 c-19 47 -55 108 -82 143 l-24 29 -5 -60z"/>
<path d="M8235 4153 c-22 -60 -55 -118 -118 -211 l-50 -73 -9 -111 c-6 -70 -6
-113 0 -117 5 -3 11 -15 13 -26 3 -16 13 -21 52 -23 52 -3 57 4 32 48 -19 33
-19 162 -1 223 8 26 30 68 50 95 44 61 116 183 116 198 0 6 -12 17 -27 25 -16
7 -31 15 -34 17 -3 1 -14 -19 -24 -45z"/>
<path d="M854 3406 c-83 -19 -137 -49 -201 -108 -65 -62 -98 -118 -119 -199
-38 -147 21 -295 181 -455 l72 -72 -16 -28 c-12 -21 -16 -56 -16 -124 0 -148
11 -161 292 -330 103 -62 162 -104 170 -120 6 -14 17 -110 23 -214 7 -104 16
-200 19 -215 7 -26 8 -26 137 -32 71 -3 137 -3 147 -1 48 12 -5 64 -91 87 -47
14 -64 23 -67 39 -3 11 -4 111 -3 221 l3 200 -59 97 c-33 55 -88 126 -125 163
-36 36 -60 65 -54 65 16 0 96 -74 127 -119 29 -41 51 -50 197 -76 l35 -7 32
73 c18 40 35 70 37 67 3 -3 -10 -41 -28 -84 -83 -190 -83 -212 -12 -459 25
-88 49 -182 53 -210 l7 -50 125 -3 c69 -1 132 2 140 7 25 17 -15 47 -80 61
-33 7 -66 20 -74 29 -15 17 -38 165 -51 337 -7 87 -4 98 54 191 17 28 33 43
47 43 39 0 143 60 185 108 42 48 87 128 108 194 l13 38 52 -6 c62 -7 89 4 112
47 20 40 11 99 -22 130 -19 17 -24 33 -24 69 0 56 -18 84 -73 111 -79 41 -170
23 -219 -42 -107 -145 -204 -170 -591 -151 -217 11 -277 9 -397 -13 -34 -7
-38 -4 -121 82 -130 135 -168 232 -135 345 20 69 88 148 160 186 46 24 62 27
151 27 91 0 105 -3 160 -30 33 -16 128 -81 210 -143 232 -174 345 -220 489
-195 164 28 302 159 322 306 5 37 3 45 -12 51 -19 7 -44 -16 -44 -41 0 -52
-91 -163 -162 -199 -158 -80 -292 -44 -522 141 -64 51 -141 109 -171 129 -117
78 -254 108 -371 82z"/>
<path d="M4277 3285 c-25 -24 -40 -84 -34 -138 3 -41 11 -56 36 -79 17 -15 27
-28 22 -28 -5 0 -34 -23 -65 -51 -65 -59 -113 -149 -149 -279 l-24 -85 -74
-37 c-41 -20 -76 -37 -79 -37 -3 -1 -16 27 -29 62 -88 229 -196 340 -369 376
-196 41 -414 -54 -488 -214 -25 -52 -31 -95 -15 -95 5 0 23 17 40 37 37 45 38
41 7 -28 -45 -98 -69 -214 -70 -336 -1 -101 5 -136 19 -121 3 3 12 42 20 88
20 116 48 213 84 293 17 37 32 67 35 67 2 0 -5 -28 -16 -62 -15 -47 -21 -92
-22 -175 -2 -165 25 -174 50 -15 13 80 23 53 18 -48 -6 -110 0 -144 22 -136
10 4 14 -3 14 -22 0 -41 11 -73 23 -69 6 2 23 39 38 82 15 43 39 89 54 104
l26 26 -26 -58 c-31 -66 -44 -185 -26 -231 15 -38 23 -28 56 74 15 47 30 88
34 92 3 4 5 -26 3 -67 -4 -89 7 -96 42 -27 l24 47 -5 -47 c-6 -53 4 -61 44
-33 20 14 21 13 25 -37 4 -39 0 -65 -18 -109 -13 -32 -24 -63 -24 -69 0 -6 24
4 53 21 99 58 114 62 179 49 54 -12 73 -29 48 -45 -15 -9 -12 -25 5 -25 18 0
18 -5 5 -31 -9 -16 -7 -19 11 -19 17 0 20 -4 16 -21 -5 -17 -2 -20 14 -16 26
7 33 -8 39 -83 4 -56 2 -67 -15 -82 -20 -17 -20 -17 1 -12 30 8 39 -21 14 -46
-12 -12 -33 -20 -55 -20 -24 0 -35 -5 -35 -15 0 -19 55 -20 90 -1 23 13 27 12
63 -21 28 -25 42 -32 50 -24 7 7 6 16 -6 29 -17 19 -16 19 33 11 51 -8 80 -4
80 11 0 12 -28 20 -73 20 -86 0 -115 40 -116 155 -1 63 9 92 27 81 7 -4 13 12
18 41 9 62 20 83 44 83 15 0 20 -7 20 -25 0 -16 6 -25 16 -25 9 0 14 -6 11
-12 -2 -7 6 -22 18 -34 12 -11 27 -29 33 -40 11 -18 12 -18 18 3 9 33 20 21
64 -68 27 -52 36 -79 27 -79 -7 0 -21 -6 -31 -13 -15 -11 -12 -12 22 -9 33 3
40 0 45 -17 7 -28 -12 -49 -47 -53 -16 -2 -31 -9 -34 -15 -5 -18 58 -17 84 1
18 13 26 12 79 -15 64 -32 95 -37 95 -14 0 10 10 15 31 15 24 0 30 4 27 18 -3
14 -17 18 -80 22 -96 6 -110 18 -178 151 -52 100 -57 115 -40 104 6 -4 10 16
10 52 0 68 6 78 77 122 58 36 110 90 144 148 13 24 37 46 61 58 54 26 125 107
139 158 6 22 9 58 7 78 -3 37 -3 37 16 21 18 -17 19 -16 12 23 -4 21 -17 57
-28 79 -19 36 -19 39 -3 26 17 -14 17 -13 7 7 -18 33 -117 113 -140 113 -34 0
-52 11 -67 41 -20 39 -19 72 6 130 26 60 35 59 14 -1 -36 -102 -3 -170 75
-158 37 5 46 30 31 85 -8 26 -16 62 -18 79 -5 29 -4 30 31 26 43 -5 45 1 10
33 l-27 25 32 0 c35 0 54 29 41 64 -4 12 -1 31 8 46 22 38 10 63 -23 50 -37
-14 -49 -3 -31 26 33 49 9 69 -49 42 -32 -15 -39 -7 -37 42 4 61 -22 65 -69
10 -32 -37 -40 -42 -53 -31 -9 8 -16 26 -16 42 0 32 -11 37 -33 14z"/>
<path d="M6567 3140 c-25 -29 -67 -127 -67 -156 0 -14 -26 -58 -109 -184 -31
-47 -48 -61 -114 -95 -72 -36 -86 -40 -176 -43 -74 -3 -135 2 -257 23 -152 26
-214 28 -289 9 -28 -7 -91 57 -107 108 -18 61 -3 102 63 172 65 70 64 76 -15
76 -29 0 -55 -8 -80 -25 -22 -15 -36 -20 -36 -12 -1 26 -40 -38 -46 -74 -4
-23 -12 -39 -20 -39 -19 0 -18 -55 2 -114 16 -47 83 -128 113 -138 11 -3 8
-14 -16 -44 -53 -66 -72 -142 -84 -341 -6 -107 -18 -212 -30 -263 -25 -105
-44 -336 -35 -413 9 -66 25 -80 93 -80 40 0 73 15 73 35 0 5 -17 24 -37 43
l-36 33 11 109 c18 157 24 176 85 225 91 75 181 172 211 228 16 30 30 56 31
58 1 1 77 -22 168 -53 91 -30 211 -63 267 -72 l100 -18 0 -117 c0 -64 7 -170
15 -235 29 -217 38 -233 137 -233 45 0 63 5 78 20 14 14 33 20 66 20 51 0 84
14 84 35 0 7 -18 27 -39 44 -32 25 -42 42 -50 82 -21 97 -6 284 34 414 8 28
15 52 15 54 0 1 -16 -11 -35 -28 -19 -17 -48 -37 -64 -46 -34 -17 -33 -14 -65
-162 -22 -105 -23 -116 -10 -201 7 -50 16 -102 20 -117 11 -44 -18 -26 -34 21
-19 54 -10 223 18 352 22 100 24 104 60 122 58 29 142 129 192 226 46 90 100
238 114 310 10 58 19 70 79 108 63 41 82 66 90 121 9 55 -8 71 -62 56 -60 -17
-78 -13 -122 23 -22 18 -55 36 -73 40 -33 6 -33 6 -35 65 -1 75 -10 101 -33
101 -10 0 -30 -13 -43 -30z"/>
<path d="M8886 2897 c-36 -26 -6 -177 47 -236 l22 -25 -25 15 c-14 8 -36 38
-50 67 -18 36 -31 51 -46 52 -11 0 -94 -21 -185 -46 -211 -59 -347 -68 -529
-35 -236 43 -405 15 -524 -89 -19 -17 -37 -27 -40 -22 -2 4 11 20 30 35 35 29
44 63 22 85 -29 29 -72 5 -92 -52 l-13 -38 -22 23 c-11 12 -21 18 -21 12 0 -6
11 -21 24 -34 45 -47 55 -77 39 -127 -47 -158 -13 -352 79 -449 30 -31 30 -32
24 -115 -3 -45 -6 -94 -6 -108 0 -29 68 -270 81 -286 13 -16 110 -24 133 -12
17 9 15 12 -18 39 -27 23 -40 46 -56 96 -34 109 -33 109 80 202 129 106 201
193 242 293 34 84 46 96 28 27 -22 -80 -72 -163 -142 -236 l-70 -72 65 -20
c205 -63 403 -60 615 10 35 12 61 24 60 27 -67 127 -79 170 -58 202 7 11 10 5
10 -23 0 -22 13 -64 34 -105 38 -77 59 -153 81 -302 9 -59 22 -111 31 -121 9
-10 31 -17 54 -17 22 0 44 -4 50 -7 16 -10 50 5 50 21 0 14 20 13 68 -2 7 -2
22 1 33 6 17 10 15 14 -26 54 -44 42 -45 44 -45 108 0 84 13 154 45 231 13 33
23 63 21 64 -2 2 -24 -1 -48 -7 -45 -12 -45 -12 -71 -88 -37 -109 -49 -189
-39 -256 10 -64 -2 -75 -18 -16 -7 28 -8 64 0 125 10 80 49 218 68 237 4 4 34
15 67 23 32 9 80 27 107 42 62 34 148 124 182 191 14 29 32 52 39 52 33 0 135
61 172 103 60 69 91 101 109 116 18 14 17 37 -5 91 -9 24 -12 25 -112 25
l-103 0 -95 57 c-52 32 -108 62 -124 68 -22 7 -35 22 -49 56 -30 73 -134 125
-180 91z"/>
<path d="M1950 2280 c-30 -31 -66 -63 -78 -71 l-24 -14 39 -74 38 -75 162 -96
c89 -53 168 -102 176 -108 27 -22 27 -83 0 -118 -22 -30 -31 -64 -15 -64 30 0
85 25 102 47 16 21 20 40 20 100 0 72 -1 74 -41 118 -22 24 -96 92 -164 150
-122 105 -123 107 -139 168 -8 34 -17 69 -18 78 -2 11 -20 -1 -58 -41z"/>
<path d="M824 2158 c49 -108 59 -144 47 -166 -5 -10 -67 -81 -136 -158 -70
-76 -134 -149 -142 -162 -20 -29 -9 -55 48 -117 l42 -45 73 0 c45 0 74 4 74
10 0 17 -47 60 -65 60 -8 0 -23 16 -32 35 -16 34 -16 36 5 58 12 12 82 67 155
122 142 107 149 117 159 217 l5 47 -71 42 c-39 23 -99 62 -133 86 l-62 43 33
-72z"/>
<path d="M5676 2167 c-36 -64 -131 -164 -201 -212 l-52 -37 -7 -123 c-9 -149
-2 -210 27 -230 37 -26 137 -14 137 16 0 5 -16 27 -36 47 l-36 37 6 70 c9 98
26 186 39 211 7 12 48 51 93 87 77 62 144 134 144 154 0 9 -56 33 -76 33 -5 0
-22 -24 -38 -53z"/>
<path d="M7833 1819 c-24 -17 -43 -33 -43 -37 0 -16 64 -228 72 -238 11 -16
109 -24 132 -12 17 9 15 12 -18 39 -27 23 -40 46 -56 96 -24 78 -25 111 -4
141 14 21 14 23 -11 32 -32 12 -22 15 -72 -21z"/>
<path d="M0 400 l0 -400 5000 0 5000 0 0 400 0 400 -5000 0 -5000 0 0 -400z
m1395 106 c24 -11 33 -20 29 -30 -5 -14 -9 -14 -34 -1 -36 18 -61 19 -84 2
-28 -21 -9 -45 49 -62 87 -25 108 -74 54 -127 -29 -29 -33 -30 -90 -25 -68 6
-72 8 -64 29 5 13 12 14 40 5 50 -15 100 1 100 33 0 16 -8 28 -25 36 -113 52
-119 58 -106 110 11 42 70 55 131 30z m587 -46 l3 -61 35 30 c19 17 44 30 55
31 16 0 12 -7 -20 -40 l-39 -40 42 -60 c40 -57 41 -60 20 -60 -16 0 -32 14
-53 45 -16 25 -33 45 -37 45 -5 0 -8 -20 -8 -45 0 -38 -3 -45 -20 -45 -19 0
-20 7 -20 130 0 122 1 130 20 130 16 0 19 -8 22 -60z m-1353 -26 c12 -15 21
-40 21 -55 0 -29 0 -29 -65 -29 -72 0 -83 -12 -44 -51 17 -17 30 -20 65 -16
43 4 59 -5 28 -17 -69 -27 -134 19 -134 95 0 87 82 133 129 73z m456 3 c20
-16 28 -35 32 -69 5 -42 3 -50 -25 -78 -41 -40 -83 -41 -123 -1 -84 85 27 226
116 148z m630 -2 c20 -19 25 -34 25 -75 0 -63 -30 -100 -82 -100 -66 0 -103
56 -87 130 16 69 95 94 144 45z"/>
<path d="M986 424 c-50 -50 -21 -144 44 -144 48 0 80 50 66 104 -13 53 -75 75
-110 40z"/>
</g>
</svg>
