<?xml version="1.0" encoding="UTF-8" standalone="no"?>
<!-- Created with Inkscape (http://www.inkscape.org/) -->

<svg
   xmlns:dc="http://purl.org/dc/elements/1.1/"
   xmlns:cc="http://creativecommons.org/ns#"
   xmlns:rdf="http://www.w3.org/1999/02/22-rdf-syntax-ns#"
   xmlns:svg="http://www.w3.org/2000/svg"
   xmlns="http://www.w3.org/2000/svg"
   xmlns:sodipodi="http://sodipodi.sourceforge.net/DTD/sodipodi-0.dtd"
   xmlns:inkscape="http://www.inkscape.org/namespaces/inkscape"
   width="85.752274mm"
   height="50.542763mm"
   viewBox="0 0 85.752274 50.542763"
   version="1.1"
   id="svg5203"
   inkscape:version="0.92.4 (5da689c313, 2019-01-14)"
   sodipodi:docname="cow.svg">
  <defs
     id="defs5197" />
  <sodipodi:namedview
     id="base"
     pagecolor="#ffffff"
     bordercolor="#666666"
     borderopacity="1.0"
     inkscape:pageopacity="0.0"
     inkscape:pageshadow="2"
     inkscape:zoom="0.35"
     inkscape:cx="-233.66272"
     inkscape:cy="-53.05755"
     inkscape:document-units="mm"
     inkscape:current-layer="layer1"
     showgrid="false"
     fit-margin-top="0"
     fit-margin-left="0"
     fit-margin-right="0"
     fit-margin-bottom="0"
     inkscape:window-width="1920"
     inkscape:window-height="1017"
     inkscape:window-x="1912"
     inkscape:window-y="-8"
     inkscape:window-maximized="1" />
  <metadata
     id="metadata5200">
    <rdf:RDF>
      <cc:Work
         rdf:about="">
        <dc:format>image/svg+xml</dc:format>
        <dc:type
           rdf:resource="http://purl.org/dc/dcmitype/StillImage" />
        <dc:title></dc:title>
      </cc:Work>
    </rdf:RDF>
  </metadata>
  <g
     inkscape:label="Layer 1"
     inkscape:groupmode="layer"
     id="layer1"
     transform="translate(-44.814333,-84.252426)">
    <path
       style="fill:#000000;stroke:none;stroke-width:0.03527778"
       inkscape:connector-curvature="0"
       id="path10"
       d="m 95.181025,84.383246 c -1.55222,0.141111 -4.79778,0.846667 -7.23195,1.5875 -8.18444,2.398889 -9.34861,2.681111 -13.12333,2.8575 -2.75167,0.141111 -4.83305,0.03528 -7.65528,-0.423333 -3.59833,-0.564445 -4.02166,-0.564445 -6.49111,-0.03528 -5.46805,1.234722 -9.66611,4.092223 -11.43,7.866946 -0.67028,1.41111 -0.91722,2.82222 -1.16417,5.997221 -0.35277,4.40972 -0.84666,6.45584 -1.5875,6.45584 -0.24694,0 -0.635,0.21166 -0.84666,0.49388 -0.52917,0.635 -1.05834,3.56306 -0.74084,4.09223 0.635,0.98777 3.175,-1.51695 3.175,-3.13973 0,-0.49388 0.21167,-1.62277 0.49389,-2.50472 0.24695,-0.88194 0.59973,-3.28083 0.74084,-5.32694 0.10583,-2.04611 0.35277,-3.915841 0.49389,-4.162781 0.17638,-0.24695 0.38805,0.9525 0.49388,2.681111 0.28223,3.98639 1.23473,6.73806 3.70417,10.58333 2.89278,4.58611 4.23333,7.16139 4.65667,9.06639 0.24694,1.09361 0.98778,2.54 2.04611,3.98639 1.69333,2.2225 2.15194,3.175 2.89278,5.99722 0.3175,1.27 0.52916,1.51695 1.23472,1.51695 0.77611,0 0.88194,0.17639 0.88194,1.19944 0,1.34056 0.49389,1.62278 3.24556,1.62278 1.76389,0 2.75167,-0.24694 2.75167,-0.70555 0,-0.17639 -0.70556,-1.12889 -1.51695,-2.18723 -1.65805,-2.01083 -4.445,-6.70277 -5.78555,-9.77194 -0.91723,-2.08139 -0.91723,-2.2225 0.45861,-7.09084 0.45861,-1.65805 1.23472,-4.69194 1.69333,-6.70277 0.56445,-2.32834 0.88195,-3.24556 0.88195,-2.50473 0.0353,0.67028 -0.38806,2.78695 -0.88195,4.72723 -0.91722,3.42194 -0.91722,3.56305 -0.28222,4.02166 1.16417,0.84667 7.05555,2.54 10.30111,2.96334 3.175,0.38805 9.24278,0.17639 9.24278,-0.35278 0,-0.14111 -0.38806,-0.635 -0.88195,-1.09361 -0.74083,-0.70556 -0.88194,-1.16417 -0.88194,-2.78695 0,-1.09361 0.17639,-2.2225 0.38805,-2.50472 0.24695,-0.38805 0.28223,0.0353 0.10584,1.44639 -0.10584,1.23472 -0.0705,2.29306 0.17639,2.71639 0.21166,0.38805 2.43416,2.25778 4.97416,4.1275 l 4.55084,3.42194 -0.67028,1.37584 c -0.38806,0.74083 -1.19945,1.69333 -1.76389,2.15194 -0.59972,0.42334 -1.05833,1.02306 -1.05833,1.37584 0,0.35277 -0.42334,0.74083 -1.05834,0.98777 -0.9525,0.3175 -1.05833,0.49389 -1.12889,2.04611 -0.0706,2.04612 0.0353,2.99862 0.28223,3.24556 0.10583,0.10583 1.02305,-0.24694 2.08139,-0.77611 1.94027,-1.02306 4.48027,-3.70417 6.80861,-7.19667 2.15194,-3.24555 1.44639,-5.715 -2.82223,-10.19528 -2.32833,-2.43416 -2.43416,-3.03389 -1.16416,-5.43277 1.05833,-1.94028 1.09361,-1.76389 0.21166,0.81138 l -0.70555,2.01084 0.81139,0.9525 c 0.77611,0.88194 0.88194,0.91722 2.01083,0.45861 2.08139,-0.84667 5.185825,-3.21028 6.632215,-5.08 2.36362,-3.06917 3.35139,-3.81 5.89139,-4.445 l 2.29306,-0.59972 -1.30528,-1.55223 c -3.175,-3.774721 -4.23333,-8.396111 -2.43417,-10.442219 l 0.88195,-0.987778 -0.74083,1.411111 c -1.30528,2.540005 -0.17639,6.244165 3.03388,10.018886 0.88195,1.05834 1.94028,2.50473 2.29306,3.24556 0.38806,0.74083 1.05833,1.44639 1.48167,1.5875 0.45861,0.14111 0.91722,0.42333 1.05833,0.635 0.14111,0.21167 0.88194,0.38806 1.65806,0.38806 2.2225,0 2.57527,-0.59973 2.75166,-4.65667 0.0706,-1.905 0.38806,-4.691951 0.70556,-6.173611 0.45861,-2.15195 0.49389,-3.06917 0.17639,-4.586113 -0.21167,-1.023056 -0.24695,-1.975556 -0.10584,-2.151945 0.14112,-0.141111 1.5875,-0.423333 3.21028,-0.599722 3.38667,-0.388056 6.0325,-1.164167 6.80861,-2.046111 0.52917,-0.564445 0.21167,-0.599723 -5.64444,-0.493889 -5.82084,0.141111 -6.27945,0.105833 -7.54945,-0.599723 -3.31611,-1.869722 -15.34583,-3.421944 -22.013325,-2.822222 z" />
  </g>
</svg>
