<?xml version="1.0" encoding="UTF-8" standalone="no"?>
<!-- Created with Inkscape (http://www.inkscape.org/) -->

<svg
   xmlns:dc="http://purl.org/dc/elements/1.1/"
   xmlns:cc="http://creativecommons.org/ns#"
   xmlns:rdf="http://www.w3.org/1999/02/22-rdf-syntax-ns#"
   xmlns:svg="http://www.w3.org/2000/svg"
   xmlns="http://www.w3.org/2000/svg"
   xmlns:sodipodi="http://sodipodi.sourceforge.net/DTD/sodipodi-0.dtd"
   xmlns:inkscape="http://www.inkscape.org/namespaces/inkscape"
   width="59.109798mm"
   height="58.666939mm"
   viewBox="0 0 59.109798 58.666939"
   version="1.1"
   id="svg10374"
   inkscape:version="0.92.4 (5da689c313, 2019-01-14)"
   sodipodi:docname="dog.svg">
  <defs
     id="defs10368" />
  <sodipodi:namedview
     id="base"
     pagecolor="#ffffff"
     bordercolor="#666666"
     borderopacity="1.0"
     inkscape:pageopacity="0.0"
     inkscape:pageshadow="2"
     inkscape:zoom="0.35"
     inkscape:cx="-372.58217"
     inkscape:cy="59.438085"
     inkscape:document-units="mm"
     inkscape:current-layer="layer1"
     showgrid="false"
     fit-margin-top="0"
     fit-margin-left="0"
     fit-margin-right="0"
     fit-margin-bottom="0"
     inkscape:window-width="1920"
     inkscape:window-height="1017"
     inkscape:window-x="1912"
     inkscape:window-y="-8"
     inkscape:window-maximized="1" />
  <metadata
     id="metadata10371">
    <rdf:RDF>
      <cc:Work
         rdf:about="">
        <dc:format>image/svg+xml</dc:format>
        <dc:type
           rdf:resource="http://purl.org/dc/dcmitype/StillImage" />
        <dc:title></dc:title>
      </cc:Work>
    </rdf:RDF>
  </metadata>
  <g
     inkscape:label="Layer 1"
     inkscape:groupmode="layer"
     id="layer1"
     transform="translate(-81.570104,-105.89272)">
    <path
       style="fill:#000000;stroke:none;stroke-width:0.03527778"
       inkscape:connector-curvature="0"
       id="path50"
       d="m 127.61716,106.95105 c -0.88194,1.02306 -2.36361,4.48028 -2.36361,5.50333 0,0.49389 -0.91722,2.04612 -3.84528,6.49112 -1.09361,1.65805 -1.69333,2.15194 -4.02167,3.35138 -2.54,1.27 -3.03389,1.41112 -6.20889,1.51695 -2.61055,0.10583 -4.7625,-0.0706 -9.06639,-0.81139 -5.362219,-0.91722 -7.549441,-0.98778 -10.195275,-0.3175 -0.987777,0.24694 -3.210277,-2.01083 -3.774722,-3.81 -0.635,-2.15194 -0.105833,-3.59833 2.2225,-6.06778 2.293056,-2.46944 2.257778,-2.68111 -0.529166,-2.68111 -1.023056,0 -1.940278,0.28222 -2.822223,0.88195 -0.776111,0.52916 -1.27,0.70555 -1.27,0.42333 -0.03528,-0.91722 -1.411111,1.34055 -1.622778,2.61055 -0.141111,0.81139 -0.423333,1.37584 -0.705555,1.37584 -0.670278,0 -0.635,1.94028 0.07056,4.02166 0.564444,1.65806 2.928055,4.51556 3.986389,4.86834 0.388055,0.10583 0.282222,0.49389 -0.564445,1.55222 -1.869722,2.32833 -2.54,5.00945 -2.963333,12.02972 -0.211667,3.77473 -0.635,7.47889 -1.058334,9.27806 -0.881944,3.70417 -1.552222,11.85333 -1.234722,14.56972 0.3175,2.32834 0.881945,2.82222 3.280833,2.82222 1.411112,0 2.575278,-0.52916 2.575278,-1.23472 0,-0.17639 -0.599722,-0.84666 -1.305277,-1.51694 l -1.270001,-1.16417 0.388056,-3.84528 c 0.635,-5.53861 0.846666,-6.20889 2.998611,-7.9375 3.210278,-2.64583 6.385278,-6.06778 7.443611,-8.04333 0.564445,-1.05833 1.058334,-1.97556 1.093611,-2.04611 0.03528,-0.0353 2.716389,0.77611 5.926662,1.86972 3.21028,1.05833 7.44361,2.2225 9.41917,2.54 l 3.52778,0.635 v 4.1275 c 0,2.25778 0.24694,5.99722 0.52916,8.29028 1.02306,7.65528 1.34056,8.21972 4.83306,8.21972 1.5875,0 2.2225,-0.17639 2.75167,-0.70555 0.49389,-0.49389 1.16416,-0.70556 2.32833,-0.70556 1.79917,0 2.96333,-0.49389 2.96333,-1.23472 0,-0.24695 -0.635,-0.9525 -1.37583,-1.55222 -1.12889,-0.88195 -1.48167,-1.48167 -1.76389,-2.89278 -0.74083,-3.42195 -0.21166,-10.01889 1.19945,-14.605 0.28222,-0.98778 0.52916,-1.83445 0.52916,-1.905 0,-0.0353 -0.56444,0.38805 -1.23472,0.98777 -0.67028,0.59973 -1.69333,1.30528 -2.25778,1.62278 -1.19944,0.59972 -1.16416,0.49389 -2.29305,5.715 -0.77611,3.70417 -0.81139,4.09223 -0.35278,7.09084 0.24694,1.76389 0.56444,3.59833 0.70555,4.1275 0.38806,1.55222 -0.635,0.91722 -1.19944,-0.74084 -0.67028,-1.905 -0.35278,-7.86694 0.635,-12.41778 0.77611,-3.52777 0.84667,-3.66888 2.11667,-4.30388 2.04611,-1.02306 5.00944,-4.55084 6.77333,-7.97278 1.62278,-3.175 3.52778,-8.39611 4.02167,-10.93611 0.35278,-2.04612 0.67028,-2.46945 2.78694,-3.81 2.2225,-1.44639 2.89278,-2.32834 3.175,-4.26862 0.3175,-1.94027 -0.28222,-2.50472 -2.18722,-1.97555 -2.11667,0.59972 -2.75167,0.45861 -4.30389,-0.81139 -0.77611,-0.635 -1.94028,-1.27 -2.57528,-1.41111 -1.16416,-0.21167 -1.16416,-0.21167 -1.23472,-2.29306 -0.0353,-2.64583 -0.35278,-3.56305 -1.16417,-3.56305 -0.35277,0 -1.05833,0.45861 -1.51694,1.05833 z" />
  </g>
</svg>
