<?xml version="1.0" encoding="UTF-8" standalone="no"?>
<!-- Created with Inkscape (http://www.inkscape.org/) -->

<svg
   xmlns:dc="http://purl.org/dc/elements/1.1/"
   xmlns:cc="http://creativecommons.org/ns#"
   xmlns:rdf="http://www.w3.org/1999/02/22-rdf-syntax-ns#"
   xmlns:svg="http://www.w3.org/2000/svg"
   xmlns="http://www.w3.org/2000/svg"
   xmlns:sodipodi="http://sodipodi.sourceforge.net/DTD/sodipodi-0.dtd"
   xmlns:inkscape="http://www.inkscape.org/namespaces/inkscape"
   width="84.188713mm"
   height="67.299744mm"
   viewBox="0 0 84.188713 67.299744"
   version="1.1"
   id="svg6946"
   inkscape:version="0.92.4 (5da689c313, 2019-01-14)"
   sodipodi:docname="dragon.svg">
  <defs
     id="defs6940" />
  <sodipodi:namedview
     id="base"
     pagecolor="#ffffff"
     bordercolor="#666666"
     borderopacity="1.0"
     inkscape:pageopacity="0.0"
     inkscape:pageshadow="2"
     inkscape:zoom="0.35"
     inkscape:cx="-219.47455"
     inkscape:cy="152.89499"
     inkscape:document-units="mm"
     inkscape:current-layer="layer1"
     showgrid="false"
     fit-margin-top="0"
     fit-margin-left="0"
     fit-margin-right="0"
     fit-margin-bottom="0"
     inkscape:window-width="1920"
     inkscape:window-height="1017"
     inkscape:window-x="1912"
     inkscape:window-y="-8"
     inkscape:window-maximized="1" />
  <metadata
     id="metadata6943">
    <rdf:RDF>
      <cc:Work
         rdf:about="">
        <dc:format>image/svg+xml</dc:format>
        <dc:type
           rdf:resource="http://purl.org/dc/dcmitype/StillImage" />
        <dc:title></dc:title>
      </cc:Work>
    </rdf:RDF>
  </metadata>
  <g
     inkscape:label="Layer 1"
     inkscape:groupmode="layer"
     id="layer1"
     transform="translate(-41.060378,-121.98705)">
    <path
       style="fill:#000000;stroke:none;stroke-width:0.03527778"
       inkscape:connector-curvature="0"
       id="path30"
       d="m 94.274429,123.01964 c 0.211667,0.56445 1.164167,1.69334 2.116667,2.50472 1.940277,1.62278 3.139723,3.63362 3.104444,5.15056 0,0.88194 -0.07055,0.81139 -0.564444,-0.52917 -0.776113,-2.25777 -2.469446,-3.77472 -4.7625,-4.30389 -3.386667,-0.74083 -4.162779,-1.09361 -4.691946,-2.04611 -0.3175,-0.59972 -0.493887,-0.74083 -0.529167,-0.38805 0,1.05833 1.728613,2.32833 3.98639,2.96333 3.31611,0.91722 4.7625,2.57528 5.362223,6.20889 0.14111,0.84667 0.493887,2.11667 0.740833,2.78694 l 0.529167,1.19945 -0.9525,-0.84667 c -0.49389,-0.49389 -1.516946,-2.15194 -2.2225,-3.70416 -1.658056,-3.59834 -2.8575,-4.62139 -5.57389,-4.93889 -1.128889,-0.10584 -2.36361,-0.35278 -2.751666,-0.56445 -0.564444,-0.28222 -0.529167,-0.21166 0.14111,0.38806 0.458613,0.38805 1.27,0.70555 1.834446,0.70555 2.645833,0 4.1275,1.41111 5.609167,5.36223 0.987777,2.64583 2.04611,4.1275 3.457223,4.90361 1.622774,0.84666 1.763884,1.05833 0.529166,0.70555 -2.434169,-0.70555 -3.915835,-2.11666 -5.185835,-5.04472 -0.987777,-2.25778 -2.116667,-3.45722 -3.175,-3.42194 -0.740834,0 -0.740834,0 -0.03528,0.28222 1.023056,0.42333 1.799166,1.44639 2.293056,3.03389 0.811387,2.54 1.763887,4.05694 3.245554,5.11527 0.776113,0.59973 1.305279,1.05834 1.093613,1.05834 -0.67028,0 -2.71639,-1.79917 -4.056946,-3.59834 -2.751667,-3.70416 -4.303888,-4.90361 -6.173611,-4.83305 -0.9525,0.0353 -0.917223,0.0353 0.246944,0.38805 1.411113,0.38806 2.822223,1.5875 4.268613,3.70417 1.09361,1.5875 1.27,2.04611 0.59972,1.65806 -0.28222,-0.14111 -0.352777,-0.10584 -0.176387,0.0706 0.176387,0.17639 0.423333,0.3175 0.564444,0.3175 0.176389,0 0.740833,0.52916 1.27,1.16416 0.529166,0.635 1.693333,1.55223 2.610556,2.01084 0.881944,0.45861 1.375833,0.84666 1.09361,0.84666 -1.234723,0.0353 -4.303889,-2.18722 -6.0325,-4.37444 -0.987777,-1.27 -2.293056,-2.64583 -2.892777,-3.06917 l -1.128889,-0.74083 1.09361,1.19944 c 0.599723,0.67028 1.76389,2.18723 2.575279,3.35139 3.386667,4.93889 8.184444,6.42056 13.723054,4.16278 1.97556,-0.77611 2.68111,-0.45861 2.39889,0.98778 -0.10583,0.635 -0.56444,1.51694 -1.02305,1.97555 -0.635,0.67028 -0.74084,1.16417 -0.67028,2.57528 0.0353,0.9525 0.14111,2.43417 0.17639,3.28083 0.0706,1.27 0.17639,1.48167 0.56444,1.16417 0.45861,-0.38806 0.38806,-2.46944 -0.17639,-3.88055 -0.10583,-0.3175 -0.0706,-0.59973 0.0705,-0.59973 0.17639,0 0.70556,0.88195 1.16417,1.97556 0.70556,1.62278 0.77611,2.08139 0.42333,2.8575 -0.21166,0.49389 -0.3175,0.98778 -0.24694,1.09361 0.10583,0.10583 0.45861,-0.38806 0.74083,-1.12889 0.49389,-1.19944 0.49389,-1.41111 -0.21166,-3.03389 -0.42334,-0.98778 -0.67028,-1.86972 -0.56445,-1.97555 0.10583,-0.10584 0.28222,0.17639 0.42333,0.635 0.14112,0.45861 0.59973,1.27 0.9525,1.79916 0.52917,0.70556 0.67028,1.30528 0.49389,2.11667 -0.17639,1.05833 -0.17639,1.09361 0.3175,0.45861 0.67028,-0.88194 0.635,-1.51694 -0.14111,-3.03389 -0.67028,-1.19944 -0.67028,-1.19944 0.10584,-1.5875 0.49388,-0.28222 0.91722,-0.28222 1.34055,-0.0353 0.9525,0.56445 1.09361,0.0706 0.49389,-1.69333 -0.74083,-2.18722 -0.70555,-2.78695 0.10583,-1.27 0.35278,0.67028 0.74084,2.11667 0.88195,3.175 0.35278,2.78694 2.18722,4.445 3.35139,3.06917 0.28222,-0.38806 0.17639,-0.45861 -0.67028,-0.3175 -0.88195,0.14111 -1.09361,0 -1.41111,-0.81139 -0.17639,-0.49389 -0.35278,-1.69334 -0.35278,-2.61056 0,-1.05833 -0.3175,-2.29305 -0.84667,-3.42194 l -0.88194,-1.72861 1.19944,1.37583 c 0.67028,0.74083 1.30528,1.79917 1.41111,2.39889 0.28223,1.27 1.05834,1.62278 1.94028,0.81139 0.38806,-0.35278 0.91722,-0.49389 1.34056,-0.38806 0.38805,0.14111 1.09361,0.0706 1.55222,-0.10583 0.74083,-0.28222 0.91722,-0.635 1.09361,-2.15195 0.14111,-1.05833 0.0706,-2.15194 -0.14111,-2.54 -0.45861,-0.84666 -0.14111,-1.23472 0.52917,-0.67027 0.28222,0.24694 0.9525,0.49388 1.44639,0.52916 0.49388,0.0706 0.98777,0.21167 1.12888,0.3175 0.42334,0.42334 1.51695,-0.49389 1.48167,-1.27 -0.0353,-0.70555 -0.0706,-0.70555 -0.21167,-0.0706 -0.35277,1.41111 -1.86972,1.44639 -1.86972,0.0353 0,-0.45861 -0.10583,-0.59972 -0.28222,-0.3175 -0.17639,0.28222 -0.45861,0.3175 -0.77611,0.10584 -0.84667,-0.52917 -2.68111,-0.38806 -3.21028,0.21166 -0.38805,0.49389 -0.35278,0.77611 0.28222,1.94028 1.12889,2.08139 0.3175,2.08139 -1.79916,0 -1.69334,-1.65806 -1.79917,-1.905 -1.69334,-3.21028 0.14111,-1.27 0,-1.55222 -1.27,-2.75166 -0.77611,-0.70556 -2.08139,-1.79917 -2.92805,-2.36362 -0.98778,-0.67027 -1.69334,-1.51694 -1.94028,-2.25777 l -0.38805,-1.16417 -0.56444,0.84667 c -0.81139,1.19944 -0.77611,0.10583 0.10583,-2.46945 0.52917,-1.5875 0.56445,-1.86972 0.14111,-1.30528 -0.3175,0.38806 -0.77611,1.16417 -1.05833,1.76389 l -0.45861,1.05834 -0.0353,-1.44639 c 0,-0.77611 0.21166,-2.18722 0.49389,-3.06917 0.635,-2.11667 0.38805,-2.11667 -0.59973,0 l -0.74083,1.69333 -0.24694,-1.86972 c -0.35278,-2.78694 -0.67028,-2.64583 -0.67028,0.28222 v 2.57528 l -0.81139,-0.74083 c -1.16416,-1.09361 -1.48166,-0.9525 -0.635,0.24694 0.88195,1.19945 2.11667,3.88056 2.15195,4.51556 0,0.52917 -1.62278,0.59972 -1.94028,0.10583 -0.35278,-0.56444 -0.88195,-0.42333 -0.91722,0.24695 -0.0706,1.16416 -0.59973,-1.09361 -0.635,-2.68111 -0.0353,-1.02306 -0.38806,-2.18723 -1.16417,-3.4925 -0.59972,-1.09362 -1.23472,-2.54 -1.37583,-3.24556 l -0.246948,-1.23472 -0.03528,1.51694 c -0.03528,0.98778 0.282228,2.11667 0.846668,3.24556 0.635,1.27 0.88195,2.29305 0.88195,3.84528 0,1.16416 0.14111,2.50472 0.35277,2.99861 0.17639,0.49389 0.21167,0.91722 0.0353,0.91722 -0.45861,0 -1.02305,-1.55222 -1.27,-3.59833 -0.3175,-2.64584 -1.446386,-4.445 -3.633609,-5.92667 -0.987782,-0.67028 -2.010836,-1.65806 -2.257782,-2.2225 -0.599721,-1.27 -1.058333,-1.23472 -0.599721,0.10583 z" />
    <path
       style="fill:#000000;stroke:none;stroke-width:0.03527778"
       inkscape:connector-curvature="0"
       id="path34"
       d="m 85.454983,136.28409 c -1.763887,0.88194 -3.210277,1.69333 -3.210277,1.79916 0,0.10584 0.9525,0.10584 2.116667,0.0353 2.434167,-0.17639 2.36361,0.24695 -0.211667,1.48167 -0.846666,0.42333 -1.552223,0.84667 -1.552223,0.9525 0,0.10583 0.740834,0.10583 1.693334,-0.0353 l 1.658056,-0.21167 -1.658056,1.62278 c -0.9525,0.88195 -1.693334,1.65806 -1.693334,1.69333 0,0.17639 2.293057,-0.35277 2.71639,-0.59972 0.352777,-0.21166 -0.352777,2.92806 -0.81139,3.70417 -0.176387,0.28222 0.07056,0.3175 0.846667,0.17639 0.846667,-0.17639 1.12889,-0.10583 1.12889,0.28222 0,0.28222 -0.282223,0.52917 -0.635,0.52917 -1.058334,0 -4.727223,-1.34056 -5.785557,-2.11667 -0.529166,-0.38805 -1.023056,-0.70555 -1.12889,-0.70555 -0.3175,0 0.211667,1.19944 0.776113,1.83444 0.811387,0.9525 -0.105833,0.84667 -2.2225,-0.24694 -0.9525,-0.45862 -1.799166,-0.77612 -1.869723,-0.70556 -0.105833,0.0706 0.352777,0.635 0.9525,1.27 l 1.12889,1.12889 -1.693333,-0.21167 c -0.917223,-0.10583 -2.010834,-0.3175 -2.39889,-0.42333 -0.49389,-0.17639 -0.352777,0.0706 0.45861,0.88194 0.67028,0.59972 1.12889,1.12889 1.058333,1.19945 -0.740833,0.45861 -2.892776,1.27 -3.386666,1.27 -0.45861,0.0353 -0.388054,0.21166 0.352779,0.81139 l 0.987777,0.81139 -1.164166,0.67027 -1.12889,0.67028 1.058333,0.21167 c 0.705557,0.14111 0.917223,0.28222 0.599723,0.45861 -0.740833,0.49389 -1.940277,3.06917 -1.375833,3.06917 0.246943,0 0.635,-0.17639 0.881943,-0.42334 0.246947,-0.24694 0.423334,-0.3175 0.423334,-0.17639 0,0.56445 -1.128887,2.89278 -1.693334,3.56306 -0.59972,0.635 -0.564443,0.67028 0.740834,0.45861 0.705556,-0.10583 1.305279,-0.14111 1.305279,-0.10583 0,0.49389 -0.917223,2.64583 -1.375833,3.175 -0.529167,0.635 -0.529167,0.67027 0.423333,0.42333 0.987777,-0.24694 0.987777,-0.21167 0.740834,1.09361 -0.141113,0.74083 -0.388057,1.55222 -0.599723,1.76389 -0.388057,0.52917 -0.07056,0.59972 0.740833,0.14111 0.564443,-0.3175 0.599723,-0.14111 0.388056,1.83445 -0.105833,1.19944 -0.141113,2.25777 -0.07056,2.36361 0.07056,0.0706 0.45861,-0.0353 0.846667,-0.28222 0.670276,-0.42334 0.705556,-0.38806 0.599723,1.23472 -0.105834,1.905 -0.740834,2.2225 -1.516947,0.81139 -0.28222,-0.49389 -1.164166,-2.36361 -1.905,-4.19806 -2.398887,-5.64444 -5.150555,-7.51417 -8.71361,-5.82083 -1.799167,0.84666 -2.54,2.75166 -2.892778,7.58472 -0.458611,5.46806 -1.058334,6.56167 -3.845278,7.19667 -0.846667,0.17639 -1.5875,0.0353 -2.751667,-0.56445 -1.728612,-0.84666 -2.116667,-0.77611 -1.763889,0.35278 0.388055,1.27 2.822222,2.25778 5.115278,2.08139 3.81,-0.28222 5.256389,-2.25778 6.314723,-8.67833 0.352777,-2.15195 0.776111,-4.05695 0.881944,-4.26862 0.141111,-0.21166 0.635,-0.38805 1.093611,-0.38805 1.058334,0 1.516945,0.84666 3.210279,5.67972 1.234721,3.56306 1.234721,3.56306 0.635,5.11528 -0.776112,2.01083 -0.458613,4.19805 0.917221,6.73805 l 1.023056,1.94028 -1.12889,-0.21166 c -1.09361,-0.21167 -2.716388,0.49388 -2.716388,1.12889 0,0.14111 1.305278,0.28222 2.892778,0.3175 1.5875,0.0705 3.03389,0.24694 3.245557,0.45861 0.176387,0.17639 0.9525,0.35277 1.693333,0.35277 0.77611,0 1.834444,0.24695 2.398887,0.52917 0.881946,0.45861 1.058333,0.45861 1.058333,0.0706 0,-0.56444 -0.91722,-1.44639 -1.940276,-1.83445 l -0.705557,-0.24694 0.705557,-0.28222 c 0.388056,-0.14111 1.128889,-0.17639 1.693333,-0.10584 0.564443,0.10584 0.9525,0.0353 0.9525,-0.17638 0,-0.56445 -1.199444,-1.12889 -2.36361,-1.12889 -0.81139,-0.0353 -0.881947,-0.0706 -0.388057,-0.35278 0.3175,-0.21167 0.987777,-0.38806 1.481667,-0.42333 0.670277,-0.0706 0.77611,-0.17639 0.49389,-0.52917 -0.67028,-0.81139 -2.293057,-0.52917 -3.563057,0.59972 -0.670277,0.56445 -1.552223,1.05833 -1.975556,1.05833 -0.881944,0 -2.04611,-1.69333 -2.36361,-3.45722 -0.17639,-0.9525 -0.07056,-1.34055 0.740833,-2.18722 0.881943,-0.91722 1.09361,-0.98778 2.963333,-0.81139 1.340557,0.14111 2.328334,0.0353 2.892777,-0.28222 0.458613,-0.24695 2.010833,-0.49389 3.386667,-0.52917 1.869723,-0.0706 2.892779,-0.28222 3.704169,-0.77611 1.305277,-0.81139 3.175,-2.68111 3.739444,-3.77472 0.352777,-0.635 0.388056,-0.635 0.635,0.35278 0.3175,1.34055 1.128889,2.29305 1.975556,2.29305 0.670277,0 0.670277,-0.0353 -0.03528,-0.91722 -0.423334,-0.52917 -0.740834,-1.34056 -0.740834,-1.79917 0,-0.45861 -0.176387,-1.19944 -0.388054,-1.62277 -0.423333,-0.74084 -0.635,-2.15195 -0.776112,-5.29167 -0.03528,-0.91722 -0.176388,-1.65806 -0.3175,-1.65806 -0.564444,0 -1.411111,1.79917 -1.234721,2.64584 0.14111,0.84666 0.105833,0.88194 -0.458613,0.35277 -0.352777,-0.3175 -0.705554,-1.05833 -0.846666,-1.62277 -0.105834,-0.59973 -0.352777,-0.98778 -0.564444,-0.84667 -0.49389,0.3175 -0.45861,2.39889 0.07056,2.92805 0.3175,0.3175 0.3175,0.42334 0,0.42334 -0.246946,0 -0.740833,-0.49389 -1.128889,-1.12889 -0.564444,-0.9525 -0.705557,-1.02306 -0.917223,-0.49389 -0.388054,0.98778 0.423333,2.25778 1.940279,3.03389 0.77611,0.38806 1.552221,0.98778 1.763887,1.30528 0.423334,0.81139 -0.3175,2.08139 -1.940277,3.31611 l -1.199443,0.9525 -1.658057,-0.635 -1.622779,-0.59972 -0.07055,-2.96334 c -0.03528,-1.62277 -0.17639,-4.93889 -0.3175,-7.37305 -0.35278,-5.22111 0,-6.985 1.72861,-8.71361 2.116667,-2.11667 4.339167,-1.30528 5.785557,2.11666 0.388056,0.84667 1.023056,3.59834 1.446389,6.10306 1.199444,6.91444 3.069167,11.85333 5.115277,13.54667 0.352777,0.28222 0.388057,0.635 0.141111,1.41111 -0.423334,1.19944 0.03528,3.21027 1.340556,5.75027 l 0.846667,1.72862 -1.093611,-0.24695 c -1.058333,-0.24694 -2.822223,0.49389 -2.822223,1.16417 0,0.14111 1.27,0.24694 2.822223,0.24694 1.693334,0 3.033888,0.17639 3.421944,0.42334 0.3175,0.24694 1.199446,0.45861 1.940279,0.45861 0.740835,0 1.763885,0.24694 2.257775,0.56444 0.45861,0.3175 0.9525,0.49389 1.05834,0.42334 0.35277,-0.38806 -0.3175,-1.27 -1.48167,-1.905 -0.98778,-0.52917 -1.09361,-0.70556 -0.59972,-0.88195 0.35277,-0.14111 1.19944,-0.14111 1.86972,-0.0706 l 1.23472,0.14111 -0.88194,-0.74083 c -0.56445,-0.52917 -1.16417,-0.70556 -1.86973,-0.59972 -0.81138,0.10583 -0.91722,0.0353 -0.52916,-0.35278 0.28222,-0.24695 0.91722,-0.49389 1.44639,-0.52917 1.30527,-0.10583 0.98777,-0.77611 -0.42334,-0.91722 -0.84666,-0.10583 -1.41111,0.14111 -2.363608,0.9525 -2.151946,1.94028 -3.351389,1.34056 -4.303889,-2.15194 -0.282223,-1.05834 -0.246944,-1.37584 0.211666,-1.83445 0.529167,-0.45861 0.881944,-0.42333 3.069167,0.35278 2.786944,0.91722 4.586114,1.05833 7.231944,0.42333 1.62278,-0.38805 1.86972,-0.35278 2.18722,0.17639 0.45861,0.84667 2.54,1.83445 4.93889,2.36361 l 2.04611,0.45861 -0.88194,0.81139 c -0.88194,0.81139 -1.19945,2.39889 -0.56445,2.78695 0.17639,0.10583 0.45862,-0.14111 0.56445,-0.56445 0.28222,-0.88194 3.28083,-3.84528 3.91583,-3.84528 0.21167,0 0.81139,-0.52916 1.34056,-1.19944 0.52916,-0.70556 1.34055,-1.30528 1.97555,-1.44639 0.59973,-0.14111 0.98778,-0.38805 0.84667,-0.56444 -0.28222,-0.49389 -2.01083,-0.38806 -2.89278,0.24694 -1.12889,0.77611 -0.9525,0.0353 0.3175,-1.44639 1.02306,-1.16416 1.05834,-1.23472 0.35278,-1.23472 -0.42333,0 -1.16417,0.42333 -1.69333,0.91722 -1.16417,1.16417 -1.30528,0.9525 -0.49389,-0.67028 0.42333,-0.81138 0.52916,-1.30527 0.24694,-1.30527 -1.16416,0.0353 -1.97555,1.51694 -1.97555,3.59833 0,0.84667 -0.17639,1.72861 -0.42334,1.97556 -0.59972,0.59972 -2.01083,0.49388 -3.70416,-0.28223 -2.08139,-0.91722 -2.11667,-2.2225 -0.10584,-4.26861 0.77611,-0.77611 1.83445,-2.32833 2.36362,-3.42194 0.91722,-1.83445 0.98777,-2.32834 0.98777,-6.06778 0,-3.70417 -0.0706,-4.23333 -0.98777,-6.13833 -2.11667,-4.58612 -4.97417,-6.87917 -11.88862,-9.56028 -6.103054,-2.36361 -8.043331,-3.98639 -8.819441,-7.37306 -0.17639,-0.88194 -0.246946,-2.25778 -0.141113,-3.03389 0.211667,-1.19944 0.105834,-1.55222 -0.77611,-2.54 -0.564444,-0.635 -1.552223,-2.01083 -2.2225,-3.03389 -0.635,-0.98778 -1.305277,-1.83444 -1.44639,-1.83444 -0.14111,0 -1.72861,0.74083 -3.4925,1.62278 z m 13.546667,25.7175 0.529169,1.41111 -0.105833,-1.86972 c -0.07056,-1.55223 0,-1.76389 0.388054,-1.23473 0.70556,0.98778 1.19945,3.24556 0.9525,4.40973 -0.38805,1.69333 0.42333,0.88194 1.05833,-1.05834 l 0.52917,-1.65805 -0.10583,2.71639 c -0.10584,3.06916 0.3175,3.175 1.37583,0.38805 0.52917,-1.30528 0.67028,-1.48166 0.88195,-0.9525 0.52916,1.34056 0.3175,3.24556 -0.56445,4.86834 -0.45861,0.88194 -0.70555,1.62277 -0.49389,1.62277 0.74084,0 1.79917,-0.77611 2.46945,-1.86972 l 0.74083,-1.12889 -0.21167,1.34056 c -0.42333,3.175 -3.06916,4.79778 -5.67972,3.56305 -2.116667,-0.98777 -3.527777,-3.66889 -4.62139,-8.71361 -0.635,-3.10444 -0.599721,-3.59833 0.17639,-1.83444 l 0.635,1.41111 0.246943,-1.16417 c 0.141113,-0.59972 0.17639,-1.65805 0.03528,-2.29305 l -0.211667,-1.12889 0.705554,0.88194 c 0.388056,0.49389 0.9525,1.51695 1.27,2.29306 z" />
    <path
       style="fill:#000000;stroke:none;stroke-width:0.03527778"
       inkscape:connector-curvature="0"
       id="path38"
       d="m 44.956092,161.61353 c 0.141111,0.35278 0.246945,0.74084 0.246945,0.91722 0,0.14112 0.917222,1.16417 2.046111,2.25778 1.975556,1.905 2.010834,2.01084 1.975556,3.81 0,1.02306 -0.141111,2.78695 -0.3175,3.91584 -0.423334,3.03389 -0.9525,1.97555 -1.199445,-2.36361 -0.211666,-3.95112 -0.564444,-4.65667 -2.575278,-5.71501 -0.493889,-0.24694 -1.164166,-0.74083 -1.481666,-1.02305 -0.3175,-0.3175 -0.564445,-0.42333 -0.564445,-0.21167 0,0.21167 0.705556,0.91722 1.5875,1.51695 1.940278,1.37583 2.469445,2.75166 2.187222,5.75028 -0.246944,2.54 0.141112,4.30388 1.164167,5.3975 0.423334,0.42333 0.599722,0.77611 0.388056,0.77611 -0.599722,0 -2.116667,-2.11667 -2.469445,-3.42195 -0.211666,-0.74083 -0.282222,-1.86972 -0.176389,-2.57528 0.211667,-1.37583 -0.599722,-3.88055 -1.27,-3.88055 -0.211666,0 -0.105833,0.38805 0.211667,0.88194 0.458611,0.70556 0.529167,1.34056 0.352778,3.13973 -0.246945,2.2225 0.176389,4.02166 1.305278,5.50333 0.246944,0.3175 0,0.10583 -0.529167,-0.45861 -0.635,-0.70556 -1.128889,-1.86972 -1.516945,-3.73945 -0.352777,-1.48166 -0.776111,-2.99861 -0.9525,-3.38666 -0.529166,-1.02306 -1.763889,-2.29306 -2.187222,-2.29306 -0.211667,0 -0.141111,0.21167 0.176389,0.45861 1.058333,0.81139 1.658056,2.2225 2.046111,4.72722 0.493889,3.35139 0.881945,4.23334 2.434167,5.89139 l 1.305278,1.37584 -1.128889,-0.77611 c -1.481667,-1.02306 -2.786945,-3.24556 -3.316111,-5.67973 -0.388056,-1.86972 -1.199445,-3.88055 -1.587501,-3.88055 -0.07055,0 0,0.28222 0.176389,0.67027 0.211667,0.35278 0.529167,1.72862 0.740834,3.06917 0.846666,5.25639 4.268611,8.60778 8.784167,8.60778 2.046111,0 2.293056,-0.42333 0.917222,-1.51694 -0.811389,-0.635 -1.234722,-1.27 -1.234722,-1.83445 0,-1.23472 0.564444,-1.37583 1.940278,-0.52917 l 1.234722,0.74084 -0.529166,-1.48167 c -0.635,-1.76389 -0.670278,-3.10444 -0.105834,-4.445 0.635,-1.48167 0.9525,-7.54944 0.388056,-7.09083 -0.282222,0.21166 -0.458611,1.23472 -0.458611,2.64583 0,1.55222 -0.211667,2.68111 -0.705556,3.63361 -0.388055,0.77611 -0.705555,1.83445 -0.705555,2.36361 0,0.70556 -0.105834,0.84667 -0.423334,0.52917 -0.3175,-0.3175 -0.246945,-0.91722 0.246945,-2.50472 0.740833,-2.46945 0.599722,-3.98639 -0.705556,-6.42056 -0.493889,-0.9525 -0.881945,-2.15194 -0.917223,-2.68111 0,-0.9525 -0.03528,-0.9525 -0.388055,-0.21167 -0.282222,0.59973 -0.176389,1.16417 0.564444,2.75167 0.9525,2.08139 1.164167,4.62139 0.529167,5.99722 -0.211667,0.49389 -0.246944,0.28223 -0.105833,-0.77611 0.3175,-2.32833 -0.352778,-3.73944 -2.716389,-5.78555 -1.128889,-0.98778 -2.081389,-2.01084 -2.081389,-2.25778 0,-0.28222 -0.176389,-0.59972 -0.423334,-0.74084 -0.282222,-0.17638 -0.3175,-0.0705 -0.176389,0.35278 z" />
  </g>
</svg>
