<?xml version="1.0" encoding="UTF-8" standalone="no"?>
<!-- Created with Inkscape (http://www.inkscape.org/) -->

<svg
   xmlns:dc="http://purl.org/dc/elements/1.1/"
   xmlns:cc="http://creativecommons.org/ns#"
   xmlns:rdf="http://www.w3.org/1999/02/22-rdf-syntax-ns#"
   xmlns:svg="http://www.w3.org/2000/svg"
   xmlns="http://www.w3.org/2000/svg"
   xmlns:sodipodi="http://sodipodi.sourceforge.net/DTD/sodipodi-0.dtd"
   xmlns:inkscape="http://www.inkscape.org/namespaces/inkscape"
   width="61.973259mm"
   height="65.958344mm"
   viewBox="0 0 61.973259 65.958344"
   version="1.1"
   id="svg8676"
   inkscape:version="0.92.4 (5da689c313, 2019-01-14)"
   sodipodi:docname="goat.svg">
  <defs
     id="defs8670" />
  <sodipodi:namedview
     id="base"
     pagecolor="#ffffff"
     bordercolor="#666666"
     borderopacity="1.0"
     inkscape:pageopacity="0.0"
     inkscape:pageshadow="2"
     inkscape:zoom="0.35"
     inkscape:cx="-358.59961"
     inkscape:cy="213.21712"
     inkscape:document-units="mm"
     inkscape:current-layer="layer1"
     showgrid="false"
     fit-margin-top="0"
     fit-margin-left="0"
     fit-margin-right="0"
     fit-margin-bottom="0"
     inkscape:window-width="1920"
     inkscape:window-height="1017"
     inkscape:window-x="1912"
     inkscape:window-y="-8"
     inkscape:window-maximized="1" />
  <metadata
     id="metadata8673">
    <rdf:RDF>
      <cc:Work
         rdf:about="">
        <dc:format>image/svg+xml</dc:format>
        <dc:type
           rdf:resource="http://purl.org/dc/dcmitype/StillImage" />
        <dc:title></dc:title>
      </cc:Work>
    </rdf:RDF>
  </metadata>
  <g
     inkscape:label="Layer 1"
     inkscape:groupmode="layer"
     id="layer1"
     transform="translate(-77.870552,-139.28869)">
    <path
       style="fill:#000000;stroke:none;stroke-width:0.03527778"
       inkscape:connector-curvature="0"
       id="path28"
       d="m 118.38917,139.59508 c 0,0.21167 0.38805,0.38805 0.88194,0.38805 1.51695,0 4.7625,1.44639 6.0325,2.68112 1.83445,1.86972 1.44639,2.04611 -1.12889,0.45861 -1.30527,-0.77611 -2.57527,-1.34056 -2.82222,-1.23473 -0.67028,0.24695 -0.635,2.68112 0.0706,3.66889 0.28222,0.42334 1.05833,1.05834 1.72861,1.41111 l 1.16417,0.59973 -2.54,3.70416 c -2.04611,2.96334 -2.92806,3.91584 -4.445,4.83306 -2.64584,1.5875 -6.70278,3.24556 -9.48973,3.84528 -2.82222,0.59972 -9.27805,0.635 -13.511383,0.10583 -3.739448,-0.49389 -5.538615,-0.14111 -8.501948,1.65806 l -2.010834,1.23472 -1.093611,-0.88195 c -0.599722,-0.52916 -1.234722,-0.84666 -1.411111,-0.74083 -0.141111,0.10583 -0.705556,-0.0705 -1.199445,-0.38805 -0.846666,-0.56445 -0.881944,-0.52917 -0.881944,0.14111 0,0.52916 -0.176389,0.67027 -0.705556,0.52916 -0.917222,-0.24694 -0.881944,0.10584 0.176389,1.905 0.458611,0.84667 0.705556,1.51695 0.493889,1.51695 -0.705555,0 -0.246944,0.77611 0.881945,1.44639 1.023055,0.59972 1.199444,0.91722 1.375833,2.43416 0.105833,0.9525 0.635,3.06917 1.128889,4.65667 1.658056,5.18584 1.552222,12.20611 -0.246945,16.68639 -0.776111,1.94028 -1.905,12.87639 -1.375833,13.22917 0.176389,0.10583 0.352778,0.49389 0.423333,0.88194 0.105834,0.56445 0.458612,0.74084 1.834445,0.81139 1.834445,0.10584 1.975556,-0.0706 1.093611,-1.76389 -0.458611,-0.88194 -0.529167,-1.79916 -0.423333,-4.1275 0.211666,-3.42194 0.740833,-4.93889 2.575278,-7.33777 2.187222,-2.89278 4.691944,-8.39612 5.820833,-12.80584 0.564445,-2.2225 1.023056,-3.66889 1.023056,-3.175 0.03528,0.77611 -0.705556,4.37445 -1.199444,6.0325 -0.211667,0.59972 2.010833,1.76389 4.7625,2.46945 2.963333,0.74083 12.206106,0.28222 13.088056,-0.67028 0.14111,-0.14111 0.0706,-1.72861 -0.17639,-3.4925 -0.21167,-1.79917 -0.28222,-3.13972 -0.14111,-2.99861 0.635,0.67027 0.98778,5.75027 0.98778,15.34583 0,8.99583 0.0705,10.51278 0.52916,10.68917 0.28223,0.14111 0.52917,0.59972 0.52917,1.05833 0,0.77611 0.14111,0.84667 1.76389,0.84667 1.97555,0 2.11667,-0.24695 0.98778,-1.86972 -0.70556,-1.02306 -0.77611,-1.48167 -0.77611,-6.06778 0,-5.29167 0.49388,-8.43139 2.25777,-15.20473 1.16417,-4.37444 1.69334,-5.96194 1.94028,-5.715 0.10583,0.0706 -0.14111,1.30528 -0.52917,2.68112 -0.38805,1.37583 -0.70555,2.61055 -0.70555,2.71638 0,0.52917 3.84528,-1.94027 5.32694,-3.42194 2.61056,-2.61056 4.90361,-8.04333 4.90361,-11.60639 0,-2.68111 2.61056,-10.05417 3.98639,-11.18306 0.24695,-0.21166 1.905,-0.52916 3.63361,-0.635 3.42195,-0.24694 4.90362,-0.81139 5.25639,-1.905 0.38806,-1.23472 -0.17638,-2.08139 -2.64583,-4.05694 -1.30528,-1.05834 -2.71639,-2.46945 -3.13972,-3.10445 -0.77611,-1.27 -1.94028,-1.905 -3.73945,-2.08139 -0.59972,-0.0353 -1.5875,-0.56444 -2.29305,-1.23472 -0.67028,-0.59972 -2.15195,-1.55222 -3.28084,-2.04611 -2.2225,-1.02305 -6.24416,-1.62278 -6.24416,-0.91722 z" />
  </g>
</svg>
