<?xml version="1.0" encoding="UTF-8" standalone="no"?>
<!-- Created with Inkscape (http://www.inkscape.org/) -->

<svg
   xmlns:dc="http://purl.org/dc/elements/1.1/"
   xmlns:cc="http://creativecommons.org/ns#"
   xmlns:rdf="http://www.w3.org/1999/02/22-rdf-syntax-ns#"
   xmlns:svg="http://www.w3.org/2000/svg"
   xmlns="http://www.w3.org/2000/svg"
   xmlns:sodipodi="http://sodipodi.sourceforge.net/DTD/sodipodi-0.dtd"
   xmlns:inkscape="http://www.inkscape.org/namespaces/inkscape"
   width="78.669441mm"
   height="67.366524mm"
   viewBox="0 0 78.669441 67.366524"
   version="1.1"
   id="svg8110"
   inkscape:version="0.92.4 (5da689c313, 2019-01-14)"
   sodipodi:docname="horse.svg">
  <defs
     id="defs8104" />
  <sodipodi:namedview
     id="base"
     pagecolor="#ffffff"
     bordercolor="#666666"
     borderopacity="1.0"
     inkscape:pageopacity="0.0"
     inkscape:pageshadow="2"
     inkscape:zoom="0.35"
     inkscape:cx="-178.47618"
     inkscape:cy="301.59253"
     inkscape:document-units="mm"
     inkscape:current-layer="layer1"
     showgrid="false"
     inkscape:window-width="1920"
     inkscape:window-height="1017"
     inkscape:window-x="1912"
     inkscape:window-y="-8"
     inkscape:window-maximized="1"
     fit-margin-top="0"
     fit-margin-left="0"
     fit-margin-right="0"
     fit-margin-bottom="0" />
  <metadata
     id="metadata8107">
    <rdf:RDF>
      <cc:Work
         rdf:about="">
        <dc:format>image/svg+xml</dc:format>
        <dc:type
           rdf:resource="http://purl.org/dc/dcmitype/StillImage" />
        <dc:title></dc:title>
      </cc:Work>
    </rdf:RDF>
  </metadata>
  <g
     inkscape:label="Layer 1"
     inkscape:groupmode="layer"
     id="layer1"
     transform="translate(-30.212895,-161.26317)">
    <path
       style="fill:#000000;stroke:none;stroke-width:0.03527778"
       inkscape:connector-curvature="0"
       id="path26"
       d="m 97.981511,162.16636 c -0.423334,0.52916 -0.740834,1.02305 -0.740834,1.16416 0,0.10584 -0.141113,0.42334 -0.3175,0.67028 -0.246946,0.38806 -0.564446,0.35278 -1.799166,-0.28222 -2.822224,-1.44639 -6.455836,-0.9525 -9.348613,1.27 -0.881944,0.635 -2.187223,1.44639 -2.892777,1.76389 -1.340557,0.56444 -1.340557,0.56444 -0.564446,1.09361 0.740833,0.49389 0.740833,0.49389 -0.635,1.79916 -0.776111,0.67028 -1.728611,1.86973 -2.116667,2.57528 -0.564444,1.16417 -0.599721,1.37584 -0.14111,1.62278 0.423333,0.24694 0.246943,0.67028 -0.846667,2.39889 -0.740833,1.16417 -1.693333,2.43417 -2.116667,2.78694 -0.705556,0.635 -0.705556,0.70556 -0.176389,1.34056 0.352779,0.35278 0.846666,0.635 1.093612,0.635 1.093611,0 0.141111,0.91722 -2.046112,2.01083 -3.880557,1.97556 -8.255,2.25778 -14.534444,0.9525 -1.340556,-0.28222 -3.03389,-0.49389 -3.81,-0.49389 -1.622779,0 -4.515557,1.02306 -6.067779,2.18723 -0.635001,0.45861 -2.151945,1.05833 -3.421945,1.30527 -6.6675,1.30528 -10.865557,6.06778 -12.170834,13.79362 -0.670278,3.95111 -1.234723,5.04472 -3.457223,6.70277 l -1.658055,1.23473 0.917222,0.45861 c 0.458611,0.24694 1.622778,0.56444 2.575278,0.67028 2.081389,0.24694 4.550833,-0.74084 5.679722,-2.29306 0.458611,-0.59972 0.987779,-0.98778 1.234723,-0.88194 0.564445,0.21166 1.234722,-2.68112 1.234722,-5.22112 0,-1.05833 0.141111,-1.69333 0.352778,-1.55222 0.176389,0.10584 0.423333,-0.24694 0.564445,-0.77611 0.740833,-3.38667 2.081388,-6.17361 3.633611,-7.65528 l 1.093611,-1.05833 v 1.94028 c 0,4.7625 1.164167,7.9375 4.621389,12.7 2.610556,3.56305 3.668889,5.75028 4.233334,8.78417 0.352778,1.86972 0.881945,2.96333 2.786945,5.89138 1.305276,1.97556 2.68111,4.30389 2.99861,5.15056 0.352779,0.9525 0.881946,1.65806 1.27,1.76389 0.458613,0.10583 0.670279,0.49389 0.670279,1.09361 0,0.88194 0.07055,0.91722 2.116667,0.91722 2.434167,0 2.610554,-0.28222 1.199444,-2.15194 -1.76389,-2.39889 -5.856111,-10.19528 -6.0325,-11.57111 -0.105834,-0.77611 0.14111,-3.21028 0.599723,-5.57389 0.423333,-2.29306 0.987777,-6.06778 1.27,-8.39611 l 0.45861,-4.23334 -0.105833,3.24556 c -0.07056,2.71639 0.03528,3.31611 0.45861,3.42194 2.2225,0.67028 8.960556,1.72861 11.994446,1.86972 l 3.704167,0.21167 -0.846667,-1.16417 c -0.917223,-1.30527 -1.481667,-4.93888 -0.740833,-4.93888 0.211666,0 0.388056,0.67027 0.388056,1.65805 0,1.41111 0.388054,2.29306 2.645833,6.20889 1.446388,2.50472 2.645834,4.79778 2.645834,5.11528 0,0.635 -1.834446,2.25778 -3.316113,2.92805 -0.740833,0.35278 -1.199444,0.3175 -2.2225,-0.10583 -3.4925,-1.41111 -3.63361,-1.41111 -5.115277,-0.21167 -0.740833,0.59973 -1.340556,1.30528 -1.27,1.62278 0.07055,0.3175 0.77611,0.74084 1.693333,0.98778 0.881944,0.21167 2.187223,0.67028 2.963334,0.98778 2.575277,1.12889 3.598333,0.91722 6.914443,-1.44639 4.409723,-3.175 4.727223,-3.56306 4.445,-5.75028 -0.14111,-0.98778 -0.77611,-3.70417 -1.446387,-5.99722 -1.023056,-3.56306 -1.12889,-4.33917 -0.846667,-5.50334 0.564444,-2.08138 0.987777,-2.18722 0.564444,-0.14111 -0.211667,1.12889 -0.211667,2.18723 0,2.92806 l 0.3175,1.12889 2.293056,-2.29306 c 1.446388,-1.44639 2.681111,-3.06916 3.316111,-4.40972 0.917223,-1.94028 1.023056,-2.57528 1.234723,-7.58472 0.246943,-5.53861 0.529166,-6.73806 2.116666,-9.8425 0.423334,-0.84667 0.705557,-1.55223 0.635,-1.62278 -0.07056,-0.0353 -0.881943,-0.35278 -1.799166,-0.70556 -0.917223,-0.35277 -2.010834,-1.02305 -2.363613,-1.51694 -0.740833,-0.91722 -0.917221,-2.71639 -0.352777,-3.59834 0.246944,-0.38805 0.282223,-0.21166 0.14111,0.56445 -0.493887,2.64583 2.469446,4.79778 6.808613,4.93889 1.622776,0.0706 2.610556,0.3175 3.880556,1.02305 1.48167,0.84667 1.97555,0.9525 3.42194,0.74084 1.86973,-0.28222 3.03389,-1.19945 3.03389,-2.39889 0,-0.49389 -0.74083,-1.55222 -1.905,-2.75167 -1.05833,-1.05833 -2.54,-2.96333 -3.31611,-4.23333 -0.81139,-1.34056 -2.04611,-2.78695 -2.99861,-3.52778 l -1.622776,-1.19944 0.211667,-2.04612 c 0.246943,-2.29305 -0.105834,-2.61055 -1.27,-1.12888 z" />
  </g>
</svg>
