<?xml version="1.0" encoding="UTF-8" standalone="no"?>
<!-- Created with Inkscape (http://www.inkscape.org/) -->

<svg
   xmlns:dc="http://purl.org/dc/elements/1.1/"
   xmlns:cc="http://creativecommons.org/ns#"
   xmlns:rdf="http://www.w3.org/1999/02/22-rdf-syntax-ns#"
   xmlns:svg="http://www.w3.org/2000/svg"
   xmlns="http://www.w3.org/2000/svg"
   xmlns:sodipodi="http://sodipodi.sourceforge.net/DTD/sodipodi-0.dtd"
   xmlns:inkscape="http://www.inkscape.org/namespaces/inkscape"
   width="60.455341mm"
   height="67.329391mm"
   viewBox="0 0 60.455341 67.329391"
   version="1.1"
   id="svg9242"
   inkscape:version="0.92.4 (5da689c313, 2019-01-14)"
   sodipodi:docname="monkey.svg">
  <defs
     id="defs9236" />
  <sodipodi:namedview
     id="base"
     pagecolor="#ffffff"
     bordercolor="#666666"
     borderopacity="1.0"
     inkscape:pageopacity="0.0"
     inkscape:pageshadow="2"
     inkscape:zoom="0.35"
     inkscape:cx="-415.75369"
     inkscape:cy="-78.477587"
     inkscape:document-units="mm"
     inkscape:current-layer="layer1"
     showgrid="false"
     fit-margin-top="0"
     fit-margin-left="0"
     fit-margin-right="0"
     fit-margin-bottom="0"
     inkscape:window-width="1920"
     inkscape:window-height="1017"
     inkscape:window-x="1912"
     inkscape:window-y="-8"
     inkscape:window-maximized="1" />
  <metadata
     id="metadata9239">
    <rdf:RDF>
      <cc:Work
         rdf:about="">
        <dc:format>image/svg+xml</dc:format>
        <dc:type
           rdf:resource="http://purl.org/dc/dcmitype/StillImage" />
        <dc:title></dc:title>
      </cc:Work>
    </rdf:RDF>
  </metadata>
  <g
     inkscape:label="Layer 1"
     inkscape:groupmode="layer"
     id="layer1"
     transform="translate(-92.992568,-60.740077)">
    <path
       style="fill:#000000;stroke:none;stroke-width:0.03527778"
       inkscape:connector-curvature="0"
       id="path46"
       d="m 104.67428,61.063068 c -2.92806,0.670278 -4.833058,1.728611 -7.090836,3.81 -2.293056,2.187222 -3.457222,4.162778 -4.198056,7.020279 -1.340555,5.185833 0.740834,10.406945 6.385278,16.051391 l 2.540004,2.54 -0.56445,0.987776 c -0.42333,0.740834 -0.56444,1.975557 -0.56444,4.374444 0,5.221112 0.38805,5.679722 10.30111,11.641672 3.63361,2.18722 5.715,3.66888 5.99722,4.23333 0.21167,0.49389 0.59972,3.88055 0.81139,7.54944 0.24694,3.66889 0.56444,7.05556 0.67028,7.58473 0.24694,0.91722 0.28222,0.91722 4.83305,1.12889 2.50473,0.10583 4.83306,0.10583 5.18584,0.0353 1.69333,-0.42334 -0.17639,-2.25778 -3.21028,-3.06917 -1.65806,-0.49389 -2.25778,-0.81139 -2.36361,-1.37583 -0.10583,-0.38806 -0.14111,-3.91584 -0.10583,-7.79639 l 0.10583,-7.05556 -2.08139,-3.42194 c -1.16417,-1.94028 -3.10445,-4.445 -4.40972,-5.750282 -1.27,-1.27 -2.11667,-2.293054 -1.905,-2.293054 0.56444,0 3.38666,2.610554 4.48028,4.198056 1.02305,1.44639 1.79916,1.76389 6.94972,2.68111 l 1.23472,0.24694 1.12889,-2.57527 c 0.635,-1.41112 1.23472,-2.469449 1.30528,-2.363616 0.10583,0.105834 -0.35278,1.446386 -0.98778,2.963336 -2.92806,6.70278 -2.92806,7.47889 -0.42333,16.1925 0.88194,3.10444 1.72861,6.42056 1.86972,7.40833 l 0.24694,1.76389 4.40973,0.10584 c 2.43416,0.0353 4.65666,-0.0706 4.93888,-0.24695 0.88195,-0.59972 -0.52916,-1.65805 -2.82222,-2.15194 -1.16416,-0.24695 -2.32833,-0.70556 -2.61055,-1.02306 -0.52917,-0.59972 -1.34056,-5.82083 -1.79917,-11.88861 -0.24694,-3.06917 -0.14111,-3.45722 1.905,-6.73806 0.59972,-0.98777 1.16417,-1.51694 1.65806,-1.51694 1.37583,0 5.04472,-2.11667 6.52639,-3.81 1.48166,-1.693336 3.06916,-4.515556 3.81,-6.843889 l 0.45861,-1.340557 1.83444,0.211667 c 2.18722,0.246943 3.13972,-0.14111 3.95111,-1.658057 0.70556,-1.41111 0.38806,-3.4925 -0.77611,-4.58611 -0.67028,-0.599722 -0.84667,-1.164167 -0.84667,-2.434167 0,-1.975556 -0.635,-2.963333 -2.57527,-3.915834 -2.78695,-1.446388 -5.99723,-0.811388 -7.72584,1.481667 -3.77472,5.115278 -7.19666,5.997224 -20.84917,5.326945 -7.65527,-0.388056 -9.77194,-0.3175 -14.00527,0.458612 -1.19945,0.246944 -1.34056,0.14111 -4.26862,-2.892779 -4.586107,-4.762503 -5.926663,-8.184448 -4.762496,-12.170837 0.705556,-2.434167 3.104446,-5.221112 5.644446,-6.561667 1.62278,-0.846667 2.18722,-0.9525 5.32694,-0.9525 3.21028,0 3.70417,0.105833 5.64445,1.058333 1.16416,0.564445 4.51555,2.8575 7.40833,5.044723 8.18445,6.138334 12.17084,7.761112 17.25084,6.879167 5.78555,-0.987778 10.65389,-5.609167 11.35944,-10.795001 0.17639,-1.305278 0.10584,-1.5875 -0.42333,-1.799167 -0.67028,-0.246944 -1.55222,0.564445 -1.55222,1.446389 0,1.834445 -3.21028,5.750279 -5.715,7.020279 -5.57389,2.822222 -10.30112,1.552222 -18.41501,-4.974168 -2.25777,-1.799166 -4.97416,-3.845278 -6.0325,-4.550833 -4.1275,-2.751667 -8.96055,-3.81 -13.08805,-2.892778 z" />
  </g>
</svg>
