<?xml version="1.0" encoding="UTF-8" standalone="no"?>
<!-- Created with Inkscape (http://www.inkscape.org/) -->

<svg
   xmlns:dc="http://purl.org/dc/elements/1.1/"
   xmlns:cc="http://creativecommons.org/ns#"
   xmlns:rdf="http://www.w3.org/1999/02/22-rdf-syntax-ns#"
   xmlns:svg="http://www.w3.org/2000/svg"
   xmlns="http://www.w3.org/2000/svg"
   xmlns:sodipodi="http://sodipodi.sourceforge.net/DTD/sodipodi-0.dtd"
   xmlns:inkscape="http://www.inkscape.org/namespaces/inkscape"
   width="74.31562mm"
   height="49.596153mm"
   viewBox="0 0 74.31562 49.596153"
   version="1.1"
   id="svg10931"
   inkscape:version="0.92.4 (5da689c313, 2019-01-14)"
   sodipodi:docname="pig.svg">
  <defs
     id="defs10925" />
  <sodipodi:namedview
     id="base"
     pagecolor="#ffffff"
     bordercolor="#666666"
     borderopacity="1.0"
     inkscape:pageopacity="0.0"
     inkscape:pageshadow="2"
     inkscape:zoom="0.35"
     inkscape:cx="-180.9896"
     inkscape:cy="219.43938"
     inkscape:document-units="mm"
     inkscape:current-layer="layer1"
     showgrid="false"
     fit-margin-top="0"
     fit-margin-left="0"
     fit-margin-right="0"
     fit-margin-bottom="0"
     inkscape:window-width="1920"
     inkscape:window-height="1017"
     inkscape:window-x="1912"
     inkscape:window-y="-8"
     inkscape:window-maximized="1" />
  <metadata
     id="metadata10928">
    <rdf:RDF>
      <cc:Work
         rdf:about="">
        <dc:format>image/svg+xml</dc:format>
        <dc:type
           rdf:resource="http://purl.org/dc/dcmitype/StillImage" />
        <dc:title></dc:title>
      </cc:Work>
    </rdf:RDF>
  </metadata>
  <g
     inkscape:label="Layer 1"
     inkscape:groupmode="layer"
     id="layer1"
     transform="translate(-30.877903,-157.29718)">
    <path
       style="fill:#000000;stroke:none;stroke-width:0.03527778"
       inkscape:connector-curvature="0"
       id="path52"
       d="m 81.184016,157.67284 c -1.27,0.91722 -0.211667,6.24417 1.658056,8.32556 l 0.776111,0.88194 -0.881944,-0.52916 c -0.49389,-0.28223 -1.27,-1.34056 -1.76389,-2.36362 -0.635,-1.27 -1.09361,-1.79916 -1.622777,-1.83444 -0.388056,0 -3.31611,0.74083 -6.526389,1.62278 -7.443611,2.08139 -12.24139,2.39889 -18.661946,1.23472 -8.325556,-1.51694 -14.2875,-0.52917 -18.485556,3.13972 -0.670277,0.59972 -1.305277,0.9525 -1.411111,0.77611 -0.07056,-0.14111 0.388056,-0.70555 1.058334,-1.23472 1.234722,-1.02305 1.552222,-2.2225 0.776111,-2.99861 -1.023056,-1.02306 -2.54,-0.17639 -3.245556,1.83444 l -0.458611,1.34056 -0.776111,-0.81139 c -0.388056,-0.42333 -0.740834,-0.635 -0.740834,-0.42333 0,0.21166 0.388056,0.74083 0.846667,1.19944 1.5875,1.65806 1.940278,2.71639 1.375833,4.48028 -1.658055,5.57389 -0.458611,12.41778 2.786945,15.83972 1.058333,1.09361 1.058333,1.12889 0.846667,4.05695 -0.105834,1.5875 -0.211667,3.31611 -0.211667,3.81 0,1.02305 2.398889,9.525 2.8575,10.08944 0.458611,0.56445 3.880556,0.84667 4.691945,0.42334 0.599722,-0.3175 0.529166,-0.42334 -0.635,-1.37584 -0.9525,-0.81139 -1.411112,-1.62277 -1.975556,-3.38666 -1.199444,-3.84528 -1.164166,-3.84528 2.822222,-7.12612 4.550834,-3.73944 7.090834,-6.80861 8.537223,-10.33638 1.199444,-2.96334 1.622778,-3.38667 0.987778,-0.9525 -0.776111,2.82222 -2.54,5.75027 -5.009445,8.32555 l -2.469445,2.54 2.293056,0.70556 c 7.231945,2.2225 14.216946,2.11666 21.695833,-0.35278 1.234724,-0.42333 2.151947,-0.84667 2.116667,-0.9525 -2.36361,-4.48028 -2.786943,-5.99722 -2.04611,-7.12611 0.246943,-0.38806 0.352777,-0.17639 0.352777,0.81139 0,0.77611 0.458613,2.25777 1.199446,3.70416 1.340554,2.71639 2.081387,5.3975 2.8575,10.65389 0.3175,2.08139 0.77611,3.91584 1.09361,4.26861 0.3175,0.35278 1.093613,0.59973 1.905,0.59973 0.776113,0 1.552223,0.14111 1.76389,0.24694 0.564444,0.35278 1.76389,-0.17639 1.76389,-0.74083 0,-0.49389 0.705554,-0.45861 2.398887,0.0706 0.246946,0.0706 0.776113,-0.0353 1.164167,-0.21167 0.599723,-0.35278 0.529166,-0.49389 -0.917221,-1.905 -1.552223,-1.48167 -1.5875,-1.55222 -1.5875,-3.81 0,-2.96333 0.45861,-5.43278 1.5875,-8.14917 0.45861,-1.16416 0.811387,-2.2225 0.740833,-2.25778 -0.07056,-0.0705 -0.846666,0.0353 -1.693333,0.24695 -1.5875,0.42333 -1.5875,0.42333 -2.504723,3.10444 -1.305277,3.84528 -1.72861,6.6675 -1.375833,9.03112 0.352777,2.25777 -0.07056,2.64583 -0.635,0.56444 -0.246944,-0.98778 -0.282223,-2.25778 0,-4.40972 0.352777,-2.82223 1.72861,-7.69056 2.398889,-8.36084 0.141111,-0.14111 1.199444,-0.52916 2.363611,-0.81139 1.128889,-0.3175 2.822223,-0.9525 3.774723,-1.48166 2.18722,-1.19945 5.22111,-4.37445 6.420556,-6.73806 0.493887,-1.02305 1.128887,-1.83444 1.375834,-1.83444 1.164166,0 4.7625,-2.15195 6.067781,-3.63361 2.11666,-2.43417 3.21027,-3.56306 3.84527,-4.09223 0.635,-0.49388 0.59973,-1.30527 -0.17638,-3.21027 -0.3175,-0.84667 -0.42334,-0.88195 -3.95112,-0.88195 h -3.633608 l -3.35139,-2.01083 c -1.834443,-1.12889 -3.81,-2.18722 -4.374443,-2.39889 -0.776113,-0.24694 -1.234723,-0.77611 -1.728613,-1.97556 -1.058333,-2.57527 -4.727221,-4.40972 -6.35,-3.21027 z" />
  </g>
</svg>
