<?xml version="1.0" encoding="UTF-8" standalone="no"?>
<!-- Created with Inkscape (http://www.inkscape.org/) -->

<svg
   xmlns:dc="http://purl.org/dc/elements/1.1/"
   xmlns:cc="http://creativecommons.org/ns#"
   xmlns:rdf="http://www.w3.org/1999/02/22-rdf-syntax-ns#"
   xmlns:svg="http://www.w3.org/2000/svg"
   xmlns="http://www.w3.org/2000/svg"
   xmlns:sodipodi="http://sodipodi.sourceforge.net/DTD/sodipodi-0.dtd"
   xmlns:inkscape="http://www.inkscape.org/namespaces/inkscape"
   width="59.941505mm"
   height="53.914143mm"
   viewBox="0 0 59.941505 53.914143"
   version="1.1"
   id="svg6326"
   inkscape:version="0.92.4 (5da689c313, 2019-01-14)"
   sodipodi:docname="rabbit.svg">
  <defs
     id="defs6320" />
  <sodipodi:namedview
     id="base"
     pagecolor="#ffffff"
     bordercolor="#666666"
     borderopacity="1.0"
     inkscape:pageopacity="0.0"
     inkscape:pageshadow="2"
     inkscape:zoom="0.35"
     inkscape:cx="-162.43901"
     inkscape:cy="59.027817"
     inkscape:document-units="mm"
     inkscape:current-layer="layer1"
     showgrid="false"
     fit-margin-top="0"
     fit-margin-left="0"
     fit-margin-right="0"
     fit-margin-bottom="0"
     inkscape:window-width="1920"
     inkscape:window-height="1017"
     inkscape:window-x="1912"
     inkscape:window-y="-8"
     inkscape:window-maximized="1" />
  <metadata
     id="metadata6323">
    <rdf:RDF>
      <cc:Work
         rdf:about="">
        <dc:format>image/svg+xml</dc:format>
        <dc:type
           rdf:resource="http://purl.org/dc/dcmitype/StillImage" />
        <dc:title></dc:title>
      </cc:Work>
    </rdf:RDF>
  </metadata>
  <g
     inkscape:label="Layer 1"
     inkscape:groupmode="layer"
     id="layer1"
     transform="translate(-25.969725,-110.53697)">
    <path
       style="fill:#000000;stroke:none;stroke-width:0.03527778"
       inkscape:connector-curvature="0"
       id="path6"
       d="m 55.4004,111.07583 c -0.211667,0.35278 -0.246944,1.19945 -0.105834,1.86972 0.211667,1.09361 0.423334,1.23473 2.187223,1.76389 3.280834,0.98778 6.35,2.8575 8.995834,5.46806 1.375833,1.34055 2.681113,2.75167 2.8575,3.13972 0.352779,0.635 0.388056,0.59972 1.658056,-0.0353 l 1.305277,-0.67027 -1.799167,-2.71639 c -2.293053,-3.45723 -5.04472,-5.85612 -8.607776,-7.65528 -3.52778,-1.72861 -5.961947,-2.18722 -6.491113,-1.16417 z" />
    <path
       style="fill:#000000;stroke:none;stroke-width:0.03527778"
       inkscape:connector-curvature="0"
       id="path12"
       d="m 49.720678,115.52083 c -0.635,0.81139 0,2.54 1.869723,5.08 3.104445,4.26861 7.831665,7.23195 12.629445,8.00806 1.305277,0.21166 2.39889,0.52916 2.39889,0.74083 -0.03528,0.74083 -2.046113,3.56306 -2.928057,4.02167 -0.81139,0.42333 -1.375833,0.42333 -4.021666,0 -4.445,-0.70556 -12.735279,-0.635 -15.628057,0.14111 -6.596945,1.76389 -10.900834,6.06778 -11.535834,11.57111 -0.176389,1.44639 -0.3175,1.72861 -0.846667,1.55222 -0.3175,-0.10583 -0.705555,-0.0353 -0.846666,0.14111 -0.105834,0.21167 -0.635,0.10584 -1.340556,-0.3175 -1.481667,-0.91722 -1.658056,-0.88194 -1.658056,0.17639 0,0.77611 -0.141111,0.88195 -0.9525,0.81139 -1.199444,-0.14111 -1.199444,0.49389 0.07056,2.99861 0.493889,0.9525 0.881944,1.76389 0.881944,1.83445 0,0.0353 -0.352777,0.17639 -0.776111,0.3175 l -0.811389,0.21166 0.881945,0.70556 c 1.27,0.98778 4.374444,2.11667 5.926667,2.11667 1.128889,0 1.516944,0.24694 2.822222,1.76389 0.846666,0.98777 2.151944,2.11666 2.928055,2.57527 1.234723,0.70556 1.375834,0.91723 1.375834,2.2225 0,0.81139 0.211666,1.65806 0.493889,1.86973 0.3175,0.28222 3.210278,0.38805 9.771945,0.3175 l 9.313332,-0.10584 -0.105833,-0.88194 c -0.176387,-1.62278 -1.41111,-2.43417 -4.480277,-2.8575 -1.552223,-0.21167 -4.021667,-0.3175 -5.468056,-0.21167 -2.645833,0.21167 -2.610555,-0.0353 0.211667,-0.77611 3.421946,-0.91722 5.432779,-3.52778 5.432779,-7.05556 -0.03528,-3.42194 -1.658057,-5.92666 -4.691946,-7.16139 -0.881944,-0.35277 -1.199444,-0.59972 -0.776111,-0.59972 1.234723,-0.0353 3.4925,1.19945 4.656667,2.54 1.234723,1.41111 1.869723,3.21028 1.869723,5.3975 0,1.94028 -1.622779,5.04473 -3.139723,6.0325 l -1.199444,0.81139 h 1.023054 c 0.564447,0 2.010834,0.24695 3.21028,0.52917 1.905,0.45861 2.398887,0.45861 3.880554,0 0.917223,-0.28222 1.869723,-0.52917 2.081389,-0.52917 0.211667,0 0.49389,0.81139 0.635,1.76389 0.352777,2.68111 1.023057,3.175 4.409724,3.175 1.975556,0 2.892776,-0.14111 3.210276,-0.52917 0.67028,-0.77611 0.07056,-1.905 -1.446387,-2.64583 -1.234723,-0.635 -1.375833,-0.84667 -1.340556,-2.04611 0,-0.70556 0.14111,-1.62278 0.3175,-2.01083 0.211667,-0.52917 0.3175,-0.21167 0.3175,1.16416 0.03528,1.69334 0.105833,1.86973 1.023056,2.2225 0.529167,0.17639 1.27,0.74084 1.658054,1.19945 0.67028,0.81139 0.776113,0.84666 1.481667,0.35278 0.670279,-0.49389 0.740833,-0.67028 0.388056,-1.44639 -0.246943,-0.49389 -0.9525,-1.12889 -1.5875,-1.37584 -1.058333,-0.45861 -1.164166,-0.635 -1.164166,-1.94027 0,-1.34056 0.211666,-1.62278 3.139723,-4.51556 2.18722,-2.15194 3.45722,-3.73944 4.26861,-5.32695 1.27,-2.57527 2.469443,-6.91444 2.469443,-9.03111 0,-1.48166 0,-1.48166 2.328336,-2.64583 2.892777,-1.41111 3.739444,-2.61056 3.527777,-5.04472 -0.176389,-1.97556 -0.599723,-2.57528 -2.2225,-3.24556 -0.635,-0.28222 -1.940279,-1.12889 -2.8575,-1.86972 -0.917223,-0.77611 -2.046113,-1.5875 -2.54,-1.86972 -1.375833,-0.70556 -5.291666,-0.52917 -7.231946,0.35278 l -1.693333,0.74083 -0.564444,-0.77611 c -2.2225,-3.21028 -6.879166,-6.70278 -10.65389,-8.00806 -3.033889,-1.05833 -7.725833,-1.41111 -8.396111,-0.635 z" />
  </g>
</svg>
