<?xml version="1.0" encoding="UTF-8" standalone="no"?>
<!-- Created with Inkscape (http://www.inkscape.org/) -->

<svg
   xmlns:dc="http://purl.org/dc/elements/1.1/"
   xmlns:cc="http://creativecommons.org/ns#"
   xmlns:rdf="http://www.w3.org/1999/02/22-rdf-syntax-ns#"
   xmlns:svg="http://www.w3.org/2000/svg"
   xmlns="http://www.w3.org/2000/svg"
   xmlns:sodipodi="http://sodipodi.sourceforge.net/DTD/sodipodi-0.dtd"
   xmlns:inkscape="http://www.inkscape.org/namespaces/inkscape"
   width="50.680344mm"
   height="55.524982mm"
   viewBox="0 0 50.680344 55.524982"
   version="1.1"
   id="svg4637"
   inkscape:version="0.92.4 (5da689c313, 2019-01-14)"
   sodipodi:docname="rat.svg">
  <defs
     id="defs4631" />
  <sodipodi:namedview
     id="base"
     pagecolor="#ffffff"
     bordercolor="#666666"
     borderopacity="1.0"
     inkscape:pageopacity="0.0"
     inkscape:pageshadow="2"
     inkscape:zoom="0.35"
     inkscape:cx="-368.51184"
     inkscape:cy="104.92932"
     inkscape:document-units="mm"
     inkscape:current-layer="layer1"
     showgrid="false"
     fit-margin-top="0"
     fit-margin-left="0"
     fit-margin-right="0"
     fit-margin-bottom="0"
     inkscape:window-width="1920"
     inkscape:window-height="1017"
     inkscape:window-x="1912"
     inkscape:window-y="-8"
     inkscape:window-maximized="1" />
  <metadata
     id="metadata4634">
    <rdf:RDF>
      <cc:Work
         rdf:about="">
        <dc:format>image/svg+xml</dc:format>
        <dc:type
           rdf:resource="http://purl.org/dc/dcmitype/StillImage" />
        <dc:title></dc:title>
      </cc:Work>
    </rdf:RDF>
  </metadata>
  <g
     inkscape:label="Layer 1"
     inkscape:groupmode="layer"
     id="layer1"
     transform="translate(-80.493162,-121.0709)">
    <path
       style="fill:#000000;stroke:none;stroke-width:0.03527778"
       inkscape:connector-curvature="0"
       id="path16"
       d="m 125.0538,121.28935 c -1.16417,0.14111 -3.63362,0.17639 -5.46806,0.0706 -3.21028,-0.14111 -3.42194,-0.10584 -5.43278,0.9525 l -2.08139,1.09361 -1.76389,-0.88195 c -2.04611,-1.02305 -2.96333,-1.09361 -4.65666,-0.38805 -2.50473,1.05833 -2.96334,4.55083 -0.88195,6.63222 0.81139,0.81139 1.30528,0.98778 2.71639,0.98778 l 1.69334,0.0353 -0.81139,0.67027 c -1.19945,0.98778 -3.24556,1.44639 -5.43278,1.19945 -2.61056,-0.28222 -8.678337,0.42333 -10.936115,1.27 -3.951111,1.51694 -7.3025,4.97416 -9.666112,10.05416 -1.552222,3.38667 -2.046111,6.20889 -1.763889,9.98362 0.3175,3.52778 0.3175,3.45722 0.211667,7.54944 -0.07055,2.71639 0.03528,3.31611 0.846667,5.00945 1.693333,3.42194 5.326945,5.82083 9.983611,6.63222 3.633612,0.59972 7.408334,0 14.393331,-2.36361 6.94973,-2.36361 9.56028,-2.99861 12.52362,-2.99861 2.92805,0 4.62139,0.49389 5.78555,1.62277 1.05834,1.09362 1.19945,2.46945 0.38806,4.02167 -1.23472,2.36361 -3.77472,2.75167 -10.75972,1.76389 -5.75028,-0.84667 -8.53723,-0.74083 -11.43001,0.49389 -1.76389,0.74083 -1.44639,1.09361 0.52917,0.56444 2.57528,-0.70555 6.52639,-0.49388 11.07722,0.52917 5.22112,1.16417 7.54945,1.09361 9.98362,-0.42333 2.82222,-1.72861 3.91583,-4.30389 2.92805,-6.87917 -0.52917,-1.41111 -2.57528,-3.10444 -4.40972,-3.63361 -3.70417,-1.12889 -8.50195,-0.52917 -16.26306,1.94028 -2.50472,0.81139 -5.53861,1.69333 -6.702777,1.97555 -2.434167,0.56445 -6.843889,0.635 -8.643056,0.14111 -1.940278,-0.52916 -5.009444,-2.54 -5.891389,-3.84527 -0.740833,-1.05834 -1.446389,-3.42195 -1.128889,-3.73945 0.07056,-0.0705 1.023056,0.10583 2.081389,0.38806 1.058334,0.28222 3.069167,0.49389 4.445,0.49389 2.257778,0 2.645834,0.10583 3.845278,1.05833 0.740833,0.59972 1.693334,1.16417 2.081389,1.23472 3.316111,0.74083 10.830275,0.98778 10.759725,0.38806 0,-0.17639 0.21167,-0.45861 0.52917,-0.635 0.74083,-0.42334 0.70555,-0.84667 -0.14112,-1.69334 -0.59972,-0.59972 -1.19944,-0.70555 -3.77472,-0.74083 -2.99861,0 -3.06917,-0.0353 -2.2225,-0.59972 2.01083,-1.30528 4.09222,-3.81 4.55084,-5.46806 1.19944,-4.26861 -1.55223,-8.99583 -6.10306,-10.4775 -1.658057,-0.52917 -3.915835,-0.28222 -5.961946,0.70556 l -1.481667,0.74083 1.128889,-1.05833 c 0.705556,-0.635 1.799167,-1.19945 2.998611,-1.44639 4.727223,-1.05834 9.701393,2.57528 10.406943,7.58472 0.21167,1.65806 0.42334,1.83444 1.5875,1.19944 0.56445,-0.3175 0.84667,-0.21166 1.5875,0.45862 1.83445,1.72861 3.98639,4.93889 4.23334,6.35 0.35278,2.25777 1.37583,3.175 3.56305,3.21027 0.98778,0 1.94028,-0.0706 2.04611,-0.21166 0.14112,-0.14111 -0.38805,-0.91722 -1.16416,-1.76389 -0.81139,-0.84667 -1.51695,-1.86972 -1.62278,-2.2225 -0.45861,-1.51695 -1.69333,-8.00806 -1.51694,-8.14917 0.21166,-0.21167 4.30388,0.84667 5.67972,1.51695 0.635,0.28222 1.30528,0.91722 1.51694,1.37583 0.24695,0.49389 0.70556,0.88194 1.09361,0.88194 0.38806,0 0.77611,0.14111 0.88195,0.28223 0.21166,0.35277 2.32833,0.10583 2.32833,-0.24695 0,-0.14111 -0.24694,-1.02305 -0.56444,-1.94028 -0.52917,-1.51694 -0.77611,-1.76389 -2.99861,-2.8575 -3.175,-1.62277 -4.69195,-2.99861 -5.78556,-5.29166 l -0.88194,-1.86973 1.05833,-2.57527 c 1.30528,-3.28084 2.25778,-4.40973 6.63222,-8.07862 3.66889,-3.06916 5.00945,-4.51555 5.00945,-5.36222 0,-0.24694 0.35277,-1.12889 0.77611,-1.94028 0.635,-1.19944 0.70555,-1.65805 0.42333,-2.46944 -0.28222,-0.88194 -0.49389,-0.98778 -2.08139,-1.02306 -0.98778,-0.0353 -2.71639,0.0706 -3.88055,0.21167 z" />
  </g>
</svg>
