<?xml version="1.0" encoding="UTF-8" standalone="no"?>
<!-- Created with Inkscape (http://www.inkscape.org/) -->

<svg xmlns:dc="http://purl.org/dc/elements/1.1/" 
    xmlns:cc="http://creativecommons.org/ns#" 
    xmlns:rdf="http://www.w3.org/1999/02/22-rdf-syntax-ns#" 
    xmlns:svg="http://www.w3.org/2000/svg" 
    xmlns="http://www.w3.org/2000/svg" 
    xmlns:sodipodi="http://sodipodi.sourceforge.net/DTD/sodipodi-0.dtd" 
    xmlns:inkscape="http://www.inkscape.org/namespaces/inkscape" width="57.648743mm" height="63.26664mm" viewBox="0 0 57.648743 63.26664" version="1.1" id="svg9808" inkscape:version="0.92.4 (5da689c313, 2019-01-14)" sodipodi:docname="Rooster.svg">
    <defs id="defs9802" />
    <sodipodi:namedview id="base" pagecolor="#ffffff" bordercolor="#666666" borderopacity="1.0" inkscape:pageopacity="0.0" inkscape:pageshadow="2" inkscape:zoom="0.35" inkscape:cx="-355.34325" inkscape:cy="119.55909" inkscape:document-units="mm" inkscape:current-layer="layer1" showgrid="false" fit-margin-top="0" fit-margin-left="0" fit-margin-right="0" fit-margin-bottom="0" inkscape:window-width="1920" inkscape:window-height="1017" inkscape:window-x="1912" inkscape:window-y="-8" inkscape:window-maximized="1" />
    <metadata id="metadata9805">
        <rdf:RDF>
            <cc:Work rdf:about="">
                <dc:format>image/svg+xml</dc:format>
                <dc:type rdf:resource="http://purl.org/dc/dcmitype/StillImage" />
                <dc:title></dc:title>
            </cc:Work>
        </rdf:RDF>
    </metadata>
    <g inkscape:label="Layer 1" inkscape:groupmode="layer" id="layer1" transform="translate(-77.008974,-117.20003)">
        <path style="fill:#000000;stroke:none;stroke-width:0.03527778" inkscape:connector-curvature="0" id="path48" d="m 122.55635,117.70236 c -0.88194,0.84666 -1.41111,2.96333 -1.19944,4.86833 0.10583,1.44639 0.38805,1.97556 1.27,2.78695 0.59972,0.52916 0.9525,0.98777 0.77611,0.98777 -0.17639,0 -1.19944,0.81139 -2.29306,1.79917 -2.29305,2.08139 -3.98638,5.25639 -5.25639,9.8425 l -0.84666,2.99861 -2.61056,1.30528 c -1.44639,0.70556 -2.68111,1.30528 -2.78694,1.30528 -0.10584,0.0353 -0.56445,-0.9525 -1.02306,-2.18722 -3.10444,-8.07862 -6.91444,-11.99445 -13.017497,-13.26445 -6.914445,-1.44639 -14.605001,1.905 -17.215557,7.54945 -0.881944,1.83444 -1.093611,3.35138 -0.529166,3.35138 0.176389,0 0.811389,-0.59972 1.411111,-1.30527 1.305278,-1.5875 1.340556,-1.44639 0.246944,0.98777 -1.5875,3.45723 -2.434167,7.54945 -2.469444,11.85334 -0.03528,3.56306 0.176389,4.79778 0.670278,4.26861 0.105833,-0.10583 0.423333,-1.48167 0.705555,-3.10444 0.705556,-4.09223 1.693334,-7.51417 2.963334,-10.33639 0.599722,-1.30528 1.128889,-2.36362 1.234722,-2.36362 0.07056,0 -0.176389,0.98778 -0.564444,2.18723 -0.529167,1.65805 -0.740834,3.24555 -0.776112,6.17361 -0.07055,5.82083 0.881945,6.13833 1.763889,0.52917 0.458611,-2.82223 0.811389,-1.86973 0.635,1.69333 -0.211666,3.88056 0,5.08 0.776111,4.79778 0.352778,-0.14111 0.493889,0.10583 0.493889,0.77611 0,1.44639 0.388056,2.57528 0.811389,2.43417 0.211667,-0.0706 0.811389,-1.37584 1.340556,-2.89278 0.529167,-1.51695 1.375834,-3.13972 1.905,-3.66889 l 0.917223,-0.91722 -0.917223,2.04611 c -1.093611,2.32833 -1.552222,6.52639 -0.917222,8.14916 0.529167,1.34056 0.811389,0.98778 1.975556,-2.61055 0.529166,-1.65806 1.058333,-3.10445 1.199444,-3.24556 0.105834,-0.14111 0.176389,0.91723 0.105834,2.36361 -0.141112,3.13973 0.246944,3.38667 1.481666,0.9525 l 0.846667,-1.65805 -0.176389,1.65805 c -0.211667,1.86973 0.141111,2.15195 1.552222,1.16417 0.705556,-0.49389 0.740834,-0.45861 0.881945,1.30528 0.141111,1.37583 0,2.29306 -0.635,3.84528 -0.458611,1.12889 -0.846667,2.2225 -0.846667,2.43416 0,0.21167 0.846667,-0.14111 1.869722,-0.74083 3.492501,-2.04611 4.021664,-2.18722 6.314724,-1.72861 1.905,0.42333 2.57528,1.02306 1.69333,1.5875 -0.52917,0.3175 -0.42333,0.88194 0.17639,0.88194 0.635,0 0.635,0.17639 0.17639,1.09362 -0.3175,0.56444 -0.24695,0.67027 0.38805,0.67027 0.59973,0 0.70556,0.14111 0.56445,0.74084 -0.17639,0.59972 -0.0706,0.70555 0.49389,0.56444 0.91722,-0.24694 1.16416,0.28222 1.37583,2.92806 0.14111,1.97555 0.0706,2.36361 -0.52917,2.89277 -0.70555,0.59973 -0.70555,0.59973 0.0353,0.42334 1.05834,-0.28222 1.37584,0.74083 0.49389,1.62278 -0.42333,0.42333 -1.16417,0.70555 -1.94028,0.70555 -0.84666,0 -1.23472,0.17639 -1.23472,0.52917 0,0.67028 1.94028,0.70555 3.175,0.0353 0.81139,-0.45862 0.9525,-0.42334 2.2225,0.74083 0.98778,0.88194 1.48167,1.12889 1.76389,0.84667 0.24694,-0.24695 0.21167,-0.56445 -0.21167,-1.02306 -0.59972,-0.67028 -0.56444,-0.67028 1.16417,-0.38806 1.79917,0.28223 2.82222,0.14112 2.82222,-0.38805 0,-0.42333 -0.98778,-0.70556 -2.57528,-0.70556 -3.03388,0 -4.05694,-1.41111 -4.09222,-5.46805 -0.0353,-2.2225 0.3175,-3.24556 0.9525,-2.8575 0.24695,0.14111 0.45861,-0.42334 0.635,-1.44639 0.3175,-2.18722 0.70556,-2.92806 1.55222,-2.92806 0.52917,0 0.70556,0.24695 0.70556,0.88195 0,0.56444 0.21167,0.88194 0.56444,0.88194 0.3175,0 0.49389,0.21167 0.38806,0.42334 -0.0706,0.24694 0.21167,0.77611 0.635,1.19944 0.42333,0.38806 0.9525,1.02306 1.16417,1.41111 0.38805,0.635 0.42333,0.635 0.635,-0.10583 0.3175,-1.16417 0.70555,-0.74084 2.25778,2.39889 0.9525,1.83444 1.27,2.78694 0.9525,2.78694 -0.24695,0 -0.74084,0.21167 -1.09362,0.45861 -0.52916,0.38806 -0.42333,0.42334 0.77612,0.3175 1.16416,-0.10583 1.41111,0 1.5875,0.59972 0.24694,0.98778 -0.42334,1.72862 -1.65806,1.86973 -0.56444,0.0706 -1.09361,0.3175 -1.19944,0.52916 -0.17639,0.635 2.04611,0.59973 2.96333,-0.0353 0.635,-0.45861 0.91722,-0.42333 2.78694,0.52917 2.25778,1.12889 3.35139,1.30528 3.35139,0.49389 0,-0.35278 0.35278,-0.52917 1.09361,-0.52917 0.84667,0 1.05834,-0.14111 0.9525,-0.635 -0.10583,-0.49389 -0.59972,-0.635 -2.82222,-0.77611 -3.38667,-0.21167 -3.88055,-0.635 -6.27944,-5.32694 -1.83445,-3.52778 -2.01084,-4.05695 -1.41111,-3.66889 0.21166,0.14111 0.35277,-0.56445 0.35277,-1.83445 0,-2.39889 0.21167,-2.75166 2.71639,-4.30389 2.04611,-1.27 3.88056,-3.175 5.08,-5.22111 0.45861,-0.84667 1.30528,-1.62278 2.15195,-2.04611 1.905,-0.91722 4.40972,-3.77472 4.90361,-5.57389 0.21166,-0.77611 0.3175,-2.04611 0.24694,-2.75167 -0.10583,-1.30527 -0.10583,-1.30527 0.56445,-0.74083 0.635,0.59972 0.67028,0.56445 0.42333,-0.81139 -0.14111,-0.74083 -0.59972,-2.01083 -0.98778,-2.78694 -0.67028,-1.27 -0.67028,-1.37584 -0.10583,-0.91723 0.59972,0.49389 0.59972,0.45862 0.24694,-0.24694 -0.635,-1.16417 -4.1275,-3.98639 -4.93889,-3.98639 -1.19944,0 -1.83444,-0.38805 -2.36361,-1.44639 -0.70555,-1.37583 -0.67027,-2.54 0.21167,-4.58611 0.91722,-2.11667 1.23472,-2.08139 0.49389,0.0353 -1.27,3.59833 -0.10583,5.99722 2.64583,5.57389 1.30528,-0.17639 1.62278,-1.05833 1.09361,-2.99861 -0.28222,-0.91722 -0.56444,-2.18722 -0.635,-2.78695 -0.17639,-1.02305 -0.14111,-1.05833 1.09361,-0.91722 1.51695,0.17639 1.5875,-0.0353 0.35278,-1.16417 l -0.9525,-0.88194 h 1.12889 c 1.23472,0 1.905,-1.02306 1.44639,-2.25778 -0.14111,-0.42333 -0.0353,-1.09361 0.28222,-1.62277 0.77611,-1.34056 0.35278,-2.22251 -0.81139,-1.76389 -1.30527,0.49389 -1.72861,0.10583 -1.09361,-0.91723 1.16417,-1.72861 0.3175,-2.43416 -1.72861,-1.48166 -1.12889,0.52916 -1.37583,0.24694 -1.30528,-1.48167 0.14111,-2.15194 -0.77611,-2.29306 -2.43416,-0.35278 -1.12889,1.30528 -1.41111,1.48167 -1.86973,1.09361 -0.3175,-0.28222 -0.56444,-0.91722 -0.56444,-1.48166 0,-1.12889 -0.38806,-1.30528 -1.16417,-0.49389 z" />
    </g>
</svg>
