<?xml version="1.0" encoding="UTF-8" standalone="no"?>
<!-- Created with Inkscape (http://www.inkscape.org/) -->

<svg
   xmlns:dc="http://purl.org/dc/elements/1.1/"
   xmlns:cc="http://creativecommons.org/ns#"
   xmlns:rdf="http://www.w3.org/1999/02/22-rdf-syntax-ns#"
   xmlns:svg="http://www.w3.org/2000/svg"
   xmlns="http://www.w3.org/2000/svg"
   xmlns:sodipodi="http://sodipodi.sourceforge.net/DTD/sodipodi-0.dtd"
   xmlns:inkscape="http://www.inkscape.org/namespaces/inkscape"
   width="85.659828mm"
   height="53.828182mm"
   viewBox="0 0 85.659828 53.828182"
   version="1.1"
   id="svg5769"
   inkscape:version="0.92.4 (5da689c313, 2019-01-14)"
   sodipodi:docname="tiger.svg">
  <defs
     id="defs5763" />
  <sodipodi:namedview
     id="base"
     pagecolor="#ffffff"
     bordercolor="#666666"
     borderopacity="1.0"
     inkscape:pageopacity="0.0"
     inkscape:pageshadow="2"
     inkscape:zoom="0.35"
     inkscape:cx="-302.40887"
     inkscape:cy="101.72256"
     inkscape:document-units="mm"
     inkscape:current-layer="layer1"
     showgrid="false"
     fit-margin-top="0"
     fit-margin-left="0"
     fit-margin-right="0"
     fit-margin-bottom="0"
     inkscape:window-width="1920"
     inkscape:window-height="1017"
     inkscape:window-x="1912"
     inkscape:window-y="-8"
     inkscape:window-maximized="1" />
  <metadata
     id="metadata5766">
    <rdf:RDF>
      <cc:Work
         rdf:about="">
        <dc:format>image/svg+xml</dc:format>
        <dc:type
           rdf:resource="http://purl.org/dc/dcmitype/StillImage" />
        <dc:title></dc:title>
      </cc:Work>
    </rdf:RDF>
  </metadata>
  <g
     inkscape:label="Layer 1"
     inkscape:groupmode="layer"
     id="layer1"
     transform="translate(-63.003419,-121.91924)">
    <path
       style="fill:#000000;stroke:none;stroke-width:0.03527778"
       inkscape:connector-curvature="0"
       id="path4"
       d="m 136.56297,122.97414 c -0.98778,1.02305 -1.69334,1.34055 -4.33917,1.97555 -1.72861,0.42334 -6.17361,1.72861 -9.87778,2.8575 -7.47889,2.32834 -8.43139,2.50473 -19.40278,3.52778 -13.758332,1.30528 -17.92111,2.68111 -21.907499,7.19667 -2.575278,2.89278 -4.198056,6.73805 -6.138334,14.42861 -1.975555,7.72583 -2.716388,9.70139 -4.056944,10.75972 -1.305278,1.02306 -2.398889,0.98778 -3.739445,-0.21166 -0.987777,-0.88195 -1.128889,-1.19945 -1.164166,-3.03389 -0.03528,-1.55223 -0.176389,-2.18723 -0.635,-2.46945 -1.552223,-0.9525 -2.822223,1.86972 -2.081389,4.55084 0.599722,2.25777 1.693333,3.70416 3.316111,4.40972 1.905,0.88194 3.210278,0.88194 4.974167,0 2.645833,-1.30528 3.774722,-3.59834 5.856111,-11.95917 0.776111,-3.03389 1.693333,-6.38528 2.081389,-7.44361 l 0.705555,-1.94028 v 6.91445 c 0.03528,6.87916 0.03528,6.91444 -0.917222,8.64305 -0.917222,1.62278 -0.9525,1.97556 -0.987778,6.49111 0,2.61056 0.141111,5.36223 0.282223,6.06778 0.246944,1.16417 0.458611,1.37584 1.763889,1.72861 1.622777,0.42334 5.08,0.21167 5.644444,-0.35277 0.246945,-0.24695 0.03528,-0.635 -0.635,-1.16417 -2.257778,-1.905 -2.293055,-1.94028 -2.293055,-4.16278 0,-1.12889 0.176388,-2.43417 0.388055,-2.89278 0.211667,-0.45861 1.728611,-1.905 3.386667,-3.24555 3.174999,-2.57528 6.632223,-6.59695 8.043333,-9.41917 0.49389,-0.91722 1.27,-2.99861 1.728613,-4.62139 0.493887,-1.62278 0.881943,-2.50472 0.881943,-1.97556 0.03528,0.81139 -0.846666,3.95112 -1.516943,5.60917 -0.211667,0.49389 0.176387,0.59972 2.8575,0.74084 2.610555,0.17638 3.668885,0.42333 6.632225,1.65805 3.84528,1.62278 6.38528,2.32833 9.31333,2.64583 l 1.905,0.17639 -0.24694,-2.01083 c -0.10584,-1.09361 -0.28223,-2.64583 -0.42334,-3.42194 -0.14111,-0.98778 -0.0705,-1.27 0.17639,-0.88195 0.17639,0.3175 0.74084,3.56306 1.27,7.23195 1.23472,9.24277 2.25778,14.53444 2.96334,15.38111 0.70555,0.88194 4.23333,1.30528 5.78555,0.70555 1.37583,-0.52916 1.19945,-1.41111 -0.52917,-2.92805 l -1.51694,-1.30528 0.0353,-4.86833 c 0.0353,-4.51556 1.12889,-13.97 1.905,-16.58056 0.28222,-0.91722 0.28222,-0.88194 0.3175,0.42333 0,0.77611 -0.21167,2.50473 -0.45861,3.81 -0.35278,1.86973 -0.35278,2.29306 -0.0353,1.94028 0.49389,-0.52917 11.1125,-17.4625 11.35945,-18.13278 0.10583,-0.24694 -0.45862,-0.77611 -1.27,-1.19944 -0.77612,-0.38806 -1.69334,-1.12889 -2.04612,-1.62278 -0.67027,-1.02306 -0.74083,-2.89278 -0.14111,-3.91583 0.3175,-0.49389 0.35278,-0.35278 0.17639,0.81139 -0.42333,2.78694 0.635,3.77472 6.31473,5.92666 1.19944,0.45861 2.64583,1.09361 3.24555,1.41111 1.34056,0.70556 1.86972,0.35278 3.77472,-2.29305 l 1.37584,-1.97556 -1.86973,-3.45722 c -1.86972,-3.45722 -3.59833,-5.32695 -6.31472,-6.73806 -0.635,-0.3175 -1.12889,-0.91722 -1.30528,-1.65805 -0.38805,-1.55222 -1.23472,-1.5875 -2.61055,-0.14111 z" />
  </g>
</svg>
