<?xml version="1.0" encoding="UTF-8" standalone="no"?>
<!-- Created with Inkscape (http://www.inkscape.org/) -->

<svg
   xmlns:dc="http://purl.org/dc/elements/1.1/"
   xmlns:cc="http://creativecommons.org/ns#"
   xmlns:rdf="http://www.w3.org/1999/02/22-rdf-syntax-ns#"
   xmlns:svg="http://www.w3.org/2000/svg"
   xmlns="http://www.w3.org/2000/svg"
   xmlns:sodipodi="http://sodipodi.sourceforge.net/DTD/sodipodi-0.dtd"
   xmlns:inkscape="http://www.inkscape.org/namespaces/inkscape"
   width="82.528793mm"
   height="88.19445mm"
   viewBox="0 0 82.528793 88.19445"
   version="1.1"
   id="svg109"
   inkscape:version="0.92.4 (5da689c313, 2019-01-14)"
   sodipodi:docname="cow.svg">
  <defs
     id="defs103" />
  <sodipodi:namedview
     id="base"
     pagecolor="#ffffff"
     bordercolor="#666666"
     borderopacity="1.0"
     inkscape:pageopacity="0.0"
     inkscape:pageshadow="2"
     inkscape:zoom="1.979899"
     inkscape:cx="276.73852"
     inkscape:cy="118.67207"
     inkscape:document-units="mm"
     inkscape:current-layer="layer1"
     showgrid="false"
     fit-margin-top="0"
     fit-margin-left="0"
     fit-margin-right="0"
     fit-margin-bottom="0"
     inkscape:window-width="1920"
     inkscape:window-height="1017"
     inkscape:window-x="1912"
     inkscape:window-y="-8"
     inkscape:window-maximized="1" />
  <metadata
     id="metadata106">
    <rdf:RDF>
      <cc:Work
         rdf:about="">
        <dc:format>image/svg+xml</dc:format>
        <dc:type
           rdf:resource="http://purl.org/dc/dcmitype/StillImage" />
        <dc:title></dc:title>
      </cc:Work>
    </rdf:RDF>
  </metadata>
  <g
     inkscape:label="Layer 1"
     inkscape:groupmode="layer"
     id="layer1"
     transform="translate(-64.56894,-104.73615)">
    <path
       style="stroke-width:0.03527778"
       inkscape:connector-curvature="0"
       d="m 90.194668,105.12416 c -0.3175,0.17639 -0.917222,0.98778 -1.340555,1.76389 -0.881945,1.79917 -0.987778,5.92667 -0.141111,7.9375 0.282222,0.70556 0.493889,1.34056 0.458611,1.41111 -0.07056,0.0353 -0.987778,-0.14111 -2.046111,-0.42333 -4.303889,-1.12889 -9.242779,-0.0706 -14.111112,2.96333 -2.610556,1.62278 -3.915833,2.89278 -6.385278,6.20889 -2.363611,3.13973 -2.610556,4.33917 -1.164167,5.46806 3.457223,2.71639 13.581945,3.63361 18.309168,1.65805 1.128889,-0.49388 1.234722,-0.49388 1.234722,0.0706 0,1.16417 -1.023056,4.86834 -2.681111,9.77195 -1.411112,4.19805 -1.658056,5.46805 -1.799167,8.46667 -0.388056,7.79638 2.434167,14.07583 7.902222,17.88583 l 1.516945,1.02306 -1.27,2.54 c -2.504722,4.93888 -5.432778,15.45166 -5.432778,19.43805 v 1.62278 H 104.588 125.93106 v -1.19944 c 0,-4.65667 -3.03389,-15.16945 -6.13833,-21.34306 l -0.91723,-1.76389 1.51695,-1.05833 c 3.45722,-2.39889 6.13833,-6.06778 7.37305,-10.08945 1.05834,-3.42194 1.05834,-11.14778 0,-16.05139 -0.38805,-1.83444 -0.84666,-4.83305 -0.9525,-6.59694 l -0.28222,-3.28084 1.97556,0.67028 c 2.8575,0.98778 6.0325,1.23472 9.80722,0.74083 5.46806,-0.70555 8.78417,-2.29305 8.78417,-4.19805 0,-1.05834 -2.04611,-4.19806 -4.19806,-6.49111 -4.445,-4.7625 -11.7475,-7.65528 -17.03917,-6.70278 -1.23472,0.21167 -2.54,0.49389 -2.89277,0.67028 -0.59973,0.21166 -0.635,0.14111 -0.42334,-0.59973 0.77611,-2.61055 0.9525,-3.88055 0.77611,-5.715 -0.3175,-3.24555 -1.69333,-5.18583 -3.73944,-5.18583 -1.12889,0 -1.62278,0.81139 -1.94028,3.24555 -0.35278,2.78695 -0.52916,2.96334 -2.2225,2.08139 -3.4925,-1.76389 -7.86694,-2.2225 -12.34722,-1.27 -2.61056,0.52917 -6.949724,2.04611 -7.725837,2.68111 -0.352777,0.3175 -0.564444,0.14111 -0.987777,-0.84666 -0.282223,-0.70556 -0.529167,-1.76389 -0.529167,-2.36361 0,-0.59973 -0.246943,-1.62278 -0.493889,-2.29306 -0.423334,-0.98778 -0.705554,-1.23472 -1.516944,-1.23472 -0.529167,0 -1.27,0.17639 -1.622778,0.38805 z m 2.398888,0.67028 c 0.141113,0.21167 0.388057,1.41111 0.564447,2.68111 0.28222,2.11667 0.705553,3.21028 1.834443,4.83306 0.352777,0.56444 0.246944,0.81139 -0.917223,1.86972 -1.09361,1.02306 -1.55222,1.23472 -2.645833,1.12889 -1.763888,-0.14111 -2.504722,-1.62278 -2.539999,-5.15056 0,-2.75166 0.599722,-4.69194 1.658055,-5.32694 0.81139,-0.45861 1.76389,-0.49389 2.04611,-0.0353 z m 28.680834,0.45861 c 1.16417,1.23472 1.69334,4.05695 1.19945,6.63222 -0.635,3.45723 -2.08139,4.30389 -4.58611,2.78695 -1.5875,-0.98778 -1.69334,-1.55222 -0.67028,-3.63361 0.49389,-1.02306 0.98778,-2.64584 1.12889,-3.59834 0.10583,-0.98777 0.28222,-2.04611 0.38805,-2.39888 0.24695,-0.84667 1.62278,-0.74084 2.54,0.21166 z m -10.08944,3.10445 c 1.02305,0.21166 2.71639,0.77611 3.73944,1.27 1.72861,0.81139 1.83445,0.91722 1.34056,1.48166 -1.09361,1.23473 -0.67028,2.89278 1.09361,4.05695 l 1.19944,0.84666 -1.23472,0.9525 c -1.48166,1.12889 -3.4925,1.905 -4.97417,1.905 -2.68111,0 -7.02027,-2.50472 -8.04333,-4.62138 -0.59972,-1.27 -0.81139,-4.72723 -0.3175,-5.43278 0.14111,-0.21167 0.49389,-0.49389 0.77611,-0.59972 0.91722,-0.35278 4.48028,-0.24695 6.42056,0.14111 z m -7.72584,0.91722 c -0.38805,1.41111 -0.21166,3.81 0.38806,4.93889 1.79917,3.4925 7.33778,5.89139 10.93611,4.69194 0.70556,-0.21166 1.97556,-0.91722 2.78695,-1.55222 0.91722,-0.70556 2.11666,-1.23472 2.96333,-1.34056 l 1.44639,-0.21166 1.23472,2.71639 c 1.5875,3.35139 2.25778,6.70278 2.71639,13.335 0.21167,2.8575 0.70556,6.77333 1.09361,8.74889 2.15195,10.72444 0.635,18.20333 -4.7625,23.38916 -4.33917,4.19806 -11.18306,6.49112 -19.26167,6.52639 -11.25361,0.0353 -19.402776,-5.60916 -21.378332,-14.85194 -0.529167,-2.50472 -0.670278,-6.77333 -0.211667,-6.77333 0.141112,0.0353 0.635,0.24694 1.128889,0.52916 0.493889,0.28222 1.5875,0.49389 2.434167,0.52917 7.055556,0.0353 14.781389,-13.08806 15.416393,-26.28195 0.24694,-4.62139 -0.35278,-8.11389 -1.975558,-11.25361 -0.599723,-1.16417 -0.987779,-2.15194 -0.881946,-2.25778 0.17639,-0.17639 5.397504,-1.76389 5.926664,-1.79916 0.14112,-0.0353 0.14112,0.38805 0,0.91722 z m -5.326941,3.63361 c 2.293061,4.51556 2.575281,10.58333 0.77611,18.0975 -2.928056,12.31195 -10.689166,20.81389 -16.368889,17.95639 -1.093611,-0.52917 -1.234722,-0.74083 -1.128889,-1.83444 0.07056,-0.67028 0.917223,-3.63362 1.834445,-6.52639 1.834445,-5.57389 2.822222,-10.30111 2.822222,-13.40556 0,-2.54 1.199445,-6.94972 2.504723,-9.2075 1.023055,-1.83444 1.128888,-1.905 2.539999,-1.905 2.716389,0 5.326946,-2.32833 4.550833,-4.05694 -0.28222,-0.635 -0.28222,-0.88195 0.03528,-1.02306 0.9525,-0.38806 1.516943,0.0706 2.434166,1.905 z m -10.160001,2.78694 c 0.776111,0.3175 0.917223,0.49389 0.599723,0.88195 -0.246945,0.28222 -0.705556,1.09361 -1.058334,1.79917 l -0.635,1.30527 -4.021667,0.0706 c -3.351389,0.0706 -4.515555,0.24695 -6.843889,1.05834 -5.644444,1.94027 -8.784167,4.19805 -8.5725,6.17361 0.282222,2.36361 9.948333,3.56305 15.098889,1.86972 2.822223,-0.9525 2.822223,-0.9525 2.822223,-0.0353 0,0.9525 -2.2225,1.94028 -5.538612,2.43417 -5.750278,0.91722 -14.569722,-1.23473 -14.569722,-3.52778 0,-0.9525 3.845278,-5.96195 5.856111,-7.62 2.928056,-2.39889 6.173611,-4.02167 9.489722,-4.72723 1.728612,-0.38805 5.997223,-0.17638 7.373056,0.3175 z m 46.178612,0.67028 c 2.99861,1.16417 5.89139,2.99861 7.72584,4.90361 1.86972,1.94028 4.16277,5.08 4.40972,6.06778 0.45861,1.76389 -2.75167,3.28084 -8.36083,3.95111 -3.24556,0.38806 -5.89139,0.21167 -8.64306,-0.56444 -2.25778,-0.67028 -2.54,-0.84667 -2.82222,-2.01083 l -0.24695,-0.9525 2.43417,0.84666 c 1.30528,0.45861 3.45722,0.9525 4.72722,1.09361 3.73945,0.38806 10.19528,-0.98777 10.90084,-2.29305 0.45861,-0.91722 -0.74084,-2.68111 -2.71639,-3.91584 -3.98639,-2.54 -9.98362,-4.1275 -14.35806,-3.77472 l -2.50472,0.17639 -0.84667,-1.905 c -0.45861,-1.05833 -0.74083,-2.01083 -0.67028,-2.11667 0.10584,-0.0706 0.88195,-0.3175 1.72861,-0.49389 2.54,-0.52916 6.38528,-0.10583 9.24278,0.98778 z m -48.506945,3.84528 c 0.635,0.14111 0.776111,0.38806 0.635,0.9525 -0.141111,0.38806 -0.423333,1.97556 -0.635,3.4925 l -0.423333,2.71639 -1.799167,0.67028 c -4.621389,1.72861 -10.16,1.69333 -14.499167,-0.14111 -1.446389,-0.59973 -1.516945,-1.16417 -0.282223,-2.64584 2.645834,-3.13972 12.87639,-6.17361 17.00389,-5.04472 z m 49.283055,0.81139 c 4.90362,1.51694 8.99584,4.1275 8.99584,5.715 0,0.88194 -1.86972,1.65806 -5.64445,2.29306 -3.38666,0.59972 -6.6675,0.28222 -9.98361,-0.9525 l -1.905,-0.70556 -0.56444,-2.96333 c -0.3175,-1.62278 -0.70556,-3.21028 -0.81139,-3.4925 -0.28222,-0.74084 0.81139,-0.91723 4.445,-0.77612 1.72861,0.0706 4.05694,0.45862 5.46805,0.88195 z m -15.48694,49.45945 c 1.19944,2.36361 3.66889,8.74889 3.66889,9.45444 0,0.49389 -2.57528,-0.35278 -3.81,-1.30528 -1.65806,-1.23472 -2.89278,-3.28083 -3.63361,-5.99722 -0.38806,-1.30528 -0.67028,-2.57528 -0.67028,-2.82222 0,-0.3175 1.72861,-1.37583 3.06917,-1.83445 0.0705,-0.0353 0.67027,1.09362 1.37583,2.50473 z m -25.435281,-0.635 c 5.08,1.79916 11.747501,1.905 18.026941,0.35277 1.27,-0.3175 2.32834,-0.52916 2.36362,-0.45861 0.0705,0.0706 0.45861,1.37584 0.88194,2.89278 0.42333,1.51695 1.19945,3.38667 1.69333,4.16278 0.98778,1.5875 3.45723,3.31611 5.22112,3.63361 1.12888,0.21167 1.23472,0.35278 1.76388,2.61056 0.70556,2.99861 1.27,6.31472 1.27,7.37305 v 0.84667 l -4.30388,-0.10583 -4.26862,-0.10584 -0.49388,-2.46944 c -1.05834,-5.18584 -4.26862,-9.98361 -7.79639,-11.53584 -6.59695,-2.92805 -13.370284,2.8575 -15.063617,12.84112 l -0.211667,1.34055 h -4.621389 -4.621389 l 0.282222,-2.57528 c 0.599723,-6.42055 5.432778,-20.35528 6.843889,-19.86139 0.3175,0.10584 1.693334,0.56445 3.03389,1.05834 z m 14.569721,7.76111 c 3.13972,1.5875 5.715,5.36222 6.91445,10.12472 0.9525,3.88056 2.11666,3.4925 -10.54806,3.4925 H 93.828279 v -1.19944 c 0,-1.51695 1.411111,-5.715 2.575277,-7.72584 1.093613,-1.83444 3.739444,-4.33916 5.291674,-5.00944 1.83444,-0.81139 4.93888,-0.67028 6.87916,0.3175 z"
       id="path8" />
    <path
       style="stroke-width:0.03527778"
       inkscape:connector-curvature="0"
       d="m 103.35328,127.98416 c -1.76389,0.91723 -3.03389,3.63362 -3.704167,7.86695 -0.705554,4.51555 -1.5875,6.73805 -3.66889,9.34861 -2.963333,3.66889 -3.351387,4.93889 -2.328333,7.37306 0.705556,1.69333 3.880556,4.7625 5.997223,5.78555 4.974167,2.36361 11.641667,0.38806 14.710837,-4.37444 1.69333,-2.57528 1.69333,-3.98639 -0.0353,-7.26723 -1.5875,-3.03388 -2.29306,-5.75027 -2.64584,-9.87777 -0.45861,-4.97417 -1.69333,-7.76111 -4.1275,-8.99584 -1.34055,-0.70555 -2.71639,-0.67027 -4.19805,0.14111 z m 4.72722,0.56445 c 1.62278,1.05833 2.64584,3.81 3.21028,8.64305 0.635,5.43278 0.91722,6.49112 2.71639,9.91306 1.65806,3.13972 1.65806,4.09222 -0.0706,6.77333 -1.83444,2.92806 -5.99722,5.18584 -9.525,5.18584 -3.81,0 -8.537224,-3.03389 -10.230558,-6.56167 -1.058333,-2.15194 -0.740833,-3.42194 1.481667,-6.17361 2.540003,-3.13972 3.66889,-5.78556 4.480281,-10.4775 0.42333,-2.32833 1.02306,-4.55083 1.51694,-5.46806 1.41112,-2.54 4.1275,-3.31611 6.42056,-1.83444 z"
       id="path10" />
    <path
       style="stroke-width:0.03527778"
       inkscape:connector-curvature="0"
       d="m 96.82689,147.84555 c -1.446387,0.38806 -1.940277,0.98778 -1.940277,2.39889 0,2.46945 3.210279,6.10306 6.455837,7.3025 1.76389,0.635 5.15055,0.52917 6.84389,-0.21166 2.99861,-1.37584 6.10305,-5.04473 6.10305,-7.26723 0,-1.09361 -1.12889,-2.29305 -2.18722,-2.32833 -3.84528,-0.17639 -14.569724,-0.10583 -15.27528,0.10583 z m 16.40417,0.98778 c 0.81139,0.81139 0.88194,1.34056 0.28222,2.71639 -2.01083,4.72722 -7.9375,7.33778 -12.3825,5.43278 -4.056944,-1.76389 -7.126111,-6.52639 -5.326944,-8.29028 0.45861,-0.49389 1.763887,-0.56444 8.643054,-0.56444 7.62,0 8.11389,0.0353 8.78417,0.70555 z"
       id="path12" />
    <path
       style="stroke-width:0.03527778"
       inkscape:connector-curvature="0"
       d="m 86.949113,181.64167 c -1.27,1.41111 -0.881945,5.89139 0.599722,6.84389 0.811389,0.49389 1.905,-0.52917 2.963333,-2.78695 0.987778,-2.08139 1.058335,-2.92805 0.282223,-3.98639 -0.705556,-1.02305 -2.928056,-1.09361 -3.845278,-0.0706 z m 3.527778,0.45861 c 0.388055,0.59972 0.423333,1.09361 0.211666,1.86972 -0.493889,1.69333 -1.728611,3.91583 -2.328333,4.1275 -0.635,0.24695 -1.411111,-0.84667 -1.763889,-2.46944 -0.246944,-1.27 0.352778,-3.84528 0.987778,-4.09223 1.093611,-0.45861 2.363611,-0.21166 2.892778,0.56445 z"
       id="path14" />
    <text
       xml:space="preserve"
       style="font-style:normal;font-weight:normal;font-size:10.58333302px;line-height:1.25;font-family:sans-serif;letter-spacing:0px;word-spacing:0px;fill:#000000;fill-opacity:1;stroke:none;stroke-width:0.26458332"
       x="92.08696"
       y="137.20491"
       id="text17"><tspan
         sodipodi:role="line"
         id="tspan15"
         x="92.08696"
         y="137.20491"
         style="stroke-width:0.26458332">l</tspan></text>
    <text
       xml:space="preserve"
       style="font-style:normal;font-weight:normal;font-size:10.58333302px;line-height:1.25;font-family:sans-serif;letter-spacing:0px;word-spacing:0px;fill:#000000;fill-opacity:1;stroke:none;stroke-width:0.26458332"
       x="114.80056"
       y="137.48894"
       id="text17-9"><tspan
         sodipodi:role="line"
         id="tspan15-8"
         x="114.80056"
         y="137.48894"
         style="stroke-width:0.26458332">l</tspan></text>
  </g>
</svg>
