<?xml version="1.0" standalone="no"?>
<!DOCTYPE svg PUBLIC "-//W3C//DTD SVG 20010904//EN"
 "http://www.w3.org/TR/2001/REC-SVG-20010904/DTD/svg10.dtd">
<svg version="1.0" xmlns="http://www.w3.org/2000/svg"
 width="1024.000000pt" height="1024.000000pt" viewBox="0 0 1024.000000 1024.000000"
 preserveAspectRatio="xMidYMid meet">
<metadata>
Created by potrace 1.16, written by Peter Selinger 2001-2019
</metadata>
<g transform="translate(0.000000,1024.000000) scale(0.100000,-0.100000)"
fill="#000000" stroke="none">
<path d="M7934 9381 c-51 -23 -88 -71 -116 -147 -30 -82 -37 -270 -14 -380 21
-102 90 -270 154 -377 l51 -84 -34 -64 c-18 -35 -63 -132 -99 -216 -77 -177
-95 -258 -76 -346 13 -65 12 -70 -14 -74 -34 -6 -31 -13 5 -13 27 0 37 -6 52
-31 23 -41 22 -49 -10 -50 -16 -1 -39 -5 -53 -9 -16 -6 -2 -7 38 -3 51 5 66 2
82 -12 11 -10 20 -22 20 -26 0 -5 -23 -18 -50 -30 -28 -12 -49 -24 -46 -26 2
-2 24 5 49 16 59 27 60 27 118 -10 l48 -32 -33 -66 c-62 -122 -128 -355 -138
-486 l-3 -40 543 -3 542 -2 0 46 c0 107 -74 363 -144 502 -14 28 -26 55 -26
60 0 5 19 22 41 37 l41 27 47 -17 c25 -10 50 -22 56 -26 5 -5 16 -9 25 -8 8 0
-15 15 -53 33 l-67 32 23 22 c21 20 27 21 91 11 85 -14 99 -5 15 10 -34 6 -64
12 -66 14 -2 3 4 18 14 36 16 27 23 31 61 31 28 0 41 4 37 11 -4 6 -19 7 -36
4 -16 -4 -29 -5 -29 -3 0 2 7 35 15 74 11 52 12 85 5 128 -8 53 -156 417 -186
461 -20 29 -19 34 36 126 53 89 116 240 146 349 27 99 26 293 -3 386 -41 130
-132 202 -220 173 -48 -16 -110 -73 -138 -128 -51 -101 -58 -153 -80 -541 l-7
-115 -143 0 -144 0 -5 30 c-3 17 -8 100 -11 185 -7 184 -19 286 -42 358 -50
164 -166 251 -269 203z m113 -21 c83 -37 147 -165 163 -328 15 -142 29 -436
21 -443 -3 -4 -16 -10 -27 -13 -21 -6 -22 -3 -29 116 -19 345 -35 429 -100
514 -57 75 -122 67 -166 -23 -22 -44 -24 -60 -23 -183 0 -125 2 -142 32 -228
18 -52 57 -142 87 -200 51 -100 53 -108 39 -129 -8 -13 -18 -23 -22 -23 -24 0
-137 232 -176 361 -77 252 -30 529 99 585 40 18 53 17 102 -6z m809 5 c92 -38
139 -157 139 -345 -1 -133 -22 -226 -83 -367 -43 -98 -118 -233 -131 -233 -4
0 -13 11 -20 23 -11 21 -7 35 37 123 120 238 158 443 111 585 -27 79 -90 125
-137 100 -30 -16 -71 -83 -97 -157 -19 -54 -26 -105 -34 -239 -6 -93 -14 -196
-17 -227 -6 -56 -6 -57 -30 -46 -28 13 -28 -8 -10 293 11 182 19 243 35 293
42 125 114 202 194 211 4 1 24 -6 43 -14z m-816 -141 c74 -63 98 -151 116
-428 l16 -230 -49 -43 c-26 -23 -51 -42 -54 -43 -12 0 -108 206 -140 300 -29
85 -32 108 -33 215 -1 143 17 205 68 236 39 24 38 24 76 -7z m809 1 c70 -60
86 -241 36 -410 -29 -98 -72 -202 -117 -283 l-30 -52 -32 27 c-17 16 -41 35
-52 43 -21 15 -21 15 -8 225 8 116 19 233 25 262 20 100 92 213 135 213 7 0
26 -11 43 -25z m-259 -666 c72 -33 147 -107 193 -189 20 -36 70 -146 113 -245
70 -164 77 -187 82 -263 3 -62 0 -93 -12 -125 l-16 -43 -83 -16 c-45 -9 -85
-14 -89 -11 -5 2 -8 14 -8 27 0 58 -98 146 -204 183 -78 27 -261 24 -339 -6
-94 -37 -187 -121 -187 -170 0 -9 9 2 21 24 79 152 348 211 546 121 90 -42
153 -111 153 -171 0 -17 -6 -25 -17 -26 -17 -1 -17 -2 0 -6 25 -6 21 -23 -5
-24 -17 -1 -19 -2 -5 -6 18 -5 24 -23 7 -23 -5 0 -7 -6 -4 -14 9 -23 -42 -72
-105 -100 -121 -54 -326 -57 -444 -7 -63 27 -119 79 -112 103 4 12 2 17 -5 16
-7 -2 -15 3 -17 10 -3 7 6 12 24 13 l28 1 -29 7 c-30 6 -35 28 -6 23 8 -1 5 4
-8 11 -12 7 -19 16 -16 20 4 4 2 7 -4 7 -7 0 -12 -4 -12 -8 0 -5 -15 -7 -32
-5 l-33 3 33 -10 c34 -11 43 -36 15 -43 -14 -4 -13 -5 3 -6 43 -2 35 -29 -13
-45 -26 -9 -47 -16 -48 -16 -6 0 -45 38 -45 44 0 3 18 6 40 6 22 0 40 4 40 8
0 4 -23 8 -50 7 -46 0 -52 3 -72 33 l-21 34 59 -6 c40 -4 51 -3 34 3 -14 5
-41 9 -60 10 -31 1 -37 5 -47 34 -42 121 -27 184 114 501 74 166 146 264 230
313 75 44 119 53 243 50 99 -2 123 -6 170 -28z m-522 -1013 c53 -117 375 -165
564 -84 26 11 66 40 88 64 35 38 45 43 68 38 46 -11 45 -15 -4 -50 -178 -127
-476 -147 -694 -48 -60 27 -120 65 -120 76 0 5 49 21 81 27 3 1 11 -10 17 -23z
m727 -151 c71 -155 135 -381 135 -474 l0 -31 -105 0 -105 0 0 28 c0 38 -27
127 -56 185 -75 146 -218 214 -339 158 -47 -21 -125 -102 -153 -157 -23 -46
-48 -124 -57 -176 l-6 -38 -111 0 -111 0 7 65 c9 89 49 239 97 360 57 148 50
143 140 112 190 -66 396 -61 553 13 34 16 65 29 69 29 5 1 23 -33 42 -74z
m-300 -139 c59 -25 129 -100 163 -174 31 -66 60 -177 50 -187 -3 -3 -135 -4
-295 -3 l-290 3 13 63 c27 134 98 242 186 286 59 30 120 34 173 12z"/>
<path d="M8334 7836 c-58 -58 -42 -141 32 -172 69 -29 146 20 148 94 2 102
-108 150 -180 78z m144 -11 c59 -69 -2 -175 -92 -158 -34 7 -76 57 -76 91 2
90 110 133 168 67z"/>
<path d="M3617 9359 c-9 -5 -26 -28 -38 -50 -25 -51 -28 -168 -4 -225 8 -20
14 -38 13 -40 -2 -1 -28 4 -58 12 -122 32 -262 2 -400 -84 -74 -46 -111 -82
-181 -176 -67 -89 -74 -123 -33 -155 98 -77 385 -103 519 -47 32 14 35 14 35
-2 0 -33 -29 -138 -76 -277 -40 -119 -47 -155 -51 -240 -11 -221 69 -399 224
-507 l43 -29 -36 -72 c-71 -140 -154 -438 -154 -551 l0 -46 605 0 605 0 0 34
c0 132 -86 430 -174 605 l-26 50 43 30 c98 68 174 172 209 286 30 97 30 316 0
455 -11 52 -24 137 -27 187 l-8 93 56 -19 c81 -28 171 -35 278 -21 155 20 249
65 249 119 0 30 -58 119 -119 184 -126 135 -333 217 -483 190 -35 -6 -72 -14
-82 -19 -17 -6 -18 -4 -12 17 22 74 27 110 22 162 -9 92 -48 147 -106 147 -32
0 -46 -23 -55 -92 -10 -79 -15 -84 -63 -59 -99 50 -223 63 -350 36 -74 -15
-197 -58 -219 -76 -10 -9 -16 -4 -28 24 -8 20 -15 50 -15 67 0 17 -7 46 -14
65 -12 28 -20 35 -43 35 -15 0 -36 -5 -46 -11z m68 -19 c4 -6 11 -40 16 -76 8
-60 20 -91 52 -137 10 -16 7 -23 -26 -53 -31 -29 -44 -35 -75 -32 -50 4 -71
46 -72 146 0 78 17 133 47 151 23 13 50 14 58 1z m813 -13 c33 -35 48 -115 34
-188 -18 -98 -59 -122 -130 -79 -45 28 -48 44 -19 103 14 29 28 75 32 102 3
28 8 58 11 68 7 24 46 21 72 -6z m-286 -88 c29 -6 77 -22 106 -36 49 -23 52
-26 38 -42 -31 -35 -19 -82 31 -115 l34 -24 -35 -27 c-42 -32 -99 -54 -141
-54 -76 0 -199 71 -228 131 -17 36 -23 134 -9 154 4 6 14 14 22 17 26 10 127
7 182 -4z m-219 -26 c-11 -40 -6 -108 11 -140 51 -99 208 -167 310 -133 20 6
56 26 79 44 26 20 60 35 84 38 l41 6 35 -77 c45 -95 64 -190 77 -378 6 -81 20
-192 31 -248 61 -304 18 -516 -135 -663 -123 -119 -317 -184 -546 -185 -319
-1 -550 159 -606 421 -15 71 -19 192 -6 192 4 -1 18 -7 32 -15 14 -8 45 -14
69 -15 200 -1 419 371 437 745 7 131 -10 230 -56 319 -17 33 -28 61 -25 64 5
5 153 50 168 51 4 1 4 -11 0 -26z m-151 -103 c65 -128 73 -300 22 -513 -83
-349 -303 -590 -464 -509 -31 15 -35 21 -32 52 2 19 26 103 52 185 52 158 80
292 80 380 0 72 34 197 71 261 29 52 32 54 72 54 77 0 151 66 129 115 -8 18
-8 25 1 29 27 11 43 -2 69 -54z m-288 -79 c22 -9 26 -14 17 -25 -7 -8 -20 -31
-30 -51 l-18 -37 -114 -2 c-95 -2 -128 -7 -194 -30 -160 -55 -249 -119 -243
-175 8 -67 282 -101 428 -53 80 27 80 27 80 1 0 -27 -63 -55 -157 -69 -163
-26 -413 35 -413 100 0 27 109 169 166 216 83 68 175 114 269 134 49 11 170 5
209 -9z m1309 -19 c85 -33 167 -85 219 -139 53 -55 118 -144 125 -172 13 -50
-78 -93 -237 -112 -92 -11 -167 -6 -245 16 -64 19 -72 24 -80 57 l-7 27 69
-24 c37 -13 98 -27 134 -31 106 -11 289 28 309 65 13 26 -21 76 -77 111 -113
72 -283 117 -407 107 l-71 -5 -24 54 c-13 30 -21 57 -19 60 3 2 25 9 49 14 72
15 181 3 262 -28z m-1375 -109 c18 -4 22 -11 18 -27 -4 -11 -12 -56 -18 -99
l-12 -77 -51 -19 c-131 -49 -288 -48 -411 4 -41 17 -43 33 -8 75 75 89 365
175 482 143z m1397 -23 c139 -43 255 -117 255 -162 0 -25 -53 -47 -160 -65
-96 -17 -189 -8 -283 27 l-54 20 -16 84 c-9 46 -20 91 -23 99 -8 21 23 26 126
22 49 -2 115 -13 155 -25z m-439 -1402 c34 -67 104 -248 104 -268 0 -14 -73
10 -108 37 -47 35 -82 93 -103 170 -11 37 -19 73 -19 80 0 9 49 39 87 52 2 1
19 -31 39 -71z m-721 18 c144 -51 333 -54 511 -10 36 9 66 15 67 13 2 -2 13
-39 25 -82 12 -43 34 -96 48 -118 28 -45 98 -94 148 -103 32 -6 35 -10 50 -74
20 -85 36 -179 36 -209 l0 -24 -122 3 -121 3 -14 70 c-30 147 -121 283 -221
327 -187 83 -379 -81 -427 -364 l-6 -38 -131 0 -131 0 8 73 c17 182 154 577
194 563 9 -3 48 -16 86 -30z m413 -220 c89 -45 162 -152 196 -287 27 -110 60
-99 -299 -99 l-315 0 0 34 c0 43 40 162 73 219 31 52 106 123 150 142 52 23
140 19 195 -9z"/>
<path d="M3990 8711 c-50 -26 -86 -103 -105 -223 -20 -128 -45 -191 -104 -265
-84 -104 -95 -140 -66 -209 20 -48 110 -135 170 -164 141 -67 330 -11 417 124
48 73 48 113 -1 206 -45 86 -65 163 -75 280 -13 141 -48 220 -117 255 -38 20
-77 19 -119 -4z m134 -16 c46 -30 75 -108 91 -245 18 -154 26 -184 77 -281 47
-89 47 -116 -2 -192 -52 -83 -170 -147 -270 -147 -108 0 -242 86 -290 186 -30
61 -21 97 42 175 72 89 104 164 127 297 12 66 29 129 43 155 40 72 117 94 182
52z"/>
<path d="M3805 8148 c-41 -11 -55 -28 -55 -68 0 -70 91 -173 183 -207 50 -18
146 -15 194 6 85 39 173 143 173 206 0 31 -32 65 -62 66 -109 5 -413 3 -433
-3z m465 -28 c23 -23 25 -38 8 -77 -57 -134 -225 -208 -351 -154 -115 50 -202
185 -151 235 13 14 50 16 245 16 216 0 230 -1 249 -20z"/>
<path d="M3525 7190 c-36 -40 -25 -167 17 -194 23 -14 54 15 84 79 28 59 30
83 8 113 -20 29 -83 31 -109 2z m100 -13 c11 -17 12 -31 6 -53 -14 -48 -49
-111 -66 -117 -18 -7 -40 24 -50 70 -7 36 10 109 28 116 31 13 67 6 82 -16z"/>
<path d="M5619 9006 c-210 -56 -254 -250 -84 -372 26 -18 60 -36 76 -39 27 -6
37 -23 23 -38 -3 -3 -21 -40 -39 -81 -45 -103 -94 -167 -180 -231 -77 -58
-121 -113 -105 -129 7 -7 14 -6 22 2 21 21 29 13 12 -13 -16 -25 -16 -30 10
-106 67 -204 233 -388 424 -469 28 -12 52 -24 52 -25 0 -1 -13 -31 -29 -66
-69 -154 -134 -390 -143 -519 l-3 -45 603 -3 c331 -1 602 1 602 5 0 5 -7 53
-15 108 -20 134 -57 267 -111 398 -24 59 -44 109 -44 111 0 2 33 20 74 39 198
94 333 235 408 427 40 101 42 122 16 150 -24 25 -25 25 30 3 7 -3 12 3 12 14
0 24 -47 75 -126 134 -65 50 -133 143 -173 239 -37 88 -37 85 9 100 23 7 62
32 87 54 149 131 86 311 -126 357 -94 20 -177 -25 -227 -122 l-24 -48 -33 19
c-52 31 -168 67 -254 80 -128 20 -275 -4 -409 -65 l-71 -32 -12 34 c-19 51
-89 119 -136 132 -48 13 -58 13 -116 -3z m112 -17 c46 -16 86 -54 114 -110
l24 -46 -39 -32 -38 -31 -39 57 c-51 74 -99 100 -153 84 -45 -13 -90 -62 -90
-97 0 -14 6 -37 14 -53 17 -32 86 -97 122 -113 26 -12 28 -16 15 -37 -12 -19
-104 24 -150 70 -112 114 -69 241 102 300 62 22 74 22 118 8z m1196 -8 c133
-45 190 -136 150 -234 -28 -66 -177 -169 -198 -136 -13 21 -11 25 15 37 66 30
136 118 136 171 0 30 -48 79 -89 92 -51 15 -103 -9 -145 -69 -17 -24 -35 -50
-41 -58 -8 -10 -18 -6 -48 19 l-37 32 21 40 c41 78 99 122 164 124 11 0 43 -8
72 -18z m-667 -115 l0 -63 -62 -5 c-69 -6 -188 -36 -188 -48 0 -4 28 1 63 13
49 16 89 21 192 21 123 1 171 -7 254 -41 8 -3 11 -1 7 5 -9 16 -111 43 -186
51 l-65 6 0 60 0 60 55 -3 c163 -9 371 -111 462 -227 l19 -25 -53 25 c-51 24
-108 33 -108 17 0 -4 36 -43 81 -87 77 -77 127 -141 117 -151 -3 -2 -27 5 -54
17 -65 28 -213 39 -232 17 -10 -13 -6 -16 30 -22 78 -12 143 -52 224 -139 45
-48 78 -77 81 -69 3 6 9 12 15 12 16 0 3 -187 -17 -244 -9 -27 -28 -67 -41
-88 -29 -46 -30 -52 -4 -38 11 6 38 37 60 70 22 33 46 60 52 60 7 0 9 -29 6
-92 -4 -64 -3 -85 4 -68 14 38 14 158 -1 173 -12 12 -31 -4 -69 -59 -12 -18
-13 -18 -6 1 29 85 35 127 32 225 -3 58 -9 114 -16 125 -10 17 -11 15 -12 -22
0 -24 -4 -43 -8 -43 -5 0 -34 29 -66 65 -61 69 -117 107 -200 137 l-51 18 75
-4 c41 -2 95 -11 120 -21 25 -9 55 -19 68 -22 57 -14 2 78 -110 182 l-73 68
39 -7 c21 -4 62 -21 91 -37 56 -31 75 -59 136 -196 50 -113 97 -172 190 -244
73 -57 105 -94 60 -69 -11 5 -32 10 -47 10 -27 0 -27 -1 19 -44 l46 -45 -15
-53 c-8 -29 -33 -91 -56 -138 -34 -71 -58 -101 -137 -181 -82 -81 -110 -102
-191 -142 -327 -160 -796 -150 -1086 24 -135 81 -265 235 -317 376 -44 118
-44 110 8 159 47 43 47 44 21 44 -15 0 -36 -5 -47 -10 -12 -7 -19 -7 -19 -1 0
6 35 37 78 69 90 69 149 148 198 262 53 127 77 157 147 191 106 50 108 37 10
-58 -82 -81 -125 -144 -109 -160 4 -4 34 3 69 16 56 20 207 41 207 29 0 -3
-23 -13 -52 -23 -70 -23 -126 -63 -189 -135 -29 -33 -56 -57 -60 -53 -4 5 -9
24 -11 43 -3 32 -5 30 -17 -25 -9 -38 -12 -95 -9 -158 4 -85 9 -106 36 -158
36 -69 17 -62 -24 9 -32 55 -44 65 -61 50 -15 -12 -17 -130 -3 -163 5 -12 7
12 6 64 0 48 3 85 9 87 6 2 26 -21 45 -52 31 -50 84 -94 97 -80 3 2 -5 15 -17
28 -46 47 -73 125 -78 224 -5 103 0 133 21 115 10 -8 28 6 77 61 76 84 133
123 206 139 30 7 54 15 54 20 0 26 -136 25 -210 -2 -101 -37 -96 -38 -69 11
13 23 59 75 102 115 42 39 77 77 77 83 0 18 -50 14 -98 -8 -41 -19 -42 -19
-32 0 17 31 119 109 190 145 89 45 212 79 298 84 21 1 22 -3 22 -63z m-552 -4
c20 -21 45 -52 54 -68 16 -29 16 -30 -14 -64 -16 -19 -38 -46 -48 -60 -16 -22
-20 -23 -46 -11 -87 39 -150 132 -124 182 20 40 52 59 98 59 36 0 48 -6 80
-38z m1274 10 c38 -35 41 -73 9 -125 -23 -37 -107 -100 -127 -95 -7 2 -32 28
-57 58 l-46 55 21 35 c57 99 137 127 200 72z m-870 -1431 c115 -13 314 -4 430
20 53 10 103 22 111 25 10 3 23 -17 46 -72 18 -42 30 -78 28 -81 -8 -7 -111
-33 -134 -33 -13 0 -23 -5 -23 -10 0 -6 11 -8 28 -4 45 10 106 25 124 30 14 4
22 -13 47 -93 27 -90 51 -200 65 -295 l5 -38 -130 0 c-128 0 -129 0 -129 23 0
12 -6 46 -13 74 l-14 51 46 7 c68 10 131 26 131 35 0 4 -21 2 -47 -5 -27 -7
-67 -15 -89 -18 l-41 -7 -31 63 c-38 76 -111 153 -172 181 -132 60 -286 -16
-367 -181 l-26 -55 -71 7 c-39 3 -82 9 -96 11 -19 4 -22 3 -10 -5 8 -5 50 -13
92 -17 43 -4 78 -9 78 -13 0 -3 -4 -22 -9 -41 -5 -19 -12 -52 -16 -72 l-6 -38
-119 0 -120 0 0 38 c0 67 79 392 95 392 2 0 34 -7 70 -15 37 -9 72 -14 79 -12
6 2 -24 12 -66 22 -43 9 -78 18 -78 20 0 2 9 25 21 52 11 26 26 62 34 79 l13
31 91 -23 c50 -13 128 -27 173 -33z m231 -157 c113 -57 198 -192 223 -351 l7
-43 -321 0 -321 0 5 33 c11 63 36 142 61 190 33 65 108 145 158 168 51 23 145
25 188 3z"/>
<path d="M6093 8005 c-13 -9 -23 -27 -23 -40 l0 -24 -47 21 c-36 16 -59 19
-103 15 -88 -8 -147 -43 -181 -108 -18 -36 -18 -36 -66 -28 -63 10 -93 11 -93
2 0 -5 26 -9 57 -11 31 -2 63 -7 71 -11 23 -13 -14 -41 -56 -42 -41 -1 -102
-17 -67 -17 11 0 44 3 73 7 45 6 52 5 52 -9 0 -10 -20 -25 -51 -39 -27 -13
-48 -25 -46 -28 3 -2 18 2 34 10 60 31 68 30 82 -9 30 -82 136 -155 286 -195
68 -19 107 -22 260 -22 198 0 276 14 390 70 55 26 155 121 155 146 1 34 16 38
64 18 26 -12 44 -16 41 -10 -4 5 -24 17 -46 26 -22 8 -39 22 -39 31 0 12 12
14 73 9 43 -3 62 -2 47 3 -14 4 -44 8 -68 9 -29 1 -45 6 -49 17 -9 24 7 32 70
36 31 1 57 7 57 11 0 5 -31 6 -70 2 -59 -6 -70 -5 -70 8 0 27 -53 79 -105 103
-68 32 -146 32 -208 0 -46 -23 -47 -23 -41 -2 3 12 -2 30 -10 41 -13 18 -28
20 -183 23 -141 2 -172 0 -190 -13z m363 -19 c19 -26 19 -27 -18 -82 -66 -97
-180 -121 -271 -58 -47 34 -91 103 -81 129 11 27 40 32 202 31 140 -1 155 -3
168 -20z m-452 -28 c26 -8 62 -34 101 -71 68 -67 108 -87 172 -87 55 0 109 27
159 80 103 109 242 119 339 26 55 -52 57 -73 10 -82 -19 -3 -35 -10 -35 -14 0
-5 15 -4 32 1 44 12 48 12 48 -6 0 -11 -14 -15 -57 -17 l-58 -2 58 -3 c41 -3
57 -8 57 -18 0 -18 -5 -18 -48 -6 -18 6 -32 6 -32 1 0 -5 16 -12 35 -16 31 -5
35 -9 29 -28 -31 -98 -142 -174 -310 -212 -103 -23 -347 -24 -449 -1 -156 34
-264 97 -305 177 -27 53 -26 58 15 66 19 3 35 10 35 14 0 5 -14 5 -31 0 -34
-10 -53 -5 -44 11 4 5 27 10 53 11 l47 1 -52 6 c-38 4 -50 9 -45 18 6 9 17 10
40 4 18 -5 32 -6 32 -2 0 5 -13 11 -30 15 -40 8 -38 28 8 77 55 59 143 81 226
57z"/>
<path d="M1000 8739 c-137 -62 -194 -224 -127 -361 41 -84 137 -152 233 -165
45 -6 46 -7 40 -37 -3 -17 -8 -71 -12 -121 -7 -100 17 -228 57 -307 l21 -41
-75 7 c-49 4 -78 3 -82 -4 -4 -6 20 -10 69 -10 63 0 80 -4 96 -20 36 -36 26
-47 -52 -54 -40 -3 -86 -11 -103 -16 -28 -9 -27 -10 10 -5 130 16 175 17 190
5 8 -7 15 -16 15 -19 0 -4 -31 -17 -68 -29 -37 -12 -77 -29 -87 -38 -20 -15
-20 -16 0 -8 134 49 165 58 175 48 7 -7 -3 -38 -34 -105 -24 -52 -58 -134 -75
-183 -34 -97 -81 -311 -81 -370 l0 -36 585 0 c461 0 585 3 586 13 9 109 -67
393 -153 575 -36 76 -38 86 -25 100 14 14 24 12 94 -14 102 -38 106 -39 53
-11 -25 14 -64 30 -87 37 -38 12 -40 15 -30 32 11 18 20 19 77 14 36 -3 83 -8
105 -11 29 -4 34 -3 20 4 -11 5 -55 12 -97 16 -43 4 -78 9 -78 12 0 2 7 17 15
33 15 29 18 30 90 30 48 0 75 4 75 11 0 8 -22 9 -70 4 l-71 -7 22 53 c50 126
64 236 46 380 l-8 66 40 6 c53 7 139 47 183 85 82 72 107 217 56 317 -51 98
-128 144 -242 145 -117 0 -203 -58 -258 -176 l-29 -62 -43 18 c-152 68 -384
67 -518 -1 -20 -10 -39 -19 -42 -19 -2 0 -17 28 -34 63 -33 72 -88 131 -147
158 -56 26 -166 25 -225 -2z m227 -25 c57 -27 109 -88 139 -163 17 -43 17 -44
-7 -62 -31 -24 -36 -24 -44 1 -11 36 -109 128 -146 137 -43 12 -104 1 -138
-24 -14 -11 -34 -40 -44 -64 -16 -39 -17 -51 -7 -89 15 -56 70 -109 145 -142
56 -24 66 -40 43 -71 -11 -14 -20 -15 -56 -7 -212 49 -311 241 -207 402 50 75
147 123 230 112 22 -3 63 -17 92 -30z m1123 25 c94 -21 170 -99 190 -193 29
-140 -64 -269 -225 -310 -63 -17 -70 -15 -80 24 -5 23 0 27 49 48 76 33 131
86 146 142 10 38 9 50 -7 89 -25 62 -70 91 -138 91 -37 0 -61 -6 -86 -23 -30
-20 -85 -83 -107 -124 -9 -14 -12 -14 -35 3 -29 21 -28 31 4 100 36 77 112
139 189 155 50 10 50 10 100 -2z m-1162 -133 c33 -17 83 -70 110 -115 l20 -33
-39 -42 c-22 -22 -50 -58 -61 -78 -12 -21 -27 -38 -34 -38 -21 0 -78 28 -121
59 -53 38 -73 76 -73 137 0 41 5 51 39 85 34 34 44 39 85 39 26 0 59 -6 74
-14z m1193 -25 c34 -34 39 -44 39 -85 0 -57 -19 -97 -62 -129 -40 -30 -112
-67 -130 -67 -7 0 -23 18 -36 41 -13 22 -40 58 -59 80 -41 45 -39 58 19 124
48 55 85 75 142 75 43 0 53 -4 87 -39z m-522 -26 c205 -49 347 -206 388 -430
21 -113 8 -219 -39 -337 l-33 -82 -73 -17 c-40 -9 -76 -19 -79 -23 -9 -9 5 -7
72 8 33 8 61 13 63 11 2 -2 -3 -12 -10 -24 -11 -17 -24 -21 -78 -23 l-65 -2
58 -3 c57 -4 66 -10 46 -30 -7 -7 -22 -8 -46 -1 -19 5 -37 7 -41 4 -3 -3 9 -9
27 -12 17 -4 34 -10 37 -15 5 -9 -150 -169 -164 -169 -4 0 -6 33 -4 74 6 120
-33 205 -117 254 -142 83 -313 -35 -315 -218 -1 -36 3 -78 7 -93 7 -26 6 -27
-13 -17 -31 17 -160 150 -160 166 0 8 9 14 19 14 11 0 23 5 26 10 4 7 -3 8
-22 4 -44 -10 -47 -10 -51 8 -3 14 6 18 50 21 l53 3 -62 2 c-50 2 -64 6 -73
21 -15 30 -14 30 43 15 28 -7 57 -14 62 -14 22 1 -23 19 -77 30 -54 12 -58 15
-76 59 -108 253 -68 509 106 672 71 67 146 110 234 133 70 19 227 19 307 1z
m-42 -841 c57 -46 85 -104 91 -188 6 -104 -11 -139 -85 -174 -80 -37 -166 -37
-244 -1 -48 23 -59 33 -70 65 -28 86 -7 199 49 265 47 55 83 70 159 66 52 -2
69 -8 100 -33z m-366 -305 c97 -78 192 -115 275 -106 89 9 203 76 306 180 21
22 41 38 43 35 13 -13 86 -186 113 -268 35 -105 72 -274 72 -326 l0 -34 -128
0 -128 0 -12 61 c-15 82 -61 178 -112 233 -121 131 -284 112 -390 -46 -41 -62
-80 -168 -80 -219 l0 -29 -141 0 -142 0 7 59 c16 140 72 330 144 484 l45 98
42 -44 c23 -24 62 -59 86 -78z m335 -168 c94 -43 174 -168 200 -313 l6 -38
-286 0 c-325 0 -298 -9 -271 93 31 119 95 210 177 251 62 31 117 33 174 7z"/>
<path d="M1650 7692 c-50 -25 -76 -81 -61 -132 16 -54 52 -80 112 -80 40 0 52
5 78 31 58 57 39 154 -36 185 -42 18 -51 18 -93 -4z m121 -31 c23 -23 29 -38
29 -71 0 -112 -152 -140 -195 -36 -18 42 -8 81 27 111 43 36 100 34 139 -4z"/>
<path d="M1513 6500 c-31 -13 -51 -48 -63 -109 -5 -30 -10 -56 -10 -58 0 -3
-6 -3 -14 0 -22 9 -48 -28 -53 -75 -3 -32 2 -55 20 -90 16 -33 21 -50 13 -58
-18 -18 -31 -11 -91 51 -130 133 -235 190 -356 191 -90 1 -99 -7 -49 -44 90
-66 115 -166 62 -249 -16 -24 -39 -53 -50 -63 -12 -11 -22 -23 -22 -27 0 -5
20 -18 45 -30 54 -25 90 -66 106 -117 9 -32 7 -47 -11 -97 -34 -97 -34 -95
-16 -95 9 0 56 13 105 29 l88 28 6 -80 c4 -43 14 -105 23 -137 16 -58 16 -58
-9 -92 -13 -18 -32 -47 -41 -65 -21 -41 -21 -151 -1 -201 22 -52 80 -109 147
-143 l56 -28 -8 -38 c-8 -34 -29 -215 -44 -373 -3 -30 -6 -121 -6 -203 0 -143
-1 -147 -19 -135 -26 16 -33 47 -15 65 20 20 18 43 -8 70 l-21 23 21 23 c28
29 28 41 0 66 -20 19 -20 22 -5 39 21 23 22 46 2 62 -14 11 -14 15 1 37 15 23
14 26 -5 47 -14 15 -17 26 -11 36 14 21 12 28 -10 47 -12 11 -18 24 -14 38 4
17 -5 30 -42 58 -87 68 -167 71 -270 11 -47 -27 -60 -51 -21 -40 12 4 49 10
82 13 52 4 64 2 89 -18 35 -28 56 -76 56 -129 0 -22 -21 -120 -46 -217 -69
-265 -84 -345 -85 -468 -1 -182 40 -295 145 -399 118 -116 267 -166 493 -166
176 0 302 28 448 100 170 82 278 192 337 338 20 49 22 73 21 182 -1 151 -23
243 -85 363 -52 99 -172 227 -263 277 -33 18 -61 34 -63 36 -4 2 -32 210 -32
234 0 9 23 27 53 42 74 36 112 71 141 130 46 91 30 225 -35 294 -18 20 -19 24
-5 85 8 35 18 97 22 137 3 39 10 72 15 72 4 0 49 -12 99 -26 54 -16 95 -23
101 -17 5 5 -2 29 -16 57 -52 103 -17 195 95 251 19 10 37 19 39 21 2 2 -17
26 -43 55 -88 98 -85 174 11 267 30 30 52 56 50 59 -3 2 -37 4 -75 4 -119 0
-215 -46 -326 -155 -98 -96 -104 -100 -120 -87 -13 11 -12 18 6 52 22 43 26
115 8 149 -6 12 -21 20 -35 20 -22 0 -25 4 -25 38 0 46 -26 99 -63 126 -26 19
-28 19 -45 3 -15 -15 -17 -39 -17 -170 0 -130 -2 -151 -15 -148 -8 2 -73 3
-143 3 l-128 0 3 148 c3 173 -3 192 -59 170z m41 -216 c2 -104 5 -198 7 -209
14 -73 -135 43 -160 124 -12 41 -8 96 9 106 4 2 10 -9 14 -27 6 -32 22 -58 36
-58 4 0 7 42 7 93 0 67 4 101 16 124 19 35 47 56 60 44 4 -4 9 -93 11 -197z
m387 162 c8 -13 15 -61 17 -124 5 -113 16 -126 43 -52 l16 43 11 -31 c13 -37
2 -90 -26 -130 -34 -47 -100 -102 -123 -102 -20 0 -21 3 -13 43 5 23 9 116 9
207 0 91 4 171 8 177 10 15 37 1 58 -31z m-828 -154 c80 -40 256 -200 243
-221 -6 -9 -25 5 -64 44 -94 97 -261 206 -312 204 -8 0 3 -8 26 -17 79 -33
175 -96 249 -164 41 -39 75 -74 75 -79 0 -5 -11 -27 -25 -47 l-25 -39 -68 15
c-67 14 -216 12 -257 -4 -15 -6 -10 5 20 46 32 44 40 63 43 111 4 50 0 65 -22
104 -15 25 -36 51 -47 58 -30 19 -23 23 39 23 44 -1 73 -9 125 -34z m1344 -11
c-69 -76 -73 -165 -11 -246 19 -25 34 -47 34 -49 0 -2 -19 0 -42 5 -80 15
-215 8 -278 -15 -10 -4 -23 7 -38 32 -13 20 -23 41 -24 46 -2 16 115 125 182
172 63 42 170 93 199 94 7 0 -2 -17 -22 -39z m-608 -127 c5 -4 -6 -67 -33
-189 -21 -95 -21 -277 0 -339 23 -67 71 -111 145 -134 l62 -19 -46 -6 c-26 -4
-85 -27 -132 -52 -113 -59 -146 -60 -252 -4 -43 23 -98 47 -123 53 l-44 12 47
13 c57 16 110 71 129 133 19 64 17 314 -4 408 -29 128 -30 124 22 132 44 6
221 0 229 -8z m-370 -90 c30 -23 53 -34 70 -32 24 3 26 -1 38 -62 7 -36 12
-113 13 -171 0 -182 -40 -263 -148 -294 -31 -9 -79 -29 -107 -43 -27 -15 -53
-28 -57 -30 -14 -7 -39 106 -45 198 -10 179 40 345 132 429 24 22 48 41 52 41
5 0 28 -16 52 -36z m567 2 c84 -72 126 -198 128 -386 1 -97 -17 -250 -30 -250
-2 0 -25 13 -51 29 -27 16 -72 36 -101 45 -30 8 -68 24 -86 35 -90 56 -114
223 -65 447 10 46 13 50 38 46 19 -2 37 6 66 32 22 19 45 35 51 36 6 0 28 -15
50 -34z m-803 -95 c29 -11 32 -18 18 -39 -6 -10 -22 -9 -82 8 -40 11 -87 20
-104 19 -18 0 -2 -6 38 -14 116 -23 140 -34 133 -59 -3 -11 -9 -45 -12 -74
l-7 -53 -88 -45 c-49 -24 -91 -44 -94 -44 -3 0 2 15 11 32 41 79 13 181 -64
233 l-37 25 45 2 c42 1 43 2 10 6 -33 5 -34 5 -10 12 35 10 209 4 243 -9z
m1179 -47 c-24 -20 -49 -49 -57 -65 -19 -36 -19 -107 0 -152 l15 -36 -92 44
-93 44 -11 68 c-7 37 -13 71 -13 74 -2 14 187 56 258 58 l35 1 -42 -36z m-937
-475 c22 -6 66 -27 97 -46 44 -28 71 -36 120 -40 60 -5 67 -3 149 41 105 55
153 65 213 42 97 -37 163 -148 154 -259 -12 -140 -119 -223 -331 -257 -99 -16
-341 -8 -422 14 -178 49 -265 137 -265 267 0 104 54 185 154 230 47 21 75 23
131 8z m17 -537 c4 -4 3 -39 -3 -77 -15 -114 -26 -344 -28 -604 -1 -135 -3
-246 -5 -248 -2 -2 -25 12 -52 30 l-49 34 1 269 c1 251 7 340 36 537 l12 79
40 -7 c23 -3 44 -9 48 -13z m514 -119 c14 -104 19 -196 19 -373 0 -259 -7
-303 -64 -370 l-28 -34 -6 290 c-6 263 -18 489 -32 570 -5 30 -3 33 32 42 21
5 43 10 49 11 6 1 18 -54 30 -136z m-122 77 c3 -19 6 -49 6 -66 0 -30 -2 -31
-52 -38 -68 -8 -252 -8 -300 0 -36 6 -38 9 -38 44 0 21 3 50 6 66 l5 29 184 0
183 0 6 -35z m-729 -54 c14 -9 33 -33 43 -54 40 -79 46 -128 47 -412 2 -295 6
-324 58 -425 83 -162 302 -231 557 -174 171 38 323 198 361 377 16 81 7 254
-19 322 -11 30 -27 73 -35 95 -8 22 -13 42 -11 44 8 9 125 -113 161 -168 110
-165 154 -439 94 -590 -71 -176 -248 -317 -482 -385 -364 -104 -722 -5 -844
234 -83 163 -78 340 19 699 48 176 59 238 53 293 -11 90 -60 137 -144 139
l-38 1 40 14 c48 16 106 12 140 -10z m541 -67 c63 0 135 3 159 6 l43 7 4 -72
c1 -40 -1 -75 -7 -78 -15 -9 -287 -15 -349 -8 l-56 7 0 76 0 75 45 -7 c25 -3
97 -6 161 -6z m394 -124 c12 -13 26 -22 31 -20 4 3 11 0 15 -6 4 -8 3 -9 -4
-5 -15 9 -15 -7 -1 -21 7 -7 13 -32 14 -57 1 -30 10 -55 27 -78 26 -34 26 -34
7 -59 -25 -33 -24 -43 12 -106 28 -48 30 -60 25 -106 -9 -72 -19 -85 -39 -53
-25 37 -21 73 8 92 14 9 23 19 21 22 -9 8 -54 -27 -61 -47 -3 -12 3 -37 15
-60 24 -49 24 -49 3 -48 -10 1 -35 -2 -55 -6 -47 -10 -55 -35 -34 -97 8 -24
14 -46 12 -47 -2 -2 -15 1 -30 7 -37 14 -79 13 -94 -2 -7 -7 -12 -34 -12 -60
l0 -49 -39 31 c-61 50 -97 31 -126 -64 -5 -18 -8 -17 -24 10 -48 78 -93 82
-135 12 l-25 -42 -10 29 c-32 91 -61 104 -121 56 l-37 -30 4 43 c7 54 -13 76
-68 76 l-39 0 18 35 c9 19 19 33 22 32 115 -63 212 -83 356 -73 191 12 279 81
314 248 12 62 15 327 4 414 -7 62 6 71 46 29z m-424 -37 c60 -1 139 2 177 6
l67 8 0 -75 0 -74 -46 -7 c-60 -8 -297 -8 -346 0 l-38 7 0 74 0 75 39 -7 c21
-3 88 -7 147 -7z m-41 -163 c44 -3 125 -1 179 5 55 5 102 8 105 4 3 -3 6 -36
6 -72 l0 -66 -40 -8 c-53 -10 -299 -12 -359 -3 l-46 7 0 75 0 75 38 -6 c20 -3
73 -8 117 -11z m65 -156 c85 1 171 2 190 4 l35 2 0 -70 0 -70 -40 -7 c-55 -10
-288 -13 -352 -4 l-53 8 0 75 0 75 33 -8 c17 -4 102 -6 187 -5z m10 -161 c85
1 169 3 185 5 30 2 30 2 31 -52 1 -49 -1 -54 -29 -71 -63 -39 -278 -51 -382
-22 -29 8 -30 10 -33 81 l-3 72 38 -8 c21 -4 108 -6 193 -5z"/>
<path d="M1570 5141 c0 -5 5 -13 10 -16 6 -3 10 -21 10 -38 0 -18 5 -39 10
-47 8 -12 11 -11 16 8 5 19 11 22 28 16 27 -9 105 -9 132 0 18 6 23 3 28 -21
6 -22 9 -25 16 -12 5 9 11 31 13 50 2 19 7 40 11 48 12 19 4 21 -35 11 -74
-20 -144 -19 -216 4 -14 4 -23 3 -23 -3z"/>
<path d="M5679 6324 c-73 -171 -98 -441 -58 -636 10 -50 9 -65 -10 -126 -68
-225 -37 -500 85 -744 37 -74 44 -97 44 -147 0 -46 6 -71 30 -116 l30 -56 -44
-82 c-93 -174 -178 -447 -192 -617 l-7 -80 637 0 636 0 0 44 c0 24 -5 67 -10
96 -8 41 -6 71 6 133 24 119 15 357 -19 492 -28 111 -79 260 -109 318 l-19 38
26 64 c51 128 69 228 69 390 1 83 -2 169 -7 192 l-7 42 60 41 c33 22 60 45 60
50 0 13 0 13 -64 -15 -31 -14 -60 -25 -65 -25 -18 0 -30 74 -19 120 15 63 14
331 -1 410 -16 80 -69 247 -80 255 -5 3 -15 2 -23 -1 -25 -11 -110 -119 -150
-192 -23 -41 -45 -71 -52 -68 -6 3 -40 17 -76 32 -131 55 -284 28 -369 -65
l-36 -39 -54 104 c-50 97 -157 234 -182 234 -5 0 -19 -21 -30 -46z m94 -42
c53 -63 157 -260 157 -297 0 -22 -44 -65 -67 -65 -4 0 -23 48 -41 108 -19 59
-48 139 -67 177 l-32 70 -12 -29 c-28 -69 -43 -220 -38 -377 4 -136 2 -159
-13 -179 -17 -22 -17 -22 -24 26 -24 181 -15 348 30 502 26 89 40 122 52 121
4 0 29 -26 55 -57z m900 -30 c52 -153 70 -385 41 -530 -7 -33 -7 -33 -22 -11
-13 18 -15 50 -13 169 2 143 -15 303 -41 370 l-10 25 -16 -30 c-26 -49 -77
-185 -96 -256 l-18 -66 -39 21 c-27 14 -39 28 -39 43 0 60 183 360 214 350 6
-2 23 -40 39 -85z m-878 -182 c56 -164 56 -153 -13 -224 -32 -33 -66 -72 -75
-85 -15 -23 -15 -22 -23 35 -8 69 1 291 16 354 24 106 19 100 43 55 11 -22 35
-83 52 -135z m851 98 c17 -74 30 -309 20 -360 l-6 -35 -75 75 -75 75 20 71
c11 40 32 101 46 137 14 35 30 75 35 88 13 32 19 23 35 -51z m-345 -34 c30 -9
70 -25 91 -36 l36 -21 -18 -52 c-27 -78 -43 -193 -39 -277 5 -87 35 -144 89
-170 29 -14 31 -16 12 -22 -24 -8 -141 9 -177 26 -26 12 -41 6 -30 -11 3 -6
27 -23 53 -38 65 -38 194 -44 308 -15 131 35 133 34 39 -13 -291 -144 -572
-98 -682 112 -43 81 -57 150 -51 252 8 142 64 222 183 263 63 22 116 22 186 2z
m152 -210 c93 -48 179 -141 232 -250 52 -105 51 -107 -53 -132 -90 -22 -219
-28 -257 -12 -13 5 10 8 66 8 79 1 131 7 153 20 6 3 -19 11 -53 18 -82 17
-108 35 -133 92 -18 40 -20 60 -15 148 4 94 10 124 23 124 3 0 19 -7 37 -16z
m-537 -107 c1 -81 5 -114 23 -160 88 -225 339 -312 625 -216 50 17 110 41 133
54 36 20 43 21 48 7 7 -18 13 -15 -64 -37 -171 -50 -306 -201 -348 -386 -15
-70 -15 -71 10 -122 38 -79 59 -150 55 -193 -6 -72 -91 -102 -263 -92 -89 6
-135 24 -161 63 -14 21 -14 32 -4 77 7 29 28 86 48 126 l35 74 -12 104 c-33
289 -145 414 -368 414 -49 0 -54 2 -48 18 4 9 10 28 15 42 28 93 128 233 208
290 30 22 58 40 61 40 3 0 6 -46 7 -103z m-98 -323 c120 -50 188 -172 212
-382 11 -96 11 -103 -10 -139 -20 -37 -25 -39 -91 -50 -84 -13 -133 -46 -161
-111 l-20 -45 -24 39 c-68 111 -115 286 -121 451 -7 171 1 241 30 254 29 12
140 2 185 -17z m936 -46 c9 -37 7 -227 -4 -298 -21 -127 -119 -398 -140 -385
-4 3 -10 18 -13 34 -10 48 -62 99 -120 116 -28 8 -63 15 -79 15 -22 0 -32 8
-47 38 -19 36 -19 43 -6 106 26 124 113 254 214 321 38 26 152 73 177 74 7 1
14 -9 18 -21z m-769 -545 c-4 -10 -15 -46 -23 -81 -14 -56 -15 -67 -1 -90 28
-52 79 -67 229 -67 150 0 191 13 218 68 13 26 6 72 -24 171 -6 17 -2 18 42 11
116 -17 163 -73 172 -203 6 -91 -13 -146 -72 -205 -139 -138 -403 -170 -597
-72 -118 60 -172 141 -171 257 2 143 74 221 211 227 18 1 22 -3 16 -16z m729
-190 c63 -162 96 -310 103 -454 6 -135 -3 -279 -18 -279 -5 0 -9 8 -9 18 0 9
-9 46 -21 82 -13 43 -20 90 -19 140 1 83 -20 206 -50 299 -30 91 -40 114 -46
109 -2 -3 7 -36 21 -73 33 -89 67 -256 63 -314 l-3 -46 -37 90 c-21 50 -57
124 -81 166 l-43 76 20 38 c11 22 22 69 25 109 6 63 33 136 51 136 3 0 23 -44
44 -97z m-95 -312 c94 -183 170 -424 186 -589 l8 -72 -142 0 c-105 0 -143 3
-145 13 -2 6 -11 44 -20 82 -86 373 -426 445 -583 123 -17 -34 -38 -98 -48
-140 l-17 -78 -140 0 -141 0 7 63 c19 172 80 373 167 555 56 116 70 135 84
112 12 -20 132 -79 191 -94 77 -20 231 -21 301 -2 70 19 132 49 185 91 24 19
46 35 50 35 3 0 29 -45 57 -99z m-321 -277 c64 -32 114 -88 157 -179 30 -63
55 -150 55 -190 0 -13 -46 -15 -315 -15 l-315 0 0 26 c0 41 29 143 57 197 32
65 104 140 156 166 60 30 139 28 205 -5z"/>
<path d="M7802 6258 c-19 -19 -15 -35 42 -142 65 -121 106 -236 134 -371 12
-55 20 -100 18 -102 -1 -1 -20 2 -41 8 -22 6 -77 9 -122 7 -74 -4 -93 -9 -168
-47 -134 -69 -241 -192 -290 -334 -24 -71 -16 -87 51 -105 64 -17 225 -9 322
16 l72 18 0 -57 c0 -96 20 -209 56 -317 l35 -104 -16 -56 c-9 -31 -16 -88 -16
-126 0 -60 5 -77 31 -119 l31 -49 -40 -97 c-69 -169 -116 -349 -128 -486 l-6
-74 638 0 638 0 -7 77 c-11 141 -92 426 -157 554 -17 33 -17 37 -2 50 27 22
53 90 53 140 0 26 -7 81 -16 122 l-17 74 27 77 c39 114 56 205 56 307 0 82 2
89 18 83 93 -39 299 -56 385 -31 55 16 57 18 57 52 0 50 -69 188 -127 253 -62
71 -175 144 -256 166 -66 18 -190 18 -231 0 -17 -7 -18 -4 -11 36 22 145 85
329 147 436 45 76 58 115 46 136 -12 23 -23 22 -97 -13 -110 -52 -215 -178
-292 -352 -14 -32 -28 -60 -30 -63 -3 -2 -32 7 -65 20 -70 29 -191 34 -268 11
l-46 -14 -34 73 c-46 100 -103 181 -174 247 -80 74 -176 120 -200 96z m242
-170 c43 -50 49 -68 22 -68 -7 0 -39 -13 -70 -29 l-57 -29 -9 24 c-5 13 -18
42 -29 64 -14 30 -16 42 -7 49 16 13 77 40 93 41 6 0 32 -23 57 -52z m831 31
c25 -12 45 -25 45 -30 0 -9 -47 -109 -56 -118 -2 -2 -28 8 -59 23 -31 14 -62
26 -70 26 -8 0 -15 4 -15 9 0 16 82 111 96 111 8 0 34 -9 59 -21z m-740 -171
c14 -26 25 -49 25 -52 0 -2 -12 -7 -27 -11 -16 -3 -54 -20 -87 -36 -32 -17
-60 -29 -61 -27 -4 5 -35 115 -35 126 0 8 86 51 130 64 17 6 22 0 55 -64z
m698 21 c18 -8 27 -19 24 -28 -3 -9 -11 -38 -18 -66 -7 -27 -14 -52 -15 -54
-2 -1 -35 13 -75 33 -39 20 -78 36 -85 36 -21 0 -17 20 16 77 l30 53 48 -19
c26 -10 60 -25 75 -32z m-654 -111 c7 -19 1 -29 -35 -61 -24 -21 -44 -46 -44
-54 0 -16 -62 -83 -78 -83 -5 0 -12 19 -15 43 -4 23 -9 56 -12 73 -6 29 -4 31
57 61 102 50 115 53 127 21z m562 -15 c46 -24 73 -44 72 -53 -1 -8 -7 -41 -13
-73 l-12 -57 -30 25 c-17 14 -47 34 -67 45 -20 10 -47 30 -60 44 -23 24 -24
28 -11 66 9 26 19 40 30 40 10 0 51 -17 91 -37z m-290 3 c102 -23 192 -93 225
-173 28 -65 0 -103 -118 -162 l-73 -36 0 -43 c0 -48 -19 -56 -50 -22 -10 11
-22 20 -27 20 -15 0 -8 -43 10 -63 17 -20 16 -20 -13 -13 -109 26 -230 123
-277 221 -31 67 -35 100 -14 149 29 70 122 117 271 134 6 1 35 -4 66 -12z
m352 -231 c46 -51 96 -140 122 -216 23 -70 29 -106 33 -215 5 -148 -10 -250
-57 -370 l-28 -72 18 -68 c36 -138 19 -215 -63 -291 -93 -85 -208 -123 -393
-130 -109 -4 -144 -2 -217 16 -203 48 -323 152 -322 277 1 29 9 84 19 122 l18
69 -26 69 c-79 208 -85 426 -16 609 25 68 108 194 151 231 l32 26 12 -43 c18
-73 50 -123 113 -181 73 -68 155 -108 233 -115 59 -6 76 5 41 26 -15 8 -11 10
20 11 43 0 44 3 18 37 -11 13 -17 31 -14 39 3 8 40 32 82 54 118 59 142 97
116 185 l-8 30 49 -40 c27 -22 57 -49 67 -60z m-832 8 c8 -8 2 -23 -20 -53
-30 -42 -33 -43 -94 -46 -84 -4 -167 -31 -256 -83 -91 -54 -144 -100 -166
-148 -17 -36 -17 -37 5 -55 49 -40 291 -21 368 28 20 13 22 13 22 -6 0 -28
-44 -47 -152 -66 -100 -18 -239 -15 -276 5 -31 16 -28 33 22 136 67 138 182
243 313 286 63 21 214 22 234 2z m1150 -25 c126 -63 222 -165 277 -295 34 -81
31 -98 -22 -112 -62 -15 -160 -14 -252 4 -116 22 -144 33 -144 57 0 15 4 18
18 13 124 -53 273 -67 360 -34 21 8 24 14 18 42 -20 99 -267 244 -428 250 -53
2 -55 3 -84 47 -16 25 -30 48 -32 52 -6 12 33 17 124 14 83 -2 99 -5 165 -38z
m-1247 -175 c-18 -49 -33 -98 -34 -109 0 -23 -51 -50 -135 -73 -43 -12 -205
-15 -242 -5 -42 11 -29 52 35 114 94 91 243 158 353 159 l56 1 -33 -87z m1177
71 c67 -19 190 -85 244 -129 23 -18 49 -49 60 -69 28 -51 14 -60 -98 -65 -98
-3 -177 10 -243 41 -37 17 -42 24 -53 71 -6 29 -22 78 -35 110 l-24 57 47 0
c26 0 72 -7 102 -16z m-112 -1359 c42 -127 67 -238 78 -336 l6 -60 -143 3
-143 3 -22 85 c-22 89 -51 153 -92 207 l-24 33 31 45 c17 25 45 74 61 110 26
55 38 68 84 94 29 17 57 36 61 43 11 17 53 -77 103 -227z m-880 168 c29 -15
53 -38 69 -66 14 -23 43 -64 64 -90 l40 -48 -37 -41 c-56 -62 -125 -227 -125
-300 0 -16 -12 -18 -141 -18 l-142 0 7 70 c13 128 76 352 137 489 l29 63 27
-18 c16 -10 48 -29 72 -41z m636 -45 c-19 -63 -121 -208 -177 -250 l-34 -26 0
34 c0 19 -5 39 -12 46 -9 9 -12 5 -12 -17 0 -35 -31 -89 -58 -104 -17 -9 -20
-6 -26 21 -5 23 -31 55 -96 116 -80 75 -160 176 -148 187 2 2 26 -3 53 -11 79
-25 284 -30 385 -10 47 10 91 22 100 26 25 15 32 11 25 -12z m-351 -259 c29
-34 32 -49 14 -67 -20 -20 -4 -21 39 -2 23 10 49 31 58 47 12 22 14 23 10 6
-10 -35 8 -28 69 28 l56 51 20 -23 c43 -52 109 -223 110 -286 0 -16 -625 -18
-635 -3 -9 15 32 154 64 218 16 31 44 72 61 89 l32 33 39 -30 c21 -17 49 -44
63 -61z"/>
<path d="M8346 5035 c-12 -13 -37 -67 -56 -120 -38 -112 -63 -146 -119 -165
-95 -31 -151 -110 -151 -212 1 -85 25 -137 87 -182 71 -52 146 -70 288 -71
160 0 244 24 314 93 71 69 92 171 52 257 -23 51 -48 73 -124 110 -71 34 -100
71 -123 154 -22 82 -45 131 -68 147 -31 22 -74 17 -100 -11z m98 -6 c17 -13
31 -40 41 -77 42 -152 62 -181 149 -221 101 -46 144 -116 131 -216 -15 -125
-109 -196 -282 -216 -107 -12 -222 0 -304 30 -95 36 -149 112 -149 211 0 91
51 159 155 205 61 27 81 56 119 172 43 129 80 159 140 112z"/>
<path d="M8232 4738 c-29 -29 -4 -99 51 -140 69 -53 136 -55 213 -7 61 37 94
115 62 147 -17 17 -309 17 -326 0z m322 -20 c25 -40 -56 -133 -128 -145 -62
-10 -104 5 -152 52 -45 45 -55 80 -32 103 9 9 53 12 157 10 122 -3 145 -6 155
-20z"/>
<path d="M4007 6029 c-209 -49 -348 -254 -387 -569 -9 -76 -13 -87 -39 -107
-58 -46 -61 -141 -6 -225 40 -61 158 -154 253 -200 l88 -43 -4 -45 c-2 -25 -7
-162 -10 -305 l-7 -260 -100 -7 c-221 -15 -376 -52 -453 -108 -46 -33 -87 -97
-96 -151 -8 -48 10 -133 42 -192 70 -131 223 -197 457 -197 139 0 229 19 332
70 100 49 187 138 236 241 20 43 38 68 49 68 22 1 103 -34 140 -60 75 -54 114
-150 84 -208 -51 -97 -237 -155 -675 -211 -206 -27 -227 -31 -249 -54 -22 -22
-24 -27 -12 -41 25 -30 63 -36 225 -36 453 0 858 147 970 352 24 44 29 66 29
119 0 171 -142 305 -383 363 l-91 22 1 326 1 325 71 35 c80 38 180 111 221
159 86 103 100 240 27 283 -25 15 -29 23 -35 89 -18 202 -96 390 -197 477 -46
39 -130 78 -199 91 -63 12 -230 12 -283 -1z m346 -34 l49 -17 -30 -32 c-50
-54 -70 -86 -88 -139 -24 -71 -53 -114 -91 -132 -52 -25 -80 -4 -138 106 -28
51 -70 113 -97 140 -55 55 -54 57 44 84 73 20 284 14 351 -10z m-397 -90 c31
-32 67 -86 87 -128 43 -90 87 -131 131 -123 44 9 89 62 120 143 28 73 95 163
122 163 17 0 96 -71 126 -113 l20 -28 -26 -27 c-40 -43 -52 -87 -31 -118 17
-26 86 -63 117 -64 9 0 19 -8 22 -17 10 -36 26 -138 26 -168 0 -32 -1 -32 -57
-38 -32 -4 -70 -10 -85 -13 l-28 -6 -1 98 c-2 108 -7 94 -11 -29 l-3 -79 -106
-49 c-185 -86 -273 -86 -410 -4 -41 25 -89 50 -106 56 l-33 11 0 94 c0 56 -4
94 -10 94 -6 0 -10 -36 -10 -88 l0 -89 -90 0 -90 -1 6 52 c4 28 12 78 18 110
l11 59 55 14 c55 14 84 33 102 66 13 24 -6 78 -37 107 -14 13 -25 29 -25 37 0
16 116 133 132 133 7 0 36 -25 64 -55z m-178 -125 c41 -55 44 -76 17 -108 -24
-28 -97 -58 -115 -47 -9 6 2 45 40 133 12 29 26 52 29 52 4 0 17 -13 29 -30z
m916 -414 c40 -17 61 -61 53 -116 -22 -165 -252 -331 -514 -371 -144 -22 -311
13 -446 92 -219 130 -299 312 -166 379 31 17 55 20 112 18 66 -3 72 -5 78 -28
7 -25 7 -25 14 -3 7 22 8 22 44 7 20 -8 65 -33 101 -54 131 -79 236 -77 413 7
77 37 100 44 107 34 6 -10 9 -9 14 7 12 36 130 53 190 28z m-314 -570 c0 -73
-3 -95 -14 -99 -29 -11 -50 -70 -50 -137 0 -66 11 -98 47 -137 18 -21 20 -31
14 -145 -6 -136 -29 -232 -79 -335 -29 -61 -56 -96 -44 -57 33 110 46 296 46
666 l0 317 33 10 c17 5 35 10 40 10 4 1 7 -41 7 -93z m-386 74 c18 0 19 -9 12
-247 -10 -373 -25 -631 -42 -702 -26 -114 -73 -190 -158 -252 -34 -25 -48 -29
-105 -29 -148 1 -283 50 -356 132 -25 28 -45 53 -45 57 0 4 14 12 30 18 25 10
30 17 30 46 0 41 -15 56 -64 64 -36 6 -36 6 -30 42 20 109 87 168 232 205 85
23 254 46 333 46 l66 0 -8 -57 c-18 -133 -37 -163 -103 -163 -40 0 -127 -31
-133 -47 -10 -26 33 -53 83 -53 36 0 51 6 84 36 52 47 78 120 93 255 10 100
12 107 39 122 20 11 28 24 28 43 0 31 -25 64 -48 64 -13 0 -14 18 -9 128 4 70
7 167 7 216 0 87 0 88 23 82 12 -3 31 -6 41 -6z m296 -106 l0 -91 -37 -7 c-21
-3 -65 -6 -98 -6 -33 0 -77 3 -97 6 l-38 7 0 91 0 92 135 0 135 0 0 -92z m-2
-174 l-3 -65 -70 -8 c-38 -5 -98 -6 -132 -2 l-63 7 0 66 0 67 135 0 136 0 -3
-65z m0 -150 l-3 -65 -67 -9 c-41 -6 -95 -6 -135 0 l-68 9 -3 65 -3 65 141 0
141 0 -3 -65z m-1 -148 c-3 -35 -8 -66 -11 -69 -13 -14 -123 -21 -193 -13 -41
4 -75 10 -76 11 -2 2 -1 33 1 69 l3 65 141 0 140 0 -5 -63z m232 -98 c219 -66
334 -180 334 -330 1 -170 -187 -318 -508 -397 -161 -40 -183 -42 -208 -19 -25
24 -69 42 -99 42 -11 0 -40 -20 -65 -45 -40 -41 -48 -45 -91 -44 -88 1 -192
15 -204 27 -29 29 15 42 241 72 255 33 353 51 466 86 161 48 243 121 232 205
-12 90 -95 176 -209 216 -40 15 -49 22 -45 38 2 11 10 49 17 85 17 90 17 90
37 90 9 0 55 -12 102 -26z m-316 1 l77 6 0 -63 c0 -93 -8 -101 -116 -106 -49
-2 -107 0 -128 5 l-39 9 2 74 c1 41 4 77 6 81 3 3 30 2 62 -3 32 -5 93 -7 136
-3z m63 -195 c-3 -14 -8 -42 -12 -63 -7 -42 -20 -51 -83 -61 -46 -7 -171 1
-188 13 -6 4 -6 30 0 71 l10 65 139 0 138 0 -4 -25z m-108 -136 l83 6 -15 -29
c-8 -15 -38 -49 -65 -73 -41 -37 -59 -46 -99 -51 -49 -6 -162 2 -162 11 0 2
16 37 36 77 l36 72 51 -10 c29 -5 89 -6 135 -3z"/>
<path d="M3680 3885 c-30 -13 -67 -24 -82 -25 -40 0 -78 -17 -78 -35 0 -34 32
-92 61 -109 23 -14 41 -17 72 -12 51 8 132 52 158 84 27 34 25 87 -3 106 -31
22 -63 19 -128 -9z m128 -7 c6 -6 12 -21 12 -33 0 -81 -189 -165 -250 -110
-18 16 -47 92 -38 100 2 2 22 6 45 10 23 3 72 17 110 30 66 23 94 24 121 3z"/>
<path d="M4536 4104 c-43 -42 -3 -104 88 -139 101 -39 115 8 28 95 -62 62 -89
72 -116 44z"/>
<path d="M5492 3083 c-28 -25 -42 -76 -42 -155 0 -168 62 -420 146 -591 l28
-56 -32 -103 c-57 -182 -79 -353 -61 -473 20 -128 112 -260 221 -316 21 -11
38 -21 38 -24 0 -2 -15 -39 -34 -82 -36 -84 -66 -166 -90 -253 -18 -67 -46
-225 -46 -262 l0 -28 590 0 590 0 0 28 c0 108 -70 370 -142 531 -16 35 -27 65
-26 66 2 1 18 10 37 20 47 24 125 98 160 153 88 139 89 351 4 643 l-25 85 35
70 c73 146 133 377 140 541 7 143 -20 213 -81 213 -63 0 -134 -50 -279 -196
l-142 -143 -68 35 c-129 66 -262 66 -392 1 l-67 -33 -80 90 c-135 153 -271
256 -336 256 -14 0 -35 -8 -46 -17z m103 -22 c57 -27 171 -127 264 -231 l79
-90 -51 -49 -51 -49 -51 86 c-127 216 -207 302 -255 272 -11 -7 -15 -28 -14
-87 1 -95 45 -267 110 -430 43 -109 44 -114 29 -143 -8 -16 -18 -30 -21 -30
-10 0 -67 139 -99 245 -74 246 -86 480 -27 514 24 15 42 13 87 -8z m1331 1
c59 -39 52 -244 -17 -488 -32 -115 -96 -274 -110 -274 -4 0 -13 17 -20 38 -9
32 -8 44 4 68 18 37 80 211 100 284 42 151 51 271 22 299 -41 41 -155 -84
-270 -296 -15 -29 -31 -53 -34 -53 -4 0 -29 22 -55 49 l-49 49 144 144 c164
163 239 211 285 180z m-1342 -83 c17 -12 52 -49 77 -83 58 -76 159 -244 159
-264 0 -8 -13 -31 -28 -51 -16 -20 -48 -69 -72 -109 l-43 -74 -14 27 c-26 48
-82 214 -107 313 -32 126 -42 213 -27 241 14 26 17 26 55 0z m1326 -68 c-1
-100 -59 -317 -127 -471 l-24 -54 -35 64 c-20 36 -53 90 -74 121 l-39 56 63
107 c81 135 139 212 179 236 43 27 57 12 57 -59z m-632 -101 c28 -5 66 -16 86
-24 l34 -14 -44 -89 c-99 -199 -112 -412 -37 -603 69 -174 197 -280 340 -280
46 0 150 31 188 56 23 15 24 15 30 -18 8 -47 -9 -163 -35 -231 -27 -71 -108
-162 -179 -200 -43 -24 -160 -70 -161 -64 -1 1 -2 74 -3 162 -3 137 -6 169
-26 225 -40 114 -106 181 -204 207 -101 26 -219 -23 -278 -114 -53 -84 -64
-139 -64 -320 0 -90 -1 -163 -3 -163 -18 0 -148 60 -189 87 -145 95 -208 258
-183 470 53 446 321 860 590 912 63 12 80 12 138 1z m199 -87 c110 -84 209
-222 281 -391 47 -110 96 -290 107 -389 l7 -60 -54 -27 c-162 -79 -303 -48
-412 91 -147 186 -165 486 -44 728 33 66 46 85 58 85 5 0 30 -17 57 -37z
m-174 -808 c137 -57 206 -250 180 -505 l-8 -75 -65 -11 c-86 -16 -296 -16
-390 -1 l-75 12 -9 90 c-25 240 45 433 178 491 41 18 145 18 189 -1z m-373
-595 c168 -43 474 -36 623 15 26 9 51 13 56 11 30 -19 130 -316 156 -464 23
-134 33 -122 -103 -122 l-117 0 -13 68 c-26 138 -113 274 -206 321 -65 32
-113 36 -181 16 -106 -30 -214 -168 -245 -310 -22 -107 -5 -95 -141 -95 l-122
0 7 53 c20 149 71 330 136 474 27 59 35 71 49 64 9 -5 54 -18 101 -31z m346
-165 c117 -34 225 -186 249 -348 l7 -47 -316 0 -316 0 0 23 c0 12 6 45 14 74
42 156 142 277 251 304 46 11 57 10 111 -6z"/>
<path d="M6145 1890 c-11 -4 -33 -22 -49 -39 -39 -41 -47 -120 -17 -169 64
-101 214 -95 262 12 10 23 19 50 19 61 0 38 -38 104 -72 125 -34 21 -105 26
-143 10z m136 -23 c43 -29 59 -60 59 -118 0 -137 -195 -179 -254 -55 -59 125
81 250 195 173z"/>
<path d="M1756 3034 c-169 -46 -338 -139 -456 -250 -87 -83 -142 -169 -182
-287 -28 -81 -32 -108 -36 -234 l-4 -142 -25 10 c-41 15 -125 11 -163 -10 -19
-10 -48 -40 -65 -66 -26 -43 -30 -57 -30 -124 0 -65 4 -83 27 -123 58 -97 159
-158 265 -158 36 0 45 -4 57 -28 20 -38 95 -106 146 -132 23 -12 40 -24 38
-28 -2 -4 -26 -54 -55 -112 -85 -173 -145 -371 -167 -557 l-7 -53 596 0 596 0
-6 48 c-29 206 -87 398 -171 565 -30 60 -53 111 -52 112 2 1 26 12 53 25 57
28 130 91 151 132 13 25 20 28 62 28 102 0 203 61 260 158 36 63 39 174 4 239
-35 66 -74 88 -157 88 -38 0 -79 -3 -90 -7 -19 -7 -20 -3 -21 125 -2 151 -23
250 -76 356 -57 112 -157 203 -270 246 -43 16 -46 19 -36 39 20 40 51 66 79
66 34 0 44 -13 28 -38 -13 -20 -6 -52 10 -52 5 0 23 12 40 26 57 48 36 124
-42 153 -51 20 -204 12 -301 -15z m320 -19 c40 -30 47 -58 23 -89 -11 -14 -26
-26 -32 -26 -8 0 -7 4 1 12 16 16 15 33 -4 52 -35 36 -107 7 -139 -54 -23 -44
-19 -55 28 -67 23 -7 69 -29 102 -51 165 -106 247 -288 249 -548 l1 -130 -45
-51 -45 -50 -6 156 c-5 128 -10 166 -28 213 -71 183 -197 247 -366 187 -90
-33 -187 -36 -254 -9 -64 25 -152 28 -203 7 -48 -20 -106 -73 -129 -120 -42
-82 -61 -255 -40 -379 4 -27 7 -48 6 -48 -1 0 -24 21 -50 48 l-48 47 0 110 c1
135 28 258 81 365 46 95 173 225 284 294 89 55 223 112 323 138 99 25 253 21
291 -7z m-49 -466 c132 -64 195 -295 154 -566 -8 -52 -8 -53 35 -97 86 -91 76
-228 -25 -319 -101 -91 -242 -127 -499 -127 -238 0 -385 41 -480 133 -42 41
-82 124 -82 170 0 50 24 104 64 143 l41 42 -14 63 c-8 38 -14 121 -14 204 -1
123 2 147 22 198 57 145 181 202 321 147 70 -27 165 -26 255 5 90 30 165 31
222 4z m-956 -450 c40 -20 100 -82 124 -130 15 -28 15 -33 2 -46 -13 -13 -20
-10 -57 30 -111 121 -241 113 -265 -16 -9 -46 23 -115 68 -149 41 -31 100 -58
125 -58 36 0 52 -11 52 -36 0 -22 -4 -24 -47 -24 -126 1 -247 115 -260 245 -5
43 -1 63 20 108 45 99 134 128 238 76z m1458 -6 c62 -47 88 -166 53 -245 -26
-59 -85 -124 -136 -150 -22 -11 -66 -23 -98 -25 -57 -6 -58 -5 -58 20 0 23 6
27 55 37 115 24 203 118 190 203 -20 132 -153 142 -265 20 -37 -40 -44 -43
-57 -30 -13 13 -13 18 2 46 23 45 83 109 119 128 66 35 145 33 195 -4z m-1484
-82 c22 -10 60 -39 84 -64 l44 -45 -22 -31 c-12 -17 -27 -53 -34 -81 -11 -45
-14 -50 -40 -50 -32 0 -101 32 -135 64 -71 64 -70 187 2 216 33 13 57 11 101
-9z m1453 -16 c31 -36 30 -109 -1 -156 -29 -43 -104 -89 -155 -96 -41 -5 -41
-5 -47 33 -4 22 -18 59 -31 83 l-25 45 43 44 c81 84 167 102 216 47z m-1081
-550 c138 -36 426 -37 561 -1 l53 14 26 -41 c87 -137 176 -400 201 -594 l9
-63 -117 0 -117 0 -7 55 c-20 169 -127 341 -242 390 -47 20 -135 15 -184 -10
-106 -55 -184 -196 -226 -412 -4 -22 -8 -23 -128 -23 l-124 0 5 43 c10 89 56
276 90 367 30 81 130 290 139 290 2 0 29 -7 61 -15z m345 -245 c115 -32 230
-208 254 -387 l7 -53 -321 0 -320 0 13 68 c35 175 113 304 217 356 56 28 92
32 150 16z"/>
<path d="M2030 2056 l0 -108 -27 7 c-53 13 -446 18 -522 6 -203 -32 -294 -107
-294 -243 0 -49 5 -66 29 -100 36 -51 107 -91 210 -120 108 -29 418 -33 534
-5 97 22 186 65 227 108 54 58 62 155 19 237 -18 36 -91 87 -136 97 l-28 6 -1
107 c-1 58 -4 108 -6 111 -3 2 -5 -44 -5 -103z m-84 -107 c191 -26 274 -93
274 -220 0 -115 -76 -180 -260 -224 -157 -37 -429 -29 -570 17 -135 44 -190
102 -190 201 0 135 83 195 320 231 58 8 354 5 426 -5z"/>
<path d="M1580 1932 c-31 -5 -60 -30 -60 -51 0 -23 41 -86 70 -108 69 -52 145
-54 213 -6 73 52 99 137 50 158 -19 9 -230 14 -273 7z m274 -28 c21 -21 20
-35 -7 -75 -28 -42 -79 -77 -124 -85 -91 -17 -229 108 -178 160 24 23 286 24
309 0z"/>
<path d="M3981 3004 c-50 -36 -65 -133 -36 -245 17 -64 14 -79 -14 -79 -10 0
-45 -14 -78 -30 -162 -81 -259 -274 -307 -610 -9 -63 -25 -233 -35 -376 -20
-278 -27 -308 -77 -341 -14 -9 -47 -22 -72 -28 -25 -7 -48 -17 -49 -22 -6 -17
55 -36 98 -30 35 5 40 3 33 -11 -30 -72 -79 -297 -90 -415 l-7 -77 712 0 711
0 0 44 c0 63 -35 256 -64 359 -15 48 -26 91 -26 95 0 4 18 6 40 4 39 -4 90 17
90 37 0 5 -18 11 -40 15 -40 6 -110 58 -131 97 -5 10 -16 98 -24 196 -50 604
-111 839 -258 992 -38 39 -144 101 -174 101 -21 0 -23 18 -8 76 30 115 15 212
-37 248 -30 22 -126 21 -157 0z m155 -27 c22 -19 28 -34 32 -81 2 -31 -1 -85
-9 -119 l-13 -62 -8 45 c-13 74 -68 102 -121 60 -21 -17 -27 -31 -29 -73 l-3
-52 -15 45 c-7 25 -14 83 -14 128 -1 80 0 85 27 108 39 33 115 34 153 1z m-35
-166 c20 -16 24 -28 23 -78 0 -53 -31 -167 -54 -203 -9 -13 -11 -13 -20 0 -30
45 -59 202 -47 252 6 23 37 46 63 47 7 1 22 -8 35 -18z m-96 -231 c54 -129 57
-129 110 -1 36 87 38 89 65 81 107 -31 198 -116 259 -242 77 -158 120 -388
156 -832 9 -104 20 -196 24 -205 16 -27 74 -78 116 -99 l40 -21 -40 -1 c-27 0
-52 8 -77 25 -20 14 -39 25 -42 25 -4 0 -6 -17 -6 -37 0 -47 -18 -113 -30
-113 -6 0 -10 10 -10 23 0 12 -4 28 -9 36 -7 11 -13 5 -25 -24 -19 -45 -63
-105 -77 -105 -5 0 -9 14 -9 30 0 17 -2 30 -5 30 -2 0 -34 -16 -69 -36 -81
-44 -225 -94 -291 -101 -64 -6 -197 32 -315 90 -47 23 -88 43 -92 45 -5 2 -8
-10 -8 -27 0 -17 -4 -31 -9 -31 -14 0 -58 60 -77 105 -12 29 -18 35 -25 24 -5
-8 -9 -24 -9 -36 0 -13 -4 -23 -9 -23 -13 0 -21 26 -28 92 -3 32 -7 58 -9 58
-2 0 -20 -11 -40 -25 -21 -15 -51 -25 -71 -25 -40 0 -36 16 6 25 32 7 82 48
99 81 7 12 16 84 22 160 23 311 31 404 45 503 53 377 152 552 354 626 20 8 40
13 44 12 4 -1 23 -40 42 -87z m-468 -1461 l20 -21 7 33 6 32 29 -39 c28 -40
71 -74 91 -74 7 0 9 13 4 35 l-6 36 63 -33 c35 -18 66 -34 67 -35 2 -1 -8 -21
-22 -46 -31 -53 -62 -140 -71 -202 l-7 -45 -174 0 -174 0 0 24 c0 34 37 247
56 318 8 33 25 85 36 116 l21 56 17 -68 c9 -37 26 -76 37 -87z m1141 41 c29
-92 72 -313 72 -371 l0 -29 -184 0 -184 0 -17 75 c-9 42 -32 106 -50 143 -21
41 -30 68 -23 71 6 2 40 18 75 36 l65 33 -7 -34 c-3 -19 -2 -34 2 -34 22 0 75
44 100 82 l28 42 5 -39 5 -40 22 29 c13 15 28 55 35 87 7 33 15 56 19 51 4 -4
21 -50 37 -102z m-742 -145 c47 -14 103 -25 123 -25 31 0 143 26 192 45 12 4
22 -4 37 -29 26 -45 60 -139 71 -198 l8 -48 -318 0 c-254 0 -319 3 -319 13 0
45 52 193 86 245 18 27 15 27 120 -3z"/>
<path d="M3994 2186 c-44 -19 -88 -77 -108 -144 -10 -31 -40 -103 -67 -160
-43 -89 -49 -110 -49 -165 1 -154 103 -237 295 -237 108 0 167 21 226 80 35
35 49 59 59 98 15 65 8 108 -33 186 -17 34 -45 104 -63 156 -17 52 -36 95 -42
95 -6 0 -14 4 -19 9 -5 5 -3 6 5 2 17 -10 15 5 -6 31 -46 57 -131 78 -198 49z
m143 -46 c36 -21 58 -52 68 -92 6 -23 3 -27 -24 -33 -16 -3 -50 -22 -75 -41
l-45 -34 -45 33 c-24 19 -56 37 -70 41 -55 14 -13 104 64 138 31 13 95 8 127
-12z m-232 -99 c-9 -42 10 -99 44 -135 l30 -31 -18 -65 c-53 -190 -27 -285 82
-297 133 -15 179 101 117 300 l-19 60 23 18 c32 25 56 79 57 126 0 35 2 31 28
-42 15 -44 40 -104 55 -133 60 -114 53 -197 -23 -273 -55 -55 -121 -79 -221
-79 -173 0 -279 87 -280 230 0 45 8 71 44 143 24 49 52 115 62 148 19 62 30
80 19 30z m122 -93 l32 -31 37 33 c33 28 90 60 110 60 3 0 3 -12 -1 -27 -23
-94 -122 -139 -211 -97 -37 18 -74 69 -74 103 0 21 1 21 38 6 20 -9 51 -30 69
-47z m98 -130 c11 -76 -25 -126 -80 -112 -34 8 -45 32 -45 98 l0 56 59 0 60 0
6 -42z m-139 -3 c-11 -45 10 -101 45 -115 63 -27 112 18 107 97 -4 63 8 38 27
-52 26 -128 6 -195 -65 -216 -31 -9 -49 -9 -80 0 -75 22 -93 114 -51 269 12
44 28 60 17 17z"/>
<path d="M7382 2727 c-33 -40 -44 -284 -16 -390 36 -139 113 -242 205 -272 59
-20 112 -14 182 21 26 14 47 22 47 19 0 -2 -19 -51 -42 -107 -87 -215 -59
-365 99 -529 l63 -66 -34 -74 c-65 -142 -126 -366 -142 -523 l-7 -66 657 0
657 0 -6 58 c-19 164 -73 366 -141 524 l-34 80 69 73 c149 157 183 322 106
506 -15 35 -33 80 -40 100 l-13 37 60 -31 c168 -87 312 3 384 238 23 75 25
307 3 370 -17 50 -40 55 -115 24 -52 -22 -60 -22 -157 -12 -154 17 -259 -6
-361 -77 l-57 -40 -39 20 c-78 40 -157 54 -305 54 -148 0 -226 -14 -306 -54
l-41 -21 -34 26 c-104 80 -233 111 -384 93 -86 -10 -103 -9 -146 6 -74 27 -99
29 -112 13z m93 -28 c43 -19 58 -20 144 -14 53 4 118 7 144 6 70 -3 162 -34
223 -76 l53 -37 -46 -53 -47 -53 -39 35 c-65 58 -97 67 -237 68 -135 1 -149 5
-194 56 l-29 32 -20 -24 c-17 -22 -19 -36 -14 -149 5 -139 23 -207 76 -284 48
-69 88 -89 170 -84 56 3 78 10 120 35 54 34 68 28 25 -12 -69 -64 -183 -88
-251 -52 -77 41 -135 130 -168 257 -20 77 -18 309 3 348 16 27 27 28 87 1z
m1948 -14 c5 -16 9 -91 10 -165 2 -124 0 -141 -26 -217 -16 -45 -41 -99 -57
-121 -56 -78 -138 -119 -209 -107 -59 10 -158 72 -170 108 -11 29 -11 29 12
13 85 -61 111 -71 184 -71 70 0 73 1 112 39 44 43 76 103 97 179 30 115 29
270 -3 302 -14 14 -20 12 -59 -25 -49 -45 -39 -43 -194 -44 -124 -1 -158 -12
-229 -72 l-31 -26 -23 28 c-12 16 -32 39 -45 51 l-23 21 33 26 c97 73 208 98
372 82 98 -9 109 -8 153 11 63 28 84 25 96 -12z m-808 -60 c115 -31 194 -94
244 -193 16 -31 51 -127 79 -213 28 -86 64 -189 81 -229 17 -39 36 -99 42
-133 52 -280 -299 -597 -661 -597 -258 0 -528 157 -632 367 -31 63 -33 74 -33
168 0 96 2 104 44 200 24 55 63 158 87 228 56 161 94 237 149 296 90 96 216
134 420 126 66 -2 147 -11 180 -20z m-1155 6 c0 -6 17 -23 37 -38 35 -27 40
-28 162 -29 139 0 182 -13 250 -71 l34 -29 -22 -41 c-11 -23 -34 -78 -50 -123
-33 -88 -50 -109 -126 -145 -171 -84 -308 50 -322 316 -7 111 1 169 22 169 8
0 15 -4 15 -9z m1916 -13 c13 -41 8 -182 -10 -260 -12 -54 -29 -95 -57 -137
-65 -97 -138 -115 -245 -61 -76 38 -107 71 -129 140 -10 30 -29 79 -42 109
l-23 54 27 29 c15 15 47 38 72 50 40 20 60 23 156 21 126 -2 160 6 200 47 34
36 41 37 51 8z m-1409 -1243 c11 -8 56 -32 100 -54 243 -121 499 -106 741 44
l43 26 30 -67 c62 -136 115 -328 144 -521 l7 -43 -151 0 -151 0 -6 28 c-16 77
-48 172 -71 211 -113 194 -300 236 -438 97 -75 -75 -145 -224 -145 -308 l0
-28 -155 0 c-145 0 -155 1 -155 19 0 38 31 199 56 286 29 104 112 325 123 325
3 0 16 -7 28 -15z m493 -221 c101 -30 197 -149 235 -294 8 -30 15 -65 15 -77
l0 -23 -315 0 c-359 0 -327 -10 -300 95 39 146 134 269 233 299 61 19 69 19
132 0z"/>
<path d="M8322 1869 c-29 -5 -66 -16 -81 -24 -30 -15 -81 -70 -81 -86 0 -19
-16 -8 -33 24 -18 34 -63 67 -89 67 -7 -1 2 -9 21 -18 43 -21 67 -54 82 -112
17 -67 5 -117 -41 -162 -41 -42 -39 -51 5 -16 15 12 35 39 45 60 l17 39 16
-25 c9 -13 42 -37 74 -53 113 -55 291 -31 358 49 l25 29 16 -41 c9 -22 28 -49
42 -60 40 -32 46 -23 7 11 -83 74 -62 229 39 279 29 14 35 20 20 20 -27 0 -71
-34 -94 -73 l-18 -29 -16 30 c-39 75 -177 115 -314 91z m201 -20 c22 -6 55
-25 74 -43 31 -28 37 -40 41 -88 4 -50 2 -58 -27 -90 -49 -56 -112 -81 -206
-82 -70 -1 -88 3 -140 29 -95 48 -126 113 -89 191 16 34 63 69 112 84 40 12
191 12 235 -1z"/>
</g>
</svg>
