<?xml version="1.0" encoding="UTF-8" standalone="no"?>
<!-- Created with Inkscape (http://www.inkscape.org/) -->

<svg
   xmlns:dc="http://purl.org/dc/elements/1.1/"
   xmlns:cc="http://creativecommons.org/ns#"
   xmlns:rdf="http://www.w3.org/1999/02/22-rdf-syntax-ns#"
   xmlns:svg="http://www.w3.org/2000/svg"
   xmlns="http://www.w3.org/2000/svg"
   xmlns:sodipodi="http://sodipodi.sourceforge.net/DTD/sodipodi-0.dtd"
   xmlns:inkscape="http://www.inkscape.org/namespaces/inkscape"
   width="54.118965mm"
   height="83.255554mm"
   viewBox="0 0 54.118965 83.255554"
   version="1.1"
   id="svg353"
   inkscape:version="0.92.4 (5da689c313, 2019-01-14)"
   sodipodi:docname="dog.svg">
  <defs
     id="defs347" />
  <sodipodi:namedview
     id="base"
     pagecolor="#ffffff"
     bordercolor="#666666"
     borderopacity="1.0"
     inkscape:pageopacity="0.0"
     inkscape:pageshadow="2"
     inkscape:zoom="1.4"
     inkscape:cx="529.77349"
     inkscape:cy="290.54679"
     inkscape:document-units="cm"
     inkscape:current-layer="layer1"
     showgrid="false"
     fit-margin-top="0"
     fit-margin-left="0"
     fit-margin-right="0"
     fit-margin-bottom="0"
     inkscape:window-width="1920"
     inkscape:window-height="1017"
     inkscape:window-x="1912"
     inkscape:window-y="-8"
     inkscape:window-maximized="1" />
  <metadata
     id="metadata350">
    <rdf:RDF>
      <cc:Work
         rdf:about="">
        <dc:format>image/svg+xml</dc:format>
        <dc:type
           rdf:resource="http://purl.org/dc/dcmitype/StillImage" />
        <dc:title></dc:title>
      </cc:Work>
    </rdf:RDF>
  </metadata>
  <g
     inkscape:label="Layer 1"
     inkscape:groupmode="layer"
     id="layer1"
     transform="translate(153.30353,-88.306742)">
    <path
       style="stroke-width:0.03527778"
       inkscape:connector-curvature="0"
       d="m -151.82186,88.906467 c -0.98778,0.881944 -1.48167,2.681111 -1.48167,5.468055 0,5.926668 2.18722,14.816668 5.15055,20.849168 l 0.98778,1.97556 -1.12889,3.63361 c -2.01083,6.42055 -2.78694,12.45305 -2.15194,16.68639 0.70555,4.51555 3.95111,9.17222 7.79639,11.14777 0.74083,0.38806 1.34055,0.74084 1.34055,0.84667 0,0.0706 -0.52916,1.37584 -1.19944,2.89278 -1.27,2.96333 -2.32833,5.85611 -3.175,8.92528 -0.635,2.36361 -1.62278,7.9375 -1.62278,9.24278 v 0.98777 h 20.81389 20.81389 v -0.98777 c 0,-3.81 -2.46944,-13.05278 -5.00945,-18.7325 -0.56444,-1.23473 -0.9525,-2.29306 -0.91722,-2.32834 0.0705,-0.0353 0.635,-0.35278 1.30528,-0.70555 1.65806,-0.84667 4.40972,-3.45723 5.64445,-5.3975 3.10444,-4.90362 3.13972,-12.38251 0.14111,-22.68362 l -0.88195,-2.99861 1.23472,-2.46944 c 2.57528,-5.15056 4.691951,-13.29972 4.938895,-19.085281 0.246944,-5.044722 -0.705556,-7.514167 -2.857505,-7.514167 -2.2225,0 -4.72722,1.763889 -9.8425,6.914445 l -5.00944,5.044723 -2.39889,-1.234723 c -4.55083,-2.328333 -9.24278,-2.328333 -13.82889,-0.03528 l -2.36361,1.164173 -2.82222,-3.175006 c -4.7625,-5.3975 -9.56028,-9.031112 -11.85334,-9.031112 -0.49389,0 -1.23472,0.282223 -1.62277,0.599723 z m 3.63361,0.776111 c 2.01083,0.9525 6.0325,4.480278 9.31333,8.149167 l 2.78694,3.175005 -1.79916,1.72861 -1.79917,1.72861 -1.79917,-3.03389 c -4.48027,-7.620002 -7.3025,-10.653891 -8.99583,-9.595558 -0.38805,0.246945 -0.52917,0.987778 -0.49389,3.069167 0.0353,3.351389 1.5875,9.419171 3.88056,15.169441 1.51694,3.84528 1.55222,4.02167 1.02305,5.04473 -0.28222,0.56444 -0.635,1.05833 -0.74083,1.05833 -0.35278,0 -2.36361,-4.90361 -3.4925,-8.64306 -2.61056,-8.67833 -3.03389,-16.93333 -0.9525,-18.132774 0.84667,-0.529167 1.48167,-0.458612 3.06917,0.282222 z m 46.95472,-0.03528 c 2.081391,1.375833 1.834445,8.607778 -0.59972,17.215562 -1.12889,4.05694 -3.38667,9.66611 -3.88056,9.66611 -0.14111,0 -0.45861,-0.59972 -0.70555,-1.34056 -0.3175,-1.12889 -0.28223,-1.55222 0.14111,-2.39889 0.635,-1.30527 2.82222,-7.44361 3.52778,-10.01889 1.48166,-5.326943 1.79916,-9.560277 0.77611,-10.548054 -1.44639,-1.446389 -5.46806,2.963333 -9.525,10.442224 -0.52917,1.02306 -1.09362,1.86972 -1.19945,1.86972 -0.14111,0 -1.02305,-0.77611 -1.94028,-1.72861 l -1.72861,-1.72861 5.08,-5.080002 c 5.78556,-5.750278 8.43139,-7.443611 10.05417,-6.35 z m -47.34278,2.928056 c 0.59972,0.423333 1.83445,1.728611 2.71639,2.928055 2.04611,2.681112 5.60917,8.607781 5.60917,9.313341 0,0.28222 -0.45861,1.09361 -0.98778,1.79916 -0.56445,0.70556 -1.69333,2.43417 -2.54,3.84528 l -1.51695,2.61056 -0.49388,-0.9525 c -0.91723,-1.69334 -2.89278,-7.54945 -3.77473,-11.04195 -1.12889,-4.445002 -1.48166,-7.514168 -0.9525,-8.501946 0.49389,-0.917223 0.59973,-0.917223 1.94028,0 z m 46.77834,2.398889 c -0.0353,3.527777 -2.08139,11.183057 -4.48028,16.615837 l -0.84667,1.905 -1.23472,-2.25778 c -0.70556,-1.27 -1.86972,-3.175 -2.61056,-4.26861 l -1.37583,-1.97556 2.2225,-3.77472 c 2.8575,-4.7625 4.90361,-7.47889 6.31472,-8.325556 1.51695,-0.9525 2.01084,-0.423334 2.01084,2.081389 z m -22.29556,3.563055 c 0.98778,0.176389 2.32833,0.564445 3.03389,0.846667 l 1.19944,0.493889 -1.55222,3.139726 c -3.4925,7.02028 -3.95111,14.53444 -1.30528,21.2725 2.43417,6.13833 6.94972,9.87778 11.99445,9.87778 1.62278,0 5.29166,-1.09361 6.63222,-1.97556 0.81139,-0.52917 0.84667,-0.52917 1.05833,0.635 0.28223,1.65806 -0.3175,5.75028 -1.23472,8.14917 -0.9525,2.50472 -3.81,5.715 -6.31472,7.05555 -1.51695,0.84667 -5.64445,2.46945 -5.67972,2.25778 -0.0353,-0.0353 -0.0706,-2.61055 -0.10584,-5.715 -0.10583,-4.83305 -0.21166,-5.96194 -0.91722,-7.9375 -1.41111,-4.02166 -3.73944,-6.38528 -7.19667,-7.3025 -3.56305,-0.91722 -7.72583,0.81139 -9.80722,4.02167 -1.86972,2.96333 -2.25778,4.90361 -2.25778,11.28889 0,3.175 -0.0353,5.75028 -0.10583,5.75028 -0.635,0 -5.22111,-2.11667 -6.6675,-3.06917 -5.11528,-3.35139 -7.33778,-9.10167 -6.45583,-16.58056 1.86972,-15.73389 11.32416,-30.33889 20.81389,-32.173334 2.2225,-0.423333 2.82222,-0.423333 4.86833,-0.03528 z m 7.02028,3.069172 c 3.88055,2.96333 7.37305,7.83166 9.91305,13.79361 1.65806,3.88055 3.38667,10.23055 3.77473,13.72305 l 0.24694,2.11667 -1.905,0.9525 c -5.715,2.78695 -10.68917,1.69334 -14.53445,-3.21028 -5.18583,-6.56166 -5.82083,-17.145 -1.55222,-25.68222 1.16417,-2.32833 1.62278,-2.99861 2.04611,-2.99861 0.17639,0 1.05834,0.59972 2.01084,1.30528 z m -6.13834,28.50444 c 4.83306,2.01084 7.26723,8.81945 6.35,17.81528 l -0.28222,2.64584 -2.29305,0.38805 c -3.03389,0.56445 -10.44223,0.56445 -13.75834,0.0353 l -2.64583,-0.42333 -0.3175,-3.17501 c -0.88195,-8.46666 1.5875,-15.27527 6.27944,-17.32139 1.44639,-0.635 5.11528,-0.635 6.6675,0.0353 z m -13.15861,20.99028 c 5.92667,1.51695 16.72167,1.27 21.97806,-0.52916 0.91722,-0.3175 1.79916,-0.45862 1.97555,-0.38806 1.05834,0.67028 4.58612,11.14778 5.50334,16.36889 0.81139,4.72722 1.16416,4.30389 -3.63361,4.30389 h -4.1275 l -0.45862,-2.39889 c -0.91722,-4.86833 -3.98638,-9.66611 -7.26722,-11.32417 -2.29305,-1.12889 -3.98639,-1.27 -6.38527,-0.56444 -3.73945,1.05833 -7.54945,5.92666 -8.64306,10.93611 -0.77611,3.77472 -0.17639,3.35139 -4.97417,3.35139 h -4.30389 l 0.24695,-1.86972 c 0.70555,-5.25639 2.50472,-11.64167 4.79778,-16.72167 0.9525,-2.08139 1.23472,-2.50472 1.72861,-2.25778 0.3175,0.17639 1.905,0.635 3.56305,1.09361 z m 12.20611,5.82084 c 4.1275,1.19944 7.9375,6.56166 8.78417,12.27666 l 0.24694,1.65806 h -11.14777 -11.14778 v -0.81139 c 0,-0.42333 0.21167,-1.5875 0.49389,-2.61056 1.48166,-5.50333 5.00944,-9.77194 8.85472,-10.72444 1.62278,-0.38806 2.01083,-0.35278 3.91583,0.21167 z"
       id="path42" />
    <path
       style="stroke-width:0.03527778"
       inkscape:connector-curvature="0"
       d="m -128.78547,130.99286 c -0.38806,0.14111 -1.16417,0.77611 -1.72862,1.37583 -1.37583,1.44639 -1.65805,4.23333 -0.59972,5.96195 2.25778,3.56305 7.54945,3.35138 9.24278,-0.42334 0.35278,-0.81139 0.67028,-1.76389 0.67028,-2.15194 0,-1.34056 -1.34056,-3.66889 -2.54,-4.40973 -1.19945,-0.74083 -3.70417,-0.91722 -5.04472,-0.35277 z m 4.79777,0.81139 c 1.51695,1.02305 2.08139,2.11666 2.08139,4.16277 0,4.83306 -6.87916,6.31473 -8.96055,1.94028 -2.08139,-4.40972 2.8575,-8.81944 6.87916,-6.10305 z"
       id="path44" />
    <text
       xml:space="preserve"
       style="font-style:normal;font-weight:normal;font-size:10.58333302px;line-height:1.25;font-family:sans-serif;letter-spacing:0px;word-spacing:0px;fill:#000000;fill-opacity:1;stroke:none;stroke-width:0.26458332"
       x="-138.45728"
       y="124.85427"
       id="text17"><tspan
         sodipodi:role="line"
         id="tspan15"
         x="-138.45728"
         y="124.85427"
         style="stroke-width:0.26458332">l</tspan></text>
    <text
       xml:space="preserve"
       style="font-style:normal;font-weight:normal;font-size:10.58333302px;line-height:1.25;font-family:sans-serif;letter-spacing:0px;word-spacing:0px;fill:#000000;fill-opacity:1;stroke:none;stroke-width:0.26458332"
       x="-115.74385"
       y="125.13826"
       id="text17-9"><tspan
         sodipodi:role="line"
         id="tspan15-8"
         x="-115.74385"
         y="125.13826"
         style="stroke-width:0.26458332">l</tspan></text>
  </g>
</svg>
