<?xml version="1.0" encoding="UTF-8" standalone="no"?>
<!-- Created with Inkscape (http://www.inkscape.org/) -->

<svg
   xmlns:dc="http://purl.org/dc/elements/1.1/"
   xmlns:cc="http://creativecommons.org/ns#"
   xmlns:rdf="http://www.w3.org/1999/02/22-rdf-syntax-ns#"
   xmlns:svg="http://www.w3.org/2000/svg"
   xmlns="http://www.w3.org/2000/svg"
   xmlns:sodipodi="http://sodipodi.sourceforge.net/DTD/sodipodi-0.dtd"
   xmlns:inkscape="http://www.inkscape.org/namespaces/inkscape"
   width="2.3158407in"
   height="4.3314576in"
   viewBox="0 0 58.822354 110.01902"
   version="1.1"
   id="svg191"
   inkscape:version="0.92.4 (5da689c313, 2019-01-14)"
   sodipodi:docname="dragon.svg">
  <defs
     id="defs185" />
  <sodipodi:namedview
     id="base"
     pagecolor="#ffffff"
     bordercolor="#666666"
     borderopacity="1.0"
     inkscape:pageopacity="0.0"
     inkscape:pageshadow="2"
     inkscape:zoom="1.4"
     inkscape:cx="421.08755"
     inkscape:cy="170.50115"
     inkscape:document-units="mm"
     inkscape:current-layer="layer1"
     showgrid="false"
     fit-margin-top="0"
     fit-margin-left="0"
     fit-margin-right="0"
     fit-margin-bottom="0"
     inkscape:window-width="1920"
     inkscape:window-height="1017"
     inkscape:window-x="1912"
     inkscape:window-y="-8"
     inkscape:window-maximized="1"
     units="in" />
  <metadata
     id="metadata188">
    <rdf:RDF>
      <cc:Work
         rdf:about="">
        <dc:format>image/svg+xml</dc:format>
        <dc:type
           rdf:resource="http://purl.org/dc/dcmitype/StillImage" />
        <dc:title></dc:title>
      </cc:Work>
    </rdf:RDF>
  </metadata>
  <g
     inkscape:label="Layer 1"
     inkscape:groupmode="layer"
     id="layer1"
     transform="translate(163.21473,5.9618909)">
    <path
       style="stroke-width:0.03527778"
       inkscape:connector-curvature="0"
       d="m -140.8741,-5.6567686 c -1.09361,0.4586111 -1.79916,1.6933334 -2.2225,3.8452778 -0.17638,1.05833365 -0.35277,1.97555575 -0.35277,2.04611135 0,0.1058333 -0.21167,0.1058333 -0.49389,0 -0.77611,-0.3175 -1.69334,0.98777795 -1.86972,2.64583355 -0.10584,1.1288887 0.0706,1.9402779 0.70555,3.1749999 0.56445,1.164167 0.74083,1.763889 0.45861,2.046111 -0.635,0.635 -1.09361,0.388056 -3.21028,-1.799166 -4.58611,-4.6919452 -8.29027,-6.70277845 -12.55888,-6.73805615 -3.17501,-0.0352779 -3.49251,0.2469444 -1.72862,1.55222225 3.175,2.3283334 4.05695,5.8561109 2.18723,8.7841669 -0.56445,0.846667 -1.37584,1.869722 -1.76389,2.2225 -0.42334,0.388056 -0.77611,0.811389 -0.77611,0.9525 0,0.176389 0.70555,0.635 1.5875,1.058334 1.905,0.881944 3.175,2.328333 3.73944,4.1275 0.3175,1.128889 0.24695,1.658056 -0.38805,3.421945 -1.19945,3.421944 -1.19945,3.351387 -0.56445,3.351387 0.3175,0 1.97556,-0.45861 3.70417,-1.023053 l 3.10444,-0.98778 0.21167,2.822223 c 0.14111,1.516944 0.49389,3.704167 0.81139,4.833057 0.56444,2.04611 0.56444,2.04611 -0.3175,3.245556 -0.45861,0.635 -1.12889,1.658054 -1.44639,2.293054 -0.74083,1.44639 -0.74083,5.326946 -0.0353,7.090833 0.77611,1.834446 2.82222,3.84528 5.18583,5.044723 l 1.97556,0.98778 -0.28222,1.340554 c -0.28223,1.199446 -1.02306,7.584723 -1.55223,13.158613 -0.10583,1.058333 -0.21166,4.26861 -0.21166,7.161389 0,5.044721 -0.0353,5.185834 -0.67028,4.7625 -0.91722,-0.564446 -1.16417,-1.658056 -0.52917,-2.293056 0.70556,-0.705557 0.635,-1.516944 -0.28222,-2.469444 l -0.74083,-0.811389 0.74083,-0.81139 c 0.98778,-1.023054 0.98778,-1.446387 0,-2.328334 -0.70556,-0.670276 -0.70556,-0.77611 -0.17639,-1.375833 0.74083,-0.81139 0.77611,-1.622777 0.0706,-2.187223 -0.49389,-0.388054 -0.49389,-0.529167 0.0353,-1.305277 0.52917,-0.81139 0.49389,-0.917223 -0.17639,-1.658056 -0.49389,-0.529167 -0.59972,-0.917221 -0.38805,-1.27 0.49389,-0.740834 0.42333,-0.987777 -0.35278,-1.658054 -0.42333,-0.388057 -0.635,-0.846667 -0.49389,-1.340557 0.14111,-0.599723 -0.17639,-1.058333 -1.48167,-2.04611 -3.06916,-2.39889 -5.89139,-2.504723 -9.525,-0.388056 -1.65805,0.9525 -2.11666,1.799166 -0.74083,1.41111 0.42333,-0.14111 1.72861,-0.352777 2.89278,-0.45861 1.83444,-0.14111 2.25777,-0.07056 3.13972,0.635 1.23472,0.987777 1.97555,2.68111 1.97555,4.550833 0,0.77611 -0.74083,4.233333 -1.62277,7.65528 -2.43417,9.34861 -2.96334,12.170833 -2.99861,16.51 -0.0353,6.420556 1.41111,10.406948 5.11527,14.075828 4.16278,4.092231 9.41917,5.856121 17.39195,5.856121 6.20889,0 10.65389,-0.98778 15.80444,-3.52778 5.99723,-2.892781 9.80723,-6.773336 11.88862,-11.923892 0.70555,-1.728611 0.77611,-2.575277 0.74083,-6.420557 -0.0353,-5.326943 -0.81139,-8.5725 -2.99861,-12.805833 -1.83445,-3.4925 -6.06778,-8.008057 -9.27806,-9.771944 -1.16416,-0.635 -2.15194,-1.199446 -2.2225,-1.27 -0.14111,-0.07056 -1.12889,-7.408333 -1.12889,-8.255 0,-0.3175 0.81139,-0.9525 1.86973,-1.481666 2.61055,-1.270003 3.95111,-2.504724 4.97416,-4.586113 1.62278,-3.210277 1.05834,-7.9375 -1.23472,-10.371667 -0.635,-0.705556 -0.67028,-0.846667 -0.17639,-2.99861 0.28222,-1.234723 0.635,-3.421946 0.77611,-4.833057 0.10584,-1.375833 0.35278,-2.54 0.52917,-2.54 0.14111,0 1.72861,0.423334 3.4925,0.917221 1.905,0.564446 3.35139,0.81139 3.56306,0.599723 0.17638,-0.17639 -0.0706,-1.023057 -0.56445,-2.010833 -1.83444,-3.633612 -0.59972,-6.879167 3.35139,-8.854723 0.67028,-0.352778 1.30528,-0.670278 1.37583,-0.740833 0.0706,-0.07056 -0.59972,-0.917223 -1.51694,-1.940278 -3.10445,-3.457223 -2.99861,-6.138334 0.38805,-9.4191675 1.05834,-1.05833325 1.83445,-1.97555555 1.76389,-2.08138895 -0.10583,-0.070555 -1.30527,-0.141111 -2.64583,-0.141111 -4.19806,0 -7.58472,1.62277795 -11.50056,5.46805545 -3.45722,3.386667 -3.66889,3.527778 -4.23333,3.069167 -0.45861,-0.388056 -0.42333,-0.635 0.21167,-1.834444 0.77611,-1.516945 0.91722,-4.0569452 0.28222,-5.2563895 -0.21167,-0.42333335 -0.74084,-0.70555565 -1.23473,-0.70555565 -0.77611,0 -0.88194,-0.141111 -0.88194,-1.34055565 0,-1.6227777 -0.91722,-3.4925001 -2.2225,-4.4450001 -0.91722,-0.6702778 -0.98778,-0.6702778 -1.5875,-0.1058334 -0.52917,0.5291667 -0.59972,1.3758334 -0.59972,5.99722255 0,4.58611075 -0.0706,5.32694475 -0.52917,5.22111075 -0.28222,-0.07056 -2.57528,-0.105833 -5.04472,-0.105833 h -4.51556 l 0.10583,-5.22111115 c 0.10584,-6.10305585 -0.10583,-6.77333365 -2.08139,-5.99722245 z m 1.44639,7.6200004 c 0.0706,3.6688892 0.17639,6.9850002 0.24695,7.3730562 0.49389,2.575278 -4.7625,-1.516945 -5.64445,-4.374445 -0.42333,-1.4463889 -0.28222,-3.3866669 0.3175,-3.7394445 0.14111,-0.070556 0.35278,0.3175 0.49389,0.9525 0.21167,1.1288889 0.77611,2.0461105 1.27,2.0461105 0.14111,0 0.24695,-1.4816662 0.24695,-3.28083285 0,-2.36361125 0.14111,-3.56305565 0.56444,-4.37444475 0.67028,-1.2347222 1.65806,-1.9755556 2.11667,-1.5522222 0.14111,0.1411111 0.3175,3.2808334 0.38805,6.9497226 z m 13.65251,-5.7150004 c 0.28222,0.4586111 0.52916,2.1519445 0.59972,4.37444475 0.17639,3.98638885 0.56444,4.44499985 1.51694,1.83444435 l 0.56445,-1.51694435 0.38805,1.09361105 c 0.45861,1.3052779 0.0705,3.1749998 -0.91722,4.5861118 -1.19944,1.658055 -3.52778,3.598333 -4.33917,3.598333 -0.70555,0 -0.74083,-0.105833 -0.45861,-1.516944 0.17639,-0.811389 0.3175,-4.092223 0.3175,-7.3025008 0,-3.210278 0.14111,-6.0325002 0.28222,-6.2441669 0.35278,-0.5291667 1.30528,-0.035278 2.04612,1.0936111 z m -29.21001,5.4327781 c 2.82223,1.4111113 9.03111,7.0555555 8.5725,7.7963895 -0.21166,0.3175 -0.88194,-0.176389 -2.25777,-1.552223 -3.31612,-3.421944 -9.2075,-7.26722215 -11.00667,-7.19666645 -0.28222,0 0.10583,0.28222225 0.91722,0.59972225 2.78695,1.1641667 6.17361,3.3866662 8.78417,5.7855552 1.44639,1.375834 2.64583,2.610556 2.64583,2.786945 0,0.176389 -0.38805,0.9525 -0.88194,1.658056 l -0.88195,1.375833 -2.39889,-0.529167 c -2.36361,-0.493888 -7.62,-0.423333 -9.06639,0.141112 -0.52916,0.211666 -0.35277,-0.176389 0.70556,-1.622778 1.12889,-1.552223 1.41111,-2.2225 1.51694,-3.915834 0.14112,-1.763889 0,-2.293056 -0.77611,-3.6688889 -0.52916,-0.8819446 -1.27,-1.7991666 -1.65805,-2.0461113 -1.05834,-0.67027765 -0.81139,-0.81138885 1.37583,-0.81138885 1.55222,0.0352779 2.57528,0.3175002 4.40972,1.19944455 z m 47.41334,0.3880556 c -2.43417,2.6811109 -2.57528,5.8208339 -0.38806,8.6783339 0.67028,0.881944 1.19945,1.658055 1.19945,1.728611 0,0.07056 -0.67028,0 -1.48167,-0.176389 -2.82222,-0.529167 -7.58472,-0.282222 -9.80722,0.529167 -0.35278,0.141111 -0.81139,-0.246945 -1.34056,-1.128889 -0.45861,-0.705556 -0.81139,-1.446389 -0.84666,-1.622778 -0.0706,-0.564445 4.05694,-4.409723 6.42055,-6.0677782 2.2225,-1.4816667 5.99723,-3.28083325 7.02028,-3.31611125 0.24695,0 -0.0705,0.59972225 -0.77611,1.37583355 z m -21.44889,4.4802779 c 0.17639,0.141111 -0.21167,2.363611 -1.16417,6.6675 -0.74083,3.351389 -0.74083,9.771945 0,11.959168 0.81139,2.363611 2.50473,3.915834 5.11528,4.727223 l 2.18722,0.670277 -1.62277,0.211667 c -0.91723,0.14111 -2.99862,0.9525 -4.65667,1.834444 -3.98639,2.081389 -5.15056,2.116666 -8.89,0.141112 -1.51695,-0.811389 -3.45723,-1.658056 -4.33917,-1.869723 l -1.55222,-0.423333 1.65805,-0.45861 c 2.01084,-0.564446 3.88056,-2.504723 4.55084,-4.691946 0.67028,-2.257777 0.59972,-11.077223 -0.14111,-14.393334 -1.02306,-4.515556 -1.05834,-4.374445 0.77611,-4.656667 1.55222,-0.211667 7.79639,0 8.07861,0.282222 z m -13.05278,3.175 c 1.05833,0.811389 1.86972,1.199445 2.46944,1.128889 0.84667,-0.105833 0.91723,0.03528 1.34056,2.187222 0.24694,1.270001 0.42333,3.98639 0.45861,6.032501 0,6.420556 -1.41111,9.278056 -5.22111,10.371667 -1.09361,0.3175 -2.78694,1.023056 -3.77472,1.516946 -0.9525,0.529166 -1.86972,0.987777 -2.01084,1.058333 -0.49388,0.246944 -1.37583,-3.739446 -1.5875,-6.985003 -0.35277,-6.314721 1.41112,-12.170832 4.65667,-15.134166 0.84667,-0.776111 1.69333,-1.446389 1.83445,-1.446389 0.17638,0 0.98777,0.564445 1.83444,1.27 z m 20.0025,-0.07056 c 2.96334,2.54 4.445,6.985 4.51556,13.617223 0.0353,3.421944 -0.59972,8.819444 -1.05834,8.819444 -0.0705,0 -0.88194,-0.45861 -1.79916,-1.023054 -0.9525,-0.564446 -2.54,-1.270003 -3.56306,-1.587503 -1.05833,-0.28222 -2.39889,-0.846666 -3.03389,-1.23472 -3.175,-1.975556 -4.02166,-7.866945 -2.29305,-15.769168 0.35277,-1.622778 0.45861,-1.763889 1.34055,-1.622778 0.67028,0.07056 1.30528,-0.211667 2.32834,-1.128889 0.77611,-0.670278 1.5875,-1.234722 1.79916,-1.27 0.21167,0 0.98778,0.529167 1.76389,1.199445 z m -28.32806,3.351389 c 1.02306,0.388055 1.12889,0.635 0.635,1.375833 -0.21166,0.352778 -0.77611,0.3175 -2.89277,-0.282222 -1.41111,-0.388056 -3.06917,-0.705556 -3.66889,-0.670278 -0.635,0 -0.0706,0.211667 1.34055,0.493889 4.09223,0.811389 4.93889,1.199445 4.69195,2.081389 -0.10584,0.388056 -0.3175,1.5875 -0.42334,2.610556 l -0.24694,1.869722 -3.10444,1.587499 c -1.72862,0.846667 -3.21028,1.552223 -3.31612,1.552223 -0.10583,0 0.0706,-0.529166 0.38806,-1.12889 1.44639,-2.786943 0.45861,-6.385277 -2.25778,-8.219721 l -1.30528,-0.88194 1.5875,-0.07055 c 1.48167,-0.03528 1.51695,-0.07056 0.35278,-0.211672 -1.16416,-0.176389 -1.19944,-0.176389 -0.35278,-0.423333 1.23473,-0.352778 7.37306,-0.141111 8.5725,0.3175 z m 41.59251,1.658055 c -0.84667,0.705556 -1.72861,1.728612 -2.01084,2.293056 -0.67027,1.27 -0.67027,3.774723 0,5.362223 l 0.52917,1.27 -3.24556,-1.552223 -3.28083,-1.552222 -0.38805,-2.398889 c -0.24695,-1.305273 -0.45862,-2.504717 -0.45862,-2.610551 -0.0705,-0.493889 6.59695,-1.975555 9.10167,-2.046111 l 1.23472,-0.03528 z m -33.05528,16.756951 c 0.77611,0.211667 2.32833,0.9525 3.42194,1.622777 1.55222,0.987779 2.50472,1.27 4.23334,1.411113 2.11666,0.176387 2.36361,0.105833 5.25638,-1.44639 3.70417,-1.940277 5.39751,-2.293056 7.51417,-1.481667 3.42195,1.305277 5.75028,5.221111 5.43278,9.136944 -0.42333,4.93889 -4.19806,7.866946 -11.67694,9.06639 -3.49251,0.564446 -12.02973,0.282223 -14.88723,-0.493887 -6.27944,-1.728613 -9.34861,-4.833057 -9.34861,-9.41917 0,-3.668887 1.905,-6.526387 5.43278,-8.113887 1.65805,-0.740833 2.64583,-0.81139 4.62139,-0.282223 z m 0.59972,18.944167 c 0.14111,0.141113 0.10583,1.375833 -0.10583,2.716389 -0.52917,4.021667 -0.91723,12.135557 -0.98778,21.30778 -0.0353,4.7625 -0.10584,8.678333 -0.17639,8.74889 -0.0706,0.07055 -0.88195,-0.423336 -1.83445,-1.058336 l -1.72861,-1.199444 0.0353,-9.489723 c 0.0353,-8.854723 0.24695,-11.994443 1.27,-18.944167 l 0.42334,-2.786943 1.41111,0.246943 c 0.81139,0.105834 1.55222,0.3175 1.69333,0.458611 z m 18.13278,4.198056 c 0.49389,3.66889 0.67028,6.914444 0.67028,13.158613 0,9.136944 -0.24695,10.689167 -2.25778,13.052777 l -0.98778,1.199443 -0.21167,-10.230553 c -0.21166,-9.278057 -0.635,-17.250836 -1.12888,-20.108336 -0.17639,-1.058334 -0.10584,-1.164167 1.12888,-1.481667 0.74084,-0.176387 1.51695,-0.352777 1.72862,-0.388054 0.21166,-0.03528 0.635,1.905 1.05833,4.797777 z m -4.30389,-2.71639 c 0.10583,0.67028 0.21167,1.728613 0.21167,2.328334 0,1.058333 -0.0706,1.093613 -1.83445,1.340556 -2.39889,0.282223 -8.89,0.282223 -10.58333,0 -1.27,-0.211667 -1.34056,-0.3175 -1.34056,-1.552223 0,-0.740833 0.10583,-1.763887 0.21167,-2.328333 l 0.17639,-1.023054 h 6.49111 6.45583 z m -25.7175,1.905 c 0.49389,0.3175 1.16416,1.164167 1.51694,1.905 1.41111,2.786947 1.62278,4.515557 1.65806,14.534447 0.0706,10.406943 0.21166,11.43 2.04611,14.993056 2.92805,5.715 10.65389,8.149167 19.64972,6.138333 6.0325,-1.340556 11.39473,-6.985 12.73528,-13.299723 0.56445,-2.8575 0.24695,-8.960556 -0.67028,-11.359443 -0.38805,-1.058334 -0.9525,-2.57528 -1.23472,-3.35139 -0.28222,-0.776113 -0.45861,-1.481667 -0.38805,-1.552223 0.28222,-0.3175 4.40972,3.98639 5.67972,5.926666 3.88055,5.820834 5.43278,15.486947 3.31611,20.81389 -2.50472,6.208885 -8.74889,11.183055 -17.00389,13.581946 -12.84111,3.66889 -25.47056,0.17639 -29.77445,-8.255 -2.92805,-5.750279 -2.75166,-11.994446 0.67028,-24.659169 1.69333,-6.20889 2.08139,-8.39611 1.86972,-10.33639 -0.38805,-3.175 -2.11666,-4.833053 -5.08,-4.90361 l -1.34055,-0.03528 1.41111,-0.49389 c 1.69333,-0.564443 3.73944,-0.423333 4.93889,0.352777 z m 19.08528,2.363613 c 2.2225,0 4.7625,-0.105833 5.60916,-0.211666 l 1.51695,-0.246947 0.14111,2.54 c 0.0353,1.411113 -0.0353,2.645834 -0.24694,2.751667 -0.52917,0.3175 -10.12473,0.529167 -12.31195,0.282223 l -1.97556,-0.246943 v -2.681113 -2.645834 l 1.5875,0.246947 c 0.88195,0.105833 3.42195,0.211666 5.67973,0.211666 z m 13.89944,4.374444 c 0.42334,0.45861 0.91722,0.77611 1.09361,0.705556 0.14111,-0.105833 0.38806,0 0.52917,0.211667 0.14111,0.28222 0.10583,0.3175 -0.14111,0.176387 -0.52917,-0.3175 -0.52917,0.246946 -0.0353,0.740833 0.24695,0.246947 0.45861,1.12889 0.49389,2.010834 0.0353,1.058336 0.35278,1.940279 0.9525,2.751669 0.91722,1.199444 0.91722,1.199444 0.24694,2.081387 -0.88194,1.164167 -0.84666,1.516946 0.42334,3.739446 0.98778,1.693334 1.05833,2.116667 0.88194,3.739444 -0.3175,2.54 -0.67028,2.99861 -1.37583,1.869723 -0.88195,-1.30528 -0.74083,-2.57528 0.28222,-3.245556 0.49389,-0.3175 0.81139,-0.670277 0.74083,-0.776111 -0.3175,-0.282223 -1.905,0.9525 -2.15194,1.658054 -0.10583,0.423333 0.10583,1.30528 0.52917,2.116667 0.84666,1.728613 0.84666,1.728613 0.10583,1.693333 -0.35278,-0.03528 -1.23472,0.07056 -1.94028,0.211667 -1.65805,0.352779 -1.94028,1.234723 -1.19944,3.421946 0.28222,0.846667 0.49389,1.622777 0.42333,1.658056 -0.0706,0.07055 -0.52917,-0.03528 -1.05833,-0.246946 -1.30528,-0.493887 -2.78695,-0.45861 -3.31611,0.07056 -0.24695,0.246943 -0.42334,1.199443 -0.42334,2.116666 v 1.728611 l -1.37583,-1.093611 c -2.15195,-1.763889 -3.42195,-1.09361 -4.445,2.257777 -0.17639,0.635 -0.28222,0.599723 -0.84667,-0.352777 -1.69333,-2.751666 -3.28083,-2.892777 -4.7625,-0.423333 l -0.88194,1.481667 -0.35278,-1.023057 c -1.12889,-3.210277 -2.15195,-3.668887 -4.26861,-1.975554 l -1.30528,1.058334 0.14111,-1.516946 c 0.24695,-1.905 -0.45861,-2.681111 -2.39889,-2.681111 h -1.37583 l 0.635,-1.234723 c 0.3175,-0.670277 0.67028,-1.164166 0.77611,-1.12889 4.05694,2.222503 7.47889,2.928057 12.55889,2.57528 6.73806,-0.423333 9.8425,-2.8575 11.07722,-8.74889 0.42334,-2.187223 0.52917,-11.535833 0.14111,-14.605 -0.24694,-2.187223 0.21167,-2.504723 1.62278,-1.023056 z m -14.95778,1.305277 c 2.11667,0.03528 4.90361,-0.07055 6.24417,-0.211667 l 2.36361,-0.28222 v 2.645833 2.610556 l -1.62278,0.246944 c -2.11666,0.282223 -10.4775,0.282223 -12.20611,0 l -1.34055,-0.246944 v -2.610556 -2.645833 l 1.37583,0.246943 c 0.74083,0.105833 3.10444,0.246944 5.18583,0.246944 z m -1.44639,5.750279 c 1.55223,0.105834 4.40973,0.03528 6.31473,-0.17639 1.94027,-0.176387 3.59833,-0.28222 3.70416,-0.14111 0.10584,0.105834 0.21167,1.27 0.21167,2.54 v 2.328334 l -1.41111,0.282223 c -1.86972,0.352777 -10.54806,0.423333 -12.66472,0.105833 l -1.62278,-0.246946 v -2.645834 -2.645833 l 1.34055,0.211667 c 0.70556,0.105833 2.57528,0.282223 4.1275,0.388056 z m 2.29306,5.503334 c 2.99861,-0.03528 6.0325,-0.07056 6.70278,-0.141111 l 1.23472,-0.07056 v 2.469443 2.469447 l -1.41111,0.246943 c -1.94028,0.352777 -10.16,0.45861 -12.41778,0.14111 l -1.86972,-0.28222 v -2.645833 -2.645834 l 1.16416,0.282221 c 0.59973,0.141113 3.59834,0.211666 6.59695,0.17639 z m 0.35278,5.679723 c 2.99861,-0.03528 5.96194,-0.105834 6.52639,-0.17639 1.05833,-0.07056 1.05833,-0.07056 1.09361,1.834443 0.0353,1.728613 -0.0353,1.905 -1.02306,2.504724 -2.2225,1.375833 -9.80722,1.799166 -13.47611,0.776112 -1.02306,-0.282223 -1.05833,-0.352779 -1.16417,-2.857502 l -0.10583,-2.54 1.34056,0.282223 c 0.74083,0.14111 3.81,0.211667 6.80861,0.17639 z"
       id="path24" />
    <path
       style="stroke-width:0.03527778"
       inkscape:connector-curvature="0"
       d="m -138.86326,42.285734 c 0,0.176388 0.17639,0.458611 0.35278,0.564444 0.21166,0.105833 0.35277,0.740833 0.35277,1.340556 0,0.635 0.17639,1.375834 0.35278,1.658054 0.28222,0.423334 0.38806,0.388057 0.56445,-0.28222 0.17639,-0.67028 0.38805,-0.776113 0.98777,-0.564446 0.9525,0.3175 3.70417,0.3175 4.65667,0 0.635,-0.211667 0.81139,-0.105834 0.98778,0.740833 0.21167,0.776113 0.3175,0.881946 0.56444,0.423333 0.17639,-0.3175 0.38806,-1.09361 0.45861,-1.763887 0.0706,-0.670279 0.24695,-1.411113 0.38806,-1.693333 0.42333,-0.67028 0.14111,-0.740834 -1.23472,-0.388057 -2.61056,0.705557 -5.08,0.670277 -7.62,-0.14111 -0.49389,-0.141113 -0.81139,-0.105833 -0.81139,0.105833 z"
       id="path26" />
    <text
       xml:space="preserve"
       style="font-style:normal;font-weight:normal;font-size:10.58333302px;line-height:1.25;font-family:sans-serif;letter-spacing:0px;word-spacing:0px;fill:#000000;fill-opacity:1;stroke:none;stroke-width:0.26458332"
       x="-146.54147"
       y="27.80459"
       id="text17"><tspan
         sodipodi:role="line"
         id="tspan15"
         x="-146.54147"
         y="27.80459"
         style="stroke-width:0.26458332">l</tspan></text>
    <text
       xml:space="preserve"
       style="font-style:normal;font-weight:normal;font-size:10.58333302px;line-height:1.25;font-family:sans-serif;letter-spacing:0px;word-spacing:0px;fill:#000000;fill-opacity:1;stroke:none;stroke-width:0.26458332"
       x="-123.82793"
       y="28.088617"
       id="text17-9"><tspan
         sodipodi:role="line"
         id="tspan15-8"
         x="-123.82793"
         y="28.088617"
         style="stroke-width:0.26458332">l</tspan></text>
  </g>
</svg>
