<?xml version="1.0" encoding="UTF-8" standalone="no"?>
<!-- Created with Inkscape (http://www.inkscape.org/) -->

<svg
   xmlns:dc="http://purl.org/dc/elements/1.1/"
   xmlns:cc="http://creativecommons.org/ns#"
   xmlns:rdf="http://www.w3.org/1999/02/22-rdf-syntax-ns#"
   xmlns:svg="http://www.w3.org/2000/svg"
   xmlns="http://www.w3.org/2000/svg"
   xmlns:sodipodi="http://sodipodi.sourceforge.net/DTD/sodipodi-0.dtd"
   xmlns:inkscape="http://www.inkscape.org/namespaces/inkscape"
   width="73.283737mm"
   height="89.872581mm"
   viewBox="0 0 73.283737 89.872581"
   version="1.1"
   id="svg270"
   inkscape:version="0.92.4 (5da689c313, 2019-01-14)"
   sodipodi:docname="goat.svg">
  <defs
     id="defs264" />
  <sodipodi:namedview
     id="base"
     pagecolor="#ffffff"
     bordercolor="#666666"
     borderopacity="1.0"
     inkscape:pageopacity="0.0"
     inkscape:pageshadow="2"
     inkscape:zoom="1.979899"
     inkscape:cx="368.21512"
     inkscape:cy="234.88386"
     inkscape:document-units="mm"
     inkscape:current-layer="layer1"
     showgrid="false"
     fit-margin-top="0"
     fit-margin-left="0"
     fit-margin-right="0"
     fit-margin-bottom="0"
     inkscape:window-width="1920"
     inkscape:window-height="1017"
     inkscape:window-x="1912"
     inkscape:window-y="-8"
     inkscape:window-maximized="1" />
  <metadata
     id="metadata267">
    <rdf:RDF>
      <cc:Work
         rdf:about="">
        <dc:format>image/svg+xml</dc:format>
        <dc:type
           rdf:resource="http://purl.org/dc/dcmitype/StillImage" />
        <dc:title></dc:title>
      </cc:Work>
    </rdf:RDF>
  </metadata>
  <g
     inkscape:label="Layer 1"
     inkscape:groupmode="layer"
     id="layer1"
     transform="translate(261.15974,-0.33156764)">
    <path
       style="stroke-width:0.03527778"
       inkscape:connector-curvature="0"
       d="m -245.66097,0.70442001 c -0.67028,0.67027779 -0.52916,1.23472229 1.48167,5.00944459 2.29305,4.2686113 3.73944,8.3255564 4.72722,13.0880564 0.42333,1.940278 0.70556,3.527778 0.635,3.598334 -0.0353,0.03528 -0.70555,-0.07056 -1.44639,-0.282222 -0.77611,-0.211667 -2.71639,-0.3175 -4.30389,-0.246945 -2.61055,0.141111 -3.28083,0.3175 -5.92666,1.658056 -4.72723,2.434166 -8.50195,6.773334 -10.23056,11.782777 -0.84667,2.504724 -0.56444,3.069167 1.79917,3.704167 2.25777,0.599723 7.9375,0.3175 11.35944,-0.564443 l 2.54,-0.635 v 2.010833 c 0,3.386667 0.70556,7.373056 1.97556,11.183056 l 1.23472,3.66889 -0.56444,1.975554 c -0.3175,1.093613 -0.56445,3.104446 -0.56445,4.445 0,2.116667 0.17639,2.71639 1.09361,4.198056 l 1.09361,1.728611 -1.41111,3.421946 c -2.43416,5.961943 -4.09222,12.311943 -4.51555,17.145 l -0.21167,2.610556 h 22.50722 22.50723 l -0.24695,-2.71639 c -0.38805,-4.974166 -3.24555,-15.028333 -5.53861,-19.543889 -0.59972,-1.164167 -0.59972,-1.305277 -0.0706,-1.76389 0.9525,-0.77611 1.86972,-3.175 1.86972,-4.938887 0,-0.917223 -0.24694,-2.8575 -0.56444,-4.30389 l -0.59972,-2.610556 0.9525,-2.716388 c 1.37583,-4.021669 1.97555,-7.231946 1.97555,-10.830279 0,-2.892777 0.0705,-3.139723 0.635,-2.928057 3.28084,1.375834 10.54806,1.975557 13.58195,1.093613 1.94028,-0.564446 2.01083,-0.635 2.01083,-1.834446 0,-1.763887 -2.43417,-6.632223 -4.48028,-8.925277 -2.18722,-2.504723 -6.17361,-5.080001 -9.03111,-5.856112 -2.32833,-0.635 -6.70278,-0.635 -8.14917,0 -0.59972,0.246945 -0.635,0.141111 -0.38805,-1.27 0.77611,-5.115278 2.99861,-11.6063897 5.18583,-15.381112 1.5875,-2.6811113 2.04611,-4.0569448 1.62278,-4.79777809 -0.42333,-0.81138894 -0.81139,-0.77611116 -3.42194,0.45861109 -3.88056,1.8344446 -7.58472,6.2794446 -10.30111,12.417779 -0.49389,1.128889 -0.98778,2.116667 -1.05834,2.2225 -0.10583,0.07056 -1.12889,-0.246944 -2.29305,-0.705556 -2.46945,-1.023055 -6.73806,-1.199444 -9.45445,-0.388055 l -1.62278,0.493889 -1.19944,-2.575278 c -1.62278,-3.5277787 -3.63361,-6.3852787 -6.13833,-8.7136123 -2.82222,-2.6105556 -6.20889,-4.23333341 -7.05556,-3.38666669 z m 8.53722,5.99722259 c 1.51695,1.763889 1.72862,2.398889 0.77612,2.398889 -0.24695,0 -1.37584,0.458611 -2.46945,1.0230554 l -2.01083,1.023056 -0.3175,-0.846667 c -0.17639,-0.4586111 -0.635,-1.4816667 -1.02306,-2.2577778 -0.49389,-1.0583336 -0.56444,-1.4816669 -0.24694,-1.7286112 0.56444,-0.4586113 2.71639,-1.4111113 3.28083,-1.446389 0.21167,0 1.12889,0.811389 2.01083,1.8344446 z m 29.31584,-1.0936113 c 0.88194,0.4233333 1.5875,0.8819446 1.5875,1.0583333 0,0.3175 -1.65806,3.8452784 -1.97556,4.1627784 -0.0706,0.07056 -0.98777,-0.282222 -2.08139,-0.811389 -1.09361,-0.4938891 -2.18722,-0.9172224 -2.46944,-0.9172224 -0.28222,0 -0.52917,-0.1411113 -0.52917,-0.3175 0,-0.5644446 2.89278,-3.9158336 3.38667,-3.9158336 0.28222,0 1.19944,0.3175 2.08139,0.7408333 z m -26.10556,6.0325007 c 0.49389,0.917222 0.88195,1.728611 0.88195,1.834445 0,0.07056 -0.42334,0.246944 -0.9525,0.388055 -0.56445,0.105834 -1.905,0.705556 -3.06917,1.27 -1.12889,0.599723 -2.11667,1.023056 -2.15194,0.9525 -0.14112,-0.176389 -1.23473,-4.056944 -1.23473,-4.445 0,-0.282222 3.03389,-1.7991671 4.58611,-2.2577784 0.59973,-0.2116666 0.77612,0 1.94028,2.2577784 z m 24.62389,-0.740833 c 0.635,0.282222 0.9525,0.670278 0.84667,0.987778 -0.10583,0.3175 -0.38806,1.340555 -0.635,2.328333 -0.24695,0.9525 -0.49389,1.834445 -0.52917,1.905 -0.0706,0.03528 -1.23472,-0.458611 -2.64583,-1.164167 -1.37584,-0.705555 -2.75167,-1.27 -2.99861,-1.27 -0.74084,0 -0.59973,-0.705555 0.56444,-2.716389 l 1.05833,-1.8697224 1.69334,0.6702777 c 0.91722,0.3527777 2.11667,0.8819447 2.64583,1.1288897 z m -23.07167,3.915833 c 0.24695,0.670278 0.0353,1.023056 -1.23472,2.151945 -0.84667,0.740833 -1.55222,1.622778 -1.55222,1.905 0,0.564444 -2.18722,2.928056 -2.75167,2.928056 -0.17639,0 -0.42333,-0.670278 -0.52916,-1.516945 -0.14111,-0.811389 -0.3175,-1.975556 -0.42334,-2.575278 -0.21166,-1.023055 -0.14111,-1.093611 2.01084,-2.151944 3.59833,-1.763889 4.05694,-1.869723 4.48027,-0.740834 z m 19.82612,0.529167 c 1.62277,0.846667 2.57527,1.552222 2.54,1.869722 -0.0353,0.282223 -0.24695,1.446389 -0.45861,2.575278 l -0.42334,2.010834 -1.05833,-0.881945 c -0.59972,-0.493889 -1.65806,-1.199444 -2.36361,-1.5875 -0.70556,-0.352778 -1.65806,-1.058333 -2.11667,-1.552222 -0.81139,-0.846667 -0.84667,-0.987778 -0.38806,-2.328334 0.3175,-0.917222 0.67028,-1.411111 1.05834,-1.411111 0.35278,0 1.79916,0.599722 3.21028,1.305278 z m -10.23056,-0.105833 c 3.59833,0.811389 6.77333,3.280833 7.9375,6.103055 0.98778,2.293056 0,3.633612 -4.16278,5.715 l -2.57528,1.27 v 1.516944 c 0,1.693333 -0.67027,1.975556 -1.76388,0.776113 -0.35278,-0.388057 -0.77612,-0.705557 -0.9525,-0.705557 -0.52917,0 -0.28223,1.516944 0.35277,2.2225 0.59973,0.705557 0.56445,0.705557 -0.45861,0.458613 -3.84528,-0.917223 -8.11389,-4.339169 -9.77194,-7.79639 -1.09361,-2.363611 -1.23472,-3.527778 -0.49389,-5.256389 1.02305,-2.469445 4.30389,-4.1275 9.56028,-4.727223 0.21166,-0.03528 1.23472,0.141111 2.32833,0.423334 z m 12.41778,8.149167 c 1.62278,1.799166 3.38667,4.938888 4.30389,7.619999 0.81139,2.469446 1.02305,3.739446 1.16416,7.584723 0.17639,5.221113 -0.35277,8.819446 -2.01083,13.052779 l -0.98778,2.54 0.635,2.39889 c 1.27,4.868333 0.67028,7.584721 -2.2225,10.265833 -3.28083,2.998611 -7.33778,4.339167 -13.86416,4.586111 -3.84528,0.141113 -5.08,0.07056 -7.65528,-0.564444 -7.16139,-1.693333 -11.39472,-5.362223 -11.35945,-9.771946 0.0353,-1.023054 0.3175,-2.963333 0.67028,-4.303887 l 0.635,-2.434167 -0.91722,-2.434167 c -2.78695,-7.337779 -2.99861,-15.028336 -0.56445,-21.484169 0.88195,-2.39889 3.81,-6.843889 5.32695,-8.149167 l 1.12889,-0.917222 0.42333,1.516945 c 0.635,2.575277 1.76389,4.339167 3.98639,6.385277 2.57528,2.39889 5.46806,3.81 8.21972,4.056947 2.08139,0.211666 2.68111,-0.17639 1.44639,-0.917223 -0.52917,-0.282224 -0.38805,-0.352777 0.70556,-0.388057 1.51694,0 1.55222,-0.105833 0.635,-1.305277 -0.38806,-0.458613 -0.59973,-1.093613 -0.49389,-1.375833 0.10583,-0.282223 1.41111,-1.12889 2.89278,-1.905 4.16277,-2.08139 5.00944,-3.421945 4.09222,-6.52639 l -0.28222,-1.058333 1.72861,1.411111 c 0.9525,0.776111 2.01083,1.728611 2.36361,2.116667 z m -29.35111,-0.282223 c 0.28222,0.282223 0.0706,0.811389 -0.70556,1.869723 -1.05833,1.481666 -1.16417,1.516944 -3.31611,1.622777 -2.96333,0.141112 -5.89139,1.093611 -9.03111,2.928055 -3.21028,1.905 -5.08,3.52778 -5.85611,5.221113 -0.59973,1.27 -0.59973,1.305277 0.17639,1.940277 1.72861,1.411113 10.26583,0.740833 12.98222,-0.987777 0.70555,-0.45861 0.77611,-0.45861 0.77611,0.211667 0,0.987776 -1.55222,1.658056 -5.36222,2.328333 -3.52778,0.635 -8.43139,0.529167 -9.73667,-0.17639 -1.09361,-0.564443 -0.98778,-1.164167 0.77611,-4.797777 2.36361,-4.868333 6.42056,-8.572501 11.04195,-10.089445 2.2225,-0.740833 7.54944,-0.776111 8.255,-0.07056 z m 40.56944,0.881945 c 4.445,2.2225 7.83167,5.820833 9.77195,10.406946 1.19944,2.8575 1.09361,3.45722 -0.77611,3.95111 -2.18723,0.529167 -5.64445,0.49389 -8.89,-0.14111 -4.09223,-0.776113 -5.08,-1.164167 -5.08,-2.010833 0,-0.529167 0.14111,-0.635 0.635,-0.458613 4.37444,1.869723 9.63083,2.363613 12.7,1.199446 0.74083,-0.282223 0.84666,-0.49389 0.635,-1.481667 -0.70556,-3.4925 -9.41917,-8.607779 -15.09889,-8.819446 -1.86973,-0.07055 -1.94028,-0.105833 -2.96334,-1.658055 -0.56444,-0.881945 -1.05833,-1.693334 -1.12889,-1.834445 -0.21166,-0.423333 1.16417,-0.599722 4.37445,-0.493889 2.92805,0.07056 3.4925,0.176389 5.82083,1.340556 z m -43.99139,6.17361 c -0.635,1.728613 -1.16416,3.457223 -1.19944,3.84528 0,0.811389 -1.79917,1.763889 -4.7625,2.575276 -1.51695,0.423334 -7.23195,0.529167 -8.53723,0.17639 -1.48166,-0.388056 -1.02305,-1.834443 1.23473,-4.021666 3.31611,-3.21028 8.5725,-5.57389 12.45305,-5.609167 l 1.97556,-0.03528 z m 41.52195,-2.50472 c 2.36361,0.670276 6.70278,2.99861 8.60778,4.550833 0.81139,0.635 1.72861,1.72861 2.11666,2.434167 0.98778,1.799166 0.49389,2.116666 -3.45722,2.293056 -3.45722,0.105833 -6.24417,-0.35278 -8.5725,-1.44639 -1.30528,-0.599723 -1.48167,-0.846666 -1.86972,-2.504723 -0.21167,-1.023054 -0.77611,-2.751667 -1.23472,-3.880556 l -0.84667,-2.010834 h 1.65805 c 0.91723,0 2.54,0.246947 3.59834,0.564447 z m -3.95111,47.942502 c 1.48166,4.480277 2.36361,8.39611 2.75166,11.853334 l 0.21167,2.116666 -5.04472,-0.105833 -5.04473,-0.105833 -0.77611,-2.998611 c -0.77611,-3.139723 -1.79916,-5.397502 -3.24555,-7.302502 l -0.84667,-1.164167 1.09361,-1.5875 c 0.59972,-0.881944 1.5875,-2.610554 2.15195,-3.880554 0.91722,-1.940279 1.34055,-2.39889 2.96333,-3.316113 1.02306,-0.59972 2.01083,-1.27 2.15195,-1.516943 0.38805,-0.599723 1.86972,2.71639 3.63361,8.008056 z m -31.04445,-5.926666 c 1.02306,0.529166 1.86972,1.340553 2.43417,2.328333 0.49389,0.811387 1.51694,2.257777 2.25777,3.175 l 1.41112,1.693333 -1.30528,1.446387 c -1.97556,2.187223 -4.40972,8.008057 -4.40972,10.583336 0,0.564444 -0.42334,0.635 -4.97417,0.635 h -5.00944 l 0.24694,-2.469446 c 0.45861,-4.515556 2.68111,-12.417777 4.83306,-17.250833 l 1.02305,-2.2225 0.9525,0.635 c 0.56445,0.352777 1.69333,1.023056 2.54,1.44639 z m 22.43667,1.5875 c -0.67028,2.2225 -4.26861,7.337776 -6.24417,8.819443 l -1.19944,0.917223 v -1.199446 c 0,-0.670277 -0.17639,-1.375833 -0.42334,-1.622777 -0.3175,-0.3175 -0.42333,-0.17639 -0.42333,0.599723 0,1.234721 -1.09361,3.139721 -2.04611,3.668887 -0.59972,0.3175 -0.70556,0.211667 -0.91722,-0.740833 -0.17639,-0.811387 -1.09361,-1.940277 -3.38667,-4.09222 -2.82222,-2.645834 -5.64445,-6.20889 -5.22111,-6.596947 0.0706,-0.07055 0.91722,0.105834 1.86972,0.388057 2.78695,0.881943 10.01889,1.058333 13.58195,0.352777 1.65805,-0.352777 3.21027,-0.776111 3.52777,-0.917221 0.88195,-0.529166 1.12889,-0.388056 0.88195,0.423334 z m -12.3825,9.136943 c 1.02305,1.199444 1.12889,1.72861 0.49389,2.36361 -0.70556,0.705557 -0.14111,0.740834 1.37583,0.07056 0.81139,-0.352777 1.72861,-1.09361 2.04611,-1.658057 0.42333,-0.77611 0.49389,-0.811387 0.35278,-0.211666 -0.35278,1.234723 0.28222,0.987779 2.43417,-0.987777 l 1.97555,-1.799167 0.70556,0.81139 c 1.51694,1.834443 3.84527,7.866943 3.88055,10.089443 0,0.564447 -22.04861,0.635 -22.40139,0.105834 -0.3175,-0.529167 1.12889,-5.432777 2.25778,-7.690557 0.56444,-1.09361 1.55222,-2.54 2.15194,-3.13972 l 1.12889,-1.164167 1.37584,1.058334 c 0.74083,0.59972 1.72861,1.55222 2.2225,2.151943 z"
       id="path30" />
    <path
       style="stroke-width:0.03527778"
       inkscape:connector-curvature="0"
       d="m -226.46986,43.849145 c -0.42333,0.45861 -1.30527,2.36361 -1.97555,4.233333 -1.34056,3.951113 -2.2225,5.150556 -4.19806,5.820833 -3.35139,1.093613 -5.32694,3.880557 -5.32694,7.47889 0.0353,2.99861 0.88194,4.833056 3.06916,6.420556 2.50473,1.834444 5.15056,2.469444 10.16,2.504724 5.64445,0 8.60778,-0.846667 11.07723,-3.280836 2.50472,-2.434167 3.24555,-6.0325 1.83444,-9.066388 -0.81139,-1.799166 -1.69333,-2.575279 -4.37444,-3.880556 -2.50473,-1.199444 -3.52778,-2.504723 -4.33917,-5.43278 -0.77611,-2.892776 -1.5875,-4.621387 -2.39889,-5.185833 -1.09361,-0.77611 -2.61055,-0.59972 -3.52778,0.388057 z m 3.45723,0.211666 c 0.59972,0.45861 1.09361,1.41111 1.44638,2.71639 1.48167,5.362223 2.18723,6.385277 5.25639,7.79639 3.56306,1.622777 5.08,4.09222 4.62139,7.62 -0.52916,4.40972 -3.84528,6.914443 -9.94833,7.62 -3.77472,0.423333 -7.83167,0 -10.72445,-1.058334 -3.35138,-1.27 -5.25638,-3.951112 -5.25638,-7.443612 0,-3.210277 1.79916,-5.609167 5.46805,-7.231944 2.15194,-0.9525 2.8575,-1.975556 4.19806,-6.06778 1.51694,-4.550833 2.82222,-5.609166 4.93889,-3.95111 z"
       id="path32" />
    <path
       style="stroke-width:0.03527778"
       inkscape:connector-curvature="0"
       d="m -230.49152,54.326645 c -1.02306,1.023056 -0.14112,3.4925 1.79916,4.938889 2.43417,1.869723 4.79778,1.940277 7.51417,0.246944 2.15194,-1.305277 3.31611,-4.056944 2.18722,-5.185833 -0.59972,-0.599721 -10.90083,-0.599721 -11.50055,0 z m 11.35944,0.705556 c 0.88195,1.41111 -1.97555,4.691944 -4.51555,5.115277 -2.18723,0.352779 -3.66889,-0.176387 -5.36223,-1.834444 -1.5875,-1.5875 -1.94028,-2.822223 -1.12889,-3.63361 0.3175,-0.3175 1.86973,-0.423333 5.53862,-0.352779 4.30388,0.105833 5.11527,0.211666 5.46805,0.705556 z"
       id="path34" />
    <text
       xml:space="preserve"
       style="font-style:normal;font-weight:normal;font-size:10.58333302px;line-height:1.25;font-family:sans-serif;letter-spacing:0px;word-spacing:0px;fill:#000000;fill-opacity:1;stroke:none;stroke-width:0.26458332"
       x="-237.21909"
       y="49.571445"
       id="text17"><tspan
         sodipodi:role="line"
         id="tspan15"
         x="-237.21909"
         y="49.571445"
         style="stroke-width:0.26458332">l</tspan></text>
    <text
       xml:space="preserve"
       style="font-style:normal;font-weight:normal;font-size:10.58333302px;line-height:1.25;font-family:sans-serif;letter-spacing:0px;word-spacing:0px;fill:#000000;fill-opacity:1;stroke:none;stroke-width:0.26458332"
       x="-214.50548"
       y="49.855473"
       id="text17-9"><tspan
         sodipodi:role="line"
         id="tspan15-8"
         x="-214.50548"
         y="49.855473"
         style="stroke-width:0.26458332">l</tspan></text>
  </g>
</svg>
