<?xml version="1.0" encoding="UTF-8" standalone="no"?>
<!-- Created with Inkscape (http://www.inkscape.org/) -->

<svg
   xmlns:dc="http://purl.org/dc/elements/1.1/"
   xmlns:cc="http://creativecommons.org/ns#"
   xmlns:rdf="http://www.w3.org/1999/02/22-rdf-syntax-ns#"
   xmlns:svg="http://www.w3.org/2000/svg"
   xmlns="http://www.w3.org/2000/svg"
   xmlns:sodipodi="http://sodipodi.sourceforge.net/DTD/sodipodi-0.dtd"
   xmlns:inkscape="http://www.inkscape.org/namespaces/inkscape"
   width="46.672501mm"
   height="93.486115mm"
   viewBox="0 0 46.672501 93.486115"
   version="1.1"
   id="svg245"
   inkscape:version="0.92.4 (5da689c313, 2019-01-14)"
   sodipodi:docname="horse.svg">
  <defs
     id="defs239" />
  <sodipodi:namedview
     id="base"
     pagecolor="#ffffff"
     bordercolor="#666666"
     borderopacity="1.0"
     inkscape:pageopacity="0.0"
     inkscape:pageshadow="2"
     inkscape:zoom="1.4"
     inkscape:cx="336.86948"
     inkscape:cy="187.08205"
     inkscape:document-units="mm"
     inkscape:current-layer="layer1"
     showgrid="false"
     fit-margin-top="0"
     fit-margin-left="0"
     fit-margin-right="0"
     fit-margin-bottom="0"
     inkscape:window-width="1920"
     inkscape:window-height="1017"
     inkscape:window-x="1912"
     inkscape:window-y="-8"
     inkscape:window-maximized="1" />
  <metadata
     id="metadata242">
    <rdf:RDF>
      <cc:Work
         rdf:about="">
        <dc:format>image/svg+xml</dc:format>
        <dc:type
           rdf:resource="http://purl.org/dc/dcmitype/StillImage" />
        <dc:title></dc:title>
      </cc:Work>
    </rdf:RDF>
  </metadata>
  <g
     inkscape:label="Layer 1"
     inkscape:groupmode="layer"
     id="layer1"
     transform="translate(207.78863,12.814485)">
    <path
       style="stroke-width:0.03527778"
       inkscape:connector-curvature="0"
       d="m -203.48474,-11.191709 c -2.57528,6.0325006 -3.45723,15.5575014 -2.04611,22.436668 0.35277,1.763889 0.3175,2.293055 -0.35278,4.445 -2.39889,7.9375 -1.30528,17.63889 2.99861,26.246667 1.30528,2.610556 1.55222,3.421946 1.55222,5.185833 0,1.62278 0.21167,2.504723 1.05833,4.092223 l 1.05834,1.975557 -1.55222,2.892777 c -3.28084,6.138333 -6.27945,15.769169 -6.77334,21.766389 l -0.24694,2.822224 h 22.47194 22.43667 v -1.552224 c 0,-0.846666 -0.17639,-2.36361 -0.35278,-3.386666 -0.28222,-1.446387 -0.21166,-2.504721 0.21167,-4.691944 0.84667,-4.198056 0.52917,-12.594166 -0.67028,-17.356666 -0.98778,-3.915834 -2.78694,-9.172224 -3.84528,-11.218336 l -0.67027,-1.340554 0.91722,-2.25778 c 1.79916,-4.515554 2.43416,-8.043333 2.43416,-13.758333 0.0353,-2.928057 -0.0705,-5.961944 -0.24694,-6.773333 l -0.24694,-1.481667 2.11666,-1.44639 c 1.16417,-0.77611 2.11667,-1.5875 2.11667,-1.76389 0,-0.458609 0,-0.458609 -2.25778,0.52917 -1.09361,0.493887 -2.11667,0.881943 -2.29305,0.881943 -0.635,0 -1.05834,-2.610556 -0.67028,-4.233334 0.52916,-2.2224996 0.49389,-11.67694457 -0.0353,-14.463889 -0.56444,-2.8222223 -2.43417,-8.713611 -2.82222,-8.995834 -0.17639,-0.105833 -0.52917,-0.07056 -0.81139,0.03528 -0.88195,0.388056 -3.88056,4.198056 -5.29167,6.7733337 -0.81139,1.4463889 -1.5875,2.5047223 -1.83444,2.3988889 -0.21167,-0.1058333 -1.41111,-0.599722 -2.68111,-1.1288887 -4.62139,-1.9402779 -10.01889,-0.9877779 -13.0175,2.2930555 l -1.27,1.37583403 -1.905,-3.66888953 c -1.76389,-3.4219446 -5.53862,-8.2550009 -6.42056,-8.2550009 -0.17639,0 -0.67028,0.740834 -1.05833,1.622778 z m 3.31611,1.481667 c 1.86972,2.2225 5.53861,9.17222243 5.53861,10.47750043 0,0.77611097 -1.55222,2.29305597 -2.36361,2.29305597 -0.14111,0 -0.81139,-1.693334 -1.44639,-3.80999997 -0.67028,-2.08138943 -1.69333,-4.90361183 -2.36361,-6.24416743 l -1.12889,-2.4694446 -0.42333,1.0230556 c -0.98778,2.434167 -1.51695,7.76111143 -1.34056,13.2997224 0.14111,4.797779 0.0706,5.6091666 -0.45861,6.3147226 -0.59972,0.776111 -0.59972,0.776111 -0.84667,-0.917222 -0.84666,-6.3852776 -0.52916,-12.2766666 1.05834,-17.709445 0.91722,-3.139722 1.41111,-4.303889 1.83444,-4.268611 0.14111,0 1.02306,0.917222 1.94028,2.010833 z m 31.75,1.0583334 c 1.83444,5.3975002 2.46944,13.581945 1.44639,18.6972226 -0.24695,1.164167 -0.24695,1.164167 -0.77611,0.388056 -0.45861,-0.6349996 -0.52917,-1.7638886 -0.45861,-5.9619446 0.0705,-5.04472197 -0.52917,-10.6891671 -1.44639,-13.0527784 l -0.35278,-0.8819446 -0.56445,1.0583336 c -0.91722,1.728611 -2.71638,6.5263894 -3.38666,9.03111143 l -0.635,2.32833297 -1.37584,-0.740833 c -0.9525,-0.493889 -1.37583,-0.987778 -1.37583,-1.51694397 0,-2.11666703 6.45583,-12.70000143 7.54945,-12.34722343 0.21166,0.07056 0.81138,1.411111 1.37583,2.9986114 z m -30.97389,6.420556 c 1.97555,5.785556 1.97555,5.3975 -0.45861,7.902222 -1.12889,1.164167 -2.32834,2.540001 -2.64584,2.998612 -0.52916,0.811389 -0.52916,0.776111 -0.81138,-1.234723 -0.28223,-2.434166 0.0353,-10.2658334 0.56444,-12.4883334 0.84667,-3.7394447 0.67028,-3.527778 1.51694,-1.940278 0.38806,0.7761113 1.23473,2.9280556 1.83445,4.7625004 z m 30.02139,-3.4572224 c 0.59972,2.6105556 1.05833,10.9008334 0.70555,12.7000004 l -0.21166,1.234722 -2.64584,-2.645833 -2.64583,-2.645834 0.70556,-2.50472197 c 0.38805,-1.411111 1.12889,-3.56305553 1.62277,-4.83305583 0.49389,-1.2347223 1.05834,-2.6458333 1.23473,-3.1044446 0.45861,-1.128889 0.67027,-0.8113887 1.23472,1.799167 z m -12.17083,1.1994443 c 1.05833,0.3175 2.46944,0.8819446 3.21027,1.27 l 1.27,0.7408341 -0.635,1.83444403 c -0.9525,2.75166697 -1.51694,6.80861097 -1.37583,9.77194497 0.17639,3.0691666 1.23472,5.0800006 3.13972,5.9972236 1.02306,0.493887 1.09361,0.564443 0.42334,0.77611 -0.84667,0.282223 -4.97417,-0.3175 -6.24417,-0.917223 -0.91722,-0.423334 -1.44639,-0.211667 -1.05833,0.388056 0.10583,0.211667 0.9525,0.81139 1.86972,1.340557 2.29305,1.340553 6.84389,1.55222 10.86555,0.529166 4.62139,-1.234723 4.69195,-1.199446 1.37584,0.458611 -10.26584,5.08 -20.17889,3.457223 -24.05945,-3.951111 -1.51694,-2.857501 -2.01083,-5.2916676 -1.79917,-8.8900016 0.28223,-5.00944397 2.25778,-7.8316665 6.45584,-9.2780554 2.2225,-0.7761113 4.09222,-0.7761113 6.56167,-0.070556 z m 5.36222,7.4083341 c 3.28083,1.693333 6.31472,4.974167 8.18444,8.8194446 1.83445,3.704168 1.79917,3.774721 -1.86972,4.656668 -3.175,0.77611 -7.72583,0.987777 -9.06639,0.423333 -0.45861,-0.17639 0.35278,-0.282223 2.32833,-0.282223 2.78695,-0.03528 4.62139,-0.246944 5.3975,-0.705557 0.21167,-0.105833 -0.67027,-0.388053 -1.86972,-0.635 -2.89278,-0.59972 -3.81,-1.23472 -4.69194,-3.245555 -0.635,-1.411111 -0.70556,-2.1166666 -0.52917,-5.2211106 0.14111,-3.316112 0.35278,-4.374445 0.81139,-4.374445 0.10583,0 0.67028,0.246945 1.30528,0.564445 z m -18.94417,3.774722 c 0.0353,2.8575 0.17639,4.0216666 0.81139,5.6444446 3.10444,7.937499 11.95917,11.006666 22.04861,7.619999 1.76389,-0.59972 3.88056,-1.446387 4.69195,-1.905 1.27,-0.705553 1.51694,-0.740833 1.69333,-0.246943 0.24694,0.635 0.45861,0.529167 -2.25778,1.305277 -6.0325,1.76389 -10.795,7.090833 -12.27667,13.617223 -0.52916,2.469446 -0.52916,2.504723 0.35278,4.30389 1.34056,2.786943 2.08139,5.291666 1.94028,6.80861 -0.21167,2.54 -3.21028,3.598333 -9.27806,3.245556 -3.13972,-0.211666 -4.7625,-0.846666 -5.67972,-2.2225 -0.49389,-0.740833 -0.49389,-1.128889 -0.14111,-2.716389 0.24694,-1.023054 0.98778,-3.033888 1.69333,-4.445 l 1.23473,-2.610554 -0.42334,-3.66889 c -1.16416,-10.19528 -5.11528,-14.605 -12.98222,-14.605 -1.72861,0 -1.905,-0.07056 -1.69333,-0.635 0.14111,-0.3175 0.35277,-0.98778 0.52916,-1.481667 0.98778,-3.280834 4.51556,-8.2197236 7.33778,-10.2305566 1.05833,-0.776111 2.04611,-1.411111 2.15195,-1.411111 0.10583,0 0.21166,1.622778 0.24694,3.633611 z m -3.45722,11.3947236 c 4.23333,1.763887 6.63222,6.067777 7.47889,13.47611 0.38805,3.386667 0.38805,3.633613 -0.35278,4.903613 -0.70556,1.305277 -0.88195,1.375833 -3.21028,1.763887 -2.96333,0.458613 -4.69194,1.62278 -5.67972,3.915834 l -0.70556,1.5875 -0.84666,-1.375834 c -2.39889,-3.915833 -4.05695,-10.089443 -4.26861,-15.910277 -0.24695,-6.0325 0.0353,-8.501946 1.05833,-8.960556 1.02305,-0.423333 4.93889,-0.07056 6.52639,0.599723 z m 33.02,1.622777 c 0.3175,1.305277 0.24694,8.008056 -0.14111,10.512777 -0.74084,4.480279 -4.19806,14.040556 -4.93889,13.581946 -0.14111,-0.105833 -0.35278,-0.635 -0.45861,-1.199444 -0.35278,-1.693333 -2.18722,-3.4925 -4.23334,-4.092223 -0.98777,-0.282223 -2.2225,-0.529166 -2.78694,-0.529166 -0.77611,0 -1.12889,-0.282223 -1.65806,-1.340557 -0.67027,-1.27 -0.67027,-1.516943 -0.21166,-3.739443 0.91722,-4.374447 3.98639,-8.960557 7.54944,-11.324167 1.34056,-0.917223 5.36222,-2.57528 6.24417,-2.610556 0.24694,-0.03528 0.49389,0.3175 0.635,0.740833 z m -27.12861,19.22639 c -0.14111,0.352777 -0.52917,1.622777 -0.81139,2.8575 -0.49389,1.975556 -0.52917,2.36361 -0.0353,3.175 0.98778,1.834443 2.78694,2.36361 8.07861,2.36361 5.29167,0 6.73806,-0.45861 7.69056,-2.398887 0.45861,-0.917223 0.21166,-2.54 -0.84667,-6.0325 -0.21167,-0.599723 -0.0705,-0.635 1.48167,-0.388057 4.09222,0.599723 5.75027,2.575277 6.06777,7.16139 0.21167,3.210277 -0.45861,5.150557 -2.54,7.231944 -4.90361,4.868333 -14.21694,5.997223 -21.06083,2.54 -4.16278,-2.116667 -6.06778,-4.974167 -6.0325,-9.06639 0.0706,-5.044721 2.61056,-7.796387 7.44361,-8.008054 0.635,-0.03528 0.77611,0.105833 0.56445,0.564444 z m 25.7175,6.702777 c 2.2225,5.715002 3.38667,10.936112 3.63361,16.016112 0.21167,4.7625 -0.10583,9.8425 -0.635,9.8425 -0.17639,0 -0.3175,-0.28222 -0.3175,-0.635 0,-0.3175 -0.3175,-1.622776 -0.74083,-2.892776 -0.45862,-1.516947 -0.70556,-3.175 -0.67028,-4.93889 0.0353,-2.928057 -0.70556,-7.267223 -1.76389,-10.548057 -1.05833,-3.210277 -1.41111,-4.021666 -1.62278,-3.845277 -0.0705,0.105834 0.24695,1.27 0.74083,2.575277 1.16417,3.139723 2.36362,9.031113 2.2225,11.077223 l -0.10583,1.622777 -1.30528,-3.175 c -0.74083,-1.763887 -2.01083,-4.374443 -2.8575,-5.85611 l -1.51694,-2.68111 0.70555,-1.340557 c 0.38806,-0.77611 0.77612,-2.434166 0.88195,-3.845279 0.21167,-2.2225 1.16417,-4.797777 1.79917,-4.797777 0.10583,0 0.81138,1.552223 1.55222,3.421944 z m -3.35139,11.006669 c 3.31611,6.455833 5.99722,14.957777 6.56167,20.77861 l 0.28222,2.54 h -5.00945 c -3.70416,0 -5.04472,-0.105833 -5.11527,-0.45861 -0.0706,-0.211667 -0.38806,-1.552223 -0.70556,-2.892777 -3.03389,-13.158613 -15.02833,-15.698613 -20.56695,-4.339167 -0.59972,1.199444 -1.34055,3.457221 -1.69333,4.938887 l -0.59972,2.751667 h -4.93889 -4.97417 l 0.24695,-2.2225 c 0.67028,-6.067777 2.82222,-13.15861 5.89139,-19.579167 1.97555,-4.092223 2.46944,-4.7625 2.96333,-3.95111 0.42333,0.705554 4.65667,2.786944 6.73806,3.31611 2.71639,0.705557 8.14916,0.740834 10.61861,0.07056 2.46944,-0.67028 4.65666,-1.728613 6.52639,-3.21028 0.84666,-0.670277 1.62277,-1.23472 1.76389,-1.23472 0.10583,0 1.02305,1.5875 2.01083,3.4925 z m -11.32417,9.771943 c 2.25778,1.12889 4.02167,3.104447 5.53861,6.314724 1.05834,2.2225 1.94028,5.291666 1.94028,6.702776 0,0.458613 -1.62278,0.529167 -11.1125,0.529167 h -11.1125 v -0.91722 c 0,-1.44639 1.02306,-5.044723 2.01083,-6.949723 1.12889,-2.293057 3.66889,-4.93889 5.50334,-5.856113 2.11666,-1.058334 4.90361,-0.987777 7.23194,0.176389 z"
       id="path28" />
    <text
       xml:space="preserve"
       style="font-style:normal;font-weight:normal;font-size:10.58333302px;line-height:1.25;font-family:sans-serif;letter-spacing:0px;word-spacing:0px;fill:#000000;fill-opacity:1;stroke:none;stroke-width:0.26458332"
       x="-198.10794"
       y="34.468197"
       id="text17"><tspan
         sodipodi:role="line"
         id="tspan15"
         x="-198.10794"
         y="34.468197"
         style="stroke-width:0.26458332">l</tspan></text>
    <text
       xml:space="preserve"
       style="font-style:normal;font-weight:normal;font-size:10.58333302px;line-height:1.25;font-family:sans-serif;letter-spacing:0px;word-spacing:0px;fill:#000000;fill-opacity:1;stroke:none;stroke-width:0.26458332"
       x="-175.39435"
       y="34.752224"
       id="text17-9"><tspan
         sodipodi:role="line"
         id="tspan15-8"
         x="-175.39435"
         y="34.752224"
         style="stroke-width:0.26458332">l</tspan></text>
  </g>
</svg>
