<?xml version="1.0" encoding="UTF-8" standalone="no"?>
<!-- Created with Inkscape (http://www.inkscape.org/) -->

<svg
   xmlns:dc="http://purl.org/dc/elements/1.1/"
   xmlns:cc="http://creativecommons.org/ns#"
   xmlns:rdf="http://www.w3.org/1999/02/22-rdf-syntax-ns#"
   xmlns:svg="http://www.w3.org/2000/svg"
   xmlns="http://www.w3.org/2000/svg"
   xmlns:sodipodi="http://sodipodi.sourceforge.net/DTD/sodipodi-0.dtd"
   xmlns:inkscape="http://www.inkscape.org/namespaces/inkscape"
   width="64.265167mm"
   height="81.850235mm"
   viewBox="0 0 64.265167 81.850235"
   version="1.1"
   id="svg299"
   inkscape:version="0.92.4 (5da689c313, 2019-01-14)"
   sodipodi:docname="monkey.svg">
  <defs
     id="defs293" />
  <sodipodi:namedview
     id="base"
     pagecolor="#ffffff"
     bordercolor="#666666"
     borderopacity="1.0"
     inkscape:pageopacity="0.0"
     inkscape:pageshadow="2"
     inkscape:zoom="1.979899"
     inkscape:cx="207.2468"
     inkscape:cy="175.25448"
     inkscape:document-units="mm"
     inkscape:current-layer="layer1"
     showgrid="false"
     fit-margin-top="0"
     fit-margin-left="0"
     fit-margin-right="0"
     fit-margin-bottom="0"
     inkscape:window-width="1920"
     inkscape:window-height="1017"
     inkscape:window-x="1912"
     inkscape:window-y="-8"
     inkscape:window-maximized="1" />
  <metadata
     id="metadata296">
    <rdf:RDF>
      <cc:Work
         rdf:about="">
        <dc:format>image/svg+xml</dc:format>
        <dc:type
           rdf:resource="http://purl.org/dc/dcmitype/StillImage" />
        <dc:title></dc:title>
      </cc:Work>
    </rdf:RDF>
  </metadata>
  <g
     inkscape:label="Layer 1"
     inkscape:groupmode="layer"
     id="layer1"
     transform="translate(-73.700751,-107.90821)">
    <path
       style="stroke-width:0.03527778"
       inkscape:connector-curvature="0"
       d="m 107.6027,108.83123 c -5.96195,1.62278 -11.923892,4.90361 -16.08667,8.81944 -3.069167,2.92806 -5.009445,5.96195 -6.420556,10.12473 -0.987778,2.8575 -1.128889,3.81 -1.27,8.255 l -0.141112,5.00944 -0.881944,-0.35278 c -1.446389,-0.52916 -4.409723,-0.38805 -5.750278,0.35278 -0.670278,0.35278 -1.693334,1.41111 -2.293056,2.32834 -0.917222,1.51694 -1.058333,2.01083 -1.058333,4.37444 0,2.29306 0.141111,2.92806 0.9525,4.33917 2.046111,3.42194 5.609167,5.57389 9.348612,5.57389 1.27,0 1.5875,0.14111 2.010833,0.98777 0.705556,1.34056 3.351389,3.73945 5.150556,4.65667 0.811389,0.42333 1.411111,0.84667 1.340555,0.98778 -0.07056,0.14111 -0.917222,1.905 -1.940277,3.95111 -2.998612,6.10305 -5.115278,13.08805 -5.891389,19.64972 l -0.246945,1.86972 h 21.025554 21.02556 l -0.21167,-1.69333 c -1.02305,-7.26722 -3.06916,-14.04056 -6.0325,-19.93194 -1.05833,-2.11667 -1.86972,-3.91584 -1.83444,-3.95112 0.0706,-0.0353 0.91722,-0.42333 1.86972,-0.88194 2.01083,-0.98778 4.58611,-3.21028 5.32694,-4.65667 0.45862,-0.88194 0.70556,-0.98777 2.18723,-0.98777 3.59833,0 7.16139,-2.15195 9.17222,-5.57389 1.27,-2.2225 1.37583,-6.13834 0.14111,-8.43139 -1.23472,-2.32834 -2.61056,-3.10445 -5.53861,-3.10445 -1.34056,0 -2.78695,0.10584 -3.175,0.24695 -0.67028,0.24694 -0.70556,0.10583 -0.74083,-4.40972 -0.0706,-5.32695 -0.81139,-8.81945 -2.68112,-12.5589 -2.01083,-3.95111 -5.53861,-7.16138 -9.525,-8.67833 -1.51694,-0.56444 -1.62277,-0.67028 -1.27,-1.37583 0.70556,-1.41111 1.79917,-2.32834 2.78695,-2.32834 1.19944,0 1.55222,0.45862 0.98778,1.34056 -0.45862,0.70556 -0.21167,1.83444 0.35277,1.83444 0.17639,0 0.81139,-0.42333 1.41112,-0.91722 2.01083,-1.69333 1.27,-4.37444 -1.48167,-5.3975 -1.79917,-0.70555 -7.19667,-0.42333 -10.61861,0.52917 z m 11.28889,0.67028 c 1.41111,1.05833 1.65805,2.04611 0.81139,3.13972 -0.38806,0.49389 -0.91723,0.91722 -1.12889,0.91722 -0.28223,0 -0.24695,-0.14111 0.0353,-0.42333 0.56444,-0.56445 0.52916,-1.16417 -0.14111,-1.83445 -1.23473,-1.27 -3.77473,-0.24694 -4.90362,1.905 -0.81138,1.55223 -0.67027,1.94028 0.98778,2.36361 0.81139,0.24695 2.43417,1.02306 3.59834,1.79917 5.82083,3.73945 8.71361,10.16 8.78416,19.33223 l 0.0353,4.58611 -1.5875,1.79916 -1.5875,1.76389 -0.21166,-5.50333 c -0.1764,-4.51556 -0.35279,-5.85611 -0.98779,-7.51417 -2.50472,-6.45583 -6.94972,-8.71361 -12.91166,-6.59694 -3.175,1.16416 -6.59695,1.27 -8.96056,0.3175 -2.257778,-0.88195 -5.362222,-0.98778 -7.161389,-0.24695 -1.693334,0.70556 -3.739445,2.57528 -4.550834,4.23334 -1.481666,2.89277 -2.151944,8.99583 -1.411111,13.37027 0.141111,0.9525 0.246945,1.69334 0.211667,1.69334 -0.03528,0 -0.846667,-0.74084 -1.763889,-1.69334 l -1.693333,-1.65805 v -3.88056 c 0.03528,-4.7625 0.987777,-9.10167 2.8575,-12.87639 1.622777,-3.35139 6.103055,-7.9375 10.018889,-10.37166 3.13972,-1.94028 7.86694,-3.95112 11.39472,-4.86834 3.4925,-0.88194 8.92528,-0.74083 10.26584,0.24695 z m -1.72862,16.43944 c 4.65667,2.25778 6.87917,10.40695 5.43278,19.96723 -0.28222,1.83444 -0.28222,1.86972 1.23473,3.42194 3.03388,3.21028 2.68111,8.04333 -0.88195,11.25361 -3.56305,3.21028 -8.53722,4.48028 -17.60361,4.48028 -8.396112,0 -13.581946,-1.44639 -16.933335,-4.69195 -1.481667,-1.44638 -2.892778,-4.37444 -2.892778,-5.99722 0,-1.76389 0.846667,-3.66889 2.257778,-5.04472 l 1.446389,-1.48167 -0.493889,-2.2225 c -0.282222,-1.34055 -0.493889,-4.26861 -0.493889,-7.19666 -0.03528,-4.33917 0.07056,-5.18584 0.776111,-6.985 2.010834,-5.11528 6.385278,-7.12612 11.324163,-5.18584 2.46945,0.9525 5.82084,0.91722 8.99584,-0.17639 3.175,-1.05833 5.82083,-1.09361 7.83166,-0.14111 z m -33.725552,15.875 c 1.411111,0.70556 3.527778,2.89278 4.374445,4.58611 0.529166,0.98778 0.529166,1.16417 0.07055,1.62278 -0.458611,0.45861 -0.705555,0.35278 -2.010833,-1.05833 -3.915834,-4.26861 -8.501945,-3.98639 -9.348612,0.56444 -0.3175,1.62278 0.811389,4.05695 2.398889,5.25639 1.446389,1.09361 3.527778,2.04611 4.409723,2.04611 1.27,0 1.834444,0.38806 1.834444,1.27 0,0.77611 -0.141111,0.84667 -1.658055,0.84667 -4.445001,-0.0353 -8.713612,-4.05694 -9.172223,-8.64306 -0.176389,-1.51694 -0.03528,-2.2225 0.705555,-3.81 1.5875,-3.4925 4.727223,-4.51555 8.396112,-2.68111 z m 51.435002,0.21167 c 2.18722,1.65806 3.10445,5.85611 1.86972,8.64306 -0.91722,2.08138 -2.99861,4.37444 -4.79778,5.29166 -0.77611,0.38806 -2.32833,0.81139 -3.45722,0.88195 -2.01083,0.21166 -2.04611,0.17639 -2.04611,-0.70556 0,-0.81139 0.21167,-0.9525 1.94028,-1.30528 4.05694,-0.84666 7.16139,-4.16277 6.70278,-7.16139 -0.70556,-4.65666 -5.3975,-5.00944 -9.34861,-0.70555 -1.30528,1.41111 -1.55223,1.51694 -2.01084,1.05833 -0.45861,-0.45861 -0.45861,-0.635 0.0706,-1.62278 0.81139,-1.5875 2.92806,-3.84527 4.19806,-4.51555 2.32833,-1.23472 5.11528,-1.16417 6.87917,0.14111 z m -52.352224,2.89278 c 0.776111,0.35278 2.116667,1.37583 2.963333,2.25778 l 1.552223,1.5875 -0.776111,1.09361 c -0.423334,0.59972 -0.9525,1.86972 -1.199445,2.8575 -0.388055,1.5875 -0.493889,1.76389 -1.411111,1.76389 -1.128889,0 -3.563056,-1.12889 -4.762501,-2.25778 -2.504722,-2.25778 -2.469444,-6.59695 0.07056,-7.62 1.164167,-0.45861 2.010834,-0.38806 3.563056,0.3175 z m 51.258614,0.56444 c 1.09361,1.27 1.05833,3.84528 -0.0353,5.50334 -1.02305,1.51694 -3.66889,3.13972 -5.46805,3.38666 -1.44639,0.17639 -1.44639,0.17639 -1.65806,-1.16416 -0.14111,-0.77612 -0.635,-2.08139 -1.09361,-2.92806 l -0.88195,-1.5875 1.51695,-1.55222 c 2.8575,-2.96334 5.89139,-3.59834 7.62,-1.65806 z m -38.13528,19.40278 c 4.86833,1.27 15.02833,1.30528 19.79083,0.0353 l 1.86973,-0.49389 0.91722,1.44639 c 3.06917,4.83306 6.20889,14.11111 7.09083,20.955 l 0.3175,2.2225 h -4.1275 -4.1275 l -0.24694,-1.94028 c -0.70556,-5.96194 -4.48028,-12.02972 -8.53723,-13.75833 -1.65805,-0.70556 -4.7625,-0.52917 -6.49111,0.35277 -3.739441,1.94028 -6.491108,6.91445 -7.972775,14.53445 -0.141111,0.77611 -0.282222,0.81139 -4.515556,0.81139 h -4.374444 l 0.176389,-1.51695 c 0.352778,-3.13972 1.975555,-9.73666 3.175,-12.94694 1.058333,-2.8575 4.586111,-10.23056 4.903611,-10.23056 0.07056,0 1.023056,0.24695 2.151945,0.52917 z m 12.17083,8.64306 c 4.05695,1.12888 8.11389,7.33777 8.96056,13.6525 l 0.24694,1.86972 H 105.6977 94.408808 l 0.458611,-2.39889 c 1.234722,-6.17361 3.986389,-10.72445 7.655281,-12.55889 1.97555,-0.98778 3.24555,-1.12889 5.29166,-0.56444 z"
       id="path46" />
    <path
       style="stroke-width:0.03527778"
       inkscape:connector-curvature="0"
       d="m 117.26881,143.3329 v 3.81 l -0.9525,-0.24695 c -1.86972,-0.45861 -15.73389,-0.635 -18.415002,-0.21166 -7.16139,1.12889 -10.371667,3.77472 -10.371667,8.5725 0,1.72861 0.176388,2.32833 1.023055,3.52777 1.27,1.79917 3.774723,3.21028 7.408334,4.23334 3.81,1.02305 14.74611,1.16416 18.83833,0.17639 3.42195,-0.77611 6.56167,-2.29306 8.00806,-3.81 1.905,-2.04611 2.18722,-5.46806 0.67028,-8.36084 -0.635,-1.27 -3.21028,-3.06916 -4.79778,-3.42194 l -0.98778,-0.21167 -0.0353,-3.77472 c -0.0353,-2.04611 -0.14111,-3.81 -0.21166,-3.91583 -0.10584,-0.0706 -0.17639,1.55222 -0.17639,3.63361 z m -2.96334,3.77472 c 6.73806,0.91722 9.66612,3.28083 9.66612,7.76111 0,4.05695 -2.68111,6.35 -9.17223,7.90222 -5.53861,1.30528 -15.134163,1.02306 -20.10833,-0.59972 -4.762501,-1.55222 -6.702778,-3.59833 -6.702778,-7.09083 0,-4.7625 2.928055,-6.87917 11.288889,-8.14917 2.046109,-0.28222 12.488329,-0.17639 15.028329,0.17639 z"
       id="path48" />
    <path
       style="stroke-width:0.03527778"
       inkscape:connector-curvature="0"
       d="m 101.39381,147.70734 c -1.09361,0.17639 -2.116669,1.05834 -2.116669,1.79917 0,0.81139 1.446389,3.03389 2.469449,3.81 2.43416,1.83444 5.11527,1.905 7.51416,0.21167 2.57528,-1.83445 3.4925,-4.83306 1.76389,-5.57389 -0.67028,-0.3175 -8.11389,-0.49389 -9.63083,-0.24695 z m 9.66611,0.98778 c 0.74083,0.74083 0.70555,1.23472 -0.24695,2.64583 -0.98777,1.48167 -2.78694,2.71639 -4.37444,2.99861 -3.21028,0.59973 -8.078611,-3.81 -6.27945,-5.64444 0.84667,-0.81139 10.08945,-0.84667 10.90084,0 z"
       id="path50" />
    <text
       xml:space="preserve"
       style="font-style:normal;font-weight:normal;font-size:10.58333302px;line-height:1.25;font-family:sans-serif;letter-spacing:0px;word-spacing:0px;fill:#000000;fill-opacity:1;stroke:none;stroke-width:0.26458332"
       x="93.498726"
       y="146.99834"
       id="text17"><tspan
         sodipodi:role="line"
         id="tspan15"
         x="93.498726"
         y="146.99834"
         style="stroke-width:0.26458332">l</tspan></text>
    <text
       xml:space="preserve"
       style="font-style:normal;font-weight:normal;font-size:10.58333302px;line-height:1.25;font-family:sans-serif;letter-spacing:0px;word-spacing:0px;fill:#000000;fill-opacity:1;stroke:none;stroke-width:0.26458332"
       x="116.21233"
       y="147.28235"
       id="text17-9"><tspan
         sodipodi:role="line"
         id="tspan15-8"
         x="116.21233"
         y="147.28235"
         style="stroke-width:0.26458332">l</tspan></text>
  </g>
</svg>
