<?xml version="1.0" encoding="UTF-8" standalone="no"?>
<!-- Created with Inkscape (http://www.inkscape.org/) -->

<svg
   xmlns:dc="http://purl.org/dc/elements/1.1/"
   xmlns:cc="http://creativecommons.org/ns#"
   xmlns:rdf="http://www.w3.org/1999/02/22-rdf-syntax-ns#"
   xmlns:svg="http://www.w3.org/2000/svg"
   xmlns="http://www.w3.org/2000/svg"
   xmlns:sodipodi="http://sodipodi.sourceforge.net/DTD/sodipodi-0.dtd"
   xmlns:inkscape="http://www.inkscape.org/namespaces/inkscape"
   width="74.238571mm"
   height="70.497528mm"
   viewBox="0 0 74.238571 70.497528"
   version="1.1"
   id="svg379"
   inkscape:version="0.92.4 (5da689c313, 2019-01-14)"
   sodipodi:docname="pig.svg">
  <defs
     id="defs373" />
  <sodipodi:namedview
     id="base"
     pagecolor="#ffffff"
     bordercolor="#666666"
     borderopacity="1.0"
     inkscape:pageopacity="0.0"
     inkscape:pageshadow="2"
     inkscape:zoom="1.979899"
     inkscape:cx="342.45979"
     inkscape:cy="53.465241"
     inkscape:document-units="mm"
     inkscape:current-layer="layer1"
     showgrid="false"
     fit-margin-top="0"
     fit-margin-left="0"
     fit-margin-right="0"
     fit-margin-bottom="0"
     inkscape:window-width="1920"
     inkscape:window-height="1017"
     inkscape:window-x="1912"
     inkscape:window-y="-8"
     inkscape:window-maximized="1" />
  <metadata
     id="metadata376">
    <rdf:RDF>
      <cc:Work
         rdf:about="">
        <dc:format>image/svg+xml</dc:format>
        <dc:type
           rdf:resource="http://purl.org/dc/dcmitype/StillImage" />
        <dc:title></dc:title>
      </cc:Work>
    </rdf:RDF>
  </metadata>
  <g
     inkscape:label="Layer 1"
     inkscape:groupmode="layer"
     id="layer1"
     transform="translate(302.45857,-91.661952)">
    <path
       style="stroke-width:0.03527778"
       inkscape:connector-curvature="0"
       d="m -301.33062,92.062529 c -1.16417,1.411111 -1.55223,10.018891 -0.56445,13.758331 1.27,4.90361 3.98639,8.53722 7.23195,9.59556 2.08139,0.70555 3.95111,0.49389 6.42055,-0.74084 0.91723,-0.49388 1.65806,-0.77611 1.65806,-0.67027 0,0.0706 -0.67028,1.79916 -1.48167,3.77472 -3.06917,7.58472 -2.08139,12.87639 3.4925,18.66194 l 2.2225,2.32834 -1.19944,2.61055 c -2.29306,5.00945 -4.445,12.91167 -5.00945,18.45028 l -0.24694,2.32834 h 23.1775 23.1775 l -0.21167,-2.04612 c -0.67027,-5.78555 -2.57527,-12.91166 -4.97416,-18.48555 l -1.19945,-2.82222 2.43417,-2.57528 c 5.25639,-5.53861 6.45583,-11.35945 3.73944,-17.85056 -0.52916,-1.23472 -1.16416,-2.82222 -1.41111,-3.52778 l -0.45861,-1.30527 2.11667,1.09361 c 5.92666,3.06916 11.00666,-0.10584 13.54667,-8.39611 0.81138,-2.64584 0.88194,-10.830282 0.10583,-13.052783 -0.59972,-1.763888 -1.41111,-1.940277 -4.05695,-0.846666 -1.83444,0.776111 -2.11666,0.776111 -5.53861,0.423333 -5.43278,-0.599722 -9.13694,0.211667 -12.73528,2.716389 l -2.01083,1.411111 -1.37583,-0.705555 c -2.75167,-1.411111 -5.53861,-1.905 -10.75973,-1.905 -5.22111,0 -7.97277,0.493889 -10.795,1.905 l -1.44638,0.740833 -1.19945,-0.917222 c -3.66889,-2.822223 -8.21972,-3.915834 -13.54667,-3.280834 -3.03389,0.352778 -3.63361,0.3175 -5.15055,-0.211666 -2.61056,-0.9525 -3.4925,-1.023056 -3.95111,-0.458611 z m 3.28083,0.987777 c 1.51694,0.670278 2.04611,0.705556 5.08,0.493889 1.86972,-0.141111 4.16278,-0.246944 5.08,-0.211666 2.46945,0.105833 5.715,1.199444 7.86695,2.681111 l 1.86972,1.305278 -1.62278,1.869722 -1.65806,1.86972 -1.37583,-1.23472 c -2.29305,-2.046111 -3.42194,-2.363611 -8.36083,-2.398889 -4.7625,-0.03528 -5.25639,-0.176389 -6.84389,-1.975556 l -1.02306,-1.128889 -0.70555,0.846667 c -0.59973,0.776111 -0.67028,1.27 -0.49389,5.256387 0.17639,4.90361 0.81139,7.3025 2.68111,10.01889 1.69333,2.43417 3.10444,3.13972 5.99722,2.96333 1.97556,-0.10583 2.75167,-0.35277 4.23334,-1.23472 1.905,-1.19944 2.39888,-0.98778 0.88194,0.42334 -2.43417,2.25777 -6.45583,3.10444 -8.85472,1.83444 -2.71639,-1.44639 -4.7625,-4.58611 -5.92667,-9.06639 -0.70556,-2.71639 -0.635,-10.900832 0.10583,-12.276666 0.56445,-0.9525 0.9525,-0.987778 3.06917,-0.03528 z m 68.72111,0.493889 c 0.17639,0.564445 0.3175,3.210278 0.35278,5.820834 0.0705,4.374441 0,4.974171 -0.91722,7.655281 -0.56445,1.5875 -1.44639,3.4925 -2.01083,4.26861 -1.97556,2.75166 -4.86834,4.19805 -7.37306,3.77472 -2.08139,-0.35278 -5.57389,-2.54 -5.99722,-3.81 -0.38806,-1.02306 -0.38806,-1.02306 0.42333,-0.45861 2.99861,2.15194 3.91583,2.50472 6.49111,2.50472 2.46945,0 2.57528,-0.0353 3.95111,-1.37583 1.55223,-1.51695 2.68111,-3.63361 3.42195,-6.31472 1.05833,-4.05695 1.02305,-9.525005 -0.10584,-10.653894 -0.49388,-0.493888 -0.70555,-0.423333 -2.08138,0.881945 -1.72862,1.5875 -1.37584,1.516944 -6.84389,1.552222 -4.37445,0.03528 -5.57389,0.423333 -8.07862,2.54 l -1.09361,0.917227 -0.81139,-0.987782 c -0.42333,-0.564445 -1.12888,-1.375834 -1.5875,-1.799167 l -0.81138,-0.740833 1.16416,-0.917223 c 3.42195,-2.575278 7.33778,-3.457222 13.12334,-2.892778 3.45722,0.3175 3.84527,0.282223 5.3975,-0.388055 2.2225,-0.987778 2.96333,-0.881945 3.38666,0.423333 z m -28.50444,2.116667 c 4.05694,1.093611 6.84389,3.316111 8.60778,6.808608 0.56444,1.09361 1.79916,4.48028 2.78694,7.51417 0.98778,3.03389 2.25778,6.6675 2.8575,8.07861 0.59972,1.37583 1.27,3.4925 1.48167,4.69195 1.83444,9.87777 -10.54806,21.06083 -23.31862,21.06083 -9.10166,0 -18.62666,-5.53861 -22.29555,-12.94695 -1.09361,-2.2225 -1.16417,-2.61055 -1.16417,-5.92666 0,-3.38667 0.0706,-3.66889 1.55223,-7.05556 0.84666,-1.94028 2.2225,-5.57389 3.06916,-8.04333 1.97556,-5.67972 3.31611,-8.36083 5.25639,-10.442223 3.175,-3.386667 7.62,-4.727223 14.81667,-4.445001 2.32833,0.07056 5.18583,0.388056 6.35,0.705556 z m -40.74584,-0.211667 c 0,0.211667 0.59973,0.811389 1.30528,1.340556 1.23472,0.9525 1.41111,0.987778 5.715,1.023055 4.90361,0 6.42056,0.458612 8.81945,2.504724 l 1.19944,1.02305 -0.77611,1.44639 c -0.38806,0.81139 -1.19944,2.75167 -1.76389,4.33917 -1.16417,3.10444 -1.76389,3.84528 -4.445,5.11528 -6.0325,2.96333 -10.86556,-1.76389 -11.35944,-11.14778 -0.24695,-3.915834 0.0353,-5.961945 0.77611,-5.961945 0.28222,0 0.52916,0.141111 0.52916,0.3175 z m 67.59223,0.458611 c 0.45861,1.446389 0.28222,6.420554 -0.35278,9.172224 -0.42333,1.905 -1.02306,3.35139 -2.01083,4.83305 -2.29306,3.42195 -4.86834,4.05695 -8.64306,2.15195 -2.68111,-1.34056 -3.77472,-2.50472 -4.55083,-4.93889 -0.35278,-1.05833 -1.02306,-2.78694 -1.48167,-3.84528 l -0.81139,-1.905 0.9525,-1.02305 c 0.52917,-0.52917 1.65806,-1.340559 2.54,-1.763892 1.41111,-0.705556 2.11667,-0.811389 5.50334,-0.740834 4.445,0.07056 5.64444,-0.211666 7.05555,-1.658055 1.19945,-1.27 1.44639,-1.305278 1.79917,-0.282223 z m -49.70639,43.850284 c 0.38805,0.28222 1.97555,1.12888 3.52778,1.905 8.57249,4.26861 17.60361,3.73944 26.14083,-1.55223 l 1.51694,-0.91722 1.05834,2.36361 c 2.18722,4.79778 4.05694,11.57111 5.08,18.37973 l 0.24694,1.51694 h -5.32694 -5.32695 l -0.21166,-0.98778 c -0.56445,-2.71639 -1.69334,-6.06778 -2.50473,-7.44361 -3.98639,-6.84389 -10.58333,-8.32556 -15.45166,-3.42194 -2.64584,2.64583 -5.11528,7.90222 -5.11528,10.86555 v 0.98778 h -5.46806 c -5.11527,0 -5.46805,-0.0353 -5.46805,-0.67028 0,-1.34055 1.09361,-7.02028 1.97555,-10.08944 1.02306,-3.66889 3.95111,-11.46528 4.33917,-11.46528 0.10583,0 0.56444,0.24694 0.98778,0.52917 z m 17.39194,7.79638 c 3.56306,1.05834 6.94972,5.25639 8.29028,10.37167 0.28222,1.05834 0.52917,2.29306 0.52917,2.71639 v 0.81139 h -11.1125 c -12.66473,0 -11.53584,0.35278 -10.58334,-3.35139 1.37584,-5.15055 4.72722,-9.48972 8.21972,-10.54806 2.15195,-0.67027 2.43417,-0.67027 4.65667,0 z"
       id="path56" />
    <path
       style="stroke-width:0.03527778"
       inkscape:connector-curvature="0"
       d="m -268.16951,122.33086 c -1.02306,0.17639 -2.32834,0.56445 -2.8575,0.84667 -1.05834,0.52917 -2.8575,2.46944 -2.8575,3.03389 0,0.67028 -0.56445,0.28222 -1.16417,-0.84667 -0.635,-1.19944 -2.2225,-2.36361 -3.13972,-2.36361 -0.24694,0.0353 0.0706,0.3175 0.74083,0.635 1.51695,0.74083 2.36361,1.905 2.89278,3.95111 0.59972,2.36361 0.17639,4.1275 -1.44639,5.715 -1.44639,1.48167 -1.37583,1.79917 0.17639,0.56445 0.52917,-0.42334 1.23472,-1.37584 1.5875,-2.11667 l 0.59972,-1.37583 0.56445,0.88194 c 0.3175,0.45861 1.48166,1.30528 2.61055,1.86972 3.98639,1.94028 10.26584,1.09361 12.62945,-1.72861 l 0.88194,-1.02305 0.56445,1.44639 c 0.3175,0.77611 0.98777,1.72861 1.48166,2.11666 1.41111,1.12889 1.62278,0.81139 0.24695,-0.38805 -2.92806,-2.61056 -2.18722,-8.07862 1.37583,-9.8425 1.02306,-0.49389 1.23472,-0.70556 0.70556,-0.70556 -0.9525,0 -2.50473,1.19944 -3.31611,2.57528 l -0.635,1.02305 -0.56445,-1.05833 c -1.37583,-2.64583 -6.24417,-4.05694 -11.07722,-3.21028 z m 7.09083,0.70556 c 0.77611,0.21166 1.94028,0.88194 2.61056,1.51694 1.09361,0.98778 1.30528,1.41111 1.44639,3.10445 0.14111,1.76389 0.0706,2.04611 -0.9525,3.175 -1.72861,1.97555 -3.95111,2.8575 -7.26723,2.89278 -2.46944,0.0353 -3.10444,-0.10584 -4.93889,-1.02306 -3.35138,-1.69333 -4.445,-3.98639 -3.13972,-6.73806 0.56445,-1.19944 2.2225,-2.43416 3.95111,-2.96333 1.41111,-0.42333 6.73806,-0.42333 8.29028,0.0353 z"
       id="path58" />
    <text
       xml:space="preserve"
       style="font-style:normal;font-weight:normal;font-size:10.58333302px;line-height:1.25;font-family:sans-serif;letter-spacing:0px;word-spacing:0px;fill:#000000;fill-opacity:1;stroke:none;stroke-width:0.26458332"
       x="-277.98874"
       y="118.33028"
       id="text17"><tspan
         sodipodi:role="line"
         id="tspan15"
         x="-277.98874"
         y="118.33028"
         style="stroke-width:0.26458332">l</tspan></text>
    <text
       xml:space="preserve"
       style="font-style:normal;font-weight:normal;font-size:10.58333302px;line-height:1.25;font-family:sans-serif;letter-spacing:0px;word-spacing:0px;fill:#000000;fill-opacity:1;stroke:none;stroke-width:0.26458332"
       x="-255.27515"
       y="118.6143"
       id="text17-9"><tspan
         sodipodi:role="line"
         id="tspan15-8"
         x="-255.27515"
         y="118.6143"
         style="stroke-width:0.26458332">l</tspan></text>
  </g>
</svg>
