<?xml version="1.0" encoding="UTF-8" standalone="no"?>
<!-- Created with Inkscape (http://www.inkscape.org/) -->

<svg
   xmlns:dc="http://purl.org/dc/elements/1.1/"
   xmlns:cc="http://creativecommons.org/ns#"
   xmlns:rdf="http://www.w3.org/1999/02/22-rdf-syntax-ns#"
   xmlns:svg="http://www.w3.org/2000/svg"
   xmlns="http://www.w3.org/2000/svg"
   xmlns:sodipodi="http://sodipodi.sourceforge.net/DTD/sodipodi-0.dtd"
   xmlns:inkscape="http://www.inkscape.org/namespaces/inkscape"
   width="45.620342mm"
   height="89.089752mm"
   viewBox="0 0 45.620342 89.089752"
   version="1.1"
   id="svg165"
   inkscape:version="0.92.4 (5da689c313, 2019-01-14)"
   sodipodi:docname="rabbit.svg">
  <defs
     id="defs159" />
  <sodipodi:namedview
     id="base"
     pagecolor="#ffffff"
     bordercolor="#666666"
     borderopacity="1.0"
     inkscape:pageopacity="0.0"
     inkscape:pageshadow="2"
     inkscape:zoom="1.4"
     inkscape:cx="45.386869"
     inkscape:cy="100.37964"
     inkscape:document-units="mm"
     inkscape:current-layer="layer1"
     showgrid="false"
     fit-margin-top="0"
     fit-margin-left="0"
     fit-margin-right="0"
     fit-margin-bottom="0"
     inkscape:window-width="1920"
     inkscape:window-height="1017"
     inkscape:window-x="1912"
     inkscape:window-y="-8"
     inkscape:window-maximized="1" />
  <metadata
     id="metadata162">
    <rdf:RDF>
      <cc:Work
         rdf:about="">
        <dc:format>image/svg+xml</dc:format>
        <dc:type
           rdf:resource="http://purl.org/dc/dcmitype/StillImage" />
        <dc:title></dc:title>
      </cc:Work>
    </rdf:RDF>
  </metadata>
  <g
     inkscape:label="Layer 1"
     inkscape:groupmode="layer"
     id="layer1"
     transform="translate(-74.707685,18.175827)">
    <path
       style="stroke-width:0.03527778"
       inkscape:connector-curvature="0"
       d="m 80.769665,-17.668585 c -1.799167,0.811389 -3.104445,2.504722 -4.092223,5.185833 -1.058333,2.8927784 -1.305278,9.5250011 -0.493889,13.40555611 0.740834,3.59833399 3.175001,9.52500189 5.432778,13.29972289 l 1.799167,2.963333 -1.199444,2.257779 c -0.635,1.234721 -2.2225,4.656667 -3.4925,7.62 -2.71639,6.244167 -3.35139,9.101667 -2.681112,12.206111 0.458611,2.293056 0.423334,2.469446 -0.493889,2.610556 -1.199444,0.211667 -1.093611,0.458613 0.176389,0.458613 0.9525,0 1.305278,0.211667 1.834445,1.09361 0.811389,1.44639 0.776111,1.72861 -0.352778,1.76389 -0.564445,0.03528 -1.375834,0.176387 -1.869722,0.3175 -0.564445,0.211667 -0.07056,0.246943 1.340555,0.105833 1.799167,-0.17639 2.328334,-0.07056 2.892778,0.423334 0.388056,0.352776 0.705556,0.77611 0.705556,0.91722 0,0.17639 -0.811389,0.635 -1.763889,1.058333 -0.987778,0.423334 -1.728611,0.846667 -1.622778,0.917223 0.07056,0.07056 0.846667,-0.176389 1.728611,-0.564443 2.081389,-0.9525 2.116667,-0.9525 4.162778,0.352777 l 1.693333,1.12889 -1.164166,2.328333 c -2.187223,4.303887 -4.515556,12.52361 -4.868334,17.145 l -0.105833,1.41111 19.155834,0.105833 19.120558,0.07056 v -1.622777 c 0,-3.774723 -2.61056,-12.805836 -5.08,-17.709446 -0.49389,-0.987777 -0.91722,-1.940277 -0.91722,-2.116667 0,-0.17639 0.67027,-0.77611 1.44639,-1.305277 l 1.44638,-0.9525 1.65806,0.599721 c 0.88194,0.352779 1.76389,0.776113 1.97556,0.917223 0.17638,0.17639 0.56444,0.3175 0.88194,0.282223 0.28222,0 -0.52917,-0.529167 -1.86972,-1.164167 l -2.36361,-1.12889 0.81139,-0.77611 c 0.74083,-0.705556 0.9525,-0.740833 3.21027,-0.388056 2.99861,0.49389 3.4925,0.17639 0.52917,-0.352777 -1.19944,-0.211667 -2.25778,-0.423333 -2.32833,-0.49389 -0.0705,-0.105833 0.14111,-0.635 0.49389,-1.27 0.56444,-0.9525 0.81138,-1.09361 2.15194,-1.09361 0.98778,0 1.44639,-0.141113 1.30528,-0.388057 -0.14111,-0.211666 -0.67028,-0.246946 -1.27,-0.141112 -0.56445,0.141112 -1.02306,0.176389 -1.02306,0.105833 0,-0.07055 0.24695,-1.234721 0.52917,-2.610554 0.38805,-1.834446 0.42333,-2.998613 0.17639,-4.515556 -0.28222,-1.869723 -5.50334,-14.710834 -6.56167,-16.263057 -0.70555,-1.023056 -0.67028,-1.199443 1.27,-4.445 1.86972,-3.139723 4.09222,-8.4666669 5.15056,-12.3119449 0.9525,-3.4925 0.91722,-10.3363894 -0.10584,-13.6172231 -1.44639,-4.586114 -4.65666,-7.126114 -7.76111,-6.103059 -1.69333,0.564445 -3.88055,2.575278 -4.86833,4.515556 -1.79917,3.563056 -2.04611,5.3975001 -2.82222,19.0852791 l -0.24695,4.056946 h -5.044722 -5.08 l -0.176389,-1.058334 c -0.105833,-0.599723 -0.282222,-3.527779 -0.388055,-6.52639 -0.246945,-6.491111 -0.670278,-10.089445 -1.481667,-12.6294451 -1.763889,-5.785556 -5.856111,-8.854723 -9.489722,-7.161389 z m 3.986388,0.740833 c 2.928056,1.305278 5.185834,5.820834 5.750278,11.5711121 0.529167,5.00944401 1.023056,15.3811129 0.740834,15.6280559 -0.105834,0.141111 -0.564445,0.352777 -0.9525,0.458611 -0.740834,0.211666 -0.776111,0.105833 -1.023056,-4.0922219 -0.670278,-12.170834 -1.234722,-15.1341677 -3.527778,-18.1327791 -2.010833,-2.645833 -4.303889,-2.363611 -5.856111,0.811389 -0.776111,1.5522224 -0.846666,2.1166667 -0.811389,6.4558341 0,4.40972201 0.07056,5.00944401 1.128889,8.043333 0.635,1.834445 2.010834,5.009445 3.069167,7.0555569 1.799166,3.527777 1.869722,3.81 1.375833,4.550834 -0.282222,0.45861 -0.635,0.811387 -0.776111,0.811387 -0.846667,0 -4.833055,-8.1844439 -6.208889,-12.7352779 -2.716389,-8.89 -1.058333,-18.6619451 3.4925,-20.6375011 1.411111,-0.635 1.869722,-0.599722 3.598333,0.211667 z m 28.539727,-0.176389 c 3.24555,1.340556 4.90361,5.538611 4.90361,12.1708341 -0.0353,4.69194501 -0.77611,7.972778 -2.92806,12.946945 -1.51694,3.4572219 -4.16277,8.2197219 -4.62139,8.2197219 -0.14111,0 -0.45861,-0.388054 -0.70555,-0.811387 -0.38806,-0.740834 -0.24695,-1.234723 1.30528,-4.339167 4.23333,-8.3961129 5.57389,-15.6280569 3.91583,-20.637502 -0.9525,-2.786945 -3.175,-4.409722 -4.83306,-3.527778 -1.05833,0.564444 -2.50472,2.928056 -3.42194,5.5386111 -0.67028,1.905001 -0.91722,3.704167 -1.19944,8.43139001 -0.21167,3.28083299 -0.49389,6.91444399 -0.59973,8.00805599 -0.21166,1.9755559 -0.21166,2.0108329 -1.05833,1.6227769 -0.98778,-0.45861 -0.98778,0.282223 -0.35278,-10.33638889 0.38806,-6.42055601 0.67028,-8.57250041 1.23472,-10.33638911 1.48167,-4.409723 4.02167,-7.126112 6.84389,-7.443612 0.14111,-0.03528 0.84667,0.211667 1.51695,0.493889 z m -28.786671,4.974167 c 2.610556,2.2225001 3.457222,5.3269451 4.092222,15.0988901 l 0.564445,8.1138899 -1.728611,1.516944 c -0.917223,0.811389 -1.799167,1.481666 -1.905001,1.516943 -0.423333,0 -3.809999,-7.2672219 -4.938888,-10.5833329 -1.023056,-2.99861099 -1.128889,-3.80999999 -1.164167,-7.584722 -0.03528,-5.044723 0.599722,-7.2319451 2.398889,-8.3255561 1.375833,-0.846667 1.340556,-0.846667 2.681111,0.246944 z m 28.539721,-0.03528 c 2.46945,2.116667 3.03389,8.5019451 1.27,14.4638901 -1.02305,3.457222 -2.54,7.126112 -4.1275,9.9836119 l -1.05833,1.834443 -1.12889,-0.9525 c -0.59972,-0.564443 -1.44639,-1.23472 -1.83444,-1.516943 -0.74084,-0.529167 -0.74084,-0.529167 -0.28223,-7.9375009 0.28223,-4.09222199 0.67028,-8.219723 0.88195,-9.242778 0.70555,-3.5277781 3.24555,-7.5141671 4.7625,-7.5141671 0.24694,0 0.91722,0.388055 1.51694,0.881944 z m -9.13694,23.495002 c 2.54,1.164166 5.18583,3.774723 6.80861,6.6675 0.70556,1.27 2.46944,5.150556 3.98639,8.643056 2.46944,5.785556 2.71639,6.596944 2.89278,9.278056 0.10583,2.187221 0,3.280834 -0.42334,4.409721 l -0.56444,1.516946 -2.92806,0.564444 c -1.5875,0.3175 -2.99861,0.493889 -3.13972,0.388056 -0.17639,-0.07056 -0.28222,-0.49389 -0.28222,-0.9525 0,-2.046113 -3.45722,-5.150556 -7.19667,-6.455833 -2.75167,-0.9525 -9.2075,-0.846667 -11.959166,0.211666 -3.316112,1.305277 -6.596945,4.268611 -6.596945,5.997221 0,0.3175 0.3175,-0.07055 0.740833,-0.846667 2.786945,-5.36222 12.276667,-7.44361 19.261668,-4.26861 3.175,1.481667 5.3975,3.915833 5.3975,6.0325 0,0.599723 -0.21167,0.881946 -0.59972,0.917223 -0.59972,0.03528 -0.59972,0.07056 0,0.211667 0.88194,0.211667 0.74083,0.81139 -0.17639,0.846667 -0.59972,0.03528 -0.67028,0.07056 -0.17639,0.211666 0.635,0.17639 0.84667,0.81139 0.24695,0.81139 -0.17639,0 -0.24695,0.211667 -0.14112,0.493887 0.3175,0.81139 -1.48166,2.54 -3.70416,3.52778 -4.26861,1.905 -11.50056,2.010833 -15.663338,0.246943 -2.2225,-0.9525 -4.198055,-2.786943 -3.951111,-3.63361 0.141111,-0.423333 0.07056,-0.599723 -0.176389,-0.564446 -0.246944,0.07056 -0.529167,-0.105834 -0.599722,-0.352777 -0.105833,-0.246944 0.211667,-0.423333 0.846667,-0.45861 l 0.987777,-0.03528 -1.023055,-0.246943 c -1.058334,-0.211667 -1.234722,-0.987777 -0.211667,-0.81139 0.282222,0.03528 0.176389,-0.14111 -0.282222,-0.388054 -0.423333,-0.246946 -0.670278,-0.564446 -0.564445,-0.705556 0.141112,-0.141111 0.07056,-0.246944 -0.14111,-0.246944 -0.246945,0 -0.423334,0.14111 -0.423334,0.28222 0,0.17639 -0.529166,0.246947 -1.128889,0.17639 l -1.164166,-0.105833 1.164166,0.352777 c 1.199445,0.388056 1.516945,1.27 0.529167,1.516946 -0.493889,0.14111 -0.458611,0.176387 0.105833,0.211667 1.516945,0.07055 1.234722,1.023053 -0.458611,1.5875 -0.917222,0.3175 -1.658055,0.564443 -1.693333,0.564443 -0.211667,0 -1.5875,-1.340556 -1.5875,-1.552223 0,-0.105833 0.635,-0.211667 1.411111,-0.211667 0.776111,0 1.411111,-0.14111 1.411111,-0.28222 0,-0.141113 -0.811389,-0.282223 -1.763889,-0.246946 -1.622777,0 -1.834444,-0.105834 -2.54,-1.164167 l -0.740833,-1.199444 2.081389,0.211667 c 1.411111,0.14111 1.799167,0.105834 1.199444,-0.105833 -0.493889,-0.17639 -1.446389,-0.3175 -2.116666,-0.35278 -1.093612,-0.03528 -1.305278,-0.176387 -1.658056,-1.199443 -1.481667,-4.26861 -0.9525,-6.49111 4.021667,-17.674167 2.610555,-5.856113 5.150555,-9.313333 8.113889,-11.041946 2.645833,-1.552221 4.198055,-1.869721 8.5725,-1.763887 3.492505,0.07055 4.339165,0.211666 5.997225,0.987777 z M 85.496887,47.066139 c 1.869722,4.1275 13.229167,5.820834 19.896673,2.963334 0.91722,-0.388054 2.32833,-1.411111 3.10444,-2.257777 1.23472,-1.340557 1.5875,-1.516944 2.39889,-1.340557 1.62278,0.388057 1.5875,0.529167 -0.14111,1.76389 -6.27945,4.480277 -16.792226,5.185833 -24.482782,1.693333 -2.116667,-0.9525 -4.233333,-2.293056 -4.233333,-2.68111 0,-0.17639 1.728611,-0.740833 2.857499,-0.9525 0.105834,-0.03528 0.388056,0.352777 0.599723,0.811387 z m 25.646943,5.326947 c 2.50473,5.468053 4.7625,13.440833 4.7625,16.721666 v 1.09361 h -3.70416 -3.70417 v -0.987776 c 0,-1.340557 -0.9525,-4.480277 -1.97556,-6.52639 -2.64583,-5.150557 -7.690553,-7.549444 -11.959164,-5.57389 -1.658056,0.740833 -4.409722,3.598336 -5.3975,5.538613 -0.811389,1.622777 -1.693334,4.374443 -2.010834,6.20889 l -0.211666,1.340553 h -3.915834 -3.915833 l 0.246945,-2.293053 c 0.3175,-3.139723 1.728611,-8.43139 3.421944,-12.700003 2.010833,-5.22111 1.763889,-5.04472 4.938889,-3.95111 6.702778,2.328333 13.970003,2.151943 19.508613,-0.45861 1.19944,-0.564447 2.29306,-1.023057 2.43417,-1.023057 0.17639,-0.03528 0.81139,1.164167 1.48166,2.610557 z m -10.58333,4.90361 c 2.08139,0.881943 4.55083,3.527779 5.75028,6.138333 1.09361,2.328333 2.11666,6.244167 1.76389,6.596946 -0.10584,0.105834 -4.7625,0.141111 -10.406949,0.105834 l -10.230556,-0.105834 0.458611,-2.2225 c 0.9525,-4.727223 3.457222,-8.537223 6.561667,-10.089446 2.081389,-1.058333 4.233333,-1.199443 6.103057,-0.423333 z"
       id="path4" />
    <path
       style="stroke-width:0.03527778"
       inkscape:connector-curvature="0"
       d="m 94.880776,36.835583 c -2.046111,2.046113 -1.481667,4.974167 1.128889,6.067779 2.434167,1.023057 5.150555,-0.705556 5.221115,-3.316112 0.0706,-3.598334 -3.810004,-5.291667 -6.350004,-2.751667 z m 5.08,0.388056 c 2.081394,2.434167 -0.07056,6.173613 -3.245555,5.57389 -1.199445,-0.246943 -2.681112,-2.010833 -2.681112,-3.210279 0.07056,-3.175 3.880556,-4.691944 5.926667,-2.363611 z"
       id="path6" />
    <text
       xml:space="preserve"
       style="font-style:normal;font-weight:normal;font-size:10.58333302px;line-height:1.25;font-family:sans-serif;letter-spacing:0px;word-spacing:0px;fill:#000000;fill-opacity:1;stroke:none;stroke-width:0.26458332"
       x="84.458214"
       y="34.732002"
       id="text17"><tspan
         sodipodi:role="line"
         id="tspan15"
         x="84.458214"
         y="34.732002"
         style="stroke-width:0.26458332">l</tspan></text>
    <text
       xml:space="preserve"
       style="font-style:normal;font-weight:normal;font-size:10.58333302px;line-height:1.25;font-family:sans-serif;letter-spacing:0px;word-spacing:0px;fill:#000000;fill-opacity:1;stroke:none;stroke-width:0.26458332"
       x="107.17181"
       y="35.016029"
       id="text17-9"><tspan
         sodipodi:role="line"
         id="tspan15-8"
         x="107.17181"
         y="35.016029"
         style="stroke-width:0.26458332">l</tspan></text>
  </g>
</svg>
