<?xml version="1.0" encoding="UTF-8" standalone="no"?>
<!-- Created with Inkscape (http://www.inkscape.org/) -->

<svg
   xmlns:dc="http://purl.org/dc/elements/1.1/"
   xmlns:cc="http://creativecommons.org/ns#"
   xmlns:rdf="http://www.w3.org/1999/02/22-rdf-syntax-ns#"
   xmlns:svg="http://www.w3.org/2000/svg"
   xmlns="http://www.w3.org/2000/svg"
   xmlns:sodipodi="http://sodipodi.sourceforge.net/DTD/sodipodi-0.dtd"
   xmlns:inkscape="http://www.inkscape.org/namespaces/inkscape"
   width="60.660942mm"
   height="66.675003mm"
   viewBox="0 0 60.660942 66.675003"
   version="1.1"
   id="svg83"
   inkscape:version="0.92.4 (5da689c313, 2019-01-14)"
   sodipodi:docname="rat.svg">
  <defs
     id="defs77" />
  <sodipodi:namedview
     id="base"
     pagecolor="#ffffff"
     bordercolor="#666666"
     borderopacity="1.0"
     inkscape:pageopacity="0.0"
     inkscape:pageshadow="2"
     inkscape:zoom="1.4"
     inkscape:cx="341.87594"
     inkscape:cy="143.89948"
     inkscape:document-units="mm"
     inkscape:current-layer="layer1"
     showgrid="false"
     fit-margin-top="0"
     fit-margin-left="0"
     fit-margin-right="0"
     fit-margin-bottom="0"
     inkscape:window-width="1920"
     inkscape:window-height="1017"
     inkscape:window-x="1912"
     inkscape:window-y="-8"
     inkscape:window-maximized="1" />
  <metadata
     id="metadata80">
    <rdf:RDF>
      <cc:Work
         rdf:about="">
        <dc:format>image/svg+xml</dc:format>
        <dc:type
           rdf:resource="http://purl.org/dc/dcmitype/StillImage" />
        <dc:title></dc:title>
      </cc:Work>
    </rdf:RDF>
  </metadata>
  <g
     inkscape:label="Layer 1"
     inkscape:groupmode="layer"
     id="layer1"
     transform="translate(-75.502861,-115.49583)">
    <path
       style="stroke-width:0.03527778"
       inkscape:connector-curvature="0"
       d="m 80.974019,116.23667 c -4.833056,2.18722 -6.843889,7.90222 -4.480278,12.73527 1.446389,2.96334 4.833056,5.36223 8.219723,5.82084 1.5875,0.21166 1.622777,0.24694 1.411111,1.30527 -0.105834,0.59973 -0.282222,2.50473 -0.423334,4.26862 -0.246944,3.52777 0.599723,8.04333 2.010834,10.83027 l 0.740833,1.44639 -2.645833,-0.24694 c -1.728611,-0.14111 -2.751667,-0.10584 -2.892778,0.14111 -0.141111,0.21167 0.705556,0.35278 2.434167,0.35278 2.2225,0 2.822222,0.14111 3.386666,0.70555 1.270001,1.27 0.917223,1.65806 -1.834444,1.905 -1.411111,0.10584 -3.033889,0.38806 -3.633611,0.56445 -0.987778,0.3175 -0.9525,0.35277 0.352778,0.17639 4.586111,-0.56445 6.173611,-0.59973 6.702778,-0.17639 0.282222,0.24694 0.529166,0.56444 0.529166,0.67027 0,0.14112 -1.093611,0.59973 -2.398889,1.02306 -1.305278,0.42333 -2.716389,1.02306 -3.069166,1.34056 -0.705556,0.52916 -0.705556,0.56444 0,0.28222 4.727222,-1.72861 5.820833,-2.04611 6.173611,-1.69334 0.246944,0.24695 -0.105833,1.34056 -1.199445,3.70417 -0.846666,1.83445 -2.046111,4.72722 -2.645833,6.45584 -1.199445,3.42194 -2.8575,10.97139 -2.8575,13.05277 v 1.27 h 20.637505 c 16.26305,0 20.6375,-0.10583 20.67277,-0.45861 0.3175,-3.84527 -2.36361,-13.86416 -5.3975,-20.28472 -1.27,-2.68111 -1.34055,-3.03389 -0.88194,-3.52778 0.49389,-0.49389 0.84667,-0.42333 3.31611,0.49389 3.59833,1.34056 3.73945,1.37583 1.86972,0.38806 -0.88194,-0.49389 -2.25777,-1.05834 -3.06916,-1.30528 -1.34056,-0.42334 -1.41111,-0.52917 -1.05834,-1.12889 0.38806,-0.635 0.70556,-0.67028 2.71639,-0.49389 1.27,0.10583 2.92806,0.28222 3.70417,0.38806 1.02305,0.14111 1.19944,0.10583 0.70555,-0.14112 -0.38805,-0.17638 -1.94027,-0.42333 -3.42194,-0.56444 -1.51694,-0.14111 -2.75167,-0.3175 -2.75167,-0.42333 0,-0.0706 0.24695,-0.59973 0.52917,-1.16417 0.52917,-1.02306 0.635,-1.05833 3.175,-1.05833 1.69333,0 2.64583,-0.14111 2.64583,-0.38806 0,-0.28222 -0.77611,-0.3175 -2.46944,-0.14111 l -2.50472,0.24694 0.77611,-1.86972 c 1.76389,-4.445 2.25778,-8.32555 1.62278,-13.40555 l -0.28223,-2.32834 1.41111,-0.21166 c 1.86973,-0.24695 4.90362,-1.65806 6.45584,-2.99861 2.89278,-2.54 3.77472,-7.65528 1.97555,-11.18306 -1.79916,-3.45722 -4.51555,-5.08 -8.53722,-5.11528 -4.1275,0 -7.16139,2.04611 -9.10167,6.20889 l -1.02305,2.18722 -1.51695,-0.635 c -5.36222,-2.39889 -13.54666,-2.36361 -18.273886,0.0353 -0.705555,0.35278 -1.375833,0.67028 -1.481666,0.67028 -0.07056,0 -0.599723,-0.98778 -1.199445,-2.2225 -1.164167,-2.54 -3.104445,-4.62139 -5.185834,-5.57389 -1.975555,-0.91722 -5.856111,-0.88194 -7.9375,0.0706 z m 8.008056,0.88194 c 2.010833,0.9525 3.845278,3.10444 4.903611,5.75028 0.599723,1.51694 0.599723,1.55222 -0.246944,2.18722 -1.093611,0.84667 -1.27,0.84667 -1.552222,-0.0353 -0.388056,-1.27 -3.845278,-4.51555 -5.150556,-4.83305 -1.516944,-0.42334 -3.668889,-0.0353 -4.868334,0.84666 -0.493889,0.38806 -1.199444,1.41111 -1.552222,2.25778 -0.564444,1.37583 -0.599722,1.79917 -0.246944,3.13972 0.529166,1.97556 2.469444,3.84528 5.115278,5.00945 1.975555,0.84666 2.328333,1.41111 1.516944,2.50472 -0.388056,0.49389 -0.705556,0.52917 -1.975555,0.24694 -7.47889,-1.72861 -10.97139,-8.50194 -7.302501,-14.18166 1.763889,-2.64584 5.185834,-4.33917 8.113889,-3.95111 0.776111,0.10583 2.2225,0.59972 3.245556,1.05833 z m 39.616945,-0.88194 c 3.31611,0.74083 5.99722,3.4925 6.70278,6.80861 1.02305,4.93889 -2.25778,9.48972 -7.9375,10.93611 -2.2225,0.59972 -2.46945,0.52916 -2.82222,-0.84667 -0.17639,-0.81139 0,-0.9525 1.72861,-1.69333 2.68111,-1.16417 4.62139,-3.03389 5.15055,-5.00945 0.35278,-1.34055 0.3175,-1.76389 -0.24694,-3.13972 -0.88195,-2.18722 -2.46945,-3.21028 -4.86833,-3.21028 -1.30528,0 -2.15195,0.21167 -3.03389,0.81139 -1.05834,0.70556 -2.99861,2.92806 -3.77473,4.37445 -0.3175,0.49389 -0.42333,0.49389 -1.23472,-0.10584 -1.02305,-0.74083 -0.98778,-1.09361 0.14111,-3.52777 1.27,-2.71639 3.95111,-4.90362 6.6675,-5.46806 1.76389,-0.35278 1.76389,-0.35278 3.52778,0.0706 z m -40.992778,4.69194 c 1.164166,0.59972 2.928055,2.46944 3.880555,4.05694 l 0.705556,1.16417 -1.375833,1.48167 c -0.776112,0.77611 -1.763889,2.04611 -2.151945,2.75166 -0.423333,0.74084 -0.9525,1.34056 -1.199445,1.34056 -0.740833,0 -2.751666,-0.98778 -4.268611,-2.08139 -1.869722,-1.34055 -2.575278,-2.68111 -2.575278,-4.83305 0,-1.44639 0.176389,-1.79917 1.375834,-2.99862 1.199444,-1.19944 1.552222,-1.37583 2.998611,-1.37583 0.917222,0 2.081389,0.21167 2.610556,0.49389 z m 42.086388,0.88194 c 1.19945,1.19945 1.37584,1.55223 1.37584,2.99862 0,2.01083 -0.67028,3.42194 -2.18723,4.55083 -1.41111,1.05833 -3.95111,2.36361 -4.58611,2.36361 -0.24694,0 -0.81139,-0.635 -1.27,-1.44639 -0.45861,-0.77611 -1.41111,-2.04611 -2.08139,-2.82222 -1.44639,-1.5875 -1.37583,-2.04611 0.67028,-4.37445 1.69333,-1.94027 2.99861,-2.64583 5.00945,-2.64583 1.51694,0 1.86972,0.14111 3.06916,1.37583 z m -18.415,0.91723 c 7.23195,1.72861 12.24139,7.26722 13.68778,15.16944 0.74083,3.98639 0.28222,7.72583 -1.37583,11.88861 l -1.16417,2.89278 -2.57528,0.59972 c -1.41111,0.3175 -2.68111,0.67028 -2.78694,0.81139 -0.3175,0.3175 0.17639,0.24695 2.54,-0.28222 1.16416,-0.28222 2.15194,-0.45861 2.2225,-0.38806 0.0706,0.0706 -0.10584,0.42334 -0.35278,0.84667 -0.38806,0.59972 -0.84667,0.74083 -2.75167,0.81139 l -2.29305,0.0706 2.04611,0.10583 c 2.01083,0.14112 2.32833,0.35278 1.62278,1.05834 -0.24695,0.24694 -0.77611,0.28222 -1.62278,0.0353 -0.67028,-0.17639 -1.30528,-0.24695 -1.44639,-0.14112 -0.10583,0.10584 0.3175,0.3175 0.9525,0.42334 0.59972,0.14111 1.19944,0.35278 1.30528,0.52916 0.17639,0.3175 -5.29167,5.96195 -5.78556,5.96195 -0.14111,0 -0.21166,-1.16417 -0.14111,-2.61056 0.21167,-4.23333 -1.16417,-7.23194 -4.1275,-8.96055 -5.00944,-2.92806 -11.041944,1.23472 -11.1125,7.69055 -0.03528,1.27 0.105833,2.75167 0.246944,3.28084 0.246945,0.91722 0.211667,0.9525 -0.458611,0.59972 -1.093611,-0.59972 -5.644445,-5.29167 -5.644445,-5.85611 0,-0.28222 0.317501,-0.49389 0.670278,-0.49389 0.388056,0 0.811389,-0.17639 0.917223,-0.35278 0.141111,-0.24694 -0.105834,-0.28222 -0.776112,-0.14111 -1.552222,0.35278 -1.658055,0.35278 -1.799166,-0.28222 -0.105834,-0.49389 0.211666,-0.635 1.763889,-0.74084 l 1.869722,-0.10583 -2.187222,-0.0706 c -1.763889,-0.0706 -2.257778,-0.21166 -2.575278,-0.74083 -0.529167,-1.05833 -0.493889,-1.05833 1.516944,-0.52917 0.987778,0.24695 2.010834,0.49389 2.187223,0.49389 0.776111,-0.0353 -0.811389,-0.67028 -2.716389,-1.05833 -1.905001,-0.42334 -2.046112,-0.52917 -2.681112,-2.08139 -3.81,-8.92528 -2.398889,-17.95639 3.739445,-23.70667 2.504722,-2.36361 5.150556,-3.88056 8.254997,-4.69194 2.46945,-0.67028 8.00806,-0.67028 10.83028,-0.0353 z m -1.48166,29.66861 c 2.01083,1.62278 2.99861,3.66889 3.21027,6.63222 0.21167,3.66889 -0.38805,4.90361 -2.99861,6.13833 -2.82222,1.30528 -5.85611,1.30528 -8.60778,0.0353 -1.69333,-0.81138 -2.081386,-1.16416 -2.469441,-2.29305 -0.987778,-3.03389 -0.246945,-7.02028 1.728611,-9.34861 1.65806,-1.94028 2.92806,-2.46945 5.60917,-2.32834 1.83444,0.0706 2.43416,0.28223 3.52778,1.16417 z m -12.911672,10.75972 c 3.421942,2.75167 6.773332,4.05695 9.701392,3.73945 3.13972,-0.3175 7.16139,-2.68112 10.795,-6.35 0.74083,-0.77612 1.44639,-1.34056 1.51694,-1.23473 0.45861,0.45861 3.03389,6.56167 3.98639,9.45445 1.23472,3.70416 2.54,9.66611 2.54,11.50055 v 1.19945 h -4.51555 -4.51556 l -0.42333,-2.15195 c -0.52917,-2.89277 -2.15195,-6.27944 -3.95111,-8.21972 -4.26862,-4.62139 -10.01889,-3.95111 -13.758339,1.62278 -1.446389,2.18722 -2.822222,5.92667 -2.822222,7.72583 v 1.02306 h -4.974167 -5.009445 l 0.246944,-2.08139 c 0.564445,-4.93889 2.540001,-11.64167 5.080001,-17.07445 l 1.5875,-3.45722 1.481667,1.55222 c 0.811389,0.84667 2.187222,2.08139 3.033889,2.75167 z m 11.818052,5.92667 c 3.31612,1.51694 6.13834,5.92666 7.05556,11.04194 l 0.21167,1.34056 h -10.08945 c -11.465277,0 -10.512777,0.3175 -9.560277,-3.28083 1.093611,-4.19806 3.351389,-7.40834 6.244167,-8.85473 2.18722,-1.09361 4.1275,-1.16416 6.13833,-0.24694 z"
       id="path20" />
    <text
       xml:space="preserve"
       style="font-style:normal;font-weight:normal;font-size:10.58333302px;line-height:1.25;font-family:sans-serif;letter-spacing:0px;word-spacing:0px;fill:#000000;fill-opacity:1;stroke:none;stroke-width:0.26458332"
       x="92.894257"
       y="148.81859"
       id="text17"><tspan
         sodipodi:role="line"
         id="tspan15"
         x="92.894257"
         y="148.81859"
         style="stroke-width:0.26458332">l</tspan></text>
    <text
       xml:space="preserve"
       style="font-style:normal;font-weight:normal;font-size:10.58333302px;line-height:1.25;font-family:sans-serif;letter-spacing:0px;word-spacing:0px;fill:#000000;fill-opacity:1;stroke:none;stroke-width:0.26458332"
       x="115.60785"
       y="149.10262"
       id="text17-9"><tspan
         sodipodi:role="line"
         id="tspan15-8"
         x="115.60785"
         y="149.10262"
         style="stroke-width:0.26458332">l</tspan></text>
  </g>
</svg>
