<?xml version="1.0" encoding="UTF-8" standalone="no"?>
<!-- Created with Inkscape (http://www.inkscape.org/) -->

<svg xmlns:dc="http://purl.org/dc/elements/1.1/" 
    xmlns:cc="http://creativecommons.org/ns#" 
    xmlns:rdf="http://www.w3.org/1999/02/22-rdf-syntax-ns#" 
    xmlns:svg="http://www.w3.org/2000/svg" 
    xmlns="http://www.w3.org/2000/svg" 
    xmlns:sodipodi="http://sodipodi.sourceforge.net/DTD/sodipodi-0.dtd" 
    xmlns:inkscape="http://www.inkscape.org/namespaces/inkscape" width="52.825329mm" height="80.43782mm" viewBox="0 0 52.825329 80.43782" version="1.1" id="svg327" inkscape:version="0.92.4 (5da689c313, 2019-01-14)" sodipodi:docname="Rooster.svg">
    <defs id="defs321" />
    <sodipodi:namedview id="base" pagecolor="#ffffff" bordercolor="#666666" borderopacity="1.0" inkscape:pageopacity="0.0" inkscape:pageshadow="2" inkscape:zoom="1.4" inkscape:cx="544.46453" inkscape:cy="198.83622" inkscape:document-units="mm" inkscape:current-layer="layer1" showgrid="false" fit-margin-top="0" fit-margin-left="0" fit-margin-right="0" fit-margin-bottom="0" inkscape:window-width="1920" inkscape:window-height="1017" inkscape:window-x="1912" inkscape:window-y="-8" inkscape:window-maximized="1" />
    <metadata id="metadata324">
        <rdf:RDF>
            <cc:Work rdf:about="">
                <dc:format>image/svg+xml</dc:format>
                <dc:type rdf:resource="http://purl.org/dc/dcmitype/StillImage" />
                <dc:title></dc:title>
            </cc:Work>
        </rdf:RDF>
    </metadata>
    <g inkscape:label="Layer 1" inkscape:groupmode="layer" id="layer1" transform="translate(393.04957,-76.864422)">
        <path style="stroke-width:0.03527778" inkscape:connector-curvature="0" d="m -369.46952,77.433353 c -1.76388,1.27 -2.29305,4.691945 -1.27,8.643056 0.59973,2.257778 0.49389,2.786945 -0.49388,2.786945 -0.35278,0 -1.5875,0.493889 -2.75167,1.058333 -5.715,2.8575 -9.13695,9.666112 -10.83028,21.519443 -0.3175,2.2225 -0.88194,8.21973 -1.23472,13.26445 -0.70556,9.80722 -0.9525,10.86555 -2.71639,12.02972 -0.49389,0.3175 -1.65806,0.77611 -2.54,0.98778 -0.88195,0.24694 -1.69334,0.59972 -1.72861,0.77611 -0.21167,0.59972 1.94027,1.27 3.45722,1.05833 1.23472,-0.17639 1.41111,-0.10583 1.16417,0.38806 -1.05834,2.54 -2.78695,10.4775 -3.175,14.64028 l -0.24695,2.71638 h 25.11778 25.0825 v -1.55222 c 0,-2.2225 -1.23472,-9.03111 -2.25778,-12.66472 -0.52916,-1.69333 -0.91722,-3.21028 -0.91722,-3.35139 0,-0.14111 0.635,-0.21167 1.41111,-0.14111 1.37584,0.14111 3.175,-0.59972 3.175,-1.30528 0,-0.17639 -0.635,-0.38805 -1.41111,-0.52916 -1.41111,-0.21167 -3.88055,-2.04612 -4.62139,-3.42195 -0.17639,-0.35278 -0.56444,-3.45722 -0.84666,-6.91444 -1.76389,-21.30778 -3.91584,-29.59806 -9.10167,-34.995561 -1.34056,-1.375833 -5.08,-3.563055 -6.13833,-3.563055 -0.74084,0 -0.81139,-0.635 -0.28223,-2.681112 1.05834,-4.056944 0.52917,-7.478889 -1.30527,-8.748889 -1.05834,-0.776111 -4.445,-0.740833 -5.53862,0 z m 5.46806,0.9525 c 0.77611,0.670278 0.98778,1.199444 1.12889,2.8575 0.0706,1.093611 -0.0353,2.998611 -0.3175,4.198056 l -0.45861,2.187222 -0.28222,-1.5875 c -0.45861,-2.610555 -2.39889,-3.598333 -4.26862,-2.116667 -0.74083,0.599723 -0.9525,1.093612 -1.02305,2.575278 l -0.10583,1.834445 -0.52917,-1.5875 c -0.24695,-0.881945 -0.49389,-2.928056 -0.49389,-4.515556 -0.0353,-2.822222 0,-2.998611 0.9525,-3.81 1.37583,-1.164167 4.05695,-1.199445 5.3975,-0.03528 z m -1.23472,5.856111 c 0.70555,0.564445 0.84667,0.987778 0.81139,2.751667 0,1.869723 -1.09361,5.89139 -1.905,7.16139 -0.3175,0.458611 -0.38806,0.458611 -0.70556,0 -1.05833,-1.5875 -2.08139,-7.126112 -1.65805,-8.890001 0.21166,-0.811389 1.30527,-1.622778 2.2225,-1.658056 0.24694,-0.03528 0.77611,0.282223 1.23472,0.635 z m -3.38667,8.149168 c 1.905,4.550833 2.01083,4.550833 3.88056,0.03528 1.27,-3.069166 1.34055,-3.139722 2.29305,-2.8575 3.77473,1.093611 6.985,4.092223 9.13695,8.537223 2.71639,5.573885 4.23333,13.687775 5.50333,29.351115 0.3175,3.66888 0.70556,6.91444 0.84667,7.23194 0.56444,0.9525 2.61055,2.75167 4.09222,3.4925 l 1.41111,0.74083 -1.41111,0.0353 c -0.9525,0 -1.83444,-0.28222 -2.71639,-0.88194 -0.70555,-0.49389 -1.37583,-0.88195 -1.48167,-0.88195 -0.14111,0 -0.21166,0.59973 -0.21166,1.30528 0,1.65806 -0.635,3.98639 -1.05834,3.98639 -0.21166,0 -0.35277,-0.35278 -0.35277,-0.81139 0,-0.42333 -0.14111,-0.98778 -0.3175,-1.27 -0.24695,-0.38805 -0.45861,-0.17639 -0.88195,0.84667 -0.67028,1.5875 -2.2225,3.70416 -2.71639,3.70416 -0.17639,0 -0.3175,-0.49388 -0.3175,-1.05833 0,-0.59972 -0.0706,-1.05833 -0.17639,-1.05833 -0.0706,0 -1.19944,0.56444 -2.43416,1.27 -2.8575,1.55222 -7.9375,3.31611 -10.26584,3.56305 -2.25777,0.21167 -6.94972,-1.12889 -11.1125,-3.175 -1.65805,-0.81139 -3.10444,-1.51694 -3.24555,-1.5875 -0.17639,-0.0706 -0.28223,0.35278 -0.28223,0.9525 0,0.59973 -0.14111,1.09361 -0.3175,1.09361 -0.49388,0 -2.04611,-2.11666 -2.71638,-3.70416 -0.42334,-1.02306 -0.635,-1.23472 -0.88195,-0.84667 -0.17639,0.28222 -0.3175,0.84667 -0.3175,1.27 0,0.45861 -0.14111,0.81139 -0.3175,0.81139 -0.45861,0 -0.74083,-0.91722 -0.98778,-3.24556 -0.10583,-1.12888 -0.24694,-2.04611 -0.3175,-2.04611 -0.0706,0 -0.70555,0.38806 -1.41111,0.88195 -0.74083,0.52916 -1.79916,0.88194 -2.50472,0.88194 -1.41111,0 -1.27,-0.56444 0.21167,-0.88194 1.12889,-0.24695 2.89277,-1.69334 3.4925,-2.8575 0.24694,-0.42334 0.56444,-2.96334 0.77611,-5.64445 0.81139,-10.97139 1.09361,-14.25222 1.5875,-17.74472 1.86972,-13.299725 5.36222,-19.473336 12.48833,-22.083892 0.70556,-0.282222 1.41111,-0.458611 1.55222,-0.423333 0.14112,0.03528 0.81139,1.411111 1.48167,3.069167 z m -16.51,51.540838 0.70556,0.74083 0.24694,-1.16417 0.21167,-1.12889 1.02305,1.37584 c 0.98778,1.41111 2.50472,2.61055 3.21028,2.61055 0.24694,0 0.3175,-0.45861 0.14111,-1.23472 l -0.21167,-1.27 2.2225,1.16417 c 1.23473,0.635 2.32834,1.19944 2.36362,1.23472 0.0706,0.0353 -0.28223,0.74083 -0.77612,1.62278 -1.09361,1.86972 -2.18722,4.93889 -2.50472,7.12611 l -0.24694,1.5875 h -6.13834 -6.13833 v -0.84667 c 0,-1.19944 1.30528,-8.71361 1.97556,-11.21833 0.28222,-1.16417 0.88194,-2.99861 1.27,-4.09222 l 0.74083,-1.97556 0.59972,2.39889 c 0.3175,1.30528 0.91722,2.68111 1.30528,3.06917 z m 40.25195,-1.44639 c 1.02305,3.24555 2.54,11.04194 2.54,13.08805 v 1.02306 h -6.49111 -6.49112 l -0.59972,-2.64583 c -0.3175,-1.48167 -1.12889,-3.73945 -1.76389,-5.04473 -0.74083,-1.44639 -1.05833,-2.39889 -0.81139,-2.50472 0.21167,-0.0706 1.41112,-0.635 2.64584,-1.27 l 2.29305,-1.16417 -0.24694,1.19945 c -0.10583,0.67028 -0.0706,1.19944 0.0706,1.19944 0.77611,0 2.64583,-1.55222 3.52778,-2.89277 l 0.98777,-1.48167 0.17639,1.37583 0.17639,1.41111 0.77611,-1.02305 c 0.45861,-0.52917 0.98778,-1.94028 1.23473,-3.06917 0.24694,-1.16417 0.52916,-1.97555 0.67027,-1.79917 0.14111,0.14112 0.74084,1.76389 1.30528,3.59834 z m -26.17612,5.11528 c 1.65806,0.49388 3.63362,0.88194 4.33917,0.88194 1.09361,0 5.04472,-0.91722 6.77334,-1.5875 0.42333,-0.14111 0.77611,0.14111 1.30527,1.02306 0.91723,1.5875 2.11667,4.90361 2.50473,6.985 l 0.28222,1.69333 h -11.21834 c -8.96055,0 -11.25361,-0.10583 -11.25361,-0.45861 0,-1.5875 1.83445,-6.80861 3.03389,-8.64306 0.635,-0.9525 0.52917,-0.9525 4.23333,0.10584 z" id="path52" />
        <path style="stroke-width:0.03527778" inkscape:connector-curvature="0" d="m -369.0109,106.29058 c -1.55223,0.67028 -3.10445,2.71639 -3.81,5.08 -0.35278,1.09361 -1.41112,3.63361 -2.36362,5.64444 -1.51694,3.13972 -1.72861,3.88056 -1.72861,5.82084 0.0353,5.43277 3.63361,8.36083 10.40695,8.36083 3.81,0 5.89139,-0.74083 7.97278,-2.82222 1.23472,-1.23473 1.72861,-2.08139 2.08139,-3.45723 0.52916,-2.29305 0.28222,-3.81 -1.16417,-6.56166 -0.59972,-1.19945 -1.5875,-3.66889 -2.2225,-5.50334 -0.59972,-1.83444 -1.27,-3.35138 -1.48167,-3.35138 -0.21166,0 -0.49389,-0.14112 -0.67028,-0.3175 -0.17638,-0.17639 -0.10583,-0.21167 0.17639,-0.0706 0.59973,0.35277 0.52917,-0.17639 -0.21166,-1.09361 -1.62278,-2.01084 -4.62139,-2.75167 -6.985,-1.72862 z m 5.04472,1.62278 c 1.27,0.74083 2.04611,1.83444 2.39889,3.24555 0.21166,0.81139 0.10583,0.9525 -0.84667,1.16417 -0.56444,0.10583 -1.76389,0.77611 -2.64583,1.44639 l -1.5875,1.19944 -1.5875,-1.16417 c -0.84667,-0.67027 -1.97556,-1.30527 -2.46945,-1.44638 -1.94028,-0.49389 -0.45861,-3.66889 2.25778,-4.86834 1.09361,-0.45861 3.35139,-0.28222 4.48028,0.42334 z m -8.18445,3.4925 c -0.3175,1.48166 0.35278,3.4925 1.55223,4.7625 l 1.05833,1.09361 -0.635,2.29305 c -1.86972,6.70278 -0.9525,10.05417 2.89278,10.4775 4.69194,0.52917 6.31472,-3.56305 4.1275,-10.58333 l -0.67028,-2.11667 0.81139,-0.635 c 1.12889,-0.88194 1.97555,-2.78694 2.01083,-4.445 0,-1.23472 0.0706,-1.09361 0.98778,1.48167 0.52917,1.55222 1.41111,3.66889 1.94028,4.69194 2.11666,4.02167 1.86972,6.94973 -0.81139,9.63084 -1.94028,1.94027 -4.26861,2.78694 -7.79639,2.78694 -6.10306,0 -9.8425,-3.06917 -9.87778,-8.11389 0,-1.5875 0.28222,-2.50472 1.55222,-5.04472 0.84667,-1.72861 1.83445,-4.05694 2.18723,-5.22111 0.67027,-2.18722 1.05833,-2.82222 0.67027,-1.05833 z m 4.30389,3.28083 1.12889,1.09361 1.30528,-1.16417 c 1.16417,-0.98777 3.175,-2.11666 3.88056,-2.11666 0.10583,0 0.10583,0.42333 -0.0353,0.9525 -0.81139,3.31611 -4.30389,4.90361 -7.44361,3.42194 -1.30528,-0.635 -2.61056,-2.43417 -2.61056,-3.63361 0,-0.74083 0.0353,-0.74083 1.34056,-0.21167 0.70555,0.3175 1.79916,1.05834 2.43416,1.65806 z m 3.45723,4.58611 c 0.38805,2.68111 -0.88195,4.445 -2.82223,3.95111 -1.19944,-0.28222 -1.5875,-1.12889 -1.5875,-3.45722 v -1.97556 h 2.08139 2.11667 z m -4.90362,0.10583 c -0.38805,1.5875 0.35278,3.56306 1.5875,4.05695 2.2225,0.9525 3.95112,-0.635 3.77473,-3.42195 -0.14111,-2.2225 0.28222,-1.34055 0.9525,1.83445 0.91722,4.51555 0.21166,6.87916 -2.29306,7.62 -1.09361,0.3175 -1.72861,0.3175 -2.82222,0 -2.64584,-0.77611 -3.28084,-4.02167 -1.79917,-9.48972 0.42333,-1.55223 0.98778,-2.11667 0.59972,-0.59973 z" id="path54" />
        <text xml:space="preserve" style="font-style:normal;font-weight:normal;font-size:10.58333302px;line-height:1.25;font-family:sans-serif;letter-spacing:0px;word-spacing:0px;fill:#000000;fill-opacity:1;stroke:none;stroke-width:0.26458332" x="-379.40018" y="108.83096" id="text17">
            <tspan sodipodi:role="line" id="tspan15" x="-379.40018" y="108.83096" style="stroke-width:0.26458332">l</tspan>
        </text>
        <text xml:space="preserve" style="font-style:normal;font-weight:normal;font-size:10.58333302px;line-height:1.25;font-family:sans-serif;letter-spacing:0px;word-spacing:0px;fill:#000000;fill-opacity:1;stroke:none;stroke-width:0.26458332" x="-356.68655" y="109.11498" id="text17-9">
            <tspan sodipodi:role="line" id="tspan15-8" x="-356.68655" y="109.11498" style="stroke-width:0.26458332">l</tspan>
        </text>
    </g>
</svg>
