<?xml version="1.0" encoding="UTF-8" standalone="no"?>
<!-- Created with Inkscape (http://www.inkscape.org/) -->

<svg
   xmlns:dc="http://purl.org/dc/elements/1.1/"
   xmlns:cc="http://creativecommons.org/ns#"
   xmlns:rdf="http://www.w3.org/1999/02/22-rdf-syntax-ns#"
   xmlns:svg="http://www.w3.org/2000/svg"
   xmlns="http://www.w3.org/2000/svg"
   xmlns:sodipodi="http://sodipodi.sourceforge.net/DTD/sodipodi-0.dtd"
   xmlns:inkscape="http://www.inkscape.org/namespaces/inkscape"
   width="67.848595mm"
   height="75.729362mm"
   viewBox="0 0 67.848596 75.729365"
   version="1.1"
   id="svg139"
   inkscape:version="0.92.4 (5da689c313, 2019-01-14)"
   sodipodi:docname="tiger.svg">
  <defs
     id="defs133" />
  <sodipodi:namedview
     id="base"
     pagecolor="#ffffff"
     bordercolor="#666666"
     borderopacity="1.0"
     inkscape:pageopacity="0.0"
     inkscape:pageshadow="2"
     inkscape:zoom="1.4"
     inkscape:cx="716.59219"
     inkscape:cy="56.967457"
     inkscape:document-units="mm"
     inkscape:current-layer="layer1"
     showgrid="false"
     fit-margin-top="0"
     fit-margin-left="0"
     fit-margin-right="0"
     fit-margin-bottom="0"
     inkscape:window-width="1920"
     inkscape:window-height="1017"
     inkscape:window-x="1912"
     inkscape:window-y="-8"
     inkscape:window-maximized="1"
     scale-x="1.2" />
  <metadata
     id="metadata136">
    <rdf:RDF>
      <cc:Work
         rdf:about="">
        <dc:format>image/svg+xml</dc:format>
        <dc:type
           rdf:resource="http://purl.org/dc/dcmitype/StillImage" />
        <dc:title></dc:title>
      </cc:Work>
    </rdf:RDF>
  </metadata>
  <g
     inkscape:label="Layer 1"
     inkscape:groupmode="layer"
     id="layer1"
     transform="translate(349.91239,50.049203)">
    <path
       style="stroke-width:0.03527778"
       inkscape:connector-curvature="0"
       d="m -338.8963,-49.611612 c -7.40834,1.975555 -8.96056,8.819444 -2.96334,13.123334 0.91723,0.635 2.11667,1.27 2.68112,1.375833 0.9525,0.211667 1.30527,0.811389 0.81138,1.340556 -0.10583,0.105833 -0.74083,1.411111 -1.37583,2.8575 -1.5875,3.633611 -3.31611,5.891389 -6.35,8.149167 -2.71639,2.046111 -4.26861,3.98639 -3.70417,4.550834 0.24695,0.246943 0.49389,0.211666 0.77612,-0.07056 0.74083,-0.740833 1.02305,-0.45861 0.42333,0.458613 -0.56445,0.881944 -0.56445,1.058334 0.35278,3.739444 2.36361,7.1966659 8.21972,13.68777889 14.95778,16.5452789 0.98777,0.423334 1.83444,0.846667 1.83444,0.881944 0,0.03528 -0.45861,1.09361 -1.02306,2.328333 -2.43416,5.4327771 -4.72722,13.7583341 -5.04472,18.3091671 l -0.10583,1.5875 21.2725,0.105833 c 11.67694,0.03528 21.23722,-0.03528 21.23722,-0.176387 0,-0.17639 -0.24694,-1.869723 -0.52916,-3.81 -0.70556,-4.727223 -2.01084,-9.419169 -3.91584,-14.0405561 -0.84667,-2.08139 -1.55222,-3.84528 -1.55222,-3.915834 0,-0.07056 1.16417,-0.705556 2.61056,-1.375833 6.985,-3.31611301 11.7475,-8.290279 14.39333,-15.0636129 1.41111,-3.563056 1.48167,-4.30389 0.56444,-5.291666 -0.84666,-0.881944 -0.88194,-0.881944 1.05834,-0.105834 0.24694,0.105834 0.42333,-0.105833 0.42333,-0.49389 0,-0.846666 -1.65806,-2.645833 -4.445,-4.727223 -2.29306,-1.763887 -4.69194,-5.044721 -6.10306,-8.431388 -1.30527,-3.104445 -1.30527,-2.998611 0.3175,-3.527778 0.81139,-0.246944 2.18723,-1.128889 3.06917,-1.905 5.25639,-4.621389 3.03389,-10.971389 -4.445,-12.594167 -3.31611,-0.705556 -6.24417,0.881944 -8.00806,4.303889 l -0.84666,1.693336 -1.16417,-0.670278 c -1.83444,-1.093611 -5.92667,-2.363611 -8.96055,-2.822222 -4.51556,-0.705556 -9.70139,0.141111 -14.42862,2.293056 l -2.50472,1.128889 -0.42333,-1.199445 c -0.67028,-1.799167 -3.13972,-4.198056 -4.79778,-4.656667 -1.69333,-0.458611 -2.04611,-0.458611 -4.09222,0.105834 z m 3.95111,0.599722 c 1.62278,0.564444 3.03389,1.905 4.02167,3.880556 l 0.84666,1.622777 -1.37583,1.128889 -1.34056,1.093612 -1.37583,-2.010834 c -1.79917,-2.610556 -3.4925,-3.527778 -5.3975,-2.963333 -1.5875,0.458611 -3.175,2.187222 -3.175,3.421944 0,0.493889 0.21167,1.305278 0.49389,1.869723 0.59972,1.128889 3.03389,3.421944 4.30389,3.986389 0.91722,0.423333 0.98778,0.564444 0.52916,1.305278 -0.42333,0.670277 -3.66888,-0.846667 -5.29166,-2.469445 -3.95111,-4.021667 -2.43417,-8.501945 3.59833,-10.583334 2.18722,-0.776111 2.61056,-0.776111 4.16278,-0.282222 z m 42.19222,0.282222 c 4.69195,1.5875 6.70278,4.797778 5.29167,8.255 -0.98778,2.328334 -6.24417,5.961945 -6.985,4.797779 -0.45861,-0.740834 -0.38806,-0.881945 0.52917,-1.305278 2.32833,-1.058334 4.79777,-4.162778 4.79777,-6.032501 0,-1.058333 -1.69333,-2.786944 -3.13972,-3.245555 -1.79916,-0.529167 -3.63361,0.3175 -5.11528,2.434166 -0.59972,0.846667 -1.23472,1.763889 -1.44638,2.046112 -0.28223,0.352777 -0.63501,0.211666 -1.69334,-0.670278 l -1.30528,-1.128889 0.74084,-1.411111 c 1.44639,-2.751667 3.4925,-4.303889 5.78555,-4.374445 0.38806,0 1.51695,0.282222 2.54,0.635 z m -23.53028,4.056945 v 2.2225 l -2.18722,0.176389 c -2.43417,0.211666 -6.63222,1.27 -6.63222,1.693333 0,0.141111 0.98778,-0.03528 2.2225,-0.458611 1.72861,-0.564444 3.13972,-0.740833 6.77333,-0.740833 4.33917,-0.03528 6.0325,0.246944 8.96056,1.446389 0.28222,0.105833 0.38805,0.03528 0.24694,-0.176389 -0.3175,-0.564445 -3.91583,-1.516945 -6.56166,-1.799167 l -2.29306,-0.211667 v -2.116667 -2.116666 l 1.94028,0.105833 c 5.75028,0.3175 13.08805,3.915834 16.29833,8.008056 l 0.67028,0.881945 -1.86972,-0.881945 c -1.79917,-0.846666 -3.81,-1.164166 -3.81,-0.599722 0,0.141111 1.27,1.516944 2.8575,3.069167 2.71639,2.716389 4.48028,4.974167 4.1275,5.326944 -0.10583,0.07056 -0.9525,-0.176388 -1.905,-0.599722 -2.29306,-0.987778 -7.51417,-1.375833 -8.18445,-0.599722 -0.35277,0.458611 -0.21166,0.564444 1.05834,0.776111 2.75166,0.423333 5.04472,1.834445 7.90222,4.903611 1.5875,1.693334 2.75167,2.71639 2.8575,2.434167 0.10583,-0.211666 0.3175,-0.423333 0.52917,-0.423333 0.56444,0 0.10583,6.596944 -0.59973,8.607777 -0.3175,0.9525 -0.98777,2.363613 -1.44638,3.104447 -1.02306,1.622776 -1.05834,1.834443 -0.14112,1.340553 0.38806,-0.211666 1.34056,-1.305277 2.11667,-2.469443 0.77611,-1.164167 1.62278,-2.116667 1.83445,-2.116667 0.24694,0 0.3175,1.023057 0.21166,3.245557 -0.14111,2.257777 -0.10583,2.9986099 0.14111,2.398887 0.49389,-1.340554 0.49389,-5.573887 -0.0353,-6.103054 -0.42333,-0.423333 -1.09361,0.14111 -2.43416,2.081387 -0.42334,0.635 -0.45862,0.635 -0.21167,-0.03528 1.02305,-2.99861 1.23472,-4.480277 1.12889,-7.9375 -0.10584,-2.046112 -0.3175,-4.021667 -0.56445,-4.409723 -0.35277,-0.599722 -0.38805,-0.529166 -0.42333,0.776111 0,0.846667 -0.14111,1.516945 -0.28222,1.516945 -0.17639,0 -1.19945,-1.023056 -2.32834,-2.293056 -2.15194,-2.434167 -4.1275,-3.774722 -7.05555,-4.833056 l -1.79917,-0.635 2.64583,0.141111 c 1.44639,0.07056 3.35139,0.388056 4.23334,0.740834 0.88194,0.3175 1.94028,0.670278 2.39889,0.776111 2.01083,0.493889 0.0706,-2.751667 -3.88056,-6.420556 l -2.57528,-2.398889 1.37584,0.246945 c 0.74083,0.141111 2.18722,0.740833 3.21028,1.305277 1.97555,1.093612 2.64583,2.081389 4.79777,6.914445 1.76389,3.986389 3.42195,6.067778 6.70278,8.607778 2.57528,2.010833 3.70417,3.316113 2.11667,2.434167 -0.38806,-0.176387 -1.12889,-0.352777 -1.65806,-0.352777 -0.9525,0 -0.9525,0.03528 0.67028,1.552223 l 1.62278,1.5875 -0.52917,1.86972 c -0.28222,1.023057 -1.16417,3.21028 -1.97555,4.868334 -1.19945,2.5047229 -2.04612,3.5630559 -4.83306,6.3852789 -2.89278,2.85749999 -3.88056,3.59833399 -6.73806,5.009444 -11.53583,5.644449 -28.0811,5.29167 -38.31166,-0.84666401 -4.7625,-2.85749999 -9.34861,-8.29027699 -11.18306,-13.26444289 -1.55222,-4.16278 -1.55222,-3.880557 0.28223,-5.609167 1.65805,-1.516946 1.65805,-1.552223 0.74083,-1.552223 -0.52917,0 -1.27,0.17639 -1.65806,0.352777 -0.42333,0.246946 -0.67027,0.246946 -0.67027,0.03528 0,-0.211666 1.23472,-1.305279 2.75166,-2.434169 3.175,-2.434166 5.25639,-5.22111 6.985,-9.242777 1.86972,-4.480278 2.71639,-5.538611 5.18584,-6.738056 3.73944,-1.763889 3.81,-1.305278 0.35277,2.046111 -2.89277,2.8575 -4.40972,5.080001 -3.84527,5.644445 0.14111,0.141111 1.19944,-0.105833 2.43416,-0.564444 1.97556,-0.705556 7.3025,-1.446389 7.3025,-1.023056 0,0.105833 -0.81139,0.458611 -1.83444,0.811389 -2.46945,0.811389 -4.445,2.2225 -6.6675,4.7625 -1.02306,1.164167 -1.97556,2.010834 -2.11667,1.869722 -0.14111,-0.176388 -0.3175,-0.846666 -0.38805,-1.516944 -0.10584,-1.128889 -0.17639,-1.058333 -0.59973,0.881944 -0.3175,1.340556 -0.42333,3.351389 -0.3175,5.573889 0.14111,2.998613 0.3175,3.739446 1.27,5.57389 1.27,2.434167 0.59973,2.187223 -0.84666,-0.3175 -1.12889,-1.940277 -1.55223,-2.293057 -2.15195,-1.76389 -0.52916,0.423333 -0.59972,4.586113 -0.10583,5.75028 0.17639,0.4233329 0.24694,-0.423334 0.21167,-2.25778 0,-1.693333 0.10583,-2.99861 0.3175,-3.069167 0.21166,-0.07055 0.91722,0.740834 1.5875,1.834447 1.09361,1.763887 2.96333,3.31611 3.42194,2.82222 0.10583,-0.07055 -0.17639,-0.529167 -0.59972,-0.987777 -1.62278,-1.658056 -2.57528,-4.409723 -2.75167,-7.902223 -0.17639,-3.633611 0,-4.691944 0.74083,-4.056944 0.35278,0.282222 0.98778,-0.211667 2.71639,-2.151945 2.68112,-2.963333 4.69195,-4.339167 7.26723,-4.903611 1.05833,-0.246945 1.905,-0.529167 1.905,-0.705556 0,-0.917222 -4.79778,-0.881944 -7.40834,0.07056 -3.56305,1.305278 -3.38666,1.340556 -2.43416,-0.388056 0.45861,-0.811389 2.08139,-2.645833 3.59833,-4.056944 1.48167,-1.375834 2.71639,-2.716389 2.71639,-2.928056 0,-0.635 -1.76389,-0.493889 -3.45722,0.282222 -1.44639,0.670278 -1.48167,0.670278 -1.12889,0 0.59972,-1.093611 4.19805,-3.845278 6.70278,-5.115278 3.13972,-1.5875 7.47888,-2.786945 10.51277,-2.963333 0.74084,-0.03528 0.77611,0.105833 0.77611,2.2225 z m -19.47333,0.141111 c 0.70556,0.740833 1.5875,1.834444 1.905,2.398889 0.56445,1.023055 0.56445,1.058333 -0.49389,2.257778 -0.56444,0.670278 -1.34055,1.622778 -1.69333,2.116667 -0.56445,0.776111 -0.70556,0.811389 -1.62278,0.388055 -3.06917,-1.375833 -5.29167,-4.656667 -4.37444,-6.420556 0.70555,-1.411111 1.83444,-2.081389 3.45722,-2.081389 1.27,0 1.69333,0.211667 2.82222,1.340556 z m 44.94389,-0.352778 c 1.34056,1.234722 1.44639,2.575278 0.3175,4.409722 -0.81139,1.305279 -3.77472,3.527779 -4.48028,3.35139 -0.24694,-0.07056 -1.12889,-0.987778 -2.01083,-2.046111 l -1.62278,-1.940279 0.74084,-1.234722 c 2.01083,-3.4925 4.83305,-4.480278 7.05555,-2.54 z m -30.69167,50.4825019 c 4.05695,0.458613 11.07723,0.141113 15.16945,-0.705554 1.86972,-0.35278 3.63361,-0.776113 3.91583,-0.881946 0.35278,-0.105834 0.81139,0.599723 1.62278,2.54 0.635,1.481666 1.05833,2.751666 0.98778,2.8575 -0.28223,0.246946 -3.91584,1.1641661 -4.72723,1.1641661 -0.45861,0 -0.81138,0.17639 -0.81138,0.35278 0,0.211667 0.38805,0.28222 0.98777,0.14111 1.5875,-0.352777 3.73945,-0.881943 4.37445,-1.058333 0.49389,-0.1411101 0.77611,0.45861 1.65805,3.280833 0.9525,3.175 1.79917,7.055557 2.29306,10.406946 l 0.17639,1.340554 h -4.58611 c -4.51556,0 -4.55084,0 -4.55084,-0.811387 0,-0.423333 -0.21166,-1.622779 -0.45861,-2.610556 l -0.49389,-1.799167 1.62278,-0.246944 c 2.39889,-0.352779 4.62139,-0.917223 4.62139,-1.234723 0,-0.14111 -0.74083,-0.07056 -1.65806,0.17639 -0.9525,0.246944 -2.36361,0.529167 -3.13972,0.635 l -1.44639,0.246944 -1.09361,-2.2225 c -1.34055,-2.681111 -3.91583,-5.3975 -6.06778,-6.38528 -4.65666,-2.1166671 -10.08944,0.564446 -12.94694,6.38528 l -0.91722,1.940277 -2.50472,-0.246944 c -1.37584,-0.105833 -2.89278,-0.3175 -3.38667,-0.388056 -0.67028,-0.141111 -0.77611,-0.105834 -0.35278,0.176389 0.28222,0.17639 1.76389,0.458611 3.24556,0.599723 1.51694,0.141111 2.75166,0.3175 2.75166,0.458611 0,0.105833 -0.14111,0.77611 -0.3175,1.446389 -0.17639,0.670277 -0.42333,1.834444 -0.56444,2.54 l -0.21167,1.340554 h -4.19805 -4.23334 v -1.340554 c 0,-2.363612 2.78695,-13.8288891 3.35139,-13.8288891 0.0706,0 1.19945,0.2469431 2.46945,0.5291661 1.30527,0.3175 2.54,0.493887 2.78694,0.423334 0.21167,-0.07056 -0.84667,-0.423334 -2.32833,-0.776113 -1.51695,-0.3175001 -2.75167,-0.6350001 -2.75167,-0.7055541 0,-0.07056 0.3175,-0.881946 0.74083,-1.834446 0.38806,-0.917221 0.91723,-2.187221 1.19945,-2.786944 l 0.45861,-1.09361 3.21028,0.811387 c 1.76389,0.458613 4.51555,0.9525 6.10305,1.164167 z m 8.14917,5.5386131 c 3.98639,2.010833 6.985,6.773333 7.86694,12.3825 l 0.24695,1.516943 h -11.32417 -11.32416 l 0.17638,-1.164166 c 0.38806,-2.2225 1.27,-5.009444 2.15195,-6.702777 1.16417,-2.293057 3.81,-5.11528 5.57389,-5.926667 1.79916,-0.81139 5.11528,-0.881946 6.63222,-0.105833 z"
       id="path16" />
    <path
       style="stroke-width:0.03527778"
       inkscape:connector-curvature="0"
       d="m -322.17464,-14.298555 c -0.45861,0.3175 -0.81138,0.9525 -0.81138,1.41111 v 0.846667 l -1.65806,-0.740833 c -1.27,-0.564444 -2.08139,-0.670277 -3.63361,-0.529167 -3.10444,0.282223 -5.18583,1.516946 -6.38528,3.8099999 -0.635,1.27 -0.635,1.27 -2.32833,0.98778 -2.2225,-0.35278 -3.28084,-0.388057 -3.28084,-0.07056 0,0.17639 0.91723,0.3175 2.01084,0.388057 1.09361,0.07055 2.2225,0.246943 2.50472,0.388053 0.81139,0.458613 -0.49389,1.44639 -1.97556,1.481667 -1.44638,0.03528 -3.59833,0.599723 -2.36361,0.599723 0.38806,0 1.55223,-0.105833 2.57528,-0.246943 1.5875,-0.211667 1.83445,-0.17639 1.83445,0.3175 0,0.352776 -0.70556,0.881943 -1.79917,1.375833 -0.9525,0.45861 -1.69333,0.881943 -1.62278,0.987777 0.10583,0.07056 0.635,-0.07055 1.19945,-0.352777 2.11666,-1.093613 2.39889,-1.058333 2.89277,0.3175 1.05834,2.89277699 4.79778,5.468056 10.08945,6.879167 2.39889,0.670276 3.77472,0.77611 9.17222,0.77611 6.985,0 9.73667,-0.493887 13.75833,-2.469444 1.94028,-0.91722301 5.46806,-4.26861 5.46806,-5.150556 0.0353,-1.199444 0.56445,-1.340557 2.25778,-0.635 0.91722,0.423333 1.55222,0.564446 1.44639,0.352779 -0.14111,-0.176389 -0.84667,-0.599723 -1.62278,-0.917223 -0.77611,-0.282223 -1.37583,-0.776113 -1.37583,-1.093613 0,-0.423333 0.42333,-0.493887 2.57527,-0.3175 1.51695,0.105834 2.18723,0.07056 1.65806,-0.105833 -0.49389,-0.14111 -1.55222,-0.28222 -2.39889,-0.3175 -1.02305,-0.03528 -1.5875,-0.211667 -1.72861,-0.59972 -0.3175,-0.846667 0.24694,-1.12889 2.46944,-1.27 1.09362,-0.03528 2.01084,-0.246947 2.01084,-0.388057 0,-0.17639 -1.09361,-0.211667 -2.46945,-0.07056 -2.08139,0.211666 -2.46944,0.176389 -2.46944,-0.282221 0,-0.9525 -1.86972,-2.7869459 -3.70417,-3.6336129 -2.39889,-1.128887 -5.15055,-1.128887 -7.33778,0 -1.62277,0.81139 -1.65805,0.81139 -1.44639,0.07056 0.10584,-0.423334 -0.0705,-1.058334 -0.35277,-1.44639 -0.45861,-0.635 -0.98778,-0.705554 -6.45584,-0.811387 -4.97416,-0.07056 -6.06778,0 -6.70278,0.45861 z m 12.80584,0.670277 c 0.67028,0.917223 0.67028,0.9525 -0.635,2.89278 -2.32833,3.4219429 -6.35,4.2686099 -9.56028,2.0461099 -1.65806,-1.199444 -3.21028,-3.6336099 -2.8575,-4.5508339 0.38806,-0.9525 1.41111,-1.128889 7.12611,-1.09361 4.93889,0.03528 5.46806,0.105834 5.92667,0.705554 z m -15.94556,0.98778 c 0.91723,0.28222 2.18722,1.199443 3.56306,2.50472 2.39889,2.3636129 3.81,3.0691669 6.06778,3.0691669 1.94027,0 3.84527,-0.9525 5.60916,-2.822221 3.63361,-3.8452789 8.53723,-4.1980559 11.95917,-0.9172229 1.94028,1.8344439 2.01083,2.5752769 0.35278,2.8927769 -0.67028,0.105833 -1.23472,0.35278 -1.23472,0.49389 0,0.17639 0.52916,0.14111 1.12889,-0.03528 1.55222,-0.423333 1.69333,-0.423333 1.69333,0.211667 0,0.388053 -0.49389,0.529166 -2.01083,0.59972 l -2.04612,0.07056 2.04612,0.105834 c 1.44638,0.105833 2.01083,0.282223 2.01083,0.635 0,0.635 -0.17639,0.635 -1.69333,0.211667 -0.635,-0.211667 -1.12889,-0.211667 -1.12889,-0.03528 0,0.176387 0.56444,0.423333 1.23472,0.564443 1.09361,0.17639 1.23472,0.3175 1.02305,0.987777 -1.09361,3.45722299 -5.00944,6.138336 -10.93611,7.47889 -3.63361,0.81139 -12.24139,0.846666 -15.83972,0.03528 -5.50333,-1.199446 -9.31333,-3.42194601 -10.75972,-6.244166 -0.9525,-1.869723 -0.91722,-2.046113 0.52916,-2.328336 0.67028,-0.105834 1.23473,-0.352777 1.23473,-0.493887 0,-0.17639 -0.49389,-0.17639 -1.09361,0 -1.19945,0.352777 -1.86973,0.176387 -1.55223,-0.388057 0.14111,-0.17639 0.9525,-0.352777 1.86973,-0.388056 l 1.65805,-0.03528 -1.83444,-0.211667 c -1.34056,-0.14111 -1.76389,-0.3175 -1.5875,-0.635 0.21166,-0.3175 0.59972,-0.352777 1.41111,-0.14111 0.635,0.176387 1.12889,0.211667 1.12889,0.07055 0,-0.176387 -0.45861,-0.388054 -1.05834,-0.529167 -1.41111,-0.28222 -1.34055,-0.987777 0.28223,-2.7163869 1.94027,-2.08139 5.04472,-2.8575 7.97277,-2.010833 z"
       id="path18" />
    <text
       xml:space="preserve"
       style="font-style:normal;font-weight:normal;font-size:10.58333302px;line-height:1.25;font-family:sans-serif;letter-spacing:0px;word-spacing:0px;fill:#000000;fill-opacity:1;stroke:none;stroke-width:0.26458332"
       x="-328.57642"
       y="-16.572754"
       id="text17"><tspan
         sodipodi:role="line"
         id="tspan15"
         x="-328.57642"
         y="-16.572754"
         style="stroke-width:0.26458332">l</tspan></text>
    <text
       xml:space="preserve"
       style="font-style:normal;font-weight:normal;font-size:10.58333302px;line-height:1.25;font-family:sans-serif;letter-spacing:0px;word-spacing:0px;fill:#000000;fill-opacity:1;stroke:none;stroke-width:0.26458332"
       x="-305.86279"
       y="-16.288727"
       id="text17-9"><tspan
         sodipodi:role="line"
         id="tspan15-8"
         x="-305.86279"
         y="-16.288727"
         style="stroke-width:0.26458332">l</tspan></text>
  </g>
</svg>
