<?xml version="1.0" encoding="UTF-8" standalone="no"?>
<!-- Created with Inkscape (http://www.inkscape.org/) -->

<svg
   xmlns:dc="http://purl.org/dc/elements/1.1/"
   xmlns:cc="http://creativecommons.org/ns#"
   xmlns:rdf="http://www.w3.org/1999/02/22-rdf-syntax-ns#"
   xmlns:svg="http://www.w3.org/2000/svg"
   xmlns="http://www.w3.org/2000/svg"
   xmlns:sodipodi="http://sodipodi.sourceforge.net/DTD/sodipodi-0.dtd"
   xmlns:inkscape="http://www.inkscape.org/namespaces/inkscape"
   width="81.820465mm"
   height="87.488899mm"
   viewBox="0 0 81.820465 87.488899"
   version="1.1"
   id="svg3964"
   inkscape:version="0.92.4 (5da689c313, 2019-01-14)"
   sodipodi:docname="cow.svg">
  <defs
     id="defs3958" />
  <sodipodi:namedview
     id="base"
     pagecolor="#ffffff"
     bordercolor="#666666"
     borderopacity="1.0"
     inkscape:pageopacity="0.0"
     inkscape:pageshadow="2"
     inkscape:zoom="0.35"
     inkscape:cx="68.90706"
     inkscape:cy="-43.238072"
     inkscape:document-units="mm"
     inkscape:current-layer="layer1"
     showgrid="false"
     fit-margin-top="0"
     fit-margin-left="0"
     fit-margin-right="0"
     fit-margin-bottom="0"
     inkscape:window-width="1920"
     inkscape:window-height="1017"
     inkscape:window-x="1912"
     inkscape:window-y="-8"
     inkscape:window-maximized="1" />
  <metadata
     id="metadata3961">
    <rdf:RDF>
      <cc:Work
         rdf:about="">
        <dc:format>image/svg+xml</dc:format>
        <dc:type
           rdf:resource="http://purl.org/dc/dcmitype/StillImage" />
        <dc:title></dc:title>
      </cc:Work>
    </rdf:RDF>
  </metadata>
  <g
     inkscape:label="Layer 1"
     inkscape:groupmode="layer"
     id="layer1"
     transform="translate(-87.601674,-49.904364)">
    <path
       style="fill:#000000;stroke:none;stroke-width:0.03527778"
       inkscape:connector-curvature="0"
       id="path8"
       d="m 112.44852,50.821586 c -1.62278,1.728611 -1.94028,6.173611 -0.67028,9.278056 0.28223,0.670278 0.45861,1.27 0.38806,1.340556 -0.0706,0.07056 -1.05833,-0.105833 -2.2225,-0.423333 -2.57528,-0.670278 -4.62139,-0.670278 -7.51417,0 -5.04472,1.199444 -9.348609,4.162777 -12.735276,8.713611 -2.645834,3.563056 -2.751667,4.586111 -0.493889,5.820834 2.469444,1.375834 5.609167,1.975557 10.195279,1.975557 3.492496,0 4.621386,-0.105834 6.314726,-0.740834 1.16416,-0.423333 2.15194,-0.705557 2.2225,-0.635001 0.35277,0.352778 -0.81139,5.044722 -2.46945,10.089445 -1.55222,4.833056 -1.79917,5.89139 -1.905,9.172223 -0.49389,11.85333 5.50333,18.97945 17.78,21.06083 2.92806,0.49389 4.02167,0.49389 7.33778,0.17639 11.99445,-1.27 18.80306,-6.0325 21.55472,-15.09889 0.9525,-3.10444 0.88195,-10.44222 -0.14111,-15.134163 -0.38805,-1.94028 -0.84666,-5.11528 -0.98777,-7.02028 -0.24695,-3.351388 -0.21167,-3.492499 0.42333,-3.210277 2.75167,1.12889 4.09222,1.340557 8.07861,1.340557 6.73806,0 11.81806,-1.728613 11.81806,-4.021669 0,-1.164166 -3.81,-6.138333 -6.13834,-8.008056 -5.89139,-4.7625 -12.91166,-6.208889 -18.415,-3.774722 -2.8575,1.27 -4.02166,1.164167 -5.75028,-0.458611 -1.79916,-1.728612 -2.11666,-2.857501 -1.09361,-4.233334 0.42334,-0.599722 0.67028,-1.234722 0.56445,-1.411111 -0.45861,-0.776111 -4.33917,-1.905 -7.12611,-2.081389 -3.52778,-0.246945 -7.76112,0.564444 -11.50056,2.151944 l -2.71639,1.164167 -0.52917,-1.375833 c -0.3175,-0.740834 -0.56444,-1.799167 -0.56444,-2.363611 0,-0.529167 -0.17639,-1.481667 -0.38806,-2.116667 -0.3175,-0.881945 -0.56444,-1.093611 -1.41111,-1.093611 -0.67028,0 -1.37583,0.3175 -1.905,0.917222 z m 9.17222,8.784167 c 0.56445,1.128889 0.74084,2.293056 0.81139,5.961945 0.17639,5.362223 -0.3175,9.877778 -1.69333,15.204722 -2.2225,8.854724 -6.77333,14.64028 -11.60639,14.710836 -2.64583,0.03528 -4.16278,-1.728612 -3.70417,-4.268612 0.10584,-0.705557 1.05834,-3.98639 2.08139,-7.267224 1.44639,-4.550833 1.97556,-6.914443 2.25778,-9.877777 0.74083,-7.337778 2.68111,-12.523612 4.72722,-12.523612 0.98778,0 2.8575,-1.234722 3.42195,-2.257778 0.42333,-0.846667 1.30528,-1.234722 2.46944,-1.128889 0.28222,0 0.84667,0.670278 1.23472,1.446389 z m -12.3825,6.491112 c 0.14111,0.176389 -0.0353,1.234722 -0.3175,2.363611 -0.28222,1.128889 -0.52916,2.645833 -0.52916,3.351389 0,1.199445 -0.10584,1.340556 -1.76389,2.046111 -4.51556,1.940278 -11.641669,1.869723 -15.522225,-0.141111 -1.411111,-0.705555 -1.340556,-1.305278 0.3175,-2.963333 1.658056,-1.658056 5.044722,-3.351389 8.572501,-4.268612 2.716384,-0.705555 8.890004,-0.9525 9.242774,-0.388055 z m 47.27223,0.246944 c 4.69194,1.199445 8.92528,3.527778 9.91305,5.432778 0.45862,0.917223 0.45862,1.058334 -0.0353,1.552223 -0.88194,0.881944 -3.98638,1.658055 -7.40833,1.869722 -3.42194,0.211667 -5.78556,-0.176389 -8.67833,-1.375833 -1.62278,-0.670278 -1.62278,-0.740834 -2.01084,-2.857501 -0.21166,-1.199444 -0.52916,-2.751667 -0.74083,-3.386667 -0.24694,-0.917222 -0.24694,-1.305277 0.10583,-1.516944 0.74084,-0.493889 6.59695,-0.3175 8.85473,0.282222 z m -25.04722,7.655278 c 1.72861,1.799167 2.29305,3.386667 2.71638,7.97278 0.42334,4.445 1.16417,7.231943 2.50473,9.383887 0.74083,1.164166 1.16416,2.363613 1.23472,3.527779 0.14111,1.516944 0,1.975557 -0.9525,3.421944 -2.18722,3.245553 -7.19667,5.538613 -11.1125,5.044723 -2.54,-0.3175 -5.75028,-1.905 -7.40834,-3.66889 -1.79916,-1.905 -2.25777,-2.751666 -2.29305,-4.26861 0,-1.481667 0.56444,-2.645833 2.39889,-4.868333 2.2225,-2.645834 3.28083,-5.11528 3.98639,-9.38389 1.05833,-6.350001 2.64583,-8.643056 5.92666,-8.678334 1.37584,0 1.72862,0.176389 2.99862,1.516944 z m 12.34722,5.57389 c 0.81139,2.010833 0.56444,4.480277 -0.635,5.820833 -1.02306,1.234723 -2.04611,0.917223 -2.8575,-0.917223 -1.23472,-2.751667 -0.0705,-6.879167 1.86972,-6.63222 0.74083,0.07055 1.05833,0.45861 1.62278,1.72861 z" />
    <path
       style="fill:#000000;stroke:none;stroke-width:0.03527778"
       inkscape:connector-curvature="0"
       id="path10"
       d="m 112.09574,78.832144 c -0.635,1.234723 -0.77611,4.26861 -0.24694,5.644443 1.23472,3.245557 4.1275,1.552223 4.09222,-2.398887 0,-2.71639 -0.70555,-4.092223 -2.15194,-4.233333 -0.9525,-0.105834 -1.19945,0.07055 -1.69334,0.987777 z" />
    <path
       style="fill:#000000;stroke:none;stroke-width:0.03527778"
       inkscape:connector-curvature="0"
       id="path12"
       d="m 118.90436,92.83742 c -0.9525,0.246947 -1.48167,1.975557 -0.98778,3.421947 0.56444,1.72861 2.78694,4.127503 4.97416,5.326943 1.62278,0.88195 2.29306,1.05833 4.37445,1.05833 1.72861,0 2.8575,-0.21166 3.70417,-0.67027 4.55083,-2.43417 7.12611,-6.985003 4.90361,-8.748893 -0.67028,-0.564444 -1.5875,-0.635 -8.5725,-0.599723 -4.26861,0.03528 -8.04334,0.105833 -8.39611,0.211666 z m 11.53583,1.234724 c 2.15194,0.987779 0.42333,2.751666 -2.71639,2.751666 -3.4925,0 -5.11528,-1.199443 -3.4925,-2.54 0.9525,-0.740833 4.72722,-0.881943 6.20889,-0.211666 z" />
    <path
       style="fill:#000000;stroke:none;stroke-width:0.03527778"
       inkscape:connector-curvature="0"
       id="path14"
       d="m 141.0588,50.504086 c -0.10583,0.352778 -0.35278,1.622778 -0.52917,2.8575 -0.17638,1.199444 -0.74083,2.8575 -1.23472,3.633611 -1.02305,1.728611 -0.81139,2.54 0.98778,3.774723 1.41111,0.9525 3.13972,1.023056 4.05695,0.105834 0.91722,-0.917223 1.5875,-4.268612 1.27,-6.596946 -0.3175,-2.610555 -1.41112,-4.162778 -3.06917,-4.303889 -0.98778,-0.07055 -1.34056,0.03528 -1.48167,0.529167 z" />
    <path
       style="fill:#000000;stroke:none;stroke-width:0.03527778"
       inkscape:connector-curvature="0"
       id="path26"
       d="m 140.49436,117.21437 c -3.66889,1.62278 -8.29028,2.57528 -13.40556,2.78694 -5.46806,0.21167 -8.96056,-0.3175 -13.15861,-2.04611 -1.37584,-0.52917 -2.54,-0.9525 -2.57528,-0.91722 -0.21167,0.28222 -2.01083,5.15055 -2.75167,7.44361 -0.91722,2.78694 -2.08139,8.04333 -2.46944,11.21833 l -0.21167,1.69334 h 5.64445 5.60916 l 0.17639,-1.69334 c 0.38806,-3.21027 1.30528,-6.24416 2.29306,-7.65527 1.905,-2.68112 4.16278,-3.70417 8.14917,-3.70417 2.54,0 5.22111,1.02305 6.59694,2.50472 1.48167,1.62278 2.64583,4.7625 2.82222,7.76111 l 0.21167,2.78695 h 5.3975 5.43278 v -1.09361 c 0,-3.45723 -3.06917,-14.74612 -5.04472,-18.52084 l -0.77611,-1.44639 z m 2.2225,2.89278 c 1.69333,2.01083 3.35139,8.46666 2.68111,10.4775 -0.77611,2.39889 -2.96333,1.79916 -5.15056,-1.41112 -1.65805,-2.43416 -2.46944,-7.62 -1.51694,-9.45444 0.635,-1.12889 2.89278,-0.91722 3.98639,0.38806 z m -29.45695,6.59694 c 0.59972,0.81139 0.52917,1.79917 -0.3175,3.63361 -0.81139,1.83445 -1.62278,2.82222 -2.29306,2.82222 -0.77611,0 -1.55222,-1.94027 -1.55222,-3.88055 0,-1.44639 0.17639,-1.97556 0.91722,-2.68111 0.67028,-0.70556 1.09362,-0.84667 1.83445,-0.67028 0.52917,0.10583 1.16417,0.45861 1.41111,0.77611 z" />
  </g>
</svg>
