<?xml version="1.0" encoding="UTF-8" standalone="no"?>
<svg
   xmlns:dc="http://purl.org/dc/elements/1.1/"
   xmlns:cc="http://creativecommons.org/ns#"
   xmlns:rdf="http://www.w3.org/1999/02/22-rdf-syntax-ns#"
   xmlns:svg="http://www.w3.org/2000/svg"
   xmlns="http://www.w3.org/2000/svg"
   xmlns:sodipodi="http://sodipodi.sourceforge.net/DTD/sodipodi-0.dtd"
   xmlns:inkscape="http://www.inkscape.org/namespaces/inkscape"
   version="1.0"
   width="1024.000000pt"
   height="1024.000000pt"
   viewBox="0 0 1024.000000 1024.000000"
   preserveAspectRatio="xMidYMid meet"
   id="svg136"
   sodipodi:docname="depositphotos_125687230-stock-illustration-12-animals-chinese-zodiac-signs.svg"
   inkscape:version="0.92.4 (5da689c313, 2019-01-14)">
  <defs
     id="defs140" />
  <sodipodi:namedview
     pagecolor="#ffffff"
     bordercolor="#666666"
     borderopacity="1"
     objecttolerance="10"
     gridtolerance="10"
     guidetolerance="10"
     inkscape:pageopacity="0"
     inkscape:pageshadow="2"
     inkscape:window-width="640"
     inkscape:window-height="754"
     id="namedview138"
     showgrid="false"
     inkscape:zoom="0.34570312"
     inkscape:cx="784.69694"
     inkscape:cy="453.86429"
     inkscape:window-x="0"
     inkscape:window-y="0"
     inkscape:window-maximized="0"
     inkscape:current-layer="svg136" />
  <metadata
     id="metadata2">
Created by potrace 1.16, written by Peter Selinger 2001-2019
<rdf:RDF>
  <cc:Work
     rdf:about="">
    <dc:format>image/svg+xml</dc:format>
    <dc:type
       rdf:resource="http://purl.org/dc/dcmitype/StillImage" />
  </cc:Work>
</rdf:RDF>
</metadata>
  <path
     style="fill:#000000;stroke:none;stroke-width:0.1"
     inkscape:connector-curvature="0"
     id="path4"
     d="m 795,86.8 c -13.3,7 -17.7,35.4 -9.5,60.8 3.1,9.5 9.9,23.9 14.7,31.5 l 3.6,5.6 -2.4,3.9 c -3.8,6.2 -17,37.4 -18.4,43.3 -0.7,3.2 -1,8.1 -0.7,12 l 0.5,6.7 -3.6,-0.3 -3.7,-0.2 4.1,1 c 2.8,0.6 4.5,1.7 5.2,3.3 1,2.3 0.9,2.4 -4.6,3.5 l -5.7,1 6,-0.4 c 5,-0.4 6.3,-0.1 7.2,1.4 1,1.6 0.5,2 -3.8,3.5 -2.7,1 -5.2,2.2 -5.5,2.7 -0.3,0.5 2,-0.1 5,-1.2 l 5.6,-2.2 5.8,5.4 c 7.1,6.6 15.2,11.1 25.7,14.1 6.7,1.9 10.3,2.3 21.5,2.2 11.8,0 14.5,-0.4 21.5,-2.7 9.5,-3.1 19,-8.7 25.1,-14.6 l 4.5,-4.3 5.4,2 c 6.9,2.7 7.2,1.9 0.4,-1.1 -4.4,-1.9 -4.9,-2.4 -3.7,-3.9 1.1,-1.4 2.3,-1.6 7.5,-0.9 3.4,0.4 6,0.4 5.7,-0.1 -0.3,-0.4 -2,-0.8 -3.7,-0.9 -5.8,-0.2 -7.6,-1.1 -6.6,-3.6 0.5,-1.3 2,-2.5 3.6,-2.9 4.6,-1 5,-1.2 1.8,-1.3 l -3,-0.1 v -10.3 l -0.1,-10.2 -6.7,-15.5 c -3.7,-8.5 -8.2,-18.6 -10,-22.4 l -3.4,-7 5.3,-8.9 c 13.1,-22 19,-44.8 16.5,-62.8 -1.5,-10.6 -4.6,-18.4 -9.2,-23 -6.8,-6.8 -14.6,-6.2 -21.9,1.7 -8.4,9.2 -10.7,18.1 -12.1,46.9 -1.3,28.5 -0.8,26.8 -6.6,25.9 -6.2,-0.9 -13.5,-0.9 -20.4,0 l -5.6,0.7 -0.7,-15.3 C 824.1,115.3 823.2,109.3 818.1,99.1 813.7,90.5 806.5,85 799.6,85 c -0.6,0 -2.7,0.8 -4.6,1.8 z m 9.5,12.8 c 2.3,0.9 6.9,8.1 9.3,14.6 2.3,6.1 3.7,18.1 4.7,40.8 l 0.7,13.5 -5.1,4.2 c -2.7,2.4 -5.2,4.3 -5.5,4.3 -1.3,0 -11,-20.9 -14.4,-30.9 -3.3,-9.7 -3.6,-11.6 -3.6,-22.1 -0.1,-10 0.2,-12.2 2.3,-16.8 3.2,-7.1 6.7,-9.4 11.6,-7.6 z m 82.6,1.5 c 4.7,4.7 6.3,10.6 6.3,22.4 -0.1,13.4 -2.8,23.2 -10.9,39.9 -7.4,15.4 -6.4,14.6 -12.4,9.5 l -5.1,-4.4 v -7 c 0.1,-15.4 2.8,-40.9 4.9,-46.9 4.9,-13.7 11.6,-19.1 17.2,-13.5 z m -77.5,115.7 c 2.1,1.4 3.4,5.1 3.4,10.1 0,3.8 -0.6,5.6 -2.4,7.7 l -2.3,2.8 -2.7,-2.7 c -2.1,-2.1 -2.6,-3.5 -2.6,-7.7 0,-6.1 2.2,-11 5,-11 0.3,0 1,0.4 1.6,0.8 z m 68.9,3.3 c 2.6,5 1.2,13.9 -2.5,15.9 -1.5,0.8 -2.3,0.5 -3.9,-1.5 -2.7,-3.5 -3.4,-7.6 -2.1,-12.4 1.7,-6.5 5.7,-7.5 8.5,-2 z m -14.6,19.6 c 10.1,5.2 13.4,9.3 13.8,17.6 0.3,5.1 0,6.9 -1.9,10.2 -5.3,9 -16.1,13 -34.8,12.9 -10.2,-0.1 -13.6,-0.5 -18.4,-2.2 -7.6,-2.8 -12.1,-6.3 -14.8,-11.5 -6,-11.9 1.7,-24.5 18.1,-29.6 8.4,-2.6 10.6,-2.8 21.6,-1.9 7.7,0.6 10.1,1.3 16.4,4.5 z" />
  <path
     style="fill:#000000;stroke:none;stroke-width:0.1"
     inkscape:connector-curvature="0"
     id="path6"
     d="m 838.4,238 c -3.4,1.3 -6.4,5.9 -6.4,9.7 0,8.3 11.4,12.6 17.4,6.7 1.9,-2 2.6,-3.7 2.6,-6.6 0,-5 -1.3,-7.4 -5,-9.3 -3.2,-1.7 -5.4,-1.8 -8.6,-0.5 z" />
  <path
     style="fill:#000000;stroke:none;stroke-width:0.1"
     inkscape:connector-curvature="0"
     id="path8"
     d="m 359.5,90.6 c -4.6,4.9 -5.5,17.5 -1.9,26.3 0.8,1.9 1.3,3.6 1.1,3.8 -0.2,0.2 -3,-0.3 -6.3,-1.2 -7.3,-1.9 -13.1,-1.9 -21.3,0 -14.3,3.4 -26.5,11.8 -36.1,24.7 -7.5,10.1 -7.8,13 -1.4,16.5 7,3.9 15.9,5.6 28.9,5.6 9.9,0 13.1,-0.3 17.9,-2.1 3.3,-1.2 6.1,-2 6.3,-1.8 1,1 -2.3,14.3 -7,28.6 -4.4,13.7 -5.1,16.7 -5.4,26 -1.4,33.6 15.6,53.8 50.4,59.7 8.3,1.4 11.4,1.4 20.8,0.5 34,-3.6 53.3,-17.1 61.1,-42.8 2.7,-8.8 2.5,-29.6 -0.4,-42.9 -1.1,-5.5 -2.4,-14.5 -2.8,-19.9 -0.7,-9.5 -0.6,-9.9 1.2,-9.1 7.8,3.2 11.6,3.8 22.9,3.8 19.1,0 33.5,-4.9 33.5,-11.4 0,-3.3 -10.8,-17.4 -17.4,-22.7 -16.7,-13.5 -36.6,-17.6 -52.2,-10.7 -8.1,3.6 -11.4,3.3 -16.3,-1.3 -5.1,-4.9 -6,-8.1 -3.1,-12 1.2,-1.7 1.9,-3.5 1.6,-4 -1.3,-2.2 -12.3,-5.4 -20.2,-5.9 -10,-0.7 -22,1.6 -32.6,6.1 l -7.7,3.3 -1.5,-3.9 c -0.9,-2.1 -1.6,-5.1 -1.6,-6.7 0,-1.5 -0.5,-4.2 -1.1,-6 -0.9,-2.5 -1.6,-3.1 -4,-3.1 -1.9,0 -3.9,0.9 -5.4,2.6 z m 26,24.9 c 1.6,3.2 2.1,6.5 2.3,16.9 0.5,15.2 -0.9,28 -4.8,43.1 -6.3,25.1 -19.2,41.5 -32.9,41.7 -7.5,0.1 -11.8,-4.9 -10.5,-12.1 0.3,-2 3,-11.3 5.9,-20.6 4.1,-12.9 5.6,-19.6 6.4,-28 2.1,-20.8 7.6,-35.5 13.4,-35.5 2.8,0 8.1,-3.5 9.7,-6.4 1.2,-2.4 3.7,-3.5 7,-3.2 0.8,0 2.4,1.9 3.5,4.1 z m -35.1,18.4 c 0.4,0.5 -0.1,3.5 -0.9,6.7 -0.8,3.2 -1.5,7.5 -1.5,9.5 0,3.4 -0.3,3.8 -5,5.8 -12.8,5.5 -33,5.3 -44,-0.4 -4,-2 -3.8,-3.7 0.9,-8.4 4.7,-4.7 14.3,-9.5 24.3,-12.1 7.7,-2 25.2,-2.7 26.2,-1.1 z m 134,0.7 c 13.3,3.4 25.3,10 28.1,15.4 1.3,2.6 1.3,3 -0.1,4.4 -2.5,2.5 -11.3,4.7 -21,5.3 -9.7,0.6 -16.4,-0.5 -24.6,-3.9 -4.6,-1.9 -4.6,-2.1 -5.7,-8.1 -0.6,-3.4 -1.5,-7.8 -2.1,-9.6 -0.7,-2.6 -0.7,-3.7 0.3,-4.3 2.1,-1.4 18.7,-0.9 25.1,0.8 z m -71,21.7 c 4.9,5.1 6.5,9.6 7.7,22.6 1.2,12.6 3.3,20.5 7.1,26.6 2.1,3.3 3.3,6.7 3.5,10 0.4,4.3 0,5.6 -2.7,9.7 -6.2,9.2 -20.4,15.7 -31.5,14.3 -7.2,-0.9 -16.3,-5.4 -21,-10.4 -5.1,-5.4 -6.4,-7.8 -6.5,-12.1 0,-4.2 1.6,-7.5 6.8,-13.8 6.3,-7.5 9.3,-14.5 11.3,-26.6 3,-18 7.5,-24.5 16.8,-24.6 3.9,0 4.9,0.5 8.5,4.3 z m 35,15.8 c 2.3,5.7 1.6,12.7 -1.8,16.5 -2.9,3.5 -5.8,2.6 -8.1,-2.6 -3.5,-7.8 -0.2,-19.5 5.3,-18.8 2.1,0.2 3,1.3 4.6,4.9 z" />
  <path
     style="fill:#000000;stroke:none;stroke-width:0.1"
     inkscape:connector-curvature="0"
     id="path10"
     d="m 358.5,170 c -1.8,3.5 -2.2,12.1 -0.7,16 3.5,9.2 11.7,4.4 11.6,-6.8 0,-7.7 -2,-11.6 -6.1,-12 -2.7,-0.3 -3.4,0.2 -4.8,2.8 z" />
  <path
     style="fill:#000000;stroke:none;stroke-width:0.1"
     inkscape:connector-curvature="0"
     id="path12"
     d="m 377.8,209.7 c -2.7,0.7 -4.2,5.6 -2.8,9.7 1.6,4.9 7.9,11.7 14.1,15.1 4.6,2.5 6.5,3 12.4,3 4.9,0 8.1,-0.6 10.5,-1.9 12.9,-6.9 20.2,-19.8 13.9,-24.8 -1.9,-1.6 -4.5,-1.8 -24.3,-1.7 -12.1,0.1 -22.8,0.3 -23.8,0.6 z m 32.7,3.5 c 6.1,2.8 1.2,7.8 -7.7,7.8 -9.9,0 -14.5,-3.4 -9.9,-7.2 2.7,-2.1 13.4,-2.5 17.6,-0.6 z" />
  <path
     style="fill:#000000;stroke:none;stroke-width:0.1"
     inkscape:connector-curvature="0"
     id="path14"
     d="m 440.6,89.7 c -0.3,1 -1,4.6 -1.5,8.1 -0.5,3.4 -2.1,8.1 -3.5,10.3 -2.9,4.9 -2.3,7.2 2.8,10.7 4,2.7 8.9,2.9 11.5,0.3 2.6,-2.6 4.5,-12.1 3.6,-18.7 -0.9,-7.4 -4,-11.8 -8.7,-12.2 -2.8,-0.2 -3.8,0.1 -4.2,1.5 z" />
  <path
     style="fill:#000000;stroke:none;stroke-width:0.1"
     inkscape:connector-curvature="0"
     id="path16"
     d="m 563,123.7 c -4.6,0.7 -13.3,5.8 -16.2,9.4 -3.5,4.3 -4.5,10.1 -2.8,15.4 1.7,5.2 8.5,11.7 15.2,14.4 l 5.5,2.4 -3.7,8.7 c -4.8,11.2 -8.6,16.7 -15.7,22.7 -13.9,11.8 -18.2,17.3 -10.3,13.3 5.5,-2.8 5.7,-2.5 1.7,2 l -3.6,3.9 1.5,5.3 c 2.4,8.6 8.9,20.8 14.8,27.9 l 5.4,6.6 -3.8,1.2 c -2.2,0.6 -4.2,1.6 -4.5,2.1 -0.3,0.5 1.3,0.3 3.6,-0.5 5.1,-1.8 6,-1.9 8.3,-0.2 1.7,1.3 1.5,1.6 -2.6,4 -2.5,1.4 -5,3.3 -5.8,4.1 -0.7,0.9 1.4,0 4.6,-1.9 6.4,-3.9 6.3,-3.8 8.3,-2.6 1.1,0.7 0.7,1.8 -2.3,5.4 -5,6.1 -4.5,7.2 0.7,1.4 l 4.2,-4.8 8.6,4.5 c 29.6,15.6 78.7,14.8 107.8,-1.6 l 5.5,-3 4.3,4.5 c 2.4,2.5 4.3,4.2 4.3,3.7 0,-0.5 -1.7,-2.7 -3.8,-4.9 -2.6,-2.8 -3.5,-4.4 -2.8,-5.1 1.7,-1.7 3.4,-1.2 9.1,2.5 3,1.9 5.5,3.1 5.5,2.7 0,-0.4 -1.8,-1.9 -4,-3.2 -7.6,-4.6 -7.4,-4.4 -5.3,-6.2 1.6,-1.4 2.3,-1.4 7.3,0.3 6.8,2.2 7.8,1.7 1.3,-0.7 -2.6,-1 -5,-1.9 -5.2,-2 -0.2,-0.2 1.9,-2.9 4.7,-6 5.5,-6.2 11.2,-16.1 14.3,-25.1 2.6,-7.6 2.5,-8.7 -1.7,-12.9 -3.2,-3.2 -3.4,-3.5 -1.3,-2.9 1.3,0.4 3.7,1.4 5.3,2.2 l 2.8,1.5 -1.8,-3.2 c -1.1,-1.8 -5,-5.6 -8.9,-8.5 -6.6,-5 -10.8,-9.4 -14.8,-15.8 -1.9,-2.9 -8.9,-18.9 -8.4,-19.3 0.1,-0.1 2.8,-1.4 5.9,-2.8 6.6,-3.1 11.5,-7.6 13.4,-12.3 1.6,-3.7 1.8,-10.1 0.5,-13.6 -2.6,-6.7 -13.9,-13.1 -23.2,-13.1 -9.2,-0.1 -13,3.3 -19.5,17.2 -0.1,0.2 -2.9,-1 -6.2,-2.7 -13.1,-6.6 -29.8,-9.3 -43.2,-7.1 -8.4,1.4 -19.8,5.2 -24.8,8.2 -1.8,1.1 -3.5,1.9 -3.6,1.7 -0.2,-0.2 -1.5,-2.7 -2.9,-5.4 -4.9,-9.8 -11.6,-13.4 -21.7,-11.8 z m 4.5,11.3 c 1.8,1.1 5,4.5 7,7.5 l 3.8,5.4 -3.4,3.8 c -1.9,2.1 -4.2,4.9 -5.2,6.3 l -1.7,2.5 -4.6,-2.4 c -8.7,-4.6 -14.2,-13.9 -11.4,-19 1.5,-2.8 6.8,-6.1 9.9,-6.1 1.3,0 3.8,0.9 5.6,2 z m 130.2,1.3 c 2.8,2.6 3.6,4.1 3.5,6.6 -0.1,4.3 -3.3,9.1 -8.4,12.8 -7.1,5 -8.1,5 -11.9,-0.2 -1.8,-2.5 -3.6,-4.5 -4,-4.5 -1.6,0 -1.8,-3.3 -0.4,-6 2.1,-4.1 7.5,-10 9.9,-11 4.3,-1.8 7.6,-1.1 11.3,2.3 z M 641,135.4 c 3.6,0.8 8.1,2.1 10,3 l 3.5,1.5 -4,-0.7 c -2.2,-0.4 -7,-0.7 -10.7,-0.7 -7.8,0 -9.9,1.4 -10.1,6.6 -0.2,3.8 0.5,4.3 12.9,8.9 8.3,3.1 17.3,9.5 15.6,11.2 -0.5,0.5 -4.9,-1.1 -10.5,-3.7 -5.4,-2.6 -11.8,-4.8 -14.7,-5.2 -4.8,-0.6 -5,-0.5 -5,1.8 0,1.3 -0.3,4 -0.6,6 l -0.6,3.5 6.5,2.8 c 6.1,2.6 11.7,6.9 10.5,8.1 -0.3,0.3 -2.6,0.1 -5,-0.5 -2.5,-0.6 -6,-1 -7.9,-0.8 l -3.4,0.3 0.2,7.5 c 0.2,7.5 -1,12.2 -2.1,9 -0.3,-0.8 -0.7,-4.9 -0.8,-9 l -0.3,-7.5 H 619 c -3,0.1 -6.8,0.5 -8.3,0.9 -2.5,0.8 -2.9,0.6 -2.5,-1 0.2,-1.2 3.3,-3.4 8.3,-5.9 l 8,-4.1 v -5.4 -5.5 l -3.6,-0.3 c -3.7,-0.3 -8.4,1.3 -20.2,6.8 -3.8,1.7 -7.1,2.9 -7.5,2.6 -0.9,-0.9 3.8,-5.5 8.4,-8.2 2.3,-1.3 7.4,-3.5 11.4,-4.9 4,-1.4 7.9,-3 8.6,-3.6 1.9,-1.6 1.8,-5.9 -0.2,-8.8 -1.6,-2.3 -2.1,-2.3 -10.3,-1.8 -4.7,0.3 -9.7,0.9 -11.1,1.2 -2,0.5 -2.2,0.4 -0.8,-0.4 0.9,-0.6 5.2,-2 9.5,-3 9.4,-2.3 23.2,-2.6 32.3,-0.7 z m -45.8,62.7 c 3.7,4.9 2.1,17 -2.4,18.4 -5.9,1.9 -9,-11.9 -4.3,-19.1 2,-3 4.1,-2.8 6.7,0.7 z m 70.4,-0.6 c 2.2,3.4 2.9,9.6 1.5,13.8 -3.3,9.8 -10.1,6.1 -10.1,-5.4 0,-9.3 4.9,-14.1 8.6,-8.4 z m -18.1,25.9 c 1.6,1.6 2.2,3.1 1.8,4.6 -0.6,2.2 -0.6,2.2 2.8,0.5 2,-1.1 5.6,-1.8 9.3,-1.8 7.2,0 12.7,2.4 17.4,7.7 9.1,10.4 2.2,27.7 -14.2,35.2 -9.7,4.4 -16.3,5.6 -34.1,6.1 -14.4,0.4 -18.5,0.2 -26.6,-1.5 -21.1,-4.4 -32.2,-13.8 -32.3,-27.2 -0.1,-11.5 9,-20 21.6,-20.1 3.1,-0.1 6.5,0.4 7.6,1 2.6,1.4 4.5,1.4 3.7,0.1 -1,-1.7 0.4,-4.6 2.8,-5.8 1.3,-0.6 9.5,-1.1 20,-1.1 17.5,-0.1 17.8,-0.1 20.2,2.3 z" />
  <path
     style="fill:#000000;stroke:none;stroke-width:0.1"
     inkscape:connector-curvature="0"
     id="path18"
     d="m 614.5,222.5 c -0.5,0.2 -2.2,0.6 -3.6,0.9 -7.3,1.6 -2.2,13.3 7.9,18.5 7.7,3.9 16.1,2.1 22.9,-5.1 6.7,-7 6.2,-12.9 -1.4,-14.1 -3.9,-0.7 -24,-0.8 -25.8,-0.2 z" />
  <path
     style="fill:#000000;stroke:none;stroke-width:0.1"
     inkscape:connector-curvature="0"
     id="path20"
     d="m 112.9,148.7 c -1.5,0.2 -5.1,1.9 -8,3.6 -15.1,9 -16.8,30.8 -3.4,41.9 4.4,3.7 10.3,6.4 16.6,7.7 l 5.6,1.2 -1.3,5.7 c -2.8,11.6 -1.1,27.7 4,38.8 l 2.5,5.4 -6.7,0.1 -6.7,0.2 7,0.8 c 4.8,0.5 7.3,1.3 8.2,2.6 1.7,2.2 -0.1,3.1 -7.2,3.3 -2.7,0.1 -6.1,0.6 -7.5,1.1 -2.1,0.7 -2,0.8 1,0.4 8.7,-1.1 16.2,-0.8 17,0.5 1.1,1.7 0.4,3 -1.5,3 -1.8,0 -12.8,4.1 -12.3,4.6 0.2,0.2 3.7,-0.7 7.7,-2 l 7.4,-2.4 9.6,9.7 c 12.9,13.1 21.2,17.6 32.1,17.6 10.9,0 19.1,-4.5 32.3,-17.7 l 9.7,-9.8 7.7,2.5 c 4.3,1.3 7.9,2.3 8,2.1 0.5,-0.5 -6.3,-3.1 -11.4,-4.5 -3.1,-0.8 -4.1,-1.6 -3.7,-2.6 0.4,-0.8 1.1,-1.5 1.8,-1.6 1.8,-0.2 8.7,0.1 15.1,0.6 4.3,0.3 5.1,0.2 3,-0.4 -1.6,-0.5 -5.2,-1 -8,-1.1 -2.7,-0.1 -6,-0.5 -7.2,-0.8 -1.9,-0.6 -2,-0.9 -0.9,-2.4 0.9,-1.2 3.6,-2.1 8.2,-2.7 l 6.9,-0.9 -6.3,0.1 c -3.4,0.1 -6.2,-0.1 -6.2,-0.4 0,-0.4 1.1,-3.1 2.3,-6 4.7,-10.8 6.5,-23 4.8,-33.6 -0.6,-3.9 -1.3,-7.8 -1.7,-8.6 -0.4,-1.2 0.7,-1.8 4.8,-2.6 17.9,-3.8 29,-17.5 26,-32 -2.4,-11.3 -9.7,-18.8 -20.7,-21.1 -5.6,-1.2 -12.3,-0.2 -17.4,2.5 -4.2,2.1 -10.4,9.4 -13.1,15.5 -1.3,3 -2.5,5.6 -2.6,5.8 0,0.1 -2.5,-0.8 -5.5,-2.2 -15,-6.6 -37.6,-6.4 -51.1,0.5 -2,1 -4.1,1.9 -4.6,1.9 -0.4,0 -1.8,-2.4 -3.1,-5.4 -2.8,-6.9 -8.9,-13.8 -14.4,-16.5 -4.4,-2.1 -12.2,-3.2 -16.8,-2.4 z M 126,163 c 4,2 11.3,10.3 12.5,14.1 0.5,1.5 -0.3,3.1 -3.2,6.2 -2.1,2.3 -4.9,5.9 -6.2,8 -2.5,4.1 -2.9,4.2 -10.6,0.6 -6.5,-3 -11.3,-7.6 -12.6,-11.9 -2.2,-7.2 1.1,-14.8 7.5,-17.6 4.4,-1.9 8.1,-1.7 12.6,0.6 z m 115.4,-0.6 c 7,2.9 10,10.5 7.2,18.1 -1.8,4.5 -5.4,7.9 -12.2,11.3 -7,3.6 -8.1,3.6 -9.8,0.4 -0.8,-1.6 -3.6,-5.4 -6.1,-8.5 -5.2,-6.4 -5.2,-6.6 1.2,-14.5 6,-7.3 12.8,-9.7 19.7,-6.8 z m -91.8,65.4 c 4.6,3.1 4.5,17.8 -0.2,19.6 -3.7,1.4 -6.4,-2.9 -6.4,-10 0,-5.5 2.3,-10.4 5,-10.4 0.3,0 1,0.4 1.6,0.8 z m 58.4,1.9 c 1.8,2.3 2.1,3.8 1.8,8.6 -0.8,10.3 -7.2,12.8 -9.9,3.8 -1.4,-4.8 -0.5,-10.5 2.2,-13.2 2.5,-2.5 3.3,-2.4 5.9,0.8 z m -20.9,21 c 11.6,5.9 14.9,18.6 7.8,29.8 -6.6,10.4 -22.1,12.5 -31.4,4.4 -11.7,-10.3 -9.1,-28.5 5,-35 5.8,-2.7 12.1,-2.4 18.6,0.8 z" />
  <path
     style="fill:#000000;stroke:none;stroke-width:0.1"
     inkscape:connector-curvature="0"
     id="path22"
     d="m 170.8,255.7 c -5.4,3.4 -6.5,11.2 -2.2,16.2 5,6 14.7,4.8 18,-2.3 4.8,-9.9 -6.4,-19.7 -15.8,-13.9 z" />
  <path
     style="fill:#000000;stroke:none;stroke-width:0.1"
     inkscape:connector-curvature="0"
     id="path24"
     d="M 134.6,277.8 C 128,291 120.8,315.2 119.4,329 l -0.7,7 h 13.5 13.4 l 2.1,-7.3 c 4.8,-16 18.4,-24.3 35.7,-21.5 12.9,2 21,9.9 24.1,23.3 l 1.1,5 13.1,0.3 13.1,0.3 -0.5,-4.3 c -1,-8.8 -4.4,-23.9 -7.2,-32.6 -3.4,-10.3 -10,-25.2 -11.2,-25.2 -0.4,0 -1.6,1.1 -2.6,2.4 -3.2,4 -13.5,12.6 -18.9,15.7 -2.9,1.6 -8.1,3.7 -11.7,4.5 -6.3,1.6 -6.8,1.6 -13.5,-0.5 -8.4,-2.5 -17.6,-8.5 -25.9,-16.8 L 137,273 Z" />
  <path
     style="fill:#000000;stroke:none;stroke-width:0.1"
     inkscape:connector-curvature="0"
     id="path26"
     d="m 439,278.8 c -10.4,4.6 -23.5,7.3 -38,7.9 -15.5,0.6 -25.4,-0.9 -37.3,-5.8 -3.9,-1.5 -7.2,-2.7 -7.3,-2.6 -0.6,0.8 -5.7,14.6 -7.8,21.1 -2.6,7.9 -5.9,22.8 -7,31.8 L 341,336 h 16 15.9 l 0.5,-4.8 c 1.1,-9.1 3.7,-17.7 6.5,-21.7 5.4,-7.6 11.8,-10.5 23.1,-10.5 7.2,0 14.8,2.9 18.7,7.1 4.2,4.6 7.5,13.5 8,22 l 0.6,7.9 h 15.3 15.4 v -3.1 c 0,-9.8 -8.7,-41.8 -14.3,-52.5 l -2.2,-4.1 z m 6.3,8.2 c 4.8,5.7 9.5,24 7.6,29.7 -2.2,6.8 -8.4,5.1 -14.6,-4 -4.7,-6.9 -7,-21.6 -4.3,-26.8 1.8,-3.2 8.2,-2.6 11.3,1.1 z m -83.5,18.7 c 1.7,2.3 1.5,5.1 -0.9,10.3 -2.3,5.2 -4.6,8 -6.5,8 -2.2,0 -4.4,-5.5 -4.4,-11 0,-4.1 0.5,-5.6 2.6,-7.6 1.9,-2 3.1,-2.4 5.2,-1.9 1.5,0.3 3.3,1.3 4,2.2 z" />
  <path
     style="fill:#000000;stroke:none;stroke-width:0.1"
     inkscape:connector-curvature="0"
     id="path28"
     d="m 579.7,281.5 c -0.9,1.9 -1.7,4 -1.7,4.5 0,1.2 6.5,3 11,3 3.3,0.1 3.4,0.1 1.5,1.6 -1.4,1.1 -3.8,1.4 -8.5,1.2 l -6.4,-0.3 -2.7,8.5 c -1.5,4.7 -3,9.9 -3.3,11.6 -0.7,3 -0.6,3.2 3.8,4.3 2.5,0.6 5.7,1.1 7.3,1.1 2.7,0.1 2.7,0.1 0.8,1.6 -1.4,1.1 -3.7,1.4 -7.7,1.2 -3.7,-0.2 -5.9,0.1 -6.2,0.8 -0.3,0.7 -0.8,4.4 -1.2,8.3 l -0.7,7.1 h 14.5 14.5 l 0.6,-8.3 c 0.4,-4.6 1.3,-10.4 2.1,-12.9 l 1.3,-4.5 -6.8,-0.7 c -6.6,-0.6 -14.9,-3.1 -14.9,-4.5 0,-0.3 5.3,-0.5 11.9,-0.3 l 11.8,0.4 3.3,-4.2 c 10.4,-13.2 35.7,-12.6 43.7,1 l 1.8,3.2 10.8,-0.4 c 5.9,-0.2 10.7,0 10.7,0.3 0,1.2 -7.5,3.7 -13.4,4.4 -5.3,0.7 -5.7,0.9 -5.1,2.9 1.1,3.8 2.2,17.1 1.7,20.4 l -0.4,3.2 h 15.2 15.3 l -0.7,-5.3 c -1.5,-12 -1,-11.2 -7.4,-10.9 -4,0.2 -6.3,-0.1 -7.7,-1.2 -1.9,-1.5 -1.9,-1.5 0.8,-1.6 1.6,0 4.8,-0.5 7.3,-1.1 3.4,-0.9 4.3,-1.6 4,-2.8 -0.3,-0.9 -1.4,-5.2 -2.6,-9.5 -3.5,-12.7 -3.1,-12.2 -10.3,-11.8 -4.5,0.3 -6.7,-0.1 -8.2,-1.2 -1.9,-1.5 -1.9,-1.5 1.5,-1.6 1.9,0 5.2,-0.5 7.3,-1.1 3,-0.8 3.7,-1.4 3.2,-2.7 -0.4,-0.9 -1.2,-3 -1.7,-4.5 -0.8,-2 -1.5,-2.6 -2.7,-2.2 -6,2.3 -20.5,4.8 -31.1,5.4 -19.5,1 -29,0 -52.5,-5.6 -1.6,-0.3 -2.5,0.4 -3.8,3.2 z" />
  <path
     style="fill:#000000;stroke:none;stroke-width:0.1"
     inkscape:connector-curvature="0"
     id="path30"
     d="m 874.1,283.6 c -19.4,8.9 -43.7,9.3 -64.1,1 l -6,-2.5 -1.4,2.8 c -4.7,9.1 -11.2,32 -13.1,46.3 l -0.6,4.8 h 12.4 12.5 l 0.6,-4.5 c 1.1,-6.7 7,-17.9 11.6,-21.5 7.8,-6.2 18.2,-7.5 26.1,-3.5 7.2,3.8 15,14.8 17.8,25.3 l 1.2,4.2 h 12.6 12.6 l -0.7,-6.6 c -1.4,-13.6 -12,-47.2 -15.1,-48 -0.6,-0.1 -3.4,0.9 -6.4,2.2 z" />
  <path
     style="fill:#000000;stroke:none;stroke-width:0.1"
     inkscape:connector-curvature="0"
     id="path32"
     d="m 155.7,376 c -3.3,2.6 -4.7,7.5 -4.7,17 0,5.2 -0.3,7 -1,6 -0.5,-0.8 -1,-2.7 -1,-4.1 0,-3.5 -1,-4.2 -3.2,-2.2 -3,2.7 -2.5,10.9 1.2,16.6 3.4,5.4 10.5,10.9 13.5,10.5 1.7,-0.3 2,-1 2,-4.8 v -4.5 l 6.5,-0.6 c 3.6,-0.4 10,-0.4 14.4,-0.1 l 7.8,0.5 -0.6,4.3 c -0.4,3.3 -0.2,4.3 1,4.8 3.1,1.2 4.6,0.5 9.6,-4.2 7.8,-7.2 10.6,-15.1 7.5,-21.1 -1.7,-3.3 -3.7,-3.8 -3.7,-0.9 0,3 -1.1,6.8 -1.9,6.8 -0.3,0 -0.6,-3.9 -0.7,-8.8 0,-9.4 -1.6,-14.2 -5.5,-16.2 -4.2,-2.3 -4.9,-0.1 -4.9,16.4 v 15.1 h -15.3 l -15.2,-0.1 0.3,-14.8 c 0.4,-17.8 -0.5,-20 -6.1,-15.6 z" />
  <path
     style="fill:#000000;stroke:none;stroke-width:0.1"
     inkscape:connector-curvature="0"
     id="path34"
     d="m 557,392.5 c -7.4,17.4 -9.4,38 -5.8,61.2 0.9,6.5 0.8,8 -1.3,15.5 -2,7.1 -2.3,10.6 -2.4,24.3 0,13.8 0.3,17.3 2.4,25 2,7.7 9,25.7 10.4,27.2 0.3,0.2 2.7,-0.9 5.4,-2.6 18.7,-11.5 37.6,-15.4 55.8,-11.6 7.3,1.6 19.8,7 25,10.9 5.5,4.1 5.3,4.2 9,-3.8 6.8,-14.6 11.2,-37.8 10,-52 -0.4,-3.9 -0.8,-7.6 -1,-8.3 -0.3,-0.8 -3.5,0.2 -9.7,3.2 -22,10.4 -37.1,11 -55.4,2 -9.1,-4.5 -17.3,-12.9 -20.4,-21.2 -3.5,-9.1 -3.7,-21.5 -0.7,-33.2 l 2.4,-9.5 -2.3,-5.3 c -3.3,-7.3 -10.4,-18 -15.3,-22.7 l -4,-3.9 z m 8.9,17.6 c 1.7,4.3 4,11.4 5.2,15.8 l 2.2,8 -5,4.5 c -2.7,2.4 -6.2,6.3 -7.8,8.6 -2.5,3.6 -3,3.9 -3.6,2.3 -0.4,-1 -0.8,-8.1 -0.8,-15.8 -0.1,-13.5 0.8,-22.6 3,-31 1,-3.7 1.2,-3.8 2.5,-2.1 0.7,1.1 2.7,5.4 4.3,9.7 z M 575,503 c 5.8,3.1 4.1,21 -2,21 -5.8,0 -7.6,-16.6 -2.2,-20.8 1.9,-1.5 1.9,-1.5 4.2,-0.2 z m 69.5,1 c 2.7,3 3.3,12.4 1,16.7 -3.5,6.4 -8.6,2.8 -9.2,-6.5 -0.3,-4.5 0,-6.4 1.6,-9 2.4,-3.7 4.1,-4 6.6,-1.2 z" />
  <path
     style="fill:#000000;stroke:none;stroke-width:0.1"
     inkscape:connector-curvature="0"
     id="path36"
     d="m 647.2,392.4 c -4.3,4.7 -7.3,9.1 -11.8,17.4 -3,5.6 -3.8,6 -7.1,3.7 -7.6,-5.3 -24.3,-6.7 -32,-2.7 -10.3,5.4 -15.1,13 -16,25.7 -1.1,14.3 3,27.7 11.2,36.4 13.7,14.6 38.6,16 64,3.6 7.8,-3.8 20.1,-11.5 18.4,-11.5 -0.4,0 -3.1,1.1 -6.1,2.4 -11.8,5.2 -19.7,7 -31.3,7.1 -9.9,0 -11.4,-0.3 -15.2,-2.4 -4.7,-2.7 -5.1,-3.7 -0.7,-2.1 3.8,1.5 22.3,1.5 23.7,0.1 0.8,-0.8 0.5,-1.1 -1.3,-1.1 -1.3,0 -4.3,-0.9 -6.7,-2.1 -5.8,-2.8 -9.4,-8.9 -10,-17.3 -0.6,-7.4 1.4,-20.6 3.1,-20.6 0.8,0 1.1,3.7 1.1,13.2 0,12.2 0.2,13.6 2.3,17.1 1.3,2.1 3.7,4.4 5.3,5.2 3.7,2 13.3,2.9 18.3,1.8 l 3.9,-0.8 0.6,-10 c 1.2,-20.3 0.5,-40.4 -1.7,-48.5 -2.6,-9.7 -6.1,-19 -7.1,-19 -0.5,0 -2.7,2 -4.9,4.4 z m 5.6,11.3 c 2.2,9 3.6,29.3 2.6,37.7 l -0.9,8 -3.8,-5 c -2.1,-2.7 -5.6,-6.2 -7.7,-7.8 -2.2,-1.7 -4,-3.8 -4,-4.7 0,-4.5 10.3,-32.9 11.9,-32.9 0.4,0 1.3,2.1 1.9,4.7 z" />
  <path
     style="fill:#000000;stroke:none;stroke-width:0.1"
     inkscape:connector-curvature="0"
     id="path38"
     d="m 97.5,390 c -0.4,0.6 -1.2,0.8 -1.8,0.4 -0.7,-0.3 0.7,1.2 3.1,3.5 5.4,5.2 8.5,11.9 7.8,16.7 -0.8,4.5 -2,6.8 -6.4,12.3 -2.1,2.5 -3.1,4.6 -2.5,4.8 0.6,0.2 3.2,1.8 5.6,3.4 8.7,5.7 10.7,15 5.7,25 l -2.1,4.1 3.3,-0.7 c 1.8,-0.4 5.9,-1.6 9.2,-2.6 9.2,-2.9 9.1,-3 9.4,5.6 0.2,4.1 1.1,10.5 2.2,14.2 l 1.8,6.7 -3.4,4 c -4.2,4.9 -5.8,10.3 -5.1,17.7 1.1,12.5 9.8,20.6 27.2,25.5 9.2,2.5 35,3.1 45.6,1 20.9,-4.2 31.3,-13.3 31.3,-27.5 0,-7.8 -1.4,-12.6 -5.4,-17.5 -2.8,-3.6 -2.8,-3.7 -1.3,-8.4 0.8,-2.6 1.7,-9.1 2,-14.5 0.4,-6.1 1,-9.7 1.7,-9.7 0.6,0 4.5,1.1 8.6,2.4 4.1,1.3 9,2.7 10.7,3.1 l 3.3,0.7 -2.5,-5.4 c -3.1,-6.5 -3.1,-10.8 -0.4,-16.6 1.9,-3.9 7.9,-9 12.2,-10.5 0.6,-0.2 -0.5,-2.4 -2.6,-4.8 -8.8,-10.9 -8.7,-18.8 0.4,-27.9 2.7,-2.7 4.7,-5 4.4,-5 -0.4,0 -1.3,0.6 -2,1.2 -0.7,0.7 -3.2,2.4 -5.5,3.8 -10.5,6.3 -11,17.2 -1.1,26.9 l 3.7,3.7 -9.2,-0.4 c -8,-0.4 -17.2,0.5 -23.9,2.4 -1.6,0.4 -2.5,-0.4 -4.5,-4 l -2.4,-4.6 3.9,-4.1 c 10.1,-10.5 30.6,-23.9 36.7,-23.9 1,0 1.8,-0.5 1.8,-1.1 0,-1.1 -6.3,-0.5 -13.5,1.3 -6.4,1.6 -14.7,7.2 -23.6,15.9 -6.3,6.2 -8.6,7.9 -10.2,7.5 -1.5,-0.4 -3.3,0.6 -6.3,3.4 -4.1,3.8 -9.8,5.8 -12.8,4.7 -0.8,-0.3 -1.7,0 -1.9,0.8 -1.5,3.8 -2.9,18.8 -2.4,25.9 0.9,13.8 4.7,19.7 16.5,25.3 31.1,14.7 26.5,45.7 -7.7,52.2 -9.3,1.8 -30.1,1.6 -38.5,-0.3 -18.1,-4.2 -28.3,-14.2 -27.4,-26.7 0.7,-9.5 7.1,-16.5 23.3,-25.7 6,-3.4 7.4,-4.7 9.8,-9.3 3.7,-7.3 5.1,-15.5 4.4,-26.4 -0.9,-13.9 -1.4,-15.5 -4.8,-15.5 -4.1,0 -7.3,-1.5 -11.7,-5.5 -2.4,-2.1 -4.6,-3.3 -5.5,-2.9 -1,0.3 -4.9,-2.6 -11.4,-8.8 -10.4,-9.8 -16.9,-13.8 -26.1,-15.7 -6.6,-1.4 -8.9,-1.4 -9.7,-0.1 z m 13,5.4 c 8.5,4.4 18.6,12 25.8,19.4 l 3.8,3.9 -3.1,4.5 -3.2,4.5 -6.6,-1.4 c -4.2,-0.9 -10.5,-1.3 -17,-1.1 -10.1,0.3 -10.3,0.3 -8.2,-1.4 3.7,-3 7.9,-8.9 8.9,-12.4 1.9,-6.7 -2.4,-13.9 -10.8,-18.4 -3.5,-1.9 -3.5,-1.9 -0.9,-2 1.5,0 6.6,2 11.3,4.4 z m 4.5,34.1 c 15.5,2.5 16.6,2.9 16.1,5.1 -0.2,1 -0.9,5 -1.5,8.8 l -1.2,6.9 -9.4,3.9 c -5.2,2.1 -9.5,3.8 -9.7,3.8 -0.1,0 1.1,-2 2.8,-4.4 6.4,-9 4.4,-17.4 -5.3,-22.6 -5.8,-3.2 -6.7,-4 -3.7,-3.5 1.3,0.2 6.7,1.1 11.9,2 z m 134.6,0.5 c -11.9,6 -13.9,16.1 -5.2,25.9 2,2.3 2,2.4 0.1,1.6 -1.1,-0.4 -6.2,-2.4 -11.2,-4.3 -7.6,-2.9 -9.3,-3.9 -9.3,-5.6 0,-1.2 -0.6,-4.9 -1.3,-8.3 l -1.3,-6.2 7,-1.6 c 11.4,-2.4 16.8,-3.3 21.1,-3.3 l 4,-0.1 z m -100.2,24.2 c 3.3,5.2 2.8,15.8 -0.9,18.8 -2.6,2.1 -6.1,-0.2 -7.2,-4.7 -2.7,-10.6 3.5,-21.2 8.1,-14.1 z m 62.4,-0.1 c 5.8,6.1 1.8,22.4 -4.7,19 -4.4,-2.4 -4.8,-16.7 -0.5,-19.8 2.4,-1.7 3,-1.6 5.2,0.8 z" />
  <path
     style="fill:#000000;stroke:none;stroke-width:0.1"
     inkscape:connector-curvature="0"
     id="path40"
     d="m 781.5,399 c -1,1.6 0.2,5.7 3,10.5 l 2.5,4.1 6.5,-3 6.5,-3.1 -2.2,-1.9 c -5.1,-4.2 -15.2,-8.3 -16.3,-6.6 z" />
  <path
     style="fill:#000000;stroke:none;stroke-width:0.1"
     inkscape:connector-curvature="0"
     id="path42"
     d="m 893.1,400.5 c -2.9,1.4 -6.6,3.6 -8.1,4.8 l -2.8,2.4 6.5,2.8 c 7.2,3.1 6.6,3.3 10.4,-3.8 2,-3.9 2.2,-7.8 0.4,-8.4 -0.5,-0.1 -3.4,0.8 -6.4,2.2 z" />
  <path
     style="fill:#000000;stroke:none;stroke-width:0.1"
     inkscape:connector-curvature="0"
     id="path44"
     d="m 793.8,412.7 -5.6,2.5 2.5,5.6 c 1.4,3.2 2.7,5.9 2.9,6.1 0.2,0.2 3.5,-1 7.2,-2.7 3.8,-1.8 7.4,-3.2 8,-3.2 2.1,0 1.3,-2 -2.4,-6.6 -2,-2.4 -4.4,-4.4 -5.3,-4.3 -0.9,0 -4.1,1.2 -7.3,2.6 z" />
  <path
     style="fill:#000000;stroke:none;stroke-width:0.1"
     inkscape:connector-curvature="0"
     id="path46"
     d="m 875.8,414.6 c -2.1,2.6 -3.8,5 -3.8,5.3 0,0.4 2.4,1.5 5.4,2.5 3,1.1 6.7,2.7 8.2,3.7 l 2.7,1.7 2.9,-6 c 1.5,-3.3 2.8,-6.1 2.8,-6.3 0,-0.5 -11.8,-5.5 -13.1,-5.5 -0.8,0 -3.1,2.1 -5.1,4.6 z" />
  <path
     style="fill:#000000;stroke:none;stroke-width:0.1"
     inkscape:connector-curvature="0"
     id="path48"
     d="m 399.5,422.4 c -15.5,3.9 -26.3,14.8 -32.4,32.8 -2.4,6.9 -6.4,25.8 -5.7,26.5 0.1,0.1 2.4,-0.1 5.1,-0.5 4.9,-0.7 5,-0.8 5.6,-4.7 0.8,-5.7 3.5,-10.4 6.4,-11.1 6.5,-1.6 10.2,2.5 11.2,12.3 0.6,5.3 0.7,5.5 5.2,7.7 14.7,7.5 30.1,7.5 41.4,0 3,-2 3.7,-3 3.7,-5.7 0,-8.1 3.8,-14.7 8.4,-14.7 3.5,0 8.1,5 9.6,10.4 1,3.8 1.7,4.6 3.5,4.6 1.3,0 3.1,0.3 4,0.7 1.6,0.5 1.7,0 1,-4.8 -0.4,-3 -1.8,-9.7 -3.1,-14.9 -7.1,-28.3 -21.7,-40.2 -49,-39.9 -5.5,0 -12.1,0.6 -14.9,1.3 z m 32.8,4.1 c 2.6,0.9 4.7,2.1 4.7,2.6 0,0.5 -0.3,0.9 -0.7,0.9 -1.5,0 -7.2,9.5 -9.4,15.5 -2.7,7.4 -7.5,12.5 -11.7,12.5 -4.1,0 -7.3,-3.3 -11.5,-12.1 -1.9,-4.1 -5.5,-9.6 -7.8,-12.2 -2.3,-2.6 -4,-4.9 -3.8,-5.1 0.8,-0.6 9.4,-3.5 11.9,-4 5.3,-1 23.6,0.3 28.3,1.9 z" />
  <path
     style="fill:#000000;stroke:none;stroke-width:0.1"
     inkscape:connector-curvature="0"
     id="path50"
     d="m 810,422.7 c -5.2,1.8 -15,6.8 -15,7.5 0,2.2 3.2,11.9 3.8,11.6 0.4,-0.2 3,-1.5 5.7,-2.9 2.8,-1.5 6.9,-3.2 9.3,-3.9 2.3,-0.7 4.2,-1.5 4.2,-1.8 0,-0.5 -6.1,-11.2 -6.3,-11.1 -0.1,0 -0.9,0.3 -1.7,0.6 z" />
  <path
     style="fill:#000000;stroke:none;stroke-width:0.1"
     inkscape:connector-curvature="0"
     id="path52"
     d="m 869.2,424.2 c -0.5,0.7 -1.9,3.1 -3,5.4 l -2.1,4.1 5.7,1.8 c 3.1,0.9 7.4,2.8 9.5,4.2 2.1,1.3 4.2,2.2 4.5,1.8 0.3,-0.3 1.4,-3 2.3,-6 l 1.7,-5.5 -3.3,-2 c -3.4,-2.1 -10.9,-5 -13,-5 -0.7,0 -1.7,0.6 -2.3,1.2 z" />
  <path
     style="fill:#000000;stroke:none;stroke-width:0.1"
     inkscape:connector-curvature="0"
     id="path54"
     d="m 812.7,437.5 c -2.1,0.8 -6.1,2.7 -8.8,4.2 -5,2.7 -5,2.7 -4.4,6.7 1.2,7.9 1.3,7.9 4.6,5.3 1.6,-1.2 3.7,-3.8 4.8,-5.7 1,-1.9 3.7,-4.9 6,-6.7 6.2,-4.8 5.2,-6.5 -2.2,-3.8 z" />
  <path
     style="fill:#000000;stroke:none;stroke-width:0.1"
     inkscape:connector-curvature="0"
     id="path56"
     d="m 862.1,438.6 c -1,2.2 -0.8,2.8 1.1,4.5 1.3,1.1 4.1,2.9 6.3,4.1 2.2,1.1 5.7,3.4 7.8,5.1 2.1,1.6 3.9,2.8 4.1,2.6 0.2,-0.2 0.7,-2.8 1.1,-5.6 l 0.7,-5.3 -8.3,-4 c -4.6,-2.2 -9,-4 -9.9,-4 -0.9,0 -2.2,1.2 -2.9,2.6 z" />
  <path
     style="fill:#000000;stroke:none;stroke-width:0.1"
     inkscape:connector-curvature="0"
     id="path58"
     d="m 832.2,438.1 c -15.6,2.6 -23.7,11 -21.9,22.5 2.1,13 19.1,28 33,29.2 l 5.2,0.4 -2.5,-1.8 c -1.4,-1 -2.8,-2.3 -3.2,-2.8 -1.5,-2.1 -0.8,-2.7 1.4,-1.2 1.2,0.9 3.5,1.6 5,1.6 2.8,0 2.8,0 1.4,-2.9 -2.1,-4 -0.5,-5.9 8.8,-10.5 8.4,-4.1 11,-7.1 10.9,-12.2 -0.3,-9 -10.3,-18.6 -22.8,-21.9 -6.5,-1.6 -7.5,-1.7 -15.3,-0.4 z" />
  <path
     style="fill:#000000;stroke:none;stroke-width:0.1"
     inkscape:connector-curvature="0"
     id="path60"
     d="m 873.4,458.8 c 0.1,6.2 -3,10.9 -10,15.2 -8.6,5.2 -10.2,8 -7.5,13.3 l 1.8,3.5 -3,0.6 c -13.5,2.7 -28.4,-2.2 -38.2,-12.5 -6,-6.2 -8.4,-10.8 -9.4,-17.7 l -0.6,-4.4 -2.8,2.2 c -2.6,2.1 -3.2,2.1 -7.2,1 -2.7,-0.8 -7.7,-1.1 -12.4,-0.8 -16.6,1 -33,12.8 -41.7,30.1 -5.7,11.5 -5.7,14.6 0.1,16.3 6,1.9 18.9,1.6 29,-0.5 5,-1.1 9.7,-2.2 10.6,-2.6 1.4,-0.5 1.7,0.9 2.2,11.7 0.6,12.4 2.5,21.6 6.6,31.1 l 2.1,4.8 -2,8.2 c -2.6,10.8 -2.5,14.3 0.6,20.5 2.9,5.7 7.2,9.8 14.9,13.8 4,2.1 5.7,3.9 8.5,8.7 2,3.5 7.7,10.3 13.4,15.9 8.3,8.2 9.8,10.1 9.4,12.3 -0.6,2.9 -0.6,2.9 3.2,1 3.5,-1.8 6,-5.2 6,-8.2 0,-1.3 0.5,-2.3 1,-2.3 1.3,0 1.3,2.6 0,5.1 -3.4,6.3 8.7,-4 15.6,-13.4 2.4,-3.2 5.3,-8.5 6.5,-11.7 1.7,-4.6 2.7,-6.1 5.1,-7.1 6.2,-2.5 12.9,-8.9 15.5,-14.6 2.2,-4.8 2.5,-6.4 1.9,-12.2 -0.3,-3.7 -1.2,-8.8 -2,-11.4 -1.3,-4.5 -1.3,-5 1.4,-11.9 3.9,-10.2 6,-21.1 6,-31.9 0,-8.3 0.2,-9 1.8,-8.4 4.9,2 20.7,4.5 28.2,4.4 17.1,-0.1 18.9,-2.9 11.6,-17.5 -9.2,-18.1 -25,-29.4 -42,-30.2 -4.3,-0.3 -9.6,0.1 -11.8,0.7 -3.7,1.1 -4,1 -8.1,-2.3 L 873.4,454 Z M 793,472.4 c 0,0.2 -1.1,2.8 -2.5,5.7 -1.3,3 -3,7.9 -3.8,10.9 -1.7,6.7 -3.8,8.1 -15.8,11.1 -8.2,2.1 -20.4,2.3 -25.1,0.4 -8.5,-3.4 12.2,-21.3 30.7,-26.6 5.3,-1.5 16.5,-2.6 16.5,-1.5 z m 111.4,1.2 c 13.6,3.5 31.4,15.7 33.2,22.8 0.8,3.5 -0.3,4.3 -7.5,5.2 -7.1,0.9 -16.2,-0.1 -24,-2.7 -7.6,-2.6 -9.6,-4.4 -10.4,-9.5 -0.4,-2.2 -1.8,-6.7 -3.2,-10.1 -1.4,-3.5 -2.5,-6.5 -2.5,-6.8 0,-1.1 8.5,-0.4 14.4,1.1 z m -93,46.8 c 2.1,4.4 2,10.2 -0.2,14.6 -3.4,6.8 -9.3,2.6 -9.4,-6.7 0,-10.2 6.1,-15.3 9.6,-7.9 z m 68.4,-0.2 c 1.7,3.5 1.8,11 0.2,14.7 -3.6,8.7 -11.1,1.1 -9.6,-9.7 1.1,-7.9 6.6,-10.9 9.4,-5 z M 848,524 c 1,2 2.4,5.9 3.1,8.6 0.6,2.7 2.3,7.1 3.7,9.7 2.3,4.2 3.5,5.2 9.8,8.2 9.9,4.5 12.9,8.9 12.9,18.9 0,8.7 -2.3,13.7 -8.4,18.3 -6.9,5.3 -13.5,6.8 -29.6,6.7 -12.2,0 -14.8,-0.3 -19.9,-2.3 -13.7,-5.4 -20.1,-18.9 -14.7,-30.6 2.5,-5.3 6.4,-8.9 13.4,-11.9 6.7,-3 8.5,-5.5 12.4,-17.1 1.4,-4.4 3.3,-9.1 4.1,-10.3 3.5,-5.3 10,-4.4 13.2,1.8 z" />
  <path
     style="fill:#000000;stroke:none;stroke-width:0.1"
     inkscape:connector-curvature="0"
     id="path62"
     d="m 826,550 c -1.9,0.4 -2.6,1.3 -2.8,3.7 -0.6,5.8 9.5,14.2 17.2,14.3 8.9,0 20.1,-11.2 16.3,-16.4 -1.1,-1.5 -3.1,-1.8 -14.8,-2 -7.3,-0.1 -14.5,0.1 -15.9,0.4 z" />
  <path
     style="fill:#000000;stroke:none;stroke-width:0.1"
     inkscape:connector-curvature="0"
     id="path64"
     d="m 378.3,469.8 c -5.5,3.5 -3.6,21.2 2.3,21.2 3.5,0 5.4,-3.7 5.5,-10.9 0.2,-8.7 -3.3,-13.2 -7.8,-10.3 z" />
  <path
     style="fill:#000000;stroke:none;stroke-width:0.1"
     inkscape:connector-curvature="0"
     id="path66"
     d="m 445.4,471.5 c -3.8,5.8 -1.4,19.5 3.5,19.5 3.7,0 5.6,-3.7 5.6,-11 0,-5.3 -0.4,-7.3 -1.9,-8.9 -2.6,-2.8 -5.2,-2.7 -7.2,0.4 z" />
  <path
     style="fill:#000000;stroke:none;stroke-width:0.1"
     inkscape:connector-curvature="0"
     id="path68"
     d="m 457,487 c -1,1.8 -0.8,2 2.9,2 9.1,0 12.2,4.8 9.4,14.2 -1.2,4.1 -2.9,6.6 -8.1,11.8 -19.8,19.5 -53,24.6 -78.9,12 -18.8,-9.2 -29.7,-26.4 -21.7,-34.4 2.4,-2.3 7.8,-4.6 11.2,-4.6 0.7,0 1,-0.5 0.7,-1 -1.8,-3 -15.2,0.8 -17.4,4.8 -0.6,1.2 -1.1,4.3 -1.1,6.9 0,14.4 18.9,31.7 40.5,36.9 9.6,2.3 27.9,2.4 36.5,0.1 14,-3.8 29.7,-13.2 36.9,-22.3 11.1,-13.8 8.5,-28.4 -5.1,-28.4 -3.7,0 -5,0.4 -5.8,2 z" />
  <path
     style="fill:#000000;stroke:none;stroke-width:0.1"
     inkscape:connector-curvature="0"
     id="path70"
     d="m 385.7,489.7 c -1.4,1.3 -0.5,2.2 6.9,6.8 12.6,7.9 21.4,9.3 33.5,5.5 8.9,-2.8 20,-9.2 19,-10.9 -0.6,-1 -2.5,-0.5 -8.2,2.2 -10.7,5 -14.6,6.1 -22.4,6.1 -7.8,0.1 -11.2,-1 -19.9,-6.6 -5.9,-3.8 -7.7,-4.4 -8.9,-3.1 z" />
  <path
     style="fill:#000000;stroke:none;stroke-width:0.1"
     inkscape:connector-curvature="0"
     id="path72"
     d="m 658.2,543 c -3.6,7.2 -5.2,11.5 -4.8,12.8 0.4,1.1 0,5.2 -0.8,9.1 l -1.5,7.1 3.9,7.3 c 8.9,16.4 17.2,42.5 20,62.9 l 1.2,8.8 h 15.3 c 16.7,0 16.5,0.1 16.5,-6.1 0,-4.2 -2.8,-17.2 -5.2,-24.4 -2.7,-8 -12.4,-28.1 -18.6,-38.3 -2.8,-4.5 -4.8,-8.2 -4.6,-8.2 0.3,0 1.7,0.9 3.2,2 2.8,2.1 17.2,7.4 17.9,6.6 0.2,-0.2 -1.5,-1.5 -3.9,-2.9 -10.5,-6.1 -23.3,-24.3 -30.3,-43 -1,-2.6 -2,-4.7 -2.4,-4.6 -0.3,0 -3,4.9 -5.9,10.9 z" />
  <path
     style="fill:#000000;stroke:none;stroke-width:0.1"
     inkscape:connector-curvature="0"
     id="path74"
     d="m 144,542.1 c -2.1,14.5 -2.9,25 -3.6,44.4 -0.7,18.2 -0.6,19.2 1.5,23.2 1.8,3.7 8.1,9.3 10.3,9.3 0.5,0 0.8,-1 0.8,-2.3 v -2.2 h 19.2 c 10.6,0 20.8,-0.3 22.6,-0.7 2.9,-0.7 3.2,-0.5 3.2,1.5 0.1,2.1 0.2,2.1 2.5,-0.7 7.5,-9.2 11.2,-38.2 8.2,-64.2 -0.9,-8.1 -1.8,-14.9 -2,-15.1 -0.2,-0.2 -2.7,0.2 -5.4,0.8 l -5.1,1.2 0.5,3.8 c 0.5,3.7 0.5,3.8 -3.3,4.6 -4.9,1 -29.7,1 -34.7,0 -3.8,-0.8 -3.9,-0.8 -3.2,-4.7 0.7,-3.9 0.6,-3.9 -3.5,-5 -2.3,-0.6 -4.7,-1.3 -5.4,-1.6 -1,-0.4 -1.7,1.7 -2.6,7.7 z m 53.3,11.6 c 0.4,3.7 0.3,7.1 -0.1,7.4 -2.6,2.5 -39.9,2.7 -42.3,0.2 -0.4,-0.4 -0.5,-3.6 -0.2,-7 l 0.6,-6.3 13.6,0.6 c 10.9,0.4 20.7,-0.1 27.2,-1.5 0.3,0 0.9,2.9 1.2,6.6 z m -25.1,11.6 c 5.1,0.1 13,-0.2 17.6,-0.6 l 8.2,-0.8 v 6.9 7 l -7.2,1.2 c -8.1,1.4 -32.4,0.8 -35.5,-0.8 -1.5,-0.9 -1.7,-2 -1.5,-7.6 l 0.4,-6.7 4.3,0.7 c 2.4,0.3 8.5,0.7 13.7,0.7 z m 7.3,16.4 c 7.7,-0.3 15,-0.9 16.3,-1.3 2.1,-0.6 2.2,-0.4 2.2,6.9 v 7.5 l -6.7,0.9 c -8.4,1 -22.6,1 -31.5,-0.1 l -6.8,-0.8 v -5.1 c 0,-9.2 0.3,-9.5 6.8,-8.4 3.1,0.5 12,0.6 19.7,0.4 z m -4,16.8 c 5,0 12,-0.4 15.8,-0.8 l 6.7,-0.8 v 7.1 c 0,6.7 -0.1,7 -2.7,7.7 -1.6,0.5 -10.4,0.8 -19.8,0.8 -9.3,0 -18.2,-0.3 -19.7,-0.8 -2.7,-0.7 -2.8,-1 -2.8,-7.7 v -6.9 l 6.8,0.7 c 3.7,0.4 10.8,0.7 15.7,0.7 z" />
  <path
     style="fill:#000000;stroke:none;stroke-width:0.1"
     inkscape:connector-curvature="0"
     id="path76"
     d="m 599.5,534.6 c -1.1,0.3 -4.6,0.9 -7.7,1.6 -5.5,1 -5.8,1.3 -6.8,4.7 -3.4,12.2 2.5,16.6 22,16.5 11.6,0 16.6,-1.3 20,-4.9 2,-2.1 2.2,-3.1 1.7,-8.1 -0.3,-3.1 -1,-6.1 -1.5,-6.6 -2.2,-2.2 -21.4,-4.4 -27.7,-3.2 z" />
  <path
     style="fill:#000000;stroke:none;stroke-width:0.1"
     inkscape:connector-curvature="0"
     id="path78"
     d="m 577.5,541.1 c -2.2,1.1 -6.4,3.4 -9.2,5.1 l -5.3,3.2 v 6.3 c 0,7.8 1.6,11.8 7.1,17.7 5.1,5.7 12.5,9.9 20.5,12 7,1.8 22.6,2.1 29.4,0.5 7.1,-1.6 16.4,-6.5 21,-11.1 5.8,-5.8 8,-10.8 8,-18.5 0,-6.2 0,-6.3 -4.2,-9.4 -4.9,-3.5 -13.8,-8.2 -14.4,-7.6 -0.3,0.2 0,1.6 0.6,3.1 0.5,1.5 1,4.7 1,7.2 0,5.4 -2.8,8.5 -9.4,10.4 -15.8,4.4 -35,1.9 -40,-5.2 -1.8,-2.5 -2.1,-9.4 -0.6,-13.2 1.1,-3.1 0.7,-3.1 -4.5,-0.5 z" />
  <path
     style="fill:#000000;stroke:none;stroke-width:0.1"
     inkscape:connector-curvature="0"
     id="path80"
     d="m 105.7,542.4 c -6.7,1.9 -6.8,2.5 0,2 6.8,-0.6 9.8,0.7 13,5.5 3.4,5.1 3,13.5 -1.3,29.6 -8.2,30.6 -8.8,34 -8.8,49.5 0,12.5 0.3,15.3 2.2,20.4 7.5,20.3 24.5,32 50.2,34.6 33.6,3.5 70.2,-11.6 83.6,-34.6 4.8,-8.1 6.4,-14.7 6.4,-25.8 0,-15.8 -3.4,-28.4 -10.8,-40.4 -3.8,-6.1 -11.1,-15.2 -12.4,-15.2 -0.4,0 0.4,3.1 1.6,6.8 6.4,18.8 5.7,34.8 -2.2,50.7 -6.5,13.2 -19.8,23.3 -35.3,27 -7.5,1.7 -24.5,2 -32.1,0.4 -7.9,-1.6 -17.4,-6.7 -21.5,-11.3 -9.3,-10.7 -12.4,-24 -10.5,-45.4 0.7,-7.5 1.2,-17.5 1.2,-22.2 -0.1,-14.3 -3.9,-27.7 -8.9,-30.7 -3.2,-2 -9.2,-2.4 -14.4,-0.9 z m 48.5,118.7 c 13,2.5 25,2.5 37.4,-0.1 10.3,-2.1 13,-1.7 10.8,1.8 -4.9,7.7 -31.2,11.2 -47.2,6.4 -7.5,-2.4 -14.1,-7 -12.8,-9 0.9,-1.5 -0.4,-1.6 11.8,0.9 z" />
  <path
     style="fill:#000000;stroke:none;stroke-width:0.1"
     inkscape:connector-curvature="0"
     id="path82"
     d="m 432,542.4 c -3.4,1.2 -3.5,1.5 -3.8,6.8 -0.3,5.3 -0.4,5.6 -3.4,6.2 -3.9,0.8 -18.6,0.8 -21.5,0 -2,-0.6 -2.3,-1.3 -2.3,-6 0,-5.3 0,-5.3 -3.7,-6.3 -6.6,-1.9 -6.3,-2.5 -6.4,14.1 0,8.4 -0.2,17.1 -0.4,19.3 -0.2,2.2 -0.6,9.4 -0.9,16 -1,20.4 -4.2,30.6 -11,35.3 -3.7,2.5 -9.3,2.9 -12.2,0.8 -1.7,-1.3 -1.7,-1.6 -0.4,-3 0.8,-0.8 4.2,-2.1 7.5,-2.9 l 5.9,-1.3 1.9,-5.4 c 1,-2.9 2.2,-8.3 2.6,-11.8 l 0.8,-6.5 -9.3,0.7 c -28.7,2 -43.9,8 -49.1,19.3 -2,4.4 -2.4,6.5 -2,10.2 2.6,20.2 16.4,31.3 40.8,32.8 9.2,0.6 11.7,-0.1 17.9,-5.3 3.1,-2.6 3.5,-2.7 17.1,-2.8 13.6,-0.2 13.9,-0.1 11.7,1.6 -3.2,2.5 -1.2,2.2 2.9,-0.3 8.3,-5.1 18,-22.3 20.8,-36.9 1.7,-8.3 3.4,-54.4 2.7,-69.8 -0.3,-6.7 -0.5,-6.8 -6.2,-4.8 z m -11.6,15.9 7.6,-0.9 v 6.2 6.1 l -4.6,0.7 c -5.9,0.8 -13.8,0.8 -18.6,0 l -3.8,-0.7 v -6.2 -6.2 l 5.9,1 c 3.7,0.6 8.8,0.6 13.5,0 z m 7.6,20.4 v 6.2 l -4.5,0.7 c -4.6,0.6 -22.1,0.2 -22.8,-0.7 -0.2,-0.2 -0.2,-3.1 0,-6.4 l 0.5,-6 h 13.4 13.4 z m -0.2,15.3 -0.3,6.5 -6.4,0.9 c -3.5,0.4 -9.7,0.5 -13.7,0.1 l -7.4,-0.7 v -6.6 -6.7 h 14 14.1 z m 0.2,15.5 c 0,3.3 -0.4,6.5 -0.8,7.1 -1,1.6 -14.7,2.8 -22.1,1.9 l -6.1,-0.7 v -5.1 c 0,-9.7 -0.8,-9.2 15.1,-9.2 H 428 Z m -1.5,13.7 c -0.3,1.6 -0.8,4.2 -1.1,5.8 -0.3,1.7 -1.4,3.5 -2.4,4 -1,0.6 -7.6,1 -14.6,1 h -12.6 l 0.6,-3.3 c 0.4,-1.7 0.9,-4.8 1.2,-6.7 l 0.6,-3.5 h 14.4 14.4 z m -46.4,12.9 c 2.1,2.1 1.9,4.4 -0.7,8.6 -1.7,2.7 -12.8,8.3 -16.6,8.3 -6.3,0 -10.8,-4.6 -10.8,-11 0,-2.8 0.3,-3 3.8,-3.1 2,0 6.4,-1.1 9.7,-2.4 7.6,-3 11.9,-3.1 14.6,-0.4 z m 42.9,1.4 c -0.1,2.8 -5.7,11 -8,11.6 -1.4,0.4 -7.9,0.7 -14.6,0.8 l -12,0.1 3.3,-6.8 3.4,-6.7 H 409 c 8.7,0 14,0.4 14,1 z" />
  <path
     style="fill:#000000;stroke:none;stroke-width:0.1"
     inkscape:connector-curvature="0"
     id="path84"
     d="m 128,550.4 c 3.2,7.2 4.1,17.5 3.4,38.6 -0.6,16.3 -0.4,20.9 1,27.9 5,24.5 19.1,34.3 47.4,32.8 16.1,-0.8 27.1,-5.4 36,-15.1 4,-4.4 8.5,-11.5 9.7,-15.4 0.6,-2 0.3,-2.2 -3.8,-2.2 -2.9,0 -5.3,0.7 -6.8,1.9 -2.5,2 -2.4,2.7 0.7,12.2 0.5,1.6 0.1,1.6 -5,0.1 -7.2,-2 -8.6,-1 -8.6,6.4 v 5.4 l -4.6,-3.5 c -6.7,-5.1 -8,-4.7 -11.4,4.1 l -1.8,4.8 -1.5,-3 c -0.8,-1.6 -2.6,-4 -4,-5.2 -3.4,-3.2 -6,-2.2 -9.3,3.4 -1.4,2.4 -2.7,4.4 -2.9,4.4 -0.2,0 -1.1,-2.2 -2,-4.9 -2.7,-8.2 -5.4,-8.8 -12.1,-2.9 l -3.4,3 0.6,-4.6 c 0.9,-6.1 -0.5,-7.6 -6.8,-7.6 h -4.9 l 2,-2.9 c 1.2,-1.6 2.1,-4 2.1,-5.4 0,-2.1 -0.8,-2.8 -4.5,-4.2 l -4.5,-1.8 3,-3.4 c 1.7,-1.8 3,-4 3,-4.8 0,-0.7 -1.6,-2.7 -3.5,-4.2 l -3.5,-2.9 2.5,-2.4 c 3.2,-3 3.2,-5.3 -0.2,-8 -2.5,-1.9 -2.6,-2.3 -1,-3.1 0.9,-0.6 2.2,-1.9 2.8,-3 0.9,-1.7 0.7,-2.5 -1.2,-4.5 -2.1,-2.2 -2.1,-2.5 -0.6,-4.2 2.2,-2.4 2.2,-4.8 0,-6 -1.6,-0.9 -1.6,-1.2 0.1,-3.7 1.7,-2.6 1.7,-2.8 -0.5,-5.1 -1.8,-1.9 -2,-2.7 -1.1,-3.6 1.8,-1.8 1.4,-3.6 -0.9,-4.3 -1.7,-0.6 -2,-1.3 -1.5,-3.5 0.3,-2 0.1,-3 -1,-3.4 -3,-1.2 -3.3,-0.5 -1.4,3.8 z" />
  <path
     style="fill:#000000;stroke:none;stroke-width:0.1"
     inkscape:connector-curvature="0"
     id="path86"
     d="m 214,575.7 c 0,35.5 -10.9,51.6 -36.2,53.9 -9.5,0.8 -20.8,-0.9 -27.9,-4.4 l -5.6,-2.7 -1,3.2 c -1,3.3 -1,3.3 2.3,3.3 2.7,0 3.6,0.6 4.9,3 0.8,1.6 1.5,3.6 1.5,4.5 0,1.3 0.5,1.2 2.9,-0.6 1.6,-1.1 3.7,-1.9 4.7,-1.7 1.6,0.3 5.5,5 6.7,8.1 0.3,0.8 1.1,0.4 2.1,-1 4.7,-6.4 7.3,-6.8 12.2,-1.9 l 3.3,3.3 2.3,-4.6 c 1.9,-3.9 2.7,-4.5 4.8,-4.3 1.4,0.2 3.7,1.2 5.2,2.3 1.5,1 2.8,1.9 3,1.9 0.2,0 0.3,-1.6 0.4,-3.6 0.1,-5 2.6,-6.7 8.3,-5.9 3.7,0.6 4.3,0.4 3.8,-0.8 -2.9,-7.7 -1.5,-11.1 5.3,-12.2 l 4,-0.7 -1.5,-2.8 c -2.2,-4.2 -1.9,-5.8 1.6,-9.2 l 3,-3.1 -2.2,-4.2 -2.3,-4.2 2.2,-3.8 2.2,-3.7 -2.5,-3 c -1.9,-2.2 -2.5,-4.1 -2.5,-7.5 0,-4.2 -2.5,-10.3 -4.2,-10.3 -0.4,0 -0.8,5.7 -0.8,12.7 z" />
  <path
     style="fill:#000000;stroke:none;stroke-width:0.1"
     inkscape:connector-curvature="0"
     id="path88"
     d="m 641.3,582.4 c -19.3,13.4 -52,13.2 -71.5,-0.5 -1.4,-1.1 -2.9,-1.9 -3.3,-1.9 -1.2,0 -9.3,18.3 -12.9,29.1 -3.8,11.2 -7,25.2 -8.2,35.6 l -0.7,6.3 h 14.9 14.9 l 1.8,-9 c 4.3,-22.5 15.8,-35.5 31.3,-35.3 15.1,0.1 27,13.8 31.3,35.8 l 1.6,8.5 15,-0.2 15,-0.3 -0.3,-5 c -0.5,-8.1 -4.1,-24.2 -7.8,-35.5 -3.3,-10.1 -13.1,-32 -14.3,-32 -0.3,0 -3.4,2 -6.8,4.4 z" />
  <path
     style="fill:#000000;stroke:none;stroke-width:0.1"
     inkscape:connector-curvature="0"
     id="path90"
     d="m 881.4,593.5 c -5.3,3.5 -6.4,4.9 -9.5,11.5 l -3.5,7.5 2.4,7.5 c 1.3,4.1 3.1,12.8 4,19.2 l 1.6,11.8 h 13.9 14 l -0.7,-6.8 c -1.4,-13.6 -8.4,-38.9 -13.9,-50.2 l -2.2,-4.6 z" />
  <path
     style="fill:#000000;stroke:none;stroke-width:0.1"
     inkscape:connector-curvature="0"
     id="path92"
     d="m 791.4,596.8 c -6.2,15.4 -11.8,37.1 -12.6,49.2 l -0.3,4.5 14.6,0.3 14.6,0.3 0.7,-8.7 c 0.7,-9.6 3.6,-24.2 6,-29.7 1.5,-3.6 1.4,-3.7 -2.1,-9.2 -2,-3 -4.1,-5.5 -4.8,-5.5 -0.6,0 -3.9,-1.8 -7.3,-3.9 l -6,-4 z" />
  <path
     style="fill:#000000;stroke:none;stroke-width:0.1"
     inkscape:connector-curvature="0"
     id="path94"
     d="m 442.5,605.7 c -0.8,4.6 -3.1,14.2 -4,16.4 -0.5,1.3 0.2,2 2.9,2.9 9.7,3.2 19.7,15.8 18.1,23 -1.4,6.3 -7.3,11 -19.3,15.4 -9.9,3.5 -22.7,6 -49.6,9.5 -19.6,2.6 -23.3,3.3 -25,5.1 l -2.1,2.1 2.2,1.8 c 5,4.1 34.9,3.4 58.9,-1.4 48,-9.7 71,-32.8 56.8,-57 -4.8,-8.3 -16.1,-16 -29.3,-19.9 -8.1,-2.4 -8.9,-2.2 -9.6,2.1 z m 21.2,12.8 c 6,6.2 6.9,9.5 2.5,9.5 -3.8,0 -11.2,-3.9 -13.6,-7.2 -1.6,-2.3 -1.8,-3.2 -0.8,-5.3 2,-4.3 5.8,-3.4 11.9,3 z" />
  <path
     style="fill:#000000;stroke:none;stroke-width:0.1"
     inkscape:connector-curvature="0"
     id="path96"
     d="m 553.7,716.8 c -2.6,2.8 -4,11.7 -3.3,20.1 1.5,16.8 7.8,39.6 14.7,53.2 l 2.9,5.8 -3.1,9.2 c -6.4,19 -8.6,40.8 -5.5,52.5 4.4,16.6 17.2,27.9 38.1,33.6 7,1.9 10.6,2.2 28,2.2 17.4,0 21,-0.3 28,-2.2 22.3,-6.1 35,-17.9 38.5,-36 2.4,-12 0.1,-33.4 -5.4,-50.8 l -2.3,-7.1 3.5,-6.8 C 695.6,775 702,749 702,732.9 c 0,-13.7 -3.1,-18.4 -10.7,-16.4 -6.4,1.6 -20.2,13.4 -33.2,28.3 -4.8,5.5 -5.6,6.1 -7,4.8 -3.6,-3.1 -12.5,-6.7 -19.3,-7.7 -9.1,-1.4 -16.3,-0.1 -25.6,4.7 l -6.5,3.4 -3.6,-4.2 c -19.6,-23.4 -36.8,-35.2 -42.4,-29 z m 9.5,8.9 c 4.4,2.7 16.1,19.2 22.7,32.1 l 2.2,4.2 -3,3.8 c -1.7,2 -5.2,7.4 -8,11.9 l -4.9,8.3 -2,-4.3 c -8.4,-17.8 -16.1,-50.3 -13.3,-55.6 1.4,-2.6 2.4,-2.6 6.3,-0.4 z m 132.2,0.9 c 1.1,3 0.6,11.9 -1.3,20.4 -3.2,14.2 -12.1,39 -14.1,39 -0.4,0 -1.6,-1.9 -2.6,-4.2 -1,-2.3 -4.3,-7.8 -7.2,-12.1 l -5.3,-7.9 3.7,-6.7 c 11.8,-21.7 24.3,-35 26.8,-28.5 z m -46.1,27.5 c 18.3,12.1 34.8,44.6 38.5,75.7 0.8,6.9 0.7,7.5 -1.2,8.8 -4,2.6 -10.9,4.4 -16.5,4.4 -9.1,0 -14.7,-2.5 -21.7,-9.4 -18,-18.1 -21.5,-50.5 -8.3,-76.9 1.6,-3.1 3.3,-5.7 3.7,-5.7 0.5,0 2.9,1.4 5.5,3.1 z m -59,51.1 c 4.6,6.2 2.4,18.9 -3.5,19.6 -4,0.5 -6.1,-4.2 -5.6,-12.4 0.6,-9.8 4.7,-13 9.1,-7.2 z m 46.3,27.6 c 5,2.6 11,9.1 13.5,14.7 4.2,9.4 5,34.3 1.3,38 -6,6 -42.9,7.3 -50.3,1.7 -2.3,-1.7 -2.7,-3 -3.5,-10.3 -1.7,-15.2 1.6,-30.3 8.1,-37.5 3.1,-3.4 8.6,-7.2 12.3,-8.3 5,-1.5 14,-0.7 18.6,1.7 z" />
  <path
     style="fill:#000000;stroke:none;stroke-width:0.1"
     inkscape:connector-curvature="0"
     id="path98"
     d="m 660,805.2 c -2.4,4 -2.7,12.6 -0.5,16.8 1.2,2.3 2.2,3 4.5,3 4.3,0 6.3,-4.4 5.8,-12.6 -0.6,-10 -5.8,-13.7 -9.8,-7.2 z" />
  <path
     style="fill:#000000;stroke:none;stroke-width:0.1"
     inkscape:connector-curvature="0"
     id="path100"
     d="m 619.4,835.4 c -13.1,5.7 -9.5,25.8 4.9,27.3 5.5,0.6 10.4,-2.1 13.5,-7.3 7,-11.9 -5.6,-25.6 -18.4,-20 z" />
  <path
     style="fill:#000000;stroke:none;stroke-width:0.1"
     inkscape:connector-curvature="0"
     id="path102"
     d="m 187,720.4 c -20.1,4.5 -41.2,16.2 -53.5,29.8 -6.6,7.3 -13.7,21.4 -15.9,31.3 -2.1,9.6 -2.4,27.5 -0.4,28.9 1.3,1 6.5,8.3 8.2,11.6 0.5,0.8 -0.9,-0.4 -3,-2.7 -5.9,-6.3 -9.9,-8.3 -16.9,-8.3 -8.2,0 -12.2,2.3 -15.7,9 -5.3,10.1 -3.1,21.2 5.9,29.6 6.2,5.8 10.5,7.7 18.4,8.2 6.3,0.4 6.6,0.5 8.4,3.9 4.4,8.1 15.5,14.7 30,17.8 11.6,2.5 36.8,2.4 49.5,-0.3 15.4,-3.2 27.4,-10.4 31.2,-18.7 0.9,-2 1.9,-2.3 7.7,-2.7 7.9,-0.5 13.2,-2.8 18.8,-8.4 5.3,-5.3 7.3,-9.3 8,-15.8 0.7,-7.1 -1.1,-13.1 -5.6,-17.9 -3.6,-3.8 -4.2,-4.1 -10.4,-4.5 -8.1,-0.5 -13.9,1.9 -19.2,8.1 -1.9,2.2 -3.5,3.7 -3.5,3.3 0,-1.5 7.1,-11.7 8.5,-12.2 1.3,-0.5 1.5,-2.6 1.1,-12.8 -0.6,-14.3 -3.2,-26.3 -7.9,-35 -5.6,-10.6 -17.3,-20.6 -27.8,-23.8 -2.2,-0.6 -3.9,-1.4 -3.9,-1.7 0,-1.2 4.2,-7.6 5.8,-8.9 2.1,-1.6 6.7,-1.5 8.1,0.2 0.9,1 0.9,2 0,4 -1.6,3.4 -0.6,4.3 2.6,2.2 6,-3.9 4.6,-11.8 -2.5,-14.3 -4.5,-1.5 -18.9,-1.5 -26,0.1 z m 19.4,51 c 6.1,2.6 13.4,13.5 15.5,23.4 1.3,6.1 1.4,25.7 0.2,32.1 -0.8,4.2 -0.7,4.4 2.9,7.7 5,4.5 6.3,8.1 5.8,15.2 -1,13.4 -13.3,22.6 -35.1,26.2 -9.4,1.5 -32.4,1.2 -40.9,-0.5 -10,-2.1 -20.8,-7.5 -25.3,-12.8 -4.2,-4.8 -7,-13.3 -6.1,-18.2 0.4,-2.1 2.4,-5.2 5.1,-8 l 4.5,-4.6 -1.5,-8.6 c -3.5,-20.2 -1,-37.6 6.8,-46.2 5.5,-6.1 16.5,-7.8 25.9,-4 6.4,2.5 15.1,2.2 23.8,-1 6.5,-2.4 13.7,-2.7 18.4,-0.7 z M 112.9,823 c 2.1,1 5.7,4 7.9,6.5 l 4.1,4.7 -2.5,3.9 c -1.3,2.2 -2.7,5.9 -3.1,8.4 -0.5,3.9 -0.9,4.5 -2.9,4.5 -6.5,0 -17.1,-6.6 -19.8,-12.4 -2.8,-6 -1.3,-13.9 3.1,-16.5 2.9,-1.7 9.1,-1.3 13.2,0.9 z m 142.3,-0.9 c 2.3,1.3 4.8,6.7 4.8,10.6 0,6.5 -8.5,15 -17.2,17.4 -6.1,1.6 -7.2,1 -7.8,-4.1 -0.3,-2.5 -1.5,-6.1 -2.8,-8.1 l -2.2,-3.6 4.1,-4.7 c 2.3,-2.6 5.8,-5.5 7.8,-6.6 4,-2.1 10.2,-2.6 13.3,-0.9 z" />
  <path
     style="fill:#000000;stroke:none;stroke-width:0.1"
     inkscape:connector-curvature="0"
     id="path104"
     d="m 140.4,811.5 c -1.7,4.1 -1.8,9 -0.3,13.3 3.1,8.9 11.3,1.5 9.4,-8.5 -1.5,-8.3 -6.5,-11 -9.1,-4.8 z" />
  <path
     style="fill:#000000;stroke:none;stroke-width:0.1"
     inkscape:connector-curvature="0"
     id="path106"
     d="m 207.8,810.2 c -0.7,1.3 -1.2,5.1 -1.3,8.5 0,5.1 0.4,6.6 2.2,8.4 2.1,2.1 2.3,2.1 4.7,0.5 3.1,-2 4.1,-5.3 3.2,-10.9 -0.9,-5.3 -3.1,-8.7 -5.6,-8.7 -1.1,0 -2.5,1 -3.2,2.2 z" />
  <path
     style="fill:#000000;stroke:none;stroke-width:0.1"
     inkscape:connector-curvature="0"
     id="path108"
     d="m 162.3,832 c -3.1,1.3 -3,5.5 0.2,10.3 6.1,8.9 19,10.3 26.8,2.9 6.1,-5.8 7,-11.4 2,-13.3 -3.1,-1.1 -26,-1.1 -29,0.1 z" />
  <path
     style="fill:#000000;stroke:none;stroke-width:0.1"
     inkscape:connector-curvature="0"
     id="path110"
     d="m 397.4,724.5 c -5.6,3.9 -5.8,16.6 -0.4,32.5 4.7,14 6.3,16.3 3.4,4.9 -1.7,-6.5 -1.6,-17.2 0.2,-18.8 0.5,-0.5 2.1,-1.3 3.5,-1.6 2,-0.5 3.2,-0.1 4.8,1.6 2.6,2.8 2.9,12 0.6,19.4 -2,6.9 -1.1,6.8 1.5,-0.2 7.6,-20.2 7.8,-35.5 0.5,-38.3 -3.9,-1.5 -11.8,-1.2 -14.1,0.5 z" />
  <path
     style="fill:#000000;stroke:none;stroke-width:0.1"
     inkscape:connector-curvature="0"
     id="path112"
     d="m 739,753.1 c -1.7,3 -3.3,20.5 -2.5,26.9 1.6,13.5 5.3,22.8 12.1,30 8.6,9.2 18.1,10.1 29.7,3 5.7,-3.5 5.7,-3.9 -0.5,10.7 -4.8,11.3 -6.1,18.7 -4.8,26.7 3.1,19 21.1,37 45.5,45.2 9.6,3.2 25,4.3 34.7,2.4 18.3,-3.5 37.8,-15.9 47.5,-30 5.5,-8.1 7.6,-15.6 7.1,-25.7 -0.3,-7.6 -1,-10.3 -5,-20.3 -2.6,-6.3 -4.5,-11.6 -4.4,-11.8 0.2,-0.1 2.5,1.1 5.2,2.7 7.8,4.8 13.2,5.8 19.6,3.8 12,-3.8 20.2,-17.4 22.3,-37.2 0.8,-7.1 -1,-25.2 -2.7,-27.3 -1.3,-1.6 -4.1,-1.2 -10.8,1.3 -4,1.5 -5.7,1.6 -15,0.6 -15.3,-1.7 -27.6,1.2 -37.2,8.9 l -3.6,3 -5.7,-2.6 c -8.4,-3.9 -20.9,-5.7 -34,-5.1 -11.8,0.7 -18.3,2.1 -25.7,5.7 l -4.6,2.3 -4,-3.2 c -7.7,-6.1 -21.1,-10.4 -29.8,-9.7 -1.6,0.2 -6.5,0.6 -11,1.1 -7.1,0.6 -8.7,0.5 -12.9,-1.4 -6,-2.6 -8.1,-2.6 -9.5,0 z m 12.9,12.9 c 1.6,0.8 7.3,1.3 16,1.4 14.8,0.1 16.7,0.6 23.6,6.7 3.8,3.3 4.3,5.3 2.2,8.4 -1.4,2 -2.2,4.1 -6.2,15.5 -2.7,7.8 -7.6,12.2 -15.7,14 -10.8,2.4 -19.9,-3.4 -25.8,-16.4 -4.9,-10.8 -7.1,-29.2 -4.1,-34.5 l 1.3,-2.3 3.1,3 c 1.8,1.6 4.3,3.5 5.6,4.2 z m 189.5,3.8 c -0.1,10.3 -1.9,18.2 -6,26.9 -6.1,12.8 -15.6,18.1 -26.6,14.9 -7.9,-2.3 -12.2,-6.6 -14.8,-15.1 -1.2,-3.9 -3.4,-9.6 -4.8,-12.8 l -2.5,-5.8 2.4,-2.5 c 1.3,-1.4 4.4,-3.8 6.9,-5.2 4.2,-2.5 5.3,-2.7 18,-2.8 14.6,-0.1 17.3,-0.8 21.9,-5.8 2.3,-2.4 2.6,-2.5 4,-1.1 1.2,1.2 1.6,3.5 1.5,9.3 z M 811,816.6 c 0.6,1.4 1,5 1,7.9 0,4.2 -0.5,6 -2.3,8.1 -2,2.3 -2.6,2.5 -4.4,1.6 -5.3,-2.8 -5.8,-15.6 -0.8,-20.5 2.1,-2.1 5.2,-0.7 6.5,2.9 z m 69.7,4.7 c 0.7,5.5 -1.2,11.3 -4,12.8 -1.8,1 -2.4,0.8 -4.4,-1.5 -4.1,-4.8 -2.8,-18.1 1.9,-19.9 2.4,-0.9 6,3.8 6.5,8.6 z m -72.2,18 c 6.4,4.4 8.6,4.7 13.8,2.1 4.9,-2.6 12.6,-4.4 18.8,-4.4 5.8,0 18.3,3.2 19.4,5 1.2,1.9 7.6,1.1 10.9,-1.5 3.5,-2.7 12.5,-6.9 13.2,-6.2 0.3,0.2 -2,2.3 -5,4.6 -5.9,4.4 -10.3,10.8 -11.7,17 -1,4.5 0.9,12.1 3.7,15.2 0.9,1 1.2,1.9 0.6,1.9 -1.3,0 -5.2,-5.3 -5.2,-7 0,-0.6 -1.8,0.4 -3.9,2.2 -5.1,4.4 -13.3,6.9 -22.5,7 -8.9,0.1 -16,-2.1 -21.4,-6.7 -3.6,-3.2 -4.1,-3.3 -4.6,-1.7 -0.4,1 -1.7,2.9 -3,4.1 l -2.4,2.3 2.4,-4.8 c 4.9,-9.6 2.6,-18.2 -7.5,-27.7 -3.3,-3.2 -6.1,-6.1 -6.1,-6.3 0,-1.2 5,1.1 10.5,4.9 z" />
  <path
     style="fill:#000000;stroke:none;stroke-width:0.1"
     inkscape:connector-curvature="0"
     id="path114"
     d="m 833.2,840.1 c -6.6,1.1 -10.2,3 -13.5,6.9 -4.7,5.6 -4.5,14.1 0.6,18.8 6,5.6 19.1,8.5 28.5,6.2 16,-3.8 22,-17.8 11.7,-26.9 -5.3,-4.7 -16.7,-6.7 -27.3,-5 z" />
  <path
     style="fill:#000000;stroke:none;stroke-width:0.1"
     inkscape:connector-curvature="0"
     id="path116"
     d="m 388.8,758 c -18.9,7.2 -29.1,25.5 -34.3,61.2 -0.8,5.9 -2.4,23 -3.6,38 -2.2,29.8 -2.6,31.3 -8.9,35.6 -1.8,1.2 -5.1,2.5 -7.3,2.9 -3.7,0.5 -3.8,0.7 -2.2,2 2.7,1.9 8.5,1.6 12.3,-0.7 1.8,-1.1 3.4,-2 3.6,-2 0.2,0 0.6,2.1 0.8,4.7 0.5,4.8 3.4,13 4.3,12.1 0.5,-0.4 1.3,-4.3 1.4,-6.7 0.1,-0.8 1.5,0.7 3.2,3.4 3.1,4.8 4.7,6.5 8.1,8.5 1.4,0.8 1.5,0.5 1.1,-3 l -0.6,-4 5.6,3.4 c 6.7,3.9 23.1,9.6 30.2,10.3 8,0.8 26.5,-4.9 36.8,-11.4 l 4,-2.5 -0.6,4.2 -0.5,4.1 2.6,-1.7 c 3.3,-2.1 4.6,-3.7 7.4,-8.9 l 2.2,-4 0.7,3.5 c 0.4,1.9 0.5,3.8 0.3,4.2 -0.3,0.5 -0.1,0.8 0.4,0.8 1.6,0 4.2,-6.6 4.9,-11.9 l 0.6,-5 3.6,2 c 4.2,2.2 9.9,2.5 12.6,0.6 1.6,-1.3 1.5,-1.5 -2.2,-2 -2.2,-0.4 -5.5,-1.7 -7.3,-2.9 -6.6,-4.5 -6.7,-5.1 -9,-31.8 -3.7,-43.9 -7.4,-62.9 -15.5,-79.7 -5.2,-10.6 -11.5,-17.6 -19.6,-21.7 -7.6,-3.7 -8.3,-3.5 -10.8,3.2 -1.2,3.2 -3.6,8.2 -5.3,11.2 l -3.1,5.4 -2,-4 c -1.1,-2.1 -3.5,-7.2 -5.3,-11.2 -1.7,-4 -3.3,-7.5 -3.5,-7.7 -0.2,-0.2 -2.5,0.5 -5.1,1.5 z m 23.1,48 c 4.8,2.4 7.1,6.1 11.1,17.5 1.8,4.9 4.5,11.1 6,13.9 6.5,11.5 5.9,21 -1.9,28.7 -5.2,5.3 -9.2,6.8 -19.9,7.6 -14.9,1.1 -26.3,-4.6 -29.7,-14.8 -2.3,-6.9 -1.5,-12 3.4,-21.7 2.2,-4.4 4.9,-10.8 6.1,-14.2 3.9,-11.5 7.1,-16.1 13,-18.3 3.1,-1.2 8.2,-0.6 11.9,1.3 z" />
  <path
     style="fill:#000000;stroke:none;stroke-width:0.1"
     inkscape:connector-curvature="0"
     id="path118"
     d="m 398.5,808.9 c -4.2,1.9 -7,5.1 -8,9.3 -0.6,2.2 -0.2,2.6 3.5,3.7 2.2,0.6 5.6,2.5 7.4,4.2 l 3.5,3 4.5,-3.5 c 2.5,-1.9 5.9,-3.7 7.6,-4.1 2,-0.4 3,-1.3 3,-2.4 0,-2.9 -4.2,-8.2 -8,-10.2 -4.4,-2.4 -8.4,-2.4 -13.5,0 z" />
  <path
     style="fill:#000000;stroke:none;stroke-width:0.1"
     inkscape:connector-curvature="0"
     id="path120"
     d="m 390,824.9 c 0,6.2 7.8,13.1 14.8,13.1 4.3,0 9.7,-2.5 12.2,-5.7 1.9,-2.5 4.3,-9.3 3.5,-10.1 -0.9,-1 -7.6,2.2 -11.4,5.4 l -4.1,3.6 -3.6,-3.1 c -2.8,-2.5 -9.3,-6.1 -11,-6.1 -0.2,0 -0.4,1.3 -0.4,2.9 z" />
  <path
     style="fill:#000000;stroke:none;stroke-width:0.1"
     inkscape:connector-curvature="0"
     id="path122"
     d="m 395.5,842.7 c -2.5,7.3 -3.2,20.1 -1.1,24.1 2.1,4.1 4.3,5.2 10.9,5.2 6.1,0 10.1,-2.6 11.3,-7.5 1,-4 -0.2,-16.3 -2.2,-21.8 -1.9,-5.6 -2.9,-5.4 -2.5,0.4 0.5,8 -3.1,12.1 -9.4,10.5 -3.1,-0.8 -4.7,-4.5 -4.4,-10.3 0.4,-6 -0.6,-6.2 -2.6,-0.6 z" />
  <path
     style="fill:#000000;stroke:none;stroke-width:0.1"
     inkscape:connector-curvature="0"
     id="path124"
     d="m 137.5,884.4 c -7.1,10.8 -16.5,40.2 -19,59.3 l -0.7,5.3 h 12 11.9 l 0.7,-5.8 c 2.8,-24.7 21.2,-43.2 39,-39.2 7,1.6 11.6,4.2 16.8,9.8 7.3,7.7 11.7,18.1 13.3,31.2 l 0.5,4.5 11.5,-0.3 11.4,-0.3 -0.4,-2.7 c -0.2,-1.5 -1,-6.1 -1.6,-10.2 -1.4,-9.3 -6.1,-26.1 -9.5,-34.3 -4.1,-9.8 -8.6,-18.7 -9.5,-18.7 -0.4,0 -3.4,0.7 -6.6,1.5 -15.6,4.1 -44.8,3.9 -61.1,-0.4 l -7.3,-1.9 z" />
  <path
     style="fill:#000000;stroke:none;stroke-width:0.1"
     inkscape:connector-curvature="0"
     id="path126"
     d="M 788.5,895.4 C 782.9,908 776,935.5 776,945 v 4 h 16 15.9 l 1.1,-4.3 c 3.7,-14.8 10,-23.5 21,-29.2 5.5,-2.9 15.2,-2.5 21.6,0.8 9.2,4.7 16.8,15.4 19.5,27.4 l 1.2,5.3 h 16.4 16.3 l -0.4,-2.3 c -0.3,-1.2 -0.8,-4.8 -1.1,-8 -0.7,-6.6 -4.4,-22.2 -7.3,-31.2 -2.1,-6.3 -6.1,-16.7 -6.7,-17.4 -0.2,-0.1 -3,1.3 -6.3,3.3 -24.6,15.2 -53.2,16.6 -78.7,3.9 -3.8,-2 -8.2,-4.4 -9.7,-5.4 -1.4,-1.1 -2.9,-1.9 -3.3,-1.9 -0.3,0 -1.7,2.4 -3,5.4 z" />
  <path
     style="fill:#000000;stroke:none;stroke-width:0.1"
     inkscape:connector-curvature="0"
     id="path128"
     d="m 580.4,896.8 c -5.6,12.9 -10.7,31.8 -12.9,47.4 l -0.6,4.8 h 15.4 15.4 l 0.6,-5 c 1.5,-12.3 7,-22.4 15.4,-28.4 4.8,-3.3 11.6,-4.4 17.9,-2.7 9.6,2.6 18.5,15.1 20.7,29 l 1.1,7.1 h 15.4 15.3 l -0.6,-4.8 c -2.1,-14.9 -6.4,-31.3 -11.6,-43.8 l -3,-7.2 -4.8,1.9 c -9.4,3.5 -21.9,5.3 -38.1,5.3 -16.6,0 -26.3,-1.2 -37.3,-4.9 l -6.7,-2.3 z" />
  <path
     style="fill:#000000;stroke:none;stroke-width:0.1"
     inkscape:connector-curvature="0"
     id="path130"
     d="m 341.2,910.7 c -3,11.3 -5,21.7 -5.8,30.6 l -0.7,7.8 14.9,-0.3 14.9,-0.3 2.7,-5 c 2.8,-5.1 5.8,-16.1 5.8,-21.1 0,-2.6 -0.1,-2.7 -2,-0.9 -2.4,2.2 -5.7,1.5 -9.9,-2 -2.2,-1.9 -3.6,-2.4 -5.5,-1.9 -3.4,0.8 -7.8,-3.8 -9.6,-10.1 -0.7,-2.5 -1.6,-4.5 -2,-4.5 -0.4,0 -1.6,3.5 -2.8,7.7 z" />
  <path
     style="fill:#000000;stroke:none;stroke-width:0.1"
     inkscape:connector-curvature="0"
     id="path132"
     d="m 463.8,907.8 c -2.5,6.9 -6.1,10.5 -9.7,9.7 -1.9,-0.4 -3.2,-0.1 -4.1,1 -1.6,2 -6.4,4.5 -8.4,4.5 -0.8,0 -2.2,-0.7 -3,-1.6 -1.5,-1.4 -1.6,-1.1 -1.6,2.8 0,5.6 2.4,13.9 5.8,20 l 2.7,4.8 h 14.9 14.9 l -0.7,-7.8 c -1.1,-11.9 -6.9,-38.2 -8.5,-38.2 -0.4,0 -1.4,2.2 -2.3,4.8 z" />
</svg>
