<?xml version="1.0" encoding="UTF-8" standalone="no"?>
<!-- Created with Inkscape (http://www.inkscape.org/) -->

<svg
   xmlns:dc="http://purl.org/dc/elements/1.1/"
   xmlns:cc="http://creativecommons.org/ns#"
   xmlns:rdf="http://www.w3.org/1999/02/22-rdf-syntax-ns#"
   xmlns:svg="http://www.w3.org/2000/svg"
   xmlns="http://www.w3.org/2000/svg"
   xmlns:sodipodi="http://sodipodi.sourceforge.net/DTD/sodipodi-0.dtd"
   xmlns:inkscape="http://www.inkscape.org/namespaces/inkscape"
   width="53.544407mm"
   height="82.492134mm"
   viewBox="0 0 53.544407 82.492134"
   version="1.1"
   id="svg4319"
   inkscape:version="0.92.4 (5da689c313, 2019-01-14)"
   sodipodi:docname="dog.svg">
  <defs
     id="defs4313" />
  <sodipodi:namedview
     id="base"
     pagecolor="#ffffff"
     bordercolor="#666666"
     borderopacity="1.0"
     inkscape:pageopacity="0.0"
     inkscape:pageshadow="2"
     inkscape:zoom="0.35"
     inkscape:cx="101.18628"
     inkscape:cy="155.89065"
     inkscape:document-units="mm"
     inkscape:current-layer="layer1"
     showgrid="false"
     fit-margin-top="0"
     fit-margin-left="0"
     fit-margin-right="0"
     fit-margin-bottom="0"
     inkscape:window-width="1920"
     inkscape:window-height="1017"
     inkscape:window-x="1912"
     inkscape:window-y="-8"
     inkscape:window-maximized="1" />
  <metadata
     id="metadata4316">
    <rdf:RDF>
      <cc:Work
         rdf:about="">
        <dc:format>image/svg+xml</dc:format>
        <dc:type
           rdf:resource="http://purl.org/dc/dcmitype/StillImage" />
        <dc:title></dc:title>
      </cc:Work>
    </rdf:RDF>
  </metadata>
  <g
     inkscape:label="Layer 1"
     inkscape:groupmode="layer"
     id="layer1"
     transform="translate(-79.061131,-107.58727)">
    <path
       style="fill:#000000;stroke:none;stroke-width:0.03527778"
       inkscape:connector-curvature="0"
       id="path96"
       d="m 80.288589,108.1644 c -0.917222,0.98777 -1.411111,4.1275 -1.164167,7.09083 0.529167,5.92667 2.751667,13.97 5.185834,18.76778 l 1.023056,2.04611 -1.093612,3.24556 c -2.257778,6.70277 -3.033889,14.39333 -1.940278,18.52083 1.552223,5.85611 6.067779,9.8425 13.440834,11.85333 2.469445,0.67028 3.739445,0.77611 9.877784,0.77611 6.13833,0 7.40833,-0.10583 9.87777,-0.77611 7.86695,-2.15194 12.34723,-6.31472 13.58195,-12.7 0.84667,-4.23333 0.0353,-11.78277 -1.905,-17.92111 l -0.81139,-2.50472 1.23472,-2.39889 c 2.75167,-5.46806 5.00945,-14.64028 5.00945,-20.32 0,-4.83306 -1.09361,-6.49111 -3.77473,-5.78556 -2.25777,0.56445 -7.12611,4.72722 -11.71222,9.98361 -1.69333,1.94028 -1.97555,2.15195 -2.46944,1.69334 -1.27,-1.09361 -4.40972,-2.36361 -6.80861,-2.71639 -3.21028,-0.49389 -5.75028,-0.0353 -9.031117,1.65805 l -2.293056,1.19945 -1.27,-1.48167 c -6.914444,-8.255 -12.982222,-12.41778 -14.957778,-10.23055 z m 3.351389,3.13972 c 1.552222,0.9525 5.679722,6.77333 8.008056,11.32417 l 0.776111,1.48166 -1.058334,1.34056 c -0.599722,0.70555 -1.834444,2.61055 -2.822221,4.19805 l -1.728612,2.92806 -0.705555,-1.51695 c -2.963334,-6.27944 -5.679723,-17.74472 -4.691945,-19.61444 0.493889,-0.91722 0.846667,-0.91722 2.2225,-0.14111 z m 46.637222,0.3175 c 0.38806,1.05833 0.21167,4.19805 -0.45861,7.19667 -1.12889,5.00944 -4.26861,13.75833 -4.97416,13.75833 -0.14112,0 -0.56445,-0.67028 -0.91723,-1.48167 -0.35277,-0.81139 -1.51694,-2.75166 -2.54,-4.26861 l -1.86972,-2.78694 1.30528,-2.36361 c 4.16278,-7.65528 8.5725,-12.34723 9.45444,-10.05417 z m -16.26305,9.70139 c 6.45583,4.26861 12.27666,15.73389 13.58194,26.70528 0.28222,2.43416 0.24695,2.64583 -0.42333,3.10444 -1.41111,0.91722 -3.84528,1.55222 -5.82083,1.55222 -3.21028,0 -5.18584,-0.88194 -7.65528,-3.31611 -6.35,-6.38527 -7.58473,-17.81528 -2.92806,-27.12861 0.56445,-1.09361 1.16417,-2.01083 1.30528,-2.01083 0.17639,0 1.02306,0.49389 1.94028,1.09361 z m -20.813894,18.02694 c 1.622778,2.18723 0.846667,6.6675 -1.234722,6.91445 -1.411111,0.17639 -2.151945,-1.48167 -1.975556,-4.37445 0.211667,-3.45722 1.658056,-4.58611 3.210278,-2.54 z m 16.333614,9.73667 c 1.76389,0.91722 3.88056,3.21028 4.7625,5.18583 1.48167,3.31612 1.76389,12.10028 0.45861,13.40556 -2.11667,2.11667 -15.134168,2.57528 -17.744724,0.59972 -0.811389,-0.59972 -0.9525,-1.05833 -1.234722,-3.63361 -0.599723,-5.36222 0.564444,-10.68917 2.8575,-13.22917 1.093611,-1.19944 3.033886,-2.54 4.339166,-2.92805 1.76389,-0.52917 4.93889,-0.24695 6.56167,0.59972 z" />
    <path
       style="fill:#000000;stroke:none;stroke-width:0.03527778"
       inkscape:connector-curvature="0"
       id="path98"
       d="m 117.78887,139.34995 c -0.84667,1.41112 -0.9525,4.445 -0.17639,5.92667 0.42333,0.81139 0.77611,1.05833 1.5875,1.05833 1.51695,0 2.2225,-1.55222 2.04611,-4.445 -0.21166,-3.52777 -2.04611,-4.83305 -3.45722,-2.54 z" />
    <path
       style="fill:#000000;stroke:none;stroke-width:0.03527778"
       inkscape:connector-curvature="0"
       id="path100"
       d="m 103.46609,150.00384 c -4.621389,2.01084 -3.35139,9.10167 1.72861,9.63084 1.94028,0.21166 3.66889,-0.74084 4.7625,-2.57528 2.46945,-4.19806 -1.97555,-9.03111 -6.49111,-7.05556 z" />
    <path
       style="fill:#000000;stroke:none;stroke-width:0.03527778"
       inkscape:connector-curvature="0"
       id="path128"
       d="m 89.707756,171.6644 c -1.975555,4.55083 -3.774722,11.21833 -4.550833,16.72167 l -0.211667,1.69333 h 5.432778 5.432778 l 0.211666,-1.76389 c 0.529167,-4.33917 2.469445,-7.90222 5.432782,-10.01889 1.69333,-1.16417 4.09222,-1.55222 6.31472,-0.9525 3.38667,0.91722 6.52639,5.32695 7.3025,10.23056 l 0.38806,2.50472 h 5.43277 5.3975 l -0.21166,-1.69333 c -0.74084,-5.25639 -2.25778,-11.04195 -4.09222,-15.45167 l -1.05834,-2.54 -1.69333,0.67028 c -3.31611,1.23472 -7.72583,1.86972 -13.44084,1.86972 -5.856108,0 -9.278053,-0.42333 -13.158609,-1.72861 L 90.2722,170.3944 Z" />
  </g>
</svg>
