<?xml version="1.0" encoding="UTF-8" standalone="no"?>
<!-- Created with Inkscape (http://www.inkscape.org/) -->

<svg
   xmlns:dc="http://purl.org/dc/elements/1.1/"
   xmlns:cc="http://creativecommons.org/ns#"
   xmlns:rdf="http://www.w3.org/1999/02/22-rdf-syntax-ns#"
   xmlns:svg="http://www.w3.org/2000/svg"
   xmlns="http://www.w3.org/2000/svg"
   xmlns:sodipodi="http://sodipodi.sourceforge.net/DTD/sodipodi-0.dtd"
   xmlns:inkscape="http://www.inkscape.org/namespaces/inkscape"
   width="210mm"
   height="297mm"
   viewBox="0 0 210 297"
   version="1.1"
   id="svg4069"
   inkscape:version="0.92.4 (5da689c313, 2019-01-14)"
   sodipodi:docname="dragon.svg">
  <defs
     id="defs4063" />
  <sodipodi:namedview
     id="base"
     pagecolor="#ffffff"
     bordercolor="#666666"
     borderopacity="1.0"
     inkscape:pageopacity="0.0"
     inkscape:pageshadow="2"
     inkscape:zoom="0.35"
     inkscape:cx="400"
     inkscape:cy="560"
     inkscape:document-units="mm"
     inkscape:current-layer="layer1"
     showgrid="false"
     inkscape:window-width="1920"
     inkscape:window-height="1017"
     inkscape:window-x="1912"
     inkscape:window-y="-8"
     inkscape:window-maximized="1" />
  <metadata
     id="metadata4066">
    <rdf:RDF>
      <cc:Work
         rdf:about="">
        <dc:format>image/svg+xml</dc:format>
        <dc:type
           rdf:resource="http://purl.org/dc/dcmitype/StillImage" />
        <dc:title></dc:title>
      </cc:Work>
    </rdf:RDF>
  </metadata>
  <g
     inkscape:label="Layer 1"
     inkscape:groupmode="layer"
     id="layer1">
    <path
       style="fill:#000000;stroke:none;stroke-width:0.03527778"
       inkscape:connector-curvature="0"
       id="path32"
       d="m 98.134073,94.760059 c -1.164166,0.917222 -1.658055,2.645833 -1.658055,5.997221 0,1.83445 -0.105834,2.46945 -0.352778,2.11667 -0.176389,-0.28222 -0.352778,-0.9525 -0.352778,-1.44639 0,-1.23472 -0.352778,-1.481668 -1.128889,-0.77611 -1.058333,0.9525 -0.881944,3.84528 0.423334,5.85611 1.199444,1.905 3.704166,3.84528 4.7625,3.70417 0.599723,-0.10584 0.705553,-0.35278 0.705553,-1.69334 v -1.5875 l 2.29306,-0.21166 c 1.27,-0.14112 3.52777,-0.14112 5.08,-0.0353 l 2.75166,0.17639 -0.21166,1.51694 c -0.14111,1.16417 -0.0706,1.51694 0.35277,1.69333 1.09362,0.42334 1.62278,0.17639 3.38667,-1.48166 2.75167,-2.54 3.73945,-5.32695 2.64584,-7.44361 -0.59973,-1.164172 -1.30528,-1.340561 -1.30528,-0.3175 0,1.05833 -0.38806,2.39888 -0.67028,2.39888 -0.10583,0 -0.21167,-1.37583 -0.24694,-3.10444 0,-3.316112 -0.56445,-5.009445 -1.94028,-5.715001 -1.48167,-0.811389 -1.72861,-0.03528 -1.72861,5.785561 v 5.32694 h -5.3975 l -5.36223,-0.0353 0.10584,-5.22111 c 0.14111,-6.279446 -0.17639,-7.055557 -2.151947,-5.503335 z" />
    <path
       style="fill:#000000;stroke:none;stroke-width:0.03527778"
       inkscape:connector-curvature="0"
       id="path38"
       d="m 77.602405,99.698948 c -0.141111,0.211667 -0.423333,0.282222 -0.635,0.141111 -0.246944,-0.105833 0.246945,0.423331 1.093612,1.234721 1.905,1.83445 2.998611,4.19806 2.751666,5.89139 -0.282222,1.5875 -0.705555,2.39889 -2.257778,4.33917 -0.740833,0.88194 -1.093611,1.62278 -0.881944,1.69333 0.211667,0.0706 1.128889,0.635 1.975556,1.19945 3.069167,2.01083 3.774722,5.29166 2.010833,8.81944 l -0.740833,1.44639 1.164167,-0.24694 c 0.635,-0.14112 2.081389,-0.56445 3.245555,-0.91723 3.245556,-1.02305 3.210278,-1.05833 3.316112,1.97556 0.07055,1.44639 0.388055,3.70417 0.776111,5.00944 l 0.635,2.36361 -1.199445,1.41112 c -1.481666,1.72861 -2.046111,3.63361 -1.799166,6.24416 0.388055,4.40973 3.457222,7.26723 9.595556,8.99584 3.245555,0.88194 12.347223,1.09361 16.086663,0.35277 7.37306,-1.48166 11.04195,-4.69194 11.04195,-9.70139 0,-2.75166 -0.49389,-4.445 -1.905,-6.17361 -0.98778,-1.27 -0.98778,-1.30527 -0.45861,-2.96333 0.28222,-0.91722 0.59972,-3.21028 0.70555,-5.11528 0.14111,-2.15194 0.35278,-3.42194 0.59972,-3.42194 0.21167,0 1.5875,0.38805 3.03389,0.84666 1.44639,0.45862 3.175,0.9525 3.77473,1.09362 l 1.16416,0.24694 -0.88194,-1.905 c -1.09361,-2.29306 -1.09361,-3.81 -0.14111,-5.85611 0.67027,-1.37584 2.78694,-3.175 4.30389,-3.70417 0.21166,-0.0705 -0.17639,-0.84667 -0.91723,-1.69333 -3.10444,-3.84528 -3.06916,-6.63223 0.14112,-9.8425 0.9525,-0.9525 1.65805,-1.763892 1.55222,-1.763892 -0.14111,0 -0.45861,0.211667 -0.70556,0.423332 -0.24694,0.24695 -1.12889,0.84667 -1.94028,1.34056 -3.70416,2.2225 -3.88055,6.06777 -0.38805,9.48972 l 1.30528,1.30528 -3.24556,-0.14111 c -2.82222,-0.14111 -6.06778,0.17639 -8.43139,0.84666 -0.56444,0.14111 -0.88194,-0.14111 -1.5875,-1.41111 l -0.84667,-1.62278 1.37584,-1.44638 c 3.56305,-3.70417 10.795,-8.43139 12.94694,-8.43139 0.35278,0 0.635,-0.176393 0.635,-0.38806 0,-0.388055 -2.2225,-0.176389 -4.7625,0.45861 -2.25778,0.56445 -5.18583,2.54 -8.32555,5.60917 -2.2225,2.18722 -3.03389,2.78694 -3.59834,2.64583 -0.52916,-0.14111 -1.16416,0.21167 -2.2225,1.19945 -1.44639,1.34055 -3.45722,2.04611 -4.51555,1.65805 -0.28223,-0.10583 -0.59973,0 -0.67028,0.28222 -0.52917,1.34056 -1.02306,6.63223 -0.84667,9.13695 0.3175,4.86833 1.65806,6.94972 5.82084,8.92528 10.97139,5.18583 9.34861,16.12194 -2.71639,18.415 -3.28084,0.635 -10.61861,0.56444 -13.581947,-0.10583 -6.385278,-1.48167 -9.983611,-5.00945 -9.666111,-9.41917 0.246944,-3.35139 2.504722,-5.82084 8.219722,-9.06639 2.116667,-1.19945 2.610556,-1.65806 3.457226,-3.28083 1.30527,-2.57528 1.79916,-5.46806 1.55222,-9.31334 -0.3175,-4.90361 -0.49389,-5.46805 -1.69333,-5.46805 -1.446393,0 -2.575282,-0.52917 -4.127504,-1.94028 -0.846667,-0.74084 -1.622778,-1.16417 -1.940278,-1.02306 -0.352778,0.10584 -1.728612,-0.91722 -4.021667,-3.10444 -3.66889,-3.45723 -5.961945,-4.86834 -9.207501,-5.538614 -2.328333,-0.493889 -3.139722,-0.493889 -3.421945,-0.03528 z m 4.586112,1.905002 c 2.998611,1.55222 6.561667,4.23333 9.101667,6.84389 l 1.340556,1.37583 -1.093611,1.5875 -1.128889,1.5875 -2.328334,-0.49389 c -1.481667,-0.3175 -3.704167,-0.45861 -5.997222,-0.38805 -3.563056,0.10583 -3.633612,0.10583 -2.892778,-0.49389 1.305277,-1.05834 2.786944,-3.13972 3.139722,-4.37445 0.670278,-2.36361 -0.846667,-4.90361 -3.81,-6.49111 -1.234723,-0.67028 -1.234723,-0.67028 -0.3175,-0.70555 0.529166,0 2.328333,0.70555 3.986389,1.55222 z m 1.5875,12.02972 c 5.468056,0.88195 5.856111,1.02306 5.679723,1.79917 -0.07056,0.35278 -0.3175,1.76389 -0.529167,3.10444 l -0.423333,2.43417 -3.316112,1.37583 c -1.834444,0.74084 -3.351389,1.34056 -3.421944,1.34056 -0.03528,0 0.388055,-0.70556 0.987777,-1.55222 2.257778,-3.175 1.552223,-6.13834 -1.869722,-7.97278 -2.046111,-1.12889 -2.363611,-1.41111 -1.305278,-1.23472 0.458611,0.0705 2.363611,0.38805 4.198056,0.70555 z m 47.483893,0.17639 c -4.19806,2.11667 -4.90361,5.67972 -1.83445,9.13695 0.70556,0.81138 0.70556,0.84666 0.0353,0.56444 -0.38805,-0.14111 -2.18722,-0.84667 -3.95111,-1.51695 -2.68111,-1.02305 -3.28083,-1.37583 -3.28083,-1.97555 0,-0.42333 -0.21167,-1.72861 -0.45861,-2.92806 l -0.45861,-2.18722 2.46944,-0.56444 c 4.02167,-0.84667 5.92667,-1.16417 7.44361,-1.16417 l 1.41111,-0.0353 z m -35.348337,8.53722 c 1.164167,1.83445 0.987778,5.57389 -0.3175,6.63223 -0.917222,0.74083 -2.151944,-0.0706 -2.54,-1.65806 -0.9525,-3.73944 1.234722,-7.47889 2.8575,-4.97417 z m 22.013337,-0.0353 c 2.04611,2.15195 0.635,7.90223 -1.65806,6.70278 -1.55222,-0.84666 -1.69333,-5.89139 -0.17639,-6.985 0.84667,-0.59972 1.05834,-0.56444 1.83445,0.28222 z" />
    <path
       style="fill:#000000;stroke:none;stroke-width:0.03527778"
       inkscape:connector-curvature="0"
       id="path74"
       d="m 94.006573,153.35645 c -0.740833,5.11528 -1.023055,8.81945 -1.27,15.66334 -0.246944,6.42055 -0.211667,6.77333 0.529167,8.18444 0.635,1.30528 2.8575,3.28083 3.633611,3.28083 0.176389,0 0.282222,-0.35277 0.282222,-0.81138 v -0.77612 h 6.773337 c 3.73944,0 7.33777,-0.10583 7.97277,-0.24694 1.02306,-0.24694 1.12889,-0.17639 1.12889,0.52917 0.0353,0.74083 0.0706,0.74083 0.88195,-0.24695 2.64583,-3.24555 3.95111,-13.47611 2.89278,-22.64833 -0.3175,-2.8575 -0.635,-5.25639 -0.70556,-5.32695 -0.0706,-0.0706 -0.9525,0.0705 -1.905,0.28222 l -1.79917,0.42334 0.17639,1.34055 c 0.17639,1.30528 0.17639,1.34056 -1.16417,1.62278 -1.72861,0.35278 -10.47749,0.35278 -12.241383,0 -1.340556,-0.28222 -1.375834,-0.28222 -1.128889,-1.65805 0.246944,-1.37584 0.211667,-1.37584 -1.234722,-1.76389 -0.811389,-0.21167 -1.658056,-0.45861 -1.905001,-0.56445 -0.352777,-0.14111 -0.599722,0.59972 -0.917222,2.71639 z m 18.803057,4.09222 c 0.14111,1.30528 0.10583,2.50473 -0.0353,2.61056 -0.91723,0.88194 -14.075836,0.9525 -14.922503,0.0706 -0.141111,-0.14111 -0.176389,-1.27 -0.07055,-2.46945 l 0.211666,-2.2225 4.797777,0.21167 c 3.84528,0.14111 7.3025,-0.0353 9.59556,-0.52917 0.10583,0 0.3175,1.02306 0.42333,2.32834 z m -8.85472,4.09223 c 1.79916,0.0353 4.58611,-0.0706 6.20888,-0.21167 l 2.89278,-0.28222 v 2.43416 2.46945 l -2.54,0.42333 c -2.8575,0.49389 -11.429996,0.28222 -12.523608,-0.28222 -0.529166,-0.3175 -0.599722,-0.70556 -0.529166,-2.68111 l 0.141111,-2.36361 1.516944,0.24694 c 0.846667,0.10584 2.998609,0.24695 4.833059,0.24695 z m 2.57527,5.78555 c 2.71639,-0.10583 5.29167,-0.3175 5.75028,-0.45861 0.74083,-0.21167 0.77611,-0.14111 0.77611,2.43417 v 2.64583 l -2.36361,0.3175 c -2.96333,0.35278 -7.97278,0.35278 -11.112498,-0.0353 l -2.398889,-0.28222 v -1.79917 c 0,-3.24555 0.105834,-3.35139 2.398889,-2.96333 1.093608,0.17639 4.233328,0.21166 6.949718,0.14111 z m -1.41111,5.92667 c 1.76389,0 4.23334,-0.14111 5.57389,-0.28222 l 2.36361,-0.28223 v 2.50473 c 0,2.36361 -0.0353,2.46944 -0.9525,2.71639 -0.56444,0.17639 -3.66889,0.28222 -6.985,0.28222 -3.28083,0 -6.420552,-0.10583 -6.949719,-0.28222 -0.9525,-0.24695 -0.987778,-0.35278 -0.987778,-2.71639 v -2.43417 l 2.398889,0.24694 c 1.305278,0.14112 3.809998,0.24695 5.538608,0.24695 z" />
    <path
       style="fill:#000000;stroke:none;stroke-width:0.03527778"
       inkscape:connector-curvature="0"
       id="path80"
       d="m 80.495183,153.46228 c -2.363611,0.67028 -2.398889,0.88195 0,0.70556 2.398889,-0.21167 3.457223,0.24694 4.586112,1.94028 1.199444,1.79917 1.058333,4.7625 -0.458611,10.44222 -2.892778,10.795 -3.104445,11.99445 -3.104445,17.4625 0,4.40972 0.105833,5.3975 0.776111,7.19667 2.645834,7.16138 8.643056,11.28888 17.70945,12.20611 11.85333,1.23472 24.765,-4.09223 29.49222,-12.20611 1.69333,-2.8575 2.25778,-5.18583 2.25778,-9.10167 0,-5.57389 -1.19945,-10.01889 -3.81,-14.25222 -1.34056,-2.15195 -3.91584,-5.36222 -4.37445,-5.36222 -0.14111,0 0.14111,1.09361 0.56445,2.39889 2.25777,6.63222 2.01083,12.27666 -0.77612,17.88583 -2.29305,4.65667 -6.985,8.21972 -12.45305,9.525 -2.64584,0.59972 -8.64306,0.70556 -11.324168,0.14111 -2.786944,-0.56444 -6.138333,-2.36361 -7.584722,-3.98639 -3.280834,-3.77472 -4.374445,-8.46666 -3.704167,-16.01611 0.246944,-2.64583 0.423333,-6.17361 0.423333,-7.83167 -0.03528,-5.04472 -1.375833,-9.77194 -3.139722,-10.83028 -1.128889,-0.70555 -3.245556,-0.84666 -5.080001,-0.3175 z M 97.604907,195.337 c 4.586113,0.88195 8.819443,0.88195 13.193883,-0.0353 3.63362,-0.74084 4.58612,-0.59973 3.81001,0.635 -1.72862,2.71639 -11.00667,3.95111 -16.651115,2.25777 -2.645834,-0.84666 -4.974167,-2.46944 -4.515556,-3.175 0.3175,-0.52916 -0.141111,-0.56444 4.162778,0.3175 z" />
    <path
       style="fill:#000000;stroke:none;stroke-width:0.03527778"
       inkscape:connector-curvature="0"
       id="path84"
       d="m 88.362128,156.28451 c 1.128889,2.54 1.446389,6.17361 1.199445,13.61722 -0.211667,5.75028 -0.141111,7.37306 0.352778,9.8425 1.763889,8.64306 6.738056,12.10028 16.721669,11.57111 5.67972,-0.28222 9.56028,-1.905 12.7,-5.32694 1.41111,-1.55222 2.99861,-4.05695 3.42194,-5.43278 0.21167,-0.70556 0.10584,-0.77611 -1.34055,-0.77611 -1.02306,0 -1.86973,0.24694 -2.39889,0.67028 -0.88195,0.70555 -0.84667,0.9525 0.24694,4.30389 0.17639,0.56444 0.0353,0.56444 -1.76389,0.0353 -2.54,-0.70556 -3.03389,-0.35278 -3.03389,2.25777 v 1.905 l -1.62277,-1.23472 c -2.36362,-1.79917 -2.82223,-1.65805 -4.02167,1.44639 l -0.635,1.69333 -0.52917,-1.05833 c -0.28222,-0.56444 -0.91722,-1.41111 -1.41111,-1.83444 -1.19944,-1.12889 -2.11667,-0.77612 -3.28083,1.19944 -0.49389,0.84667 -0.9525,1.55222 -1.02306,1.55222 -0.0706,0 -0.38805,-0.77611 -0.70555,-1.72861 -0.9525,-2.89278 -1.905002,-3.10444 -4.268613,-1.02305 l -1.199445,1.05833 0.211667,-1.62278 c 0.3175,-2.15194 -0.176389,-2.68111 -2.398889,-2.68111 h -1.728611 l 0.705555,-1.02306 c 0.423334,-0.56444 0.740834,-1.41111 0.740834,-1.905 0,-0.74083 -0.282223,-0.98777 -1.587501,-1.48166 l -1.5875,-0.635 1.058334,-1.19945 c 0.599722,-0.635 1.058333,-1.41111 1.058333,-1.69333 0,-0.24694 -0.564444,-0.9525 -1.234722,-1.48167 l -1.234722,-1.02305 0.881944,-0.84667 c 1.128889,-1.05833 1.128889,-1.86972 -0.07056,-2.82222 -0.881945,-0.67028 -0.917223,-0.81139 -0.352778,-1.09361 0.3175,-0.21167 0.776111,-0.67028 0.987778,-1.05834 0.3175,-0.59972 0.246944,-0.88194 -0.423334,-1.5875 -0.740833,-0.77611 -0.740833,-0.88194 -0.211666,-1.48166 0.776111,-0.84667 0.776111,-1.69334 0,-2.11667 -0.564445,-0.3175 -0.564445,-0.42333 0.03528,-1.30528 0.599723,-0.91722 0.599723,-0.98777 -0.176389,-1.79916 -0.635,-0.67028 -0.705555,-0.9525 -0.388055,-1.27 0.635,-0.635 0.493889,-1.27 -0.3175,-1.51695 -0.599722,-0.21167 -0.705556,-0.45861 -0.529167,-1.23472 0.105833,-0.70556 0.03528,-1.05833 -0.352778,-1.19945 -1.058333,-0.42333 -1.164166,-0.17638 -0.493889,1.34056 z" />
    <path
       style="fill:#000000;stroke:none;stroke-width:0.03527778"
       inkscape:connector-curvature="0"
       id="path86"
       d="m 118.70102,165.20979 c 0,12.52361 -3.84528,18.20333 -12.77056,19.01472 -3.35139,0.28222 -7.337775,-0.3175 -9.842498,-1.55222 l -1.975555,-0.9525 -0.352778,1.12889 c -0.352778,1.16416 -0.352778,1.16416 0.811389,1.16416 0.9525,0 1.27,0.21167 1.728611,1.05834 0.282222,0.56444 0.529167,1.27 0.529167,1.5875 0,0.45861 0.176388,0.42333 1.023055,-0.21167 0.564445,-0.38806 1.305278,-0.67028 1.658056,-0.59972 0.564443,0.10583 1.940273,1.76389 2.363613,2.8575 0.10583,0.28222 0.38805,0.14111 0.74083,-0.35278 1.65806,-2.25778 2.57528,-2.39889 4.30389,-0.67028 l 1.16417,1.16417 0.81138,-1.62278 c 0.67028,-1.37583 0.9525,-1.5875 1.69334,-1.51694 0.49389,0.0705 1.30528,0.42333 1.83444,0.81138 0.52917,0.35278 0.98778,0.67028 1.05834,0.67028 0.0705,0 0.10583,-0.56444 0.14111,-1.27 0.0353,-1.76389 0.91722,-2.36361 2.92805,-2.08139 1.30528,0.21167 1.51695,0.14111 1.34056,-0.28222 -1.02306,-2.71639 -0.52917,-3.91583 1.86972,-4.30389 l 1.41111,-0.24694 -0.52916,-0.98778 c -0.77612,-1.48167 -0.67028,-2.04611 0.56444,-3.24556 l 1.05833,-1.09361 -0.77611,-1.48166 -0.81139,-1.48167 0.77611,-1.34056 0.77612,-1.30527 -0.88195,-1.05834 c -0.67028,-0.77611 -0.88194,-1.44639 -0.88194,-2.64583 0,-1.48167 -0.88195,-3.63361 -1.48167,-3.63361 -0.14111,0 -0.28222,2.01083 -0.28222,4.48028 z" />
  </g>
</svg>
