<?xml version="1.0" encoding="UTF-8" standalone="no"?>
<!-- Created with Inkscape (http://www.inkscape.org/) -->

<svg
   xmlns:dc="http://purl.org/dc/elements/1.1/"
   xmlns:cc="http://creativecommons.org/ns#"
   xmlns:rdf="http://www.w3.org/1999/02/22-rdf-syntax-ns#"
   xmlns:svg="http://www.w3.org/2000/svg"
   xmlns="http://www.w3.org/2000/svg"
   xmlns:sodipodi="http://sodipodi.sourceforge.net/DTD/sodipodi-0.dtd"
   xmlns:inkscape="http://www.inkscape.org/namespaces/inkscape"
   width="72.502693mm"
   height="89.184898mm"
   viewBox="0 0 72.502693 89.184898"
   version="1.1"
   id="svg4193"
   inkscape:version="0.92.4 (5da689c313, 2019-01-14)"
   sodipodi:docname="goat.svg">
  <defs
     id="defs4187" />
  <sodipodi:namedview
     id="base"
     pagecolor="#ffffff"
     bordercolor="#666666"
     borderopacity="1.0"
     inkscape:pageopacity="0.0"
     inkscape:pageshadow="2"
     inkscape:zoom="0.35"
     inkscape:cx="137.01296"
     inkscape:cy="168.53838"
     inkscape:document-units="mm"
     inkscape:current-layer="layer1"
     showgrid="false"
     fit-margin-top="0"
     fit-margin-left="0"
     fit-margin-right="0"
     fit-margin-bottom="0"
     inkscape:window-width="1920"
     inkscape:window-height="1017"
     inkscape:window-x="1912"
     inkscape:window-y="-8"
     inkscape:window-maximized="1" />
  <metadata
     id="metadata4190">
    <rdf:RDF>
      <cc:Work
         rdf:about="">
        <dc:format>image/svg+xml</dc:format>
        <dc:type
           rdf:resource="http://purl.org/dc/dcmitype/StillImage" />
        <dc:title></dc:title>
      </cc:Work>
    </rdf:RDF>
  </metadata>
  <g
     inkscape:label="Layer 1"
     inkscape:groupmode="layer"
     id="layer1"
     transform="translate(-69.581986,-104.24088)">
    <path
       style="fill:#000000;stroke:none;stroke-width:0.03527778"
       inkscape:connector-curvature="0"
       id="path40"
       d="m 84.879342,104.4905 c -0.352778,0.56444 0.07055,2.01083 1.058333,3.70417 l 0.881945,1.44638 2.293055,-1.05833 2.293056,-1.09361 -0.776111,-0.67028 c -1.799167,-1.48166 -5.362223,-2.92805 -5.750278,-2.32833 z" />
    <path
       style="fill:#000000;stroke:none;stroke-width:0.03527778"
       inkscape:connector-curvature="0"
       id="path42"
       d="m 124.24935,105.01967 c -1.02306,0.49388 -2.32834,1.27 -2.8575,1.69333 l -0.98778,0.84667 2.29305,0.98777 c 2.54,1.09361 2.32834,1.16417 3.66889,-1.34055 0.70556,-1.37584 0.77611,-2.75167 0.14111,-2.96334 -0.17639,-0.0353 -1.19944,0.28223 -2.25777,0.77612 z" />
    <path
       style="fill:#000000;stroke:none;stroke-width:0.03527778"
       inkscape:connector-curvature="0"
       id="path44"
       d="m 89.218509,109.32355 -1.975556,0.88195 0.881945,1.97555 c 0.493888,1.12889 0.9525,2.08139 1.023055,2.15195 0.07056,0.0706 1.234722,-0.35278 2.54,-0.9525 1.340556,-0.635 2.610556,-1.12889 2.822223,-1.12889 0.740833,0 0.458611,-0.70556 -0.846667,-2.32833 -0.705556,-0.84667 -1.552222,-1.55223 -1.869722,-1.51695 -0.3175,0 -1.446389,0.42334 -2.575278,0.91722 z" />
    <path
       style="fill:#000000;stroke:none;stroke-width:0.03527778"
       inkscape:connector-curvature="0"
       id="path46"
       d="m 118.14629,109.99383 c -0.74083,0.91722 -1.34056,1.76389 -1.34056,1.86972 0,0.14112 0.84667,0.52917 1.905,0.88195 1.05834,0.38805 2.36362,0.9525 2.89278,1.30528 l 0.9525,0.59972 1.02306,-2.11667 c 0.52916,-1.16416 0.98778,-2.15194 0.98778,-2.2225 0,-0.17639 -4.16278,-1.94028 -4.62139,-1.94028 -0.28223,0 -1.09362,0.74084 -1.79917,1.62278 z" />
    <path
       style="fill:#000000;stroke:none;stroke-width:0.03527778"
       inkscape:connector-curvature="0"
       id="path50"
       d="m 94.933509,112.85133 c -1.834445,0.635 -5.291667,2.39889 -5.291667,2.64584 0,0.77611 1.128889,4.19805 1.340556,4.09222 0.141111,-0.0706 1.058333,-0.52917 2.010833,-1.02306 0.987778,-0.52916 2.434167,-1.12889 3.280834,-1.37583 0.811388,-0.24695 1.481667,-0.52917 1.481667,-0.635 0,-0.17639 -2.151945,-3.95111 -2.222501,-3.91583 -0.03528,0 -0.3175,0.10583 -0.599722,0.21166 z" />
    <path
       style="fill:#000000;stroke:none;stroke-width:0.03527778"
       inkscape:connector-curvature="0"
       id="path52"
       d="m 115.81796,113.3805 c -0.17639,0.24694 -0.67028,1.09361 -1.05834,1.905 l -0.74083,1.44639 2.01083,0.635 c 1.09361,0.3175 2.61056,0.98778 3.35139,1.48166 0.74083,0.45862 1.48167,0.77612 1.5875,0.635 0.10584,-0.10583 0.49389,-1.05833 0.81139,-2.11666 l 0.59972,-1.94028 -1.16416,-0.70556 c -1.19945,-0.74083 -3.84528,-1.76388 -4.58612,-1.76388 -0.24694,0 -0.59972,0.21166 -0.81138,0.42333 z" />
    <path
       style="fill:#000000;stroke:none;stroke-width:0.03527778"
       inkscape:connector-curvature="0"
       id="path54"
       d="m 95.886009,118.07244 c -0.740833,0.28223 -2.151944,0.9525 -3.104445,1.48167 -1.763889,0.9525 -1.763889,0.9525 -1.552222,2.36361 0.423334,2.78695 0.458611,2.78695 1.622778,1.86972 0.564445,-0.42333 1.305278,-1.34055 1.693333,-2.01083 0.352778,-0.67028 1.305278,-1.72861 2.116666,-2.36361 2.187223,-1.69333 1.834446,-2.29306 -0.77611,-1.34056 z" />
    <path
       style="fill:#000000;stroke:none;stroke-width:0.03527778"
       inkscape:connector-curvature="0"
       id="path56"
       d="m 113.31323,118.4605 c -0.35277,0.77611 -0.28222,0.98778 0.38806,1.5875 0.45861,0.38805 1.44639,1.02305 2.2225,1.44639 0.77611,0.38805 2.01083,1.19944 2.75167,1.79916 0.74083,0.56445 1.37583,0.98778 1.44638,0.91723 0.0706,-0.0705 0.24695,-0.98778 0.38806,-1.97556 l 0.24695,-1.86972 -2.92806,-1.41111 c -1.62278,-0.77611 -3.175,-1.41111 -3.4925,-1.41111 -0.3175,0 -0.77611,0.42333 -1.02306,0.91722 z" />
    <path
       style="fill:#000000;stroke:none;stroke-width:0.03527778"
       inkscape:connector-curvature="0"
       id="path58"
       d="m 102.76518,118.28411 c -5.503338,0.91722 -8.360838,3.88056 -7.725838,7.9375 0.740834,4.58611 6.738058,9.87778 11.641668,10.30111 l 1.83445,0.14111 -0.88195,-0.635 c -0.49389,-0.35277 -0.98778,-0.81139 -1.12889,-0.98777 -0.52916,-0.74084 -0.28222,-0.9525 0.49389,-0.42334 0.42333,0.3175 1.23472,0.56445 1.76389,0.56445 0.98778,0 0.98778,0 0.49389,-1.02306 -0.74083,-1.41111 -0.17639,-2.08139 3.10444,-3.70417 2.96334,-1.44638 3.88056,-2.50472 3.84528,-4.30389 -0.10583,-3.175 -3.63361,-6.56166 -8.04333,-7.72583 -2.29306,-0.56444 -2.64584,-0.59972 -5.3975,-0.14111 z" />
    <path
       style="fill:#000000;stroke:none;stroke-width:0.03527778"
       inkscape:connector-curvature="0"
       id="path60"
       d="m 117.29962,125.58661 c 0.0353,2.18722 -1.05833,3.84528 -3.52778,5.36222 -3.03388,1.83445 -3.59833,2.82223 -2.64583,4.69195 l 0.635,1.23472 -1.05833,0.21167 c -4.7625,0.9525 -10.01889,-0.77611 -13.476115,-4.40973 -2.116667,-2.18722 -2.963334,-3.81 -3.316112,-6.24416 l -0.211666,-1.55223 -0.987778,0.77612 c -0.917222,0.74083 -1.128889,0.74083 -2.54,0.35277 -0.9525,-0.28222 -2.716389,-0.38805 -4.374445,-0.28222 -5.856111,0.35278 -11.641667,4.51556 -14.710834,10.61861 -2.010833,4.05695 -2.010833,5.15056 0.03528,5.75028 2.116667,0.67028 6.667501,0.56445 10.230556,-0.17639 1.763889,-0.38805 3.421945,-0.77611 3.739445,-0.91722 0.493888,-0.17639 0.599722,0.3175 0.776111,4.1275 0.211666,4.37444 0.881944,7.62 2.328333,10.97139 l 0.740833,1.69333 -0.705555,2.89278 c -0.917222,3.81 -0.881945,5.04472 0.211667,7.23194 1.023055,2.01084 2.54,3.45723 5.256389,4.86834 1.411111,0.74083 2.010833,1.37583 2.998612,3.06917 0.705554,1.23472 2.716387,3.63361 4.727219,5.60916 2.92806,2.89278 3.45722,3.56306 3.31611,4.33917 -0.21166,1.02305 -0.21166,1.02305 1.12889,0.35278 1.23472,-0.635 2.11667,-1.83445 2.11667,-2.89278 0,-0.45861 0.17639,-0.81139 0.35278,-0.81139 0.45861,0 0.45861,0.91722 0,1.79917 -1.19945,2.2225 3.06916,-1.41111 5.50333,-4.72723 0.84667,-1.12888 1.86972,-2.99861 2.29306,-4.1275 0.59972,-1.62277 0.9525,-2.15194 1.79916,-2.50472 2.18722,-0.88194 4.55084,-3.13972 5.46806,-5.15055 0.77611,-1.69334 0.88194,-2.25778 0.67028,-4.30389 -0.10584,-1.30528 -0.42334,-3.10445 -0.70556,-4.02167 -0.45861,-1.5875 -0.45861,-1.76389 0.49389,-4.19806 1.37583,-3.59833 2.11667,-7.44361 2.11667,-11.25361 0,-2.92805 0.0706,-3.175 0.635,-2.96333 1.72861,0.70556 7.3025,1.5875 9.94833,1.55222 6.0325,-0.0353 6.6675,-1.02305 4.09222,-6.17361 -3.24555,-6.38528 -8.81944,-10.37167 -14.81666,-10.65389 -1.51695,-0.10583 -3.38667,0.0353 -4.16278,0.24695 -1.30528,0.38805 -1.41111,0.35277 -2.8575,-0.81139 l -1.51695,-1.27 z m -28.363334,4.79778 c 0,0.0706 -0.388055,0.98778 -0.881944,2.01083 -0.458611,1.05834 -1.058333,2.78695 -1.340556,3.84528 -0.599722,2.36361 -1.340555,2.8575 -5.573889,3.91583 -2.892778,0.74084 -7.196667,0.81139 -8.854722,0.14111 -2.998612,-1.19944 4.303889,-7.51416 10.830278,-9.38388 1.869722,-0.52917 5.820833,-0.91723 5.820833,-0.52917 z m 39.299444,0.42333 c 4.79778,1.23472 11.07723,5.53861 11.71223,8.04334 0.28222,1.23472 -0.10584,1.51694 -2.64584,1.83444 -2.50472,0.3175 -5.715,-0.0353 -8.46666,-0.9525 -2.68111,-0.91722 -3.38667,-1.55222 -3.66889,-3.35139 -0.14111,-0.77611 -0.635,-2.36361 -1.12889,-3.56305 -0.49389,-1.23473 -0.88195,-2.29306 -0.88195,-2.39889 0,-0.38806 2.99862,-0.14111 5.08,0.38805 z m -32.808332,16.51 c 0.740834,1.55222 0.705555,3.59834 -0.07056,5.15056 -1.199444,2.39889 -3.280833,0.91722 -3.316111,-2.36361 0,-3.59834 2.151945,-5.3975 3.386667,-2.78695 z m 24.130002,-0.0705 c 0.59972,1.23472 0.635,3.88055 0.0706,5.18583 -1.27,3.06917 -3.91583,0.38806 -3.38667,-3.42194 0.38806,-2.78695 2.32834,-3.84528 3.31611,-1.76389 z m -11.21833,1.34055 c 0.35277,0.70556 0.84666,2.08139 1.09361,3.03389 0.21166,0.9525 0.81139,2.50473 1.30528,3.42195 0.81138,1.48166 1.23472,1.83444 3.45722,2.89278 3.4925,1.5875 4.55083,3.13972 4.55083,6.6675 0,3.06916 -0.81139,4.83305 -2.96333,6.45583 -2.43417,1.86972 -4.7625,2.39889 -10.44222,2.36361 -4.30389,0 -5.22112,-0.10583 -7.020284,-0.81139 -4.833056,-1.905 -7.090834,-6.6675 -5.185834,-10.795 0.881945,-1.86972 2.257778,-3.13972 4.727223,-4.19805 2.363615,-1.05834 2.998615,-1.94028 4.374445,-6.0325 0.49389,-1.55223 1.16417,-3.21028 1.44639,-3.63362 1.23472,-1.86972 3.52778,-1.55222 4.65667,0.635 z" />
    <path
       style="fill:#000000;stroke:none;stroke-width:0.03527778"
       inkscape:connector-curvature="0"
       id="path62"
       d="m 100.57795,157.75994 c -0.670274,0.14112 -0.917218,0.45862 -0.987774,1.30528 -0.211667,2.04611 3.351394,5.00945 6.067784,5.04472 3.13972,0 7.09083,-3.95111 5.75027,-5.78555 -0.38805,-0.52917 -1.09361,-0.635 -5.22111,-0.70556 -2.57528,-0.0353 -5.11528,0.0353 -5.60917,0.14111 z" />
    <path
       style="fill:#000000;stroke:none;stroke-width:0.03527778"
       inkscape:connector-curvature="0"
       id="path90"
       d="m 120.12184,173.10578 c -1.86972,1.23472 -2.25777,1.72861 -3.35138,4.05694 l -1.23473,2.64584 0.84667,2.64583 c 0.45861,1.44639 1.09361,4.51556 1.41111,6.77333 l 0.56445,4.16278 h 4.90361 4.93889 l -0.24695,-2.39889 c -0.49389,-4.79778 -2.96333,-13.72305 -4.90361,-17.70944 l -0.77611,-1.62278 z" />
    <path
       style="fill:#000000;stroke:none;stroke-width:0.03527778"
       inkscape:connector-curvature="0"
       id="path92"
       d="m 88.371842,174.26994 c -2.187222,5.43278 -4.162778,13.08806 -4.445,17.35667 l -0.105833,1.5875 5.150555,0.10584 5.150556,0.10583 0.246945,-3.06917 c 0.246944,-3.38666 1.27,-8.53722 2.116667,-10.4775 0.529167,-1.27 0.493887,-1.30528 -0.740834,-3.24555 -0.705556,-1.05834 -1.446389,-1.94028 -1.693333,-1.94028 -0.211667,0 -1.375834,-0.635 -2.575278,-1.37584 l -2.116667,-1.41111 z" />
  </g>
</svg>
