<?xml version="1.0" encoding="UTF-8" standalone="no"?>
<!-- Created with Inkscape (http://www.inkscape.org/) -->

<svg
   xmlns:dc="http://purl.org/dc/elements/1.1/"
   xmlns:cc="http://creativecommons.org/ns#"
   xmlns:rdf="http://www.w3.org/1999/02/22-rdf-syntax-ns#"
   xmlns:svg="http://www.w3.org/2000/svg"
   xmlns="http://www.w3.org/2000/svg"
   xmlns:sodipodi="http://sodipodi.sourceforge.net/DTD/sodipodi-0.dtd"
   xmlns:inkscape="http://www.inkscape.org/namespaces/inkscape"
   width="57.60865mm"
   height="92.886421mm"
   viewBox="0 0 57.60865 92.886421"
   version="1.1"
   id="svg4148"
   inkscape:version="0.92.4 (5da689c313, 2019-01-14)"
   sodipodi:docname="horse.svg">
  <defs
     id="defs4142" />
  <sodipodi:namedview
     id="base"
     pagecolor="#ffffff"
     bordercolor="#666666"
     borderopacity="1.0"
     inkscape:pageopacity="0.0"
     inkscape:pageshadow="2"
     inkscape:zoom="0.35"
     inkscape:cx="108.86674"
     inkscape:cy="175.5334"
     inkscape:document-units="mm"
     inkscape:current-layer="layer1"
     showgrid="false"
     fit-margin-top="0"
     fit-margin-left="0"
     fit-margin-right="0"
     fit-margin-bottom="0"
     inkscape:window-width="1920"
     inkscape:window-height="1017"
     inkscape:window-x="1912"
     inkscape:window-y="-8"
     inkscape:window-maximized="1" />
  <metadata
     id="metadata4145">
    <rdf:RDF>
      <cc:Work
         rdf:about="">
        <dc:format>image/svg+xml</dc:format>
        <dc:type
           rdf:resource="http://purl.org/dc/dcmitype/StillImage" />
        <dc:title></dc:title>
      </cc:Work>
    </rdf:RDF>
  </metadata>
  <g
     inkscape:label="Layer 1"
     inkscape:groupmode="layer"
     id="layer1"
     transform="translate(-77.029008,-102.39012)">
    <path
       style="fill:#000000;stroke:none;stroke-width:0.03527778"
       inkscape:connector-curvature="0"
       id="path34"
       d="m 81.368174,104.08345 c -2.610555,6.13834 -3.316111,13.40556 -2.046111,21.59 0.3175,2.29306 0.282222,2.82223 -0.458611,5.46806 -0.705555,2.50472 -0.811389,3.73945 -0.846667,8.5725 0,4.86833 0.105834,6.10306 0.846667,8.81945 0.705556,2.71639 3.175,9.06639 3.668889,9.59555 0.105833,0.0705 0.9525,-0.3175 1.905,-0.91722 6.596945,-4.05694 13.264446,-5.43278 19.684999,-4.09222 2.57528,0.56444 6.985,2.46944 8.81945,3.84528 1.94027,1.44638 1.86972,1.48166 3.175,-1.34056 2.39889,-5.15056 3.95111,-13.335 3.52777,-18.34445 -0.14111,-1.37583 -0.28222,-2.68111 -0.35277,-2.92805 -0.10584,-0.28222 -1.23473,0.0705 -3.42195,1.12889 -7.76111,3.66889 -13.08805,3.88055 -19.543887,0.70555 -3.210278,-1.5875 -6.103055,-4.55083 -7.196667,-7.47889 -1.234722,-3.21027 -1.305277,-7.58472 -0.246944,-11.71222 l 0.846667,-3.35139 -0.811389,-1.86972 c -1.164167,-2.57528 -3.66889,-6.35 -5.397501,-8.00806 l -1.411111,-1.37583 z m 3.139723,6.20889 c 0.599722,1.51695 1.411111,4.02167 1.834444,5.57389 l 0.776112,2.82222 -1.76389,1.5875 c -0.9525,0.84667 -2.187222,2.2225 -2.751666,3.03389 -0.881945,1.27 -1.058334,1.37584 -1.27,0.81139 -0.141111,-0.35278 -0.282223,-2.8575 -0.282223,-5.57389 -0.03528,-4.7625 0.282223,-7.97277 1.058334,-10.93611 0.352778,-1.30528 0.423333,-1.34055 0.881944,-0.74083 0.246945,0.38805 0.9525,1.905 1.516945,3.42194 z m 3.210278,32.77306 c 2.046111,1.09361 1.446389,7.40833 -0.705556,7.40833 -2.046111,0 -2.681111,-5.85611 -0.776111,-7.33777 0.670278,-0.52917 0.670278,-0.52917 1.481667,-0.0706 z m 24.518055,0.35278 c 0.9525,1.05833 1.16417,4.37444 0.35278,5.89139 -1.23472,2.25778 -3.03389,0.98778 -3.24556,-2.29306 -0.10583,-1.5875 0,-2.25778 0.56445,-3.175 0.84666,-1.30528 1.44639,-1.41111 2.32833,-0.42333 z" />
    <path
       style="fill:#000000;stroke:none;stroke-width:0.03527778"
       inkscape:connector-curvature="0"
       id="path36"
       d="m 113.18873,104.04818 c -1.51694,1.65805 -2.57528,3.21027 -4.16278,6.13833 -1.05833,1.97556 -1.34055,2.11667 -2.50472,1.30528 -2.68111,-1.86972 -8.572499,-2.36361 -11.288888,-0.9525 -3.633611,1.905 -5.326944,4.58611 -5.644444,9.06639 -0.388056,5.04472 1.058333,9.77194 3.951111,12.84111 4.833056,5.15055 13.617221,5.64444 22.577781,1.27 2.75166,-1.34056 7.09083,-4.05695 6.49111,-4.05695 -0.14111,0 -1.09361,0.38806 -2.15195,0.84667 -4.16277,1.83445 -6.94972,2.46945 -11.04194,2.50472 -3.4925,0 -4.02167,-0.10583 -5.36222,-0.84666 -1.65806,-0.9525 -1.79917,-1.30528 -0.24695,-0.74084 1.34056,0.52917 7.86695,0.52917 8.36084,0.0353 0.28222,-0.28222 0.17638,-0.38805 -0.45862,-0.38805 -0.45861,0 -1.51694,-0.3175 -2.36361,-0.74083 -2.04611,-0.98778 -3.31611,-3.13973 -3.52777,-6.10306 -0.21167,-2.61056 0.49388,-7.26722 1.09361,-7.26722 0.28222,0 0.38805,1.30527 0.38805,4.65666 0,4.30389 0.0705,4.79778 0.81139,6.0325 0.45861,0.74084 1.30528,1.55223 1.86972,1.83445 1.30528,0.70555 4.69195,1.02305 6.45584,0.635 l 1.37583,-0.28222 0.21167,-3.52778 c 0.42333,-7.16139 0.17639,-14.25223 -0.59973,-17.10973 -0.91722,-3.42194 -2.15194,-6.70277 -2.50472,-6.70277 -0.17639,0 -0.9525,0.70555 -1.72861,1.55222 z m 1.97556,3.98638 c 0.77611,3.17501 1.27,10.33639 0.91722,13.29973 l -0.3175,2.82222 -1.34056,-1.76389 c -0.74083,-0.9525 -1.97555,-2.18722 -2.71639,-2.75167 -0.77611,-0.59972 -1.41111,-1.34055 -1.41111,-1.65805 0,-1.5875 3.63361,-11.60639 4.19806,-11.60639 0.14111,0 0.45861,0.74083 0.67028,1.65805 z" />
    <path
       style="fill:#000000;stroke:none;stroke-width:0.03527778"
       inkscape:connector-curvature="0"
       id="path72"
       d="m 117.06929,157.17651 c -1.27,2.54 -1.83445,4.05695 -1.69334,4.51556 0.14111,0.38805 0,1.83444 -0.28222,3.21028 l -0.52917,2.50472 1.37584,2.57528 c 3.13972,5.78555 6.06778,14.99305 7.05555,22.18972 l 0.42334,3.10444 h 5.3975 c 5.89139,0 5.82083,0.0353 5.82083,-2.15194 0,-1.48167 -0.98778,-6.06778 -1.83444,-8.60778 -0.9525,-2.82222 -4.37445,-9.91305 -6.56167,-13.51139 -0.98778,-1.5875 -1.69333,-2.89278 -1.62278,-2.89278 0.10584,0 0.59972,0.3175 1.12889,0.70556 0.98778,0.74083 6.06778,2.61056 6.31472,2.32833 0.0706,-0.0706 -0.52916,-0.52916 -1.37583,-1.02305 -3.70417,-2.15195 -8.21972,-8.5725 -10.68917,-15.16945 -0.35278,-0.91722 -0.70555,-1.65805 -0.84666,-1.62278 -0.10584,0 -1.05834,1.72862 -2.08139,3.84528 z" />
    <path
       style="fill:#000000;stroke:none;stroke-width:0.03527778"
       inkscape:connector-curvature="0"
       id="path76"
       d="m 96.361231,154.21318 c -0.388055,0.10583 -1.622778,0.3175 -2.716389,0.56444 -1.940278,0.35278 -2.046111,0.45861 -2.398889,1.65806 -1.199444,4.30389 0.881945,5.85611 7.761112,5.82083 4.092225,0 5.856115,-0.45861 7.055555,-1.72861 0.70556,-0.74083 0.77611,-1.09361 0.59972,-2.8575 -0.10583,-1.09361 -0.35278,-2.15194 -0.52916,-2.32833 -0.77612,-0.77611 -7.549449,-1.55222 -9.771949,-1.12889 z" />
    <path
       style="fill:#000000;stroke:none;stroke-width:0.03527778"
       inkscape:connector-curvature="0"
       id="path78"
       d="m 88.60012,156.50623 c -0.776111,0.38806 -2.257779,1.19945 -3.245557,1.79917 l -1.869722,1.12889 v 2.2225 c 0,2.75167 0.564445,4.16278 2.504722,6.24417 1.799168,2.01083 4.409723,3.4925 7.231946,4.23333 2.469444,0.635 7.972781,0.74083 10.371671,0.17639 2.50472,-0.56444 5.78555,-2.29306 7.40833,-3.91583 2.04611,-2.04611 2.82222,-3.81 2.82222,-6.52639 0,-2.18723 0,-2.2225 -1.48167,-3.31611 -1.72861,-1.23473 -4.86833,-2.89278 -5.08,-2.68112 -0.10583,0.0706 0,0.56445 0.21167,1.09362 0.17639,0.52916 0.35278,1.65805 0.35278,2.54 0,1.905 -0.98778,2.99861 -3.31611,3.66888 -5.573891,1.55223 -12.347225,0.67028 -14.111114,-1.83444 -0.635,-0.88194 -0.740833,-3.31611 -0.211666,-4.65667 0.388055,-1.09361 0.246944,-1.09361 -1.5875,-0.17639 z" />
    <path
       style="fill:#000000;stroke:none;stroke-width:0.03527778"
       inkscape:connector-curvature="0"
       id="path88"
       d="m 111.10734,171.07596 c -6.80861,4.72722 -18.344442,4.65666 -25.22361,-0.17639 -0.493889,-0.38806 -1.023056,-0.67028 -1.164167,-0.67028 -0.423333,0 -3.280833,6.45583 -4.550833,10.26583 -1.340556,3.95112 -2.469445,8.89001 -2.892778,12.55889 l -0.246944,2.2225 h 5.256389 5.256389 l 0.635,-3.175 c 1.516945,-7.9375 5.573889,-12.52361 11.041945,-12.45305 5.326949,0.0353 9.524999,4.86833 11.041949,12.62944 l 0.56444,2.99861 5.29167,-0.0705 5.29166,-0.10583 -0.10583,-1.76389 c -0.17639,-2.8575 -1.44639,-8.53722 -2.75167,-12.52361 -1.16416,-3.56306 -4.62139,-11.28889 -5.04472,-11.28889 -0.10583,0 -1.19944,0.70555 -2.39889,1.55222 z" />
  </g>
</svg>
