<?xml version="1.0" encoding="UTF-8" standalone="no"?>
<!-- Created with Inkscape (http://www.inkscape.org/) -->

<svg
   xmlns:dc="http://purl.org/dc/elements/1.1/"
   xmlns:cc="http://creativecommons.org/ns#"
   xmlns:rdf="http://www.w3.org/1999/02/22-rdf-syntax-ns#"
   xmlns:svg="http://www.w3.org/2000/svg"
   xmlns="http://www.w3.org/2000/svg"
   xmlns:sodipodi="http://sodipodi.sourceforge.net/DTD/sodipodi-0.dtd"
   xmlns:inkscape="http://www.inkscape.org/namespaces/inkscape"
   width="63.812962mm"
   height="81.249184mm"
   viewBox="0 0 63.812962 81.249184"
   version="1.1"
   id="svg4244"
   inkscape:version="0.92.4 (5da689c313, 2019-01-14)"
   sodipodi:docname="monkey.svg">
  <defs
     id="defs4238" />
  <sodipodi:namedview
     id="base"
     pagecolor="#ffffff"
     bordercolor="#666666"
     borderopacity="1.0"
     inkscape:pageopacity="0.0"
     inkscape:pageshadow="2"
     inkscape:zoom="0.35"
     inkscape:cx="120.59142"
     inkscape:cy="153.54186"
     inkscape:document-units="mm"
     inkscape:current-layer="layer1"
     showgrid="false"
     fit-margin-top="0"
     fit-margin-left="0"
     fit-margin-right="0"
     fit-margin-bottom="0"
     inkscape:window-width="1920"
     inkscape:window-height="1017"
     inkscape:window-x="1912"
     inkscape:window-y="-8"
     inkscape:window-maximized="1" />
  <metadata
     id="metadata4241">
    <rdf:RDF>
      <cc:Work
         rdf:about="">
        <dc:format>image/svg+xml</dc:format>
        <dc:type
           rdf:resource="http://purl.org/dc/dcmitype/StillImage" />
        <dc:title></dc:title>
      </cc:Work>
    </rdf:RDF>
  </metadata>
  <g
     inkscape:label="Layer 1"
     inkscape:groupmode="layer"
     id="layer1"
     transform="translate(-73.926853,-108.20877)">
    <path
       style="fill:#000000;stroke:none;stroke-width:0.03527778"
       inkscape:connector-curvature="0"
       id="path102"
       d="m 109.21898,108.63656 c -7.09084,1.5875 -14.534446,5.715 -18.873613,10.51278 -2.328333,2.57528 -4.833055,7.54945 -5.609167,11.04195 -0.740833,3.38666 -0.846666,9.70139 -0.141111,10.19527 0.458611,0.35278 2.293056,2.92806 2.892778,4.09223 0.176389,0.28222 -0.3175,-0.14111 -1.058333,-0.9525 -2.081389,-2.2225 -3.4925,-2.92806 -5.961945,-2.92806 -2.892778,0 -4.303889,0.81139 -5.538611,3.175 -1.869723,3.56306 -1.093612,7.47889 2.081389,10.44222 2.187222,2.04611 3.704166,2.71639 6.491111,2.89278 2.2225,0.14111 2.328334,0.17639 2.963334,1.37583 1.552222,2.8575 5.468055,5.18584 10.583333,6.27945 4.092225,0.88194 12.982225,0.84667 17.462505,-0.10583 5.43277,-1.12889 9.66611,-3.66889 11.00666,-6.59695 0.3175,-0.70555 0.67028,-0.81139 2.71639,-0.9525 2.78695,-0.17639 4.65667,-0.98778 6.63222,-2.96333 1.86973,-1.86972 2.57528,-3.28084 2.82223,-5.57389 0.24694,-2.50472 -0.38806,-4.62139 -1.97556,-6.31472 -1.27,-1.34056 -1.48167,-1.44639 -3.66889,-1.5875 -2.8575,-0.17639 -4.90361,0.67027 -6.77333,2.8575 -0.67028,0.77611 -1.23472,1.30527 -1.23472,1.16416 0,-0.52916 2.50472,-4.1275 2.99861,-4.30389 0.45861,-0.17638 0.52916,-0.91722 0.38805,-4.51555 -0.21166,-5.04472 -1.12889,-9.27806 -2.78694,-12.34722 -1.97556,-3.73945 -6.10306,-7.26723 -9.80722,-8.39612 -0.77612,-0.21166 -1.37584,-0.49389 -1.37584,-0.59972 0,-0.42333 1.48167,-2.68111 2.04611,-3.13972 0.74084,-0.56445 2.36361,-0.52917 2.8575,0.0706 0.3175,0.35278 0.3175,0.70556 0,1.41112 -0.56444,1.19944 -0.21166,1.51694 0.91723,0.77611 2.11666,-1.37584 1.62277,-4.16278 -0.88195,-5.04473 -1.5875,-0.52916 -6.6675,-0.52916 -9.17222,0.0353 z m 6.84389,17.99167 c 2.15194,0.91722 4.72722,4.7625 5.46805,8.255 0.45861,2.15195 0.49389,9.06639 0.0706,11.32417 -0.28222,1.48166 -0.24694,1.55222 1.02306,2.71639 1.76389,1.5875 2.2225,2.8575 2.04611,5.36222 -0.35278,4.72722 -4.69195,7.97278 -12.3825,9.24278 -3.31611,0.52916 -11.43,0.42333 -14.428613,-0.17639 -3.527778,-0.74084 -7.337778,-2.64584 -8.925278,-4.51556 -1.481667,-1.69333 -2.469444,-4.69194 -2.151944,-6.42055 0.141111,-0.74084 0.846666,-1.83445 1.799166,-2.82223 l 1.587501,-1.62277 -0.529167,-3.03389 c -1.234722,-7.12611 -0.352778,-13.26445 2.398889,-16.29834 1.940278,-2.15194 5.820833,-2.75166 9.136946,-1.41111 2.25778,0.88195 5.32694,0.77611 8.39611,-0.35278 2.29305,-0.84666 4.83306,-0.9525 6.49111,-0.24694 z m -32.984725,18.20333 c 0.740833,0.35278 2.010833,1.41112 2.786944,2.29306 l 1.446389,1.65806 -0.881944,1.37583 c -0.458611,0.77611 -0.9525,2.08139 -1.093611,2.96333 -0.176389,1.37584 -0.3175,1.5875 -1.023056,1.5875 -2.293056,0 -6.0325,-2.32833 -6.985,-4.37444 -0.987778,-2.11667 -0.458612,-4.90361 1.093611,-5.82084 1.023055,-0.59972 3.210278,-0.45861 4.656667,0.3175 z m 50.200275,-0.3175 c 0.81139,0.45862 1.69334,2.36362 1.69334,3.73945 0,2.29305 -2.99861,5.29167 -6.06778,6.13833 -2.15195,0.56445 -2.54,0.35278 -2.75167,-1.44639 -0.10583,-0.88194 -0.52916,-2.15194 -0.98778,-2.8575 l -0.77611,-1.27 1.44639,-1.65805 c 0.81139,-0.91722 2.04611,-1.94028 2.75167,-2.32834 1.41111,-0.74083 3.59833,-0.91722 4.69194,-0.3175 z" />
    <path
       style="fill:#000000;stroke:none;stroke-width:0.03527778"
       inkscape:connector-curvature="0"
       id="path104"
       d="m 92.779534,140.77462 c -0.599722,1.44639 -0.635,3.175 -0.105833,4.69194 1.093611,3.13973 3.986389,0.52917 3.316111,-2.99861 -0.529167,-2.92805 -2.293056,-3.88055 -3.210278,-1.69333 z" />
    <path
       style="fill:#000000;stroke:none;stroke-width:0.03527778"
       inkscape:connector-curvature="0"
       id="path106"
       d="m 116.55676,140.31601 c -0.24695,0.45861 -0.42334,1.79917 -0.45861,2.99861 0,1.79917 0.14111,2.32833 0.77611,2.96333 0.74083,0.74084 0.81139,0.74084 1.65805,0.17639 1.09361,-0.70555 1.44639,-1.86972 1.12889,-3.84528 -0.3175,-1.86972 -1.09361,-3.06916 -1.97555,-3.06916 -0.38806,0 -0.88195,0.35278 -1.12889,0.77611 z" />
    <path
       style="fill:#000000;stroke:none;stroke-width:0.03527778"
       inkscape:connector-curvature="0"
       id="path108"
       d="m 100.50537,148.00656 c -1.093613,0.45862 -1.058336,1.94028 0.0706,3.63362 2.15194,3.13972 6.70277,3.63361 9.45444,1.02305 2.15195,-2.04611 2.46945,-4.02167 0.70556,-4.69194 -1.09361,-0.38806 -9.17223,-0.38806 -10.23056,0.0353 z" />
    <path
       style="fill:#000000;stroke:none;stroke-width:0.03527778"
       inkscape:connector-curvature="0"
       id="path124"
       d="m 91.756479,166.49212 c -2.504723,3.81 -5.820834,14.18167 -6.702779,20.91972 l -0.246944,1.86973 h 4.233334 4.198055 l 0.246945,-2.04612 c 0.987777,-8.71361 7.47889,-15.24 13.75833,-13.82889 2.46945,0.56445 4.09222,1.48167 5.92667,3.45723 2.57528,2.71639 4.1275,6.38527 4.69194,11.00666 l 0.17639,1.5875 4.05695,-0.10583 4.02166,-0.10583 -0.14111,-0.9525 c -0.0706,-0.52917 -0.35277,-2.15195 -0.56444,-3.59834 -0.49389,-3.28083 -2.15195,-9.2075 -3.35139,-12.10027 -1.44639,-3.45723 -3.03389,-6.59695 -3.35139,-6.59695 -0.14111,0 -1.19944,0.24695 -2.32833,0.52917 -5.50334,1.44639 -15.80445,1.37583 -21.554725,-0.14111 l -2.575278,-0.67028 z" />
  </g>
</svg>
