<?xml version="1.0" encoding="UTF-8" standalone="no"?>
<!-- Created with Inkscape (http://www.inkscape.org/) -->

<svg
   xmlns:dc="http://purl.org/dc/elements/1.1/"
   xmlns:cc="http://creativecommons.org/ns#"
   xmlns:rdf="http://www.w3.org/1999/02/22-rdf-syntax-ns#"
   xmlns:svg="http://www.w3.org/2000/svg"
   xmlns="http://www.w3.org/2000/svg"
   xmlns:sodipodi="http://sodipodi.sourceforge.net/DTD/sodipodi-0.dtd"
   xmlns:inkscape="http://www.inkscape.org/namespaces/inkscape"
   width="73.874504mm"
   height="69.797096mm"
   viewBox="0 0 73.874504 69.797096"
   version="1.1"
   id="svg4350"
   inkscape:version="0.92.4 (5da689c313, 2019-01-14)"
   sodipodi:docname="pig.svg">
  <defs
     id="defs4344" />
  <sodipodi:namedview
     id="base"
     pagecolor="#ffffff"
     bordercolor="#666666"
     borderopacity="1.0"
     inkscape:pageopacity="0.0"
     inkscape:pageshadow="2"
     inkscape:zoom="0.35"
     inkscape:cx="139.60536"
     inkscape:cy="131.90002"
     inkscape:document-units="mm"
     inkscape:current-layer="layer1"
     showgrid="false"
     fit-margin-top="0"
     fit-margin-left="0"
     fit-margin-right="0"
     fit-margin-bottom="0"
     inkscape:window-width="1920"
     inkscape:window-height="1017"
     inkscape:window-x="1912"
     inkscape:window-y="-8"
     inkscape:window-maximized="1" />
  <metadata
     id="metadata4347">
    <rdf:RDF>
      <cc:Work
         rdf:about="">
        <dc:format>image/svg+xml</dc:format>
        <dc:type
           rdf:resource="http://purl.org/dc/dcmitype/StillImage" />
        <dc:title></dc:title>
      </cc:Work>
    </rdf:RDF>
  </metadata>
  <g
     inkscape:label="Layer 1"
     inkscape:groupmode="layer"
     id="layer1"
     transform="translate(-68.896081,-113.93479)">
    <path
       style="fill:#000000;stroke:none;stroke-width:0.03527778"
       inkscape:connector-curvature="0"
       id="path112"
       d="m 69.852876,114.62271 c -0.599722,1.05833 -1.164166,7.23194 -0.881944,9.48972 0.564444,4.7625 1.869722,8.04333 4.268611,10.58333 3.033889,3.24556 6.385278,3.56306 10.477501,1.05834 2.010833,-1.23473 2.010833,-1.37584 -0.176389,3.77472 -1.693334,3.98639 -2.151945,6.59694 -1.693334,9.41917 1.093611,6.70277 7.443612,13.05278 16.05139,15.94555 3.386669,1.12889 8.819449,1.51695 12.241389,0.84667 6.45583,-1.23472 13.335,-5.60917 16.75694,-10.58333 1.94028,-2.8575 2.68112,-5.50334 2.50473,-9.06639 -0.10584,-2.68111 -0.35278,-3.63361 -1.76389,-7.16139 -0.91722,-2.2225 -1.5875,-4.09223 -1.55222,-4.16278 0.0705,-0.0353 0.88194,0.38805 1.83444,0.9525 2.75167,1.69333 4.65667,2.04611 6.91445,1.34055 4.23333,-1.34055 7.12611,-6.13833 7.86694,-13.12333 0.28222,-2.50472 -0.35278,-8.89 -0.9525,-9.63083 -0.45861,-0.56445 -1.44639,-0.42334 -3.81,0.45861 -1.41111,0.52916 -2.01083,0.56444 -5.29167,0.21166 -5.3975,-0.59972 -9.73666,0.42334 -13.12333,3.13973 l -1.27,1.05833 -2.01083,-0.91722 c -2.96334,-1.37584 -7.37306,-2.01084 -11.99445,-1.79917 -4.16278,0.24695 -6.455832,0.74083 -9.066388,2.01083 l -1.622778,0.81139 -1.411111,-1.12889 c -2.716389,-2.15194 -7.443612,-3.66888 -10.512778,-3.42194 -0.564445,0.0706 -2.293056,0.21167 -3.880556,0.38806 -2.504722,0.21166 -3.069167,0.17638 -4.550834,-0.49389 -2.116666,-0.91723 -2.8575,-0.91723 -3.351389,0 z m 4.550834,4.55083 c 0.564444,0.28222 2.575278,0.45861 5.644444,0.49389 5.221112,0.0353 5.89139,0.21167 8.325557,2.36361 1.340555,1.16417 1.516944,1.86972 0.776111,2.96333 -0.493889,0.70556 -0.776111,1.44639 -2.187223,5.46806 -0.9525,2.75167 -2.681111,4.30389 -5.538611,4.93889 -3.81,0.84667 -7.020278,-1.19945 -9.101667,-5.78556 -1.728611,-3.81 -2.504722,-10.30111 -1.446389,-12.17083 l 0.458611,-0.81139 1.093611,1.05833 c 0.635,0.56445 1.516945,1.23473 1.975556,1.48167 z m 66.85139,1.34056 c -0.0353,3.63361 -0.67028,6.42055 -2.11667,9.48972 -2.15194,4.51555 -5.50333,6.38528 -9.38388,5.25639 -2.78695,-0.81139 -4.30389,-2.32834 -5.22112,-5.32695 -0.42333,-1.37583 -1.19944,-3.38666 -1.69333,-4.51555 l -0.88194,-2.04611 0.84666,-0.88195 c 0.45861,-0.49389 1.55222,-1.34055 2.43417,-1.83444 1.48167,-0.88195 1.86972,-0.9525 6.35,-0.98778 5.15056,-0.0353 6.10306,-0.28222 7.72583,-2.04611 0.81139,-0.84667 0.91723,-0.88195 1.41111,-0.38806 0.42334,0.42334 0.56445,1.23472 0.52917,3.28084 z m -46.002222,16.51 c 0.211666,0.49389 0.352777,1.76389 0.352777,2.78694 0,1.48167 -0.176387,2.11667 -0.811389,2.8575 -0.705555,0.81139 -0.917222,0.88195 -1.552222,0.56445 -1.869722,-0.98778 -2.046111,-5.50334 -0.282222,-7.23195 0.740833,-0.74083 1.834444,-0.24694 2.293056,1.02306 z m 24.588612,1.65805 c 0.24694,1.94028 -0.42333,3.98639 -1.41111,4.51556 -0.635,0.35278 -0.84667,0.28222 -1.55222,-0.52917 -1.44639,-1.69333 -0.98778,-6.38528 0.67027,-7.02028 0.84667,-0.3175 2.11667,1.34056 2.29306,3.03389 z m -25.470557,6.35 c 2.257778,1.55223 3.033888,1.65806 4.868335,0.74084 1.728612,-0.91723 4.445002,-1.55223 6.632222,-1.55223 2.04611,0 6.45583,1.12889 6.84389,1.76389 0.42333,0.67028 2.68111,0.38806 3.84528,-0.52916 1.23472,-0.9525 4.40972,-2.43417 4.65666,-2.18723 0.10584,0.0706 -0.70555,0.81139 -1.76389,1.62278 -2.08139,1.55222 -3.63361,3.81 -4.1275,5.99722 -0.35277,1.5875 0.3175,4.26862 1.30528,5.36223 0.3175,0.35277 0.42333,0.67027 0.21167,0.67027 -0.45861,0 -1.83445,-1.86972 -1.83445,-2.46944 0,-0.21167 -0.635,0.14111 -1.37583,0.77611 -1.79917,1.55222 -4.69194,2.43417 -7.9375,2.46945 -3.13972,0.0353 -5.64444,-0.74084 -7.549445,-2.36362 -1.27,-1.12888 -1.446387,-1.16416 -1.622777,-0.59972 -0.14111,0.35278 -0.599723,1.02306 -1.058333,1.44639 l -0.846667,0.81139 0.846667,-1.69333 c 1.72861,-3.38667 0.917223,-6.42056 -2.645834,-9.77195 -1.164167,-1.12889 -2.151945,-2.15194 -2.151945,-2.2225 0,-0.42333 1.763889,0.38806 3.704167,1.72861 z" />
    <path
       style="fill:#000000;stroke:none;stroke-width:0.03527778"
       inkscape:connector-curvature="0"
       id="path114"
       d="m 103.08454,145.31438 c -2.32833,0.38805 -3.598329,1.05833 -4.762496,2.43416 -1.658056,1.97556 -1.5875,4.97417 0.211667,6.63222 2.116669,1.97556 6.738059,2.99862 10.054169,2.18723 5.64444,-1.34056 7.76111,-6.27945 4.1275,-9.48973 -1.86972,-1.65805 -5.89139,-2.36361 -9.63084,-1.76388 z" />
    <path
       style="fill:#000000;stroke:none;stroke-width:0.03527778"
       inkscape:connector-curvature="0"
       id="path126"
       d="m 87.315377,164.82299 c -1.975556,4.445 -4.409722,14.14639 -4.409722,17.49778 v 1.41111 h 5.644444 5.609167 l 0.388056,-1.51695 c 1.305279,-5.22111 3.527779,-8.29028 7.408338,-10.30111 1.94027,-1.02305 5.36222,-0.88194 7.62,0.28222 3.24555,1.65806 5.92666,5.43278 6.87916,9.66612 l 0.42334,1.86972 h 5.78555 5.75028 l -0.14111,-0.81139 c -0.10583,-0.42333 -0.28222,-1.69333 -0.38806,-2.82222 -0.24694,-2.32834 -1.55222,-7.83167 -2.57528,-11.00667 -0.74083,-2.2225 -2.15194,-5.89139 -2.36361,-6.13833 -0.0706,-0.0353 -1.05833,0.45861 -2.2225,1.16416 -8.67833,5.36222 -18.76777,5.85611 -27.763608,1.37584 -1.340556,-0.70556 -2.892778,-1.55223 -3.421945,-1.905 -0.493889,-0.38806 -1.023055,-0.67028 -1.164166,-0.67028 -0.105834,0 -0.599723,0.84666 -1.058334,1.905 z" />
  </g>
</svg>
