<?xml version="1.0" encoding="UTF-8" standalone="no"?>
<!-- Created with Inkscape (http://www.inkscape.org/) -->

<svg
   xmlns:dc="http://purl.org/dc/elements/1.1/"
   xmlns:cc="http://creativecommons.org/ns#"
   xmlns:rdf="http://www.w3.org/1999/02/22-rdf-syntax-ns#"
   xmlns:svg="http://www.w3.org/2000/svg"
   xmlns="http://www.w3.org/2000/svg"
   xmlns:sodipodi="http://sodipodi.sourceforge.net/DTD/sodipodi-0.dtd"
   xmlns:inkscape="http://www.inkscape.org/namespaces/inkscape"
   width="47.245266mm"
   height="88.54731mm"
   viewBox="0 0 47.245266 88.54731"
   version="1.1"
   id="svg4037"
   inkscape:version="0.92.4 (5da689c313, 2019-01-14)"
   sodipodi:docname="rabbit.svg">
  <defs
     id="defs4031" />
  <sodipodi:namedview
     id="base"
     pagecolor="#ffffff"
     bordercolor="#666666"
     borderopacity="1.0"
     inkscape:pageopacity="0.0"
     inkscape:pageshadow="2"
     inkscape:zoom="0.35"
     inkscape:cx="89.282386"
     inkscape:cy="167.33335"
     inkscape:document-units="mm"
     inkscape:current-layer="layer1"
     showgrid="false"
     fit-margin-top="0"
     fit-margin-left="0"
     fit-margin-right="0"
     fit-margin-bottom="0"
     inkscape:window-width="1920"
     inkscape:window-height="1017"
     inkscape:window-x="1912"
     inkscape:window-y="-8"
     inkscape:window-maximized="1" />
  <metadata
     id="metadata4034">
    <rdf:RDF>
      <cc:Work
         rdf:about="">
        <dc:format>image/svg+xml</dc:format>
        <dc:type
           rdf:resource="http://purl.org/dc/dcmitype/StillImage" />
        <dc:title></dc:title>
      </cc:Work>
    </rdf:RDF>
  </metadata>
  <g
     inkscape:label="Layer 1"
     inkscape:groupmode="layer"
     id="layer1"
     transform="translate(-82.210702,-104.55964)">
    <path
       style="fill:#000000;stroke:none;stroke-width:0.03527778"
       inkscape:connector-curvature="0"
       id="path4"
       d="m 89.442647,105.19472 c -4.691945,2.46944 -6.244167,12.48833 -3.351389,21.44889 1.093611,3.35139 3.4925,8.43139 5.185833,11.1125 l 1.270001,1.97556 -0.846667,1.37583 c -1.340556,2.18722 -5.997223,13.19389 -6.491112,15.27528 -0.246944,1.12889 -0.352777,2.8575 -0.246944,4.23333 l 0.176389,2.36361 -1.27,-0.10583 -1.305278,-0.0706 1.446389,0.35278 c 0.987778,0.21167 1.5875,0.59972 1.834444,1.16417 0.352778,0.81138 0.3175,0.84666 -1.622778,1.23472 l -2.010833,0.35278 2.116667,-0.14111 c 1.763889,-0.14111 2.2225,-0.0353 2.54,0.49389 0.352778,0.56444 0.176389,0.70555 -1.340556,1.23472 -0.9525,0.35278 -1.834444,0.77611 -1.940278,0.9525 -0.105833,0.17639 0.705556,-0.0353 1.763889,-0.42333 l 1.975556,-0.77611 2.046111,1.905 c 2.504723,2.32833 5.362223,3.91583 9.066389,4.97416 2.36361,0.67028 3.63361,0.81139 7.58472,0.77611 4.16278,0 5.11528,-0.14111 7.58472,-0.9525 3.35139,-1.09361 6.70278,-3.06916 8.85473,-5.15055 l 1.5875,-1.51695 1.905,0.70556 c 2.43416,0.9525 2.54,0.67028 0.14111,-0.38806 -1.55222,-0.67027 -1.72861,-0.84666 -1.30528,-1.37583 0.38806,-0.49389 0.81139,-0.56445 2.64583,-0.3175 1.19945,0.14111 2.11667,0.14111 2.01084,-0.0353 -0.10584,-0.14111 -0.70556,-0.28222 -1.30528,-0.3175 -2.04611,-0.0705 -2.68111,-0.38805 -2.32833,-1.27 0.17638,-0.45861 0.70555,-0.88194 1.27,-1.02305 1.62277,-0.35278 1.76389,-0.42334 0.635,-0.45862 l -1.05834,-0.0353 v -3.63361 l -0.0353,-3.59833 -2.36361,-5.46806 c -1.30527,-2.99861 -2.89277,-6.56166 -3.52777,-7.90222 l -1.19945,-2.46944 1.86972,-3.13972 c 4.62139,-7.76111 6.70278,-15.80445 5.82084,-22.15445 -0.52917,-3.73944 -1.62278,-6.49111 -3.24556,-8.11389 -2.39889,-2.39889 -5.15055,-2.18722 -7.72583,0.59972 -2.96334,3.24556 -3.77472,6.38528 -4.26861,16.54528 -0.45861,10.05417 -0.28223,9.45445 -2.32834,9.13695 -2.18722,-0.3175 -4.7625,-0.3175 -7.19666,0 l -1.97556,0.24694 -0.24694,-5.3975 c -0.529169,-12.17083 -0.846669,-14.2875 -2.645836,-17.88583 -1.552222,-3.03389 -4.092222,-4.97417 -6.526389,-4.97417 -0.211667,0 -0.9525,0.28222 -1.622778,0.635 z m 3.351389,4.51556 c 0.811389,0.3175 2.434167,2.8575 3.280833,5.15055 0.811389,2.15195 1.305278,6.38528 1.658056,14.39334 l 0.246944,4.7625 -1.799166,1.48166 c -0.9525,0.84667 -1.834445,1.51695 -1.940278,1.51695 -0.458611,0 -3.880556,-7.37306 -5.08,-10.90084 -1.164167,-3.42194 -1.27,-4.09222 -1.27,-7.79639 -0.03528,-3.52777 0.07056,-4.30388 0.811389,-5.92666 1.128888,-2.50473 2.363611,-3.31611 4.092222,-2.68111 z m 29.139444,0.52916 c 1.65806,1.65806 2.2225,3.73945 2.2225,7.90223 -0.0353,4.72722 -0.98778,8.18444 -3.84528,14.07583 -2.61055,5.43278 -2.25778,5.15056 -4.37444,3.35139 l -1.79917,-1.55222 v -2.46945 c 0.0353,-5.43278 0.98778,-14.42861 1.72861,-16.54528 1.72861,-4.83305 4.09222,-6.73805 6.06778,-4.7625 z m -27.340277,40.81639 c 0.740833,0.49389 1.199444,1.79917 1.199444,3.56306 0,1.34056 -0.211667,1.97556 -0.846667,2.71639 l -0.811388,0.98778 -0.9525,-0.9525 c -0.740834,-0.74084 -0.917223,-1.23473 -0.917223,-2.71639 0,-2.15195 0.776111,-3.88056 1.763889,-3.88056 0.105834,0 0.352778,0.14111 0.564445,0.28222 z M 118.89959,152.22 c 0.91722,1.76389 0.42333,4.90361 -0.88194,5.60917 -0.52917,0.28222 -0.81139,0.17639 -1.37584,-0.52917 -0.9525,-1.23472 -1.19944,-2.68111 -0.74083,-4.37444 0.59972,-2.29306 2.01083,-2.64584 2.99861,-0.70556 z m -5.15055,6.91445 c 3.56305,1.83444 4.72722,3.28083 4.86833,6.20888 0.10583,1.79917 0,2.43417 -0.67028,3.59834 -1.86972,3.175 -5.67972,4.58611 -12.27667,4.55083 -3.59833,-0.0353 -4.79777,-0.17639 -6.491106,-0.77611 -2.681111,-0.98778 -4.268611,-2.2225 -5.221111,-4.05694 -2.116667,-4.19806 0.599722,-8.64306 6.385277,-10.44223 2.96333,-0.91722 3.73944,-0.98777 7.62,-0.67027 2.71639,0.21166 3.56306,0.45861 5.78556,1.5875 z" />
    <path
       style="fill:#000000;stroke:none;stroke-width:0.03527778"
       inkscape:connector-curvature="0"
       id="path6"
       d="m 104.7532,158.53472 c -1.19944,0.45861 -2.25778,2.08139 -2.25778,3.42195 0,2.92805 4.02167,4.445 6.13834,2.36361 0.67028,-0.70556 0.91722,-1.30528 0.91722,-2.32833 0,-1.76389 -0.45861,-2.61056 -1.76389,-3.28084 -1.12889,-0.59972 -1.905,-0.635 -3.03389,-0.17639 z" />
    <path
       style="fill:#000000;stroke:none;stroke-width:0.03527778"
       inkscape:connector-curvature="0"
       id="path30"
       d="m 117.34737,174.62139 c -6.84389,3.13972 -15.41639,3.28083 -22.613056,0.35278 l -2.116667,-0.88195 -0.493889,0.98778 c -1.658056,3.21028 -3.951111,11.28889 -4.621389,16.33361 l -0.211667,1.69334 h 4.374445 4.409722 l 0.211667,-1.5875 c 0.388056,-2.36361 2.469444,-6.31472 4.092224,-7.58472 2.75166,-2.18723 6.42055,-2.64584 9.2075,-1.23473 2.54,1.34056 5.29166,5.22111 6.27944,8.92528 l 0.42334,1.48167 h 4.445 4.445 l -0.24695,-2.32834 c -0.49389,-4.79777 -4.23333,-16.65111 -5.32694,-16.93333 -0.21167,-0.0353 -1.19945,0.3175 -2.25778,0.77611 z" />
  </g>
</svg>
