<?xml version="1.0" encoding="UTF-8" standalone="no"?>
<!-- Created with Inkscape (http://www.inkscape.org/) -->

<svg
   xmlns:dc="http://purl.org/dc/elements/1.1/"
   xmlns:cc="http://creativecommons.org/ns#"
   xmlns:rdf="http://www.w3.org/1999/02/22-rdf-syntax-ns#"
   xmlns:svg="http://www.w3.org/2000/svg"
   xmlns="http://www.w3.org/2000/svg"
   xmlns:sodipodi="http://sodipodi.sourceforge.net/DTD/sodipodi-0.dtd"
   xmlns:inkscape="http://www.inkscape.org/namespaces/inkscape"
   width="60.064232mm"
   height="66.202904mm"
   viewBox="0 0 60.064232 66.202904"
   version="1.1"
   id="svg3927"
   inkscape:version="0.92.4 (5da689c313, 2019-01-14)"
   sodipodi:docname="rat.svg">
  <defs
     id="defs3921" />
  <sodipodi:namedview
     id="base"
     pagecolor="#ffffff"
     bordercolor="#666666"
     borderopacity="1.0"
     inkscape:pageopacity="0.0"
     inkscape:pageshadow="2"
     inkscape:zoom="0.35"
     inkscape:cx="113.50721"
     inkscape:cy="125.10783"
     inkscape:document-units="mm"
     inkscape:current-layer="layer1"
     showgrid="false"
     fit-margin-top="0"
     fit-margin-left="0"
     fit-margin-right="0"
     fit-margin-bottom="0"
     inkscape:window-width="1920"
     inkscape:window-height="1017"
     inkscape:window-x="1912"
     inkscape:window-y="-8"
     inkscape:window-maximized="1" />
  <metadata
     id="metadata3924">
    <rdf:RDF>
      <cc:Work
         rdf:about="">
        <dc:format>image/svg+xml</dc:format>
        <dc:type
           rdf:resource="http://purl.org/dc/dcmitype/StillImage" />
        <dc:title></dc:title>
      </cc:Work>
    </rdf:RDF>
  </metadata>
  <g
     inkscape:label="Layer 1"
     inkscape:groupmode="layer"
     id="layer1"
     transform="translate(-75.801217,-115.73188)">
    <path
       style="fill:#000000;stroke:none;stroke-width:0.03527778"
       inkscape:connector-curvature="0"
       id="path20"
       d="m 83.023605,115.82422 c -0.529167,0.0706 -1.799167,0.67028 -2.822223,1.27 -5.326945,3.175 -5.926667,10.86556 -1.199444,14.78139 1.552222,1.30528 3.633611,2.25778 5.856111,2.71639 l 1.975555,0.42333 -0.458611,2.01084 c -0.987777,4.09222 -0.388055,9.77194 1.411111,13.68777 l 0.881945,1.905 -2.363611,0.0353 -2.363611,0.0705 2.469444,0.28223 c 1.693333,0.17639 2.575278,0.45861 2.892778,0.91722 0.599722,0.77611 -0.03528,1.09361 -2.54,1.16417 -0.9525,0.0353 -2.151944,0.21166 -2.645833,0.38805 -0.740834,0.24695 -0.705556,0.28222 0.352777,0.14111 3.069167,-0.38805 5.715001,-0.28222 5.997223,0.17639 0.388055,0.59972 0.141111,1.05834 -0.529167,1.05834 -0.635,0 -4.515555,1.44638 -4.339167,1.62277 0.07056,0.0706 1.305278,-0.24694 2.716389,-0.70555 l 2.610556,-0.84667 3.386667,3.42195 c 4.550833,4.62138 7.478886,6.20888 11.324166,6.20888 3.84528,0 6.73806,-1.5875 11.39472,-6.24416 l 3.42195,-3.45722 2.71639,0.88194 c 1.51694,0.45861 2.78694,0.81139 2.82222,0.74083 0.17639,-0.17639 -2.2225,-1.09361 -4.02167,-1.5875 -1.09361,-0.28222 -1.44639,-0.56444 -1.30527,-0.91722 0.14111,-0.28222 0.38805,-0.52917 0.635,-0.56444 0.635,-0.0706 3.06916,0.0353 5.32694,0.21166 1.51694,0.10584 1.79917,0.0706 1.05833,-0.14111 -0.56444,-0.17639 -1.83444,-0.35278 -2.82222,-0.38805 -0.9525,-0.0353 -2.11667,-0.17639 -2.54,-0.28223 -0.67028,-0.21166 -0.70555,-0.3175 -0.3175,-0.84666 0.3175,-0.42334 1.27,-0.74084 2.89278,-0.9525 l 2.43417,-0.3175 -2.2225,0.0353 c -1.19945,0.0353 -2.18723,-0.0353 -2.18723,-0.14111 0,-0.14111 0.38806,-1.09361 0.81139,-2.11667 1.65806,-3.81 2.29306,-8.11389 1.69334,-11.85333 -0.21167,-1.37584 -0.45862,-2.75167 -0.59973,-3.03389 -0.14111,-0.42334 0.24695,-0.635 1.69334,-0.91723 6.31472,-1.34055 10.23055,-6.17361 9.17222,-11.28889 -0.84667,-3.98638 -3.42195,-6.63222 -7.3025,-7.44361 -1.97556,-0.42333 -4.33917,-0.0705 -6.13833,0.88195 -1.48167,0.74083 -3.66889,3.31611 -4.62139,5.46805 -0.45862,1.05834 -0.88195,1.97556 -0.91723,2.04611 0,0.0353 -0.88194,-0.28222 -1.94027,-0.77611 -5.29167,-2.32833 -13.26445,-2.25777 -18.026949,0.17639 -0.705556,0.35278 -1.446389,0.67028 -1.622778,0.67028 -0.141111,0 -0.635,-0.84667 -1.093611,-1.905 -0.987778,-2.43417 -3.139723,-4.86833 -5.080001,-5.82083 -1.552222,-0.74084 -4.303889,-1.12889 -5.926666,-0.84667 z m 4.621388,5.04472 c 1.411112,0.70556 3.986389,3.63361 4.409723,4.97417 0.176389,0.52917 -0.105833,1.09361 -1.128889,2.18722 -0.740833,0.81139 -1.728611,2.08139 -2.187222,2.82222 -0.881945,1.44639 -1.023056,1.48167 -3.739445,0.21167 -2.293056,-1.05833 -3.986389,-2.68111 -4.445,-4.19806 -0.776111,-2.54 0.388055,-5.22111 2.645833,-6.20888 1.552223,-0.67028 2.8575,-0.59973 4.445,0.21166 z m 40.710557,-0.21166 c 2.46945,1.02305 3.52778,3.70416 2.54,6.38527 -0.635,1.5875 -1.905,2.78695 -4.30389,3.98639 -2.46944,1.27 -2.8575,1.27 -3.45722,0.14111 -0.28222,-0.56444 -1.27,-1.905 -2.15194,-2.99861 -1.83445,-2.25778 -1.83445,-2.32833 0.42333,-5.11528 2.11667,-2.57527 4.51555,-3.42194 6.94972,-2.39888 z m -32.385001,23.07166 c 1.622778,1.09362 1.5875,6.27945 -0.07056,6.91445 -1.305278,0.49389 -2.257778,-1.02306 -2.257778,-3.52778 0,-1.94028 0.811389,-3.66889 1.763889,-3.66889 0.105833,0 0.352778,0.14111 0.564444,0.28222 z m 20.602221,0.67028 c 0.635,0.81139 0.74084,1.34056 0.635,3.03389 -0.28222,3.63361 -2.54,4.51556 -3.4925,1.34056 -0.49389,-1.69334 -0.17639,-3.70417 0.77611,-4.65667 0.88195,-0.88194 1.16417,-0.84667 2.08139,0.28222 z m -7.37305,7.40834 c 4.09222,2.08138 5.25639,6.56166 2.75166,10.51277 -2.32833,3.66889 -7.79639,4.40973 -11.07722,1.55223 -4.127499,-3.63362 -3.210277,-10.05417 1.76389,-12.34723 2.04611,-0.9525 4.26861,-0.84666 6.56167,0.28223 z" />
    <path
       style="fill:#000000;stroke:none;stroke-width:0.03527778"
       inkscape:connector-curvature="0"
       id="path22"
       d="m 103.44944,153.57144 c -1.905,1.19945 -2.29306,3.95112 -0.77611,5.715 1.76389,2.11667 5.18583,1.69334 6.35,-0.81138 1.69333,-3.4925 -2.25778,-6.94973 -5.57389,-4.90362 z" />
    <path
       style="fill:#000000;stroke:none;stroke-width:0.03527778"
       inkscape:connector-curvature="0"
       id="path24"
       d="m 90.678882,161.36783 c -2.328333,4.65667 -4.868333,13.19389 -5.362222,18.06223 l -0.246944,2.46944 h 4.7625 4.727222 l 0.740834,-2.57528 c 1.693333,-5.64444 6.491108,-8.5725 12.594168,-7.58472 4.55083,0.70556 7.40833,3.4925 8.50194,8.21972 l 0.38806,1.76389 4.62139,0.10583 4.62139,0.10584 -0.17639,-1.51695 c -0.35278,-3.10444 -1.55222,-8.43139 -2.54,-11.50055 -1.19945,-3.63361 -3.52778,-8.89 -3.95111,-8.89 -0.14111,0 -0.56445,0.38805 -0.91723,0.84666 -1.12888,1.41112 -4.7625,4.445 -6.6675,5.53862 -1.02305,0.56444 -2.8575,1.30527 -4.1275,1.5875 -2.2225,0.56444 -2.39888,0.56444 -4.7625,-0.17639 -2.963329,-0.88195 -6.208885,-2.99861 -9.136941,-5.92667 l -2.2225,-2.2225 z" />
    <path
       d="m 83.023605,115.82422 c -0.529167,0.0706 -1.799167,0.67028 -2.822223,1.27 -5.326945,3.175 -5.926667,10.86556 -1.199444,14.78139 1.552222,1.30528 3.633611,2.25778 5.856111,2.71639 l 1.975555,0.42333 -0.458611,2.01084 c -0.987777,4.09222 -0.388055,9.77194 1.411111,13.68777 l 0.881945,1.905 -2.363611,0.0353 -2.363611,0.0705 2.469444,0.28223 c 1.693333,0.17639 2.575278,0.45861 2.892778,0.91722 0.599722,0.77611 -0.03528,1.09361 -2.54,1.16417 -0.9525,0.0353 -2.151944,0.21166 -2.645833,0.38805 -0.740834,0.24695 -0.705556,0.28222 0.352777,0.14111 3.069167,-0.38805 5.715001,-0.28222 5.997223,0.17639 0.388055,0.59972 0.141111,1.05834 -0.529167,1.05834 -0.635,0 -4.515555,1.44638 -4.339167,1.62277 0.07056,0.0706 1.305278,-0.24694 2.716389,-0.70555 l 2.610556,-0.84667 3.386667,3.42195 c 4.550833,4.62138 7.478886,6.20888 11.324166,6.20888 3.84528,0 6.73806,-1.5875 11.39472,-6.24416 l 3.42195,-3.45722 2.71639,0.88194 c 1.51694,0.45861 2.78694,0.81139 2.82222,0.74083 0.17639,-0.17639 -2.2225,-1.09361 -4.02167,-1.5875 -1.09361,-0.28222 -1.44639,-0.56444 -1.30527,-0.91722 0.14111,-0.28222 0.38805,-0.52917 0.635,-0.56444 0.635,-0.0706 3.06916,0.0353 5.32694,0.21166 1.51694,0.10584 1.79917,0.0706 1.05833,-0.14111 -0.56444,-0.17639 -1.83444,-0.35278 -2.82222,-0.38805 -0.9525,-0.0353 -2.11667,-0.17639 -2.54,-0.28223 -0.67028,-0.21166 -0.70555,-0.3175 -0.3175,-0.84666 0.3175,-0.42334 1.27,-0.74084 2.89278,-0.9525 l 2.43417,-0.3175 -2.2225,0.0353 c -1.19945,0.0353 -2.18723,-0.0353 -2.18723,-0.14111 0,-0.14111 0.38806,-1.09361 0.81139,-2.11667 1.65806,-3.81 2.29306,-8.11389 1.69334,-11.85333 -0.21167,-1.37584 -0.45862,-2.75167 -0.59973,-3.03389 -0.14111,-0.42334 0.24695,-0.635 1.69334,-0.91723 6.31472,-1.34055 10.23055,-6.17361 9.17222,-11.28889 -0.84667,-3.98638 -3.42195,-6.63222 -7.3025,-7.44361 -1.97556,-0.42333 -4.33917,-0.0705 -6.13833,0.88195 -1.48167,0.74083 -3.66889,3.31611 -4.62139,5.46805 -0.45862,1.05834 -0.88195,1.97556 -0.91723,2.04611 0,0.0353 -0.88194,-0.28222 -1.94027,-0.77611 -5.29167,-2.32833 -13.26445,-2.25777 -18.026949,0.17639 -0.705556,0.35278 -1.446389,0.67028 -1.622778,0.67028 -0.141111,0 -0.635,-0.84667 -1.093611,-1.905 -0.987778,-2.43417 -3.139723,-4.86833 -5.080001,-5.82083 -1.552222,-0.74084 -4.303889,-1.12889 -5.926666,-0.84667 z m 4.621388,5.04472 c 1.411112,0.70556 3.986389,3.63361 4.409723,4.97417 0.176389,0.52917 -0.105833,1.09361 -1.128889,2.18722 -0.740833,0.81139 -1.728611,2.08139 -2.187222,2.82222 -0.881945,1.44639 -1.023056,1.48167 -3.739445,0.21167 -2.293056,-1.05833 -3.986389,-2.68111 -4.445,-4.19806 -0.776111,-2.54 0.388055,-5.22111 2.645833,-6.20888 1.552223,-0.67028 2.8575,-0.59973 4.445,0.21166 z m 40.710557,-0.21166 c 2.46945,1.02305 3.52778,3.70416 2.54,6.38527 -0.635,1.5875 -1.905,2.78695 -4.30389,3.98639 -2.46944,1.27 -2.8575,1.27 -3.45722,0.14111 -0.28222,-0.56444 -1.27,-1.905 -2.15194,-2.99861 -1.83445,-2.25778 -1.83445,-2.32833 0.42333,-5.11528 2.11667,-2.57527 4.51555,-3.42194 6.94972,-2.39888 z m -32.385001,23.07166 c 1.622778,1.09362 1.5875,6.27945 -0.07056,6.91445 -1.305278,0.49389 -2.257778,-1.02306 -2.257778,-3.52778 0,-1.94028 0.811389,-3.66889 1.763889,-3.66889 0.105833,0 0.352778,0.14111 0.564444,0.28222 z m 20.602221,0.67028 c 0.635,0.81139 0.74084,1.34056 0.635,3.03389 -0.28222,3.63361 -2.54,4.51556 -3.4925,1.34056 -0.49389,-1.69334 -0.17639,-3.70417 0.77611,-4.65667 0.88195,-0.88194 1.16417,-0.84667 2.08139,0.28222 z m -7.37305,7.40834 c 4.09222,2.08138 5.25639,6.56166 2.75166,10.51277 -2.32833,3.66889 -7.79639,4.40973 -11.07722,1.55223 -4.127499,-3.63362 -3.210277,-10.05417 1.76389,-12.34723 2.04611,-0.9525 4.26861,-0.84666 6.56167,0.28223 z"
       id="path3939"
       inkscape:connector-curvature="0"
       style="fill:#000000;stroke:none;stroke-width:0.03527778" />
    <path
       d="m 103.44944,153.57144 c -1.905,1.19945 -2.29306,3.95112 -0.77611,5.715 1.76389,2.11667 5.18583,1.69334 6.35,-0.81138 1.69333,-3.4925 -2.25778,-6.94973 -5.57389,-4.90362 z"
       id="path3941"
       inkscape:connector-curvature="0"
       style="fill:#000000;stroke:none;stroke-width:0.03527778" />
    <path
       d="m 90.678882,161.36783 c -2.328333,4.65667 -4.868333,13.19389 -5.362222,18.06223 l -0.246944,2.46944 h 4.7625 4.727222 l 0.740834,-2.57528 c 1.693333,-5.64444 6.491108,-8.5725 12.594168,-7.58472 4.55083,0.70556 7.40833,3.4925 8.50194,8.21972 l 0.38806,1.76389 4.62139,0.10583 4.62139,0.10584 -0.17639,-1.51695 c -0.35278,-3.10444 -1.55222,-8.43139 -2.54,-11.50055 -1.19945,-3.63361 -3.52778,-8.89 -3.95111,-8.89 -0.14111,0 -0.56445,0.38805 -0.91723,0.84666 -1.12888,1.41112 -4.7625,4.445 -6.6675,5.53862 -1.02305,0.56444 -2.8575,1.30527 -4.1275,1.5875 -2.2225,0.56444 -2.39888,0.56444 -4.7625,-0.17639 -2.963329,-0.88195 -6.208885,-2.99861 -9.136941,-5.92667 l -2.2225,-2.2225 z"
       id="path3943"
       inkscape:connector-curvature="0"
       style="fill:#000000;stroke:none;stroke-width:0.03527778" />
  </g>
</svg>
