<?xml version="1.0" encoding="UTF-8" standalone="no"?>
<!-- Created with Inkscape (http://www.inkscape.org/) -->

<svg xmlns:dc="http://purl.org/dc/elements/1.1/" 
    xmlns:cc="http://creativecommons.org/ns#" 
    xmlns:rdf="http://www.w3.org/1999/02/22-rdf-syntax-ns#" 
    xmlns:svg="http://www.w3.org/2000/svg" 
    xmlns="http://www.w3.org/2000/svg" 
    xmlns:sodipodi="http://sodipodi.sourceforge.net/DTD/sodipodi-0.dtd" 
    xmlns:inkscape="http://www.inkscape.org/namespaces/inkscape" width="51.846802mm" height="79.752052mm" viewBox="0 0 51.846802 79.752052" version="1.1" id="svg4281" inkscape:version="0.92.4 (5da689c313, 2019-01-14)" sodipodi:docname="Rooster.svg">
    <defs id="defs4275" />
    <sodipodi:namedview id="base" pagecolor="#ffffff" bordercolor="#666666" borderopacity="1.0" inkscape:pageopacity="0.0" inkscape:pageshadow="2" inkscape:zoom="0.35" inkscape:cx="97.978208" inkscape:cy="150.71247" inkscape:document-units="mm" inkscape:current-layer="layer1" showgrid="false" fit-margin-top="0" fit-margin-left="0" fit-margin-right="0" fit-margin-bottom="0" inkscape:window-width="1920" inkscape:window-height="1017" inkscape:window-x="1912" inkscape:window-y="-8" inkscape:window-maximized="1" />
    <metadata id="metadata4278">
        <rdf:RDF>
            <cc:Work rdf:about="">
                <dc:format>image/svg+xml</dc:format>
                <dc:type rdf:resource="http://purl.org/dc/dcmitype/StillImage" />
                <dc:title></dc:title>
            </cc:Work>
        </rdf:RDF>
    </metadata>
    <g inkscape:label="Layer 1" inkscape:groupmode="layer" id="layer1" transform="translate(-79.909932,-108.95729)">
        <path style="fill:#000000;stroke:none;stroke-width:0.03527778" inkscape:connector-curvature="0" id="path110" d="m 103.15222,109.47544 c -1.97555,1.37584 -2.04611,5.85611 -0.14111,11.46528 1.65806,4.93889 2.2225,5.75028 1.19945,1.72861 -0.59973,-2.29305 -0.56445,-6.06778 0.0706,-6.63222 0.17638,-0.17639 0.74083,-0.45861 1.23472,-0.56444 0.70555,-0.17639 1.12889,-0.0353 1.69333,0.56444 0.91722,0.98778 1.02306,4.23333 0.21167,6.84389 -0.70556,2.43417 -0.38806,2.39889 0.52916,-0.0706 2.68111,-7.12611 2.75167,-12.52361 0.17639,-13.51139 -1.37583,-0.52917 -4.16277,-0.42333 -4.97416,0.17639 z" />
        <path style="fill:#000000;stroke:none;stroke-width:0.03527778" inkscape:connector-curvature="0" id="path116" d="m 100.11833,121.2935 c -6.667497,2.54 -10.265831,8.99583 -12.100275,21.59 -0.282223,2.08139 -0.846667,8.11389 -1.27,13.40556 -0.776112,10.51277 -0.917223,11.04194 -3.139723,12.55889 -0.635,0.42333 -1.799166,0.88194 -2.575278,1.02305 -1.305277,0.17639 -1.340555,0.24695 -0.776111,0.70556 0.9525,0.67027 2.998611,0.56444 4.339167,-0.24695 0.635,-0.38805 1.199445,-0.70555 1.27,-0.70555 0.07056,0 0.211667,0.74083 0.282222,1.65805 0.176389,1.69334 1.199445,4.58611 1.516945,4.26861 0.176389,-0.14111 0.458611,-1.51694 0.493889,-2.36361 0.03528,-0.28222 0.529167,0.24695 1.128889,1.19945 1.093611,1.69333 1.658055,2.29305 2.8575,2.99861 0.493889,0.28222 0.529166,0.17639 0.388055,-1.05834 l -0.211666,-1.41111 1.975555,1.19945 c 2.363611,1.37583 8.149171,3.38666 10.653891,3.63361 2.82222,0.28222 9.34861,-1.72861 12.98222,-4.02167 l 1.41111,-0.88194 -0.21166,1.48166 -0.17639,1.44639 0.91722,-0.59972 c 1.16417,-0.74083 1.62278,-1.30528 2.61056,-3.13972 l 0.77611,-1.41111 0.24694,1.23472 c 0.14111,0.67028 0.17639,1.34056 0.10583,1.48167 -0.10583,0.17639 -0.0353,0.28222 0.14112,0.28222 0.56444,0 1.48166,-2.32833 1.72861,-4.19806 l 0.21166,-1.76389 1.27,0.70556 c 1.48167,0.77611 3.4925,0.88194 4.445,0.21167 0.56445,-0.45861 0.52917,-0.52917 -0.77611,-0.70556 -0.77611,-0.14111 -1.94028,-0.59972 -2.57528,-1.02305 -2.32833,-1.5875 -2.36361,-1.79917 -3.175,-11.21834 -1.30527,-15.48694 -2.61055,-22.18972 -5.46805,-28.11639 -1.83445,-3.73944 -4.05695,-6.20889 -6.91445,-7.65528 -2.68111,-1.30527 -2.92805,-1.23472 -3.81,1.12889 -0.42333,1.12889 -1.27,2.89278 -1.86972,3.95111 l -1.09361,1.905 -0.70556,-1.41111 c -0.38805,-0.74083 -1.23472,-2.54 -1.86972,-3.95111 -0.59972,-1.41111 -1.16416,-2.64583 -1.23472,-2.71639 -0.0706,-0.0706 -0.88194,0.17639 -1.79917,0.52917 z m 8.14917,16.93333 c 1.69333,0.84667 2.50472,2.15195 3.91583,6.17361 0.635,1.72861 1.5875,3.91584 2.11667,4.90362 2.29306,4.05694 2.08139,7.40833 -0.67028,10.12472 -1.83444,1.86972 -3.24555,2.39889 -7.02028,2.68111 -5.25638,0.38805 -9.278052,-1.62278 -10.477496,-5.22111 -0.811389,-2.43417 -0.529167,-4.23334 1.199444,-7.65528 0.776111,-1.55222 1.728612,-3.81 2.151945,-5.00945 1.375837,-4.05694 2.504727,-5.67972 4.586107,-6.45583 1.09362,-0.42333 2.89278,-0.21167 4.19806,0.45861 z" />
        <path style="fill:#000000;stroke:none;stroke-width:0.03527778" inkscape:connector-curvature="0" id="path118" d="m 103.54028,139.24989 c -1.48167,0.67028 -2.46945,1.79916 -2.82222,3.28083 -0.21167,0.77611 -0.0705,0.91722 1.23472,1.30528 0.77611,0.21167 1.97555,0.88194 2.61055,1.48167 l 1.23473,1.05833 1.5875,-1.23472 c 0.88194,-0.67028 2.08138,-1.30528 2.68111,-1.44639 0.70555,-0.14111 1.05833,-0.45861 1.05833,-0.84667 0,-1.02305 -1.48167,-2.89278 -2.82222,-3.59833 -1.55222,-0.84667 -2.96334,-0.84667 -4.7625,0 z" />
        <path style="fill:#000000;stroke:none;stroke-width:0.03527778" inkscape:connector-curvature="0" id="path120" d="m 100.54167,144.89433 c 0,2.18723 2.75166,4.62139 5.22111,4.62139 1.51694,0 3.42194,-0.88194 4.30389,-2.01083 0.67027,-0.88195 1.51694,-3.28084 1.23472,-3.56306 -0.3175,-0.35278 -2.68111,0.77611 -4.02167,1.905 l -1.44639,1.27 -1.27,-1.09361 c -0.98777,-0.88194 -3.28083,-2.15194 -3.88055,-2.15194 -0.0705,0 -0.14111,0.45861 -0.14111,1.02305 z" />
        <path style="fill:#000000;stroke:none;stroke-width:0.03527778" inkscape:connector-curvature="0" id="path122" d="m 102.48194,151.17378 c -0.88194,2.57528 -1.12888,7.09083 -0.38805,8.50194 0.74083,1.44639 1.51694,1.83445 3.84528,1.83445 2.15194,0 3.56305,-0.91723 3.98639,-2.64584 0.35277,-1.41111 -0.0706,-5.75027 -0.77612,-7.69055 -0.67027,-1.97556 -1.02305,-1.905 -0.88194,0.14111 0.17639,2.82222 -1.09361,4.26861 -3.31611,3.70417 -1.09361,-0.28223 -1.65806,-1.5875 -1.55222,-3.63362 0.14111,-2.11666 -0.21167,-2.18722 -0.91723,-0.21166 z" />
        <path style="fill:#000000;stroke:none;stroke-width:0.03527778" inkscape:connector-curvature="0" id="path130" d="m 83.32611,175.16267 c -1.058333,3.98639 -1.763889,7.65528 -2.046111,10.795 l -0.246945,2.75167 5.25639,-0.10584 5.256388,-0.10583 0.9525,-1.76389 c 0.987778,-1.79917 2.046112,-5.67972 2.046112,-7.44361 0,-0.91722 -0.03528,-0.9525 -0.705556,-0.3175 -0.846667,0.77611 -2.010833,0.52916 -3.4925,-0.70556 -0.776111,-0.67028 -1.27,-0.84666 -1.940278,-0.67028 -1.199444,0.28223 -2.751667,-1.34055 -3.386667,-3.56305 -0.246944,-0.88195 -0.564444,-1.5875 -0.705555,-1.5875 -0.141111,0 -0.564445,1.23472 -0.987778,2.71639 z" />
        <path style="fill:#000000;stroke:none;stroke-width:0.03527778" inkscape:connector-curvature="0" id="path132" d="m 126.57667,174.13961 c -0.88195,2.43417 -2.15195,3.70417 -3.42195,3.42195 -0.67027,-0.14111 -1.12889,-0.0353 -1.44639,0.35277 -0.56444,0.70556 -2.25777,1.5875 -2.96333,1.5875 -0.28222,0 -0.77611,-0.24694 -1.05833,-0.56444 -0.52917,-0.49389 -0.56445,-0.38806 -0.56445,0.98778 0,1.97555 0.84667,4.90361 2.04611,7.05555 l 0.9525,1.69334 h 5.25639 5.25639 l -0.24694,-2.75167 c -0.38806,-4.19805 -2.43417,-13.47611 -2.99861,-13.47611 -0.14111,0 -0.49389,0.77611 -0.81139,1.69333 z" />
    </g>
</svg>
