<?xml version="1.0" encoding="UTF-8" standalone="no"?>
<!-- Created with Inkscape (http://www.inkscape.org/) -->

<svg
   xmlns:dc="http://purl.org/dc/elements/1.1/"
   xmlns:cc="http://creativecommons.org/ns#"
   xmlns:rdf="http://www.w3.org/1999/02/22-rdf-syntax-ns#"
   xmlns:svg="http://www.w3.org/2000/svg"
   xmlns="http://www.w3.org/2000/svg"
   xmlns:sodipodi="http://sodipodi.sourceforge.net/DTD/sodipodi-0.dtd"
   xmlns:inkscape="http://www.inkscape.org/namespaces/inkscape"
   width="67.426361mm"
   height="75.023766mm"
   viewBox="0 0 67.426361 75.023766"
   version="1.1"
   id="svg3997"
   inkscape:version="0.92.4 (5da689c313, 2019-01-14)"
   sodipodi:docname="tiger.svg">
  <defs
     id="defs3991" />
  <sodipodi:namedview
     id="base"
     pagecolor="#ffffff"
     bordercolor="#666666"
     borderopacity="1.0"
     inkscape:pageopacity="0.0"
     inkscape:pageshadow="2"
     inkscape:zoom="0.35"
     inkscape:cx="127.4199"
     inkscape:cy="141.77713"
     inkscape:document-units="mm"
     inkscape:current-layer="layer1"
     showgrid="false"
     fit-margin-top="0"
     fit-margin-left="0"
     fit-margin-right="0"
     fit-margin-bottom="0"
     inkscape:window-width="1920"
     inkscape:window-height="1017"
     inkscape:window-x="1912"
     inkscape:window-y="-8"
     inkscape:window-maximized="1" />
  <metadata
     id="metadata3994">
    <rdf:RDF>
      <cc:Work
         rdf:about="">
        <dc:format>image/svg+xml</dc:format>
        <dc:type
           rdf:resource="http://purl.org/dc/dcmitype/StillImage" />
        <dc:title></dc:title>
      </cc:Work>
    </rdf:RDF>
  </metadata>
  <g
     inkscape:label="Layer 1"
     inkscape:groupmode="layer"
     id="layer1"
     transform="translate(-72.120153,-111.32143)">
    <path
       style="fill:#000000;stroke:none;stroke-width:0.03527778"
       inkscape:connector-curvature="0"
       id="path16"
       d="m 83.384289,111.45047 c -1.622778,0.24694 -4.691944,2.04611 -5.715,3.31611 -1.234722,1.51695 -1.5875,3.56306 -0.987778,5.43278 0.599722,1.83444 2.998611,4.1275 5.362223,5.08 l 1.940278,0.84667 -1.305278,3.06916 c -1.693334,3.95111 -3.033889,5.89139 -5.538612,8.00806 -4.903611,4.16278 -6.420556,6.10305 -3.633611,4.69194 1.940278,-0.98777 2.010833,-0.88194 0.599722,0.70556 l -1.27,1.37583 0.529167,1.86972 c 0.846667,3.03389 3.139722,7.33778 5.221111,9.84251 l 1.905,2.32833 -1.340555,0.42333 c -0.776111,0.21167 -1.481667,0.56445 -1.5875,0.74084 -0.105834,0.17638 0.458611,0.10583 1.27,-0.17639 1.799166,-0.635 2.116667,-0.67028 2.928055,-0.0706 0.599723,0.45861 0.529167,0.56444 -0.917222,1.41111 -0.881944,0.49389 -1.763889,1.16417 -2.046111,1.44639 -0.246945,0.3175 0.493889,0 1.622778,-0.67028 2.257778,-1.37583 2.2225,-1.34056 2.928056,-0.91722 0.388055,0.24694 0.246944,0.635 -0.811389,1.905 -1.763889,2.15194 -1.5875,2.54 0.246944,0.49389 l 1.481667,-1.69334 3.033889,1.5875 c 10.442223,5.50334 27.763607,5.22111 38.029447,-0.56444 l 1.94028,-1.05833 1.51694,1.5875 c 0.84667,0.88194 1.51695,1.48166 1.51695,1.30527 0,-0.17639 -0.59973,-0.9525 -1.34056,-1.72861 -0.91722,-0.98778 -1.23472,-1.55222 -0.98778,-1.79916 0.59972,-0.59973 1.19945,-0.42334 3.21028,0.88194 1.05833,0.67028 1.94028,1.09361 1.94028,0.9525 0,-0.14111 -0.635,-0.67028 -1.41111,-1.12889 -2.68111,-1.62278 -2.61056,-1.55222 -1.86973,-2.18722 0.56445,-0.49389 0.81139,-0.49389 2.57528,0.10583 2.39889,0.77611 2.75167,0.59972 0.45861,-0.24694 -0.91722,-0.35278 -1.76389,-0.67028 -1.83444,-0.70556 -0.0706,-0.0706 0.67028,-1.02305 1.65805,-2.11666 1.94028,-2.18723 3.95112,-5.67973 5.04473,-8.85473 0.91722,-2.68111 0.88194,-3.06916 -0.59973,-4.55083 -1.12888,-1.12889 -1.19944,-1.23472 -0.45861,-1.02306 0.45861,0.14111 1.30528,0.49389 1.86973,0.77611 l 0.98777,0.52917 -0.635,-1.12889 c -0.38805,-0.635 -1.76389,-1.97555 -3.13972,-2.99861 -2.32833,-1.76389 -3.81,-3.31611 -5.22111,-5.57389 -0.67028,-1.02305 -3.13972,-6.6675 -2.96333,-6.80861 0.0353,-0.0353 0.98777,-0.49389 2.08139,-0.98778 2.32833,-1.09361 4.05694,-2.68111 4.72722,-4.33916 0.56444,-1.30528 0.635,-3.56306 0.17639,-4.79778 -0.91723,-2.36361 -4.90361,-4.62139 -8.18445,-4.62139 -3.24555,-0.0353 -4.58611,1.16417 -6.87917,6.06778 -0.0353,0.0706 -1.02305,-0.35278 -2.18722,-0.9525 -4.62139,-2.32833 -10.51278,-3.28083 -15.24,-2.50472 -2.963332,0.49389 -6.984998,1.83444 -8.748887,2.89278 -0.635,0.38805 -1.234722,0.67027 -1.27,0.59972 -0.07055,-0.0706 -0.529166,-0.9525 -1.023055,-1.905 -1.728612,-3.45722 -4.092223,-4.72722 -7.655279,-4.16278 z m 1.5875,3.98639 c 0.635,0.38805 1.763889,1.5875 2.469445,2.64583 l 1.340556,1.905 -1.199445,1.34056 c -0.670278,0.74083 -1.481667,1.72861 -1.834444,2.2225 l -0.599723,0.88194 -1.622778,-0.84666 c -3.069166,-1.62278 -5.009444,-4.90362 -4.021666,-6.70278 0.529166,-0.98778 2.398889,-2.15195 3.4925,-2.15195 0.458611,0 1.340555,0.3175 1.975555,0.70556 z m 45.931671,0.45861 c 0.98778,0.91722 1.27,1.44639 1.23472,2.32833 -0.0353,1.51695 -1.16417,3.21028 -2.96333,4.51556 -2.50473,1.76389 -2.8575,1.76389 -4.19806,-0.0706 -0.635,-0.88194 -1.27,-1.5875 -1.41111,-1.5875 -0.56445,0 -0.635,-1.16417 -0.14111,-2.11667 0.74083,-1.44639 2.64583,-3.52777 3.4925,-3.88055 1.51694,-0.635 2.68111,-0.38806 3.98639,0.81139 z m -20.0025,-0.3175 c 1.27,0.28222 2.8575,0.74083 3.52777,1.05833 l 1.23473,0.52917 -1.41111,-0.24694 c -0.77612,-0.14112 -2.46945,-0.24695 -3.77473,-0.24695 -2.75166,0 -3.4925,0.49389 -3.56305,2.32833 -0.0705,1.34056 0.17639,1.51695 4.55083,3.13973 2.92806,1.09361 6.10306,3.35139 5.50333,3.95111 -0.17638,0.17639 -1.72861,-0.38806 -3.70416,-1.30528 -1.905,-0.91722 -4.16278,-1.69333 -5.18584,-1.83444 -1.69333,-0.21167 -1.76388,-0.17639 -1.76388,0.635 0,0.45861 -0.10584,1.41111 -0.21167,2.11666 l -0.21167,1.23473 2.29306,0.98777 c 2.15194,0.91723 4.1275,2.43417 3.70416,2.8575 -0.10583,0.10584 -0.91722,0.0353 -1.76388,-0.17639 -0.88195,-0.21166 -2.11667,-0.35277 -2.78695,-0.28222 l -1.19944,0.10584 0.0706,2.64583 c 0.0706,2.64583 -0.35278,4.30389 -0.74084,3.175 -0.10583,-0.28222 -0.24694,-1.72861 -0.28222,-3.175 l -0.10583,-2.64583 h -1.94028 c -1.05833,0.0353 -2.39889,0.17638 -2.92805,0.3175 -0.881948,0.28222 -1.023058,0.21166 -0.881948,-0.35278 0.07056,-0.42334 1.164168,-1.19945 2.928058,-2.08139 l 2.82222,-1.44639 v -1.905 -1.94028 l -1.27,-0.10583 c -1.30528,-0.10583 -2.96333,0.45861 -7.126111,2.39889 -1.340555,0.59972 -2.504722,1.02305 -2.645833,0.91722 -0.3175,-0.3175 1.340556,-1.94028 2.963333,-2.89278 0.811389,-0.45861 2.610556,-1.23472 4.021661,-1.72861 1.41112,-0.49389 2.78695,-1.05833 3.03389,-1.27 0.67028,-0.56444 0.635,-2.08139 -0.0706,-3.10444 -0.56444,-0.81139 -0.74083,-0.81139 -3.63361,-0.635 -1.658051,0.10583 -3.421939,0.3175 -3.915828,0.42333 -0.705556,0.17639 -0.776111,0.14111 -0.282222,-0.14111 0.3175,-0.21167 1.834444,-0.70556 3.351389,-1.05834 3.316111,-0.81138 8.184441,-0.91722 11.394721,-0.24694 z m -16.157226,22.11917 c 1.305278,1.72861 0.740834,5.99722 -0.846666,6.49111 -2.081389,0.67028 -3.175,-4.19806 -1.516945,-6.73806 0.705556,-1.05833 1.446389,-0.98777 2.363611,0.24695 z m 24.835556,-0.21167 c 0.77611,1.19945 1.02306,3.38667 0.52917,4.86833 -1.16417,3.45723 -3.56306,2.15195 -3.56306,-1.905 0,-3.28083 1.72861,-4.97416 3.03389,-2.96333 z m -6.38528,9.13695 c 0.56445,0.56444 0.77611,1.09361 0.635,1.62277 -0.21166,0.77611 -0.21166,0.77611 0.98778,0.17639 0.70556,-0.38805 1.97556,-0.635 3.28083,-0.635 2.54,0 4.48028,0.84667 6.13834,2.71639 3.21028,3.66889 0.77611,9.77195 -5.00945,12.41778 -3.42194,1.55222 -5.75028,1.97556 -12.02972,2.15194 -5.08,0.14112 -6.52639,0.0706 -9.383889,-0.52916 -7.443611,-1.55222 -11.359445,-4.86834 -11.394723,-9.59556 -0.03528,-4.05694 3.175001,-7.05555 7.620001,-7.09083 1.093611,-0.0353 2.293056,0.14111 2.681111,0.35278 0.917222,0.49388 1.5875,0.49388 1.305278,0.0353 -0.352778,-0.59973 0.141111,-1.62278 0.987777,-2.04611 0.458613,-0.21167 3.351385,-0.38806 7.055555,-0.38806 6.17361,-0.0353 6.27945,-0.0353 7.12611,0.81139 z" />
    <path
       style="fill:#000000;stroke:none;stroke-width:0.03527778"
       inkscape:connector-curvature="0"
       id="path18"
       d="m 101.55234,146.30492 c -0.17638,0.0705 -0.77611,0.21166 -1.27,0.3175 -2.575272,0.56444 -0.776105,4.69194 2.78695,6.52639 2.71639,1.37583 5.67972,0.74083 8.07861,-1.79917 2.36361,-2.46945 2.18722,-4.55084 -0.49389,-4.97417 -1.37583,-0.24694 -8.46667,-0.28222 -9.10167,-0.0705 z" />
    <path
       style="fill:#000000;stroke:none;stroke-width:0.03527778"
       inkscape:connector-curvature="0"
       id="path28"
       d="m 89.275679,167.11881 c -0.3175,0.67027 -0.599723,1.41111 -0.599723,1.5875 0,0.42333 2.293056,1.05833 3.880556,1.05833 1.164167,0.0353 1.199445,0.0353 0.529167,0.56444 -0.493889,0.38806 -1.340556,0.49389 -2.998611,0.42334 l -2.257778,-0.10584 -0.9525,2.99862 c -0.529167,1.65805 -1.058334,3.4925 -1.164167,4.09222 -0.246945,1.05833 -0.211667,1.12889 1.340555,1.51694 0.881945,0.21167 2.010834,0.38806 2.575278,0.38806 0.9525,0.0353 0.9525,0.0353 0.282223,0.56444 -0.493889,0.38806 -1.305278,0.49389 -2.716389,0.42334 -1.305278,-0.0706 -2.081389,0.0353 -2.187223,0.28222 -0.105833,0.24694 -0.282222,1.55222 -0.423333,2.92805 l -0.246945,2.50473 h 5.115278 5.115279 l 0.211666,-2.92806 c 0.141111,-1.62278 0.458611,-3.66889 0.740834,-4.55083 l 0.458611,-1.5875 -2.398889,-0.24695 c -2.328334,-0.21166 -5.256389,-1.09361 -5.256389,-1.5875 0,-0.10583 1.869722,-0.17639 4.198055,-0.10583 l 4.162778,0.14111 1.164167,-1.48167 c 3.668891,-4.65666 12.594171,-4.445 15.416391,0.35278 l 0.635,1.12889 3.81,-0.14111 c 2.08139,-0.0706 3.77472,0 3.77472,0.10583 0,0.42334 -2.64583,1.30528 -4.72722,1.55222 -1.86972,0.24695 -2.01084,0.3175 -1.79917,1.02306 0.38806,1.34056 0.77611,6.0325 0.59972,7.19667 l -0.14111,1.12889 h 5.36222 5.39751 l -0.24695,-1.86973 c -0.52917,-4.23333 -0.35278,-3.95111 -2.61056,-3.84527 -1.41111,0.0705 -2.2225,-0.0353 -2.71638,-0.42334 -0.67028,-0.52916 -0.67028,-0.52916 0.28222,-0.56444 0.56444,0 1.69333,-0.17639 2.57528,-0.38806 1.19944,-0.3175 1.51694,-0.56444 1.41111,-0.98778 -0.10584,-0.3175 -0.49389,-1.83444 -0.91722,-3.35138 -1.23473,-4.48028 -1.09362,-4.30389 -3.63362,-4.16278 -1.5875,0.10583 -2.36361,-0.0353 -2.89277,-0.42334 -0.67028,-0.52916 -0.67028,-0.52916 0.52916,-0.56444 0.67028,0 1.83445,-0.17639 2.57528,-0.38806 1.05833,-0.28222 1.30528,-0.49389 1.12889,-0.9525 -0.14111,-0.3175 -0.42333,-1.05833 -0.59972,-1.5875 -0.28223,-0.70555 -0.52917,-0.91722 -0.9525,-0.77611 -2.11667,0.81139 -7.23195,1.69334 -10.97139,1.905 -6.87917,0.35278 -10.230559,0 -18.520836,-1.97555 -0.564444,-0.10584 -0.881944,0.14111 -1.340555,1.12889 z" />
  </g>
</svg>
