<?xml version="1.0" encoding="UTF-8" standalone="no"?>
<!-- Created with Inkscape (http://www.inkscape.org/) -->

<svg
   xmlns:dc="http://purl.org/dc/elements/1.1/"
   xmlns:cc="http://creativecommons.org/ns#"
   xmlns:rdf="http://www.w3.org/1999/02/22-rdf-syntax-ns#"
   xmlns:svg="http://www.w3.org/2000/svg"
   xmlns="http://www.w3.org/2000/svg"
   xmlns:sodipodi="http://sodipodi.sourceforge.net/DTD/sodipodi-0.dtd"
   xmlns:inkscape="http://www.inkscape.org/namespaces/inkscape"
   width="77.311668mm"
   height="80.36647mm"
   viewBox="0 0 77.311668 80.36647"
   version="1.1"
   id="svg1440"
   inkscape:version="0.92.4 (5da689c313, 2019-01-14)"
   sodipodi:docname="cow.svg">
  <defs
     id="defs1434" />
  <sodipodi:namedview
     id="base"
     pagecolor="#ffffff"
     bordercolor="#666666"
     borderopacity="1.0"
     inkscape:pageopacity="0.0"
     inkscape:pageshadow="2"
     inkscape:zoom="0.35"
     inkscape:cx="-198.18493"
     inkscape:cy="271.87348"
     inkscape:document-units="mm"
     inkscape:current-layer="layer1"
     showgrid="false"
     fit-margin-top="0"
     fit-margin-left="0"
     fit-margin-right="0"
     fit-margin-bottom="0"
     inkscape:window-width="1920"
     inkscape:window-height="1017"
     inkscape:window-x="1912"
     inkscape:window-y="-8"
     inkscape:window-maximized="1" />
  <metadata
     id="metadata1437">
    <rdf:RDF>
      <cc:Work
         rdf:about="">
        <dc:format>image/svg+xml</dc:format>
        <dc:type
           rdf:resource="http://purl.org/dc/dcmitype/StillImage" />
        <dc:title></dc:title>
      </cc:Work>
    </rdf:RDF>
  </metadata>
  <g
     inkscape:label="Layer 1"
     inkscape:groupmode="layer"
     id="layer1"
     transform="translate(-35.4275,-140.40006)">
    <path
       style="fill:#000000;stroke:none;stroke-width:0.03527778"
       inkscape:connector-curvature="0"
       id="path6"
       d="m 109.1596,141.26288 c -1.97556,1.30528 -3.175,1.37583 -7.72584,0.35278 -8.290277,-1.86972 -12.558887,-0.84667 -13.687777,3.28083 -0.388056,1.44639 -0.388056,1.44639 -2.04611,1.48167 -0.917223,0 -2.54,0.28222 -3.598333,0.59972 -1.516946,0.49389 -2.010833,0.81139 -2.25778,1.5875 -0.282223,0.77611 -0.211666,1.09361 0.458613,1.79917 l 0.811387,0.88194 -2.575277,0.77611 c -6.35,1.905 -10.618612,4.55084 -12.841112,7.97278 -2.046111,3.13972 -2.575277,3.59834 -5.997222,5.22111 -2.010834,0.9525 -4.974167,2.8575 -8.008056,5.15056 -2.645834,2.01083 -5.291667,3.95111 -5.891389,4.30389 l -1.023056,0.59972 -1.023056,-1.65806 c -1.728611,-2.82222 -2.398889,-5.22111 -2.363611,-8.74888 0,-3.17501 0.881944,-7.02028 2.151944,-9.48973 1.516945,-2.92805 6.067779,-6.31472 8.537223,-6.31472 0.740834,0 2.434167,0.45861 3.774723,1.02306 2.081389,0.84666 2.928055,0.98777 5.715,1.02305 3.069166,0 3.351389,-0.0706 3.986389,-0.84667 0.81139,-0.98777 0.670277,-1.76388 -0.705556,-3.70416 -2.398887,-3.38667 -7.267222,-4.55084 -13.123333,-3.06917 -6.52639,1.62278 -11.112501,4.97417 -13.793613,10.12472 -1.975555,3.73945 -2.54,6.27945 -2.504722,11.25362 0,4.48027 0.740833,8.46666 2.257778,12.20611 0.599722,1.51694 0.776111,2.71638 0.811389,5.96194 0.07056,3.59833 0.176389,4.30389 1.058333,6.17361 0.529167,1.16417 1.411111,2.57528 1.975556,3.175 1.27,1.34056 2.681111,4.33917 3.210278,6.87917 0.599722,2.78694 0.211666,8.78417 -0.740834,11.78278 l -0.776111,2.43416 1.340556,3.13973 c 0.705555,1.72861 1.622778,3.38666 2.046111,3.66889 0.952501,0.67027 4.092223,0.635 5.080001,-0.0706 0.9525,-0.67028 0.987778,-1.34056 0.105833,-3.175 -1.763889,-3.63361 -1.446389,-5.57389 1.481667,-9.10167 1.234722,-1.48167 2.822222,-3.63361 3.527778,-4.83306 l 1.27,-2.18722 0.388055,1.02306 c 0.846667,2.18722 1.411111,5.36222 1.411111,8.00805 0,2.36361 0.141112,3.03389 1.093612,4.93889 0.599722,1.19945 1.481668,2.71639 1.975555,3.31611 0.776113,1.09362 0.987779,1.16417 2.963333,1.16417 3.84528,0 4.339167,-0.81139 2.610557,-4.33917 -0.670277,-1.41111 -1.411111,-3.42194 -1.658057,-4.51555 -0.388054,-1.86972 -0.352777,-2.15195 1.058334,-6.52639 1.799166,-5.67972 2.54,-8.71361 2.54,-10.65389 v -1.48167 h 2.575279 c 3.31611,0 8.255,-0.59972 11.218333,-1.41111 l 2.363611,-0.59972 1.869723,1.19944 c 1.058333,0.67028 2.822223,1.69334 3.98639,2.29306 l 2.081387,1.05833 -0.246944,1.94028 c -0.105833,1.05833 -0.635,3.175 -1.164167,4.65667 -0.564443,1.76389 -0.846666,3.10444 -0.670276,3.66889 0.493887,1.97555 3.77472,3.10444 5.609166,1.905 0.564444,-0.35278 1.44639,-2.36361 3.174997,-6.985 1.30528,-3.56306 2.36361,-6.63223 2.36361,-6.77334 0,-0.17639 -0.98777,-1.41111 -2.15194,-2.75166 l -2.187223,-2.43417 0.705556,-2.39889 0.705557,-2.36361 1.905,-0.0706 c 1.12889,-0.0353 2.01083,0.10583 2.18722,0.35278 0.14111,0.24694 0.21167,2.29305 0.17639,4.55083 -0.0706,4.69195 0.17639,5.25639 2.57528,5.99722 1.48166,0.42334 3.28083,-0.0706 3.63361,-0.98777 0.10583,-0.28223 0.35278,-4.1275 0.56444,-8.50195 0.42334,-9.24278 0.49389,-9.06639 -2.64583,-9.38389 -2.01083,-0.21167 -7.79639,-1.86972 -8.5725,-2.50472 -0.35278,-0.24695 -0.45861,-1.05833 -0.35278,-2.8575 0.10584,-2.11667 0.28222,-2.75167 1.09361,-3.81 1.09361,-1.44639 1.79917,-1.62278 2.32834,-0.635 0.42333,0.77611 2.46944,1.79917 3.59833,1.79917 1.19944,0 3.81,-1.37584 4.445,-2.32834 0.77611,-1.19944 1.16417,-3.28083 0.77611,-4.26861 -0.17639,-0.49389 -1.02305,-1.55222 -1.83444,-2.36361 -1.34056,-1.27 -4.05695,-5.3975 -3.73945,-5.64445 0.0705,-0.0353 0.84667,-0.38805 1.72861,-0.77611 1.76389,-0.74083 3.35139,-2.01083 3.91584,-2.99861 0.42333,-0.81139 -0.14111,-2.01083 -1.09361,-2.36361 -0.635,-0.24694 -0.59973,-0.35278 0.35277,-1.79917 1.23473,-1.83443 1.30528,-2.25777 0.35278,-3.21027 -0.91722,-0.91722 -1.34055,-0.88194 -2.92805,0.21167 z m -8.04334,2.11667 c 4.51556,1.02305 6.42056,0.9525 8.39611,-0.21167 1.34056,-0.81139 1.44639,-0.67028 0.42334,0.74083 -1.51695,2.11667 -3.13973,2.43417 -7.83167,1.55223 -1.51694,-0.28223 -3.95111,-0.52917 -5.3975,-0.52917 -2.151946,0 -2.645833,0.10583 -2.928057,0.67028 -0.599723,1.09361 0.282224,1.83444 2.610557,2.11666 1.940277,0.24695 3.70417,0.9525 3.70417,1.48167 0,0.14111 0.42333,0.3175 0.98777,0.42333 1.905,0.42334 3.06917,1.51695 4.79778,4.65667 0.9525,1.72861 2.39889,3.81 3.24556,4.62139 0.84666,0.84667 1.55222,1.72861 1.5875,1.97556 0.24694,2.01083 -0.98778,3.63361 -3.06917,4.02166 -1.02305,0.17639 -1.37583,0.0353 -2.82222,-1.19944 -2.25778,-2.04611 -5.43278,-3.03389 -9.38389,-3.03389 -3.386667,0 -3.35139,0.0353 -4.092223,-2.68111 l -0.3175,-1.23472 -0.282223,0.98777 c -0.352777,1.37584 0.07056,3.24556 1.023056,4.37445 l 0.81139,0.9525 1.340554,-0.635 c 1.446389,-0.70556 3.069166,-0.59972 5.432779,0.35278 l 1.375837,0.56444 -1.093614,1.55222 c -1.411113,2.01084 -1.658056,5.04472 -0.776113,9.13695 0.423334,1.905 0.564447,3.52777 0.423334,5.29166 -0.176387,2.61056 -1.199444,6.87917 -1.622777,6.87917 -0.3175,0 -1.869723,-1.65805 -2.610557,-2.82222 -0.423333,-0.56445 -0.599723,-0.67028 -0.599723,-0.3175 0,0.84667 2.681113,4.79778 5.11528,7.54944 l 2.18722,2.46945 -2.222497,5.99722 c -2.25778,6.17361 -2.469446,6.45583 -4.198056,6.0325 -1.234724,-0.3175 -1.30528,-1.05833 -0.35278,-3.91583 0.49389,-1.44639 0.98778,-3.77473 1.093613,-5.22111 l 0.246943,-2.61056 -3.139723,-1.69333 c -3.280833,-1.76389 -8.960553,-5.50334 -9.66611,-6.38528 -0.246943,-0.28222 -0.599723,-0.49389 -0.77611,-0.49389 -0.458613,0 0.246943,1.16417 1.481667,2.36361 1.27,1.23472 1.305276,1.23472 -2.645834,2.11667 -1.693336,0.38805 -4.409723,0.56444 -8.537223,0.59972 l -6.067779,0.0353 -3.104444,1.5875 -3.104445,1.62278 -3.351389,5.50333 c -1.834444,3.03389 -4.303889,6.6675 -5.432778,8.07861 -3.139722,3.81 -3.668889,6.0325 -2.328333,9.8425 0.388055,1.05834 0.670277,2.08139 0.705555,2.22251 0,0.17638 -0.670278,0.24694 -1.481667,0.17638 l -1.446389,-0.10583 -1.164166,-2.71639 c -1.093612,-2.57528 -1.12889,-2.82222 -0.705556,-4.05694 0.9525,-2.78695 1.375833,-6.17361 1.164167,-9.94834 -0.211667,-4.37445 -1.164167,-7.47889 -2.928056,-9.66611 -3.033889,-3.77472 -4.021667,-6.87917 -3.386667,-10.40695 0.282222,-1.65805 0.211667,-2.11666 -0.846667,-4.90361 -2.363611,-6.42055 -3.069167,-13.54666 -1.763889,-18.45028 1.305278,-4.79777 4.374445,-8.96055 8.325557,-11.18305 4.515555,-2.57528 11.288889,-3.63361 14.2875,-2.25778 1.552223,0.67028 3.81,3.03389 3.598333,3.66889 -0.07055,0.24694 -0.987777,0.45861 -2.08139,0.52917 -1.481665,0.0705 -2.822221,-0.17639 -5.750276,-1.16417 -4.268612,-1.44639 -4.833056,-1.41111 -8.008056,0.24694 -5.397501,2.8575 -8.537223,8.92528 -8.537223,16.51 0,2.32834 0.211666,3.98639 0.670277,5.46806 0.670278,2.11667 3.069167,6.0325 4.092223,6.63222 0.564444,0.35278 4.303889,-2.11667 10.477501,-6.91444 1.446389,-1.09361 3.668889,-2.50473 4.938889,-3.10445 1.305278,-0.59972 2.716389,-1.23472 3.175001,-1.48166 0.987777,-0.45861 2.892777,-2.61056 4.445,-4.97417 2.081388,-3.21028 6.632221,-5.67972 14.075834,-7.62 2.187223,-0.59972 4.445,-1.05833 5.08,-1.05833 1.76389,0 1.693333,-0.59973 -0.105834,-0.84667 -1.869723,-0.24695 -4.727223,-1.41111 -4.727223,-1.94028 0,-0.45861 2.293057,-1.09361 4.056947,-1.09361 0.881943,0 1.940276,0.3175 2.82222,0.88194 0.776113,0.45862 1.728613,0.84667 2.116667,0.84667 0.670279,0 0.670279,-0.0353 -0.07055,-0.38805 -1.128894,-0.52917 -1.658061,-2.36362 -1.164171,-4.09223 0.811387,-3.06916 4.198054,-3.63361 11.606387,-1.97555 z m 4.05695,32.385 c 1.69333,0.49389 3.56305,0.91722 4.09222,0.91722 h 1.02305 l -0.21166,5.18583 c -0.3175,8.5725 -0.52917,10.16 -1.34056,10.23056 -0.38805,0.0706 -0.98778,-0.10583 -1.30528,-0.38806 -0.52916,-0.38805 -0.635,-1.19944 -0.74083,-5.18583 -0.0353,-2.61055 -0.21167,-4.93889 -0.35278,-5.18583 -0.17639,-0.28223 -1.16416,-0.42334 -2.75166,-0.42334 h -2.43417 v -2.61055 c 0,-1.44639 -0.10583,-2.89278 -0.24694,-3.24556 -0.17639,-0.45861 -0.0706,-0.56444 0.45861,-0.42333 0.35277,0.10583 2.08139,0.59972 3.81,1.12889 z M 68.695983,192.9801 c 0,1.86973 -0.987779,5.96195 -2.610556,11.00667 -0.705556,2.11667 -1.27,4.37445 -1.27,4.97417 0,1.44639 0.917223,4.51555 1.975556,6.59694 0.458611,0.91723 0.846667,1.76389 0.846667,1.86973 0,0.10583 -0.705556,0.17639 -1.5875,0.17639 h -1.552223 l -1.340556,-2.39889 c -1.27,-2.2225 -1.340556,-2.57528 -1.552222,-6.24417 -0.176389,-2.99861 -0.458612,-4.58611 -1.27,-6.94972 l -1.058334,-3.06917 1.27,-2.11667 c 1.305278,-2.15194 3.351389,-3.70416 6.279445,-4.79778 1.869723,-0.67027 1.869723,-0.70555 1.869723,0.9525 z" />
  </g>
</svg>
