<?xml version="1.0" standalone="no"?>
<!DOCTYPE svg PUBLIC "-//W3C//DTD SVG 20010904//EN"
 "http://www.w3.org/TR/2001/REC-SVG-20010904/DTD/svg10.dtd">
<svg version="1.0" xmlns="http://www.w3.org/2000/svg"
 width="841.000000pt" height="1023.000000pt" viewBox="0 0 841.000000 1023.000000"
 preserveAspectRatio="xMidYMid meet">
<metadata>
Created by potrace 1.16, written by Peter Selinger 2001-2019
</metadata>
<g transform="translate(0.000000,1023.000000) scale(0.100000,-0.100000)"
fill="#000000" stroke="none">
<path d="M7172 9946 c-18 -20 -32 -43 -32 -50 0 -14 -50 -50 -116 -84 -60 -31
-241 -167 -296 -224 -60 -62 -132 -201 -124 -241 13 -65 -155 -243 -301 -321
-89 -47 -130 -79 -201 -159 -19 -20 -39 -37 -46 -37 -26 0 -131 41 -190 74
-186 104 -259 292 -154 393 78 76 209 74 238 -3 6 -14 10 -55 10 -91 0 -109
34 -153 120 -153 45 0 75 23 86 66 18 72 -32 264 -91 352 -76 111 -169 146
-314 118 -104 -21 -175 -54 -239 -111 -128 -115 -149 -335 -50 -530 69 -137
136 -200 318 -300 58 -32 113 -65 124 -74 36 -31 53 -84 59 -181 4 -52 13
-117 21 -144 15 -48 10 -86 -14 -101 -6 -3 -33 -33 -60 -66 -61 -73 -62 -90
-18 -214 23 -66 31 -106 30 -149 -3 -140 68 -205 224 -206 101 0 141 22 163
89 18 58 6 99 -39 128 -62 40 -63 41 -57 104 6 68 42 153 96 224 21 27 50 71
65 97 15 25 33 52 41 58 26 22 18 -51 -16 -145 -49 -136 -30 -203 72 -255 20
-11 63 -42 95 -70 80 -68 147 -93 249 -93 91 1 188 31 206 65 14 25 3 83 -22
124 -25 42 -71 60 -143 57 -41 -2 -73 3 -104 17 l-44 20 27 32 c53 63 89 182
109 357 l11 105 50 34 c28 19 77 59 111 88 l61 53 51 -52 c36 -36 59 -72 77
-117 36 -92 67 -134 117 -159 53 -25 97 -26 158 -3 55 21 80 64 80 138 0 103
-45 209 -139 324 -88 107 -86 109 64 87 l79 -12 9 -37 c11 -46 63 -95 112
-104 46 -8 122 29 152 75 47 70 24 188 -62 325 -48 78 -52 81 -107 98 -32 9
-105 23 -162 29 -94 11 -105 15 -115 36 -14 30 -14 76 -1 68 14 -9 102 35 174
87 101 72 111 152 32 266 -14 20 -31 53 -37 72 -24 71 -86 130 -137 130 -15 0
-21 9 -25 42 -7 54 -47 93 -86 83 -30 -7 -35 -7 -82 1 -32 5 -39 2 -67 -30z
m85 -47 c7 -13 14 -31 16 -40 3 -10 35 -24 84 -38 43 -12 84 -24 91 -27 11 -3
10 -8 -2 -26 -24 -34 -20 -41 23 -34 39 6 40 5 52 -32 7 -20 27 -58 44 -84 39
-56 51 -108 33 -142 -13 -25 -82 -78 -151 -116 l-37 -20 -50 21 c-48 20 -51
21 -76 4 -31 -20 -44 -9 -44 38 0 32 -5 33 -49 6 -41 -25 -51 -15 -51 49 0 34
-3 42 -19 42 -10 0 -30 -9 -44 -20 -25 -20 -25 -20 -30 1 -6 24 6 72 28 105 8
13 15 26 15 30 0 13 -32 -20 -46 -47 -14 -28 -20 -130 -8 -142 4 -4 20 5 37
19 33 28 46 21 47 -26 1 -14 9 -40 19 -59 l18 -34 19 31 c19 33 44 50 44 29 0
-7 5 -29 11 -49 10 -40 28 -48 49 -23 18 22 28 19 45 -15 17 -33 19 -44 6 -36
-5 3 7 -26 27 -65 26 -53 36 -87 40 -139 4 -63 2 -74 -28 -132 -50 -98 -50
-98 -101 -28 -24 33 -45 60 -46 60 -2 0 10 -27 27 -60 36 -71 36 -70 10 -70
-45 0 -120 -60 -120 -97 0 -17 41 2 112 53 l47 33 21 -28 20 -29 -37 -19 c-39
-20 -81 -68 -70 -79 4 -4 37 8 73 26 l67 33 17 -23 c17 -22 16 -24 -33 -71
-28 -27 -48 -51 -45 -55 3 -3 25 4 47 16 83 42 89 43 106 10 19 -38 20 -37
-14 -43 -32 -7 -90 -52 -80 -62 6 -5 44 2 110 21 22 6 39 -42 39 -111 0 -61
-12 -79 -63 -95 -86 -27 -157 24 -196 141 -20 60 -31 74 -164 206 -89 89 -156
148 -181 158 -21 9 -40 15 -42 13 -2 -2 20 -20 49 -39 28 -20 72 -60 96 -89
l44 -54 -44 -40 c-114 -102 -218 -164 -403 -240 -138 -57 -200 -92 -233 -129
-17 -19 -33 -41 -35 -48 -3 -9 -14 -3 -34 19 -28 31 -203 127 -213 117 -9 -9
63 -76 104 -97 22 -12 56 -35 77 -52 36 -30 36 -31 20 -58 -9 -16 -19 -28 -22
-28 -3 0 -14 14 -25 31 -21 32 -81 69 -112 69 -13 0 -7 -11 23 -42 71 -74 85
-98 73 -119 -9 -19 -14 -17 -61 26 -91 81 -89 56 4 -76 17 -24 15 -69 -2 -69
-5 0 -27 23 -50 50 -30 36 -49 50 -67 50 l-26 0 27 -25 c14 -13 26 -31 26 -40
0 -8 18 -35 40 -59 22 -24 40 -53 40 -66 0 -21 -1 -21 -34 8 -32 28 -73 49
-81 40 -1 -1 23 -36 54 -77 48 -64 62 -76 102 -88 59 -17 73 -33 65 -78 -10
-49 -38 -65 -119 -65 -128 0 -170 37 -173 154 -2 48 -12 100 -33 161 -17 49
-31 99 -31 110 0 11 29 52 64 91 35 40 66 83 70 97 3 13 -1 46 -9 73 -8 27
-18 94 -21 149 -8 112 -31 174 -84 218 -24 21 -30 33 -30 67 0 55 20 130 34
130 29 -1 37 -19 40 -101 5 -112 33 -184 97 -252 28 -28 49 -47 47 -42 -2 6
-18 39 -35 75 -31 66 -56 155 -69 243 -6 43 -5 47 15 47 12 0 24 -8 27 -17 19
-56 60 -127 95 -163 22 -23 43 -40 45 -38 2 3 -19 54 -47 115 l-52 110 24 32
c21 29 25 31 34 16 51 -87 152 -211 162 -201 7 6 -48 112 -97 189 l-39 62 26
27 c15 16 32 28 37 27 6 0 26 -31 43 -68 31 -65 110 -167 120 -157 3 3 -22 61
-55 129 l-60 125 40 22 c22 12 41 20 42 19 2 -2 10 -17 19 -34 25 -50 105
-153 127 -165 16 -9 8 14 -40 109 -33 67 -60 123 -60 125 0 3 13 14 29 25 l29
21 45 -62 c51 -71 114 -135 123 -125 7 7 -31 76 -92 164 l-42 61 23 22 23 21
21 -34 c25 -41 98 -110 137 -130 81 -41 77 -28 -23 77 -57 58 -103 112 -103
119 0 7 7 23 16 35 l15 22 42 -39 c73 -69 133 -110 187 -126 21 -6 17 1 -25
45 -27 28 -78 72 -112 98 -35 25 -63 52 -63 59 0 8 7 28 16 44 15 30 15 31 -5
24 -19 -6 -20 -4 -11 19 5 15 17 41 26 59 16 29 18 30 25 12 4 -11 8 -39 8
-61 1 -51 20 -77 104 -138 36 -26 79 -66 97 -87 18 -22 34 -38 37 -36 14 14
-54 111 -116 167 -57 50 -72 70 -76 99 -3 20 -14 52 -24 73 l-18 36 37 41 c21
23 42 41 48 41 19 0 22 -34 7 -84 -22 -71 -13 -89 75 -150 43 -30 95 -75 115
-101 21 -25 40 -43 42 -41 3 3 -9 29 -26 59 -28 49 -62 85 -144 153 -26 22
-27 29 -2 111 4 13 0 35 -10 55 l-16 33 32 27 c18 15 35 25 38 22 3 -3 8 -50
11 -105 5 -93 7 -101 34 -127 23 -21 27 -23 20 -7 -8 20 -9 43 -4 150 2 40 -3
71 -12 90 -15 27 -14 30 7 47 13 10 25 18 27 18 2 0 11 -15 21 -33 21 -38 57
-66 57 -43 0 7 -7 33 -15 57 -15 40 -14 45 2 56 24 18 41 16 47 -5 4 -11 18
-29 31 -42 l25 -23 0 24 c0 13 -4 39 -10 58 -8 28 -6 38 10 59 11 13 20 29 20
35 0 16 32 48 44 44 6 -2 16 -14 23 -28z m-1644 -656 c2 -5 2 -27 -1 -50 -4
-39 -7 -43 -32 -43 -15 0 -47 -7 -70 -15 -23 -8 -44 -15 -46 -15 -2 0 -4 25
-4 55 0 59 -4 54 65 68 35 8 84 7 88 0z m1881 -99 c12 -5 15 -15 10 -43 -3
-20 0 -49 6 -66 l12 -30 19 63 c18 57 22 62 48 62 38 0 43 -8 26 -41 -8 -15
-15 -43 -15 -61 l1 -33 27 34 c15 19 36 46 48 59 l20 24 18 -26 c17 -27 17
-27 -18 -67 -57 -62 -49 -74 20 -34 l43 25 21 -39 c11 -22 20 -42 20 -44 0 -2
-17 -9 -38 -15 -21 -7 -47 -21 -57 -32 l-19 -21 67 7 67 7 0 -45 c0 -54 -26
-92 -74 -108 -61 -20 -116 21 -116 88 0 19 -9 45 -20 59 -18 23 -20 24 -20 6
0 -19 -3 -19 -86 -7 -47 7 -88 15 -90 17 -2 2 5 26 17 52 18 41 21 61 16 132
-4 75 -3 83 13 83 10 0 25 -3 34 -6z m-704 -921 c0 -10 -3 -28 -6 -40 -6 -23
-9 -23 -150 -23 l-144 0 0 30 0 30 68 1 c37 1 92 4 122 9 95 13 110 12 110 -7z
m-32 -134 l-11 -32 -121 6 c-109 6 -119 5 -101 -9 28 -21 111 -44 159 -44 40
-1 41 -1 20 -18 -42 -35 -47 -57 -19 -91 34 -39 104 -62 183 -59 54 3 64 0 86
-22 14 -14 26 -38 28 -55 4 -35 -20 -50 -104 -65 -94 -18 -185 8 -257 71 -25
23 -66 53 -91 67 -76 43 -100 71 -100 114 0 43 2 44 33 24 30 -19 93 -30 101
-18 3 6 -20 25 -51 43 -32 18 -59 33 -61 34 -1 1 5 18 13 38 l15 36 112 4 c62
1 127 4 145 5 32 2 32 2 21 -29z"/>
<path d="M5117 9824 c-56 -37 -90 -39 -219 -10 -235 53 -356 24 -388 -93 -11
-41 -11 -41 -58 -42 -26 0 -72 -8 -102 -17 -43 -14 -57 -23 -64 -45 -8 -22 -6
-31 13 -51 l23 -25 -73 -22 c-180 -54 -301 -129 -364 -226 -58 -89 -73 -102
-170 -148 -57 -27 -141 -81 -227 -146 -75 -57 -150 -112 -167 -122 l-29 -17
-29 47 c-49 80 -68 148 -67 248 0 90 25 199 61 269 43 83 172 179 242 179 21
0 69 -13 107 -29 59 -24 83 -28 162 -29 87 0 95 2 113 24 23 28 19 50 -20 105
-68 96 -206 129 -372 87 -185 -46 -315 -141 -391 -287 -56 -106 -72 -178 -71
-319 0 -127 21 -240 64 -346 17 -43 22 -77 23 -169 2 -102 5 -122 30 -175 15
-33 40 -73 56 -90 36 -38 76 -123 91 -195 17 -79 6 -249 -21 -334 l-22 -69 38
-89 c20 -49 46 -96 58 -104 27 -19 116 -18 144 2 27 19 28 38 3 90 -50 103
-41 158 42 258 35 42 80 103 100 137 l36 62 11 -29 c24 -62 40 -152 40 -227 0
-67 4 -86 31 -140 17 -34 42 -77 56 -94 22 -31 28 -33 84 -33 109 0 123 23 74
123 -19 40 -40 97 -47 128 -11 53 -10 61 30 185 51 161 72 247 72 302 l0 42
73 0 c94 0 234 17 318 40 l67 17 53 -34 c30 -19 80 -48 113 -65 l59 -30 -7
-55 c-3 -30 -18 -90 -33 -132 -16 -50 -24 -88 -19 -104 14 -56 107 -88 159
-54 16 10 41 67 90 198 37 101 67 188 67 192 0 5 -28 40 -61 78 l-62 69 20 68
20 67 54 2 c32 1 57 -3 62 -10 4 -7 6 -65 5 -129 -2 -133 5 -149 73 -170 42
-12 93 2 103 28 3 8 10 117 16 241 12 262 14 257 -75 266 -57 6 -221 53 -243
71 -10 7 -13 30 -10 81 3 60 8 78 31 108 31 41 51 46 66 18 12 -22 70 -51 102
-51 34 0 108 39 126 66 22 34 33 93 22 121 -5 14 -29 44 -52 67 -38 36 -115
153 -106 160 2 1 24 11 49 22 50 21 95 57 111 85 12 23 -4 57 -31 67 -18 7
-17 10 10 51 35 52 37 64 10 91 -26 26 -38 25 -83 -6z m-228 -60 c128 -29 182
-27 238 6 38 23 41 19 12 -21 -43 -60 -89 -69 -222 -44 -43 8 -112 15 -153 15
-61 0 -75 -3 -83 -19 -17 -31 8 -52 74 -60 55 -7 105 -27 105 -42 0 -4 12 -9
28 -12 54 -12 87 -43 136 -132 27 -49 68 -108 92 -131 24 -24 44 -49 45 -56 7
-57 -28 -103 -87 -114 -29 -5 -39 -1 -80 34 -64 58 -154 86 -266 86 -96 0 -95
-1 -116 76 l-9 35 -8 -28 c-10 -39 2 -92 29 -124 l23 -27 38 18 c41 20 87 17
154 -10 l39 -16 -31 -44 c-40 -57 -47 -143 -22 -259 12 -54 16 -100 12 -150
-5 -74 -34 -195 -46 -195 -9 0 -53 47 -74 80 -12 16 -17 19 -17 9 0 -24 76
-136 145 -214 l62 -70 -63 -170 c-64 -175 -70 -183 -119 -171 -35 9 -37 30
-10 111 14 41 28 107 31 148 l7 74 -89 48 c-93 50 -254 156 -274 181 -7 8 -17
14 -22 14 -13 0 7 -33 42 -67 36 -35 37 -35 -75 -60 -48 -11 -125 -16 -242
-17 l-172 -1 -88 -45 -88 -46 -95 -156 c-52 -86 -122 -189 -154 -229 -89 -108
-104 -171 -66 -279 11 -30 19 -59 20 -63 0 -5 -19 -7 -42 -5 l-41 3 -33 77
c-31 73 -32 80 -20 115 27 79 39 175 33 282 -6 124 -33 212 -83 274 -86 107
-114 195 -96 295 8 47 6 60 -24 139 -67 182 -87 384 -50 523 37 136 124 254
236 317 128 73 320 103 405 64 44 -19 108 -86 102 -104 -2 -7 -28 -13 -59 -15
-42 -2 -80 5 -163 33 -121 41 -137 40 -227 -7 -153 -81 -242 -253 -242 -468 0
-66 6 -113 19 -155 19 -60 87 -171 116 -188 16 -10 122 60 297 196 41 31 104
71 140 88 37 17 77 35 90 42 28 13 82 74 126 141 59 91 188 161 399 216 62 17
126 30 144 30 50 0 48 17 -3 24 -53 7 -134 40 -134 55 0 13 65 31 115 31 25 0
55 -9 80 -25 22 -13 49 -24 60 -24 19 0 19 1 -2 11 -32 15 -47 67 -33 116 23
87 119 103 329 56z m115 -918 c48 -14 101 -26 116 -26 l29 0 -6 -147 c-9 -243
-15 -288 -38 -290 -11 -2 -28 3 -37 11 -15 11 -18 34 -21 147 -1 74 -6 140
-10 147 -5 8 -33 12 -78 12 l-69 0 0 74 c0 41 -3 82 -7 92 -5 13 -2 16 13 12
10 -3 59 -17 108 -32z m-1034 -488 c0 -53 -28 -169 -74 -312 -20 -60 -36 -124
-36 -141 0 -41 26 -128 56 -187 13 -26 24 -50 24 -53 0 -3 -20 -5 -45 -5 l-44
0 -38 68 c-36 63 -38 73 -44 177 -5 85 -13 130 -36 197 l-30 87 36 60 c37 61
95 105 178 136 53 19 53 20 53 -27z"/>
<path d="M973 9746 c-104 -34 -176 -98 -222 -196 -47 -102 -33 -254 33 -357
24 -38 47 -48 74 -34 27 14 33 34 21 73 -19 63 -13 163 14 221 32 71 80 102
158 102 146 0 221 -147 156 -305 -13 -30 -63 -122 -111 -204 -180 -308 -226
-426 -234 -606 -9 -214 52 -374 198 -520 94 -95 176 -145 295 -178 39 -11 90
-30 113 -42 24 -12 69 -25 99 -30 60 -10 897 -5 913 5 28 17 -7 124 -50 155
-16 11 -42 23 -59 26 -30 6 -31 8 -31 63 0 40 7 70 25 104 13 27 27 75 31 107
6 52 8 57 24 48 43 -27 90 14 104 93 5 30 12 38 35 42 19 4 32 15 39 34 38 95
23 183 -62 365 l-66 139 30 184 c17 101 30 197 30 214 0 31 16 53 153 204 69
76 99 134 99 191 0 53 -27 104 -58 112 -12 3 -71 -8 -131 -25 -60 -17 -130
-31 -156 -31 -52 0 -133 -24 -160 -48 -16 -14 -21 -14 -55 6 -100 56 -183 48
-215 -21 -29 -60 -19 -122 24 -157 18 -14 17 -19 -21 -105 -71 -161 -65 -153
-201 -245 -160 -109 -241 -174 -316 -253 -116 -124 -192 -263 -235 -430 -17
-65 -22 -113 -22 -234 -1 -84 -4 -153 -8 -153 -16 0 -83 91 -114 155 -98 204
-70 354 126 680 138 229 184 353 184 495 0 113 -26 178 -99 254 -70 73 -144
108 -239 113 -42 2 -88 -3 -113 -11z m220 -64 c54 -24 125 -92 150 -144 71
-150 30 -325 -142 -612 -143 -238 -191 -359 -191 -486 1 -167 84 -345 203
-431 32 -23 46 -43 62 -88 12 -32 32 -72 45 -90 l23 -33 -24 7 c-64 19 -150
76 -220 145 -81 80 -113 131 -156 244 -24 64 -27 85 -27 206 -1 114 3 146 22
210 30 97 113 266 198 405 36 61 83 144 103 185 33 69 36 82 36 167 0 86 -2
94 -30 134 -17 24 -53 57 -80 74 -41 25 -58 30 -114 30 -144 0 -232 -103 -233
-271 0 -39 2 -82 6 -95 3 -13 -6 0 -20 29 -103 212 52 454 282 439 33 -3 81
-14 107 -25z m1507 9 c-5 -11 -15 -22 -22 -24 -8 -4 -7 -6 4 -6 9 -1 20 4 23
9 13 21 25 9 25 -25 0 -48 -21 -87 -89 -164 -109 -123 -158 -168 -213 -194
-107 -51 -181 -30 -212 58 l-15 40 0 -33 c-1 -50 25 -91 72 -113 58 -26 86
-24 151 10 l56 30 0 -27 c0 -29 -23 -175 -65 -423 l-27 -156 47 -139 c44 -128
47 -145 42 -209 -3 -38 -9 -78 -12 -88 -12 -28 -29 -14 -38 31 -4 23 -13 42
-18 42 -5 0 -9 19 -8 43 1 23 -5 55 -13 72 l-16 30 -6 -45 c-3 -25 -8 -98 -11
-163 -8 -149 -24 -204 -78 -265 -43 -49 -107 -105 -114 -98 -2 1 2 27 8 56 17
80 7 216 -19 267 -40 78 -112 109 -235 100 -99 -7 -199 -53 -267 -122 l-45
-46 67 44 c176 118 353 128 428 25 52 -72 63 -208 27 -345 l-14 -53 33 0 c46
0 100 -28 113 -58 7 -13 9 -27 6 -31 -3 -3 -167 -4 -363 -3 -349 3 -358 4
-408 26 -147 67 -224 255 -211 511 12 221 77 387 214 550 75 89 165 164 328
275 72 48 139 98 151 111 11 13 33 56 49 94 16 39 46 105 67 148 l38 77 -27 0
c-61 0 -84 70 -38 115 13 14 28 25 33 25 21 0 94 -31 129 -54 32 -22 39 -24
46 -11 16 29 88 56 171 65 44 5 119 20 166 34 105 30 103 30 90 7z m-139
-1189 c9 -62 1 -133 -16 -133 -5 0 -19 35 -30 78 -12 43 -34 111 -49 152 -21
60 -25 83 -20 120 l7 46 49 -102 c28 -58 53 -127 59 -161z"/>
<path d="M4788 7529 c-11 -6 -18 -22 -18 -40 0 -57 24 -86 168 -206 33 -28 55
-56 62 -80 7 -21 23 -59 36 -86 21 -43 22 -47 4 -37 -10 6 -40 38 -66 71 -26
34 -71 76 -100 95 -30 19 -84 71 -124 119 -60 71 -76 85 -100 85 -17 0 -38 -8
-47 -18 -17 -18 -20 -17 -75 21 -79 54 -138 54 -159 0 -11 -30 0 -54 52 -108
l38 -40 -77 3 c-85 3 -125 -11 -130 -43 -2 -17 -18 -24 -80 -38 -42 -9 -105
-30 -139 -47 -59 -27 -68 -38 -64 -76 1 -6 -21 -21 -48 -34 -67 -31 -136 -101
-128 -130 4 -15 -2 -30 -19 -49 -14 -14 -39 -52 -55 -85 -34 -65 -33 -104 3
-114 19 -5 20 -10 15 -62 -8 -71 10 -104 53 -98 26 4 29 1 34 -35 10 -62 33
-106 60 -116 17 -7 29 -24 41 -63 45 -136 86 -179 139 -145 23 15 25 14 85
-53 33 -38 70 -72 82 -75 24 -8 69 19 69 40 0 8 4 15 10 15 12 0 85 -92 107
-134 31 -60 73 -64 105 -9 l22 37 23 -50 c12 -27 23 -66 23 -86 0 -64 44 -86
94 -47 30 24 32 15 10 -41 -9 -22 -14 -51 -12 -64 5 -23 2 -24 -54 -28 -68 -5
-81 -17 -75 -69 l5 -36 -42 9 c-22 5 -61 20 -85 34 -24 13 -52 24 -62 24 -22
0 -49 -37 -49 -67 l0 -23 -47 24 c-27 13 -61 38 -77 55 -38 40 -71 40 -95 0
l-18 -30 -57 63 c-36 39 -76 100 -106 160 -48 97 -65 154 -110 393 -63 333
-182 477 -379 463 -144 -11 -229 -98 -266 -276 -10 -47 -15 -138 -15 -305 0
-131 -5 -270 -11 -308 -8 -52 -8 -73 1 -84 8 -10 8 -28 -1 -73 -14 -66 -8 -91
22 -99 19 -5 20 -11 15 -47 -4 -23 -16 -74 -28 -115 -24 -82 -19 -104 26 -109
18 -2 40 6 64 25 20 15 51 29 67 31 44 3 76 31 107 90 54 105 46 273 -24 542
-63 242 -78 311 -78 372 0 47 5 62 27 89 82 97 188 57 233 -88 17 -55 23 -110
30 -283 13 -311 41 -433 129 -557 158 -226 578 -371 933 -323 204 27 352 94
470 211 127 125 180 272 158 432 -31 214 -160 366 -430 506 -101 53 -108 58
-93 73 9 9 20 38 25 65 5 26 11 59 14 73 8 41 -35 113 -73 125 -18 5 -33 15
-33 21 0 41 -139 89 -185 64 -30 -16 -48 -67 -40 -113 8 -39 -7 -55 -57 -63
-28 -5 -38 0 -67 28 -42 41 -70 101 -71 151 0 30 8 46 40 81 22 24 63 53 90
65 47 20 52 20 74 5 16 -10 26 -27 28 -47 3 -27 11 -36 53 -57 65 -33 127 -73
144 -94 18 -22 76 -51 119 -61 17 -3 32 -13 32 -20 0 -7 17 -27 38 -44 20 -17
48 -40 61 -51 13 -11 34 -20 47 -20 13 0 26 -4 29 -10 13 -21 74 -11 107 19
30 27 33 34 33 90 0 60 0 61 28 61 69 0 119 112 83 186 -9 19 -16 55 -16 79 0
58 -33 144 -78 203 -20 26 -54 83 -77 127 -35 69 -49 86 -105 126 -59 43 -128
105 -166 152 -16 19 -31 21 -56 6z m-215 -173 l115 -84 -29 46 c-59 93 -24
113 44 25 52 -68 126 -138 154 -147 12 -4 48 -40 82 -81 35 -43 75 -81 94 -88
41 -18 61 -42 54 -67 -7 -29 66 -110 84 -92 24 23 -3 134 -51 206 -22 35 -52
94 -66 130 -21 54 -37 76 -81 114 -31 26 -72 62 -92 80 l-36 34 40 -29 c159
-116 153 -110 189 -185 19 -40 48 -91 66 -113 55 -68 73 -114 78 -195 3 -46
10 -82 19 -92 17 -19 10 -90 -10 -106 -16 -12 -99 -23 -92 -12 9 15 -33 31
-60 24 -21 -5 -25 -3 -25 15 0 11 -10 25 -22 32 -13 6 -45 29 -71 51 -45 38
-49 39 -67 23 -17 -16 -18 -15 -25 14 -3 16 -13 35 -22 42 -13 11 -19 9 -39
-14 -31 -36 -32 -82 -1 -101 12 -9 52 -24 89 -36 64 -19 118 -62 118 -92 0 -6
9 -3 20 7 20 18 20 17 20 -8 0 -29 32 -46 54 -28 28 23 36 -50 10 -87 -19 -27
-34 -29 -27 -2 5 21 -11 28 -22 10 -3 -5 -20 -10 -38 -10 -24 0 -28 3 -19 12
20 20 14 28 -16 22 -20 -4 -35 0 -52 16 -15 12 -18 20 -9 17 9 -3 22 -1 30 4
11 7 11 9 -3 9 -9 0 -28 11 -43 24 -14 13 -44 26 -66 30 -23 4 -55 14 -73 23
l-31 17 30 6 30 6 -25 8 c-55 16 -120 50 -109 57 6 3 -12 12 -40 19 -62 15
-66 30 -8 31 l42 1 -47 16 c-58 19 -63 36 -8 29 59 -7 39 8 -31 23 -58 13 -60
14 -38 26 22 12 19 13 -36 14 -43 0 -75 -7 -113 -25 -156 -73 -198 -170 -131
-304 51 -102 120 -139 203 -107 51 20 72 56 62 109 -11 56 0 69 48 61 22 -3
49 -10 59 -16 25 -13 21 -31 -6 -25 -31 8 -49 -6 -45 -34 3 -26 14 -28 100
-14 l48 8 15 -36 c20 -49 19 -51 -14 -31 -25 15 -33 15 -60 4 -38 -15 -34 -22
22 -35 39 -10 42 -14 45 -48 2 -27 -1 -37 -12 -37 -8 0 -23 -3 -33 -6 -14 -6
-16 -4 -6 6 21 23 3 40 -41 40 -23 0 -47 5 -54 12 -9 9 -17 7 -34 -9 -29 -26
-91 -58 -143 -72 -34 -9 -46 -8 -81 9 -39 19 -115 92 -178 170 -24 31 -27 32
-21 10 18 -69 99 -157 198 -214 54 -32 93 -30 159 6 l37 21 78 -27 c206 -73
436 -210 515 -307 109 -135 147 -303 104 -451 -50 -174 -231 -323 -461 -380
-76 -19 -116 -22 -260 -21 -149 0 -182 4 -267 26 -166 44 -338 136 -429 230
-53 55 -115 183 -134 279 -8 42 -19 177 -25 300 -10 236 -21 296 -66 376 -33
56 -92 95 -147 96 -58 1 -131 -42 -157 -94 -35 -68 -27 -142 39 -403 97 -379
103 -545 22 -626 -31 -31 -40 -26 -30 17 5 20 8 60 8 87 l0 50 -22 -66 c-24
-71 -69 -144 -98 -160 -17 -9 -17 -7 -4 32 14 38 36 148 50 248 l6 44 -31 -33
c-17 -18 -33 -30 -36 -28 -4 5 4 49 32 168 l5 24 -22 -19 c-13 -12 -19 -14
-13 -5 5 8 11 157 15 330 6 295 8 319 29 379 40 113 118 171 230 171 156 -1
256 -154 310 -473 46 -270 102 -404 229 -540 37 -40 134 -107 155 -107 4 0 2
9 -4 19 -11 21 -14 71 -4 71 4 0 22 -14 42 -31 36 -32 95 -61 172 -85 25 -8
46 -14 48 -14 1 0 -7 17 -18 37 -11 21 -20 48 -20 61 l0 22 49 -25 c70 -35
125 -46 185 -34 27 5 51 11 53 13 2 2 -10 17 -27 34 -40 40 -38 52 8 52 74 0
141 28 193 80 27 27 49 55 49 62 0 10 -2 10 -8 1 -10 -16 -92 -53 -118 -53
-21 0 -21 1 -7 43 16 46 13 131 -7 181 l-11 30 -23 -50 c-13 -27 -33 -58 -45
-68 l-21 -19 -1 34 c0 49 -28 111 -84 187 l-50 67 -6 -60 c-11 -99 -16 -102
-60 -37 -37 54 -135 164 -171 191 -15 11 -16 7 -11 -47 8 -86 -8 -90 -74 -16
-29 32 -63 78 -75 101 -13 24 -25 43 -28 43 -3 0 -13 -18 -22 -40 -9 -22 -21
-40 -27 -40 -23 0 -73 140 -86 245 l-8 60 -20 -44 c-16 -38 -21 -42 -29 -27
-6 10 -12 44 -15 75 -4 45 -1 68 15 104 12 26 16 47 11 47 -5 0 -32 -20 -58
-45 -26 -25 -51 -45 -54 -45 -7 0 0 50 14 97 6 17 23 50 40 72 16 23 26 41 22
41 -5 0 -32 -13 -60 -29 -61 -34 -66 -25 -24 40 35 54 83 100 136 129 l40 22
-53 -5 -53 -4 21 22 c57 61 184 101 286 92 35 -4 64 -4 64 -2 0 6 -72 26 -145
40 l-60 12 50 22 c87 39 159 53 260 49 52 -2 95 0 95 4 0 3 -26 19 -57 35
l-58 28 64 3 c79 4 172 -23 255 -73 68 -41 70 -41 56 -15 -9 16 -8 20 5 20 21
0 75 -28 103 -53 12 -11 22 -17 22 -13 0 24 -28 50 -83 77 -136 68 -307 194
-307 225 0 30 43 10 153 -70z"/>
<path d="M2409 7361 c-32 -32 -72 -87 -89 -122 -18 -35 -33 -65 -34 -66 -1 -1
-38 33 -82 75 -55 53 -105 90 -161 120 -86 44 -122 51 -146 27 -39 -39 -55
-242 -28 -355 18 -77 76 -212 128 -297 l43 -72 -43 -45 c-23 -25 -56 -67 -71
-93 l-29 -48 -91 24 c-72 18 -119 24 -221 25 -160 1 -239 -16 -380 -84 -213
-102 -345 -280 -393 -529 -14 -73 -22 -90 -48 -113 -87 -77 -59 -264 48 -316
39 -20 42 -24 44 -68 3 -81 55 -124 174 -143 83 -14 465 -14 679 -1 189 12
207 19 197 80 -3 19 -14 46 -25 61 l-20 27 25 6 c34 9 39 4 68 -59 31 -69 91
-110 175 -121 61 -8 184 9 189 25 2 6 27 8 65 4 34 -3 88 0 119 6 47 10 58 17
68 40 7 17 9 44 4 67 -9 50 -78 120 -129 130 -19 3 -37 10 -40 14 -3 4 6 32
20 61 26 57 50 152 59 234 3 28 12 73 20 100 8 28 20 87 27 133 l11 82 42 0
c71 0 141 26 175 65 26 30 31 44 31 89 0 136 -97 313 -205 373 -19 11 -19 13
-2 67 50 159 37 392 -33 579 -20 54 -42 77 -71 77 -7 0 -39 -27 -70 -59z
m-386 -38 c91 -48 210 -165 255 -250 40 -76 71 -193 73 -278 l2 -64 51 -12
c112 -26 223 -102 272 -184 34 -60 64 -151 64 -200 0 -90 -69 -122 -248 -111
l-97 5 48 -21 49 -22 -7 -56 c-20 -177 -94 -379 -170 -468 -46 -53 -115 -101
-169 -117 -64 -19 -56 -45 23 -72 78 -27 112 -58 114 -104 2 -34 2 -34 -54
-43 -125 -20 -196 12 -239 109 -33 74 -50 83 -130 66 -54 -12 -149 -15 -173
-5 -13 4 -13 11 -2 48 32 107 27 228 -15 323 -22 50 -99 136 -154 170 -89 57
-201 78 -319 62 -42 -6 -79 -14 -81 -18 -2 -3 38 -5 90 -3 145 5 258 -35 348
-123 116 -112 134 -271 51 -435 -14 -27 -25 -52 -25 -55 0 -3 31 -5 68 -5 111
0 188 -36 206 -97 6 -20 3 -22 -71 -29 -43 -5 -231 -9 -418 -9 -309 0 -344 2
-389 19 -37 14 -51 26 -62 52 -18 44 -18 45 11 88 l24 36 -45 0 c-80 0 -128
45 -140 132 -8 57 15 112 54 132 26 14 30 21 36 80 16 159 85 305 196 416 86
87 172 136 300 173 161 47 333 44 495 -7 l74 -24 32 56 c35 62 121 158 150
167 17 6 13 15 -33 82 -62 92 -120 215 -144 303 -30 113 -19 330 18 330 5 0
42 -17 81 -37z m489 -26 c33 -110 49 -213 49 -317 0 -99 -20 -213 -40 -233 -5
-5 -33 -1 -64 9 l-54 17 -6 71 c-5 64 -28 149 -67 242 -12 29 -11 37 22 105
37 77 112 173 132 166 6 -2 18 -29 28 -60z m-148 -1690 c-15 -30 -24 -62 -21
-70 3 -9 31 -24 62 -33 72 -21 114 -57 117 -104 3 -31 0 -35 -27 -41 -96 -21
-165 -4 -165 41 0 23 -45 77 -82 100 l-28 17 38 26 c21 14 58 47 83 75 24 27
45 49 47 47 2 -1 -9 -27 -24 -58z"/>
<path d="M6770 7326 c-276 -53 -453 -341 -375 -611 42 -149 137 -239 340 -325
296 -126 445 -231 502 -356 78 -170 -52 -365 -253 -382 -82 -6 -157 18 -251
81 -106 71 -151 128 -239 306 -87 178 -141 259 -216 325 -172 152 -389 146
-549 -13 -102 -103 -144 -241 -115 -381 39 -187 122 -284 380 -443 48 -30 55
-41 33 -50 -28 -11 -69 7 -124 56 -97 85 -178 107 -252 69 -47 -23 -72 -61
-78 -115 -9 -81 28 -152 98 -187 46 -24 72 -25 93 -4 23 22 20 48 -9 82 -25
30 -33 62 -15 62 5 0 29 -21 52 -46 56 -60 110 -91 183 -103 108 -17 198 13
243 80 21 30 23 43 20 109 -7 121 -60 200 -194 291 -119 80 -174 158 -174 248
0 75 97 109 183 64 74 -38 144 -147 201 -312 20 -57 52 -134 72 -171 75 -143
208 -253 370 -306 83 -27 100 -29 244 -29 131 0 167 4 235 23 219 63 404 200
484 359 109 217 44 494 -161 689 -98 93 -151 123 -392 225 -180 76 -261 124
-324 194 -60 65 -79 118 -62 170 25 75 136 132 236 122 70 -7 135 -43 231
-129 81 -73 125 -106 208 -156 28 -16 77 -46 109 -66 77 -46 122 -48 168 -7
29 26 33 35 33 83 0 43 -6 63 -32 103 -18 28 -45 72 -60 99 -41 73 -90 123
-131 137 -20 6 -81 36 -135 65 -239 132 -423 180 -577 150z m190 -50 c101 -19
183 -51 356 -141 80 -41 151 -75 159 -75 17 0 41 -31 116 -150 69 -110 77
-134 58 -169 -24 -42 -63 -39 -141 11 -37 24 -98 63 -137 87 -39 24 -101 72
-138 106 -161 146 -256 180 -393 139 -95 -28 -149 -78 -171 -158 -19 -70 14
-146 98 -228 61 -60 172 -123 332 -189 69 -28 149 -63 176 -76 231 -116 385
-337 385 -553 0 -207 -114 -366 -344 -482 -161 -81 -396 -112 -551 -73 -108
27 -221 91 -294 164 -77 77 -117 147 -170 300 -91 259 -215 387 -353 365 -109
-18 -150 -97 -113 -220 22 -74 66 -125 164 -193 141 -96 190 -167 191 -271 0
-93 -47 -132 -156 -132 -83 0 -158 34 -209 95 -21 25 -51 51 -67 58 -25 10
-32 9 -53 -11 -31 -29 -33 -77 -4 -114 14 -18 16 -26 7 -26 -42 0 -88 71 -88
135 0 51 44 95 95 95 52 0 95 -21 158 -78 84 -76 177 -92 213 -37 14 21 14 27
0 52 -15 30 -46 53 -153 117 -339 201 -376 610 -68 762 96 48 182 51 271 10
128 -59 201 -148 317 -386 74 -152 87 -171 156 -240 122 -121 256 -179 387
-167 118 11 241 94 287 195 17 37 22 66 22 132 0 73 -4 92 -28 137 -67 129
-202 229 -457 340 -233 101 -297 149 -352 260 -28 58 -33 78 -36 162 -4 109
14 177 69 262 74 116 214 193 359 197 14 1 59 -5 100 -12z"/>
<path d="M5925 4931 c-197 -57 -353 -211 -396 -387 -7 -27 -12 -107 -12 -179
1 -207 38 -348 158 -590 86 -176 101 -234 92 -371 -9 -129 -43 -224 -123 -348
-81 -123 -104 -179 -104 -256 0 -91 -2 -90 224 -90 203 0 216 3 216 47 0 27
-63 94 -112 119 -18 9 -35 18 -36 19 -2 2 28 48 67 102 86 118 183 311 208
411 18 72 18 73 35 52 27 -33 58 -145 58 -209 0 -76 -14 -121 -66 -210 -24
-42 -50 -103 -59 -136 -18 -71 -20 -166 -3 -183 9 -9 68 -12 205 -12 183 0
193 1 203 20 6 12 8 29 5 39 -8 27 -91 100 -125 113 l-30 10 30 43 c93 135
139 276 147 452 l6 122 46 -24 c79 -42 77 -34 35 -121 -49 -102 -55 -165 -22
-214 13 -19 78 -77 143 -128 91 -70 155 -110 262 -162 140 -69 142 -70 149
-107 9 -51 20 -63 61 -63 26 0 43 8 69 34 30 30 34 40 34 87 0 66 -24 99 -128
176 -84 62 -199 163 -231 204 l-20 26 39 22 39 22 16 -31 c60 -116 269 -249
492 -314 104 -30 107 -32 114 -64 9 -44 26 -62 61 -62 63 0 115 94 88 159 -18
44 -56 75 -160 131 -200 109 -287 204 -329 360 -11 40 -10 51 8 93 l20 47 58
1 c126 1 213 15 239 40 37 35 48 89 28 138 -15 39 -74 101 -94 101 -5 0 -17
17 -25 37 -24 57 -42 71 -127 98 -145 46 -254 30 -330 -48 l-34 -36 -135 68
c-301 155 -532 199 -809 156 -192 -30 -218 -31 -245 -5 -40 38 -59 103 -59
205 -1 264 126 418 333 403 139 -10 232 -103 206 -205 -10 -40 -83 -109 -132
-123 -42 -13 -73 -9 -73 9 0 9 38 49 95 99 55 48 3 107 -93 106 -113 -2 -186
-75 -199 -200 -16 -154 101 -244 282 -216 157 25 277 100 340 214 27 48 30 62
30 143 0 79 -4 96 -28 144 -58 109 -157 187 -286 225 -74 22 -237 20 -316 -3z
m369 -71 c129 -61 205 -162 214 -282 4 -59 1 -75 -22 -122 -34 -69 -108 -136
-181 -164 -241 -92 -396 -15 -344 173 23 80 112 132 183 105 l28 -10 -41 -31
c-73 -53 -100 -119 -62 -153 37 -33 89 -31 160 6 236 124 128 408 -155 408
-109 0 -209 -49 -270 -131 -111 -151 -123 -454 -23 -557 49 -50 75 -51 289
-17 123 19 291 19 386 -1 145 -29 355 -116 532 -219 57 -33 62 -35 62 -16 0
27 57 91 97 107 47 20 131 17 208 -7 74 -23 105 -47 105 -83 0 -18 11 -30 42
-48 53 -29 91 -83 83 -118 -10 -43 -37 -57 -127 -64 -46 -3 -110 -9 -143 -12
l-61 -6 -18 -51 c-41 -115 -116 -194 -243 -253 -94 -44 -133 -75 -133 -104 0
-25 153 -175 257 -252 51 -38 101 -80 110 -94 20 -32 19 -81 -3 -105 -24 -27
-43 -24 -50 9 -3 15 -7 32 -9 39 -5 16 -67 54 -135 82 -93 39 -175 89 -277
167 -126 97 -153 126 -153 165 0 35 31 113 74 183 34 56 37 50 -64 110 -136
80 -294 126 -433 126 l-85 0 -7 -62 c-16 -148 -56 -273 -129 -401 -48 -83
-135 -208 -190 -272 l-35 -40 51 -13 c54 -14 128 -58 136 -79 3 -10 -34 -13
-162 -13 l-166 0 0 48 c0 57 29 121 100 228 90 132 129 261 130 424 0 106 -20
174 -100 335 -73 149 -110 250 -134 367 -67 334 17 564 247 678 102 50 149 60
277 57 107 -3 120 -6 184 -37z m47 -1291 c49 -11 97 -28 106 -37 13 -14 15
-34 10 -137 -9 -192 -65 -344 -177 -483 l-50 -62 40 0 c47 0 104 -26 139 -64
l24 -26 -161 0 -162 0 0 38 c0 63 29 153 71 224 58 96 71 146 66 248 -5 98
-29 169 -83 247 -20 29 -33 57 -29 63 10 17 111 12 206 -11z m889 -164 c0 -9
13 -45 29 -80 51 -112 157 -206 339 -300 90 -47 126 -86 118 -129 -10 -49 -56
-76 -56 -33 0 42 -27 65 -103 88 -179 53 -290 105 -404 188 -38 27 -112 115
-113 133 0 3 19 17 43 31 23 14 62 46 87 71 47 49 60 55 60 31z"/>
<path d="M4485 4900 c-121 -14 -220 -83 -275 -193 -24 -49 -30 -72 -30 -126 1
-85 22 -132 89 -194 l51 -48 -30 -32 c-17 -18 -47 -66 -67 -107 -32 -66 -127
-193 -170 -227 -9 -7 -59 -22 -112 -34 -209 -47 -315 -90 -413 -165 -63 -50
-114 -74 -153 -74 -36 0 -73 41 -81 90 -7 45 -26 70 -52 70 -24 0 -37 -11 -61
-50 -42 -69 -21 -168 48 -234 17 -17 31 -37 31 -47 0 -26 49 -68 89 -75 20 -3
47 -13 60 -21 19 -12 31 -13 68 -3 25 6 46 10 47 8 5 -9 50 -167 54 -191 7
-43 -16 -82 -69 -117 -56 -36 -79 -73 -79 -125 0 -44 7 -58 80 -160 71 -98 86
-127 95 -185 4 -25 12 -51 17 -57 7 -9 44 -13 119 -13 102 0 109 1 124 23 11
18 12 31 4 61 -11 41 -30 62 -76 87 -38 21 -81 77 -89 117 -6 27 -2 33 27 52
19 11 52 25 74 32 22 6 54 25 72 41 l31 29 15 -28 c8 -16 36 -56 62 -89 55
-69 95 -148 95 -186 0 -55 26 -70 135 -79 144 -13 170 10 126 106 -12 26 -35
52 -62 70 -50 34 -95 107 -105 171 -8 51 7 100 53 176 28 47 36 71 40 130 l6
73 66 39 c36 22 106 57 156 79 49 21 103 47 118 58 l28 20 99 -57 c55 -31 100
-60 100 -64 0 -10 -66 -41 -87 -41 -8 0 -33 16 -54 35 -22 19 -48 35 -58 35
-28 0 -111 -98 -111 -130 0 -58 132 -140 226 -140 62 0 125 30 248 120 141
101 140 132 -18 324 l-55 68 30 51 c16 29 43 78 61 109 17 32 34 56 38 53 4
-2 13 -32 20 -65 l13 -60 -42 -45 c-44 -48 -47 -56 -31 -85 16 -29 100 -90
124 -90 25 0 86 60 109 105 26 52 29 107 12 206 -24 138 -86 264 -146 295 -56
28 -101 18 -174 -41 -61 -48 -67 -51 -54 -22 6 13 27 32 46 41 41 19 63 65 63
131 0 49 -17 89 -60 145 -15 19 -35 60 -43 91 -9 30 -25 63 -36 73 -10 9 -22
33 -26 52 -18 101 -76 186 -149 220 -53 25 -89 27 -201 14z m115 -84 c22 -14
62 -55 88 -89 26 -34 71 -85 100 -112 41 -39 55 -61 63 -95 6 -25 31 -75 57
-113 48 -71 55 -103 33 -159 -14 -36 -54 -46 -92 -24 -37 22 -69 13 -69 -18 0
-13 7 -30 16 -37 14 -11 18 -10 30 5 12 17 14 18 20 2 14 -36 -34 -58 -78 -35
-28 15 -60 93 -56 136 4 41 -25 70 -42 43 -24 -37 21 -169 73 -218 14 -13 28
-40 31 -60 4 -21 20 -64 36 -97 21 -42 32 -82 36 -133 l7 -73 90 -112 c49 -62
96 -127 105 -145 15 -31 15 -33 -13 -62 -15 -16 -70 -57 -121 -91 -102 -67
-153 -81 -217 -60 -38 13 -117 66 -117 79 0 4 14 25 31 45 l32 39 41 -41 c23
-23 48 -41 56 -41 23 0 123 49 148 72 33 31 28 45 -30 82 -86 54 -216 126
-230 126 -6 0 -26 -13 -43 -28 -16 -16 -73 -47 -125 -69 -52 -22 -124 -59
-159 -82 -35 -22 -69 -41 -75 -41 -6 0 -39 -4 -74 -9 -100 -15 -124 -36 -188
-166 -79 -158 -116 -204 -183 -227 -112 -37 -150 -94 -116 -174 19 -46 77
-108 116 -124 16 -7 32 -24 38 -41 l10 -29 -83 0 -84 0 -11 46 c-15 60 -45
118 -85 169 -114 142 -114 175 3 255 37 26 61 73 61 122 0 18 -12 68 -25 112
-14 43 -28 105 -32 138 l-6 59 -21 -20 c-26 -25 -96 -55 -96 -42 0 6 5 13 10
16 19 12 11 26 -9 15 -28 -14 -94 -12 -116 4 -17 12 -16 14 17 20 19 3 42 12
52 19 15 11 10 13 -37 13 -51 -1 -59 2 -92 34 -20 19 -43 47 -51 62 -17 33
-18 91 -3 121 11 19 13 17 30 -29 25 -67 57 -95 112 -101 56 -7 129 25 202 86
66 55 167 95 354 142 85 22 155 39 157 39 12 0 156 190 181 238 49 98 94 153
118 146 78 -24 133 -27 185 -10 67 22 102 48 130 98 48 86 2 185 -93 195 -40
5 -49 2 -72 -21 -32 -32 -29 -46 13 -66 40 -19 40 -35 0 -49 -23 -8 -41 -8
-64 -1 l-32 11 16 29 c16 27 16 30 -5 52 -21 22 -27 39 -24 66 1 9 6 10 20 2
25 -13 111 -13 111 0 0 11 -72 50 -94 50 -28 0 -64 -22 -75 -47 -16 -34 -14
-109 4 -143 20 -39 48 -53 112 -54 42 0 57 4 78 24 26 25 33 64 13 76 -6 4
-25 10 -42 14 l-31 7 27 13 c22 10 33 10 58 0 65 -27 80 -95 33 -151 -35 -41
-79 -59 -145 -59 -96 0 -227 84 -257 163 -31 82 3 204 77 268 93 82 200 99
282 45z m517 -683 c41 -44 81 -143 98 -246 20 -112 12 -154 -38 -212 l-34 -39
-36 30 c-20 16 -37 33 -37 38 0 5 16 27 36 49 34 37 36 43 31 88 -9 74 -48
163 -73 167 -23 3 -40 -19 -114 -151 l-45 -78 -13 72 c-7 39 -22 90 -34 112
l-21 41 34 29 c19 16 63 51 99 78 76 57 109 62 147 22z m-900 -834 c-3 -33
-12 -68 -20 -77 -29 -33 -68 -124 -74 -172 -11 -91 55 -228 128 -269 33 -19
71 -80 51 -82 -23 -2 -140 3 -154 7 -10 3 -18 15 -18 28 0 46 -32 114 -91 191
-78 103 -93 135 -80 180 5 19 18 47 29 62 10 15 29 54 42 86 32 78 47 87 184
106 5 0 6 -26 3 -60z"/>
<path d="M2532 4789 c-13 -5 -35 -18 -49 -29 -16 -13 -41 -20 -67 -20 -23 0
-68 -7 -101 -15 -61 -16 -69 -14 -89 27 -24 49 -88 25 -117 -43 -9 -22 -16
-28 -30 -24 -38 12 -78 -52 -70 -113 1 -9 -6 -11 -22 -7 -40 11 -69 -22 -70
-81 l-1 -50 -32 4 c-50 6 -66 -40 -39 -110 5 -13 0 -17 -27 -20 -29 -3 -34 -8
-42 -40 -7 -28 -5 -47 6 -77 l16 -39 -39 -6 c-47 -8 -67 -4 -185 37 l-92 31
-4 86 c-7 133 -59 208 -173 247 -71 25 -278 25 -355 0 -239 -79 -337 -348
-233 -641 14 -39 50 -118 81 -175 65 -123 74 -179 33 -212 -29 -24 -53 -24
-82 0 -27 22 -30 71 -6 117 17 34 8 69 -22 79 -45 14 -139 -55 -167 -122 -18
-42 -18 -115 0 -157 38 -91 140 -159 241 -158 81 0 136 24 188 82 84 94 97
213 41 390 -37 119 -32 212 17 307 21 42 47 76 68 90 41 28 43 28 72 4 l23
-18 -32 -51 c-53 -82 -76 -156 -77 -247 0 -74 3 -87 43 -168 26 -55 42 -103
42 -125 0 -21 -13 -101 -30 -179 l-29 -142 21 -103 c15 -72 22 -146 23 -247 2
-169 3 -171 101 -171 85 0 109 11 124 56 20 58 7 223 -24 317 -26 76 -32 130
-20 174 6 21 165 163 183 163 12 0 21 -54 21 -129 0 -43 10 -102 29 -168 39
-137 64 -287 56 -339 -9 -64 7 -74 115 -74 110 0 116 7 106 114 -8 88 -19 131
-56 222 -54 131 -50 172 25 270 44 56 100 172 110 225 11 58 18 63 54 45 101
-53 136 -138 125 -306 l-7 -109 33 -38 c18 -20 45 -62 59 -93 24 -50 26 -66
26 -184 0 -150 -4 -144 106 -145 52 -1 72 3 90 18 35 28 31 118 -11 236 -50
142 -53 155 -48 243 4 76 9 91 62 197 31 63 63 115 70 115 24 0 96 -29 127
-50 18 -14 29 -30 29 -45 0 -36 -28 -103 -69 -163 -61 -90 -81 -126 -81 -150
0 -25 56 -143 74 -154 40 -27 70 4 136 137 76 154 113 285 126 443 8 93 15 82
-132 199 -74 58 -83 69 -92 111 -6 26 -20 80 -31 121 -25 89 -27 165 -6 246 9
33 17 61 19 63 8 7 103 -48 150 -87 39 -34 56 -41 90 -41 74 0 136 58 136 127
0 47 -44 126 -100 177 -29 28 -68 76 -87 109 l-33 59 26 44 26 43 -26 26 c-16
16 -36 25 -55 25 -19 0 -40 9 -55 25 -19 19 -35 25 -68 24 -24 0 -54 -4 -66
-10z m69 -83 l-31 -44 63 -35 c72 -41 86 -55 117 -117 12 -25 46 -66 75 -93
92 -82 118 -173 60 -211 -39 -26 -68 -19 -130 30 -32 25 -91 61 -130 79 -133
64 -195 128 -195 202 0 22 -2 25 -10 13 -16 -26 -11 -82 11 -114 16 -24 77
-77 117 -102 2 -2 -4 -29 -14 -61 -12 -39 -18 -92 -18 -163 -1 -88 3 -118 27
-188 31 -94 34 -159 11 -204 -9 -18 -39 -62 -68 -99 -63 -84 -150 -255 -166
-330 -19 -87 -8 -200 28 -290 34 -84 54 -175 45 -208 -5 -18 -13 -21 -62 -21
l-56 0 0 118 c0 107 -2 122 -28 177 -15 33 -42 77 -59 99 -30 38 -31 39 -24
123 15 204 -54 329 -208 375 -98 30 -320 -73 -535 -249 -119 -96 -126 -108
-126 -201 1 -55 9 -100 28 -160 20 -62 27 -103 27 -163 0 -109 -6 -119 -78
-119 l-57 0 -1 138 c-1 96 -8 168 -22 241 -12 57 -20 107 -18 110 3 3 16 67
31 141 34 166 31 209 -22 309 -34 67 -38 81 -38 150 0 67 5 85 37 151 21 41
47 91 59 111 22 35 22 36 3 62 -10 14 -34 34 -53 43 -31 15 -36 15 -77 -1 -92
-35 -154 -148 -162 -295 -4 -74 -1 -97 23 -170 36 -108 40 -235 11 -290 -44
-82 -104 -120 -194 -120 -100 0 -189 74 -200 166 -6 55 11 95 55 134 45 40 53
38 37 -11 -46 -131 98 -226 192 -128 25 26 29 37 28 87 -1 49 -10 75 -67 187
-88 176 -109 246 -109 365 0 107 22 187 69 249 40 52 61 69 133 104 63 31 69
32 195 32 138 0 172 -8 234 -53 55 -41 75 -100 68 -203 l-6 -87 37 -7 c20 -4
63 -18 96 -31 115 -46 214 -51 310 -14 l29 11 -31 30 c-27 26 -51 83 -40 94 2
3 20 -1 40 -7 36 -11 108 -4 108 11 0 4 -11 13 -24 19 -22 10 -74 97 -64 108
3 2 21 -3 41 -11 76 -32 124 -11 77 34 -31 28 -44 68 -31 90 7 11 13 11 32 -3
25 -17 76 -21 97 -7 11 6 8 14 -12 34 -18 18 -26 37 -26 61 0 45 12 51 40 21
18 -19 34 -25 67 -25 24 0 43 5 43 10 0 6 -5 10 -12 10 -39 0 -62 67 -35 104
12 17 15 16 44 -13 36 -36 39 -36 113 -16 30 8 76 15 102 15 35 0 59 8 95 30
28 18 60 30 80 30 l34 0 -30 -44z m188 -1142 c1 -53 -28 -205 -55 -289 -33
-101 -118 -275 -134 -275 -8 0 -50 87 -50 103 0 7 25 48 55 91 61 88 95 168
95 223 0 46 -45 91 -123 122 l-55 23 39 51 c21 29 39 55 39 59 0 4 4 19 10 33
l10 26 84 -68 c73 -58 85 -72 85 -99z m-895 -1 c-14 -61 -66 -171 -104 -220
-88 -116 -92 -164 -31 -342 22 -64 43 -146 46 -183 l7 -68 -64 0 -65 0 5 30
c6 40 -24 212 -54 313 -14 47 -29 131 -34 197 -6 63 -13 126 -16 140 -5 23 2
30 79 73 88 50 176 85 215 86 19 1 22 -3 16 -26z"/>
<path d="M6851 2332 c-48 -51 -111 -179 -111 -226 0 -33 -4 -39 -37 -52 -90
-37 -225 -105 -268 -134 -25 -17 -79 -71 -120 -118 -75 -89 -108 -113 -300
-225 -120 -70 -256 -204 -308 -304 -92 -176 -101 -376 -33 -663 23 -95 21
-110 -10 -110 -71 0 -118 -72 -94 -144 35 -108 162 -140 245 -62 l35 33 51
-24 c74 -36 128 -40 491 -42 387 -2 368 -8 368 106 0 43 -5 72 -14 82 -12 14
-8 21 35 59 l48 43 11 -43 c16 -60 49 -134 83 -191 l29 -48 112 0 c61 1 138 1
171 2 44 0 63 4 73 16 18 25 16 35 -31 104 -73 110 -127 318 -127 495 0 67 2
73 46 135 25 35 56 85 69 110 29 56 54 172 56 262 2 67 3 69 42 100 53 43 82
96 108 199 21 88 32 107 137 264 80 121 81 139 2 233 -53 64 -93 91 -134 91
-40 0 -56 -10 -75 -49 -29 -56 -49 -68 -121 -74 -36 -3 -77 -9 -92 -13 -28 -6
-28 -6 -28 42 0 27 -4 64 -10 83 -27 94 -114 109 -144 26 -7 -18 -9 -17 -20
10 -32 76 -80 85 -135 27z m77 -25 c13 -15 39 -115 47 -179 l6 -48 83 0 c45 0
108 7 139 15 32 8 78 15 103 15 62 0 96 21 125 74 27 52 50 58 92 26 32 -25
97 -113 97 -131 0 -8 -24 -49 -53 -93 -102 -153 -118 -182 -133 -236 -45 -163
-55 -182 -124 -232 l-40 -30 0 -81 c0 -105 -28 -222 -70 -290 -18 -30 -75
-108 -128 -173 l-95 -119 6 -95 c8 -123 35 -227 86 -329 33 -65 38 -81 25 -81
-9 0 -23 8 -30 17 -13 17 -13 17 -14 1 0 -14 -9 -18 -39 -18 l-38 0 -38 83
c-21 45 -47 121 -59 169 l-20 86 -81 -82 c-98 -100 -146 -126 -238 -126 -36 0
-77 5 -91 11 -45 21 -55 82 -31 199 3 14 -6 3 -20 -25 -52 -105 -40 -185 31
-221 43 -21 163 -26 242 -11 35 7 42 6 42 -7 0 -9 -10 -20 -22 -25 l-23 -8 23
-7 c14 -5 22 -14 20 -24 -3 -14 -39 -16 -354 -15 -258 0 -361 4 -390 13 -42
14 -108 53 -119 70 -11 18 -21 11 -34 -26 -14 -39 -61 -74 -99 -74 -66 0 -120
77 -88 125 10 16 26 25 41 25 25 0 25 -1 10 -24 -13 -19 -14 -29 -5 -45 14
-27 35 -27 54 1 25 35 20 151 -11 286 -24 100 -28 138 -28 267 0 132 3 158 24
218 56 163 187 300 402 422 100 57 137 84 194 144 153 163 160 168 277 224 62
29 129 59 148 67 46 17 60 36 60 79 0 56 91 231 119 231 5 0 13 -6 19 -13z
m211 -1718 c20 -78 63 -180 102 -237 l22 -33 -44 3 c-41 3 -46 6 -75 55 -44
75 -92 225 -106 335 l-12 95 35 42 34 43 12 -114 c7 -62 21 -147 32 -189z"/>
<path d="M6900 1795 c0 -81 47 -158 124 -198 31 -16 59 -21 116 -21 41 0 83 5
94 10 15 9 7 12 -44 18 -134 15 -215 67 -264 168 -23 49 -25 51 -26 23z"/>
<path d="M2093 2344 c-11 -8 -32 -11 -54 -7 -29 4 -41 1 -58 -16 -26 -26 -26
-41 -1 -73 l19 -25 -29 -28 c-17 -16 -39 -54 -51 -84 -27 -71 -21 -183 16
-319 14 -51 25 -100 25 -108 0 -30 -74 -95 -153 -134 -44 -22 -82 -38 -84 -36
-2 2 7 26 20 53 81 162 103 355 53 474 -41 98 -169 220 -273 259 -29 11 -81
24 -115 30 -175 27 -376 -72 -460 -227 -15 -26 -43 -104 -63 -172 -45 -155
-73 -210 -130 -257 -51 -43 -58 -74 -23 -98 29 -21 131 -21 187 -1 42 14 42
14 36 -8 -57 -205 -136 -363 -263 -530 -34 -45 -43 -64 -38 -82 8 -32 36 -38
144 -33 72 3 99 10 156 36 37 18 66 26 63 19 -3 -6 -13 -32 -23 -57 -30 -75
-109 -201 -178 -284 -65 -77 -78 -110 -54 -134 25 -25 134 -5 230 44 l47 24
-21 -50 c-20 -49 -20 -51 -3 -70 10 -11 27 -20 37 -20 70 0 337 270 410 414
11 22 22 43 24 45 2 2 24 -15 49 -38 24 -22 48 -41 53 -41 5 0 7 -37 4 -82 -5
-99 -44 -224 -73 -233 -23 -8 -69 -62 -69 -82 0 -8 -9 -26 -20 -40 -22 -29
-27 -82 -8 -101 8 -8 66 -12 194 -12 170 0 184 1 196 19 14 20 14 20 26 0 11
-18 25 -19 181 -19 179 0 201 5 201 48 0 39 -78 102 -126 102 -14 0 -16 7 -11
44 10 73 36 125 71 143 61 32 134 92 192 161 43 51 75 77 117 97 137 66 224
141 292 249 69 112 89 181 89 311 1 106 0 113 -33 180 -42 85 -137 183 -233
238 -63 37 -66 41 -70 80 -3 28 0 45 9 50 16 10 17 74 3 114 -6 15 -29 46 -51
68 -22 22 -59 69 -82 104 -54 84 -92 104 -198 107 -53 1 -84 -3 -96 -12z m110
-58 l47 -23 -7 25 -6 25 43 -24 c37 -21 71 -63 97 -119 3 -8 26 -33 49 -55 57
-54 75 -122 26 -96 -12 6 -40 11 -64 10 -38 0 -41 -2 -23 -12 44 -27 95 -85
95 -110 0 -26 -20 -40 -45 -31 -8 3 -22 -1 -31 -11 -39 -39 -73 -2 -89 99 -8
49 -25 30 -25 -27 0 -90 84 -163 123 -107 13 19 16 19 64 5 111 -33 258 -156
308 -258 54 -112 43 -262 -31 -408 -87 -175 -286 -299 -599 -375 -55 -13 -113
-24 -129 -24 -18 0 -45 -14 -75 -38 -62 -53 -118 -87 -165 -103 -31 -11 -48
-27 -77 -72 -43 -66 -73 -146 -63 -170 3 -9 22 -19 42 -23 41 -7 87 -28 97
-44 4 -7 -47 -10 -149 -10 -89 0 -156 4 -156 9 0 18 31 41 54 41 24 0 48 22
60 54 6 17 3 18 -29 13 -45 -7 -45 7 1 25 31 13 39 23 61 84 15 42 28 106 33
164 5 52 11 104 15 115 5 17 -1 24 -34 38 -22 10 -63 43 -91 74 -28 30 -52 54
-54 52 -1 -2 -22 -40 -45 -84 -45 -85 -100 -162 -166 -234 -46 -51 -184 -171
-196 -171 -8 0 1 21 86 205 l37 80 -37 -43 c-73 -84 -216 -168 -320 -188 l-40
-7 46 50 c100 112 185 258 229 395 20 65 54 257 46 265 -2 2 -11 -18 -20 -45
-51 -152 -162 -232 -324 -232 l-64 0 16 23 c151 205 229 363 280 568 36 143
36 146 -19 104 -25 -19 -62 -39 -83 -45 -39 -10 -132 -14 -132 -5 0 3 16 20
36 37 47 41 85 119 123 252 42 144 74 206 136 265 132 125 303 149 470 67 80
-40 160 -114 199 -185 71 -130 41 -335 -79 -546 -25 -43 -43 -80 -41 -82 2 -2
36 8 77 23 173 62 302 151 314 218 4 19 -6 79 -24 156 -49 197 -40 272 40 351
l46 45 -23 30 c-13 16 -24 32 -24 36 0 9 90 -2 113 -14 20 -10 21 -5 7 23 -15
26 5 25 63 -5z m81 -1527 c-29 -33 -127 -106 -167 -125 -29 -14 -40 -28 -59
-78 -14 -38 -23 -83 -23 -120 l0 -59 54 -17 c29 -10 60 -25 69 -34 15 -15 4
-16 -131 -16 -84 0 -147 4 -147 9 0 18 31 41 55 41 17 0 29 9 40 30 21 40 19
43 -15 37 -42 -9 -38 10 6 28 l37 15 -7 78 c-3 42 -9 96 -12 119 -4 31 -2 44
7 47 8 2 52 11 99 20 47 9 112 25 145 35 33 10 62 16 64 15 2 -2 -4 -13 -15
-25z m-335 -214 c1 -35 -4 -43 -34 -62 -20 -14 -37 -34 -41 -50 -3 -16 -15
-46 -27 -69 l-20 -41 -29 32 c-17 20 -46 38 -74 46 -41 12 -44 16 -39 39 4 14
22 50 41 81 26 44 41 58 71 67 21 7 58 25 83 41 l45 28 12 -36 c6 -20 12 -54
12 -76z"/>
<path d="M2391 1499 c-1 -4 5 -24 13 -45 38 -109 27 -197 -30 -250 -40 -39
-168 -90 -272 -110 -149 -28 -333 -12 -467 41 -32 14 -61 23 -63 21 -8 -8 166
-87 228 -103 97 -26 272 -24 375 6 97 27 207 84 240 123 54 64 56 158 6 263
-16 33 -30 57 -30 54z"/>
<path d="M4843 2282 c-70 -69 -145 -181 -244 -361 -127 -230 -222 -306 -399
-318 -75 -5 -118 4 -320 63 -35 10 -99 16 -174 17 l-119 2 -14 40 c-9 26 -13
64 -10 107 7 111 68 190 174 225 86 28 98 36 98 68 0 25 -7 33 -40 50 -32 16
-60 20 -145 20 -94 0 -111 -3 -163 -27 -32 -15 -76 -41 -97 -58 -109 -87 -169
-280 -136 -439 16 -77 70 -187 114 -233 l26 -28 -12 -202 c-6 -112 -19 -284
-29 -383 -25 -253 -23 -394 6 -467 31 -81 45 -88 167 -88 127 0 150 13 140 77
-8 46 -39 80 -82 92 -60 16 -41 97 64 276 54 92 61 85 43 -48 -22 -158 -6
-276 49 -365 l20 -32 108 0 c135 0 157 11 149 74 -7 48 -53 96 -92 96 -22 0
-25 4 -25 38 0 20 11 62 23 92 30 72 153 276 193 320 l33 35 84 -29 85 -29 6
-81 c17 -196 48 -359 86 -439 30 -64 59 -77 178 -77 116 0 132 9 132 69 0 47
-30 88 -73 99 -46 12 -60 60 -54 182 7 122 23 190 47 190 15 0 19 -13 25 -77
11 -124 42 -295 65 -356 12 -32 34 -67 51 -82 28 -23 38 -25 133 -25 122 0
146 11 146 68 0 55 -30 97 -81 114 -38 13 -44 19 -52 54 -25 114 33 398 127
621 26 62 27 66 24 270 -2 145 1 228 10 275 l14 66 51 7 c145 20 227 87 227
185 0 62 -27 83 -135 105 -90 18 -91 18 -123 65 -29 42 -31 50 -21 79 14 39 6
97 -17 122 -18 21 -64 25 -80 9 -7 -7 -16 -4 -29 10 -33 36 -69 26 -132 -38z
m103 -17 c3 -13 1 -39 -5 -56 -15 -42 -14 -49 4 -49 46 0 144 -79 159 -128 5
-15 30 -24 114 -43 l107 -25 3 -37 c3 -32 -2 -43 -30 -71 -39 -39 -89 -55
-203 -65 -98 -9 -139 1 -182 44 -32 32 -33 32 -33 9 0 -37 60 -90 119 -104 28
-7 51 -13 51 -15 0 -1 -5 -27 -12 -56 -7 -31 -12 -146 -12 -274 l-1 -221 -33
-65 c-43 -84 -137 -180 -215 -219 -49 -24 -73 -30 -128 -30 l-67 0 -17 -72
c-26 -110 -30 -271 -8 -333 15 -42 23 -51 53 -60 50 -14 60 -23 60 -51 0 -24
-2 -24 -83 -24 -57 0 -89 5 -104 15 -45 32 -82 184 -106 439 l-12 128 -125 44
c-170 60 -234 76 -306 76 -122 1 -199 -64 -323 -270 -82 -138 -111 -210 -111
-279 0 -61 6 -70 53 -78 36 -7 67 -36 67 -63 0 -10 -22 -12 -97 -10 l-97 3
-23 65 c-28 77 -27 140 6 495 11 121 23 293 27 382 l7 161 -37 44 c-181 210
-133 540 94 647 47 22 68 26 150 26 56 0 103 -5 115 -12 17 -11 18 -12 3 -13
-38 0 -130 -51 -172 -95 -84 -86 -109 -221 -63 -335 l22 -55 135 -2 c119 -1
147 -5 230 -31 52 -17 119 -35 148 -41 115 -24 237 -7 334 46 65 35 155 133
197 213 105 200 243 408 298 449 36 26 41 26 49 -4z m-903 -1307 c50 -11 56
-18 32 -38 -23 -19 -150 -226 -186 -305 -36 -76 -50 -174 -30 -199 7 -8 27
-17 46 -20 19 -4 41 -17 50 -29 30 -42 21 -47 -79 -47 l-95 0 -22 58 c-27 69
-30 171 -11 372 14 146 22 163 87 198 60 31 103 33 208 10z m872 -80 c-26 -88
-48 -260 -42 -337 7 -87 26 -121 78 -134 39 -10 59 -31 59 -64 0 -23 -1 -24
-96 -21 -91 3 -98 4 -117 29 -24 33 -52 149 -72 299 -21 163 -24 153 41 179
30 13 78 41 107 62 28 21 52 37 54 36 1 -2 -4 -24 -12 -49z"/>
</g>
</svg>
