<?xml version="1.0" encoding="UTF-8" standalone="no"?>
<!-- Created with Inkscape (http://www.inkscape.org/) -->

<svg
   xmlns:dc="http://purl.org/dc/elements/1.1/"
   xmlns:cc="http://creativecommons.org/ns#"
   xmlns:rdf="http://www.w3.org/1999/02/22-rdf-syntax-ns#"
   xmlns:svg="http://www.w3.org/2000/svg"
   xmlns="http://www.w3.org/2000/svg"
   xmlns:sodipodi="http://sodipodi.sourceforge.net/DTD/sodipodi-0.dtd"
   xmlns:inkscape="http://www.inkscape.org/namespaces/inkscape"
   width="75.319633mm"
   height="73.048767mm"
   viewBox="0 0 75.319633 73.048767"
   version="1.1"
   id="svg6540"
   inkscape:version="0.92.4 (5da689c313, 2019-01-14)"
   sodipodi:docname="dog.svg">
  <defs
     id="defs6534" />
  <sodipodi:namedview
     id="base"
     pagecolor="#ffffff"
     bordercolor="#666666"
     borderopacity="1.0"
     inkscape:pageopacity="0.0"
     inkscape:pageshadow="2"
     inkscape:zoom="0.35"
     inkscape:cx="-383.37796"
     inkscape:cy="-206.2408"
     inkscape:document-units="mm"
     inkscape:current-layer="layer1"
     showgrid="false"
     fit-margin-top="0"
     fit-margin-left="0"
     fit-margin-right="0"
     fit-margin-bottom="0"
     inkscape:window-width="1920"
     inkscape:window-height="1017"
     inkscape:window-x="1912"
     inkscape:window-y="-8"
     inkscape:window-maximized="1" />
  <metadata
     id="metadata6537">
    <rdf:RDF>
      <cc:Work
         rdf:about="">
        <dc:format>image/svg+xml</dc:format>
        <dc:type
           rdf:resource="http://purl.org/dc/dcmitype/StillImage" />
        <dc:title></dc:title>
      </cc:Work>
    </rdf:RDF>
  </metadata>
  <g
     inkscape:label="Layer 1"
     inkscape:groupmode="layer"
     id="layer1"
     transform="translate(-90.852085,-27.642279)">
    <path
       style="fill:#000000;stroke:none;stroke-width:0.03527778"
       inkscape:connector-curvature="0"
       id="path30"
       d="m 147.22756,29.712168 c -2.46945,2.434167 -5.11528,6.385278 -8.60778,12.735278 -4.48028,8.113889 -7.83167,10.795001 -14.07583,11.218334 -2.64584,0.176389 -4.16278,-0.141111 -11.28889,-2.2225 -1.23472,-0.352778 -3.4925,-0.564445 -6.13834,-0.599722 l -4.19805,-0.07056 -0.49389,-1.411111 c -0.3175,-0.917222 -0.45861,-2.257778 -0.35278,-3.774722 0.24695,-3.915834 2.39889,-6.702779 6.13834,-7.937501 3.03388,-0.987778 3.45722,-1.27 3.45722,-2.398889 0,-0.881944 -0.24695,-1.164166 -1.41111,-1.763888 -1.12889,-0.564445 -2.11667,-0.705556 -5.11528,-0.705556 -3.31611,0 -3.91583,0.105833 -5.750279,0.9525 -1.128889,0.529171 -2.681111,1.446393 -3.421944,2.046115 -3.845278,3.069166 -5.961944,9.877779 -4.797778,15.486945 0.564445,2.716389 2.469444,6.596944 4.021667,8.219721 l 0.917222,0.987779 -0.423333,7.126111 c -0.211667,3.95111 -0.670278,10.018889 -1.023056,13.511389 -0.881944,8.925277 -0.811389,13.899444 0.211667,16.474721 1.093611,2.857498 1.5875,3.104438 5.891384,3.104438 4.48028,0 5.29167,-0.45861 4.93889,-2.716382 -0.28222,-1.622779 -1.37583,-2.822223 -2.89277,-3.245556 -2.11667,-0.564444 -1.44639,-3.421944 2.25777,-9.736667 1.905,-3.245554 2.15195,-2.99861 1.51695,1.693334 -0.77611,5.573889 -0.21167,9.736666 1.72861,12.876389 l 0.70555,1.128882 h 3.81 c 4.7625,0 5.53861,-0.38805 5.25639,-2.610548 -0.24694,-1.693334 -1.86972,-3.386667 -3.24555,-3.386667 -0.77611,0 -0.88195,-0.141113 -0.88195,-1.340556 0,-0.705557 0.38806,-2.187224 0.81139,-3.245557 1.05834,-2.54 5.3975,-9.736664 6.80861,-11.288887 l 1.16417,-1.234723 2.96333,1.023056 2.99861,1.023057 0.21167,2.8575 c 0.59972,6.914443 1.69333,12.66472 3.03389,15.486943 1.05833,2.257772 2.08139,2.716382 6.27944,2.716382 4.09222,0 4.65667,-0.3175 4.65667,-2.434161 0,-1.658054 -1.05833,-3.104444 -2.57528,-3.4925 -1.62278,-0.423334 -2.11666,-2.116667 -1.905,-6.420554 0.24695,-4.30389 0.81139,-6.702777 1.65806,-6.702777 0.52916,0 0.67027,0.45861 0.88194,2.716387 0.38806,4.374444 1.48167,10.406944 2.29306,12.55889 0.42333,1.128887 1.19944,2.36361 1.79916,2.892777 0.98778,0.811388 1.34056,0.881938 4.69195,0.881938 4.30389,0 5.15055,-0.38805 5.15055,-2.398882 0,-1.940279 -1.05833,-3.421946 -2.8575,-4.021666 -1.34055,-0.458613 -1.55222,-0.67028 -1.83444,-1.905 -0.88195,-4.021667 1.16417,-14.040557 4.48028,-21.9075 0.91722,-2.187223 0.9525,-2.328334 0.84666,-9.525 -0.0706,-5.115277 0.0353,-8.043333 0.35278,-9.701389 l 0.49389,-2.328333 1.79917,-0.246944 c 5.11527,-0.705556 8.00805,-3.069167 8.00805,-6.52639 0,-2.187222 -0.9525,-2.928056 -4.7625,-3.704167 -3.175,-0.635 -3.21028,-0.635 -4.33916,-2.293055 -1.02306,-1.481667 -1.09362,-1.763889 -0.74084,-2.786945 0.49389,-1.375833 0.21167,-3.421944 -0.59972,-4.303888 -0.635,-0.740834 -2.25778,-0.881945 -2.82222,-0.3175 -0.24695,0.246944 -0.56445,0.141111 -1.02306,-0.352778 -1.16416,-1.27 -2.43416,-0.917222 -4.65666,1.340555 z m 3.63361,0.599723 c 0.10583,0.458611 0.0353,1.375833 -0.17639,1.975555 -0.52917,1.481667 -0.49389,1.728611 0.14111,1.728611 1.62278,0 5.08,2.786945 5.60917,4.515555 0.17638,0.529167 1.05833,0.846667 4.02166,1.516945 l 3.77472,0.881944 0.10584,1.305278 c 0.10583,1.128889 -0.0705,1.516945 -1.05834,2.504722 -1.37583,1.375835 -3.13972,1.940279 -7.16138,2.293057 -3.45723,0.3175 -4.90362,-0.03528 -6.42056,-1.552222 -1.12889,-1.12889 -1.16417,-1.12889 -1.16417,-0.3175 0,1.305277 2.11667,3.175 4.19806,3.668888 0.98778,0.246945 1.79917,0.458612 1.79917,0.529167 0,0.03528 -0.17639,0.9525 -0.42334,1.975556 -0.24694,1.093611 -0.42333,5.150555 -0.42333,9.666111 l -0.0353,7.796387 -1.16417,2.293057 c -1.51694,2.963333 -4.83305,6.35 -7.58472,7.725833 -1.72861,0.846667 -2.57528,1.058333 -4.51555,1.058333 h -2.36361 l -0.59973,2.54 c -0.91722,3.880554 -1.05833,9.560277 -0.28222,11.7475 0.52917,1.481667 0.81139,1.799167 1.86972,2.116667 1.76389,0.493887 2.11667,0.811387 2.11667,1.799167 0,0.846666 -0.0706,0.846666 -2.92805,0.846666 -2.01084,0 -3.13973,-0.176389 -3.66889,-0.529166 -1.5875,-1.12889 -2.89278,-6.491113 -3.73945,-15.486944 l -0.42333,-4.515556 -4.40972,-1.552223 c -5.99723,-2.116667 -8.255,-2.681111 -10.795,-2.681111 -4.30389,-0.03528 -7.02028,2.257777 -11.39473,9.525 -2.89277,4.868334 -3.915829,7.408334 -3.915829,9.8425 0,2.151944 0.211669,2.469444 1.869719,2.751667 1.27,0.246944 2.36361,1.27 2.36361,2.2225 0,0.352777 -0.77611,0.423333 -3.42194,0.352777 l -3.421943,-0.105833 -0.811389,-2.293057 c -0.987778,-2.716387 -0.9525,-4.938887 0.211666,-17.462497 0.388056,-4.268613 0.811389,-10.33639 0.9525,-13.476113 l 0.246945,-5.679721 -1.305278,-1.552223 c -6.385257,-7.408333 -4.691924,-19.05 3.316131,-22.824722 1.658058,-0.776111 2.398888,-0.917222 5.291668,-0.917222 1.97555,0 3.63361,0.176389 4.05694,0.423333 0.59973,0.388056 0.635,0.423334 0.10584,0.458611 -1.34056,0 -4.58611,1.799167 -6.06778,3.351389 -2.96333,3.033889 -3.845279,7.79639 -2.2225,11.818056 l 0.77611,1.940278 4.7625,0.07056 c 4.19806,0.03528 5.18583,0.176388 8.11389,1.093611 1.83444,0.599721 4.19805,1.234721 5.22111,1.446387 4.05694,0.846667 8.36083,0.246946 11.78278,-1.622776 2.29305,-1.234722 5.46805,-4.691945 6.94972,-7.514167 3.70416,-7.055556 8.5725,-14.393334 10.51278,-15.839723 1.27,-0.917222 1.44638,-0.917222 1.72861,0.141112 z m -31.85584,46.108054 c 1.76389,0.388057 1.97556,0.635 1.12889,1.340557 -0.81139,0.670277 -5.29166,7.972777 -6.56166,10.75972 -1.27,2.681113 -1.76389,6.138333 -1.05834,7.02028 0.24695,0.28222 0.9525,0.59972 1.62278,0.705553 0.67028,0.141113 1.44639,0.599724 1.76389,1.023057 1.05833,1.481667 0.74083,1.658056 -2.78694,1.658056 h -3.35139 l -0.77611,-2.046113 c -0.9525,-2.434166 -1.05834,-6.0325 -0.38806,-13.123333 0.49389,-5.150554 0.77611,-5.750277 3.06917,-6.984997 2.11666,-1.093613 3.63361,-1.164167 7.33777,-0.35278 z m 30.76223,2.822223 c -0.91723,3.104444 -1.69334,9.172221 -1.48167,11.888611 0.24694,3.069166 0.91722,4.26861 2.75167,4.727223 1.37583,0.352777 2.08138,1.09361 2.08138,2.257777 0,0.811389 -0.0353,0.846666 -3.38666,0.740833 -3.21028,-0.105833 -3.45722,-0.14111 -4.1275,-1.023057 -0.84667,-1.164166 -1.83445,-5.256387 -2.54,-10.548053 -0.74084,-5.750277 -0.84667,-5.3975 1.44639,-6.314723 1.05833,-0.458611 2.75166,-1.446388 3.77472,-2.187221 0.98778,-0.740833 1.83444,-1.305279 1.905,-1.27 0.0353,0.07055 -0.14111,0.846667 -0.42333,1.72861 z" />
  </g>
</svg>
