<?xml version="1.0" encoding="UTF-8" standalone="no"?>
<!-- Created with Inkscape (http://www.inkscape.org/) -->

<svg
   xmlns:dc="http://purl.org/dc/elements/1.1/"
   xmlns:cc="http://creativecommons.org/ns#"
   xmlns:rdf="http://www.w3.org/1999/02/22-rdf-syntax-ns#"
   xmlns:svg="http://www.w3.org/2000/svg"
   xmlns="http://www.w3.org/2000/svg"
   xmlns:sodipodi="http://sodipodi.sourceforge.net/DTD/sodipodi-0.dtd"
   xmlns:inkscape="http://www.inkscape.org/namespaces/inkscape"
   width="76.418518mm"
   height="84.247139mm"
   viewBox="0 0 76.418518 84.247139"
   version="1.1"
   id="svg3138"
   inkscape:version="0.92.4 (5da689c313, 2019-01-14)"
   sodipodi:docname="dragon.svg">
  <defs
     id="defs3132" />
  <sodipodi:namedview
     id="base"
     pagecolor="#ffffff"
     bordercolor="#666666"
     borderopacity="1.0"
     inkscape:pageopacity="0.0"
     inkscape:pageshadow="2"
     inkscape:zoom="0.35"
     inkscape:cx="-497.01562"
     inkscape:cy="207.77863"
     inkscape:document-units="mm"
     inkscape:current-layer="layer1"
     showgrid="false"
     fit-margin-top="0"
     fit-margin-left="0"
     fit-margin-right="0"
     fit-margin-bottom="0"
     inkscape:window-width="1920"
     inkscape:window-height="1017"
     inkscape:window-x="1912"
     inkscape:window-y="-8"
     inkscape:window-maximized="1" />
  <metadata
     id="metadata3135">
    <rdf:RDF>
      <cc:Work
         rdf:about="">
        <dc:format>image/svg+xml</dc:format>
        <dc:type
           rdf:resource="http://purl.org/dc/dcmitype/StillImage" />
        <dc:title></dc:title>
      </cc:Work>
    </rdf:RDF>
  </metadata>
  <g
     inkscape:label="Layer 1"
     inkscape:groupmode="layer"
     id="layer1"
     transform="translate(-114.49312,-119.56095)">
    <path
       style="fill:#000000;stroke:none;stroke-width:0.03527778"
       inkscape:connector-curvature="0"
       id="path10"
       d="m 172.91972,119.91114 c -0.38805,0.21166 -0.635,0.77611 -0.635,1.41111 0,2.01083 0.84667,3.03389 5.92667,7.26722 1.16417,0.98778 1.94028,1.97556 2.18722,2.82222 0.24695,0.74084 0.81139,2.08139 1.27,3.03389 0.74083,1.51695 0.77611,1.65806 0.14111,1.30528 -0.35278,-0.21167 -1.41111,-1.34055 -2.32833,-2.50472 -0.91722,-1.19945 -2.50472,-2.68111 -3.52778,-3.35139 -1.05833,-0.67028 -2.96333,-2.50472 -4.37444,-4.19806 -2.11667,-2.50472 -2.68112,-2.99861 -3.52778,-2.99861 -0.59972,0 -1.34056,0.28222 -1.65806,0.635 -0.59972,0.635 -0.70555,0.59972 -2.64583,-0.74083 -2.78695,-1.905 -4.86833,-1.905 -5.60917,0 -0.38805,1.05833 0,1.905 1.83445,3.81 l 1.34055,1.41111 -2.71639,-0.10583 c -2.99861,-0.10584 -4.40972,0.38805 -4.58611,1.51694 -0.0705,0.59972 -0.635,0.84667 -2.82222,1.34056 -1.48167,0.3175 -3.70417,1.05833 -4.90361,1.65805 -2.08139,0.9525 -2.39889,1.34056 -2.25778,2.68111 0.0353,0.21167 -0.74083,0.74084 -1.69333,1.19945 -2.36361,1.09361 -4.79778,3.56305 -4.51556,4.58611 0.14111,0.52917 -0.0706,1.05833 -0.67028,1.72861 -0.49388,0.49389 -1.37583,1.83445 -1.94027,2.99861 -1.19945,2.29306 -1.16417,3.66889 0.10583,4.02167 0.67028,0.17639 0.70556,0.35278 0.52917,2.18722 -0.28223,2.50472 0.35277,3.66889 1.86972,3.45722 0.91722,-0.14111 1.02305,-0.0353 1.19944,1.23473 0.35278,2.18722 1.16417,3.73944 2.11667,4.09222 0.59972,0.24694 1.02306,0.84666 1.44639,2.2225 1.5875,4.79778 3.03389,6.31472 4.90361,5.11528 0.81139,-0.52917 0.88194,-0.49389 2.99861,1.86972 1.16417,1.34055 2.46945,2.54 2.89278,2.64583 0.84667,0.28222 2.43417,-0.67028 2.43417,-1.41111 0,-0.28222 0.14111,-0.52917 0.35277,-0.52917 0.42334,0 2.99861,3.24556 3.77473,4.72723 1.09361,2.11666 2.57527,2.25777 3.70416,0.3175 l 0.77611,-1.30528 0.81139,1.76389 c 0.42334,0.9525 0.81139,2.32833 0.81139,3.03389 0,2.25777 1.55222,3.03389 3.31611,1.65805 1.05834,-0.84666 1.12889,-0.52916 0.35278,1.44639 -0.3175,0.77611 -0.49389,1.79917 -0.42333,2.25778 0.17639,0.81139 0.0706,0.84667 -1.905,0.98778 -2.39889,0.17639 -2.8575,0.59972 -2.64584,2.43416 l 0.17639,1.27 -1.48166,-0.3175 c -0.77612,-0.17638 -2.15195,-0.70555 -2.99862,-1.19944 -0.84666,-0.45861 -1.83444,-0.84667 -2.18722,-0.84667 -0.77611,0 -1.72861,1.30528 -1.72861,2.36361 v 0.81139 l -1.65805,-0.84666 c -0.9525,-0.45861 -2.15195,-1.34056 -2.71639,-1.94028 -1.34056,-1.41111 -2.50473,-1.41111 -3.35139,0 l -0.635,1.05833 -2.01084,-2.2225 c -1.27,-1.37583 -2.68111,-3.52778 -3.73944,-5.64444 -1.69333,-3.42195 -2.29306,-5.43278 -3.88056,-13.86417 -2.2225,-11.7475 -6.42055,-16.8275 -13.37027,-16.33361 -5.08001,0.38805 -8.07862,3.45722 -9.38389,9.73666 -0.35278,1.65806 -0.52917,4.86834 -0.52917,10.75973 0,4.62139 -0.17639,9.525 -0.38806,10.86555 -0.28222,1.83445 -0.28222,2.57528 0.0353,2.96334 0.28222,0.35278 0.28222,0.98778 -0.0353,2.57528 -0.49389,2.32833 -0.28222,3.21027 0.77611,3.4925 0.67028,0.17638 0.70556,0.38805 0.52917,1.65805 -0.14111,0.81139 -0.56444,2.61056 -0.98778,4.05695 -0.84666,2.89277 -0.67027,3.66888 0.91723,3.84527 0.635,0.0706 1.41111,-0.21166 2.25777,-0.88194 0.70556,-0.52917 1.79917,-1.02306 2.36362,-1.09361 1.55222,-0.10584 2.68111,-1.09361 3.77472,-3.175 1.905,-3.70417 1.62278,-9.63084 -0.84667,-19.12056 -2.2225,-8.53722 -2.75167,-10.97139 -2.75167,-13.12333 0,-1.65806 0.17639,-2.18723 0.9525,-3.13973 2.89278,-3.42194 6.63223,-2.01083 8.21973,3.10445 0.59972,1.94028 0.81139,3.88055 1.05833,9.98361 0.45861,10.97139 1.44639,15.27528 4.55083,19.64972 5.57389,7.97278 20.39056,13.08806 32.91417,11.39473 7.19667,-0.9525 12.41778,-3.31611 16.58056,-7.44361 4.48028,-4.40973 6.35,-9.59556 5.57389,-15.24001 -1.09361,-7.54944 -5.64445,-12.91166 -15.16945,-17.85055 -3.56305,-1.86972 -3.81,-2.04611 -3.28083,-2.57528 0.3175,-0.3175 0.70555,-1.34056 0.88194,-2.29306 0.17639,-0.91722 0.38806,-2.08138 0.49389,-2.57527 0.28222,-1.44639 -1.23472,-3.98639 -2.57528,-4.40973 -0.635,-0.17638 -1.16416,-0.52916 -1.16416,-0.74083 0,-1.44639 -4.90361,-3.13972 -6.52639,-2.25778 -1.05834,0.56445 -1.69334,2.36361 -1.41111,3.98639 0.28222,1.37584 -0.24695,1.94028 -2.01084,2.2225 -0.98777,0.17639 -1.34055,0 -2.36361,-0.98778 -1.48166,-1.44638 -2.46944,-3.56305 -2.50472,-5.32694 0,-1.05833 0.28222,-1.62278 1.41111,-2.8575 0.77611,-0.84667 2.2225,-1.86972 3.175,-2.29306 1.65806,-0.70555 1.83445,-0.70555 2.61056,-0.17638 0.56444,0.35277 0.91722,0.9525 0.98777,1.65805 0.10584,0.9525 0.38806,1.27 1.86973,2.01083 2.29305,1.16417 4.48027,2.57528 5.08,3.31612 0.635,0.77611 2.68111,1.79916 4.19805,2.15194 0.59972,0.10583 1.12889,0.45861 1.12889,0.70556 0,0.24694 0.59972,0.9525 1.34056,1.55222 0.70555,0.59972 1.69333,1.41111 2.15194,1.79916 0.45861,0.38806 1.19945,0.70556 1.65806,0.70556 0.45861,0 0.91722,0.14111 1.02305,0.35278 0.45861,0.74083 2.61056,0.38805 3.77473,-0.67028 1.05833,-0.9525 1.16416,-1.19944 1.16416,-3.175 0,-2.11667 0,-2.15194 0.98778,-2.15194 2.43417,0 4.19806,-3.95112 2.92806,-6.56167 -0.3175,-0.67028 -0.56445,-1.94028 -0.56445,-2.78695 0,-2.04611 -1.16417,-5.08 -2.75167,-7.16138 -0.70555,-0.91723 -1.905,-2.92806 -2.71638,-4.48028 -1.23473,-2.43417 -1.72862,-3.03389 -3.70417,-4.445 -2.08139,-1.51695 -4.51556,-3.70417 -5.85611,-5.36223 -0.56445,-0.67027 -1.09361,-0.74083 -1.97556,-0.21166 z m -7.58472,6.10305 4.05694,2.96334 -1.02305,-1.62278 c -2.08139,-3.28083 -0.84667,-3.98639 1.55222,-0.88194 1.83444,2.39888 4.445,4.86833 5.43278,5.18583 0.42333,0.14111 1.69333,1.41111 2.89278,2.8575 1.23472,1.51694 2.64583,2.8575 3.31611,3.10444 1.44639,0.635 2.15194,1.48167 1.905,2.36361 -0.24695,1.02306 2.32833,3.88056 2.96333,3.24556 0.84667,-0.81139 -0.10583,-4.72722 -1.79917,-7.26722 -0.77611,-1.23472 -1.83444,-3.31611 -2.32833,-4.58611 -0.74083,-1.905 -1.30528,-2.68111 -2.8575,-4.02167 -1.09361,-0.91722 -2.54,-2.18722 -3.24556,-2.82222 l -1.27,-1.19945 1.41112,1.02306 c 5.60916,4.09222 5.3975,3.88055 6.6675,6.52639 0.67027,1.41111 1.69333,3.21028 2.32833,3.98639 1.94028,2.39889 2.57528,4.02166 2.75167,6.87916 0.10583,1.62278 0.35277,2.89278 0.67027,3.24556 0.59973,0.67028 0.35278,3.175 -0.35277,3.73944 -0.56445,0.42334 -3.4925,0.81139 -3.24556,0.42334 0.3175,-0.52917 -1.16417,-1.09361 -2.11667,-0.84667 -0.74083,0.17639 -0.88194,0.10583 -0.88194,-0.52917 0,-0.38805 -0.35278,-0.88194 -0.77611,-1.12889 -0.45861,-0.21166 -1.5875,-1.02305 -2.50472,-1.79916 -1.5875,-1.34056 -1.72862,-1.37583 -2.36362,-0.81139 -0.59972,0.56444 -0.635,0.52917 -0.88194,-0.49389 -0.10583,-0.56444 -0.45861,-1.23472 -0.77611,-1.48167 -0.45861,-0.38805 -0.67028,-0.3175 -1.37583,0.49389 -1.09362,1.27 -1.12889,2.89278 -0.0353,3.56306 0.42333,0.3175 1.83444,0.84666 3.13972,1.27 2.25778,0.67028 4.16278,2.18722 4.16278,3.24555 0,0.21167 0.3175,0.10584 0.70555,-0.24694 0.70556,-0.635 0.70556,-0.59972 0.70556,0.28222 0,1.02306 1.12889,1.62278 1.905,0.98778 0.98778,-0.81139 1.27,1.76389 0.35278,3.06917 -0.67028,0.9525 -1.19945,1.02305 -0.9525,0.0705 0.17639,-0.74084 -0.38806,-0.98778 -0.77611,-0.35278 -0.10584,0.17639 -0.70556,0.35278 -1.34056,0.35278 -0.84667,0 -0.98778,-0.10584 -0.67028,-0.42334 0.70556,-0.70555 0.49389,-0.98777 -0.56444,-0.77611 -0.70556,0.14111 -1.23472,0 -1.83445,-0.56444 -0.52916,-0.42333 -0.635,-0.70556 -0.3175,-0.59972 0.3175,0.10583 0.77611,0.0353 1.05834,-0.14111 0.38805,-0.24695 0.38805,-0.3175 -0.10584,-0.3175 -0.3175,0 -0.98777,-0.38806 -1.51694,-0.84667 -0.49389,-0.45861 -1.55222,-0.91722 -2.32833,-1.05833 -0.81139,-0.14112 -1.94028,-0.49389 -2.57528,-0.81139 l -1.09361,-0.59973 1.05833,-0.21166 1.05833,-0.21167 -0.88194,-0.28222 c -1.94028,-0.56445 -4.23333,-1.76389 -3.84528,-2.01083 0.21167,-0.10584 -0.42333,-0.42334 -1.41111,-0.67028 -2.18722,-0.52917 -2.32833,-1.05834 -0.28222,-1.09361 l 1.48166,-0.0353 -1.65805,-0.56445 c -2.04611,-0.67028 -2.2225,-1.27 -0.28222,-1.02305 2.08139,0.24694 1.37583,-0.28223 -1.09361,-0.81139 -2.04612,-0.45861 -2.11667,-0.49389 -1.34056,-0.91722 0.77611,-0.42334 0.67028,-0.45862 -1.27,-0.49389 -1.51695,0 -2.64583,0.24694 -3.98639,0.88194 -5.50333,2.57528 -6.985,5.99722 -4.62139,10.72445 1.79917,3.59833 4.23333,4.90361 7.16139,3.77472 1.79917,-0.70556 2.54,-1.97556 2.18722,-3.84528 -0.38805,-1.97555 0,-2.43416 1.69334,-2.15194 0.77611,0.10583 1.72861,0.35278 2.08139,0.56444 0.88194,0.45861 0.74083,1.09361 -0.21167,0.88195 -1.09361,-0.28223 -1.72861,0.21166 -1.5875,1.19944 0.10583,0.91722 0.49389,0.98778 3.52778,0.49389 l 1.69333,-0.28222 0.52917,1.27 c 0.70555,1.72861 0.67027,1.79916 -0.49389,1.09361 -0.88195,-0.52917 -1.16417,-0.52917 -2.11667,-0.14111 -1.34055,0.52916 -1.19944,0.77611 0.77611,1.23472 1.37584,0.35278 1.48167,0.49389 1.5875,1.69333 0.0705,0.9525 -0.0353,1.30528 -0.42333,1.30528 -0.28222,0 -0.81139,0.10583 -1.16417,0.21167 -0.49389,0.21166 -0.56444,0.14111 -0.21166,-0.21167 0.74083,-0.81139 0.10583,-1.41111 -1.44639,-1.41111 -0.81139,0 -1.65806,-0.17639 -1.905,-0.42333 -0.3175,-0.3175 -0.59973,-0.24695 -1.19945,0.3175 -1.02305,0.91722 -3.21028,2.04611 -5.04472,2.54 -1.19945,0.3175 -1.62278,0.28222 -2.8575,-0.3175 -1.37583,-0.67028 -4.05695,-3.24556 -6.27945,-5.99723 -0.84666,-1.09361 -0.9525,-1.12888 -0.74083,-0.35277 0.635,2.43416 3.4925,5.53861 6.985,7.54944 1.905,1.12889 3.28083,1.05833 5.60917,-0.21167 l 1.30528,-0.74083 2.75166,0.9525 c 7.26723,2.57528 15.38112,7.40833 18.16806,10.83028 3.84528,4.7625 5.18583,10.68917 3.66889,15.91028 -1.76389,6.13833 -8.14917,11.39472 -16.26306,13.40555 -2.68111,0.67028 -4.09222,0.77611 -9.17222,0.74084 -5.25639,0 -6.42056,-0.14112 -9.41917,-0.91723 -5.85611,-1.55222 -11.92389,-4.79777 -15.13416,-8.11389 -1.86973,-1.94027 -4.05695,-6.45583 -4.72723,-9.8425 -0.28222,-1.48166 -0.67027,-6.24416 -0.88194,-10.58332 -0.35278,-8.32556 -0.74083,-10.44223 -2.32833,-13.26445 -1.16417,-1.97556 -3.24556,-3.35139 -5.18584,-3.38667 -2.04611,-0.0353 -4.62139,1.48167 -5.53861,3.31611 -1.23472,2.39889 -0.9525,5.00945 1.37583,14.21695 3.42195,13.37028 3.63362,19.22639 0.77612,22.08389 -1.09362,1.09361 -1.41112,0.91722 -1.05834,-0.59972 0.17639,-0.70556 0.28222,-2.11667 0.28222,-3.06917 v -1.76389 l -0.77611,2.32834 c -0.84666,2.50472 -2.43416,5.08 -3.45722,5.64444 -0.59972,0.3175 -0.59972,0.24694 -0.14111,-1.12889 0.49389,-1.34055 1.27,-5.22111 1.76389,-8.74889 l 0.21166,-1.55222 -1.09361,1.16417 c -0.59972,0.635 -1.16416,1.05833 -1.27,0.98777 -0.14111,-0.17638 0.14111,-1.72861 1.12889,-5.92666 l 0.17639,-0.84667 -0.77611,0.67028 c -0.45861,0.42333 -0.67028,0.49389 -0.45861,0.17639 0.17639,-0.28223 0.38805,-5.53861 0.52917,-11.64167 0.21166,-10.40695 0.28222,-11.25361 1.02305,-13.37028 1.41111,-3.98639 4.16278,-6.0325 8.11389,-6.0325 5.50333,0.0353 9.03111,5.43278 10.93611,16.68639 1.62278,9.525 3.59834,14.25222 8.07861,19.05 1.30528,1.41111 4.72723,3.77472 5.46806,3.77472 0.14111,0 0.0705,-0.3175 -0.14111,-0.67027 -0.38806,-0.74084 -0.49389,-2.50473 -0.14111,-2.50473 0.14111,0 0.77611,0.49389 1.48166,1.09362 1.27,1.12888 3.35139,2.15194 6.06778,2.99861 0.88195,0.28222 1.62278,0.49389 1.69334,0.49389 0.0353,0 -0.24695,-0.59973 -0.635,-1.30528 -0.38806,-0.74084 -0.70556,-1.69334 -0.70556,-2.15195 v -0.77611 l 1.72861,0.88195 c 2.46945,1.23472 4.40972,1.62277 6.52639,1.19944 0.9525,-0.17639 1.79917,-0.38805 1.86972,-0.45861 0.0705,-0.0706 -0.35278,-0.59972 -0.9525,-1.19944 -1.41111,-1.41112 -1.34055,-1.83445 0.28222,-1.83445 2.61056,0 4.97417,-0.98778 6.80862,-2.82222 0.9525,-0.9525 1.72861,-1.94028 1.72861,-2.18722 0,-0.35278 -0.0706,-0.35278 -0.28223,-0.0353 -0.35277,0.56444 -3.24555,1.86972 -4.16277,1.86972 -0.74084,0 -0.74084,-0.0353 -0.24695,-1.51694 0.56445,-1.62278 0.45861,-4.62139 -0.24694,-6.38528 l -0.38806,-1.05834 -0.81139,1.76389 c -0.45861,0.9525 -1.16416,2.04611 -1.5875,2.39889 l -0.74083,0.67028 -0.0353,-1.19944 c 0,-1.72862 -0.98778,-3.91584 -2.96333,-6.59695 l -1.76389,-2.36361 -0.21167,2.11667 c -0.38805,3.4925 -0.56444,3.59833 -2.11666,1.30527 -1.30528,-1.905 -4.7625,-5.78555 -6.03251,-6.73805 -0.52916,-0.38806 -0.56444,-0.24695 -0.38805,1.65805 0.28222,3.03389 -0.28222,3.175 -2.61056,0.56445 -1.02305,-1.12889 -2.2225,-2.75167 -2.64583,-3.56306 -0.45861,-0.84666 -0.88194,-1.51694 -0.98778,-1.51694 -0.10583,0 -0.45861,0.635 -0.77611,1.41111 -0.3175,0.77611 -0.74083,1.41111 -0.9525,1.41111 -0.81139,0 -2.57528,-4.93889 -3.03389,-8.64306 l -0.28222,-2.11666 -0.70556,1.55222 c -0.56444,1.34056 -0.74083,1.48167 -1.02305,0.9525 -0.21167,-0.35278 -0.42334,-1.55222 -0.52917,-2.64583 -0.14111,-1.5875 -0.0353,-2.39889 0.52917,-3.66889 0.42333,-0.91722 0.56444,-1.65806 0.38805,-1.65806 -0.17638,0 -1.12889,0.70556 -2.04611,1.5875 -0.91722,0.88195 -1.79916,1.5875 -1.905,1.5875 -0.24694,0 0,-1.76389 0.49389,-3.42194 0.21167,-0.59973 0.81139,-1.76389 1.41111,-2.54 0.56445,-0.81139 0.91722,-1.44639 0.77611,-1.44639 -0.17639,0 -1.12889,0.45861 -2.11666,1.02305 -2.15195,1.19945 -2.32834,0.88195 -0.84667,-1.41111 1.23472,-1.905 2.92806,-3.52777 4.79778,-4.55083 l 1.41111,-0.77611 -1.86972,0.17639 -1.86973,0.14111 0.74084,-0.77611 c 2.01083,-2.15195 6.49111,-3.56306 10.08944,-3.24556 1.23473,0.14111 2.25778,0.14111 2.25778,0.0706 0,-0.21166 -2.54,-0.91722 -5.11528,-1.41111 l -2.11666,-0.42333 1.76389,-0.77611 c 3.06916,-1.37584 5.60916,-1.86973 9.17222,-1.72861 1.83444,0.0706 3.35139,0 3.35139,-0.14112 0,-0.10583 -0.91722,-0.67027 -2.01084,-1.23472 l -2.04611,-0.98778 2.25778,-0.10583 c 2.78695,-0.14111 6.06778,0.81139 8.99583,2.57528 2.39889,1.44639 2.46945,1.44639 1.97556,0.52917 -0.3175,-0.56445 -0.28222,-0.70556 0.17639,-0.70556 0.74083,0 2.64583,0.98778 3.63361,1.86972 0.42333,0.38806 0.77611,0.59972 0.77611,0.45861 0,-0.84666 -0.98778,-1.76389 -2.92805,-2.71639 -4.79778,-2.39889 -10.83028,-6.84389 -10.83028,-7.9375 0,-1.05833 1.51694,-0.35277 5.3975,2.46945 z" />
  </g>
</svg>
