<?xml version="1.0" encoding="UTF-8" standalone="no"?>
<!-- Created with Inkscape (http://www.inkscape.org/) -->

<svg
   xmlns:dc="http://purl.org/dc/elements/1.1/"
   xmlns:cc="http://creativecommons.org/ns#"
   xmlns:rdf="http://www.w3.org/1999/02/22-rdf-syntax-ns#"
   xmlns:svg="http://www.w3.org/2000/svg"
   xmlns="http://www.w3.org/2000/svg"
   xmlns:sodipodi="http://sodipodi.sourceforge.net/DTD/sodipodi-0.dtd"
   xmlns:inkscape="http://www.inkscape.org/namespaces/inkscape"
   width="74.655151mm"
   height="81.77005mm"
   viewBox="0 0 74.655151 81.77005"
   version="1.1"
   id="svg4842"
   inkscape:version="0.92.4 (5da689c313, 2019-01-14)"
   sodipodi:docname="goat.svg">
  <defs
     id="defs4836" />
  <sodipodi:namedview
     id="base"
     pagecolor="#ffffff"
     bordercolor="#666666"
     borderopacity="1.0"
     inkscape:pageopacity="0.0"
     inkscape:pageshadow="2"
     inkscape:zoom="0.35"
     inkscape:cx="-2.0698146"
     inkscape:cy="188.8118"
     inkscape:document-units="mm"
     inkscape:current-layer="layer1"
     showgrid="false"
     fit-margin-top="0"
     fit-margin-left="0"
     fit-margin-right="0"
     fit-margin-bottom="0"
     inkscape:window-width="716"
     inkscape:window-height="405"
     inkscape:window-x="2050"
     inkscape:window-y="130"
     inkscape:window-maximized="0" />
  <metadata
     id="metadata4839">
    <rdf:RDF>
      <cc:Work
         rdf:about="">
        <dc:format>image/svg+xml</dc:format>
        <dc:type
           rdf:resource="http://purl.org/dc/dcmitype/StillImage" />
        <dc:title></dc:title>
      </cc:Work>
    </rdf:RDF>
  </metadata>
  <g
     inkscape:label="Layer 1"
     inkscape:groupmode="layer"
     id="layer1"
     transform="translate(16.916862,-117.01974)">
    <path
       style="fill:#000000;stroke:none;stroke-width:0.03527778"
       inkscape:connector-curvature="0"
       id="path18"
       d="m 29.847059,117.29812 c -4.26861,0.49389 -7.76111,2.92806 -9.701387,6.80861 -0.846666,1.72861 -1.058333,2.54 -1.058333,4.445 0.03528,2.99861 0.77611,4.65667 3.13972,6.84389 l 1.799167,1.69333 -1.058333,1.12889 c -0.599721,0.635 -1.658054,2.32834 -2.36361,3.77473 -1.12889,2.32833 -4.480277,6.80861 -5.997224,8.00805 -0.3175,0.24694 -2.081387,0.77611 -3.95111,1.19944 -7.373055,1.65806 -11.11249903,3.175 -14.569722,5.82084 -2.2225,1.76389 -4.0216662,2.61056 -5.3974995,2.61056 -1.2700005,0 -2.5752775,-1.44639 -2.8574995,-3.175 -0.246945,-1.58751 -0.917223,-2.46945 -1.834445,-2.46945 -0.846666,0 -1.305278,0.38805 -2.151944,1.76389 -1.481667,2.43417 -0.740834,5.92667 1.693333,8.255 0.599722,0.59972 1.093611,1.30528 1.093611,1.65806 0,0.91722 1.728611,2.39888 3.139722,2.64583 0.7055558,0.10583 1.6580558,0.45861 2.1166668,0.74083 0.670278,0.42334 1.0936113,0.45861 2.3988892,0.10584 0.881944,-0.21167 1.622777,-0.35278 1.658055,-0.28223 0.176389,0.3175 1.763889,5.89139 1.905,6.73806 0.246945,1.51694 -0.564444,2.89278 -2.434166,4.1275 -1.975556,1.27 -2.7869448,2.57528 -2.7869448,4.40972 0,1.55222 0.2469446,2.04611 2.8222218,5.64444 2.504723,3.45723 3.033889,4.48028 3.351389,6.52639 0.141111,0.88195 0.42333397,1.79917 0.59972197,2.01084 0.246945,0.3175 1.552223,0.45861 4.19805603,0.45861 3.598333,0 3.845278,-0.0353 4.374444,-0.81139 0.388056,-0.635 0.423334,-1.09361 0.141111,-2.15195 -0.388055,-1.44638 -1.058333,-2.18722 -2.681111,-3.06916 -1.340555,-0.74084 -2.8575,-2.71639 -3.139722,-4.1275 -0.211666,-0.9525 -0.07055,-1.16417 0.9525,-1.83445 0.670278,-0.38805 1.834445,-0.88194 2.610556,-1.12889 0.776111,-0.21166 1.905,-0.88194 2.54,-1.44638 l 1.093611,-1.02306 0.529166,0.98778 c 0.282223,0.56444 1.27,1.97555 2.187223,3.13972 1.940277,2.43417 3.351387,5.22111 3.351387,6.56167 0,1.94027 0.917224,2.46944 4.7625,2.78694 5.08,0.45861 5.997224,-0.35278 4.445,-3.73944 -0.423333,-0.91723 -1.23472,-1.83445 -2.18722,-2.46945 -1.76389,-1.19944 -3.35139,-3.77472 -3.704167,-6.0325 -0.282223,-1.79916 0.246944,-3.52777 1.869721,-6.20889 0.987779,-1.65805 1.27,-2.50472 1.411113,-4.58611 l 0.211666,-2.57527 2.328334,-1.37584 c 1.27,-0.77611 3.739443,-2.01083 5.50333,-2.78694 1.728613,-0.74084 3.633613,-1.65806 4.16278,-2.04611 l 0.987777,-0.70556 3.4925,2.01083 c 1.940277,1.09362 3.527777,2.11667 3.527777,2.25778 0,0.35278 -2.328334,1.44639 -3.069167,1.44639 -0.28222,0 -1.164167,-0.56444 -1.905,-1.23472 -0.77611,-0.67028 -1.693333,-1.23472 -2.04611,-1.23472 -0.987777,0 -3.915834,3.45722 -3.915834,4.58611 0,2.04611 4.656667,4.93889 7.972777,4.93889 2.187223,0 4.409723,-1.05834 8.74889,-4.23334 4.974167,-3.56305 4.93889,-4.65666 -0.635,-11.43 l -1.940277,-2.39889 1.058334,-1.79916 c 0.564443,-1.02306 1.516943,-2.75167 2.151943,-3.84528 0.599723,-1.12889 1.199444,-1.97556 1.340557,-1.86972 0.14111,0.0705 0.45861,1.12888 0.705553,2.29305 l 0.458613,2.11667 -1.481666,1.5875 c -1.552224,1.69333 -1.658057,1.97556 -1.093613,2.99861 0.564446,1.02306 3.527779,3.175 4.374446,3.175 0.881943,0 3.033887,-2.11667 3.845277,-3.70417 0.917223,-1.83444 1.023056,-3.77472 0.423333,-7.26722 -0.846667,-4.86833 -3.03389,-9.31333 -5.150556,-10.40694 -1.975554,-0.98778 -3.563054,-0.635 -6.138334,1.44639 -2.151943,1.69333 -2.36361,1.79916 -1.905,0.77611 0.211667,-0.45861 0.9525,-1.12889 1.62278,-1.44639 1.446387,-0.67028 2.2225,-2.29306 2.2225,-4.62139 0,-1.72861 -0.599723,-3.13972 -2.116667,-5.11528 -0.529166,-0.67028 -1.234723,-2.11667 -1.516946,-3.21028 -0.3175,-1.05833 -0.881944,-2.2225 -1.27,-2.57527 -0.352777,-0.3175 -0.77611,-1.16417 -0.91722,-1.83445 -0.635,-3.56305 -2.681113,-6.56167 -5.25639,-7.76111 -1.869723,-0.88194 -3.139723,-0.9525 -7.090834,-0.49389 z m 4.056944,2.96333 c 0.776113,0.49389 2.187223,1.94028 3.104446,3.13973 0.917221,1.19944 2.504721,2.99861 3.527777,3.95111 1.44639,1.37583 1.940277,2.15194 2.2225,3.35139 0.211667,0.88194 1.09361,2.64583 2.010833,3.98639 1.693334,2.50472 1.940277,3.63361 1.164167,5.60916 -0.49389,1.27 -1.905,1.62278 -3.245556,0.84667 -1.305277,-0.77611 -2.434167,-0.45861 -2.434167,0.635 0,0.45861 0.246946,1.05833 0.564446,1.30528 0.493887,0.38805 0.635,0.35277 1.058334,-0.17639 0.423333,-0.59972 0.493887,-0.635 0.705553,-0.0705 0.49389,1.27 -1.199443,2.04611 -2.751666,1.23472 -0.987777,-0.52917 -2.116667,-3.28083 -1.975554,-4.79778 0.14111,-1.44639 -0.881946,-2.46944 -1.481667,-1.51694 -0.846666,1.30528 0.740834,5.96194 2.575277,7.69055 0.49389,0.45862 0.987777,1.41112 1.09361,2.11667 0.141113,0.74083 0.705557,2.25778 1.27,3.42194 0.740834,1.48167 1.12889,2.89278 1.27,4.69195 l 0.246947,2.57528 3.175,3.95111 c 1.72861,2.18722 3.386666,4.48028 3.704166,5.11528 0.529167,1.09361 0.529167,1.16416 -0.458613,2.18722 -0.529166,0.56444 -2.469443,2.01083 -4.26861,3.21028 -3.598333,2.36361 -5.3975,2.8575 -7.655277,2.11666 -1.340556,-0.45861 -4.1275,-2.32833 -4.1275,-2.78694 0,-0.14111 0.493887,-0.88195 1.09361,-1.5875 l 1.12889,-1.37583 1.446387,1.44638 c 0.81139,0.81139 1.693334,1.44639 1.975557,1.44639 0.81139,0 4.339166,-1.72861 5.22111,-2.54 1.164167,-1.09361 0.98778,-1.5875 -1.058333,-2.89277 -3.033887,-1.905 -7.62,-4.445 -8.113887,-4.445 -0.211667,0 -0.917224,0.45861 -1.516947,0.98777 -0.564443,0.56445 -2.575277,1.65806 -4.40972,2.43417 -1.834444,0.77611 -4.374444,2.08139 -5.609167,2.89278 -1.234723,0.77611 -2.434166,1.44639 -2.645833,1.44639 -0.211667,0 -1.375833,0.14111 -2.610557,0.3175 -3.527776,0.52916 -4.374443,1.27 -6.63222,5.85611 -2.786945,5.57389 -4.092223,7.19666 -6.455834,8.00805 -3.951111,1.30528 -5.29166703,3.31611 -4.09222203,6.13834 0.67027803,1.62277 2.71638903,3.81 4.09222203,4.37444 0.564445,0.24695 1.128889,0.84667 1.340556,1.44639 l 0.352777,1.02306 H 3.776783 0.81344997 l -0.388056,-1.62278 c -0.529167,-2.11667 -1.58749997,-4.16278 -2.99861097,-5.96195 -4.021667,-5.00944 -4.021667,-6.17361 0.105833,-8.99583 1.305278,-0.91722 2.15194497,-2.57528 2.15194497,-4.30389 0,-0.635 -0.423334,-2.39889 -0.88194497,-3.95111 -0.493889,-1.51695 -0.987778,-3.70417 -1.128889,-4.86834 l -0.211666,-2.08139 -0.740834,0.70556 c -0.917222,0.88194 -3.386666,1.94028 -3.386666,1.48166 0,-0.21166 0.176389,-0.45861 0.352777,-0.56444 0.670278,-0.42333 0.388056,-0.91722 -0.3175,-0.52917 -0.9877772,0.49389 -3.3161105,0.42334 -4.092222,-0.14111 -0.599722,-0.42333 -0.564444,-0.49389 0.599723,-0.70555 0.6702774,-0.10584 1.4816664,-0.42334 1.8344441,-0.67028 0.5291667,-0.38806 0.3527777,-0.45861 -1.3052777,-0.45861 -1.7991664,0.0353 -2.0813894,-0.0706 -3.2455554,-1.19945 -0.705556,-0.67027 -1.516945,-1.65805 -1.799167,-2.18722 -0.599722,-1.16417 -0.635,-3.21028 -0.105833,-4.26861 0.388055,-0.67028 0.458611,-0.59972 1.058333,1.02306 0.881945,2.36361 2.010833,3.35138 3.9511111,3.56305 1.9755557,0.24695 4.5508329,-0.88194 7.1261109,-3.03389 2.32833297,-1.94028 5.891389,-3.35139 12.488334,-5.00944 2.99861,-0.77612 5.468054,-1.37584 5.53861,-1.37584 0.423334,0 5.503334,-6.70277 6.385277,-8.39611 1.728613,-3.45722 3.316113,-5.3975 4.16278,-5.15055 2.751664,0.84666 4.691943,0.9525 6.526387,0.35277 2.36361,-0.77611 3.598333,-1.69333 4.58611,-3.45722 1.693333,-3.03389 0.07056,-6.52639 -3.280833,-6.87916 -1.411111,-0.17639 -1.728611,-0.0705 -2.54,0.74083 -1.128887,1.12889 -1.023054,1.62278 0.458613,2.32833 1.41111,0.67028 1.41111,1.23472 0,1.72861 -0.81139,0.28223 -1.44639,0.28223 -2.25778,0.0353 l -1.128887,-0.38805 0.564443,-1.02306 c 0.564444,-0.9525 0.564444,-1.05833 -0.176389,-1.83444 -0.740831,-0.77611 -0.952498,-1.37584 -0.846664,-2.32834 0.03528,-0.3175 0.211666,-0.35277 0.705553,-0.0706 0.881944,0.45862 3.915834,0.45862 3.915834,0 0,-0.38805 -2.54,-1.76388 -3.31611,-1.76388 -0.987777,0 -2.257777,0.77611 -2.645834,1.65805 -0.564443,1.19945 -0.49389,3.84528 0.14111,5.04472 0.705557,1.37584 1.693334,1.86973 3.951111,1.905 1.481666,0 2.010833,-0.14111 2.751666,-0.84666 0.917223,-0.88195 1.164167,-2.25778 0.458613,-2.68111 -0.211666,-0.14112 -0.881946,-0.35278 -1.481666,-0.49389 l -1.093613,-0.24695 0.9525,-0.45861 c 0.776113,-0.35278 1.164166,-0.35278 2.046113,0 2.293053,0.9525 2.82222,3.35139 1.164166,5.32695 -1.234723,1.44638 -2.786946,2.08138 -5.115279,2.08138 -3.386664,0 -8.008054,-2.96333 -9.066387,-5.75027 -1.093611,-2.89278 0.105833,-7.19667 2.716389,-9.45445 3.280834,-2.89277 7.055554,-3.4925 9.948331,-1.5875 z m 18.238613,24.09473 c 1.446387,1.55222 2.8575,5.04472 3.45722,8.67833 0.705557,3.95111 0.423334,5.43278 -1.340553,7.47889 l -1.199447,1.37583 -1.27,-1.05833 c -0.705553,-0.56444 -1.305277,-1.16417 -1.305277,-1.34056 0,-0.17638 0.564444,-0.9525 1.27,-1.72861 1.199444,-1.30527 1.27,-1.51694 1.093611,-3.10444 -0.3175,-2.61056 -1.693334,-5.75028 -2.575277,-5.89139 -0.81139,-0.10584 -1.41111,0.67028 -4.021667,5.32694 l -1.5875,2.75167 -0.45861,-2.54 c -0.246946,-1.37583 -0.776113,-3.175 -1.199446,-3.95111 l -0.740834,-1.44639 1.199447,-1.02306 c 0.670276,-0.56444 2.2225,-1.79916 3.4925,-2.75166 2.68111,-2.01084 3.845276,-2.18722 5.185833,-0.77611 z m -31.75,29.42166 c -0.105833,1.16417 -0.423333,2.39889 -0.705557,2.71639 -1.023053,1.16417 -2.398887,4.37445 -2.610553,6.06778 -0.388057,3.21028 1.940277,8.04333 4.515553,9.48972 1.164167,0.67028 2.504724,2.82222 1.799167,2.89278 -0.811387,0.0706 -4.938887,-0.10583 -5.432777,-0.24694 -0.352777,-0.10584 -0.635,-0.52917 -0.635,-0.98778 0,-1.62278 -1.12889,-4.02167 -3.210277,-6.73806 -2.751666,-3.63361 -3.280833,-4.7625 -2.822223,-6.35 0.17639,-0.67027 0.635,-1.65805 1.023057,-2.18722 0.352777,-0.52917 1.023053,-1.905 1.481666,-3.03389 1.128887,-2.75166 1.658054,-3.06916 6.491111,-3.73944 0.176389,0 0.211666,0.91722 0.105833,2.11666 z" />
  </g>
</svg>
