<?xml version="1.0" encoding="UTF-8" standalone="no"?>
<!-- Created with Inkscape (http://www.inkscape.org/) -->

<svg
   xmlns:dc="http://purl.org/dc/elements/1.1/"
   xmlns:cc="http://creativecommons.org/ns#"
   xmlns:rdf="http://www.w3.org/1999/02/22-rdf-syntax-ns#"
   xmlns:svg="http://www.w3.org/2000/svg"
   xmlns="http://www.w3.org/2000/svg"
   xmlns:sodipodi="http://sodipodi.sourceforge.net/DTD/sodipodi-0.dtd"
   xmlns:inkscape="http://www.inkscape.org/namespaces/inkscape"
   width="85.707367mm"
   height="74.051765mm"
   viewBox="0 0 85.707367 74.051765"
   version="1.1"
   id="svg4270"
   inkscape:version="0.92.4 (5da689c313, 2019-01-14)"
   sodipodi:docname="horse.svg">
  <defs
     id="defs4264" />
  <sodipodi:namedview
     id="base"
     pagecolor="#ffffff"
     bordercolor="#666666"
     borderopacity="1.0"
     inkscape:pageopacity="0.0"
     inkscape:pageshadow="2"
     inkscape:zoom="0.35"
     inkscape:cx="-102.31904"
     inkscape:cy="-277.20251"
     inkscape:document-units="mm"
     inkscape:current-layer="layer1"
     showgrid="false"
     fit-margin-top="0"
     fit-margin-left="0"
     fit-margin-right="0"
     fit-margin-bottom="0"
     inkscape:window-width="1920"
     inkscape:window-height="1017"
     inkscape:window-x="1912"
     inkscape:window-y="-8"
     inkscape:window-maximized="1" />
  <metadata
     id="metadata4267">
    <rdf:RDF>
      <cc:Work
         rdf:about="">
        <dc:format>image/svg+xml</dc:format>
        <dc:type
           rdf:resource="http://purl.org/dc/dcmitype/StillImage" />
        <dc:title></dc:title>
      </cc:Work>
    </rdf:RDF>
  </metadata>
  <g
     inkscape:label="Layer 1"
     inkscape:groupmode="layer"
     id="layer1"
     transform="translate(-10.062984,-1.4384027)">
    <path
       style="fill:#000000;stroke:none;stroke-width:0.03527778"
       inkscape:connector-curvature="0"
       id="path20-6"
       d="m 80.318683,1.7948865 c -0.458613,0.1763889 -1.234723,0.635 -1.728613,1.0230556 -0.564444,0.4586111 -1.446387,0.7055556 -2.36361,0.7055556 -0.81139,0 -2.39889,0.2469444 -3.563057,0.5291667 C 70.51146,4.6171087 70.229237,4.5465533 69.52368,3.1001643 68.677014,1.3715531 66.419237,2.2182198 65.39618,4.6171087 65.07868,5.39322 64.831737,5.6048867 64.337847,5.4637756 62.997293,5.0404421 61.58618,7.29822 61.868403,9.4501646 c 0.03528,0.3175 -0.211666,0.3880557 -0.77611,0.2469444 -1.411113,-0.3880554 -2.434167,0.776111 -2.469446,2.857501 l -0.03528,1.763889 -1.12889,-0.141111 c -1.763887,-0.211667 -2.328333,1.411111 -1.375833,3.880555 0.17639,0.458611 0,0.599722 -0.9525,0.705556 -1.023057,0.105833 -1.199444,0.282222 -1.481667,1.411111 -0.246943,0.987778 -0.17639,1.658055 0.211667,2.716389 l 0.564446,1.375833 -1.375836,0.211667 C 51.3909,24.760721 50.685344,24.61961 46.522567,23.173221 L 43.277014,22.07961 43.135903,19.045721 c -0.246946,-4.691945 -2.081389,-7.337778 -6.103056,-8.713612 -2.504723,-0.8819444 -9.807223,-0.8819444 -12.523612,0 -8.43139,2.786945 -11.888612,12.276668 -8.219723,22.613057 0.493889,1.375834 1.763889,4.162777 2.8575,6.17361 2.293056,4.339167 2.610556,6.314724 1.164167,7.47889 -1.023056,0.846667 -1.869723,0.846667 -2.892778,0 -0.9525,-0.77611 -1.058334,-2.504723 -0.211667,-4.1275 0.599722,-1.199443 0.282222,-2.434166 -0.776111,-2.786943 -1.5875,-0.49389 -4.903612,1.940277 -5.891389,4.303887 -0.6350003,1.481669 -0.6350003,4.056946 0,5.538613 1.340555,3.210277 4.938889,5.609166 8.501945,5.573889 2.8575,0 4.797778,-0.846666 6.632222,-2.892779 2.963334,-3.31611 3.421945,-7.514167 1.446389,-13.758333 -1.305278,-4.198057 -1.128889,-7.47889 0.599723,-10.830279 0.740833,-1.481666 1.658055,-2.681111 2.398889,-3.175 1.446389,-0.987778 1.516944,-0.987778 2.54,-0.141111 l 0.811389,0.635 -1.128889,1.799167 c -1.869723,2.892779 -2.681112,5.503333 -2.716389,8.713612 0,2.610554 0.105833,3.069167 1.516944,5.926667 0.917222,1.940277 1.481667,3.63361 1.481667,4.409723 0,0.740833 -0.458611,3.563054 -1.058333,6.314721 l -1.023056,5.009446 0.740833,3.63361 c 0.529167,2.54 0.776111,5.150556 0.811389,8.713613 0.07056,5.961943 0.105834,6.0325 3.563056,6.0325 2.998611,0 3.845277,-0.388057 4.374444,-1.975557 0.705557,-2.04611 0.246946,-7.866943 -0.846667,-11.183056 -0.91722,-2.68111 -1.128887,-4.58611 -0.705553,-6.138333 0.211666,-0.740834 5.820833,-5.750277 6.455833,-5.750277 0.423333,0 0.740833,1.905 0.740833,4.550833 0,1.516944 0.352777,3.598333 1.023054,5.926667 1.375833,4.833056 2.25778,10.124723 1.975557,11.959166 -0.3175,2.257777 0.246943,2.610557 4.056943,2.610557 3.880557,0 4.092223,-0.246946 3.739446,-4.021667 -0.282223,-3.104446 -0.670277,-4.62139 -1.975556,-7.831666 -1.905,-4.62139 -1.76389,-6.06778 0.881946,-9.525003 1.552221,-1.975554 3.527777,-6.067777 3.880554,-7.9375 0.388056,-2.04611 0.635,-2.2225 1.905,-1.5875 3.563056,1.869723 4.797779,4.868333 4.409723,10.795 l -0.246944,3.845279 1.164167,1.340554 c 0.635,0.705557 1.5875,2.187223 2.081387,3.280836 0.846667,1.763887 0.917223,2.328334 0.917223,6.49111 0,5.291667 -0.14111,5.08 3.739447,5.115277 1.834443,0.03528 2.54,-0.105833 3.175,-0.635 1.23472,-0.987777 1.09361,-4.162777 -0.388057,-8.325553 -1.76389,-5.009447 -1.869723,-5.468057 -1.693333,-8.572503 0.14111,-2.68111 0.3175,-3.210277 2.187223,-6.949721 1.09361,-2.2225 2.2225,-4.056946 2.469443,-4.056946 0.846667,0 3.386667,1.023057 4.480277,1.76389 0.635,0.49389 1.023057,1.058333 1.023057,1.5875 0,1.27 -0.987777,3.63361 -2.434167,5.750277 -2.151943,3.175 -2.8575,4.445 -2.8575,5.291667 0,0.881946 1.975557,5.044723 2.610557,5.432779 1.41111,0.9525 2.469443,-0.14111 4.797776,-4.833056 2.681111,-5.432777 3.98639,-10.054167 4.445,-15.628057 0.282224,-3.280833 0.529167,-2.892777 -4.656666,-7.020277 -2.610557,-2.046113 -2.928057,-2.434166 -3.245557,-3.915833 -0.211666,-0.917223 -0.705553,-2.822223 -1.09361,-4.268613 -0.881943,-3.13972 -0.9525,-5.820833 -0.211667,-8.678333 0.3175,-1.164167 0.599724,-2.151945 0.670277,-2.2225 0.282223,-0.246945 3.633613,1.693333 5.291667,3.069167 1.375833,1.199444 1.975556,1.446389 3.175003,1.446389 2.610553,0 4.797777,-2.046112 4.797777,-4.480278 0,-1.658056 -1.552224,-4.445 -3.527777,-6.244167 -1.023057,-0.987778 -2.39889,-2.681112 -3.06917,-3.845279 L 88.009237,8.0390533 88.92646,6.486831 89.843683,4.9698867 88.92646,4.0526644 c -0.564444,-0.5644445 -1.27,-0.8819445 -1.940277,-0.8819445 -0.67028,0 -1.411113,-0.3175001 -1.94028,-0.8819445 -0.670277,-0.6702778 -1.23472,-0.8819445 -2.398887,-0.8466667 -0.846666,0 -1.905,0.1411111 -2.328333,0.3527778 z m 2.434167,2.9280556 -1.093613,1.5522223 2.2225,1.2347223 c 2.54,1.4463889 3.033889,1.9402779 4.1275,4.1275003 0.423333,0.881945 1.622779,2.328334 2.645836,3.280834 3.245553,2.892778 4.162777,6.103055 2.116666,7.443611 -1.375833,0.917222 -2.398889,0.670278 -4.586113,-1.058333 -1.128889,-0.881945 -3.210276,-2.151945 -4.58611,-2.786945 -4.691946,-2.257778 -6.879166,-4.515555 -6.879166,-7.126111 0,-0.776112 -0.07056,-0.881945 -0.35278,-0.458612 -0.564444,0.917223 -0.388054,2.892779 0.388056,4.021668 0.564444,0.846666 2.71639,2.716389 4.1275,3.598333 0.07056,0.07056 -0.14111,1.023056 -0.493889,2.151944 -0.423334,1.375834 -0.635,3.245556 -0.635,5.750279 -0.03528,3.104445 0.105833,4.162778 0.9525,6.632221 1.093613,3.316113 1.199446,5.609167 0.388056,7.196667 -0.3175,0.635 -1.375833,2.187223 -2.39889,3.4925 -2.2225,2.963336 -5.291666,8.995836 -5.85611,11.641669 -0.670277,3.069167 -0.282223,7.055554 0.987777,10.230557 1.199446,2.963333 1.905,6.17361 1.5875,7.337777 -0.176387,0.635 -0.45861,0.740833 -2.18722,0.740833 h -1.975557 v -4.162777 c 0,-3.774723 -0.07056,-4.30389 -0.987779,-6.244166 -0.529167,-1.16417 -1.481667,-2.71639 -2.081388,-3.492503 C 67.124793,58.486279 67.089514,58.451 67.33646,55.487666 67.865626,48.291 65.43146,43.881276 59.99868,42.2585 c -3.45722,-1.058334 -11.28889,2.575276 -18.87361,8.784166 -4.198056,3.386667 -4.445,3.81 -4.445,7.090834 0.03528,1.940279 0.3175,3.527779 0.987777,5.644446 0.705556,2.187223 0.9525,3.63361 0.9525,5.750277 0,3.845279 -0.211667,4.198056 -2.751667,4.198056 h -2.010834 l -0.03528,-4.868333 c -0.03528,-3.386667 -0.282222,-5.926667 -0.776111,-8.501946 -0.423333,-2.010834 -0.705555,-3.774721 -0.635,-3.880554 0.105834,-0.105834 0.564445,-2.363613 1.093611,-4.974167 1.199445,-5.856113 1.093612,-7.373056 -0.776111,-10.900836 -1.199444,-2.36361 -1.340555,-2.8575 -1.340555,-5.291667 0,-2.36361 0.176389,-2.99861 1.305278,-5.326943 0.740833,-1.44639 1.658055,-3.210278 2.081389,-3.915834 0.776111,-1.234722 0.776111,-1.27 0.105833,-2.187222 -0.352778,-0.493889 -1.199445,-1.199445 -1.869722,-1.516945 -1.093612,-0.529167 -1.270001,-0.529167 -2.71639,0.03528 -3.245555,1.234722 -5.432778,5.221111 -5.715,10.406946 -0.141111,2.610554 -0.03528,3.421944 0.811389,5.99722 1.27,3.81 1.411111,8.29028 0.388056,10.230557 -1.552223,2.892779 -3.668889,4.233333 -6.84389,4.233333 -3.527778,0 -6.6675,-2.610554 -7.055556,-5.85611 -0.211666,-1.940277 0.388056,-3.35139 1.940278,-4.727223 1.5875,-1.41111 1.869723,-1.340557 1.305278,0.388056 -1.622778,4.62139 3.457223,7.972777 6.773334,4.515557 0.881945,-0.917223 1.023056,-1.30528 0.987778,-3.06917 -0.03528,-1.72861 -0.352778,-2.645833 -2.363611,-6.596943 -3.104445,-6.20889 -3.845279,-8.678333 -3.845279,-12.87639 0,-3.774722 0.776112,-6.596944 2.434167,-8.784167 1.411112,-1.834444 2.151945,-2.434166 4.691945,-3.668889 2.2225,-1.093611 2.434167,-1.128889 6.879167,-1.128889 4.868334,0 6.067778,0.282223 8.255001,1.869723 1.940277,1.446389 2.645833,3.527778 2.39889,7.161389 l -0.211667,3.069167 1.305277,0.246944 c 0.705556,0.141111 2.2225,0.635 3.386667,1.093611 4.056943,1.622778 7.549443,1.799167 10.936112,0.493889 l 1.023054,-0.388055 -1.09361,-1.058334 c -0.9525,-0.917222 -1.799167,-2.928056 -1.41111,-3.316111 0.07055,-0.105833 0.705554,0.03528 1.41111,0.246944 1.27,0.388056 3.81,0.141111 3.81,-0.388055 0,-0.141111 -0.388056,-0.458611 -0.846667,-0.670278 -0.77611,-0.352778 -2.610556,-3.421944 -2.257777,-3.81 0.105834,-0.07056 0.740834,0.105833 1.446388,0.388056 2.681112,1.128888 4.374446,0.388055 2.716389,-1.199445 -1.09361,-0.987778 -1.552223,-2.398889 -1.09361,-3.175 0.246944,-0.388056 0.45861,-0.388056 1.128887,0.105833 0.881946,0.599723 2.681113,0.740834 3.421946,0.246945 0.388054,-0.211667 0.282221,-0.493889 -0.423333,-1.199445 -0.635,-0.635 -0.917223,-1.305278 -0.917223,-2.1519447 0,-1.5875 0.423333,-1.7991667 1.41111,-0.7408333 0.635,0.6702777 1.199446,0.8819443 2.363613,0.8819443 0.846667,0 1.516944,-0.1763887 1.516944,-0.3527777 0,-0.2116666 -0.17639,-0.3527779 -0.423334,-0.3527779 -1.375833,0 -2.187223,-2.363611 -1.234723,-3.668889 0.423334,-0.5997223 0.529167,-0.5644444 1.552223,0.4586113 1.27,1.27 1.375834,1.27 3.98639,0.5644443 1.058333,-0.2822223 2.68111,-0.5291666 3.598333,-0.5291666 1.234724,0 2.08139,-0.2822223 3.35139,-1.0583334 0.987777,-0.6350001 2.116667,-1.0583334 2.822221,-1.0583334 h 1.199446 z m 6.63222,40.2872239 c 0.03528,1.869723 -0.987777,7.231946 -1.940277,10.19528 -1.164167,3.563054 -4.162777,9.70139 -4.727223,9.70139 -0.28222,0 -1.763887,-3.06917 -1.763887,-3.633613 0,-0.246944 0.881943,-1.693334 1.940277,-3.210277 2.151943,-3.104446 3.35139,-5.926667 3.35139,-7.866946 0,-1.622777 -1.5875,-3.210277 -4.339167,-4.303888 l -1.94028,-0.811389 1.375834,-1.799167 c 0.740833,-1.023056 1.375833,-1.94028 1.375833,-2.08139 0,-0.14111 0.141113,-0.670277 0.35278,-1.164166 l 0.352776,-0.917224 2.963334,2.39889 c 2.575277,2.04611 2.99861,2.54 2.99861,3.4925 z m -31.57361,0.03528 c -0.49389,2.151943 -2.328334,6.0325 -3.66889,7.76111 -3.104446,4.092223 -3.245556,5.785556 -1.093613,12.065 0.776113,2.25778 1.516946,5.150556 1.62278,6.455833 l 0.246943,2.39889 h -2.257777 -2.293056 l 0.17639,-1.058333 c 0.211666,-1.41111 -0.846667,-7.47889 -1.905,-11.041946 -0.49389,-1.658054 -1.023057,-4.621388 -1.199447,-6.949721 -0.211666,-2.2225 -0.45861,-4.445 -0.564443,-4.93889 -0.17639,-0.811389 0.07056,-1.058333 2.786943,-2.575277 3.104447,-1.763889 6.20889,-2.998612 7.584724,-3.033889 0.670279,-0.03528 0.776112,0.105833 0.564446,0.917223 z" />
  </g>
</svg>
