<?xml version="1.0" encoding="UTF-8" standalone="no"?>
<!-- Created with Inkscape (http://www.inkscape.org/) -->

<svg
   xmlns:dc="http://purl.org/dc/elements/1.1/"
   xmlns:cc="http://creativecommons.org/ns#"
   xmlns:rdf="http://www.w3.org/1999/02/22-rdf-syntax-ns#"
   xmlns:svg="http://www.w3.org/2000/svg"
   xmlns="http://www.w3.org/2000/svg"
   xmlns:sodipodi="http://sodipodi.sourceforge.net/DTD/sodipodi-0.dtd"
   xmlns:inkscape="http://www.inkscape.org/namespaces/inkscape"
   width="79.385735mm"
   height="79.707581mm"
   viewBox="0 0 79.385735 79.707581"
   version="1.1"
   id="svg5408"
   inkscape:version="0.92.4 (5da689c313, 2019-01-14)"
   sodipodi:docname="monkey.svg">
  <defs
     id="defs5402" />
  <sodipodi:namedview
     id="base"
     pagecolor="#ffffff"
     bordercolor="#666666"
     borderopacity="1.0"
     inkscape:pageopacity="0.0"
     inkscape:pageshadow="2"
     inkscape:zoom="0.35"
     inkscape:cx="-405.694"
     inkscape:cy="73.485606"
     inkscape:document-units="mm"
     inkscape:current-layer="layer1"
     showgrid="false"
     fit-margin-top="0"
     fit-margin-left="0"
     fit-margin-right="0"
     fit-margin-bottom="0"
     inkscape:window-width="1920"
     inkscape:window-height="1017"
     inkscape:window-x="1912"
     inkscape:window-y="-8"
     inkscape:window-maximized="1" />
  <metadata
     id="metadata5405">
    <rdf:RDF>
      <cc:Work
         rdf:about="">
        <dc:format>image/svg+xml</dc:format>
        <dc:type
           rdf:resource="http://purl.org/dc/dcmitype/StillImage" />
        <dc:title></dc:title>
      </cc:Work>
    </rdf:RDF>
  </metadata>
  <g
     inkscape:label="Layer 1"
     inkscape:groupmode="layer"
     id="layer1"
     transform="translate(-90.330942,-88.568816)">
    <path
       style="fill:#000000;stroke:none;stroke-width:0.03527778"
       inkscape:connector-curvature="0"
       id="path16"
       d="m 104.72428,89.218901 c -6.949727,2.010833 -12.45306,7.443611 -13.970004,13.652499 -0.246945,0.9525 -0.423334,3.77472 -0.423334,6.31472 0.03528,7.3025 1.340556,12.27667 5.573889,20.81389 3.033889,6.20889 3.563055,8.255 3.245556,13.08806 -0.3175,4.55083 -1.516945,7.90222 -4.339167,12.27667 -2.8575,4.33916 -3.668889,6.31472 -3.668889,9.03111 0,3.21027 -0.07056,3.175 7.902222,3.175 7.161387,0 7.619997,-0.10584 7.619997,-1.65806 0,-0.9525 -2.2225,-3.31611 -3.95111,-4.19805 -0.635,-0.3175 -1.23472,-0.635 -1.27,-0.67028 -0.0706,-0.0705 0.98778,-1.69334 2.36361,-3.59834 3.03389,-4.16277 6.45584,-10.97138 7.33778,-14.49916 0.635,-2.54 0.635,-2.57528 1.23472,-1.83445 0.9525,1.16417 2.04611,5.11528 2.04611,7.37306 0,2.68111 -0.49388,4.26861 -2.32833,7.40833 -0.84667,1.48167 -1.76389,3.63361 -2.08139,4.79778 -0.635,2.50472 -0.70555,5.85611 -0.10583,6.45583 0.3175,0.3175 2.39889,0.42334 7.23194,0.42334 6.45584,0 6.80861,-0.0353 7.16139,-0.70556 0.21167,-0.42333 0.28222,-1.02305 0.17639,-1.37583 -0.28222,-0.9525 -3.21028,-3.52778 -4.40972,-3.98639 l -1.05833,-0.35278 1.05833,-1.51694 c 3.28083,-4.7625 4.90361,-9.73667 5.18583,-15.94556 l 0.21167,-4.30389 1.62278,0.84667 c 2.78694,1.48167 2.71639,1.19944 1.23472,4.26861 -1.72861,3.59833 -1.94028,5.82083 -0.77611,7.54944 0.45861,0.67028 2.75166,2.71639 5.04472,4.51556 3.21028,2.46944 5.46806,3.88056 9.24278,5.715 4.93889,2.43417 5.00944,2.46944 5.25639,3.77472 0.3175,1.79917 0.70555,2.2225 2.15194,2.2225 0.91722,0 1.51694,-0.28222 2.43417,-1.19944 1.05833,-1.05834 1.19944,-1.41111 1.19944,-3.06917 0,-2.32833 -0.84667,-3.4925 -4.51555,-6.20889 -2.96334,-2.18722 -7.02028,-5.75028 -8.14917,-7.19666 l -0.70556,-0.91723 1.37584,-0.77611 1.37583,-0.77611 0.56445,1.09361 c 2.11666,4.09222 9.48972,8.78417 17.35666,11.07722 3.66889,1.05834 3.77472,1.12889 4.02167,2.25778 0.3175,1.55222 0.91722,2.18722 2.15194,2.18722 2.2225,0 4.05695,-3.31611 3.10445,-5.60916 -0.635,-1.55222 -1.97556,-2.64584 -5.64445,-4.62139 -7.05555,-3.84528 -10.12472,-7.19667 -11.60639,-12.7 -0.38805,-1.41111 -0.35277,-1.79917 0.28223,-3.28083 l 0.70555,-1.65806 2.04611,-0.0353 c 4.445,-0.0353 7.51417,-0.52917 8.43139,-1.41111 1.30528,-1.23472 1.69333,-3.13972 0.98778,-4.86833 -0.52917,-1.37584 -2.61056,-3.56306 -3.31611,-3.56306 -0.17639,0 -0.59972,-0.59972 -0.88195,-1.30528 -0.84666,-2.01083 -1.48166,-2.50472 -4.48027,-3.45722 -5.11528,-1.62278 -8.96056,-1.05834 -11.64167,1.69333 l -1.19944,1.27 -4.7625,-2.39889 c -10.61862,-5.46805 -18.76778,-7.02027 -28.53973,-5.50333 -6.77333,1.05834 -7.69055,1.09361 -8.64305,0.17639 -1.411114,-1.34055 -2.081391,-3.63361 -2.081391,-7.23194 -0.03528,-9.31334 4.445001,-14.746115 11.747501,-14.216948 4.90361,0.352778 8.18444,3.633611 7.26722,7.231948 -0.35278,1.41111 -2.92805,3.84527 -4.65667,4.33916 -1.48166,0.45861 -2.57527,0.3175 -2.57527,-0.3175 0,-0.3175 1.34055,-1.72861 3.35139,-3.4925 1.94027,-1.69333 0.10583,-3.77472 -3.28084,-3.73944 -3.98639,0.0706 -6.56166,2.64583 -7.02028,7.05555 -0.56444,5.43278 3.56306,8.60778 9.94834,7.62 5.53861,-0.88194 9.77194,-3.52777 11.99444,-7.54944 0.9525,-1.69333 1.05834,-2.18722 1.05834,-5.04472 0,-2.786947 -0.14112,-3.386669 -0.98778,-5.080003 -2.04611,-3.845277 -5.53861,-6.596944 -10.08945,-7.9375 -2.61055,-0.776111 -8.36083,-0.705555 -11.14777,0.105834 z m 13.0175,2.504722 c 4.55083,2.151945 7.23194,5.715 7.54944,9.948337 0.14111,2.08138 0.0353,2.64583 -0.77611,4.30388 -1.19945,2.43417 -3.81,4.79778 -6.38528,5.78556 -8.50194,3.24556 -13.97,0.52917 -12.13555,-6.10306 0.81138,-2.82222 3.95111,-4.65666 6.45583,-3.70416 l 0.98778,0.35278 -1.44639,1.09361 c -2.57528,1.86972 -3.52778,4.19805 -2.18722,5.3975 1.30527,1.16416 3.13972,1.09361 5.64444,-0.21167 8.32556,-4.37444 4.51556,-14.393333 -5.46806,-14.393333 -3.84527,0 -7.37305,1.728612 -9.525,4.62139 -3.915829,5.326943 -4.339162,16.016113 -0.811385,19.649723 1.728615,1.76389 2.645835,1.79917 10.195275,0.59972 4.33917,-0.67028 10.26584,-0.67028 13.61723,0.0353 5.11527,1.02305 12.52361,4.09222 18.76777,7.72583 2.01084,1.16417 2.18722,1.23472 2.18722,0.56445 0,-0.9525 2.01084,-3.21028 3.42195,-3.77473 1.65805,-0.70555 4.62139,-0.59972 7.33778,0.24695 2.61055,0.81139 3.70416,1.65805 3.70416,2.92805 0,0.635 0.38806,1.05834 1.48167,1.69334 1.86972,1.02306 3.21028,2.92806 2.92806,4.16278 -0.35278,1.51694 -1.30528,2.01083 -4.48028,2.25777 -1.62278,0.10584 -3.88056,0.3175 -5.04472,0.42334 l -2.15195,0.21166 -0.635,1.79917 c -1.44639,4.05695 -4.09222,6.84389 -8.5725,8.92528 -3.31611,1.55222 -4.69194,2.64583 -4.69194,3.66889 0,0.88194 5.3975,6.17361 9.06639,8.89 1.79916,1.34055 3.56305,2.82222 3.88055,3.31611 0.70556,1.12889 0.67028,2.8575 -0.10583,3.70417 -0.84667,0.9525 -1.51695,0.84666 -1.76389,-0.3175 -0.10583,-0.52917 -0.24695,-1.12889 -0.3175,-1.37584 -0.17639,-0.56444 -2.36361,-1.905 -4.7625,-2.89278 -3.28083,-1.37583 -6.17361,-3.13972 -9.77194,-5.89138 -4.445,-3.42195 -5.3975,-4.445 -5.3975,-5.82084 0,-1.23472 1.09361,-3.98639 2.61055,-6.45583 1.19945,-1.97556 1.30528,-1.76389 -2.25778,-3.88056 -4.79777,-2.82222 -10.37166,-4.445 -15.27527,-4.445 h -2.99862 l -0.24694,2.18723 c -0.56444,5.22111 -1.97556,9.63083 -4.55083,14.14638 -1.69334,2.92806 -4.7625,7.33778 -6.702781,9.59556 l -1.234722,1.41111 1.799166,0.45861 c 1.904997,0.49389 4.515557,2.04611 4.797777,2.78695 0.10583,0.35277 -1.19944,0.45861 -5.714999,0.45861 H 92.90622 v -1.69334 c 0,-2.01083 1.023055,-4.26861 3.527778,-8.04333 3.175,-4.65667 4.550832,-9.2075 4.586112,-14.95778 0,-3.73944 -0.70556,-6.13833 -3.527779,-11.81805 -2.575278,-5.25639 -3.880556,-8.81945 -4.727222,-12.94695 -2.363611,-11.78278 0.599722,-19.896665 8.713611,-23.918331 3.59833,-1.763889 5.25639,-2.116667 9.77194,-2.010834 3.77473,0.105834 4.23334,0.211667 6.49112,1.305278 z m 1.65805,45.543617 c 1.72861,0.38805 3.42195,0.98777 3.73945,1.30527 0.45861,0.49389 0.52916,1.19945 0.35277,4.83306 -0.3175,6.77333 -2.29305,12.13555 -6.24416,17.03917 l -1.76389,2.18722 h 1.41111 c 1.65805,0 3.66889,0.91722 4.90361,2.25778 l 0.84667,0.91722 h -5.67973 -5.715 v -1.34056 c 0,-2.2225 1.02306,-5.3975 2.50473,-7.90222 2.04611,-3.38667 2.50472,-5.15056 2.32833,-8.74889 -0.17639,-3.45722 -1.02306,-5.96194 -2.92806,-8.71361 -0.70555,-1.02306 -1.16416,-2.01083 -1.02305,-2.2225 0.35278,-0.59972 3.91583,-0.42333 7.26722,0.38806 z m 31.36194,5.78555 c 0,0.3175 0.45862,1.5875 1.02306,2.82222 1.79917,3.95111 5.53861,7.26723 11.95917,10.58334 3.175,1.65805 4.445,3.03389 4.16277,4.55083 -0.35277,1.72861 -1.97555,2.68111 -1.97555,1.16417 0,-1.48167 -0.9525,-2.29306 -3.63361,-3.10445 -6.31472,-1.86972 -10.23056,-3.70416 -14.25222,-6.63222 -1.34056,-0.9525 -3.95112,-4.05694 -3.98639,-4.69194 0,-0.10584 0.67027,-0.59973 1.51694,-1.09362 0.81139,-0.49388 2.18722,-1.62277 3.06917,-2.50472 1.65805,-1.72861 2.11666,-1.94028 2.11666,-1.09361 z" />
  </g>
</svg>
