<?xml version="1.0" encoding="UTF-8" standalone="no"?>
<!-- Created with Inkscape (http://www.inkscape.org/) -->

<svg
   xmlns:dc="http://purl.org/dc/elements/1.1/"
   xmlns:cc="http://creativecommons.org/ns#"
   xmlns:rdf="http://www.w3.org/1999/02/22-rdf-syntax-ns#"
   xmlns:svg="http://www.w3.org/2000/svg"
   xmlns="http://www.w3.org/2000/svg"
   xmlns:sodipodi="http://sodipodi.sourceforge.net/DTD/sodipodi-0.dtd"
   xmlns:inkscape="http://www.inkscape.org/namespaces/inkscape"
   width="74.258423mm"
   height="74.746391mm"
   viewBox="0 0 74.258423 74.746391"
   version="1.1"
   id="svg7106"
   inkscape:version="0.92.4 (5da689c313, 2019-01-14)"
   sodipodi:docname="pig.svg">
  <defs
     id="defs7100" />
  <sodipodi:namedview
     id="base"
     pagecolor="#ffffff"
     bordercolor="#666666"
     borderopacity="1.0"
     inkscape:pageopacity="0.0"
     inkscape:pageshadow="2"
     inkscape:zoom="0.35"
     inkscape:cx="-375.38341"
     inkscape:cy="298.39581"
     inkscape:document-units="mm"
     inkscape:current-layer="layer1"
     showgrid="false"
     fit-margin-top="0"
     fit-margin-left="0"
     fit-margin-right="0"
     fit-margin-bottom="0"
     inkscape:window-width="1920"
     inkscape:window-height="1017"
     inkscape:window-x="1912"
     inkscape:window-y="-8"
     inkscape:window-maximized="1" />
  <metadata
     id="metadata7103">
    <rdf:RDF>
      <cc:Work
         rdf:about="">
        <dc:format>image/svg+xml</dc:format>
        <dc:type
           rdf:resource="http://purl.org/dc/dcmitype/StillImage" />
        <dc:title></dc:title>
      </cc:Work>
    </rdf:RDF>
  </metadata>
  <g
     inkscape:label="Layer 1"
     inkscape:groupmode="layer"
     id="layer1"
     transform="translate(-82.311265,-153.0375)">
    <path
       style="fill:#000000;stroke:none;stroke-width:0.03527778"
       inkscape:connector-curvature="0"
       id="path22"
       d="m 127.72551,154.36599 c -1.69333,1.79917 -3.91583,6.31472 -3.91583,7.97278 0,1.16416 -0.14112,1.37583 -1.30528,1.83444 -3.175,1.30528 -7.9375,3.70417 -9.45445,4.72722 -0.88194,0.59973 -2.78694,2.50473 -4.23333,4.16278 -2.64583,3.13972 -3.81,3.98639 -10.583333,7.9375 -4.233333,2.46944 -9.031111,7.19667 -10.865555,10.72444 -3.245556,6.20889 -3.563056,13.26445 -1.164167,23.38917 0.811389,3.35139 0.740833,3.88056 -0.352778,3.88056 -2.504722,0 -4.162778,2.54 -3.316111,5.08 1.234722,3.81 5.715,4.93889 8.643055,2.18722 l 1.234723,-1.16417 1.799167,0.84667 c 2.610555,1.27 4.515555,1.41111 17.321389,1.48167 13.6525,0.0706 12.98222,0.28222 12.98222,-3.73945 0,-1.51694 -0.17639,-2.54 -0.49389,-2.89278 -0.42333,-0.49389 -0.28222,-0.74083 1.23472,-2.08139 l 1.69334,-1.51694 0.38805,1.51694 c 0.56445,2.11667 1.72861,4.72723 2.92806,6.73806 l 1.02305,1.69333 h 3.95111 c 2.15195,-0.0353 4.86834,-0.0353 6.0325,-0.0706 1.55223,0 2.2225,-0.14111 2.57528,-0.56444 0.635,-0.88195 0.56445,-1.23472 -1.09361,-3.66889 -2.57528,-3.88056 -4.48028,-11.21833 -4.48028,-17.4625 0,-2.36361 0.0706,-2.57528 1.62278,-4.7625 0.88195,-1.23472 1.97556,-2.99861 2.43417,-3.88056 1.02305,-1.97555 1.905,-6.06777 1.97555,-9.24277 0.0706,-2.36361 0.10584,-2.43417 1.48167,-3.52778 1.86972,-1.51694 2.89278,-3.38667 3.81,-7.02028 0.74083,-3.10444 1.12889,-3.77472 4.83306,-9.31333 2.82222,-4.26861 2.8575,-4.90361 0.0705,-8.21972 -1.86972,-2.25778 -3.28084,-3.21028 -4.72722,-3.21028 -1.41112,0 -1.97556,0.35278 -2.64584,1.72861 -1.02305,1.97556 -1.72861,2.39889 -4.26861,2.61056 -1.27,0.10583 -2.71639,0.3175 -3.24555,0.45861 -0.98778,0.21166 -0.98778,0.21166 -0.98778,-1.48167 0,-0.9525 -0.14111,-2.25778 -0.35278,-2.92805 -0.9525,-3.31612 -4.02167,-3.84528 -5.08,-0.91723 -0.24694,0.635 -0.3175,0.59973 -0.70556,-0.35277 -1.12888,-2.68112 -2.82222,-2.99862 -4.76249,-0.9525 z m 2.71639,0.88194 c 0.45861,0.52917 1.37583,4.05695 1.65805,6.31473 l 0.21167,1.69333 h 2.92805 c 1.5875,0 3.81,-0.24695 4.90362,-0.52917 1.12888,-0.28222 2.75166,-0.52916 3.63361,-0.52916 2.18722,0 3.38666,-0.74084 4.40972,-2.61056 0.9525,-1.83444 1.76389,-2.04611 3.24555,-0.91722 1.12889,0.88194 3.42195,3.98639 3.42195,4.62139 0,0.28222 -0.84667,1.72861 -1.86972,3.28083 -3.59834,5.3975 -4.16278,6.42056 -4.69195,8.32556 -1.5875,5.75027 -1.94028,6.42055 -4.37444,8.18444 l -1.41111,1.05833 v 2.8575 c 0,3.70417 -0.98778,7.83167 -2.46945,10.23056 -0.635,1.05833 -2.64583,3.81 -4.51555,6.10305 l -3.35139,4.19806 0.21166,3.35139 c 0.28223,4.33916 1.23473,8.00805 3.03389,11.60639 1.16417,2.29305 1.34056,2.8575 0.88195,2.8575 -0.3175,0 -0.81139,-0.28223 -1.05834,-0.59973 -0.45861,-0.59972 -0.45861,-0.59972 -0.49388,-0.0353 0,0.49389 -0.3175,0.635 -1.37584,0.635 h -1.34055 l -1.34056,-2.92805 c -0.74083,-1.5875 -1.65805,-4.26861 -2.08139,-5.96195 l -0.70555,-3.03389 -2.8575,2.89278 c -3.45722,3.52778 -5.15056,4.445 -8.39611,4.445 -1.27,0 -2.71639,-0.17639 -3.21028,-0.38805 -1.5875,-0.74084 -1.94028,-2.89278 -1.09361,-7.02028 0.10583,-0.49389 -0.21167,-0.10584 -0.70556,0.88194 -1.83444,3.70417 -1.41111,6.52639 1.09361,7.79639 1.51695,0.74083 5.75028,0.91722 8.53723,0.38806 1.23472,-0.24695 1.48166,-0.21167 1.48166,0.24694 0,0.3175 -0.35278,0.70556 -0.77611,0.88195 l -0.81139,0.28222 0.81139,0.24694 c 0.49389,0.17639 0.77611,0.49389 0.70556,0.84667 -0.10584,0.49389 -1.37584,0.56444 -12.48834,0.52917 -9.10166,0 -12.735274,-0.14112 -13.75833,-0.45862 -1.481666,-0.49388 -3.809999,-1.86972 -4.198055,-2.46944 -0.388056,-0.635 -0.740834,-0.38806 -1.199445,0.91722 -0.493889,1.37584 -2.151944,2.61056 -3.4925,2.61056 -2.328333,0 -4.233333,-2.71639 -3.104444,-4.40972 0.352778,-0.56445 0.917222,-0.88195 1.446389,-0.88195 0.881944,0 0.881944,0.0353 0.352778,0.84667 -0.458611,0.67028 -0.493889,1.02305 -0.176389,1.5875 0.493889,0.9525 1.234722,0.9525 1.905,-0.0353 0.881944,-1.23473 0.705555,-5.32695 -0.388056,-10.08945 -0.846666,-3.52778 -0.987778,-4.86833 -0.987778,-9.41916 0,-4.65667 0.105834,-5.57389 0.846667,-7.69056 1.975556,-5.75028 6.596945,-10.58333 14.181663,-14.88722 3.52778,-2.01083 4.83306,-2.96333 6.84389,-5.08 5.3975,-5.75028 5.64445,-5.92667 9.77195,-7.90222 2.18722,-1.02306 4.55083,-2.08139 5.22111,-2.36361 1.62278,-0.59973 2.11666,-1.27 2.11666,-2.78695 0,-1.97555 3.21028,-8.14916 4.19806,-8.14916 0.17639,0 0.45861,0.21166 0.67028,0.45861 z m 7.44361,60.60722 c 0.70555,2.75167 2.2225,6.35 3.59833,8.36084 l 0.77611,1.16416 -1.55222,-0.10583 c -1.44639,-0.10583 -1.62278,-0.21167 -2.64583,-1.94028 -1.55223,-2.64583 -3.24556,-7.9375 -3.73945,-11.81805 l -0.42333,-3.35139 1.23472,-1.48167 1.19945,-1.51694 0.42333,4.02166 c 0.24694,2.18723 0.74083,5.18584 1.12889,6.6675 z" />
  </g>
</svg>
