<?xml version="1.0" encoding="UTF-8" standalone="no"?>
<!-- Created with Inkscape (http://www.inkscape.org/) -->

<svg
   xmlns:dc="http://purl.org/dc/elements/1.1/"
   xmlns:cc="http://creativecommons.org/ns#"
   xmlns:rdf="http://www.w3.org/1999/02/22-rdf-syntax-ns#"
   xmlns:svg="http://www.w3.org/2000/svg"
   xmlns="http://www.w3.org/2000/svg"
   xmlns:sodipodi="http://sodipodi.sourceforge.net/DTD/sodipodi-0.dtd"
   xmlns:inkscape="http://www.inkscape.org/namespaces/inkscape"
   width="73.289879mm"
   height="75.834106mm"
   viewBox="0 0 73.289879 75.834106"
   version="1.1"
   id="svg2572"
   inkscape:version="0.92.4 (5da689c313, 2019-01-14)"
   sodipodi:docname="rabbit.svg">
  <defs
     id="defs2566" />
  <sodipodi:namedview
     id="base"
     pagecolor="#ffffff"
     bordercolor="#666666"
     borderopacity="1.0"
     inkscape:pageopacity="0.0"
     inkscape:pageshadow="2"
     inkscape:zoom="0.35"
     inkscape:cx="765.64342"
     inkscape:cy="200.45144"
     inkscape:document-units="mm"
     inkscape:current-layer="layer1"
     showgrid="false"
     fit-margin-top="0"
     fit-margin-left="0"
     fit-margin-right="0"
     fit-margin-bottom="0"
     inkscape:window-width="1920"
     inkscape:window-height="1017"
     inkscape:window-x="1912"
     inkscape:window-y="-8"
     inkscape:window-maximized="1" />
  <metadata
     id="metadata2569">
    <rdf:RDF>
      <cc:Work
         rdf:about="">
        <dc:format>image/svg+xml</dc:format>
        <dc:type
           rdf:resource="http://purl.org/dc/dcmitype/StillImage" />
        <dc:title></dc:title>
      </cc:Work>
    </rdf:RDF>
  </metadata>
  <g
     inkscape:label="Layer 1"
     inkscape:groupmode="layer"
     id="layer1"
     transform="translate(219.58542,-126.03534)">
    <path
       style="fill:#000000;stroke:none;stroke-width:0.03527778"
       inkscape:connector-curvature="0"
       id="path12"
       d="m -159.73637,128.11671 c -1.12889,1.12889 -2.54,3.06917 -3.13972,4.30389 -0.635,1.23472 -1.16417,2.29306 -1.19945,2.32833 -0.0353,0.0353 -1.34055,-1.16416 -2.89278,-2.64583 -1.94027,-1.86972 -3.70416,-3.175 -5.67972,-4.23333 -3.03389,-1.55223 -4.30389,-1.79917 -5.15055,-0.9525 -1.37584,1.37583 -1.94028,8.53722 -0.98778,12.52361 0.635,2.71639 2.68111,7.47889 4.51555,10.4775 l 1.51695,2.54 -1.51695,1.5875 c -0.81138,0.88194 -1.97555,2.36361 -2.50472,3.28083 l -1.02305,1.69333 -3.21028,-0.84666 c -2.54,-0.635 -4.19806,-0.84667 -7.79639,-0.88195 -5.64445,-0.0353 -8.43139,0.56445 -13.40556,2.96334 -7.51416,3.59833 -12.17083,9.87777 -13.86416,18.66194 -0.49389,2.57528 -0.77612,3.175 -1.69334,3.98639 -3.06916,2.71639 -2.08139,9.31334 1.69334,11.14778 1.37583,0.70556 1.48166,0.84667 1.55222,2.39889 0.10583,2.8575 1.94028,4.37444 6.13833,5.04472 2.92806,0.49389 16.40417,0.49389 23.95361,0.0353 6.6675,-0.42333 7.3025,-0.67028 6.94973,-2.82222 -0.10584,-0.67028 -0.49389,-1.62278 -0.88195,-2.15195 l -0.70555,-0.9525 0.88194,-0.21166 c 1.19945,-0.3175 1.37583,-0.14112 2.39889,2.08138 1.09361,2.43417 3.21028,3.88056 6.17361,4.26862 2.15195,0.28222 6.49111,-0.3175 6.6675,-0.88195 0.0705,-0.21167 0.9525,-0.28222 2.29306,-0.14111 1.19944,0.10583 3.10444,0 4.19805,-0.21167 1.65806,-0.35277 2.04611,-0.59972 2.39889,-1.41111 0.24695,-0.59972 0.3175,-1.55222 0.14111,-2.36361 -0.3175,-1.76389 -2.75166,-4.23333 -4.55083,-4.58611 -0.67028,-0.10583 -1.30528,-0.35278 -1.41111,-0.49389 -0.10583,-0.14111 0.21167,-1.12889 0.70555,-2.15194 0.91723,-2.01084 1.76389,-5.36223 2.08139,-8.255 0.10584,-0.98778 0.42334,-2.57528 0.70556,-3.52778 0.28222,-0.98778 0.70555,-3.06917 0.9525,-4.69195 l 0.38805,-2.89278 h 1.48167 c 2.50472,0 4.97417,-0.91722 6.17361,-2.29305 0.91722,-1.05833 1.09361,-1.55222 1.09361,-3.13972 0,-4.79778 -3.42194,-11.04195 -7.23194,-13.15861 -0.67028,-0.38806 -0.67028,-0.45862 -0.0706,-2.36362 1.76389,-5.60916 1.30528,-13.82888 -1.16416,-20.42583 -0.70556,-1.905 -1.48167,-2.71639 -2.50473,-2.71639 -0.24694,0 -1.37583,0.9525 -2.46944,2.08139 z m -13.61722,1.34056 c 3.21027,1.69333 7.40833,5.82083 8.99583,8.81944 1.41111,2.68111 2.50472,6.80861 2.57528,9.80722 l 0.0705,2.25778 1.79917,0.42333 c 3.95111,0.91723 7.86694,3.59834 9.59555,6.49112 1.19945,2.11666 2.25778,5.32694 2.25778,7.05555 0,3.175 -2.43417,4.30389 -8.74889,3.91583 l -3.42194,-0.17638 1.69333,0.74083 1.72861,0.77611 -0.24694,1.97556 c -0.70556,6.24416 -3.31611,13.37027 -5.99722,16.51 -1.62278,1.86972 -4.05695,3.56305 -5.96195,4.1275 -2.25778,0.67028 -1.97556,1.5875 0.81139,2.54 2.75167,0.9525 3.95111,2.04611 4.02167,3.66889 0.0705,1.19944 0.0705,1.19944 -1.905,1.51694 -4.40973,0.70556 -6.91445,-0.42333 -8.43139,-3.84528 -1.16417,-2.61055 -1.76389,-2.92805 -4.58611,-2.32833 -1.905,0.42333 -5.25639,0.52917 -6.10306,0.17639 -0.45861,-0.14111 -0.45861,-0.38806 -0.0706,-1.69333 1.12889,-3.77473 0.9525,-8.04334 -0.52917,-11.39473 -0.77611,-1.76389 -3.4925,-4.79778 -5.43277,-5.99722 -3.13973,-2.01083 -7.09084,-2.75167 -11.25362,-2.18722 -1.48166,0.21166 -2.78694,0.49389 -2.8575,0.635 -0.0705,0.10583 1.34056,0.17639 3.175,0.10583 5.11528,-0.17639 9.10167,1.23472 12.27667,4.33917 4.09222,3.95111 4.72722,9.56028 1.79917,15.34583 -0.49389,0.9525 -0.88195,1.83445 -0.88195,1.94028 0,0.10583 1.09361,0.17639 2.39889,0.17639 3.91584,0 6.63223,1.27 7.26723,3.42194 0.21166,0.70556 0.10583,0.77611 -2.50473,1.02306 -1.51694,0.17639 -8.14916,0.3175 -14.74611,0.3175 -10.90083,0 -12.13556,-0.0706 -13.72306,-0.67028 -1.30527,-0.49389 -1.79916,-0.91722 -2.18722,-1.83444 -0.635,-1.55223 -0.635,-1.5875 0.38806,-3.10445 l 0.84666,-1.27 h -1.58749 c -2.82222,0 -4.51555,-1.5875 -4.93889,-4.65666 -0.28222,-2.01084 0.52917,-3.95112 1.905,-4.65667 0.91722,-0.49389 1.05834,-0.74084 1.27,-2.82222 0.56445,-5.60917 2.99861,-10.75973 6.91445,-14.67556 3.03389,-3.06917 6.06778,-4.79778 10.58333,-6.10306 5.67972,-1.65805 11.7475,-1.55222 17.4625,0.24695 l 2.61056,0.84666 1.12889,-1.97555 c 1.23472,-2.18722 4.26861,-5.57389 5.29166,-5.89139 0.59973,-0.21167 0.45861,-0.52917 -1.16416,-2.89278 -2.18723,-3.24555 -4.23334,-7.58472 -5.08,-10.68916 -1.05834,-3.98639 -0.67028,-11.64167 0.635,-11.64167 0.17639,0 1.48166,0.59972 2.8575,1.30528 z m 17.25083,0.91722 c 1.16417,3.88055 1.72861,7.51417 1.72861,11.18305 0,3.4925 -0.70555,7.51417 -1.41111,8.21973 -0.17639,0.17639 -1.16417,0.0353 -2.25778,-0.3175 l -1.905,-0.59973 -0.21166,-2.50472 c -0.17639,-2.25778 -0.98778,-5.25639 -2.36361,-8.53722 -0.42334,-1.02306 -0.38806,-1.30528 0.77611,-3.70417 1.30527,-2.71639 3.95111,-6.10305 4.65666,-5.85611 0.21167,0.0706 0.635,1.02306 0.98778,2.11667 z m -5.22111,59.61945 c -0.52917,1.05833 -0.84667,2.18722 -0.74083,2.46944 0.10583,0.3175 1.09361,0.84667 2.18722,1.16417 2.54,0.74083 4.02167,2.01083 4.1275,3.66889 0.10583,1.09361 0,1.23472 -0.9525,1.44638 -3.38667,0.74084 -5.82083,0.14112 -5.82083,-1.44638 0,-0.81139 -1.58751,-2.71639 -2.89278,-3.52778 l -0.98778,-0.59972 1.34055,-0.91723 c 0.74084,-0.49389 2.04612,-1.65805 2.92806,-2.64583 0.84667,-0.9525 1.5875,-1.72861 1.65806,-1.65806 0.0706,0.0353 -0.3175,0.9525 -0.84667,2.04612 z" />
  </g>
</svg>
