<?xml version="1.0" encoding="UTF-8" standalone="no"?>
<!-- Created with Inkscape (http://www.inkscape.org/) -->

<svg
   xmlns:dc="http://purl.org/dc/elements/1.1/"
   xmlns:cc="http://creativecommons.org/ns#"
   xmlns:rdf="http://www.w3.org/1999/02/22-rdf-syntax-ns#"
   xmlns:svg="http://www.w3.org/2000/svg"
   xmlns="http://www.w3.org/2000/svg"
   xmlns:sodipodi="http://sodipodi.sourceforge.net/DTD/sodipodi-0.dtd"
   xmlns:inkscape="http://www.inkscape.org/namespaces/inkscape"
   width="72.626282mm"
   height="73.832565mm"
   viewBox="0 0 72.626282 73.832565"
   version="1.1"
   id="svg874"
   inkscape:version="0.92.4 (5da689c313, 2019-01-14)"
   sodipodi:docname="rat.svg">
  <defs
     id="defs868" />
  <sodipodi:namedview
     id="base"
     pagecolor="#ffffff"
     bordercolor="#666666"
     borderopacity="1.0"
     inkscape:pageopacity="0.0"
     inkscape:pageshadow="2"
     inkscape:zoom="0.35"
     inkscape:cx="137.24652"
     inkscape:cy="139.52614"
     inkscape:document-units="mm"
     inkscape:current-layer="layer1"
     showgrid="false"
     fit-margin-top="0"
     fit-margin-left="0"
     fit-margin-right="0"
     fit-margin-bottom="0"
     inkscape:window-width="1920"
     inkscape:window-height="1017"
     inkscape:window-x="1912"
     inkscape:window-y="-8"
     inkscape:window-maximized="1" />
  <metadata
     id="metadata871">
    <rdf:RDF>
      <cc:Work
         rdf:about="">
        <dc:format>image/svg+xml</dc:format>
        <dc:type
           rdf:resource="http://purl.org/dc/dcmitype/StillImage" />
        <dc:title></dc:title>
      </cc:Work>
    </rdf:RDF>
  </metadata>
  <g
     inkscape:label="Layer 1"
     inkscape:groupmode="layer"
     id="layer1"
     transform="translate(53.32207,-111.91706)">
    <path
       style="fill:#000000;stroke:none;stroke-width:0.03527778"
       inkscape:connector-curvature="0"
       id="path8"
       d="m -44.51329,112.32066 c -3.668889,1.19944 -6.208889,3.45722 -7.831667,6.91444 -1.658056,3.59834 -1.164167,8.96056 1.164167,12.59417 0.846666,1.34056 1.658055,1.69333 2.610555,1.19944 0.9525,-0.49388 1.164167,-1.19944 0.740834,-2.57527 -0.670278,-2.2225 -0.458611,-5.75028 0.493889,-7.79639 1.128889,-2.50473 2.822222,-3.59834 5.573889,-3.59834 5.150556,0 7.796389,5.18584 5.503334,10.75973 -0.458611,1.05833 -2.2225,4.30389 -3.915834,7.19666 -6.35,10.86556 -7.972778,15.02834 -8.255,21.37834 -0.3175,7.54944 1.834444,13.19389 6.985,18.34444 3.316111,3.35139 6.208889,5.11528 10.406945,6.27945 1.375833,0.38805 3.175,1.05833 3.986389,1.48166 0.846667,0.42334 2.434167,0.88195 3.4925,1.05834 2.116667,0.35278 31.6441689,0.17639 32.2086129,-0.17639 0.987777,-0.59972 -0.246944,-4.37445 -1.76389,-5.46806 -0.564444,-0.38805 -1.481667,-0.81139 -2.081387,-0.91722 -1.058334,-0.21167 -1.093613,-0.28222 -1.093613,-2.2225 0,-1.41111 0.246946,-2.46944 0.881946,-3.66889 0.45861,-0.9525 0.9525,-2.64583 1.09361,-3.77472 0.211667,-1.83445 0.282223,-2.01083 0.846667,-1.69333 1.516944,0.9525 3.175,-0.49389 3.6688901,-3.28084 0.176387,-1.05833 0.423333,-1.34055 1.23472,-1.48167 0.67028,-0.14111 1.12889,-0.52916 1.375834,-1.19944 1.340556,-3.35139 0.811389,-6.45583 -2.187221,-12.87639 l -2.3283331,-4.90361 1.058333,-6.49111 c 0.599721,-3.56306 1.0583331,-6.94972 1.0583331,-7.54945 0,-1.09361 0.564444,-1.86972 5.3975,-7.19666 2.434167,-2.68111 3.4925,-4.72723 3.4925,-6.73806 0,-1.86972 -0.9525,-3.66889 -2.04611,-3.95111 -0.423333,-0.10583 -2.504723,0.28222 -4.62139,0.88194 -2.116666,0.59973 -4.5861121,1.09362 -5.5033331,1.09362 -1.834446,0 -4.691946,0.84666 -5.644446,1.69333 -0.56444397,0.49389 -0.74083297,0.49389 -1.94027697,-0.21167 -3.52777703,-1.97555 -6.45583303,-1.69333 -7.58472303,0.74084 -1.023056,2.11666 -0.670277,4.30388 0.846667,5.53861 0.635,0.49389 0.599723,0.67028 -0.740834,3.70416 -2.5047229,5.67973 -2.2930559,5.3975 -7.0908329,8.64306 -5.644444,3.84528 -8.501946,6.13833 -11.14778,8.92528 -4.092221,4.37444 -6.773332,9.27805 -8.290277,15.16944 -0.599722,2.29306 -0.776111,3.98639 -0.776111,8.255 -0.03528,2.96334 -0.141111,5.3975 -0.282222,5.3975 -0.564444,0 -2.928056,-3.21027 -4.021667,-5.46805 -3.457222,-7.19667 -2.469444,-12.48834 4.445,-23.98889 4.868334,-8.07861 6.491112,-12.45306 6.491112,-17.4625 0,-3.98639 -0.917223,-6.27945 -3.4925,-8.96056 -2.469445,-2.57528 -5.080001,-3.81 -8.43139,-3.98639 -1.481666,-0.0705 -3.104444,0.10584 -3.986389,0.38806 z m 7.761112,2.25778 c 1.905,0.84666 4.409722,3.24555 5.291667,5.08 2.504722,5.29166 1.058333,11.46527 -5.009445,21.59 -5.044723,8.39611 -6.738056,12.66472 -6.738056,17.145 0.03528,5.89139 2.963334,12.17083 7.161389,15.20472 1.128889,0.81139 1.622778,1.51694 2.187223,3.10444 0.423333,1.12889 1.128889,2.54 1.5875,3.175 l 0.811389,1.16417 -0.846667,-0.24694 c -2.257778,-0.67028 -5.291667,-2.68111 -7.761112,-5.11528 -2.8575,-2.82222 -3.986389,-4.62139 -5.503333,-8.60778 -0.846667,-2.25778 -0.9525,-2.99861 -0.9525,-7.26722 -0.03528,-4.02167 0.105833,-5.15056 0.776111,-7.40834 1.058333,-3.42194 3.986389,-9.38388 6.985,-14.2875 1.27,-2.15194 2.928056,-5.08 3.633612,-6.52638 1.164166,-2.43417 1.27,-2.89278 1.27,-5.89139 0,-3.03389 -0.07056,-3.31611 -1.058334,-4.72723 -0.599722,-0.84666 -1.869722,-2.01083 -2.822222,-2.61055 -1.446389,-0.88195 -2.046111,-1.05834 -4.021667,-1.05834 -5.08,0 -8.184445,3.63362 -8.219723,9.56028 0,1.37584 0.07055,2.89278 0.211667,3.35139 0.105833,0.45861 -0.211667,0 -0.705556,-1.02305 -3.633611,-7.47889 1.834445,-16.01612 9.948334,-15.48695 1.164167,0.10583 2.8575,0.49389 3.774723,0.88195 z m 53.163615,-0.3175 c -0.17639,0.38805 -0.529167,0.77611 -0.776113,0.84666 -0.282221,0.14111 -0.246944,0.21167 0.141113,0.21167 0.3175,0.0353 0.705553,-0.14111 0.811387,-0.3175 0.458613,-0.74083 0.881946,-0.3175 0.881946,0.88194 0,1.69334 -0.740833,3.06917 -3.139723,5.78556 -3.84528,4.33917 -5.5738901,5.92667 -7.5141671,6.84389 -3.774723,1.79917 -6.38527897,1.05833 -7.47888997,-2.04611 l -0.52916603,-1.41111 v 1.16416 c -0.03528,1.76389 0.88194303,3.21028 2.54,3.98639 2.04611,0.91722 3.033889,0.84667 5.326943,-0.35278 l 1.975557,-1.05833 v 0.9525 c 0,1.02306 -0.81139,6.17361 -2.293057,14.9225 l -0.9525,5.50333 1.658057,4.90362 c 1.552223,4.51555 1.658056,5.11527 1.481666,7.37305 -0.105833,1.34056 -0.3175,2.75167 -0.423333,3.10445 -0.423333,0.98777 -1.023056,0.49389 -1.340556,-1.09362 -0.141111,-0.81138 -0.458611,-1.48166 -0.635,-1.48166 -0.176388,0 -0.3175,-0.67028 -0.282221,-1.51695 0.03528,-0.81139 -0.17639,-1.94027 -0.458613,-2.54 l -0.564443,-1.05833 -0.211667,1.5875 c -0.105833,0.88194 -0.282223,3.45722 -0.388056,5.75028 -0.282221,5.25639 -0.846667,7.19667 -2.751667,9.34861 -1.51694397,1.72861 -3.774721,3.70417 -4.021667,3.45722 -0.07055,-0.0353 0.07056,-0.9525 0.282223,-1.97555 0.599723,-2.82223 0.246944,-7.62 -0.670277,-9.41917 -1.411112,-2.75167 -3.951112,-3.84528 -8.2902789,-3.52778 -3.4925,0.24695 -7.020277,1.86972 -9.419167,4.30389 l -1.5875,1.62278 2.363611,-1.55222 c 6.208889,-4.16278 12.4530559,-4.51556 15.0988889,-0.88195 1.834446,2.54 2.2225,7.33778 0.9525,12.17084 l -0.493887,1.86972 h 1.164167 c 1.622777,0 3.52777703,0.98778 3.98638703,2.04611 0.24694597,0.45861 0.31749997,0.9525 0.21166697,1.09361 -0.10583397,0.10583 -5.89139,0.14111 -12.8058339,0.10583 -12.311946,-0.10583 -12.629446,-0.14111 -14.393333,-0.91722 -5.185834,-2.36361 -7.902223,-8.99583 -7.443612,-18.02694 0.423333,-7.79639 2.716389,-13.6525 7.549445,-19.40278 2.645834,-3.13972 5.820834,-5.78556 11.571111,-9.70139 2.54,-1.69333 4.9036119,-3.45722 5.3269459,-3.91583 0.388054,-0.45862 1.164166,-1.97556 1.72861,-3.31612 0.564444,-1.37583 1.622777,-3.70416 2.36361,-5.22111 l 1.340557,-2.71639 h -0.9525 c -2.151944,0 -2.963334,-2.46944 -1.340557,-4.05694 0.458613,-0.49389 0.98778,-0.88195 1.164167,-0.88195 0.740836,0 3.316113,1.09362 4.55083603,1.905 1.128887,0.77612 1.37583297,0.84667 1.62277697,0.38806 0.564443,-1.02306 3.104443,-1.97556 6.0325,-2.29306 1.552223,-0.17638 4.1980561,-0.70555 5.8561101,-1.19944 3.704169,-1.05833 3.633613,-1.05833 3.175003,-0.24694 z m -4.903613,41.94527 c 0.3175,2.18723 0.03528,4.69195 -0.564444,4.69195 -0.17639,0 -0.670279,-1.23472 -1.0583331,-2.75167 -0.423334,-1.51694 -1.199446,-3.91583 -1.728613,-5.36222 -0.740833,-2.11667 -0.881944,-2.92806 -0.705554,-4.23333 l 0.246944,-1.62278 1.72861,3.59833 c 0.9877791,2.04611 1.8697231,4.48028 2.0813901,5.67972 z" />
  </g>
</svg>
