<?xml version="1.0" encoding="UTF-8" standalone="no"?>
<!-- Created with Inkscape (http://www.inkscape.org/) -->

<svg xmlns:dc="http://purl.org/dc/elements/1.1/" 
    xmlns:cc="http://creativecommons.org/ns#" 
    xmlns:rdf="http://www.w3.org/1999/02/22-rdf-syntax-ns#" 
    xmlns:svg="http://www.w3.org/2000/svg" 
    xmlns="http://www.w3.org/2000/svg" 
    xmlns:sodipodi="http://sodipodi.sourceforge.net/DTD/sodipodi-0.dtd" 
    xmlns:inkscape="http://www.inkscape.org/namespaces/inkscape" width="77.31144mm" height="73.947517mm" viewBox="0 0 77.31144 73.947517" version="1.1" id="svg5974" inkscape:version="0.92.4 (5da689c313, 2019-01-14)" sodipodi:docname="Rooster.svg">
    <defs id="defs5968" />
    <sodipodi:namedview id="base" pagecolor="#ffffff" bordercolor="#666666" borderopacity="1.0" inkscape:pageopacity="0.0" inkscape:pageshadow="2" inkscape:zoom="0.35" inkscape:cx="-426.75672" inkscape:cy="408.31482" inkscape:document-units="mm" inkscape:current-layer="layer1" showgrid="false" fit-margin-top="0" fit-margin-left="0" fit-margin-right="0" fit-margin-bottom="0" inkscape:window-width="1920" inkscape:window-height="1017" inkscape:window-x="1912" inkscape:window-y="-8" inkscape:window-maximized="1" />
    <metadata id="metadata5971">
        <rdf:RDF>
            <cc:Work rdf:about="">
                <dc:format>image/svg+xml</dc:format>
                <dc:type rdf:resource="http://purl.org/dc/dcmitype/StillImage" />
                <dc:title></dc:title>
            </cc:Work>
        </rdf:RDF>
    </metadata>
    <g inkscape:label="Layer 1" inkscape:groupmode="layer" id="layer1" transform="translate(-95.903787,-182.91911)">
        <path style="fill:#000000;stroke:none;stroke-width:0.03527778" inkscape:connector-curvature="0" id="path26" d="m 146.71377,183.34772 c -0.38806,0.28223 -1.12889,0.38806 -1.905,0.24695 -1.02306,-0.14111 -1.44639,-0.0353 -2.04611,0.56444 -0.91723,0.91723 -0.91723,1.44639 -0.0353,2.57528 l 0.67027,0.88195 -1.02305,0.98777 c -0.59972,0.56445 -1.37583,1.905 -1.79917,2.96334 -0.9525,2.50472 -0.74083,6.45583 0.56445,11.25361 0.49389,1.79916 0.88194,3.52777 0.88194,3.81 0,1.05833 -2.61055,3.35138 -5.3975,4.72722 -1.55222,0.77611 -2.89278,1.34055 -2.96333,1.27 -0.0705,-0.0705 0.24694,-0.91722 0.70555,-1.86972 2.8575,-5.715 3.63361,-12.52361 1.86973,-16.72167 -1.44639,-3.45722 -5.96195,-7.76111 -9.63083,-9.13694 -1.02306,-0.38806 -2.8575,-0.84667 -4.05695,-1.05834 -6.17361,-0.9525 -13.26444,2.54 -16.22778,8.00806 -0.52916,0.91722 -1.51694,3.66889 -2.22249,6.06778 -1.5875,5.46805 -2.57528,7.40833 -4.586116,9.06638 -1.799167,1.51695 -2.046111,2.61056 -0.811389,3.45723 1.023056,0.74083 4.621385,0.74083 6.596945,0.0353 1.48167,-0.49389 1.48167,-0.49389 1.27,0.28222 -2.01083,7.23194 -4.79778,12.80583 -9.278056,18.69722 -1.199444,1.5875 -1.516944,2.25778 -1.340555,2.89278 0.282222,1.12889 1.27,1.34055 5.080001,1.16417 2.54,-0.10584 3.4925,-0.35278 5.50333,-1.27 1.30528,-0.635 2.32833,-0.91723 2.2225,-0.67028 -0.10583,0.21166 -0.45861,1.12889 -0.81139,2.01083 -1.05833,2.64583 -3.84527,7.09083 -6.27944,10.01889 -2.293057,2.71639 -2.751668,3.88055 -1.905002,4.72722 0.881942,0.88195 4.727222,0.17639 8.113892,-1.55222 l 1.65805,-0.84667 -0.74083,1.76389 c -0.70556,1.72861 -0.70556,1.79917 -0.10583,2.46945 0.35277,0.38805 0.9525,0.70555 1.30527,0.70555 2.46945,0 11.88861,-9.525 14.46389,-14.605 0.38806,-0.77611 0.77611,-1.51694 0.84667,-1.5875 0.0706,-0.0706 0.84666,0.52917 1.72861,1.34056 0.84667,0.77611 1.69333,1.44639 1.86972,1.44639 0.17639,0 0.24695,1.30527 0.14111,2.89277 -0.17639,3.4925 -1.55222,7.90223 -2.57528,8.21973 -0.81138,0.28222 -2.43416,2.18722 -2.43416,2.89277 0,0.28223 -0.3175,0.91723 -0.70556,1.41111 -0.77611,1.02306 -0.9525,2.89278 -0.28222,3.56306 0.28222,0.28222 2.32833,0.42333 6.84389,0.42333 5.99722,0 6.49111,-0.0353 6.91444,-0.67027 0.49389,-0.70556 0.49389,-0.70556 0.91723,0 0.38805,0.635 0.88194,0.67027 6.38527,0.67027 6.31472,0 7.09084,-0.17639 7.09084,-1.69333 0,-1.37583 -2.75167,-3.59833 -4.445,-3.59833 -0.49389,0 -0.56445,-0.24695 -0.38806,-1.55223 0.35278,-2.57527 1.27,-4.40972 2.50472,-5.04472 2.15195,-1.12889 4.72722,-3.24555 6.77334,-5.67972 1.51694,-1.79917 2.64583,-2.71639 4.1275,-3.42194 4.83305,-2.32834 7.90222,-4.97417 10.30111,-8.78417 2.43416,-3.95111 3.13972,-6.38528 3.13972,-10.97139 0.0353,-3.73944 0,-3.98639 -1.16417,-6.35 -1.48166,-2.99861 -4.83305,-6.45583 -8.21972,-8.39611 -2.2225,-1.30528 -2.32833,-1.44639 -2.46944,-2.82222 -0.10584,-0.98778 0,-1.5875 0.3175,-1.76389 0.56444,-0.35278 0.59972,-2.61056 0.10583,-4.02167 -0.21167,-0.52917 -1.02306,-1.62278 -1.79917,-2.39889 -0.77611,-0.77611 -2.08139,-2.43416 -2.89278,-3.66889 -1.905,-2.96333 -3.24555,-3.66889 -6.985,-3.77472 -1.86972,-0.0353 -2.96333,0.10583 -3.38666,0.42333 z m 3.88055,2.04612 1.65806,0.81138 -0.24695,-0.88194 -0.21166,-0.88194 1.51694,0.84666 c 1.30528,0.74084 2.50472,2.2225 3.42195,4.19806 0.10583,0.28222 0.91722,1.16416 1.72861,1.94028 2.01083,1.905 2.64583,4.30388 0.91722,3.38666 -0.42333,-0.21166 -1.41111,-0.38805 -2.25778,-0.35278 -1.34055,0 -1.44639,0.0706 -0.81139,0.42334 1.55223,0.9525 3.35139,2.99861 3.35139,3.88055 0,0.91723 -0.70555,1.41111 -1.5875,1.09361 -0.28222,-0.10583 -0.77611,0.0353 -1.09361,0.38806 -1.37583,1.37583 -2.57528,0.0706 -3.13972,-3.4925 -0.28222,-1.72861 -0.88195,-1.05833 -0.88195,0.9525 0,3.175 2.96334,5.75028 4.33917,3.77472 0.45861,-0.67028 0.56445,-0.67028 2.25778,-0.17639 3.91583,1.16417 9.10167,5.50334 10.86555,9.10167 1.905,3.95111 1.51695,9.24278 -1.09361,14.39333 -3.06916,6.17361 -10.08944,10.54806 -21.13139,13.22917 -1.94027,0.45861 -3.98638,0.84666 -4.55083,0.84666 -0.635,0 -1.5875,0.49389 -2.64583,1.34056 -2.18722,1.86972 -4.16278,3.06917 -5.82083,3.63361 -1.09362,0.38806 -1.69334,0.9525 -2.71639,2.54 -1.51695,2.32833 -2.57528,5.15056 -2.2225,5.99722 0.10583,0.3175 0.77611,0.67028 1.48166,0.81139 1.44639,0.24695 3.06917,0.98778 3.42195,1.55222 0.14111,0.24695 -1.65806,0.35278 -5.25639,0.35278 -3.13972,0 -5.50333,-0.14111 -5.50333,-0.3175 0,-0.635 1.09361,-1.44639 1.905,-1.44639 0.84666,0 1.69333,-0.77611 2.11666,-1.905 0.21167,-0.59972 0.10584,-0.635 -1.02305,-0.45861 -1.5875,0.24695 -1.5875,-0.24694 0.0353,-0.88194 1.09361,-0.45861 1.37583,-0.81139 2.15194,-2.96334 0.52917,-1.48166 0.98778,-3.73944 1.16417,-5.78555 0.17639,-1.83445 0.38805,-3.66889 0.52917,-4.05695 0.17638,-0.59972 -0.0353,-0.84666 -1.19945,-1.34055 -0.77611,-0.35278 -2.2225,-1.51695 -3.21028,-2.61056 -0.98777,-1.05833 -1.83444,-1.905 -1.905,-1.83444 -0.0353,0.0705 -0.77611,1.41111 -1.5875,2.96333 -1.5875,2.99861 -3.52777,5.715 -5.85611,8.255 -1.62277,1.79917 -6.49111,6.0325 -6.91444,6.0325 -0.28222,0 0.0353,-0.74083 3.03389,-7.23194 l 1.30528,-2.82222 -1.30528,1.51694 c -2.57528,2.96333 -7.62,5.92667 -11.28889,6.63222 l -1.41111,0.24695 1.62278,-1.76389 c 3.52777,-3.95111 6.52638,-9.10167 8.07861,-13.93472 0.70555,-2.29306 1.905,-9.06639 1.62277,-9.34862 -0.0706,-0.0705 -0.38805,0.635 -0.70555,1.5875 -1.79917,5.36223 -5.715,8.18445 -11.43,8.18445 h -2.257781 l 0.564444,-0.81139 c 5.326947,-7.23194 8.078607,-12.80583 9.877777,-20.03778 1.27,-5.04472 1.27,-5.15055 -0.67028,-3.66889 -0.88194,0.67028 -2.18722,1.37584 -2.92805,1.5875 -1.37584,0.35278 -4.65667,0.49389 -4.65667,0.17639 0,-0.10583 0.56445,-0.70555 1.27,-1.30527 1.65806,-1.44639 2.99861,-4.19806 4.33917,-8.89 1.48166,-5.08 2.61055,-7.26723 4.79777,-9.34861 4.65667,-4.40973 10.68917,-5.25639 16.58056,-2.36362 2.82222,1.41112 5.64444,4.02167 7.02028,6.52639 2.50472,4.58611 1.44639,11.81806 -2.78695,19.26167 -0.88194,1.51694 -1.51694,2.82222 -1.44639,2.89278 0.0706,0.0705 1.27,-0.28223 2.71639,-0.81139 6.10306,-2.18723 10.65389,-5.32695 11.07722,-7.69056 0.14111,-0.67028 -0.21166,-2.78694 -0.84666,-5.50333 -1.72861,-6.94972 -1.41111,-9.59556 1.41111,-12.3825 l 1.62278,-1.5875 -0.81139,-1.05833 c -0.45861,-0.56445 -0.84667,-1.12889 -0.84667,-1.27 0,-0.3175 3.175,0.0705 3.98639,0.49389 0.70555,0.35277 0.74083,0.17638 0.24694,-0.81139 -0.52916,-0.91723 0.17639,-0.88195 2.2225,0.17639 z m 2.8575,53.86916 c -1.02305,1.16417 -4.48027,3.73944 -5.89139,4.40972 -1.02305,0.49389 -1.41111,0.98778 -2.08138,2.75167 -0.49389,1.34055 -0.81139,2.92805 -0.81139,4.23333 v 2.08139 l 1.905,0.59972 c 1.02305,0.35278 2.11666,0.88195 2.43416,1.19945 0.52917,0.52916 0.14111,0.56444 -4.62139,0.56444 -2.96333,0 -5.18583,-0.14111 -5.18583,-0.3175 0,-0.635 1.09361,-1.44639 1.94028,-1.44639 0.59972,0 1.02305,-0.3175 1.41111,-1.05833 0.74083,-1.41111 0.67028,-1.51694 -0.52917,-1.30528 -1.48166,0.3175 -1.34055,-0.35278 0.21167,-0.98778 l 1.30528,-0.52916 -0.24695,-2.75167 c -0.10583,-1.48167 -0.3175,-3.38667 -0.42333,-4.19805 -0.14111,-1.09362 -0.0706,-1.55223 0.24694,-1.65806 0.28223,-0.0706 1.83445,-0.38806 3.4925,-0.70556 1.65806,-0.3175 3.95112,-0.88194 5.11528,-1.23472 1.16417,-0.35278 2.18722,-0.56444 2.25778,-0.52916 0.0706,0.0706 -0.14111,0.45861 -0.52917,0.88194 z m -11.81805,7.54944 c 0.0353,1.23473 -0.14111,1.51695 -1.19945,2.18723 -0.70555,0.49389 -1.30527,1.19944 -1.44638,1.76389 -0.10584,0.56444 -0.52917,1.62277 -0.9525,2.43416 l -0.70556,1.44639 -1.02306,-1.12889 c -0.59972,-0.70555 -1.62277,-1.34055 -2.61055,-1.62278 -1.44639,-0.42333 -1.55222,-0.56444 -1.37583,-1.37583 0.14111,-0.49389 0.77611,-1.76389 1.44638,-2.8575 0.91723,-1.55222 1.44639,-2.04611 2.50473,-2.36361 0.74083,-0.24694 2.04611,-0.88194 2.92805,-1.44639 l 1.5875,-0.98778 0.42333,1.27 c 0.21167,0.70556 0.42334,1.905 0.42334,2.68111 z" />
    </g>
</svg>
