<?xml version="1.0" encoding="UTF-8" standalone="no"?>
<svg
   xmlns:dc="http://purl.org/dc/elements/1.1/"
   xmlns:cc="http://creativecommons.org/ns#"
   xmlns:rdf="http://www.w3.org/1999/02/22-rdf-syntax-ns#"
   xmlns:svg="http://www.w3.org/2000/svg"
   xmlns="http://www.w3.org/2000/svg"
   xmlns:sodipodi="http://sodipodi.sourceforge.net/DTD/sodipodi-0.dtd"
   xmlns:inkscape="http://www.inkscape.org/namespaces/inkscape"
   version="1.0"
   width="245.59395pt"
   height="246.78928pt"
   viewBox="0 0 245.59395 246.78928"
   preserveAspectRatio="xMidYMid meet"
   id="svg10"
   sodipodi:docname="depositphotos_76282647-stock-illustration-vector-set-of-stylized-chinese tiger.svg"
   inkscape:version="0.92.4 (5da689c313, 2019-01-14)">
  <defs
     id="defs14" />
  <sodipodi:namedview
     pagecolor="#ffffff"
     bordercolor="#666666"
     borderopacity="1"
     objecttolerance="10"
     gridtolerance="10"
     guidetolerance="10"
     inkscape:pageopacity="0"
     inkscape:pageshadow="2"
     inkscape:window-width="1920"
     inkscape:window-height="1017"
     id="namedview12"
     showgrid="false"
     fit-margin-top="0"
     fit-margin-left="0"
     fit-margin-right="0"
     fit-margin-bottom="0"
     inkscape:zoom="1.1493506"
     inkscape:cx="204.59249"
     inkscape:cy="225.02613"
     inkscape:window-x="-8"
     inkscape:window-y="-8"
     inkscape:window-maximized="1"
     inkscape:current-layer="g8" />
  <metadata
     id="metadata2">
Created by potrace 1.16, written by Peter Selinger 2001-2019
<rdf:RDF>
  <cc:Work
     rdf:about="">
    <dc:format>image/svg+xml</dc:format>
    <dc:type
       rdf:resource="http://purl.org/dc/dcmitype/StillImage" />
    <dc:title></dc:title>
  </cc:Work>
</rdf:RDF>
</metadata>
  <g
     transform="matrix(0.1,0,0,-0.1,-5.5,282.78929)"
     id="g8"
     style="fill:#000000;stroke:none">
    <path
       d="m 1818,2803 c -15,-15 -31,-40 -37,-55 -7,-19 -33,-40 -88,-70 -114,-62 -307,-211 -353,-271 -55,-74 -104,-181 -96,-213 15,-59 -158,-241 -299,-317 -87,-46 -133,-82 -203,-160 -19,-20 -39,-37 -46,-37 -24,0 -127,39 -188,72 -185,98 -261,293 -156,395 78,76 209,74 238,-3 6,-14 10,-55 10,-91 0,-109 34,-153 120,-153 96,0 115,99 56,286 -47,146 -125,232 -233,254 -48,10 -71,10 -142,-4 -159,-32 -264,-104 -317,-218 -27,-58 -29,-72 -29,-173 0,-124 18,-187 80,-293 63,-108 131,-167 295,-257 58,-32 113,-65 124,-74 36,-31 53,-84 59,-181 4,-52 13,-117 21,-144 15,-48 10,-86 -14,-101 -6,-3 -33,-33 -60,-66 -61,-73 -62,-90 -18,-214 23,-66 31,-106 30,-149 -3,-140 68,-205 224,-206 101,0 141,22 163,89 18,58 6,99 -39,128 -63,41 -63,41 -56,106 7,71 42,151 95,222 21,27 50,71 65,97 15,25 33,52 41,58 26,22 18,-51 -16,-142 -50,-135 -31,-206 72,-258 20,-11 63,-42 95,-70 80,-68 147,-93 249,-93 91,1 188,31 206,65 14,25 3,83 -22,124 -25,42 -71,60 -143,57 -41,-2 -73,3 -103,17 l -44,19 30,39 c 53,65 95,214 107,377 7,83 7,83 43,103 20,12 71,50 112,86 l 76,64 51,-51 c 36,-36 60,-72 77,-117 36,-92 67,-134 117,-159 53,-25 97,-26 158,-3 55,21 80,64 80,138 0,103 -45,209 -139,324 -88,107 -86,109 64,87 l 79,-12 9,-37 c 11,-46 63,-95 112,-104 46,-8 122,29 152,75 47,70 24,188 -62,325 -48,78 -52,81 -107,98 -32,9 -105,23 -162,29 -94,11 -105,15 -115,36 -14,30 -14,76 -1,68 14,-9 102,35 174,87 101,72 111,152 32,266 -14,20 -31,53 -37,72 -24,71 -86,130 -137,130 -15,0 -21,9 -25,42 -7,54 -47,93 -86,83 -30,-7 -35,-7 -81,1 -29,5 -39,1 -62,-23 z m 79,-54 c 7,-13 14,-31 16,-40 3,-10 35,-24 84,-38 43,-12 84,-24 91,-27 11,-3 10,-8 -2,-26 -24,-34 -20,-41 23,-34 39,6 40,5 52,-32 7,-20 27,-58 44,-84 39,-56 51,-108 33,-142 -7,-13 -43,-44 -79,-69 -105,-72 -102,-71 -159,-46 -48,20 -51,21 -76,4 -31,-20 -44,-9 -44,38 0,25 -3,27 -22,21 -13,-3 -31,-14 -41,-22 -16,-14 -19,-14 -27,-2 -6,8 -10,34 -10,58 0,49 -15,54 -60,22 -28,-20 -28,-20 -33,1 -6,24 6,72 28,105 8,13 11,24 5,24 -23,0 -50,-65 -50,-121 0,-31 3,-59 6,-62 4,-4 20,5 37,19 33,28 46,21 47,-26 1,-14 9,-40 18,-58 l 18,-33 22,31 c 13,16 26,30 31,30 5,0 14,-20 20,-45 12,-47 29,-57 51,-30 18,22 28,19 45,-15 17,-33 19,-44 6,-36 -5,3 7,-26 27,-65 26,-53 36,-87 40,-139 4,-63 2,-74 -28,-132 -50,-98 -50,-98 -101,-28 -24,33 -45,60 -47,60 -2,0 10,-26 27,-57 37,-67 37,-73 11,-73 -45,0 -120,-60 -120,-97 0,-17 41,2 112,53 l 47,33 21,-28 20,-29 -37,-19 c -39,-20 -81,-68 -70,-79 4,-4 37,8 73,26 l 67,33 18,-24 c 15,-19 16,-26 6,-34 -52,-41 -65,-53 -76,-73 -14,-27 -11,-27 40,-2 81,42 87,42 104,10 19,-38 20,-37 -14,-43 -32,-7 -90,-52 -80,-62 6,-5 44,2 110,21 22,6 39,-42 39,-112 0,-60 -12,-76 -66,-94 -82,-28 -154,25 -193,141 -20,60 -31,74 -164,206 -88,88 -157,148 -181,158 -21,9 -40,15 -42,13 -2,-2 20,-20 49,-39 28,-20 72,-60 96,-89 l 44,-54 -44,-40 c -120,-107 -224,-167 -453,-262 -92,-38 -131,-59 -167,-94 -25,-25 -48,-52 -51,-60 -3,-10 -12,-6 -34,18 -28,31 -203,127 -213,117 -9,-9 63,-76 104,-97 22,-12 56,-35 77,-52 36,-30 36,-31 20,-58 -9,-16 -19,-28 -22,-28 -3,0 -14,14 -25,31 -20,31 -81,69 -110,69 -11,0 5,-24 45,-69 54,-61 60,-72 50,-91 -11,-20 -13,-20 -62,25 -91,81 -89,56 4,-76 17,-24 15,-69 -2,-69 -5,0 -27,23 -50,50 -31,37 -49,50 -68,50 h -27 l 22,-18 c 12,-9 28,-33 36,-52 8,-20 28,-49 46,-65 18,-18 31,-40 31,-54 v -25 l -27,26 c -69,64 -106,63 -56,-2 21,-27 46,-60 55,-74 10,-13 39,-32 67,-41 63,-21 75,-35 67,-80 -10,-49 -38,-65 -119,-65 -128,0 -170,37 -173,154 -2,48 -12,100 -33,161 -17,49 -31,99 -31,110 0,11 29,52 64,91 35,40 66,83 70,97 3,13 -1,46 -9,73 -8,27 -18,94 -21,149 -5,75 -13,111 -30,145 -24,49 -59,90 -75,90 -8,0 -10,28 -8,82 4,71 2,83 -13,86 -21,4 -43,-67 -34,-110 l 6,-29 -80,42 c -44,22 -98,59 -120,80 -22,21 -43,39 -48,39 -7,0 -49,50 -66,78 -6,10 7,29 39,62 45,46 52,70 19,70 -7,0 -32,-16 -54,-36 l -40,-36 -20,43 c -11,24 -20,49 -20,55 0,10 44,32 93,48 21,7 23,34 2,42 -8,3 -36,-1 -62,-10 -25,-9 -48,-16 -50,-16 -2,0 -3,25 -3,55 0,60 -6,55 90,72 31,6 46,14 48,27 3,16 -3,17 -62,14 -40,-2 -66,1 -66,7 1,21 39,95 50,95 6,0 38,-11 71,-24 58,-24 94,-25 86,-2 -2,6 -32,26 -66,43 l -62,33 47,30 c 27,16 51,30 55,30 4,0 25,-20 47,-45 37,-42 60,-54 75,-39 8,9 -16,55 -42,78 -12,11 -21,23 -21,27 0,7 39,14 110,22 12,2 16,-13 20,-63 5,-59 7,-65 29,-68 24,-4 24,-3 19,62 -5,53 -3,66 9,66 21,0 93,-39 93,-50 0,-6 6,-10 13,-10 6,0 17,-10 23,-23 6,-12 25,-50 42,-83 37,-73 63,-234 42,-260 -16,-18 -64,-18 -80,1 -16,19 -7,31 29,38 21,4 30,13 34,33 4,24 2,26 -22,21 -14,-3 -34,-9 -43,-12 -15,-6 -18,-2 -18,23 0,24 7,34 34,50 27,16 33,25 29,41 -6,24 -10,25 -43,7 -23,-13 -26,-12 -41,12 -14,25 -14,29 3,57 21,35 24,71 6,78 -7,2 -22,-12 -34,-32 -15,-28 -26,-35 -45,-34 -103,10 -147,4 -196,-26 -70,-43 -102,-95 -110,-177 -4,-40 -2,-73 5,-87 6,-12 18,-38 26,-57 9,-19 25,-47 37,-61 l 21,-26 -31,-48 c -17,-27 -31,-55 -31,-62 0,-27 38,-11 65,27 15,22 32,40 37,40 5,0 22,-10 38,-22 l 30,-22 -24,-25 c -47,-51 -57,-98 -18,-84 18,6 22,10 59,57 l 22,28 69,-28 68,-28 -4,-51 c -5,-62 21,-177 53,-230 21,-36 104,-125 93,-100 -2,6 -18,39 -35,75 -31,66 -56,155 -69,243 -6,43 -5,47 15,47 12,0 24,-8 27,-17 19,-56 60,-127 95,-163 22,-23 43,-40 45,-38 2,3 -19,54 -47,115 l -52,110 24,32 c 21,29 25,31 34,15 50,-86 152,-210 163,-199 6,5 -51,114 -98,188 l -39,62 26,27 c 15,16 32,28 37,27 6,0 26,-31 43,-68 31,-65 110,-167 120,-157 3,3 -22,61 -55,129 l -60,125 40,22 c 22,12 41,20 42,19 2,-2 10,-17 19,-34 25,-50 105,-153 127,-165 16,-9 8,14 -40,109 -33,67 -60,123 -60,125 0,3 13,14 29,25 l 29,21 45,-62 c 51,-71 114,-135 123,-125 7,7 -31,76 -92,164 l -42,61 23,22 23,21 21,-34 c 25,-41 98,-110 137,-130 81,-41 77,-28 -23,76 -57,58 -103,112 -103,119 0,8 7,24 16,36 l 16,23 59,-55 c 61,-57 124,-98 169,-111 21,-6 17,1 -25,45 -27,28 -78,72 -112,98 -35,25 -63,52 -63,59 0,8 7,28 16,44 15,30 15,31 -5,24 -19,-6 -20,-4 -11,19 5,15 17,41 26,59 16,29 18,30 25,12 4,-11 8,-39 8,-61 1,-51 22,-79 104,-137 34,-25 77,-63 96,-86 18,-23 35,-40 38,-38 14,14 -54,111 -116,167 -57,50 -72,70 -76,99 -3,20 -14,52 -24,73 l -18,36 37,41 c 21,23 42,41 48,41 19,0 22,-34 7,-84 -22,-71 -13,-89 75,-150 42,-30 96,-76 118,-103 52,-60 54,-45 4,33 -35,55 -115,134 -133,134 -23,0 -28,40 -13,88 15,46 15,53 0,84 l -17,33 32,27 c 18,15 35,25 38,22 3,-3 8,-50 11,-105 5,-93 7,-101 34,-127 23,-21 27,-23 20,-7 -8,20 -9,43 -4,150 2,40 -3,71 -12,90 -15,27 -14,30 7,47 13,10 25,18 27,18 2,0 11,-15 21,-33 21,-38 57,-66 57,-43 0,7 -7,33 -15,57 -15,40 -14,45 2,56 24,18 41,16 47,-5 4,-11 18,-29 31,-42 l 25,-23 v 24 c 0,13 -4,39 -10,58 -8,28 -6,38 10,59 11,13 20,29 20,35 0,16 32,48 44,44 6,-2 16,-14 23,-28 z m 237,-755 c 12,-5 15,-15 10,-43 -3,-20 0,-49 6,-66 l 12,-30 19,63 c 19,60 21,62 54,62 39,0 41,-4 20,-40 -8,-14 -14,-41 -14,-60 v -35 l 22,29 c 12,16 33,43 48,59 l 25,29 18,-26 c 17,-27 17,-27 -18,-67 -57,-62 -49,-74 20,-34 l 43,25 21,-39 c 11,-22 20,-42 20,-44 0,-2 -17,-9 -38,-15 -21,-7 -47,-21 -57,-32 l -19,-21 67,7 67,7 v -45 c 0,-54 -26,-92 -74,-108 -61,-20 -116,21 -116,88 0,19 -9,45 -20,59 -18,23 -20,24 -20,6 0,-19 -3,-19 -86,-7 -47,7 -88,15 -90,17 -2,2 5,26 17,52 18,41 21,61 16,132 -4,75 -3,83 13,83 10,0 25,-3 34,-6 z m -704,-913 c 0,-5 -3,-23 -6,-40 l -6,-31 h -144 -144 v 30 30 l 68,1 c 37,1 94,5 127,9 89,11 105,11 105,1 z m -32,-142 -11,-32 -121,6 c -109,6 -119,5 -101,-9 28,-21 111,-44 159,-44 40,-1 41,-1 20,-18 -12,-10 -26,-27 -32,-39 -28,-51 90,-121 186,-110 78,9 112,-13 126,-80 7,-30 6,-31 -45,-48 -66,-22 -170,-23 -227,-1 -24,8 -65,34 -90,57 -26,22 -67,53 -92,67 -76,43 -100,71 -100,114 0,43 2,44 33,24 30,-19 93,-30 101,-18 3,6 -20,25 -51,43 -32,18 -59,33 -61,34 -1,1 5,18 13,38 l 15,36 112,4 c 62,1 127,4 145,5 32,2 32,2 21,-29 z"
       id="path4"
       inkscape:connector-curvature="0" />
  </g>
</svg>
