<?xml version="1.0" standalone="no"?>
<!DOCTYPE svg PUBLIC "-//W3C//DTD SVG 20010904//EN"
 "http://www.w3.org/TR/2001/REC-SVG-20010904/DTD/svg10.dtd">
<svg version="1.0" xmlns="http://www.w3.org/2000/svg"
 width="303.000000pt" height="369.000000pt" viewBox="0 0 303.000000 369.000000"
 preserveAspectRatio="xMidYMid meet">
<metadata>
Created by potrace 1.16, written by Peter Selinger 2001-2019
</metadata>
<g transform="translate(0.000000,369.000000) scale(0.100000,-0.100000)"
fill="#000000" stroke="none">
<path d="M2273 3302 c-7 -4 -19 -25 -28 -45 -8 -21 -25 -47 -37 -59 -20 -20
-20 -22 -4 -79 9 -32 16 -69 16 -81 0 -20 -2 -20 -35 12 -19 18 -37 46 -40 62
-8 33 -7 33 -45 13 -35 -18 -36 -29 -13 -101 9 -30 13 -57 10 -61 -10 -9 -63
44 -77 77 l-12 28 -34 -20 c-25 -15 -33 -25 -28 -37 38 -88 40 -108 22 -212
-11 -63 -10 -74 5 -101 22 -39 17 -44 -16 -18 -34 27 -50 86 -43 164 2 33 0
80 -6 103 l-10 42 -27 -16 c-14 -10 -34 -25 -43 -34 -16 -16 -16 -20 -2 -49
10 -20 14 -45 11 -68 -3 -20 -9 -60 -12 -88 l-7 -51 50 -37 c67 -48 138 -128
168 -188 13 -26 24 -50 24 -53 0 -15 -18 0 -45 37 -33 45 -149 141 -208 173
-57 30 -70 86 -41 171 16 48 12 94 -8 94 -13 0 -108 -99 -108 -112 0 -6 9 -21
19 -35 11 -13 23 -45 27 -71 9 -67 27 -95 83 -136 63 -47 122 -117 150 -180
27 -63 27 -78 -2 -39 -35 48 -95 103 -180 167 -86 63 -107 96 -107 170 0 47
-7 76 -20 76 -6 0 -60 -113 -60 -126 0 -3 9 -2 20 1 26 8 25 -5 -1 -56 -11
-23 -18 -43 -16 -45 2 -3 37 -29 76 -59 69 -51 164 -136 205 -183 l19 -22 -34
12 c-58 20 -140 73 -221 142 l-77 66 -20 -27 c-12 -14 -21 -30 -21 -36 0 -17
135 -170 200 -226 33 -29 59 -55 57 -57 -9 -10 -102 34 -153 72 -50 38 -125
123 -137 156 -3 9 -14 4 -35 -16 l-31 -29 20 -26 c72 -94 167 -257 155 -268
-8 -9 -131 123 -171 183 -21 32 -40 61 -41 63 -3 4 -31 -14 -67 -43 -17 -13
-16 -17 14 -72 43 -79 101 -192 116 -228 12 -26 12 -28 -4 -15 -44 32 -108
110 -149 181 l-46 78 -49 -25 c-27 -14 -49 -29 -49 -34 0 -4 19 -46 41 -92 66
-135 110 -232 105 -236 -11 -12 -117 127 -156 205 -25 50 -50 91 -56 91 -6 1
-28 -14 -49 -32 l-37 -33 45 -69 c74 -116 142 -243 134 -251 -14 -15 -187 197
-210 258 -3 9 -16 2 -40 -22 l-36 -35 24 -50 c67 -142 115 -248 112 -251 -6
-6 -117 108 -117 119 0 6 -6 18 -13 26 -8 9 -24 41 -36 73 -17 43 -29 58 -48
63 -14 3 -27 5 -28 3 -7 -7 24 -179 44 -246 12 -40 39 -107 60 -148 21 -41 35
-74 32 -74 -11 1 -46 35 -82 80 -68 85 -99 187 -99 331 0 76 0 77 -30 89 -17
7 -33 10 -36 8 -7 -7 -34 -155 -34 -188 0 -20 10 -35 35 -54 19 -15 51 -55 71
-89 37 -61 38 -64 45 -203 5 -90 13 -154 23 -178 21 -50 20 -105 -1 -136 -9
-14 -47 -57 -84 -96 -37 -40 -70 -81 -74 -93 -4 -13 6 -54 26 -108 47 -128 59
-180 59 -258 0 -120 50 -176 172 -189 132 -15 198 18 198 98 0 38 -4 48 -29
65 -16 12 -37 21 -46 21 -34 0 -85 33 -107 69 -13 20 -42 60 -65 88 -48 59
-51 65 -25 57 48 -16 81 -36 107 -66 l30 -33 3 32 c3 27 -4 38 -39 70 -23 21
-51 58 -62 82 -11 24 -31 55 -45 68 l-25 23 31 0 c25 0 41 -12 89 -66 52 -59
59 -63 70 -48 21 28 17 39 -52 140 -52 77 -60 94 -42 88 26 -8 49 -25 101 -78
37 -37 40 -38 52 -21 8 10 14 24 14 31 0 15 -36 60 -104 133 l-51 53 35 -7
c68 -14 102 -39 153 -109 13 -18 15 -17 35 12 12 16 22 35 22 41 0 12 -95 85
-124 95 -31 11 -122 88 -141 119 -9 15 -15 27 -13 27 2 0 57 -27 123 -60 78
-39 132 -73 154 -98 32 -35 34 -36 45 -17 45 78 130 132 345 220 140 56 255
113 330 163 61 40 201 157 214 179 19 31 -111 170 -204 221 -49 26 -42 28 27
7 47 -14 89 -46 145 -110 14 -17 43 -46 65 -66 21 -20 78 -76 126 -125 75 -78
88 -97 103 -149 32 -111 91 -186 156 -200 46 -10 116 3 145 29 33 27 42 95 24
179 -13 66 -17 67 -112 41 -32 -9 -61 -14 -65 -10 -13 13 53 68 95 79 23 6 42
14 42 17 0 3 -9 20 -20 38 -23 37 -32 37 -110 -3 -25 -12 -55 -25 -68 -29
l-22 -7 20 35 c21 35 80 86 99 86 16 0 14 8 -15 45 l-25 33 -58 -32 c-79 -45
-121 -59 -121 -41 0 24 49 73 95 95 l44 21 -25 39 -26 39 -42 -33 c-48 -38
-127 -86 -144 -86 -25 0 -10 34 31 76 30 30 57 46 90 55 l47 11 -29 52 c-42
74 -51 112 -15 60 16 -23 41 -56 57 -75 l27 -34 20 25 c39 48 84 153 88 205 5
67 -20 163 -63 243 -38 68 -41 77 -23 66 8 -5 9 -2 4 12 -5 10 -13 31 -18 47
-12 33 -19 34 -56 2 -36 -30 -46 -22 -63 53 -7 29 -16 52 -20 52 -10 0 -59
-59 -59 -71 0 -43 -60 63 -61 109 0 15 -4 35 -7 45 -7 15 -12 13 -46 -18 -44
-40 -51 -37 -62 33 -9 57 10 113 54 160 31 33 32 34 16 7 -10 -16 -24 -41 -31
-55 -15 -29 -18 -130 -3 -130 6 0 10 4 10 8 0 10 73 52 90 52 7 0 9 -8 5 -20
-7 -22 2 -100 14 -119 6 -9 18 -6 46 13 51 35 61 33 68 -15 8 -58 19 -66 56
-38 l31 23 57 -24 c32 -13 68 -23 80 -22 25 2 82 36 128 76 17 14 44 33 61 41
70 33 69 123 -2 231 -24 38 -44 71 -44 75 0 4 -7 22 -15 42 -14 35 -15 35 -55
26 -23 -5 -46 -7 -51 -4 -11 7 7 45 29 61 18 13 4 20 -83 39 -33 7 -81 22
-106 33 -41 18 -47 25 -54 59 -10 57 -31 75 -62 55z m99 -266 c-8 -68 65 -157
154 -186 56 -19 41 -33 -30 -28 -71 4 -124 35 -151 88 -22 42 -19 102 6 134
11 14 21 26 23 26 1 0 0 -15 -2 -34z m-97 -76 c-9 -15 14 -81 39 -109 11 -13
63 -43 114 -68 50 -24 92 -47 92 -52 0 -4 -34 -4 -76 1 -80 9 -128 30 -171 77
-37 38 -41 110 -11 149 12 14 22 16 13 2z m-45 -846 c0 -3 -19 -14 -42 -25
-24 -11 -52 -25 -63 -32 -69 -43 -143 -93 -164 -111 l-24 -21 7 30 c15 62 55
104 144 151 26 13 142 20 142 8z"/>
<path d="M421 2809 c-61 -12 -66 -20 -32 -55 15 -16 38 -49 51 -74 28 -56 23
-52 53 -45 21 6 26 14 31 55 4 27 4 67 0 89 -7 46 -14 48 -103 30z"/>
<path d="M583 2728 l3 -92 29 -8 c25 -6 33 -4 48 15 21 27 57 93 57 106 0 12
-77 56 -113 65 l-28 7 4 -93z"/>
<path d="M249 2746 c-19 -12 -48 -31 -63 -43 l-27 -22 46 -20 c25 -11 65 -34
89 -51 43 -32 44 -32 77 -15 19 10 36 19 37 21 7 5 -56 88 -90 120 l-33 31
-36 -21z"/>
<path d="M102 2607 c-6 -6 -19 -35 -30 -63 l-20 -51 72 5 c54 3 80 0 103 -11
l31 -16 25 38 25 38 -32 16 c-43 23 -134 57 -150 57 -8 0 -18 -6 -24 -13z"/>
<path d="M105 2433 c-73 -15 -68 -8 -63 -78 2 -35 7 -67 10 -70 3 -4 19 0 35
9 16 8 57 18 90 21 l61 7 4 59 3 59 -60 -1 c-33 -1 -69 -3 -80 -6z"/>
<path d="M2561 2279 c17 -89 11 -180 -16 -237 -14 -30 -25 -57 -25 -61 0 -4
37 -12 83 -19 45 -7 99 -15 120 -18 l38 -7 -11 29 -10 29 26 -30 c18 -22 27
-45 29 -77 3 -55 32 -100 75 -118 39 -16 101 0 136 35 21 21 24 34 24 91 l0
67 -80 -7 c-44 -4 -80 -5 -80 -1 0 14 96 65 123 65 16 0 27 4 25 8 -1 4 -12
29 -23 55 -11 26 -27 47 -35 47 -8 0 -33 -11 -55 -23 -22 -13 -47 -26 -56 -29
-30 -12 -9 30 38 77 43 43 43 45 28 69 -29 44 -42 40 -91 -27 -25 -34 -50 -63
-55 -65 -17 -6 -9 68 11 108 22 43 21 45 -31 54 l-36 6 -24 -80 c-12 -44 -26
-80 -30 -80 -13 0 -22 67 -17 121 4 42 2 49 -12 49 -10 0 -31 3 -48 6 l-30 6
9 -43z"/>
<path d="M164 2252 c-28 -9 -62 -24 -75 -33 l-24 -16 24 -59 c13 -33 25 -60
27 -62 1 -2 27 16 57 40 31 24 66 50 78 59 20 14 22 20 13 50 -12 41 -28 44
-100 21z"/>
<path d="M216 2078 l-68 -63 46 -58 c46 -56 66 -69 66 -44 0 15 33 79 68 130
l25 38 -20 27 c-11 15 -26 28 -34 30 -8 1 -45 -26 -83 -60z"/>
<path d="M375 2002 c-49 -67 -85 -122 -85 -131 0 -9 73 -71 83 -71 4 0 15 21
27 48 11 26 35 64 51 85 17 21 29 40 28 41 -56 42 -77 56 -80 56 -2 0 -13 -13
-24 -28z"/>
<path d="M518 1912 c-37 -40 -88 -118 -88 -135 0 -8 28 -29 63 -46 l62 -31 6
72 c3 40 11 86 18 101 15 39 14 42 -13 55 -20 9 -27 7 -48 -16z"/>
<path d="M1690 1158 c-19 -5 -102 -12 -184 -16 l-149 -7 -1 -35 c-1 -19 2 -36
7 -37 4 -2 85 -3 181 -3 l175 0 6 44 c9 59 6 64 -35 54z"/>
<path d="M1580 998 c-41 -4 -111 -6 -156 -3 l-81 6 -21 -48 -21 -48 80 -45
c43 -25 79 -48 79 -52 0 -18 -106 -8 -139 13 -27 16 -36 18 -42 7 -27 -41 8
-112 73 -148 59 -32 124 -79 167 -118 49 -45 95 -68 169 -82 122 -24 292 11
292 60 0 36 -26 85 -55 104 -23 15 -40 17 -94 12 -52 -5 -79 -1 -129 15 -65
22 -132 74 -132 103 0 9 16 34 36 56 l36 40 -50 0 c-56 0 -167 31 -197 55 -18
15 -8 16 132 10 167 -7 150 -12 169 55 6 23 6 23 -116 8z"/>
</g>
</svg>
