<?xml version="1.0" encoding="UTF-8" standalone="no"?>
<!-- Generator: Adobe Illustrator 19.0.0, SVG Export Plug-In . SVG Version: 6.00 Build 0)  -->

<svg
   xmlns:dc="http://purl.org/dc/elements/1.1/"
   xmlns:cc="http://creativecommons.org/ns#"
   xmlns:rdf="http://www.w3.org/1999/02/22-rdf-syntax-ns#"
   xmlns:svg="http://www.w3.org/2000/svg"
   xmlns="http://www.w3.org/2000/svg"
   xmlns:sodipodi="http://sodipodi.sourceforge.net/DTD/sodipodi-0.dtd"
   xmlns:inkscape="http://www.inkscape.org/namespaces/inkscape"
   version="1.1"
   id="Capa_1"
   x="0px"
   y="0px"
   viewBox="0 0 512.001 512.001"
   style="enable-background:new 0 0 512.001 512.001;"
   xml:space="preserve"
   sodipodi:docname="answer.svg"
   inkscape:version="0.92.4 (5da689c313, 2019-01-14)"><metadata
   id="metadata55"><rdf:RDF><cc:Work
       rdf:about=""><dc:format>image/svg+xml</dc:format><dc:type
         rdf:resource="http://purl.org/dc/dcmitype/StillImage" /><dc:title></dc:title></cc:Work></rdf:RDF></metadata><defs
   id="defs53">
	

		
	</defs><sodipodi:namedview
   pagecolor="#ffffff"
   bordercolor="#666666"
   borderopacity="1"
   objecttolerance="10"
   gridtolerance="10"
   guidetolerance="10"
   inkscape:pageopacity="0"
   inkscape:pageshadow="2"
   inkscape:window-width="1920"
   inkscape:window-height="1017"
   id="namedview51"
   showgrid="false"
   inkscape:zoom="1.3037256"
   inkscape:cx="201.1677"
   inkscape:cy="219.14607"
   inkscape:window-x="-8"
   inkscape:window-y="-8"
   inkscape:window-maximized="1"
   inkscape:current-layer="Capa_1" />
<g
   id="g6">
	<g
   id="g4">
		<path
   d="M509.989,463.656L474.84,361.363c16.906-34.174,25.847-72.265,25.907-110.593c0.102-66.002-25.435-128.411-71.909-175.727    C382.357,27.718,320.418,1.08,254.433,0.033c-34.571-0.555-68.117,5.815-99.757,18.912c-30.517,12.633-57.884,30.932-81.34,54.388    c-23.457,23.456-41.756,50.823-54.388,81.34c-13.097,31.64-19.46,65.203-18.913,99.757    c1.045,65.985,27.684,127.924,75.009,174.406c47.224,46.383,109.472,71.912,175.332,71.911c0.129,0,0.265,0,0.394,0    c38.328-0.06,76.419-9.001,110.594-25.907l102.293,35.149c3.934,1.352,7.966,2.011,11.954,2.011    c9.474,0,18.69-3.722,25.678-10.712C511.218,491.359,514.553,476.939,509.989,463.656z M479.824,479.824    c-1.007,1.007-3.163,2.535-6.304,1.457l-108.394-37.246c-1.603-0.55-3.27-0.824-4.932-0.824c-2.45,0-4.889,0.593-7.098,1.762    c-31.327,16.573-66.727,25.363-102.374,25.417c-119.55,0.193-218.442-96.91-220.336-216.441    C29.433,193.81,52.309,137.289,94.8,94.798c42.491-42.49,98.995-65.362,159.151-64.411    c119.53,1.895,216.625,100.738,216.439,220.336c-0.056,35.648-8.845,71.048-25.417,102.373c-1.962,3.708-2.301,8.063-0.938,12.03    l37.246,108.394C482.36,476.659,480.832,478.818,479.824,479.824z"
   id="path2" />
	</g>
</g>


<g
   id="g20">
</g>
<g
   id="g22">
</g>
<g
   id="g24">
</g>
<g
   id="g26">
</g>
<g
   id="g28">
</g>
<g
   id="g30">
</g>
<g
   id="g32">
</g>
<g
   id="g34">
</g>
<g
   id="g36">
</g>
<g
   id="g38">
</g>
<g
   id="g40">
</g>
<g
   id="g42">
</g>
<g
   id="g44">
</g>
<g
   id="g46">
</g>
<g
   id="g48">
</g>
<path
   inkscape:connector-curvature="0"
   id="path4"
   d="m 252.34709,131.24076 c -13.5637,0 -24.5982,11.36759 -24.5982,25.34026 0,13.96 11.0345,25.31746 24.5982,25.31746 13.56369,0 24.59819,-11.35746 24.59819,-25.31746 0,-13.97267 -11.0345,-25.34026 -24.59819,-25.34026 z"
   style="stroke-width:1" /><path
   inkscape:connector-curvature="0"
   id="path6"
   d="m 252.34955,219.89176 c -10.19061,0 -18.45234,8.50544 -18.45234,18.99665 v 113.97986 c 0,10.49121 8.26173,18.99664 18.45234,18.99664 10.19061,0 18.45233,-8.50543 18.45233,-18.99664 V 238.88841 c 0,-10.49121 -8.26172,-18.99665 -18.45233,-18.99665 z"
   style="stroke-width:1" /></svg>