<?xml version="1.0" standalone="no"?>
<!DOCTYPE svg PUBLIC "-//W3C//DTD SVG 20010904//EN"
 "http://www.w3.org/TR/2001/REC-SVG-20010904/DTD/svg10.dtd">
<svg version="1.0" xmlns="http://www.w3.org/2000/svg"
 width="1280.000000pt" height="810.000000pt" viewBox="0 0 1280.000000 810.000000"
 preserveAspectRatio="xMidYMid meet">
<metadata>
Created by potrace 1.15, written by Peter Selinger 2001-2017
</metadata>
<g transform="translate(0.000000,810.000000) scale(0.100000,-0.100000)"
fill="#000000" stroke="none">
<path d="M10950 8094 c-547 -32 -1052 -167 -1591 -427 -811 -390 -1460 -995
-1887 -1758 l-69 -124 -85 -5 c-47 -3 -92 -11 -100 -18 -8 -7 -40 -21 -70 -31
-254 -87 -431 -313 -524 -669 -26 -100 -58 -286 -69 -404 -5 -54 -10 -68 -23
-68 -32 0 -40 16 -62 135 -76 405 -174 638 -341 804 -75 75 -155 124 -262 160
-46 16 -94 34 -106 40 -11 7 -51 14 -87 16 -37 2 -74 7 -83 10 -9 3 -41 47
-71 97 -209 354 -560 760 -905 1049 -1128 944 -2631 1277 -4104 909 -106 -27
-218 -61 -248 -76 -82 -40 -186 -143 -225 -221 -29 -60 -32 -76 -36 -182 -6
-172 6 -217 81 -303 131 -149 137 -154 212 -177 87 -27 198 -43 241 -35 77 14
91 -18 52 -116 -19 -48 -22 -75 -22 -210 -1 -152 0 -156 26 -202 15 -25 48
-66 72 -90 59 -60 125 -80 283 -87 107 -5 125 -9 144 -27 18 -19 19 -26 10
-60 -18 -69 -24 -196 -12 -256 16 -76 55 -127 127 -164 70 -37 119 -50 242
-64 112 -12 136 -23 157 -67 19 -40 14 -86 -15 -144 -45 -87 -51 -293 -12
-382 34 -78 125 -189 192 -236 109 -77 276 -138 470 -173 92 -16 171 -21 389
-24 151 -2 276 -6 278 -8 7 -6 -148 -116 -232 -164 -140 -81 -369 -322 -457
-480 -54 -98 -68 -164 -68 -319 0 -151 7 -177 85 -308 52 -88 52 -93 -10 -184
-48 -71 -150 -279 -173 -351 -43 -135 -55 -303 -28 -393 17 -58 114 -196 169
-241 51 -41 104 -68 200 -102 117 -42 116 -40 69 -175 -22 -63 -60 -168 -84
-234 -49 -132 -103 -305 -143 -460 -72 -279 -74 -535 -5 -717 27 -72 103 -158
167 -189 41 -20 68 -23 189 -27 219 -6 433 33 759 139 190 61 182 62 265 -5
109 -88 277 -193 360 -225 132 -51 220 -66 375 -65 110 0 157 5 220 22 271 72
553 257 723 476 143 181 211 293 356 584 170 340 228 472 285 645 23 71 61
172 83 225 22 53 52 135 65 182 36 125 53 169 77 196 32 38 50 23 76 -62 22
-76 22 -76 4 -167 -14 -71 -18 -139 -18 -302 0 -385 3 -499 19 -585 9 -47 20
-112 24 -145 14 -103 127 -349 192 -420 80 -87 141 -93 210 -22 94 97 152 228
169 380 6 51 16 124 23 162 16 94 15 552 -1 730 -7 77 -20 188 -29 246 -23
152 -5 212 60 195 34 -8 58 -54 153 -296 111 -284 182 -453 205 -490 5 -8 14
-26 20 -40 50 -114 106 -221 172 -329 42 -69 97 -166 122 -216 58 -115 210
-318 339 -452 229 -238 496 -385 769 -422 106 -15 175 -14 285 4 208 34 377
119 551 279 107 99 114 100 289 48 304 -90 531 -127 747 -119 176 5 232 24
299 98 74 83 100 199 100 459 0 178 -1 182 -76 445 -42 147 -114 347 -154 427
-13 26 -24 55 -24 63 0 16 -43 116 -82 189 l-20 39 23 19 c13 10 45 24 71 32
148 45 307 206 308 311 0 22 9 60 20 83 16 35 20 67 21 160 0 103 -3 126 -27
192 -39 110 -98 223 -170 327 -79 113 -84 134 -50 201 45 89 59 171 60 347 1
153 0 162 -26 217 -30 65 -139 215 -218 301 -73 80 -227 202 -392 310 l-140
92 213 6 c362 11 550 48 773 153 223 105 305 255 294 542 -4 99 -7 116 -32
159 -24 41 -28 55 -24 103 6 65 20 79 87 87 109 13 204 35 255 58 70 32 142
98 157 145 15 47 6 233 -15 291 -28 77 -26 81 52 81 138 0 284 42 368 107 38
29 68 82 59 105 -3 7 1 36 10 63 25 83 19 188 -15 301 -17 55 -30 113 -28 129
l3 30 95 6 c155 9 245 42 348 128 83 69 109 125 123 266 22 219 2 285 -128
412 -66 64 -95 85 -136 99 -29 9 -59 22 -67 29 -31 26 -63 36 -217 69 -179 40
-364 71 -503 87 -96 10 -669 20 -790 13z m595 -450 c57 -10 112 -13 150 -9 69
7 154 -9 296 -54 135 -44 152 -57 169 -124 11 -47 11 -59 0 -72 -20 -24 -73
-48 -185 -85 -119 -39 -163 -60 -191 -92 -40 -43 -54 -84 -54 -158 0 -57 -3
-72 -17 -77 -9 -4 -82 10 -163 31 -81 20 -239 51 -351 68 -190 29 -224 31
-484 32 -296 0 -376 -6 -590 -51 -273 -56 -630 -180 -877 -304 -89 -45 -97
-46 -129 -20 -25 21 -187 76 -251 86 -21 3 -38 10 -38 14 0 11 133 113 245
188 489 326 1068 540 1625 603 47 5 108 14 135 20 152 30 548 33 710 4z
m-9770 -124 c201 -11 437 -39 655 -76 516 -89 869 -212 1266 -440 116 -66 368
-230 384 -249 8 -10 -5 -16 -62 -30 -40 -10 -108 -33 -150 -51 -91 -41 -85
-42 -269 37 -322 139 -756 252 -1069 280 -378 33 -918 -31 -1288 -154 -89 -29
-126 -37 -134 -29 -8 8 -7 29 2 76 14 74 7 126 -21 172 -24 40 -60 57 -179 84
-230 54 -304 116 -235 199 64 75 400 162 697 180 191 12 205 12 403 1z m9200
-854 c185 -33 314 -75 450 -150 l80 -43 3 -52 c4 -68 -24 -127 -85 -181 -68
-60 -128 -74 -303 -75 -137 0 -149 2 -210 28 -68 29 -383 118 -498 139 -105
20 -517 17 -612 -4 -41 -9 -93 -19 -115 -22 -22 -4 -96 -18 -164 -33 -120 -25
-124 -26 -137 -8 -9 12 -14 45 -14 87 0 59 3 69 23 82 31 21 314 110 480 152
144 36 371 77 517 93 124 14 477 6 585 -13z m-8345 -121 c241 -27 528 -85 800
-161 69 -20 129 -39 133 -43 9 -9 -12 -160 -24 -175 -7 -8 -39 -4 -265 35
-416 72 -824 27 -1214 -133 l-125 -52 -154 -4 -153 -4 -73 36 c-87 43 -135 93
-164 170 -31 85 -29 96 32 139 139 99 348 166 622 200 87 11 463 6 585 -8z
m6053 -200 c129 -34 218 -104 271 -215 29 -61 31 -72 31 -175 -1 -93 -5 -122
-28 -190 -41 -119 -105 -224 -245 -404 -12 -15 -25 -22 -35 -18 -12 5 -16 23
-16 91 -2 337 -175 583 -465 666 -38 11 -74 24 -79 29 -19 19 162 143 273 188
110 44 199 53 293 28z m-4140 -82 c87 -25 196 -85 255 -139 l56 -51 -69 -23
c-154 -51 -255 -119 -331 -225 -83 -117 -134 -288 -134 -449 0 -119 -3 -119
-95 -11 -119 142 -207 297 -240 426 -23 88 -17 215 14 286 43 98 158 181 281
202 68 12 195 4 263 -16z m6056 -413 c140 -67 275 -189 327 -297 22 -47 28
-72 28 -133 1 -104 -23 -151 -125 -239 -158 -137 -288 -183 -519 -185 -209 -1
-325 35 -435 135 -78 72 -120 160 -120 254 1 80 16 118 74 178 51 55 105 80
173 81 71 1 94 -16 78 -58 -13 -35 -13 -151 1 -215 13 -62 40 -98 93 -122 53
-24 89 -24 168 1 80 25 144 77 157 128 26 103 31 147 32 257 0 96 -4 132 -20
179 -12 33 -21 61 -21 63 0 12 55 -2 109 -27z m-994 10 c8 -13 -19 -63 -71
-133 -23 -31 -51 -81 -62 -110 -64 -170 -47 -421 40 -588 18 -35 33 -68 33
-73 0 -4 -109 -7 -241 -7 -133 1 -291 -3 -351 -10 -151 -15 -159 -13 -103 36
283 250 371 382 489 738 18 53 38 100 44 104 15 9 177 52 199 53 9 0 20 -4 23
-10z m-1543 -105 c74 -37 123 -79 172 -149 56 -78 86 -153 86 -216 0 -98 -35
-125 -160 -124 -64 0 -87 6 -158 37 -87 39 -133 45 -179 25 -113 -49 -174
-179 -143 -307 30 -128 148 -183 418 -198 162 -8 162 -22 -3 -80 -134 -47
-329 -140 -450 -213 -115 -70 -278 -204 -444 -365 l-144 -140 7 58 c11 102 84
364 140 505 76 194 160 383 191 432 15 23 32 61 39 84 13 42 177 337 284 511
61 97 116 163 145 174 33 12 146 -7 199 -34z m-5569 -2 c-4 -10 -15 -29 -25
-42 -43 -56 -65 -197 -48 -308 31 -200 135 -304 291 -290 117 10 161 64 163
202 0 44 -3 108 -7 141 l-9 62 37 12 c99 33 242 -47 301 -166 23 -48 26 -63
22 -127 -14 -224 -236 -377 -546 -377 -245 0 -442 76 -582 226 -99 107 -122
174 -95 279 37 141 148 261 325 350 73 37 119 53 152 54 22 1 26 -2 21 -16z
m1026 -13 c41 -10 78 -25 82 -32 4 -7 18 -44 30 -83 29 -89 118 -264 193 -380
61 -92 223 -263 324 -340 29 -21 52 -42 52 -47 0 -4 -98 -4 -218 -1 -142 4
-274 2 -376 -7 -86 -7 -159 -10 -162 -7 -3 3 4 23 15 46 59 115 88 394 57 541
-21 98 -88 238 -137 286 -22 21 -39 42 -39 47 0 12 86 1 179 -23z m1641 -48
c180 -190 548 -827 693 -1202 74 -189 136 -430 112 -430 -4 0 -51 42 -104 93
-156 150 -427 350 -568 421 -101 51 -226 98 -373 141 -69 20 -129 40 -134 45
-21 21 10 29 107 28 150 0 308 45 370 108 49 49 67 245 29 320 -25 50 -46 68
-106 95 -58 25 -79 22 -183 -28 -68 -33 -89 -38 -163 -41 -94 -3 -137 12 -173
61 -19 24 -19 28 -4 96 50 217 193 348 387 350 54 1 55 0 110 -57z m775 -348
c123 -59 235 -223 310 -457 32 -97 85 -318 85 -354 0 -6 -22 -37 -49 -68 -47
-53 -67 -86 -90 -148 -17 -45 -43 -30 -56 33 -43 211 -173 601 -265 795 -38
83 -70 159 -70 170 0 12 13 26 33 36 43 22 39 22 102 -7z m1218 4 c24 -12 21
-40 -12 -106 -31 -61 -91 -234 -140 -402 -41 -144 -111 -429 -111 -456 0 -29
-10 -54 -21 -54 -5 0 -20 25 -34 55 -23 49 -114 145 -137 145 -18 0 -5 85 37
255 74 302 108 377 225 493 89 88 130 103 193 70z m2120 -809 c248 -15 366
-52 527 -167 82 -58 243 -213 233 -223 -4 -4 -31 -2 -58 6 -65 16 -305 51
-465 66 -190 18 -541 16 -685 -5 -170 -24 -280 -45 -353 -68 -34 -10 -66 -17
-71 -14 -4 3 -11 42 -14 86 -7 83 -31 154 -60 179 -15 11 -24 41 -13 41 1 0
54 13 117 30 246 63 445 91 599 83 41 -2 151 -8 243 -14z m-4813 -93 c98 -17
192 -39 236 -56 l25 -10 -26 -34 c-41 -54 -65 -128 -65 -202 l0 -66 -32 6
c-252 52 -547 81 -728 71 -230 -13 -570 -60 -748 -104 -113 -28 -142 -32 -142
-20 0 20 151 178 223 233 176 133 275 166 612 200 102 10 553 -3 645 -18z
m2130 -178 c22 -14 40 -50 40 -79 0 -51 -51 -89 -119 -89 -51 0 -111 48 -111
89 0 78 114 126 190 79z m1193 -50 c-12 -23 -18 -60 -19 -122 -2 -92 -8 -105
-49 -106 -27 0 -259 -81 -315 -110 -25 -12 -66 -38 -92 -57 -26 -19 -64 -37
-85 -40 l-38 -6 50 52 c77 80 238 219 328 285 78 55 213 136 230 136 4 0 0
-15 -10 -32z m-2472 -48 c151 -77 350 -219 503 -361 109 -100 107 -100 -168
18 -111 47 -240 95 -288 107 l-88 21 0 55 c0 30 -7 82 -15 115 -16 68 -17 75
-10 75 3 0 33 -14 66 -30z m4253 -409 c536 -108 906 -418 967 -812 13 -82 -1
-170 -38 -242 -27 -55 -108 -147 -128 -147 -8 0 -47 46 -88 103 -137 187 -317
366 -454 450 -43 27 -101 63 -129 81 -56 35 -421 186 -451 186 -46 1 -102 39
-141 97 -22 32 -88 105 -146 160 -58 56 -106 103 -106 106 0 4 135 31 205 41
17 2 113 3 215 1 140 -2 211 -8 294 -24z m-5462 -82 c57 -6 104 -12 106 -14 1
-1 -41 -44 -93 -95 -52 -52 -116 -127 -142 -167 -52 -81 -55 -82 -228 -149
-127 -48 -338 -155 -435 -219 -139 -92 -386 -349 -481 -500 -53 -83 -78 -115
-94 -115 -26 0 -111 78 -143 132 -123 207 -46 496 197 738 211 210 520 349
864 389 107 13 333 12 449 0z m4073 -50 c146 -22 307 -84 401 -155 l38 -29
-70 -7 c-38 -4 -136 -11 -219 -16 -196 -13 -405 -68 -641 -168 -56 -24 -112
-46 -125 -49 -13 -3 -58 4 -99 15 -136 38 -254 60 -319 60 l-64 0 24 26 c34
37 170 125 268 174 284 142 535 188 806 149z m-2841 -75 c126 -20 304 -78 421
-137 99 -49 208 -125 224 -155 10 -18 4 -20 -86 -32 -52 -6 -114 -18 -137 -26
-61 -22 -183 -54 -205 -54 -11 0 -73 21 -138 46 -222 87 -485 137 -785 150
-87 3 -158 10 -158 15 0 23 148 106 265 148 165 60 396 77 599 45z m3459 -555
c242 -80 413 -263 425 -454 6 -98 0 -101 -144 -78 -104 17 -107 16 -142 -3
-20 -10 -47 -37 -60 -59 -19 -33 -22 -49 -18 -97 6 -67 28 -123 59 -156 29
-31 185 -129 220 -137 15 -4 27 -11 25 -15 -2 -4 -22 -45 -45 -91 -23 -46 -45
-92 -48 -102 -2 -10 -9 -16 -14 -13 -5 3 -62 75 -127 159 -147 188 -232 285
-438 502 -271 285 -268 280 -260 323 23 129 117 223 254 252 79 16 212 3 313
-31z m-4123 -71 c129 -31 209 -125 210 -245 0 -50 -3 -55 -58 -115 -208 -225
-450 -522 -626 -767 -60 -84 -113 -150 -119 -148 -7 2 -17 29 -23 60 -10 50
-51 128 -76 143 -17 11 -7 35 20 45 101 38 185 102 226 172 29 50 52 152 42
190 -3 15 -23 46 -43 68 -42 46 -52 47 -194 14 -43 -10 -88 -15 -103 -11 -91
23 -39 246 91 387 86 92 278 196 405 218 60 11 180 5 248 -11z m2636 -73 c174
-44 301 -110 553 -287 82 -58 167 -132 294 -257 97 -96 177 -183 177 -193 0
-9 -15 -50 -34 -90 -34 -72 -34 -74 -26 -158 5 -47 12 -97 16 -112 5 -23 1
-30 -27 -47 -30 -19 -50 -21 -188 -21 -198 0 -381 23 -438 56 -22 13 -63 49
-90 79 -138 154 -320 552 -353 768 -6 43 -46 211 -67 281 -5 17 -1 18 43 11
27 -4 90 -17 140 -30z m-1336 -40 c0 -56 -66 -371 -104 -497 -89 -292 -249
-579 -351 -628 -73 -35 -305 -72 -465 -74 -188 -2 -180 -10 -177 162 2 146 -4
173 -52 216 -12 11 -21 23 -21 27 0 10 94 119 228 266 196 214 427 386 645
479 95 41 230 83 270 83 24 1 27 -2 27 -34z m3643 -48 c125 -80 207 -155 403
-369 163 -178 184 -219 84 -168 -21 11 -73 31 -116 45 -66 23 -94 26 -203 27
-97 0 -136 -4 -169 -17 -25 -10 -47 -14 -52 -9 -5 5 -3 35 5 69 19 76 19 308
1 393 -7 34 -11 62 -9 62 2 0 27 -15 56 -33z m-6074 -116 c-4 -27 -12 -66 -18
-87 -16 -58 -13 -128 10 -234 11 -52 22 -109 25 -126 l6 -31 -158 4 c-228 7
-321 -18 -450 -123 -31 -26 -53 -40 -49 -33 93 158 280 384 422 512 76 68 202
167 214 167 3 0 3 -22 -2 -49z m6385 -895 c153 -43 249 -104 343 -221 95 -119
130 -240 100 -346 -31 -104 -94 -161 -231 -206 -72 -23 -95 -26 -212 -25 -72
1 -160 6 -195 12 -35 6 -87 15 -116 19 -63 9 -76 19 -104 79 -11 26 -50 105
-86 176 -62 122 -65 131 -60 182 11 103 103 249 194 306 88 53 225 63 367 24z
m-6406 -120 c110 -30 201 -107 257 -219 59 -117 58 -132 -23 -314 -38 -87 -79
-179 -90 -204 l-20 -47 -88 -20 c-347 -80 -608 -42 -721 106 -122 160 -28 439
200 594 147 100 342 142 485 104z m5238 -76 c47 -66 384 -672 384 -691 0 -35
-132 -126 -245 -168 -84 -32 -272 -33 -365 -2 -203 66 -486 305 -633 534 -32
48 -57 89 -57 91 0 14 44 14 123 0 110 -19 290 -14 382 10 139 37 260 123 320
225 17 29 36 50 44 48 8 -1 29 -22 47 -47z m-4239 -128 c80 -79 153 -125 260
-164 91 -32 277 -36 419 -9 124 24 154 26 154 11 0 -6 -28 -57 -62 -113 -140
-233 -395 -467 -610 -560 -70 -31 -78 -32 -213 -32 l-140 0 -105 52 c-118 58
-180 105 -180 135 0 50 368 758 394 758 3 0 40 -35 83 -78z"/>
</g>
</svg>
