<?xml version="1.0" encoding="UTF-8" standalone="no"?>
<svg xmlns:dc="http://purl.org/dc/elements/1.1/"
    xmlns:cc="http://creativecommons.org/ns#"
    xmlns:rdf="http://www.w3.org/1999/02/22-rdf-syntax-ns#"
    xmlns:svg="http://www.w3.org/2000/svg"
    xmlns="http://www.w3.org/2000/svg"
    xmlns:sodipodi="http://sodipodi.sourceforge.net/DTD/sodipodi-0.dtd"
    xmlns:inkscape="http://www.inkscape.org/namespaces/inkscape" id="Capa_1" enable-background="new 0 0 512.001 512.001" height="449.99911" viewBox="0 0 512.00124 449.99999" width="512.00024" version="1.1" sodipodi:docname="calendar.svg" inkscape:version="0.92.4 (5da689c313, 2019-01-14)">
    <metadata id="metadata11">
        <rdf:RDF>
            <cc:Work rdf:about="">
                <dc:format>image/svg+xml</dc:format>
                <dc:type rdf:resource="http://purl.org/dc/dcmitype/StillImage" />
                <dc:title></dc:title>
            </cc:Work>
        </rdf:RDF>
    </metadata>
    <defs id="defs9" />
    <sodipodi:namedview pagecolor="#ffffff" bordercolor="#666666" borderopacity="1" objecttolerance="10" gridtolerance="10" guidetolerance="10" inkscape:pageopacity="0" inkscape:pageshadow="2" inkscape:window-width="707" inkscape:window-height="480" id="namedview7" showgrid="false" fit-margin-top="0" fit-margin-left="0" fit-margin-right="0" fit-margin-bottom="0" inkscape:zoom="0.4609375" inkscape:cx="256.00025" inkscape:cy="224.99907" inkscape:window-x="0" inkscape:window-y="0" inkscape:window-maximized="0" inkscape:current-layer="Capa_1" />
    <g id="g4" transform="translate(2.5137489e-4,-31)" style="fill:#000000;stroke:none">>
        <path d="m 15.001,421 h 75 v 45 c 0,8.284 6.716,15 15,15 h 392 c 8.284,0 15,-6.716 15,-15 V 76 c 0,-8.284 -6.716,-15 -15,-15 h -75 V 46 c 0,-8.284 -6.716,-15 -15,-15 -8.284,0 -15,6.716 -15,15 v 15 h -76 V 46 c 0,-8.284 -6.716,-15 -15,-15 -8.284,0 -15,6.716 -15,15 v 15 h -75 V 46 c 0,-8.284 -6.716,-15 -15,-15 -8.284,0 -15,6.716 -15,15 v 15 h -76 c -8.284,0 -15,6.716 -15,15 v 90 c 0,110.55 -45.945,195.596 -84.603,228.477 -4.852,4.043 -6.651,10.691 -4.502,16.63 2.151,5.938 7.789,9.893 14.105,9.893 z m 467,30 h -362 v -30 h 287 c 3.509,0 6.907,-1.23 9.603,-3.477 18.032,-15.019 45.963,-50.777 65.397,-96.575 z m -362,-360 h 61 v 15 c 0,8.284 6.716,15 15,15 8.284,0 15,-6.716 15,-15 V 91 h 75 v 15 c 0,8.284 6.716,15 15,15 8.284,0 15,-6.716 15,-15 V 91 h 76 v 15 c 0,8.284 6.716,15 15,15 8.284,0 15,-6.716 15,-15 V 91 h 60 v 60 h -362 z m -0.257,89.99 H 481.735 C 478.355,276.145 441.834,351.013 401.119,391 H 49.12 c 46.133,-58.781 68.149,-135.318 70.624,-210.01 z" id="path2" inkscape:connector-curvature="0" />
    </g>
</svg>
