<?xml version="1.0" encoding="UTF-8" standalone="no"?>
<svg
   xmlns:dc="http://purl.org/dc/elements/1.1/"
   xmlns:cc="http://creativecommons.org/ns#"
   xmlns:rdf="http://www.w3.org/1999/02/22-rdf-syntax-ns#"
   xmlns:svg="http://www.w3.org/2000/svg"
   xmlns="http://www.w3.org/2000/svg"
   xmlns:sodipodi="http://sodipodi.sourceforge.net/DTD/sodipodi-0.dtd"
   xmlns:inkscape="http://www.inkscape.org/namespaces/inkscape"
   version="1.1"
   id="Capa_1"
   x="0px"
   y="0px"
   viewBox="0 0 511.92427 341.33299"
   xml:space="preserve"
   width="511.99927"
   height="341.383"
   class=""
   sodipodi:docname="crown-blue.svg"
   inkscape:version="0.92.4 (5da689c313, 2019-01-14)"><metadata
   id="metadata15"><rdf:RDF><cc:Work
       rdf:about=""><dc:format>image/svg+xml</dc:format><dc:type
         rdf:resource="http://purl.org/dc/dcmitype/StillImage" /><dc:title></dc:title></cc:Work></rdf:RDF></metadata><defs
   id="defs13" /><sodipodi:namedview
   pagecolor="#ffffff"
   bordercolor="#666666"
   borderopacity="1"
   objecttolerance="10"
   gridtolerance="10"
   guidetolerance="10"
   inkscape:pageopacity="0"
   inkscape:pageshadow="2"
   inkscape:window-width="640"
   inkscape:window-height="480"
   id="namedview11"
   showgrid="false"
   fit-margin-top="0"
   fit-margin-left="0"
   fit-margin-right="0"
   fit-margin-bottom="0"
   inkscape:zoom="0.4609375"
   inkscape:cx="256"
   inkscape:cy="170.6915"
   inkscape:window-x="0"
   inkscape:window-y="0"
   inkscape:window-maximized="0"
   inkscape:current-layer="Capa_1" /><g
   id="g8"
   transform="translate(7.0982666e-7,-85.296)"><path
     style="fill:#07c1ff"
     d="m 469.333,127.962 c -23.564,0 -42.667,19.103 -42.667,42.667 0.009,4.473 0.729,8.916 2.133,13.163 l -34.603,21.995 c -22.783,14.516 -52.821,9.705 -69.931,-11.2 l -33.92,-41.493 c 5.398,-7.267 8.316,-16.078 8.32,-25.131 0,-23.564 -19.103,-42.667 -42.667,-42.667 -23.564,0 -42.667,19.103 -42.667,42.667 0.004,9.053 2.922,17.864 8.32,25.131 l -33.92,41.493 c -17.107,20.893 -47.131,25.703 -69.909,11.2 L 83.2,183.792 c 1.405,-4.247 2.125,-8.69 2.133,-13.163 0.004,-23.564 -19.095,-42.67 -42.66,-42.674 C 19.11,127.951 0.004,147.051 0,170.615 c -0.004,22.12 16.898,40.575 38.933,42.51 l 25.216,151.253 c 0.855,5.143 5.303,8.915 10.517,8.917 h 362.667 c 5.214,-0.002 9.662,-3.774 10.517,-8.917 l 25.216,-151.253 c 23.47,-2.105 40.79,-22.838 38.685,-46.308 -1.97,-21.969 -20.361,-38.814 -42.418,-38.855 z"
     data-original="#07C1FF"
     class=""
     id="path2"
     inkscape:connector-curvature="0" /><ellipse
     style="fill:#00a0ff"
     cx="256"
     cy="362.629"
     rx="181.33299"
     ry="53.333"
     data-original="#00A0FF"
     class=""
     id="ellipse4" /><path
     style="fill:#4fd5ff"
     d="m 256,426.629 c -95.424,0 -192,-21.973 -192,-64 0,-42.027 96.576,-64 192,-64 95.424,0 192,21.973 192,64 0,42.027 -96.576,64 -192,64 z m 0,-106.667 c -112.043,0 -170.667,27.733 -170.667,42.667 0,14.934 58.624,42.667 170.667,42.667 112.043,0 170.667,-27.733 170.667,-42.667 0,-14.934 -58.624,-42.667 -170.667,-42.667 z"
     data-original="#4FD5FF"
     class="active-path"
     data-old_color="#4FD5FF"
     id="path6"
     inkscape:connector-curvature="0" /></g> </svg>