<?xml version="1.0" encoding="UTF-8" standalone="no"?>
<!-- Generator: Adobe Illustrator 19.0.0, SVG Export Plug-In . SVG Version: 6.00 Build 0)  -->

<svg xmlns:dc="http://purl.org/dc/elements/1.1/"
    xmlns:cc="http://creativecommons.org/ns#"
    xmlns:rdf="http://www.w3.org/1999/02/22-rdf-syntax-ns#"
    xmlns:svg="http://www.w3.org/2000/svg"
    xmlns="http://www.w3.org/2000/svg"
    xmlns:sodipodi="http://sodipodi.sourceforge.net/DTD/sodipodi-0.dtd"
    xmlns:inkscape="http://www.inkscape.org/namespaces/inkscape" version="1.1" id="Capa_1" x="0px" y="0px" viewBox="0 0 512 512" xml:space="preserve" sodipodi:docname="door.svg" width="512" height="512" inkscape:version="0.92.4 (5da689c313, 2019-01-14)">
    <metadata id="metadata109">
        <rdf:RDF>
            <cc:Work rdf:about="">
                <dc:format>image/svg+xml</dc:format>
                <dc:type rdf:resource="http://purl.org/dc/dcmitype/StillImage" />
                <dc:title></dc:title>
            </cc:Work>
        </rdf:RDF>
    </metadata>
    <defs id="defs107" />
    <sodipodi:namedview pagecolor="#ffffff" bordercolor="#666666" borderopacity="1" objecttolerance="10" gridtolerance="10" guidetolerance="10" inkscape:pageopacity="0" inkscape:pageshadow="2" inkscape:window-width="707" inkscape:window-height="480" id="namedview105" showgrid="false" fit-margin-top="0" fit-margin-left="0" fit-margin-right="0" fit-margin-bottom="0" inkscape:zoom="0.4609375" inkscape:cx="256" inkscape:cy="256" inkscape:window-x="-8" inkscape:window-y="-8" inkscape:window-maximized="1" inkscape:current-layer="Capa_1" />
    <g id="g4" style="fill:#000000;stroke:none">
        <path d="M 401.067,0 H 110.933 c -4.71,0 -8.533,3.814 -8.533,8.533 v 494.933 c 0,4.719 3.823,8.533 8.533,8.533 h 290.133 c 4.71,0 8.533,-3.814 8.533,-8.533 V 8.533 C 409.6,3.814 405.777,0 401.067,0 Z m -8.534,494.933 H 119.467 V 17.067 h 273.067 v 477.866 z" id="path2" inkscape:connector-curvature="0" />
    </g>
    <g id="g10" style="fill:#000000;stroke:none">
        <path d="M 366.933,34.133 H 145.067 c -4.71,0 -8.533,3.814 -8.533,8.533 v 460.8 c 0,4.719 3.823,8.533 8.533,8.533 h 221.867 c 4.71,0 8.533,-3.814 8.533,-8.533 v -460.8 c 0,-4.718 -3.823,-8.533 -8.534,-8.533 z m -8.533,460.8 H 153.6 V 51.2 h 204.8 z" id="path8" inkscape:connector-curvature="0" />
    </g>
    <g id="g16" style="fill:#000000;stroke:none">
        <path d="m 256,68.267 c -47.053,0 -85.333,38.281 -85.333,85.333 v 8.533 c 0,4.719 3.823,8.533 8.533,8.533 h 153.6 c 4.71,0 8.533,-3.814 8.533,-8.533 V 153.6 c 0,-47.053 -38.28,-85.333 -85.333,-85.333 z M 187.733,153.6 c 0,-37.641 30.626,-68.267 68.267,-68.267 37.641,0 68.267,30.626 68.267,68.267 z" id="path14" inkscape:connector-curvature="0" />
    </g>
    <g id="g22" style="fill:#000000;stroke:none">
        <path d="M 238.933,187.733 H 179.2 c -4.71,0 -8.533,3.814 -8.533,8.533 v 119.467 c 0,4.719 3.823,8.533 8.533,8.533 h 59.733 c 4.71,0 8.533,-3.814 8.533,-8.533 V 196.267 c 0.001,-4.719 -3.822,-8.534 -8.533,-8.534 z M 230.4,307.2 H 187.733 V 204.8 H 230.4 Z" id="path20" inkscape:connector-curvature="0" />
    </g>
    <g id="g28" style="fill:#000000;stroke:none">
        <path d="m 332.8,187.733 h -59.733 c -4.71,0 -8.533,3.814 -8.533,8.533 v 119.467 c 0,4.719 3.823,8.533 8.533,8.533 H 332.8 c 4.71,0 8.533,-3.814 8.533,-8.533 V 196.267 c 0,-4.719 -3.823,-8.534 -8.533,-8.534 z M 324.267,307.2 H 281.6 V 204.8 h 42.667 z" id="path26" inkscape:connector-curvature="0" />
    </g>
    <g id="g34" style="fill:#000000;stroke:none">
        <path d="M 238.933,341.333 H 179.2 c -4.71,0 -8.533,3.814 -8.533,8.533 v 119.467 c 0,4.719 3.823,8.533 8.533,8.533 h 59.733 c 4.71,0 8.533,-3.814 8.533,-8.533 V 349.867 c 0.001,-4.719 -3.822,-8.534 -8.533,-8.534 z M 230.4,460.8 H 187.733 V 358.4 H 230.4 Z" id="path32" inkscape:connector-curvature="0" />
    </g>
    <g id="g40" style="fill:#000000;stroke:none">
        <path d="m 332.8,341.333 h -59.733 c -4.71,0 -8.533,3.814 -8.533,8.533 v 119.467 c 0,4.719 3.823,8.533 8.533,8.533 H 332.8 c 4.71,0 8.533,-3.814 8.533,-8.533 V 349.867 c 0,-4.719 -3.823,-8.534 -8.533,-8.534 z M 324.267,460.8 H 281.6 V 358.4 h 42.667 z" id="path38" inkscape:connector-curvature="0" />
    </g>
    <g id="g46" style="fill:#000000;stroke:none">
        <path d="m 256,68.267 c -4.71,0 -8.533,3.814 -8.533,8.533 v 85.333 c 0,4.719 3.823,8.533 8.533,8.533 4.71,0 8.533,-3.814 8.533,-8.533 V 76.8 c 0,-4.719 -3.823,-8.533 -8.533,-8.533 z" id="path44" inkscape:connector-curvature="0" />
    </g>
    <g id="g52" style="fill:#000000;stroke:none">
        <path d="m 320.435,97.698 c -3.328,-3.336 -8.73,-3.336 -12.066,0 L 249.967,156.1 c -3.337,3.337 -3.337,8.73 0,12.066 1.664,1.664 3.849,2.5 6.033,2.5 2.185,0 4.369,-0.836 6.033,-2.5 l 58.402,-58.402 c 3.337,-3.336 3.337,-8.729 0,-12.066 z" id="path50" inkscape:connector-curvature="0" />
    </g>
    <g id="g58" style="fill:#000000;stroke:none">
        <path d="M 262.033,156.1 203.631,97.69 c -3.328,-3.337 -8.73,-3.337 -12.066,0 -3.337,3.336 -3.337,8.73 0,12.066 l 58.402,58.411 c 1.664,1.664 3.849,2.5 6.033,2.5 2.185,0 4.369,-0.836 6.033,-2.5 3.337,-3.337 3.337,-8.73 0,-12.067 z" id="path56" inkscape:connector-curvature="0" />
    </g>
    <g id="g64" style="fill:#000000;stroke:none">
        <path d="M 59.733,494.933 H 8.533 C 3.823,494.933 0,498.747 0,503.466 0,508.186 3.823,512 8.533,512 h 51.2 c 4.71,0 8.533,-3.814 8.533,-8.533 10e-4,-4.719 -3.822,-8.534 -8.533,-8.534 z" id="path62" inkscape:connector-curvature="0" />
    </g>
    <g id="g70" style="fill:#000000;stroke:none">
        <path d="m 503.467,494.933 h -102.4 c -4.71,0 -8.533,3.814 -8.533,8.533 0,4.719 3.823,8.533 8.533,8.533 h 102.4 c 4.71,0 8.533,-3.814 8.533,-8.533 0,-4.718 -3.823,-8.533 -8.533,-8.533 z" id="path68" inkscape:connector-curvature="0" />
    </g>
</svg>