<?xml version="1.0" encoding="UTF-8" standalone="no"?>
<!-- Generator: Adobe Illustrator 16.0.0, SVG Export Plug-In . SVG Version: 6.00 Build 0)  -->

<svg
   xmlns:dc="http://purl.org/dc/elements/1.1/"
   xmlns:cc="http://creativecommons.org/ns#"
   xmlns:rdf="http://www.w3.org/1999/02/22-rdf-syntax-ns#"
   xmlns:svg="http://www.w3.org/2000/svg"
   xmlns="http://www.w3.org/2000/svg"
   xmlns:sodipodi="http://sodipodi.sourceforge.net/DTD/sodipodi-0.dtd"
   xmlns:inkscape="http://www.inkscape.org/namespaces/inkscape"
   version="1.1"
   id="Capa_1"
   x="0px"
   y="0px"
   width="953.90002"
   height="800.22498"
   viewBox="0 0 953.9 800.22496"
   xml:space="preserve"
   sodipodi:docname="eject-down.svg"
   inkscape:version="0.92.4 (5da689c313, 2019-01-14)">
    <metadata
   id="metadata43">
        <rdf:RDF>
            <cc:Work
   rdf:about="">
                <dc:format>image/svg+xml</dc:format>
                <dc:type
   rdf:resource="http://purl.org/dc/dcmitype/StillImage" />
                <dc:title></dc:title>
            </cc:Work>
        </rdf:RDF>
    </metadata>
    <defs
   id="defs41" />
    <sodipodi:namedview
   pagecolor="#ffffff"
   bordercolor="#666666"
   borderopacity="1"
   objecttolerance="10"
   gridtolerance="10"
   guidetolerance="10"
   inkscape:pageopacity="0"
   inkscape:pageshadow="2"
   inkscape:window-width="1920"
   inkscape:window-height="1017"
   id="namedview39"
   showgrid="false"
   fit-margin-top="0"
   fit-margin-left="0"
   fit-margin-right="0"
   fit-margin-bottom="0"
   inkscape:zoom="0.24740538"
   inkscape:cx="84.880893"
   inkscape:cy="-553.78799"
   inkscape:window-x="-8"
   inkscape:window-y="-8"
   inkscape:window-maximized="1"
   inkscape:current-layer="Capa_1" />
    <g
   id="g6"
   style="fill:#000000;stroke:none"
   transform="rotate(180,476.95,438.5315)">
        <path
   d="M 903.801,697.963 H 50 c -27.6,0 -50,22.399 -50,50 v 79.1 c 0,27.601 22.4,50 50,50 h 853.9 c 27.6,0 50,-22.399 50,-50 v -79.1 c -0.099,-27.601 -22.4,-50 -50.099,-50 z"
   id="path2"
   inkscape:connector-curvature="0" />
        <path
   d="m 56.8,599.463 h 845.399 c 44.5,0 66.9,-53.9 35.4,-85.4 L 514.8,91.463 c -19.5,-19.5 -51.201,-19.5 -70.701,0 l -422.7,422.6 c -31.499,31.499 -9.199,85.4 35.401,85.4 z"
   id="path4"
   inkscape:connector-curvature="0" />
    </g>
</svg>