<?xml version="1.0" encoding="utf-8"?>
<!-- Uploaded to SVGRepo https://www.svgrepo.com -->
<svg version="1.1" id="Layer_1" xmlns="http://www.w3.org/2000/svg" xmlns:xlink="http://www.w3.org/1999/xlink" x="0px" y="0px"
	 viewBox="0 0 256 256" style="enable-background:new 0 0 256 256;" xml:space="preserve">
<path id="XMLID_31_" d="M199.8,70.7c-6.4,0-11.5-5.1-11.5-11.5s5.2-11.5,11.6-11.5c6.3,0.1,11.5,5.2,11.5,11.6
	S206.2,70.8,199.8,70.7z M136.5,255h-94v-67.2c-21-16.1-33.6-41.2-33.6-69.3c0-4.3,0.4-8.5,1-12.6l0,0C1.5,63.7,25,20.6,66.7,5.7
	c37.7-13.5,82.5,2.4,100.8,30.9c1.6,2.5,3.9,6.7,6,10.8l-11.9,4.4c0.2,0.1,0.4,0.2,0.6,0.3c3,1.8,4,5.7,2.2,8.7l-5.4,9l15.6-4.8
	c0.4-0.1,0.9-0.2,1.3-0.2c4.2-0.8,9.1-0.5,13.7,3.7c0.3,0.3,1,0.8,1.4,1.3L210.5,94H228c3.5,0,6.3,2.5,6.3,6s-2.8,6-6.3,6l0,0
	l-20.6,0.2c-1.9,0-3.7-0.7-4.9-2.2l-12-14.7l-6,9.7l-33.7-0.3c2.8-6,8.8-12.2,11.1-16.6l-14.7,4.4c-0.7,0.2-1.3,0.3-1.9,0.3
	c-1.9,0-3.8-0.8-5-2.4c-1.7-2.1-1.8-5-0.5-7.2l13.3-22.9l-142,50.6H150h0.1h33.8l1.6,15l18.3,46.4c0.4,0.9,0.6,2.1,0.6,3.2
	c0,4-3.2,7.5-7.1,7.5h-11.8v24c0,19.2-15.6,34-34.8,34h-14.2V255z M163.8,137.6c5.4,0,9.8-4.4,9.8-9.9c0-5.4-4.4-9.8-9.8-9.8
	c-5.5,0-9.9,4.4-9.9,9.8C153.9,133.2,158.3,137.6,163.8,137.6z"/>
</svg>
