<svg width="492" height="360" xmlns="http://www.w3.org/2000/svg" xmlns:svg="http://www.w3.org/2000/svg">
 <g>
  <title>Layer 1</title>
  <g id="svg_1">
   <g id="svg_2">
    <path id="svg_3" fill="#020202" d="m176.053,190.577c-18.445,-14.116 -41.436,-22.59 -66.452,-22.59c-60.531,0 -109.601,49.07 -109.601,109.601l0,67.604c0,7.923 6.418,14.34 14.34,14.34l115.659,0l0,-69.133c0,-39.907 17.918,-75.664 46.054,-99.822z"/>
   </g>
   <g id="svg_4">
    <path id="svg_5" fill="#020202" d="m109.601,149.549c41.3,0 74.774,-33.475 74.774,-74.774c0,-41.301 -33.474,-74.775 -74.774,-74.775c-41.3,0 -74.774,33.474 -74.774,74.775c0,41.3 33.474,74.774 74.774,74.774z"/>
   </g>
   <g id="svg_6">
    <path id="svg_7" fill="#020202" d="m261.662,191.513c-54.607,0 -98.886,44.278 -98.886,98.886l0,54.793c0,7.923 6.418,14.34 14.34,14.34l42.085,0l71.51,0l0,-58.777c0,-33.202 13.988,-63.148 36.29,-84.442c-17.428,-15.388 -40.259,-24.8 -65.339,-24.8z"/>
   </g>
   <g id="svg_8">
    <path id="svg_9" fill="#020202" d="m225.131,164.001c10.54,6.819 23.04,10.876 36.531,10.876c13.493,0 25.993,-4.056 36.539,-10.876c18.574,-12.019 30.929,-32.817 30.929,-56.584c0,-37.267 -30.201,-67.468 -67.468,-67.468c-37.259,0 -67.46,30.201 -67.46,67.468c0,23.767 12.356,44.565 30.929,56.584z"/>
   </g>
   <g id="svg_10">
    <path id="svg_11" fill="#020202" d="m407.578,216.665c-46.445,0 -84.088,37.652 -84.088,84.09l0,44.437c0,7.923 6.418,14.34 14.34,14.34l22.727,0l116.77,0c7.923,0 14.341,-6.417 14.341,-14.34l0,-44.437c0,-46.438 -37.652,-84.09 -84.09,-84.09z"/>
   </g>
   <g id="svg_12">
    <path id="svg_13" fill="#020202" d="m371.705,189.578c9.851,7.961 22.221,12.93 35.873,12.93c13.66,0 26.032,-4.969 35.883,-12.93c13.004,-10.515 21.486,-26.401 21.486,-44.431c0,-31.688 -25.68,-57.376 -57.369,-57.376c-31.682,0 -57.368,25.688 -57.368,57.376c0,18.03 8.481,33.916 21.495,44.431z"/>
   </g>
  </g>
  <g id="svg_14"/>
  <g id="svg_15"/>
  <g id="svg_16"/>
  <g id="svg_17"/>
  <g id="svg_18"/>
  <g id="svg_19"/>
  <g id="svg_20"/>
  <g id="svg_21"/>
  <g id="svg_22"/>
  <g id="svg_23"/>
  <g id="svg_24"/>
  <g id="svg_25"/>
  <g id="svg_26"/>
  <g id="svg_27"/>
  <g id="svg_28"/>
 </g>
</svg>