<?xml version="1.0" standalone="no"?>
<!DOCTYPE svg PUBLIC "-//W3C//DTD SVG 20010904//EN"
 "http://www.w3.org/TR/2001/REC-SVG-20010904/DTD/svg10.dtd">
<svg version="1.0" xmlns="http://www.w3.org/2000/svg"
 width="256.000000pt" height="256.000000pt" viewBox="0 0 256.000000 256.000000"
 preserveAspectRatio="xMidYMid meet">
<metadata>
Created by potrace 1.16, written by Peter Selinger 2001-2019
</metadata>
<g transform="translate(0.000000,256.000000) scale(0.100000,-0.100000)" style="fill:#000000;stroke:none" >
<path d="M1329 2513 l-50 -46 -42 41 c-64 63 -127 55 -127 -15 0 -10 20 -39
45 -63 l44 -44 -49 -52 c-52 -55 -61 -82 -34 -108 29 -30 71 -20 125 31 l50
46 47 -46 c50 -49 80 -58 106 -31 28 27 19 62 -29 113 l-45 48 41 47 c45 51
53 91 23 113 -30 22 -53 15 -105 -34z"/>
<path d="M527 2208 c-12 -10 -17 -32 -19 -83 l-3 -70 -70 -3 c-78 -3 -95 -13
-95 -53 0 -46 23 -59 101 -59 l69 0 0 -69 c0 -76 13 -101 55 -101 37 0 55 35
55 107 l0 63 69 0 c61 0 72 3 85 22 39 55 6 88 -87 88 l-67 0 0 68 c0 54 -4
72 -18 85 -22 20 -52 22 -75 5z"/>
<path d="M1967 2208 c-12 -10 -17 -32 -19 -83 l-3 -70 -72 -3 c-78 -3 -95 -14
-95 -59 0 -39 27 -53 99 -53 l63 0 0 -63 c0 -75 18 -107 60 -107 42 0 60 32
60 107 l0 63 69 0 c61 0 72 3 85 22 39 55 6 88 -87 88 l-67 0 0 63 c0 40 -5
70 -16 85 -17 24 -51 29 -77 10z"/>
<path d="M1170 1799 c-183 -36 -349 -215 -374 -404 l-7 -51 148 -12 c190 -16
497 -16 687 0 l148 12 -6 46 c-8 63 -41 144 -83 207 -107 162 -310 242 -513
202z"/>
<path d="M222 1250 c-149 -32 -190 -122 -163 -360 29 -249 115 -427 279 -582
152 -143 340 -229 607 -279 158 -30 496 -33 645 -5 195 35 383 102 503 180 72
46 188 154 237 222 89 120 150 284 170 463 25 210 3 286 -95 336 -60 30 -60
30 -230 29 -97 -1 -274 -11 -410 -25 -322 -31 -647 -31 -970 0 -264 25 -511
34 -573 21z"/>
</g>
</svg>
