<?xml version="1.0" encoding="UTF-8" standalone="no"?>
<!-- Generator: Adobe Illustrator 16.0.0, SVG Export Plug-In . SVG Version: 6.00 Build 0)  -->

<svg xmlns:dc="http://purl.org/dc/elements/1.1/"
    xmlns:cc="http://creativecommons.org/ns#"
    xmlns:rdf="http://www.w3.org/1999/02/22-rdf-syntax-ns#"
    xmlns:svg="http://www.w3.org/2000/svg"
    xmlns="http://www.w3.org/2000/svg"
    xmlns:sodipodi="http://sodipodi.sourceforge.net/DTD/sodipodi-0.dtd"
    xmlns:inkscape="http://www.inkscape.org/namespaces/inkscape" version="1.1" id="Capa_1" x="0px" y="0px" width="172.01561" height="196.285" viewBox="0 0 172.01561 196.285" xml:space="preserve" sodipodi:docname="horse.svg" inkscape:version="0.92.4 (5da689c313, 2019-01-14)">
    <metadata id="metadata41">
        <rdf:RDF>
            <cc:Work rdf:about="">
                <dc:format>image/svg+xml</dc:format>
                <dc:type rdf:resource="http://purl.org/dc/dcmitype/StillImage" />
                <dc:title></dc:title>
            </cc:Work>
        </rdf:RDF>
    </metadata>
    <defs id="defs39" />
    <sodipodi:namedview pagecolor="#ffffff" bordercolor="#666666" borderopacity="1" objecttolerance="10" gridtolerance="10" guidetolerance="10" inkscape:pageopacity="0" inkscape:pageshadow="2" inkscape:window-width="1920" inkscape:window-height="1017" id="namedview37" showgrid="false" fit-margin-top="0" fit-margin-left="0" fit-margin-right="0" fit-margin-bottom="0" inkscape:zoom="1.2023333" inkscape:cx="86.007502" inkscape:cy="98.142498" inkscape:window-x="-8" inkscape:window-y="-8" inkscape:window-maximized="1" inkscape:current-layer="Capa_1" />
    <g id="g4" style="fill:#efd8ca;stroke:none;stroke-width:0.03527778" transform="translate(-12.135)">
        <path d="M 38.228,155.075 C 11.674,115.887 30.414,85.281 30.414,85.281 26.06,83.992 12.135,93.118 12.135,93.118 19.967,64.416 63.045,40.031 63.045,40.031 58.263,38.281 44.772,41.757 44.772,41.757 80.015,7.838 123.098,20.451 123.098,20.451 124.398,13.048 145.73,0 145.73,0 c -2.182,2.161 -3.062,13.926 -3.062,13.926 2.176,-3.922 9.15,-7.837 9.15,-7.837 -3.913,9.126 0,28.703 0,28.703 11.312,11.322 23.927,50.49 23.927,50.49 l 4.8,6.96 c 6.094,8.715 3.854,22.417 -2.182,25.667 -22.62,12.212 -24.808,-10.001 -24.808,-10.001 -18.713,-2.176 -32.639,-23.07 -32.639,-23.07 -25.23,13.051 -11.178,49.869 -0.284,64.007 13.997,18.123 3.748,47.44 3.748,47.44 0,0 -59.932,-2.482 -86.152,-41.21 z" id="path2" inkscape:connector-curvature="0" />
    </g>

</svg>