<?xml version="1.0" encoding="iso-8859-1"?>
<!-- Generator: Adobe Illustrator 19.0.0, SVG Export Plug-In . SVG Version: 6.00 Build 0)  -->
<svg version="1.1" id="Layer_1" xmlns="http://www.w3.org/2000/svg" xmlns:xlink="http://www.w3.org/1999/xlink" x="0px" y="0px"
	 viewBox="0 0 490 490" style="enable-background:new 0 0 490 490;" xml:space="preserve">
<g>
	<g>
		<path d="M287.501,0h-65c-42.449,0-82.645,17.038-113.183,47.975C79.566,78.117,62.501,118.949,62.501,160v59.01l-19.806,99.029
			c-0.588,2.938,0.173,5.984,2.072,8.301c1.899,2.317,4.737,3.66,7.733,3.66h34.396c8.319,15.016,7.408,28.473,6.596,40.473
			c-0.722,10.669-1.468,21.702,6.173,29.878c6.237,6.674,16.364,9.649,32.835,9.649h110v80h10h10h165h10h10V160
			C447.501,71.775,375.725,0,287.501,0z M327.715,197.943c0.001-0.004,0.002-0.009,0.003-0.013c0.08-0.382,0.188-0.753,0.31-1.117
			c0.028-0.085,0.061-0.168,0.092-0.252c0.11-0.3,0.233-0.593,0.371-0.878c0.024-0.051,0.04-0.104,0.065-0.155l25-50
			c1.694-3.389,5.157-5.528,8.944-5.528s7.251,2.14,8.944,5.528l25,50c0.025,0.051,0.041,0.104,0.065,0.155
			c0.137,0.285,0.26,0.577,0.37,0.877c0.031,0.084,0.064,0.168,0.093,0.253c0.122,0.363,0.229,0.733,0.309,1.114
			c0.001,0.006,0.003,0.011,0.004,0.017c0.004,0.019,0.009,0.037,0.013,0.056h-69.599
			C327.706,197.98,327.711,197.963,327.715,197.943z M327.501,220h24v169h-24V220z M322.501,155h-90v15h50c5.523,0,10,4.477,10,10
			v120h-20V190h-40v55h-20v-35h-65v55h-20v-65c0-5.523,4.477-10,10-10h75v-35h-50v-20h95V70h20v65h45V155z M397.501,440
			c0,5.522-4.477,10-10,10h-50c-5.523,0-10-4.478-10-10v-29h70V440z M397.501,389h-23.999V220h23.999V389z"/>
	</g>
</g>
<g>
</g>
<g>
</g>
<g>
</g>
<g>
</g>
<g>
</g>
<g>
</g>
<g>
</g>
<g>
</g>
<g>
</g>
<g>
</g>
<g>
</g>
<g>
</g>
<g>
</g>
<g>
</g>
<g>
</g>
</svg>
