<?xml version="1.0" encoding="UTF-8" standalone="no"?>
<svg
   xmlns:dc="http://purl.org/dc/elements/1.1/"
   xmlns:cc="http://creativecommons.org/ns#"
   xmlns:rdf="http://www.w3.org/1999/02/22-rdf-syntax-ns#"
   xmlns:svg="http://www.w3.org/2000/svg"
   xmlns="http://www.w3.org/2000/svg"
   xmlns:sodipodi="http://sodipodi.sourceforge.net/DTD/sodipodi-0.dtd"
   xmlns:inkscape="http://www.inkscape.org/namespaces/inkscape"
   width="432.4"
   height="432.4"
   version="1.1"
   id="svg30"
   sodipodi:docname="light-off.svg"
   inkscape:version="0.92.4 (5da689c313, 2019-01-14)">
  <metadata
     id="metadata36">
    <rdf:RDF>
      <cc:Work
         rdf:about="">
        <dc:format>image/svg+xml</dc:format>
        <dc:type
           rdf:resource="http://purl.org/dc/dcmitype/StillImage" />
        <dc:title></dc:title>
      </cc:Work>
    </rdf:RDF>
  </metadata>
  <defs
     id="defs34" />
  <sodipodi:namedview
     pagecolor="#ffffff"
     bordercolor="#666666"
     borderopacity="1"
     objecttolerance="10"
     gridtolerance="10"
     guidetolerance="10"
     inkscape:pageopacity="0"
     inkscape:pageshadow="2"
     inkscape:window-width="640"
     inkscape:window-height="480"
     id="namedview32"
     showgrid="false"
     inkscape:zoom="0.54579094"
     inkscape:cx="216.2"
     inkscape:cy="216.2"
     inkscape:window-x="0"
     inkscape:window-y="0"
     inkscape:window-maximized="0"
     inkscape:current-layer="svg30" />
  <g
     id="g28">
    <title
       id="title7">Layer 1</title>
    <path
       id="svg_4"
       fill="#231F20"
       d="m216.529,93.2c-61.2,0 -111.2,50 -111.2,111.2c0,32 14,62.8 37.6,83.6c17.6,17.6 16,55.2 15.6,55.6c0,2 0.4,3.6 2,5.2c1.2,1.2 3.2,2 4.8,2l102,0c2,0 3.6,-0.8 4.8,-2c1.2,-1.2 2,-3.2 2,-5.2c0,-0.4 -2,-38 15.6,-55.6c0.4,-0.4 0.8,-0.8 1.2,-1.2c23.2,-21.2 36.8,-51.2 36.8,-82.4c0,-61.2 -50,-111.2 -111.2,-111.2zm64,184.4c-0.4,0.4 -1.2,1.2 -1.2,1.6c-15.6,16.8 -18.4,44.4 -18.8,57.6l-88.4,0c-0.4,-13.2 -3.2,-42 -20,-59.2c-21.2,-18.4 -33.6,-45.2 -33.6,-73.6c0,-54 43.6,-97.6 97.6,-97.6s97.6,43.6 97.6,97.6c0,28.4 -12,55.2 -33.2,73.6z" />
    <path
       id="svg_5"
       fill="#231F20"
       d="m216.129,121.6c-3.6,0 -6.8,3.2 -6.8,6.8c0,3.6 3.2,6.8 6.8,6.8c40.4,0 72.8,32.8 72.8,72.8c0,3.6 3.2,6.8 6.8,6.8c3.6,0 6.8,-3.2 6.8,-6.8c0.4,-47.6 -38.4,-86.4 -86.4,-86.4z" />
    <path
       id="svg_6"
       fill="#231F20"
       d="m260.529,358.4l-88.8,0c-9.2,0 -16.8,7.6 -16.8,16.8s7.6,16.8 16.8,16.8l88.4,0c9.6,-0.4 17.2,-7.6 17.2,-16.8c0,-9.2 -7.6,-16.8 -16.8,-16.8zm0,19.6l-88.8,0c-1.6,0 -3.2,-1.2 -3.2,-3.2s1.2,-3.2 3.2,-3.2l88.4,0c1.6,0 3.2,1.2 3.2,3.2s-1.2,3.2 -2.8,3.2z" />
    <path
       id="svg_7"
       fill="#231F20"
       d="m247.329,398.8l-62.4,0c-9.2,0 -16.8,7.6 -16.8,16.8s7.6,16.8 16.8,16.8l62.4,0c9.2,0 16.8,-7.6 16.8,-16.8c0,-9.6 -7.6,-16.8 -16.8,-16.8zm0,19.6l-62.4,0c-1.6,0 -3.2,-1.2 -3.2,-3.2s1.2,-3.2 3.2,-3.2l62.4,0c1.6,0 3.2,1.2 3.2,3.2s-1.6,3.2 -3.2,3.2z" />
    <g
       id="svg_13" />
    <g
       id="svg_14" />
    <g
       id="svg_15" />
    <g
       id="svg_16" />
    <g
       id="svg_17" />
    <g
       id="svg_18" />
    <g
       id="svg_19" />
    <g
       id="svg_20" />
    <g
       id="svg_21" />
    <g
       id="svg_22" />
    <g
       id="svg_23" />
    <g
       id="svg_24" />
    <g
       id="svg_25" />
    <g
       id="svg_26" />
    <g
       id="svg_27" />
  </g>
</svg>
