<?xml version="1.0" encoding="UTF-8" standalone="no"?>
<!-- Generator: Adobe Illustrator 23.0.1, SVG Export Plug-In . SVG Version: 6.00 Build 0)  -->

<svg
   xmlns:dc="http://purl.org/dc/elements/1.1/"
   xmlns:cc="http://creativecommons.org/ns#"
   xmlns:rdf="http://www.w3.org/1999/02/22-rdf-syntax-ns#"
   xmlns:svg="http://www.w3.org/2000/svg"
   xmlns="http://www.w3.org/2000/svg"
   xmlns:sodipodi="http://sodipodi.sourceforge.net/DTD/sodipodi-0.dtd"
   xmlns:inkscape="http://www.inkscape.org/namespaces/inkscape"
   version="1.1"
   id="Layer_1"
   x="0px"
   y="0px"
   viewBox="0 0 740.39178 811.84998"
   xml:space="preserve"
   sodipodi:docname="logo-green-full.svg"
   width="740.39178"
   height="811.84998"
   inkscape:version="0.92.4 (5da689c313, 2019-01-14)"><metadata
   id="metadata116"><rdf:RDF><cc:Work
       rdf:about=""><dc:format>image/svg+xml</dc:format><dc:type
         rdf:resource="http://purl.org/dc/dcmitype/StillImage" /><dc:title></dc:title></cc:Work></rdf:RDF></metadata><defs
   id="defs114" /><sodipodi:namedview
   pagecolor="#ffffff"
   bordercolor="#666666"
   borderopacity="1"
   objecttolerance="10"
   gridtolerance="10"
   guidetolerance="10"
   inkscape:pageopacity="0"
   inkscape:pageshadow="2"
   inkscape:window-width="1920"
   inkscape:window-height="1009"
   id="namedview112"
   showgrid="false"
   fit-margin-top="0"
   fit-margin-left="0"
   fit-margin-right="0"
   fit-margin-bottom="0"
   inkscape:zoom="0.15608466"
   inkscape:cx="484.66091"
   inkscape:cy="252.82"
   inkscape:window-x="-8"
   inkscape:window-y="-8"
   inkscape:window-maximized="1"
   inkscape:current-layer="Layer_1" />
<style
   type="text/css"
   id="style2">
	.st0{fill:#FFFFFF;}
	.st1{fill:#00A0AF;}
	.st2{fill:#238DC1;}
	.st3{fill:url(#SVGID_1_);}
	.st4{fill:url(#SVGID_2_);}
	.st5{fill:url(#SVGID_3_);}
	.st6{fill:url(#SVGID_4_);}
	.st7{fill:url(#SVGID_5_);}
	.st8{fill:url(#SVGID_6_);}
	.st9{fill:url(#SVGID_7_);}
	.st10{fill:url(#SVGID_8_);}
	.st11{fill:url(#SVGID_9_);}
	.st12{fill:url(#SVGID_10_);}
	.st13{fill:url(#SVGID_11_);}
</style>
<g
   id="g109"
   transform="translate(-235.33909,-196.97)">
	<path
   class="st0"
   d="M 717.83,829.09 C 656.44,800.68 602.88,741.34 601.38,658.32 c 0,0 0,0 0,0 0.06,-2.05 0.14,-4.08 0.24,-6.06 0,-0.04 0,-0.08 0.01,-0.11 0.1,-1.86 0.22,-3.67 0.35,-5.44 0.01,-0.17 0.02,-0.35 0.04,-0.52 0.13,-1.6 0.28,-3.14 0.43,-4.66 0.03,-0.29 0.06,-0.6 0.09,-0.88 0.18,-1.63 0.38,-3.2 0.6,-4.7 0.01,-0.09 0.02,-0.2 0.04,-0.29 0.2,-1.37 0.47,-2.78 0.78,-4.2 0.09,-0.44 0.21,-0.89 0.32,-1.33 0.24,-1 0.49,-2 0.78,-3.02 0.15,-0.53 0.31,-1.06 0.48,-1.59 0.3,-0.98 0.64,-1.97 0.99,-2.96 0.19,-0.53 0.37,-1.05 0.57,-1.58 0.44,-1.17 0.94,-2.34 1.46,-3.52 0.15,-0.35 0.29,-0.69 0.44,-1.04 0.69,-1.51 1.45,-3.02 2.26,-4.53 0.24,-0.45 0.52,-0.9 0.77,-1.35 0.61,-1.08 1.24,-2.17 1.92,-3.25 0.36,-0.57 0.74,-1.15 1.12,-1.72 0.65,-0.98 1.32,-1.96 2.03,-2.94 0.42,-0.58 0.84,-1.17 1.28,-1.75 0.78,-1.04 1.62,-2.07 2.47,-3.09 0.41,-0.49 0.8,-0.99 1.22,-1.48 1.28,-1.48 2.63,-2.95 4.05,-4.4 0.34,-0.34 0.71,-0.68 1.06,-1.02 1.14,-1.13 2.31,-2.24 3.55,-3.35 0.6,-0.54 1.24,-1.07 1.86,-1.6 1.06,-0.91 2.15,-1.81 3.28,-2.7 0.7,-0.55 1.41,-1.1 2.14,-1.64 1.18,-0.89 2.42,-1.76 3.68,-2.62 0.71,-0.49 1.41,-0.99 2.15,-1.47 1.71,-1.12 0.49,2.89 2.33,1.82 0.33,-0.19 -1.58,3.68 3.98,-5.7 77.91,7.66 156.24,35.67 206.33,101.75 57.45,75.8 60.28,176.57 60.42,186.32 -0.01,0 -0.01,0 -0.02,0 -1.24,0.31 -2.47,0.6 -3.7,0.89 -0.03,0.01 -0.06,0.01 -0.09,0.02 -20.77,0.31 -122.83,0 -195.26,-33.52 z"
   id="path4"
   inkscape:connector-curvature="0"
   style="fill:#ffffff" />
	<path
   class="st0"
   d="m 603.51,655.16 c 0,0 -5.21,-1.01 -2.17,-77.45 5.03,-126.27 20.17,-192.74 101.61,-271.73 97.64,-94.71 220.88,-109.01 220.88,-109.01 0,0 45.85,52.02 51.54,152.77 6.5,115.2 -76.18,178.35 -136.62,200.99 -60.45,22.64 -160.79,17.83 -191.53,54.03 -14.71,17.31 -38.09,23.34 -43.71,50.4 z"
   id="path6"
   inkscape:connector-curvature="0"
   style="fill:#ffffff" />
	<path
   class="st1"
   d="m 614.94,627.93 c 0,0 2.34,-56.54 2.69,-69 3.06,-107.17 38.64,-181.46 109.07,-247.93 70.43,-66.47 190.47,-96.18 190.47,-96.18 0,0 35.54,54.89 39.97,144.86 4.43,89.97 -64.9,152.37 -117.97,172.47 -53.08,20.1 -127.31,27.79 -166.38,42.55 -34.44,13 -47.91,26.27 -57.85,53.23 z"
   id="path8"
   inkscape:connector-curvature="0"
   style="fill:#00a0af" />
	<path
   class="st0"
   d="m 607.56,655.16 c 0,0 5.21,-1.01 2.17,-77.45 C 604.7,451.44 589.56,384.97 508.12,305.98 410.48,211.27 287.24,196.97 287.24,196.97 c 0,0 -45.85,52.02 -51.54,152.77 -6.5,115.2 76.18,178.35 136.62,200.99 60.45,22.64 160.79,17.83 191.53,54.03 14.71,17.31 38.09,23.34 43.71,50.4 z"
   id="path10"
   inkscape:connector-curvature="0"
   style="fill:#ffffff" />
	<path
   class="st0"
   d="m 493.23,829.09 c 61.39,-28.41 114.95,-87.75 116.45,-170.77 0,0 0,0 0,0 -0.06,-2.05 -0.14,-4.08 -0.24,-6.06 0,-0.04 0,-0.08 -0.01,-0.11 -0.1,-1.86 -0.22,-3.67 -0.35,-5.44 -0.01,-0.17 -0.02,-0.35 -0.04,-0.52 -0.13,-1.6 -0.28,-3.14 -0.43,-4.66 -0.03,-0.29 -0.06,-0.6 -0.09,-0.88 -0.18,-1.63 -0.38,-3.2 -0.6,-4.7 -0.01,-0.09 -0.02,-0.2 -0.04,-0.29 -0.2,-1.37 -0.47,-2.78 -0.78,-4.2 -0.09,-0.44 -0.21,-0.89 -0.32,-1.33 -0.24,-1 -0.49,-2 -0.78,-3.02 -0.15,-0.53 -0.31,-1.06 -0.48,-1.59 -0.3,-0.98 -0.64,-1.97 -0.99,-2.96 -0.19,-0.53 -0.37,-1.05 -0.57,-1.58 -0.44,-1.17 -0.94,-2.34 -1.46,-3.52 -0.15,-0.35 -0.29,-0.69 -0.44,-1.04 -0.69,-1.51 -1.45,-3.02 -2.26,-4.53 -0.24,-0.45 -0.52,-0.9 -0.77,-1.35 -0.61,-1.08 -1.24,-2.17 -1.92,-3.25 -0.36,-0.57 -0.74,-1.15 -1.12,-1.72 -0.65,-0.98 -1.32,-1.96 -2.03,-2.94 -0.42,-0.58 -0.84,-1.17 -1.28,-1.75 -0.78,-1.04 -1.62,-2.07 -2.47,-3.09 -0.41,-0.49 -0.8,-0.99 -1.22,-1.48 -1.28,-1.48 -2.63,-2.95 -4.05,-4.4 -0.34,-0.34 -0.71,-0.68 -1.06,-1.02 -1.14,-1.13 -2.31,-2.24 -3.55,-3.35 -0.6,-0.54 -1.24,-1.07 -1.86,-1.6 -1.06,-0.91 -2.15,-1.81 -3.28,-2.7 -0.7,-0.55 -1.41,-1.1 -2.14,-1.64 -1.18,-0.89 -2.42,-1.76 -3.68,-2.62 -0.71,-0.49 -1.41,-0.99 -2.15,-1.47 -1.71,-1.12 -0.49,2.89 -2.33,1.82 -0.33,-0.19 1.58,3.68 -3.98,-5.7 -77.91,7.66 -156.24,35.67 -206.33,101.75 -57.45,75.8 -60.28,176.57 -60.42,186.32 0.01,0 0.01,0 0.02,0 1.24,0.31 2.47,0.6 3.7,0.89 0.03,0.01 0.06,0.01 0.09,0.02 20.78,0.31 122.84,0 195.26,-33.52 z"
   id="path12"
   inkscape:connector-curvature="0"
   style="fill:#ffffff" />
	<path
   class="st2"
   d="m 487.49,816.48 c 53.8,-24.9 100.75,-76.9 102.07,-149.67 0,0 0,0 0,0 -0.05,-1.8 -0.12,-3.57 -0.21,-5.31 0,-0.03 0,-0.07 0,-0.1 -0.09,-1.63 -0.19,-3.21 -0.31,-4.76 -0.01,-0.15 -0.02,-0.31 -0.03,-0.45 -0.11,-1.4 -0.24,-2.75 -0.38,-4.08 -0.03,-0.25 -0.05,-0.52 -0.08,-0.77 -0.16,-1.43 -0.33,-2.8 -0.52,-4.12 -0.01,-0.08 -0.02,-0.18 -0.03,-0.26 -0.18,-1.2 -0.41,-2.43 -0.68,-3.68 -0.08,-0.39 -0.19,-0.78 -0.28,-1.17 -0.21,-0.88 -0.43,-1.76 -0.68,-2.65 -0.13,-0.46 -0.27,-0.93 -0.42,-1.4 -0.27,-0.86 -0.56,-1.73 -0.87,-2.6 -0.16,-0.46 -0.32,-0.92 -0.5,-1.39 -0.39,-1.02 -0.82,-2.05 -1.28,-3.08 -0.14,-0.31 -0.25,-0.61 -0.39,-0.91 -0.61,-1.32 -1.27,-2.65 -1.98,-3.97 -0.21,-0.39 -0.45,-0.79 -0.67,-1.18 -0.53,-0.95 -1.09,-1.9 -1.68,-2.85 -0.31,-0.5 -0.65,-1.01 -0.98,-1.51 -0.57,-0.86 -1.16,-1.72 -1.78,-2.58 -0.37,-0.51 -0.74,-1.02 -1.12,-1.53 -0.69,-0.91 -1.42,-1.81 -2.16,-2.71 -0.36,-0.43 -0.7,-0.87 -1.07,-1.3 -1.12,-1.3 -2.3,-2.58 -3.55,-3.86 -0.3,-0.3 -0.63,-0.59 -0.93,-0.89 -1,-0.99 -2.03,-1.97 -3.11,-2.93 -0.53,-0.47 -1.08,-0.94 -1.63,-1.4 -0.93,-0.8 -1.89,-1.58 -2.88,-2.36 -0.61,-0.48 -1.24,-0.96 -1.88,-1.44 -1.04,-0.78 -2.12,-1.54 -3.22,-2.3 -0.63,-0.43 -1.24,-0.87 -1.89,-1.29 -1.5,-0.98 -3.06,-1.94 -4.68,-2.88 -0.29,-0.17 -0.56,-0.35 -0.85,-0.52 -68.29,6.71 -136.94,31.27 -180.83,89.18 -50.35,66.44 -52.83,154.75 -52.96,163.3 0.01,0 0.01,0 0.02,0 1.09,0.27 2.17,0.53 3.25,0.78 0.03,0.01 0.05,0.01 0.08,0.02 18.16,0.27 107.62,0 171.09,-29.38 z"
   id="path14"
   inkscape:connector-curvature="0"
   style="fill:#238dc1" />
	
		<radialGradient
   id="SVGID_1_"
   cx="548.72882"
   cy="491.84799"
   r="362.41531"
   gradientTransform="matrix(-0.5849,0.8111,-0.8225,-0.5931,1274.2192,338.4791)"
   gradientUnits="userSpaceOnUse">
		<stop
   offset="0"
   style="stop-color:#04A0D2"
   id="stop16" />
		<stop
   offset="1"
   style="stop-color:#FFFFFF;stop-opacity:0.08"
   id="stop18" />
	</radialGradient>
	<path
   class="st3"
   d="m 592.62,630.08 c 0.14,0.31 0.25,0.61 0.39,0.91 -0.14,-0.3 -0.25,-0.6 -0.39,-0.91 z"
   id="path21"
   inkscape:connector-curvature="0"
   style="fill:url(#SVGID_1_)" />
	<linearGradient
   id="SVGID_2_"
   gradientUnits="userSpaceOnUse"
   x1="323.34698"
   y1="846.43921"
   x2="595.14117"
   y2="602.19177">
		<stop
   offset="0"
   style="stop-color:#23749C"
   id="stop23" />
		<stop
   offset="0.9995"
   style="stop-color:#4095BF"
   id="stop25" />
	</linearGradient>
	<path
   class="st4"
   d="m 322.79,845.06 c -0.01,0 -0.01,0 -0.02,0 -0.01,0.44 -0.01,0.73 -0.01,0.73 0,0 1.21,0.04 3.35,0.07 -0.03,-0.01 -0.05,-0.01 -0.08,-0.02 -1.08,-0.26 -2.16,-0.51 -3.24,-0.78 z"
   id="path28"
   inkscape:connector-curvature="0"
   style="fill:url(#SVGID_2_)" />
	
		<radialGradient
   id="SVGID_3_"
   cx="548.70728"
   cy="491.93729"
   r="362.39951"
   gradientTransform="matrix(-0.5849,0.8111,-0.8225,-0.5931,1274.2587,338.6388)"
   gradientUnits="userSpaceOnUse">
		<stop
   offset="0"
   style="stop-color:#04A0D2"
   id="stop30" />
		<stop
   offset="1"
   style="stop-color:#FFFFFF;stop-opacity:0.08"
   id="stop32" />
	</radialGradient>
	<path
   class="st5"
   d="m 322.79,845.06 c 1.09,0.27 2.17,0.53 3.25,0.78 -1.09,-0.26 -2.17,-0.51 -3.25,-0.78 z"
   id="path35"
   inkscape:connector-curvature="0"
   style="fill:url(#SVGID_3_)" />
	<linearGradient
   id="SVGID_4_"
   gradientUnits="userSpaceOnUse"
   x1="323.32932"
   y1="846.41968"
   x2="595.14313"
   y2="602.15472">
		<stop
   offset="0"
   style="stop-color:#23749C"
   id="stop37" />
		<stop
   offset="0.9995"
   style="stop-color:#4095BF"
   id="stop39" />
	</linearGradient>
	<path
   class="st6"
   d="m 322.79,845.06 c 1.09,0.27 2.17,0.53 3.25,0.78 -1.09,-0.26 -2.17,-0.51 -3.25,-0.78 z"
   id="path42"
   inkscape:connector-curvature="0"
   style="fill:url(#SVGID_4_)" />
	<linearGradient
   id="SVGID_5_"
   gradientUnits="userSpaceOnUse"
   x1="322.39828"
   y1="845.39648"
   x2="387.46201"
   y2="786.92712">
		<stop
   offset="0"
   style="stop-color:#23749C"
   id="stop44" />
		<stop
   offset="0.9995"
   style="stop-color:#4095BF"
   id="stop46" />
	</linearGradient>
	<path
   class="st7"
   d="m 322.77,845.05 v 0 c 0.01,0 0.01,0 0.02,0 -0.01,0.01 -0.01,0 -0.02,0 z"
   id="path49"
   inkscape:connector-curvature="0"
   style="fill:url(#SVGID_5_)" />
	<linearGradient
   id="SVGID_6_"
   gradientUnits="userSpaceOnUse"
   x1="324.27499"
   y1="847.46588"
   x2="595.61761"
   y2="603.62433">
		<stop
   offset="0"
   style="stop-color:#23749C"
   id="stop51" />
		<stop
   offset="0.9995"
   style="stop-color:#4095BF"
   id="stop53" />
	</linearGradient>
	<path
   class="st8"
   d="m 326.11,845.86 c 0,0 0,0 0,0 -0.03,-0.01 -0.05,-0.01 -0.08,-0.02 0.03,0.01 0.06,0.01 0.08,0.02 z"
   id="path56"
   inkscape:connector-curvature="0"
   style="fill:url(#SVGID_6_)" />
	
		<radialGradient
   id="SVGID_7_"
   cx="8946.1035"
   cy="491.82419"
   r="362.52759"
   gradientTransform="matrix(0.5849,0.8111,0.8225,-0.5931,-4957.1431,-6472.8027)"
   gradientUnits="userSpaceOnUse">
		<stop
   offset="0"
   style="stop-color:#04A0D2"
   id="stop58" />
		<stop
   offset="1"
   style="stop-color:#FFFFFF;stop-opacity:0.08"
   id="stop60" />
	</radialGradient>
	<path
   class="st9"
   d="m 629.39,661.5 c -0.09,1.74 -0.16,3.51 -0.21,5.31 0.05,-1.8 0.12,-3.57 0.21,-5.31 z"
   id="path63"
   inkscape:connector-curvature="0"
   style="fill:url(#SVGID_7_)" />
	
		<linearGradient
   id="SVGID_8_"
   gradientUnits="userSpaceOnUse"
   x1="8752.2158"
   y1="881.01123"
   x2="9023.8047"
   y2="636.94812"
   gradientTransform="matrix(-1,0,0,1,9625.9336,0)">
		<stop
   offset="0"
   style="stop-color:#23749C"
   id="stop65" />
		<stop
   offset="0.9995"
   style="stop-color:#4095BF"
   id="stop67" />
	</linearGradient>
	<path
   class="st10"
   d="m 629.4,661.4 c 0,0.03 0,0.07 0,0.1 0,-0.03 0,-0.07 0,-0.1 z"
   id="path70"
   inkscape:connector-curvature="0"
   style="fill:url(#SVGID_8_)" />
	
		<linearGradient
   id="SVGID_9_"
   gradientUnits="userSpaceOnUse"
   x1="8990.8359"
   y1="672.12701"
   x2="9002.668"
   y2="661.49481"
   gradientTransform="matrix(-1,0,0,1,9625.9336,0)">
		<stop
   offset="0"
   style="stop-color:#23749C"
   id="stop72" />
		<stop
   offset="0.9995"
   style="stop-color:#4095BF"
   id="stop74" />
	</linearGradient>
	<polygon
   class="st11"
   points=""
   id="polygon77"
   style="fill:url(#SVGID_9_)" />
	<path
   class="st1"
   d="m 596.12,627.93 c 0,0 -2.34,-56.54 -2.69,-69 C 590.37,451.76 554.79,377.47 484.37,311 413.94,244.53 293.9,214.82 293.9,214.82 c 0,0 -35.54,54.89 -39.97,144.86 -4.43,89.97 64.9,152.37 117.97,172.47 53.08,20.1 127.31,27.79 166.38,42.55 34.44,13 47.91,26.27 57.84,53.23 z"
   id="path79"
   inkscape:connector-curvature="0"
   style="fill:#00a0af" />
	<path
   class="st2"
   d="m 723.57,816.48 c -53.8,-24.9 -100.75,-76.9 -102.07,-149.67 0,0 0,0 0,0 0.05,-1.8 0.12,-3.57 0.21,-5.31 0,-0.03 0,-0.07 0,-0.1 0.09,-1.63 0.19,-3.21 0.31,-4.76 0.01,-0.15 0.02,-0.31 0.03,-0.45 0.11,-1.4 0.24,-2.75 0.38,-4.08 0.03,-0.25 0.05,-0.52 0.08,-0.77 0.16,-1.43 0.33,-2.8 0.52,-4.12 0.01,-0.08 0.02,-0.18 0.03,-0.26 0.18,-1.2 0.41,-2.43 0.68,-3.68 0.08,-0.39 0.18,-0.78 0.28,-1.17 0.21,-0.88 0.43,-1.76 0.68,-2.65 0.13,-0.46 0.27,-0.93 0.42,-1.4 0.27,-0.86 0.56,-1.73 0.87,-2.6 0.16,-0.46 0.32,-0.92 0.5,-1.39 0.39,-1.02 0.82,-2.05 1.28,-3.08 0.14,-0.31 0.25,-0.61 0.39,-0.91 0.61,-1.32 1.27,-2.65 1.98,-3.97 0.21,-0.39 0.45,-0.79 0.67,-1.18 0.53,-0.95 1.09,-1.9 1.68,-2.85 0.31,-0.5 0.65,-1.01 0.98,-1.51 0.57,-0.86 1.16,-1.72 1.78,-2.58 0.37,-0.51 0.74,-1.02 1.12,-1.53 0.69,-0.91 1.42,-1.81 2.16,-2.71 0.36,-0.43 0.7,-0.87 1.07,-1.3 1.12,-1.3 2.3,-2.58 3.55,-3.86 0.3,-0.3 0.63,-0.59 0.93,-0.89 1,-0.99 2.03,-1.97 3.11,-2.93 0.53,-0.47 1.08,-0.94 1.63,-1.4 0.93,-0.8 1.89,-1.58 2.88,-2.36 0.61,-0.48 1.24,-0.96 1.88,-1.44 1.04,-0.78 2.12,-1.54 3.22,-2.3 0.63,-0.43 1.24,-0.87 1.89,-1.29 1.5,-0.98 3.06,-1.94 4.68,-2.88 0.29,-0.17 0.56,-0.35 0.85,-0.52 68.29,6.71 136.94,31.27 180.83,89.18 50.35,66.44 52.83,154.75 52.96,163.3 -0.01,0 -0.01,0 -0.02,0 -1.09,0.27 -2.17,0.53 -3.25,0.78 -0.03,0.01 -0.05,0.01 -0.08,0.02 -18.16,0.27 -107.61,0 -171.09,-29.38 z"
   id="path81"
   inkscape:connector-curvature="0"
   style="fill:#238dc1" />
	
		<radialGradient
   id="SVGID_10_"
   cx="7718.0063"
   cy="491.84799"
   r="362.41531"
   gradientTransform="matrix(0.5849,0.8111,0.8225,-0.5931,-4254.2256,-5476.6357)"
   gradientUnits="userSpaceOnUse">
		<stop
   offset="0"
   style="stop-color:#04A0D2"
   id="stop83" />
		<stop
   offset="1"
   style="stop-color:#FFFFFF;stop-opacity:0.08"
   id="stop85" />
	</radialGradient>
	<path
   class="st12"
   d="m 620.58,630.08 c -0.14,0.31 -0.25,0.61 -0.39,0.91 0.14,-0.3 0.25,-0.6 0.39,-0.91 z"
   id="path88"
   inkscape:connector-curvature="0"
   style="fill:url(#SVGID_10_)" />
	<linearGradient
   id="SVGID_11_"
   gradientUnits="userSpaceOnUse"
   x1="957.34552"
   y1="639.88452"
   x2="957.34552"
   y2="639.88452">
		<stop
   offset="0"
   style="stop-color:#34B9C4"
   id="stop90" />
		<stop
   offset="1"
   style="stop-color:#099EA3"
   id="stop92" />
	</linearGradient>
	<path
   class="st13"
   d="M 957.35,639.88"
   id="path95"
   inkscape:connector-curvature="0"
   style="fill:url(#SVGID_11_)" />
	<g
   id="g107">
		<path
   class="st2"
   d="m 329.77,981.26 c 1.23,3.2 2.54,6.15 3.92,8.85 1.38,2.7 3.04,5.06 4.98,7.05 1.94,1.99 4.19,3.57 6.78,4.7 2.58,1.14 5.68,1.7 9.31,1.7 2.4,0 4.61,-0.4 6.64,-1.2 2.03,-0.8 3.81,-1.94 5.35,-3.41 1.54,-1.48 2.74,-3.21 3.6,-5.21 0.86,-2 1.29,-4.19 1.29,-6.59 0,-3.01 -0.55,-5.59 -1.66,-7.75 -1.11,-2.15 -2.58,-4.01 -4.43,-5.58 -1.84,-1.57 -3.93,-2.93 -6.27,-4.1 -2.34,-1.17 -4.73,-2.31 -7.19,-3.41 -2.77,-1.23 -5.55,-2.58 -8.35,-4.06 -2.8,-1.48 -5.3,-3.23 -7.51,-5.26 -2.21,-2.03 -4.03,-4.36 -5.44,-7.01 -1.41,-2.64 -2.12,-5.78 -2.12,-9.4 0,-3.87 0.78,-7.3 2.35,-10.28 1.57,-2.98 3.69,-5.49 6.36,-7.51 2.67,-2.03 5.78,-3.56 9.31,-4.61 3.53,-1.05 7.3,-1.57 11.3,-1.57 3.87,0 7.45,0.29 10.74,0.88 3.29,0.58 6.81,1.37 10.56,2.35 -0.18,1.97 -0.34,3.8 -0.46,5.49 -0.12,1.69 -0.2,3.35 -0.23,4.98 -0.03,1.63 -0.06,3.29 -0.09,4.98 -0.03,1.69 -0.05,3.52 -0.05,5.49 l -3.87,0.37 c -0.55,-6.52 -2.54,-11.39 -5.95,-14.61 -3.41,-3.23 -8.01,-4.84 -13.79,-4.84 -2.21,0 -4.24,0.34 -6.09,1.01 -1.84,0.68 -3.44,1.66 -4.79,2.95 -1.35,1.29 -2.41,2.83 -3.18,4.61 -0.77,1.78 -1.15,3.78 -1.15,5.99 0,2.95 0.47,5.43 1.43,7.42 0.95,2 2.26,3.73 3.92,5.21 1.66,1.48 3.58,2.75 5.76,3.83 2.18,1.08 4.47,2.14 6.87,3.18 2.95,1.29 5.92,2.7 8.9,4.24 2.98,1.54 5.66,3.35 8.02,5.44 2.37,2.09 4.29,4.52 5.76,7.28 1.47,2.77 2.21,6.03 2.21,9.77 0,4.18 -0.86,7.88 -2.58,11.11 -1.72,3.23 -4,5.96 -6.82,8.21 -2.83,2.25 -6.09,3.95 -9.77,5.12 -3.69,1.17 -7.47,1.75 -11.34,1.75 -3.38,0 -6.89,-0.34 -10.51,-1.01 -3.63,-0.68 -7.47,-1.6 -11.53,-2.77 -0.43,-4.06 -0.95,-7.87 -1.57,-11.43 -0.62,-3.56 -1.44,-7.38 -2.49,-11.43 z"
   id="path97"
   inkscape:connector-curvature="0"
   style="fill:#238dc1" />
		<path
   class="st2"
   d="m 451.17,976.65 c 0,4.43 0.74,8.22 2.21,11.39 1.47,3.17 3.43,5.75 5.85,7.75 2.43,2 5.18,3.47 8.25,4.43 3.07,0.95 6.24,1.43 9.5,1.43 3.32,0 6.48,-0.51 9.5,-1.52 3.01,-1.01 5.69,-2.64 8.02,-4.89 2.34,-2.24 4.2,-5.13 5.58,-8.67 1.38,-3.53 2.07,-7.79 2.07,-12.77 v -38.73 c 0,-2.7 -0.2,-4.89 -0.6,-6.55 -0.4,-1.66 -1.14,-2.95 -2.21,-3.87 -1.08,-0.92 -2.57,-1.57 -4.47,-1.94 -1.91,-0.37 -4.36,-0.65 -7.38,-0.83 l 0.18,-3.32 c 2.15,0 4.75,0.03 7.79,0.09 3.04,0.06 6.22,0.09 9.54,0.09 2.7,0 5.53,-0.05 8.48,-0.14 2.95,-0.09 5.41,-0.14 7.38,-0.14 l 0.09,3.13 c -2.71,0.25 -4.9,0.54 -6.59,0.88 -1.69,0.34 -3.04,1 -4.06,1.98 -1.01,0.98 -1.71,2.43 -2.07,4.33 -0.37,1.91 -0.55,4.52 -0.55,7.84 v 39 c 0,6.02 -1.01,11.13 -3.04,15.31 -2.03,4.18 -4.69,7.61 -7.98,10.28 -3.29,2.67 -7.01,4.61 -11.16,5.81 -4.15,1.2 -8.38,1.8 -12.68,1.8 -4.24,0 -8.3,-0.58 -12.17,-1.75 -3.87,-1.17 -7.3,-2.95 -10.28,-5.35 -2.98,-2.4 -5.36,-5.41 -7.15,-9.04 -1.78,-3.63 -2.67,-7.9 -2.67,-12.81 v -49.24 c 0,-1.48 -0.14,-2.73 -0.42,-3.78 -0.28,-1.04 -0.86,-1.92 -1.75,-2.63 -0.89,-0.71 -2.17,-1.24 -3.83,-1.61 -1.66,-0.37 -3.87,-0.62 -6.64,-0.74 l 0.18,-3.32 c 1.11,0 2.41,0.02 3.92,0.05 1.51,0.03 3.09,0.05 4.75,0.05 1.72,0 3.46,0.02 5.21,0.05 1.75,0.03 3.4,0.05 4.93,0.05 1.23,0 2.6,-0.02 4.1,-0.05 1.51,-0.03 3.03,-0.05 4.56,-0.05 1.54,0 3,-0.02 4.38,-0.05 1.38,-0.03 2.6,-0.05 3.64,-0.05 l 0.28,3.14 c -2.64,0.18 -4.79,0.49 -6.45,0.92 -1.66,0.43 -2.95,1.11 -3.87,2.03 -0.92,0.92 -1.55,2.14 -1.89,3.64 -0.34,1.51 -0.51,3.4 -0.51,5.67 v 42.7 z"
   id="path99"
   inkscape:connector-curvature="0"
   style="fill:#238dc1" />
		<path
   class="st2"
   d="m 594.33,978.03 c 0,-1.78 -0.03,-3.3 -0.09,-4.56 -0.06,-1.26 -0.26,-2.52 -0.6,-3.78 -0.34,-1.26 -0.85,-2.63 -1.52,-4.1 -0.68,-1.48 -1.63,-3.32 -2.86,-5.53 -1.66,-2.95 -3.67,-6.52 -6.04,-10.7 -2.37,-4.18 -5.36,-9.28 -8.99,-15.31 -1.41,-2.4 -2.63,-4.35 -3.64,-5.86 -1.02,-1.5 -2.09,-2.7 -3.23,-3.59 -1.14,-0.89 -2.48,-1.54 -4.01,-1.94 -1.54,-0.4 -3.5,-0.69 -5.9,-0.88 l 0.18,-3.32 c 2.58,0 5.42,0.03 8.53,0.09 3.1,0.06 6.22,0.09 9.36,0.09 2.58,0 5.21,-0.03 7.88,-0.09 2.67,-0.06 5.3,-0.09 7.88,-0.09 l 0.28,3.13 c -3.32,0.25 -5.61,0.65 -6.87,1.2 -1.26,0.55 -1.89,1.38 -1.89,2.49 0,0.74 0.21,1.6 0.65,2.58 0.43,0.98 1.01,2.18 1.75,3.59 l 16.78,30.89 16.23,-29.32 c 0.98,-1.78 1.74,-3.27 2.26,-4.47 0.52,-1.2 0.78,-2.23 0.78,-3.09 0,-1.17 -0.69,-2.01 -2.07,-2.54 -1.38,-0.52 -3.83,-0.91 -7.33,-1.15 l 0.18,-3.32 c 2.27,0 4.67,0.03 7.19,0.09 2.52,0.06 5.16,0.09 7.93,0.09 2.27,0 4.62,-0.03 7.05,-0.09 2.43,-0.06 4.78,-0.09 7.05,-0.09 l 0.28,3.13 c -2.4,0.18 -4.38,0.49 -5.95,0.92 -1.57,0.43 -2.97,1.17 -4.19,2.21 -1.23,1.05 -2.44,2.46 -3.64,4.24 -1.2,1.78 -2.66,4.12 -4.38,7.01 -3.14,5.23 -5.84,9.85 -8.11,13.88 -2.28,4.03 -4.06,7.33 -5.35,9.91 -1.29,2.52 -2.28,4.55 -2.95,6.09 -0.68,1.54 -1.17,2.89 -1.48,4.06 -0.31,1.17 -0.48,2.29 -0.51,3.36 -0.03,1.08 -0.05,2.38 -0.05,3.92 v 18.26 c 0,1.48 0.12,2.71 0.37,3.69 0.25,0.98 0.8,1.8 1.66,2.44 0.86,0.65 2.17,1.12 3.92,1.43 1.75,0.31 4.13,0.52 7.15,0.65 l -0.18,3.32 c -1.29,0 -2.75,-0.02 -4.38,-0.05 -1.63,-0.03 -3.3,-0.05 -5.03,-0.05 -1.72,0 -3.43,-0.02 -5.12,-0.05 -1.69,-0.03 -3.27,-0.05 -4.75,-0.05 -1.23,0 -2.57,0.02 -4.01,0.05 -1.45,0.03 -2.9,0.05 -4.38,0.05 -1.48,0 -2.95,0.02 -4.43,0.05 -1.48,0.03 -2.8,0.05 -3.97,0.05 l -0.28,-3.13 c 2.83,-0.18 5.1,-0.46 6.82,-0.83 1.72,-0.37 3.01,-0.98 3.87,-1.85 0.86,-0.86 1.43,-2.01 1.71,-3.46 0.28,-1.44 0.42,-3.33 0.42,-5.67 v -14 z"
   id="path101"
   inkscape:connector-curvature="0"
   style="fill:#238dc1" />
		<path
   class="st2"
   d="m 704.94,991.95 c 0,2.09 0.14,3.81 0.42,5.16 0.28,1.35 0.83,2.41 1.66,3.18 0.83,0.77 2,1.31 3.5,1.61 1.51,0.31 3.52,0.46 6.04,0.46 h 6.73 c 3.56,0 6.47,-0.29 8.71,-0.88 2.24,-0.58 4.13,-1.57 5.67,-2.95 1.54,-1.38 2.9,-3.21 4.1,-5.49 1.2,-2.27 2.5,-5.07 3.92,-8.39 l 3.6,0.83 c -0.49,1.78 -0.95,3.69 -1.38,5.72 -0.43,2.03 -0.83,4.03 -1.2,5.99 -0.37,1.97 -0.68,3.81 -0.92,5.53 -0.25,1.72 -0.4,3.13 -0.46,4.24 -12.23,0 -22.15,-0.03 -29.74,-0.09 -7.59,-0.06 -13.26,-0.09 -17.01,-0.09 -1.11,0 -2.41,0.02 -3.92,0.05 -1.51,0.03 -3.06,0.05 -4.66,0.05 -1.6,0 -3.15,0.02 -4.66,0.05 -1.51,0.03 -2.78,0.05 -3.83,0.05 l -0.28,-3.13 c 2.83,-0.18 5.1,-0.48 6.82,-0.88 1.72,-0.4 3.04,-1.02 3.96,-1.85 0.92,-0.83 1.54,-1.97 1.84,-3.41 0.31,-1.44 0.46,-3.33 0.46,-5.67 v -62.05 c 0,-1.48 -0.14,-2.71 -0.42,-3.69 -0.28,-0.98 -0.83,-1.8 -1.66,-2.44 -0.83,-0.65 -2.03,-1.12 -3.6,-1.43 -1.57,-0.31 -3.67,-0.52 -6.32,-0.65 l 0.28,-3.32 c 1.17,0 2.5,0.02 4.01,0.05 1.51,0.03 3.03,0.05 4.56,0.05 1.6,0 3.15,0.02 4.66,0.05 1.51,0.03 2.9,0.05 4.19,0.05 2.4,0 7.44,-0.03 15.12,-0.09 7.68,-0.06 17.46,-0.09 29.32,-0.09 -0.37,3.13 -0.65,6.42 -0.83,9.87 -0.18,3.44 -0.31,7.1 -0.37,10.97 l -3.69,0.09 c -0.55,-3.2 -1.17,-5.84 -1.84,-7.93 -0.68,-2.09 -1.63,-3.76 -2.86,-5.03 -1.23,-1.26 -2.83,-2.15 -4.79,-2.67 -1.97,-0.52 -4.52,-0.78 -7.65,-0.78 h -13.19 c -1.84,0 -3.03,0.18 -3.55,0.55 -0.52,0.37 -0.78,1.32 -0.78,2.86 v 31.9 l 31.17,-0.92 0.65,0.65 -0.18,7.65 c -5.59,-0.49 -11.11,-0.83 -16.55,-1.01 -5.44,-0.18 -10.47,-0.34 -15.08,-0.46 v 27.73 z"
   id="path103"
   inkscape:connector-curvature="0"
   style="fill:#238dc1" />
		<path
   class="st2"
   d="m 871.52,1008.27 c -1.6,-2.27 -3.2,-4.47 -4.79,-6.59 -1.6,-2.12 -3.29,-4.26 -5.07,-6.41 l -49.33,-58.55 -0.37,0.18 v 53.94 c 0,2.89 0.17,5.15 0.51,6.78 0.34,1.63 0.97,2.86 1.89,3.69 0.92,0.83 2.17,1.38 3.73,1.66 1.57,0.28 3.61,0.51 6.13,0.69 l -0.18,3.32 c -1.97,0 -4.29,-0.03 -6.96,-0.09 -2.67,-0.06 -5.49,-0.09 -8.44,-0.09 -2.34,0 -4.78,0.03 -7.33,0.09 -2.55,0.06 -4.9,0.09 -7.05,0.09 l -0.28,-3.13 c 2.46,-0.25 4.49,-0.54 6.09,-0.88 1.6,-0.34 2.87,-1.03 3.83,-2.08 0.95,-1.05 1.61,-2.61 1.98,-4.7 0.37,-2.09 0.55,-4.98 0.55,-8.67 v -46.2 c 0,-2.58 -0.03,-4.67 -0.09,-6.27 -0.06,-1.6 -0.2,-2.9 -0.42,-3.92 -0.22,-1.02 -0.51,-1.86 -0.88,-2.54 -0.37,-0.68 -0.86,-1.38 -1.47,-2.12 -0.62,-0.8 -1.23,-1.48 -1.84,-2.03 -0.62,-0.55 -1.32,-1.01 -2.12,-1.38 -0.8,-0.37 -1.78,-0.65 -2.95,-0.83 -1.17,-0.18 -2.61,-0.34 -4.33,-0.46 l 0.18,-3.32 c 0.74,0 1.83,0.02 3.27,0.05 1.44,0.03 3.06,0.05 4.84,0.05 1.78,0 3.63,0.02 5.53,0.05 1.9,0.03 3.69,0.05 5.35,0.05 l 59.01,69.61 0.28,-0.18 v -53.39 c 0,-2.89 -0.17,-5.15 -0.51,-6.78 -0.34,-1.63 -0.97,-2.86 -1.89,-3.69 -0.92,-0.83 -2.18,-1.38 -3.78,-1.66 -1.6,-0.28 -3.66,-0.51 -6.18,-0.69 l 0.18,-3.32 c 1.97,0 4.3,0.03 7.01,0.09 2.7,0.06 5.53,0.09 8.48,0.09 1.17,0 2.4,-0.02 3.69,-0.05 1.29,-0.03 2.57,-0.06 3.83,-0.09 1.26,-0.03 2.46,-0.06 3.6,-0.09 1.14,-0.03 2.14,-0.05 3,-0.05 l 0.09,3.13 c -2.4,0.25 -4.37,0.55 -5.9,0.92 -1.54,0.37 -2.75,1.08 -3.64,2.12 -0.89,1.05 -1.52,2.61 -1.89,4.7 -0.37,2.09 -0.55,4.98 -0.55,8.67 v 69.34 z"
   id="path105"
   inkscape:connector-curvature="0"
   style="fill:#238dc1" />
	</g>
</g>
</svg>