<?xml version="1.0" encoding="UTF-8" standalone="no"?>
<svg
   xmlns:dc="http://purl.org/dc/elements/1.1/"
   xmlns:cc="http://creativecommons.org/ns#"
   xmlns:rdf="http://www.w3.org/1999/02/22-rdf-syntax-ns#"
   xmlns:svg="http://www.w3.org/2000/svg"
   xmlns="http://www.w3.org/2000/svg"
   xmlns:xlink="http://www.w3.org/1999/xlink"
   xmlns:sodipodi="http://sodipodi.sourceforge.net/DTD/sodipodi-0.dtd"
   xmlns:inkscape="http://www.inkscape.org/namespaces/inkscape"
   viewBox="0 0 473.64938 531.45"
   version="1.1"
   id="svg78"
   sodipodi:docname="logo-red.svg"
   width="473.64938"
   height="531.45001"
   inkscape:version="0.92.4 (5da689c313, 2019-01-14)">
  <metadata
     id="metadata82">
    <rdf:RDF>
      <cc:Work
         rdf:about="">
        <dc:format>image/svg+xml</dc:format>
        <dc:type
           rdf:resource="http://purl.org/dc/dcmitype/StillImage" />
        <dc:title>Suyen logored</dc:title>
      </cc:Work>
    </rdf:RDF>
  </metadata>
  <sodipodi:namedview
     pagecolor="#ffffff"
     bordercolor="#666666"
     borderopacity="1"
     objecttolerance="10"
     gridtolerance="10"
     guidetolerance="10"
     inkscape:pageopacity="0"
     inkscape:pageshadow="2"
     inkscape:window-width="1920"
     inkscape:window-height="1009"
     id="namedview80"
     showgrid="false"
     fit-margin-top="0"
     fit-margin-left="0"
     fit-margin-right="0"
     fit-margin-bottom="0"
     inkscape:zoom="0.44416839"
     inkscape:cx="236.82128"
     inkscape:cy="265.765"
     inkscape:window-x="-8"
     inkscape:window-y="-8"
     inkscape:window-maximized="1"
     inkscape:current-layer="svg78" />
  <defs
     id="defs31">
    <style
       id="style2">.cls-1{isolation:isolate;}.cls-2{fill:#fff;}.cls-3{fill:url(#linear-gradient);}.cls-4{fill:url(#linear-gradient-2);}.cls-12,.cls-5,.cls-7{mix-blend-mode:multiply;}.cls-5{fill:url(#radial-gradient);}.cls-6{fill:url(#linear-gradient-3);}.cls-7{fill:url(#radial-gradient-2);}.cls-8{fill:url(#linear-gradient-4);}.cls-9{fill:url(#linear-gradient-5);}.cls-10{fill:url(#linear-gradient-6);}.cls-11{fill:url(#linear-gradient-7);}.cls-12{fill:url(#radial-gradient-3);}.cls-13{fill:url(#linear-gradient-8);}</style>
    <linearGradient
       id="linear-gradient"
       x1="531.17999"
       y1="938.89001"
       x2="709.39001"
       y2="782.72998"
       gradientUnits="userSpaceOnUse">
      <stop
         offset="0"
         stop-color="#984a84"
         id="stop4" />
      <stop
         offset="1"
         stop-color="#da5457"
         id="stop6" />
    </linearGradient>
    <linearGradient
       id="linear-gradient-2"
       x1="7420.0601"
       y1="938.89001"
       x2="7598.27"
       y2="782.72998"
       gradientTransform="matrix(-1,0,0,1,8328.6,0)"
       xlink:href="#linear-gradient" />
    <radialGradient
       id="radial-gradient"
       cx="681.96997"
       cy="710.39001"
       r="224.78"
       gradientTransform="matrix(-0.58481611,0.8111659,-0.81927756,-0.59066427,1665.14,578.57)"
       gradientUnits="userSpaceOnUse">
      <stop
         offset="0"
         stop-color="#00a1d3"
         id="stop10" />
      <stop
         offset="1"
         stop-color="#fff"
         stop-opacity="0.08"
         id="stop12" />
    </radialGradient>
    <linearGradient
       id="linear-gradient-3"
       x1="542.22998"
       y1="930.28998"
       x2="710.76001"
       y2="778.83002"
       gradientUnits="userSpaceOnUse">
      <stop
         offset="0"
         stop-color="#20739c"
         id="stop15" />
      <stop
         offset="1"
         stop-color="#4095bf"
         id="stop17" />
    </linearGradient>
    <radialGradient
       id="radial-gradient-2"
       cx="681.96997"
       cy="710.40002"
       r="224.75999"
       gradientTransform="matrix(-0.58481611,0.8111659,-0.81927756,-0.59066427,1665.15,578.59)"
       xlink:href="#radial-gradient" />
    <linearGradient
       id="linear-gradient-4"
       x1="542.21002"
       y1="930.28003"
       x2="710.75"
       y2="778.82001"
       xlink:href="#linear-gradient-3" />
    <linearGradient
       id="linear-gradient-5"
       x1="58.639999"
       y1="404.70999"
       x2="98.220001"
       y2="369.14001"
       xlink:href="#linear-gradient-3" />
    <linearGradient
       id="linear-gradient-6"
       x1="542.79999"
       y1="930.92999"
       x2="711.78003"
       y2="779.07001"
       xlink:href="#linear-gradient-3" />
    <linearGradient
       id="linear-gradient-7"
       x1="728.21002"
       y1="689.34003"
       x2="560.89001"
       y2="433.23999"
       gradientTransform="rotate(-1.63,4708.5723,1988.2308)"
       gradientUnits="userSpaceOnUse">
      <stop
         offset="0"
         stop-color="#ee882d"
         id="stop24" />
      <stop
         offset="1"
         stop-color="#c75264"
         id="stop26" />
    </linearGradient>
    <radialGradient
       id="radial-gradient-3"
       cx="7570.8501"
       cy="710.39001"
       r="224.78"
       gradientTransform="matrix(0.58,0.81,0.82,-0.59,-4254.63,-5009.11)"
       xlink:href="#radial-gradient" />
    <linearGradient
       id="linear-gradient-8"
       x1="7614.25"
       y1="885.66998"
       x2="7446.9302"
       y2="629.57001"
       gradientTransform="matrix(-1,-0.03,-0.03,1,8383.25,134.74)"
       xlink:href="#linear-gradient-7" />
    <linearGradient
       inkscape:collect="always"
       xlink:href="#linear-gradient"
       id="linearGradient892"
       gradientUnits="userSpaceOnUse"
       x1="531.17999"
       y1="938.89001"
       x2="709.39001"
       y2="782.72998" />
    <radialGradient
       inkscape:collect="always"
       xlink:href="#radial-gradient"
       id="radialGradient894"
       gradientUnits="userSpaceOnUse"
       gradientTransform="matrix(-0.58481611,0.8111659,-0.81927756,-0.59066427,1665.14,578.57)"
       cx="681.96997"
       cy="710.39001"
       r="224.78" />
    <linearGradient
       inkscape:collect="always"
       xlink:href="#linear-gradient-3"
       id="linearGradient896"
       gradientUnits="userSpaceOnUse"
       x1="542.22998"
       y1="930.28998"
       x2="710.76001"
       y2="778.83002" />
    <linearGradient
       inkscape:collect="always"
       xlink:href="#linear-gradient-7"
       id="linearGradient898"
       gradientUnits="userSpaceOnUse"
       gradientTransform="rotate(-1.63,4708.5723,1988.2308)"
       x1="728.21002"
       y1="689.34003"
       x2="560.89001"
       y2="433.23999" />
  </defs>
  <title
     id="title33">Suyen logored</title>
  <g
     class="cls-1"
     id="g76"
     style="isolation:isolate"
     transform="translate(-0.03871802,0.02)">
    <g
       id="Layer_1"
       data-name="Layer 1">
      <path
         class="cls-2"
         d="m 647.9,922.42 c 39.75,-18.4 74.44,-56.82 75.41,-110.59 v 0 c 0,-1.33 -0.09,-2.64 -0.15,-3.92 v -0.07 c -0.06,-1.21 -0.14,-2.38 -0.23,-3.52 0,-0.11 0,-0.23 0,-0.34 -0.08,-1 -0.18,-2 -0.28,-3 l -0.06,-0.57 c -0.11,-1 -0.24,-2.07 -0.38,-3 v -0.19 c -0.13,-0.89 -0.3,-1.8 -0.5,-2.72 -0.06,-0.28 -0.14,-0.57 -0.21,-0.86 -0.15,-0.65 -0.32,-1.3 -0.5,-2 -0.1,-0.34 -0.2,-0.68 -0.31,-1 -0.2,-0.63 -0.41,-1.27 -0.64,-1.92 -0.12,-0.34 -0.24,-0.68 -0.37,-1 -0.29,-0.76 -0.61,-1.52 -1,-2.28 -0.1,-0.23 -0.18,-0.45 -0.28,-0.68 -0.45,-1 -0.94,-2 -1.47,-2.93 -0.15,-0.29 -0.33,-0.59 -0.5,-0.88 -0.39,-0.7 -0.8,-1.4 -1.24,-2.1 -0.23,-0.38 -0.47,-0.75 -0.72,-1.12 -0.42,-0.64 -0.86,-1.27 -1.31,-1.9 l -0.83,-1.14 c -0.51,-0.67 -1.05,-1.34 -1.6,-2 l -0.79,-1 c -0.83,-1 -1.7,-1.91 -2.63,-2.85 l -0.68,-0.66 c -0.74,-0.73 -1.5,-1.45 -2.3,-2.17 -0.39,-0.35 -0.8,-0.69 -1.2,-1 -0.69,-0.59 -1.4,-1.17 -2.13,-1.75 -0.45,-0.36 -0.92,-0.71 -1.39,-1.06 -0.76,-0.58 -1.56,-1.14 -2.38,-1.7 -0.46,-0.32 -0.91,-0.64 -1.39,-1 -1.11,-0.73 -0.32,1.87 -1.51,1.18 -0.22,-0.13 1,2.38 -2.58,-3.7 -50.45,5 -101.18,23.11 -133.62,65.9 -37.2,49.09 -39,114.35 -39.13,120.67 v 0 l 2.4,0.58 h 0.06 c 13.43,0.2 79.54,0 126.44,-21.71 z"
         transform="translate(-483,-524.93)"
         id="path35"
         inkscape:connector-curvature="0"
         style="fill:#ffffff" />
      <path
         class="cls-3"
         d="M 642.63,914.47 C 676,899 705.1,866.78 705.92,821.66 v 0 c 0,-1.11 -0.08,-2.21 -0.13,-3.29 v -0.06 c -0.06,-1 -0.12,-2 -0.2,-3 0,-0.09 0,-0.18 0,-0.28 -0.06,-0.87 -0.14,-1.7 -0.23,-2.53 0,-0.15 0,-0.32 -0.05,-0.48 -0.1,-0.88 -0.21,-1.73 -0.32,-2.55 a 0.88,0.88 0 0 1 0,-0.16 c -0.12,-0.74 -0.26,-1.51 -0.43,-2.28 0,-0.24 -0.11,-0.48 -0.17,-0.72 -0.13,-0.55 -0.27,-1.09 -0.42,-1.65 -0.09,-0.28 -0.17,-0.57 -0.26,-0.86 -0.17,-0.53 -0.35,-1.07 -0.54,-1.61 -0.1,-0.29 -0.2,-0.57 -0.31,-0.86 -0.24,-0.64 -0.51,-1.27 -0.79,-1.91 -0.09,-0.19 -0.16,-0.38 -0.24,-0.57 -0.38,-0.82 -0.79,-1.64 -1.23,-2.47 -0.13,-0.24 -0.28,-0.49 -0.42,-0.73 -0.33,-0.59 -0.67,-1.18 -1,-1.77 -0.2,-0.31 -0.4,-0.62 -0.61,-0.93 -0.35,-0.54 -0.72,-1.07 -1.1,-1.6 -0.23,-0.32 -0.46,-0.64 -0.7,-0.95 -0.42,-0.57 -0.88,-1.13 -1.34,-1.69 l -0.66,-0.8 c -0.7,-0.8 -1.43,-1.6 -2.21,-2.39 -0.18,-0.19 -0.38,-0.37 -0.57,-0.56 -0.62,-0.61 -1.26,-1.22 -1.93,-1.82 l -1,-0.86 c -0.58,-0.5 -1.17,-1 -1.78,-1.47 -0.38,-0.3 -0.77,-0.6 -1.17,-0.89 -0.64,-0.48 -1.31,-1 -2,-1.42 -0.38,-0.27 -0.76,-0.54 -1.17,-0.81 -0.93,-0.6 -1.9,-1.2 -2.9,-1.78 -0.18,-0.11 -0.34,-0.22 -0.52,-0.32 -42.35,4.16 -84.92,19.38 -112.14,55.3 -31.22,41.19 -32.76,96 -32.83,101.26 v 0 l 2,0.49 v 0 c 11.25,0.22 66.72,0.05 106.08,-18.17 z"
         transform="translate(-483,-524.93)"
         id="path37"
         inkscape:connector-curvature="0"
         style="fill:url(#linearGradient892)" />
      <path
         class="cls-2"
         d="M 791.83,922.42 C 752.07,904.02 717.38,865.6 716.41,811.83 v 0 c 0,-1.33 0.09,-2.64 0.16,-3.92 v -0.07 c 0.06,-1.21 0.14,-2.38 0.23,-3.52 0,-0.11 0,-0.23 0,-0.34 0.08,-1 0.18,-2 0.28,-3 l 0.06,-0.57 c 0.12,-1 0.25,-2.07 0.39,-3 0,-0.06 0,-0.13 0,-0.19 0.13,-0.89 0.31,-1.8 0.5,-2.72 l 0.21,-0.86 c 0.15,-0.65 0.32,-1.3 0.51,-2 0.09,-0.34 0.2,-0.68 0.3,-1 0.2,-0.63 0.42,-1.27 0.64,-1.92 0.13,-0.34 0.24,-0.68 0.38,-1 0.28,-0.76 0.6,-1.52 0.94,-2.28 0.1,-0.23 0.18,-0.45 0.29,-0.68 0.44,-1 0.93,-2 1.46,-2.93 l 0.5,-0.88 c 0.39,-0.7 0.8,-1.4 1.24,-2.1 0.23,-0.38 0.48,-0.75 0.72,-1.12 0.42,-0.64 0.86,-1.27 1.31,-1.9 0.28,-0.38 0.55,-0.76 0.84,-1.14 0.5,-0.67 1,-1.34 1.59,-2 0.27,-0.32 0.52,-0.64 0.8,-1 0.83,-1 1.7,-1.91 2.62,-2.85 l 0.69,-0.66 c 0.73,-0.73 1.49,-1.45 2.29,-2.17 0.39,-0.35 0.8,-0.69 1.21,-1 0.69,-0.59 1.39,-1.17 2.12,-1.75 l 1.39,-1.06 c 0.77,-0.58 1.57,-1.14 2.38,-1.7 0.46,-0.32 0.92,-0.64 1.4,-1 1.1,-0.73 0.31,1.87 1.51,1.18 0.21,-0.13 -1,2.38 2.57,-3.7 50.46,5 101.19,23.11 133.62,65.9 37.21,49.09 39,114.35 39.13,120.67 v 0 l -2.39,0.58 h -0.06 c -13.41,0.2 -79.51,0 -126.41,-21.71 z"
         transform="translate(-483,-524.93)"
         id="path39"
         inkscape:connector-curvature="0"
         style="fill:#ffffff" />
      <path
         class="cls-4"
         d="M 797.09,914.47 C 763.73,899.03 734.62,866.78 733.8,821.66 v 0 c 0,-1.11 0.08,-2.21 0.13,-3.29 v -0.06 c 0,-1 0.11,-2 0.19,-3 0,-0.09 0,-0.18 0,-0.28 0.07,-0.87 0.15,-1.7 0.23,-2.53 0,-0.15 0,-0.32 0,-0.48 q 0.15,-1.32 0.33,-2.55 a 0.88,0.88 0 0 1 0,-0.16 c 0.11,-0.74 0.25,-1.51 0.42,-2.28 0,-0.24 0.11,-0.48 0.17,-0.72 0.13,-0.55 0.27,-1.09 0.43,-1.65 0.08,-0.28 0.16,-0.57 0.25,-0.86 0.17,-0.53 0.35,-1.07 0.54,-1.61 0.1,-0.29 0.2,-0.57 0.31,-0.86 0.25,-0.64 0.51,-1.27 0.8,-1.91 0.08,-0.19 0.15,-0.38 0.24,-0.57 0.37,-0.82 0.78,-1.64 1.23,-2.47 l 0.41,-0.73 q 0.49,-0.88 1,-1.77 c 0.19,-0.31 0.4,-0.62 0.6,-0.93 0.35,-0.54 0.72,-1.07 1.1,-1.6 0.23,-0.32 0.46,-0.64 0.7,-0.95 0.43,-0.57 0.88,-1.13 1.34,-1.69 0.23,-0.26 0.43,-0.53 0.67,-0.8 0.69,-0.8 1.42,-1.6 2.2,-2.39 0.18,-0.19 0.39,-0.37 0.57,-0.56 0.62,-0.61 1.26,-1.22 1.93,-1.82 l 1,-0.86 c 0.58,-0.5 1.17,-1 1.79,-1.47 0.38,-0.3 0.76,-0.6 1.16,-0.89 0.64,-0.48 1.31,-1 2,-1.42 l 1.17,-0.81 c 0.93,-0.6 1.9,-1.2 2.9,-1.78 0.18,-0.11 0.34,-0.22 0.53,-0.32 42.34,4.16 84.91,19.38 112.13,55.3 31.22,41.19 32.76,96 32.84,101.26 v 0 l -2,0.49 v 0 c -11.19,0.22 -66.66,0.05 -106.02,-18.17 z"
         transform="translate(-483,-524.93)"
         id="path41"
         inkscape:connector-curvature="0"
         style="fill:url(#linear-gradient-2)" />
      <path
         class="cls-2"
         d="m 724.05,821.66 c 0,0 3.38,-0.65 1.4,-50.15 -3.25,-81.78 -13.05,-124.82 -65.8,-176 -63.23,-61.34 -143,-70.6 -143,-70.6 0,0 -29.69,33.69 -33.37,98.94 -4.28,74.62 49.29,115.52 88.43,130.15 39.14,14.63 104.13,11.55 124,35 9.56,11.24 24.7,15.14 28.34,32.66 z"
         transform="translate(-483,-524.93)"
         id="path43"
         inkscape:connector-curvature="0"
         style="fill:#ffffff" />
      <path
         class="cls-5"
         d="m 709.2,796.13 c 0.08,0.19 0.15,0.37 0.24,0.56 -0.09,-0.19 -0.16,-0.37 -0.24,-0.56 z"
         transform="translate(-483,-524.93)"
         id="path45"
         inkscape:connector-curvature="0"
         style="mix-blend-mode:multiply;fill:url(#radialGradient894)" />
      <path
         class="cls-6"
         d="m 541.88,929.43 v 0 c 0,0.27 0,0.45 0,0.45 0,0 0.75,0 2.08,0 h -0.05 z"
         transform="translate(-483,-524.93)"
         id="path47"
         inkscape:connector-curvature="0"
         style="fill:url(#linearGradient896)" />
      <path
         class="cls-7"
         d="m 541.88,929.43 2,0.49 z"
         transform="translate(-483,-524.93)"
         id="path49"
         inkscape:connector-curvature="0"
         style="mix-blend-mode:multiply;fill:url(#radial-gradient-2)" />
      <path
         class="cls-8"
         d="m 541.88,929.43 2,0.49 z"
         transform="translate(-483,-524.93)"
         id="path51"
         inkscape:connector-curvature="0"
         style="fill:url(#linear-gradient-4)" />
      <polygon
         class="cls-9"
         points="58.88,404.5 58.87,404.5 "
         id="polygon53"
         style="fill:url(#linear-gradient-5)" />
      <path
         class="cls-10"
         d="M 543.94,929.93 Z"
         transform="translate(-483,-524.93)"
         id="path55"
         inkscape:connector-curvature="0"
         style="fill:url(#linear-gradient-6)" />
      <path
         class="cls-11"
         d="m 711.37,794.79 c 0,0 -1.45,-35.06 -1.67,-42.78 -1.89,-66.46 -24,-112.52 -67.63,-153.74 C 598.44,557.05 524,538.63 524,538.63 c 0,0 -22,34 -24.78,89.83 -2.78,55.83 40.24,94.48 73.15,106.94 32.91,12.46 78.95,17.24 103.17,26.39 21.32,8.06 29.67,16.28 35.83,33 z"
         transform="translate(-483,-524.93)"
         id="path57"
         inkscape:connector-curvature="0"
         style="fill:url(#linearGradient898)" />
      <path
         class="cls-12"
         d="m 730.53,796.13 c -0.09,0.19 -0.16,0.37 -0.24,0.56 0.08,-0.19 0.15,-0.37 0.24,-0.56 z"
         transform="translate(-483,-524.93)"
         id="path59"
         inkscape:connector-curvature="0"
         style="mix-blend-mode:multiply;fill:url(#radial-gradient-3)" />
      <path
         class="cls-2"
         d="m 715.67,821.66 c 0,0 -3.37,-0.65 -1.4,-50.15 3.26,-81.78 13.06,-124.82 65.8,-176 63.23,-61.34 143,-70.6 143,-70.6 0,0 29.69,33.69 33.38,98.94 4.25,74.62 -49.3,115.52 -88.45,130.15 -39.15,14.63 -104.13,11.55 -124,35 -9.55,11.24 -24.69,15.14 -28.33,32.66 z"
         transform="translate(-483,-524.93)"
         id="path61"
         inkscape:connector-curvature="0"
         style="fill:#ffffff" />
      <path
         class="cls-13"
         d="m 728.35,794.79 c 0,0 1.45,-35.06 1.65,-42.79 1.9,-66.46 24,-112.52 67.63,-153.74 43.63,-41.22 118.11,-59.64 118.11,-59.64 0,0 22,34 24.78,89.83 2.78,55.83 -40.22,94.49 -73.13,106.95 -32.91,12.46 -78.94,17.24 -103.17,26.39 -21.35,8.06 -29.71,16.28 -35.87,33 z"
         transform="translate(-483,-524.93)"
         id="path63"
         inkscape:connector-curvature="0"
         style="fill:url(#linear-gradient-8)" />
      <path
         class="cls-2"
         d="m 531.49,1037.81 a 62.08,62.08 0 0 0 2.62,5.92 19.58,19.58 0 0 0 3.33,4.72 14.24,14.24 0 0 0 4.54,3.15 15.41,15.41 0 0 0 6.23,1.14 11.85,11.85 0 0 0 4.44,-0.8 10.7,10.7 0 0 0 6,-5.77 12.21,12.21 0 0 0 -0.25,-9.59 12.23,12.23 0 0 0 -3,-3.74 20.42,20.42 0 0 0 -4.2,-2.74 c -1.56,-0.78 -3.16,-1.55 -4.81,-2.29 q -2.77,-1.23 -5.58,-2.71 a 24,24 0 0 1 -5,-3.52 17.46,17.46 0 0 1 -3.64,-4.69 13.1,13.1 0 0 1 -1.42,-6.29 14.54,14.54 0 0 1 1.57,-6.88 15,15 0 0 1 4.26,-5 19.24,19.24 0 0 1 6.23,-3.09 26.56,26.56 0 0 1 7.56,-1.05 41.27,41.27 0 0 1 7.19,0.59 c 2.2,0.39 4.56,0.92 7.07,1.57 -0.13,1.32 -0.23,2.55 -0.31,3.68 -0.08,1.13 -0.14,2.24 -0.16,3.33 -0.02,1.09 0,2.2 -0.06,3.33 -0.06,1.13 0,2.36 0,3.67 l -2.59,0.25 q -0.56,-6.54 -4,-9.78 -3.44,-3.24 -9.24,-3.22 a 11.55,11.55 0 0 0 -4.07,0.68 9.24,9.24 0 0 0 -3.21,2 9.48,9.48 0 0 0 -2.13,3.09 10.1,10.1 0 0 0 -0.77,4 11.5,11.5 0 0 0 1,5 11,11 0 0 0 2.62,3.48 17.16,17.16 0 0 0 3.86,2.56 q 2.19,1.08 4.59,2.13 c 2,0.87 4,1.81 6,2.84 a 26.53,26.53 0 0 1 5.37,3.64 17.27,17.27 0 0 1 3.85,4.87 13.73,13.73 0 0 1 1.48,6.55 15.58,15.58 0 0 1 -1.72,7.43 17.48,17.48 0 0 1 -4.57,5.49 20,20 0 0 1 -6.54,3.43 25.06,25.06 0 0 1 -7.59,1.17 38.51,38.51 0 0 1 -7,-0.68 q -3.65,-0.67 -7.72,-1.85 -0.43,-4.08 -1.05,-7.65 -0.62,-3.57 -1.66,-7.65 z"
         transform="translate(-483,-524.93)"
         id="path65"
         inkscape:connector-curvature="0"
         style="fill:#ffffff" />
      <path
         class="cls-2"
         d="m 612.73,1034.73 a 17.89,17.89 0 0 0 1.48,7.62 14.51,14.51 0 0 0 3.92,5.18 16,16 0 0 0 5.52,3 21.31,21.31 0 0 0 6.36,1 19.69,19.69 0 0 0 6.35,-1 14.2,14.2 0 0 0 5.37,-3.27 16,16 0 0 0 3.73,-5.8 23.39,23.39 0 0 0 1.39,-8.55 v -26.01 a 19.36,19.36 0 0 0 -0.4,-4.39 4.79,4.79 0 0 0 -1.48,-2.59 6.4,6.4 0 0 0 -3,-1.29 38.35,38.35 0 0 0 -4.94,-0.56 l 0.13,-2.22 c 1.44,0 3.17,0 5.21,0.06 2.04,0.06 4.16,0.06 6.39,0.06 q 2.72,0 5.67,-0.09 c 2,-0.06 3.62,-0.09 4.94,-0.09 l 0.06,2.1 a 44,44 0 0 0 -4.41,0.58 4.73,4.73 0 0 0 -4.1,4.23 28.7,28.7 0 0 0 -0.37,5.24 v 26.11 a 23.28,23.28 0 0 1 -2,10.24 19.94,19.94 0 0 1 -5.34,6.88 20.89,20.89 0 0 1 -7.46,3.89 30.55,30.55 0 0 1 -8.49,1.2 28.06,28.06 0 0 1 -8.14,-1.17 20.06,20.06 0 0 1 -6.88,-3.58 17.68,17.68 0 0 1 -4.79,-6 19.23,19.23 0 0 1 -1.79,-8.57 v -33 a 10.32,10.32 0 0 0 -0.27,-2.53 3.29,3.29 0 0 0 -1.18,-1.75 6.1,6.1 0 0 0 -2.56,-1.08 26.1,26.1 0 0 0 -4.44,-0.5 l 0.12,-2.22 h 2.63 c 1,0 2.06,0 3.17,0 h 3.49 3.3 2.75 c 1,0 2,0 3.05,0 1.05,0 2,0 2.93,0 h 2.44 l 0.19,2.1 a 24,24 0 0 0 -4.32,0.62 5.59,5.59 0 0 0 -2.6,1.35 5,5 0 0 0 -1.26,2.44 17.5,17.5 0 0 0 -0.34,3.8 z"
         transform="translate(-483,-524.93)"
         id="path67"
         inkscape:connector-curvature="0"
         style="fill:#ffffff" />
      <path
         class="cls-2"
         d="m 708.53,1035.65 c 0,-1.19 0,-2.21 -0.06,-3.05 a 11.59,11.59 0 0 0 -0.4,-2.53 16.25,16.25 0 0 0 -1,-2.75 c -0.45,-1 -1.09,-2.22 -1.91,-3.7 -1.11,-2 -2.46,-4.36 -4,-7.16 -1.54,-2.8 -3.59,-6.21 -6,-10.24 -0.94,-1.61 -1.76,-2.91 -2.43,-3.92 a 10.5,10.5 0 0 0 -2.16,-2.41 7.31,7.31 0 0 0 -2.69,-1.29 22.52,22.52 0 0 0 -3.95,-0.59 l 0.13,-2.22 c 1.72,0 3.63,0 5.7,0.06 2.07,0.06 4.17,0.06 6.27,0.06 1.72,0 3.48,0 5.27,-0.06 1.79,-0.06 3.55,-0.06 5.28,-0.06 l 0.18,2.1 a 15.65,15.65 0 0 0 -4.59,0.8 1.78,1.78 0 0 0 -1.27,1.66 4.33,4.33 0 0 0 0.43,1.73 c 0.29,0.66 0.68,1.46 1.18,2.41 l 11.23,20.67 10.86,-19.62 c 0.65,-1.19 1.16,-2.19 1.51,-3 a 5.39,5.39 0 0 0 0.52,-2.07 1.8,1.8 0 0 0 -1.39,-1.7 19.31,19.31 0 0 0 -4.9,-0.77 l 0.12,-2.22 c 1.52,0 3.13,0 4.82,0.06 1.69,0.06 3.45,0.06 5.3,0.06 1.52,0 3.1,0 4.72,-0.06 1.62,-0.06 3.2,-0.06 4.72,-0.06 l 0.19,2.1 a 22.07,22.07 0 0 0 -4,0.61 7.26,7.26 0 0 0 -2.81,1.49 13.88,13.88 0 0 0 -2.44,2.83 q -1.2,1.8 -2.93,4.69 -3.15,5.25 -5.43,9.29 -2.28,4.04 -3.58,6.63 -1.29,2.53 -2,4.08 a 18.11,18.11 0 0 0 -1,2.71 9.67,9.67 0 0 0 -0.34,2.25 c 0,0.72 0,1.6 0,2.62 v 12.22 a 10.1,10.1 0 0 0 0.25,2.47 2.86,2.86 0 0 0 1.11,1.64 6.13,6.13 0 0 0 2.62,0.95 38.48,38.48 0 0 0 4.78,0.44 l -0.12,2.22 h -2.93 q -1.64,0 -3.36,0 c -1.16,0 -2.3,0 -3.43,0 h -3.18 -2.68 c -1,0 -1.94,0 -2.93,0 -0.99,0 -2,0 -3,0 h -2.66 l -0.18,-2.1 a 31.69,31.69 0 0 0 4.56,-0.56 5.06,5.06 0 0 0 2.6,-1.23 4.43,4.43 0 0 0 1.14,-2.32 21.41,21.41 0 0 0 0.27,-3.79 z"
         transform="translate(-483,-524.93)"
         id="path69"
         inkscape:connector-curvature="0"
         style="fill:#ffffff" />
      <path
         class="cls-2"
         d="m 782.56,1045 a 17.23,17.23 0 0 0 0.28,3.45 3.77,3.77 0 0 0 1.11,2.13 4.64,4.64 0 0 0 2.34,1.08 20.67,20.67 0 0 0 4,0.31 h 4.51 a 23.89,23.89 0 0 0 5.83,-0.58 9,9 0 0 0 3.79,-2 13.1,13.1 0 0 0 2.75,-3.67 q 1.2,-2.28 2.62,-5.62 l 2.41,0.56 c -0.33,1.19 -0.64,2.47 -0.93,3.83 -0.29,1.36 -0.55,2.69 -0.8,4 -0.25,1.31 -0.45,2.55 -0.62,3.7 -0.17,1.15 -0.27,2.1 -0.31,2.84 q -12.27,0 -19.9,-0.06 -7.63,-0.06 -11.38,-0.07 h -2.62 c -1,0 -2,0 -3.12,0 -1.12,0 -2.11,0 -3.12,0 h -2.56 l -0.18,-2.1 a 28.88,28.88 0 0 0 4.57,-0.59 5.9,5.9 0 0 0 2.65,-1.23 4.09,4.09 0 0 0 1.23,-2.29 18.47,18.47 0 0 0 0.31,-3.79 v -41.4 a 9.08,9.08 0 0 0 -0.28,-2.47 3,3 0 0 0 -1.11,-1.63 5.72,5.72 0 0 0 -2.4,-1 30.91,30.91 0 0 0 -4.23,-0.43 l 0.18,-2.22 h 2.69 c 1,0 2,0 3.05,0 1.05,0 2.11,0 3.12,0 h 2.81 l 10.12,-0.06 q 7.71,-0.06 19.62,-0.06 c -0.25,2.1 -0.43,4.3 -0.56,6.6 -0.13,2.3 -0.2,4.75 -0.24,7.34 l -2.47,0.07 a 38.42,38.42 0 0 0 -1.24,-5.31 8.4,8.4 0 0 0 -1.91,-3.36 6.74,6.74 0 0 0 -3.21,-1.79 20.4,20.4 0 0 0 -5.12,-0.53 h -8.82 a 4.9,4.9 0 0 0 -2.38,0.37 c -0.35,0.25 -0.52,0.89 -0.52,1.92 v 21.35 l 20.85,-0.62 0.44,0.43 -0.13,5.12 c -3.74,-0.33 -7.43,-0.55 -11.07,-0.68 -3.64,-0.13 -7,-0.22 -10.09,-0.3 z"
         transform="translate(-483,-524.93)"
         id="path71"
         inkscape:connector-curvature="0"
         style="fill:#ffffff" />
      <path
         class="cls-2"
         d="m 894,1055.89 c -1.07,-1.52 -2.13,-3 -3.2,-4.41 -1.07,-1.41 -2.21,-2.85 -3.4,-4.29 l -33,-39.18 -0.25,0.12 v 36.1 a 24,24 0 0 0 0.34,4.53 4.41,4.41 0 0 0 1.27,2.47 4.82,4.82 0 0 0 2.5,1.11 c 1.05,0.19 2.41,0.34 4.1,0.47 l -0.12,2.22 c -1.32,0 -2.87,0 -4.66,-0.06 -1.79,-0.06 -3.67,-0.07 -5.65,-0.07 -1.56,0 -3.2,0 -4.9,0.07 -1.7,0.07 -3.29,0.06 -4.73,0.06 l -0.18,-2.1 a 39.15,39.15 0 0 0 4.07,-0.59 4.62,4.62 0 0 0 2.56,-1.39 6.18,6.18 0 0 0 1.33,-3.14 34.86,34.86 0 0 0 0.37,-5.8 v -30.92 c 0,-1.73 0,-3.12 -0.06,-4.19 a 16.41,16.41 0 0 0 -0.28,-2.63 5.94,5.94 0 0 0 -0.59,-1.69 8.08,8.08 0 0 0 -1,-1.42 9.85,9.85 0 0 0 -1.24,-1.36 5.63,5.63 0 0 0 -1.42,-0.93 7.62,7.62 0 0 0 -2,-0.55 c -0.78,-0.13 -1.75,-0.23 -2.9,-0.31 l 0.12,-2.22 h 2.19 q 1.45,0 3.24,0 h 3.71 3.57 l 39.5,46.59 0.18,-0.12 v -35.73 a 23.28,23.28 0 0 0 -0.34,-4.54 4.38,4.38 0 0 0 -1.26,-2.46 4.89,4.89 0 0 0 -2.53,-1.11 41,41 0 0 0 -4.14,-0.47 l 0.13,-2.22 q 2,0 4.68,0.06 c 1.82,0 3.71,0.06 5.68,0.06 h 2.47 l 2.56,-0.06 2.41,-0.06 h 2 l 0.07,2.1 a 31.16,31.16 0 0 0 -3.95,0.61 4.46,4.46 0 0 0 -2.44,1.42 6.58,6.58 0 0 0 -1.27,3.15 36,36 0 0 0 -0.37,5.8 v 46.4 z"
         transform="translate(-483,-524.93)"
         id="path73"
         inkscape:connector-curvature="0"
         style="fill:#ffffff" />
    </g>
  </g>
</svg>
