<?xml version="1.0" encoding="UTF-8" standalone="no"?>
<!-- Generator: Adobe Illustrator 23.0.1, SVG Export Plug-In . SVG Version: 6.00 Build 0)  -->

<svg
   xmlns:dc="http://purl.org/dc/elements/1.1/"
   xmlns:cc="http://creativecommons.org/ns#"
   xmlns:rdf="http://www.w3.org/1999/02/22-rdf-syntax-ns#"
   xmlns:svg="http://www.w3.org/2000/svg"
   xmlns="http://www.w3.org/2000/svg"
   xmlns:sodipodi="http://sodipodi.sourceforge.net/DTD/sodipodi-0.dtd"
   xmlns:inkscape="http://www.inkscape.org/namespaces/inkscape"
   version="1.1"
   id="Layer_1"
   x="0px"
   y="0px"
   viewBox="0 0 573.7276 631.34003"
   xml:space="preserve"
   sodipodi:docname="logo-red-full-padding.svg"
   width="573.7276"
   height="631.34003"
   inkscape:version="0.92.4 (5da689c313, 2019-01-14)"><metadata
   id="metadata106"><rdf:RDF><cc:Work
       rdf:about=""><dc:format>image/svg+xml</dc:format><dc:type
         rdf:resource="http://purl.org/dc/dcmitype/StillImage" /><dc:title></dc:title></cc:Work></rdf:RDF></metadata><defs
   id="defs104" /><sodipodi:namedview
   pagecolor="#ffffff"
   bordercolor="#666666"
   borderopacity="1"
   objecttolerance="10"
   gridtolerance="10"
   guidetolerance="10"
   inkscape:pageopacity="0"
   inkscape:pageshadow="2"
   inkscape:window-width="1920"
   inkscape:window-height="1009"
   id="namedview102"
   showgrid="false"
   fit-margin-top="0"
   fit-margin-left="0"
   fit-margin-right="0"
   fit-margin-bottom="0"
   inkscape:zoom="0.62433864"
   inkscape:cx="316.02586"
   inkscape:cy="384.23228"
   inkscape:window-x="-8"
   inkscape:window-y="-8"
   inkscape:window-maximized="1"
   inkscape:current-layer="Layer_1" />
<style
   type="text/css"
   id="style2">
	.st0{fill:#FFFFFF;}
	.st1{fill:url(#SVGID_1_);}
	.st2{fill:url(#SVGID_2_);}
	.st3{fill:url(#SVGID_3_);}
	.st4{fill:url(#SVGID_4_);}
	.st5{fill:url(#SVGID_5_);}
	.st6{fill:url(#SVGID_6_);}
	.st7{fill:url(#SVGID_7_);}
	.st8{fill:url(#SVGID_8_);}
	.st9{fill:url(#SVGID_9_);}
	.st10{fill:url(#SVGID_10_);}
	.st11{fill:url(#SVGID_11_);}
	.st12{fill:#B2516B;}
</style>
<path
   class="st0"
   d="m 222.56482,442.24424 c 39.76,-18.4 74.44,-56.83 75.42,-110.59 0,0 0,0 0,0 -0.04,-1.33 -0.09,-2.64 -0.16,-3.92 0,-0.02 0,-0.05 0,-0.07 -0.06,-1.2 -0.14,-2.37 -0.23,-3.52 -0.01,-0.11 -0.02,-0.23 -0.02,-0.34 -0.08,-1.04 -0.18,-2.04 -0.28,-3.02 -0.02,-0.19 -0.04,-0.39 -0.06,-0.57 -0.12,-1.06 -0.25,-2.07 -0.39,-3.04 -0.01,-0.06 -0.02,-0.13 -0.02,-0.19 -0.13,-0.89 -0.3,-1.8 -0.5,-2.72 -0.06,-0.28 -0.14,-0.58 -0.21,-0.86 -0.15,-0.65 -0.32,-1.3 -0.51,-1.96 -0.1,-0.34 -0.2,-0.69 -0.31,-1.03 -0.2,-0.63 -0.41,-1.28 -0.64,-1.92 -0.12,-0.34 -0.24,-0.68 -0.37,-1.03 -0.29,-0.76 -0.61,-1.51 -0.94,-2.28 -0.1,-0.23 -0.18,-0.45 -0.29,-0.68 -0.45,-0.97 -0.94,-1.95 -1.46,-2.94 -0.16,-0.29 -0.33,-0.58 -0.5,-0.87 -0.39,-0.7 -0.8,-1.4 -1.24,-2.11 -0.23,-0.37 -0.48,-0.74 -0.72,-1.12 -0.42,-0.64 -0.86,-1.27 -1.31,-1.9 -0.27,-0.38 -0.54,-0.76 -0.83,-1.13 -0.51,-0.67 -1.05,-1.34 -1.6,-2 -0.27,-0.32 -0.52,-0.64 -0.79,-0.96 -0.83,-0.96 -1.7,-1.91 -2.63,-2.85 -0.22,-0.22 -0.46,-0.44 -0.69,-0.66 -0.74,-0.73 -1.5,-1.45 -2.3,-2.17 -0.39,-0.35 -0.8,-0.69 -1.2,-1.04 -0.69,-0.59 -1.39,-1.17 -2.13,-1.75 -0.45,-0.36 -0.91,-0.71 -1.39,-1.06 -0.77,-0.57 -1.57,-1.14 -2.38,-1.7 -0.46,-0.32 -0.92,-0.64 -1.39,-0.95 -1.11,-0.73 -0.32,1.87 -1.51,1.18 -0.22,-0.13 1.02,2.38 -2.57,-3.69 -50.46,4.96 -101.19,23.1 -133.62,65.9 -37.210002,49.09 -39.040002,114.35 -39.130002,120.67 0,0 0.01,0 0.01,0 0.8,0.2 1.6,0.39 2.4,0.58 0.02,0 0.04,0.01 0.06,0.01 13.420002,0.21 79.520002,0.01 126.430002,-21.7 z"
   id="path4"
   inkscape:connector-curvature="0"
   style="fill:#ffffff" />
<linearGradient
   id="SVGID_1_"
   gradientUnits="userSpaceOnUse"
   x1="531.18201"
   y1="938.88739"
   x2="709.388"
   y2="782.7276"
   gradientTransform="translate(-425.33518,-480.17576)">
	<stop
   offset="0"
   style="stop-color:#984A84"
   id="stop6" />
	<stop
   offset="0.9995"
   style="stop-color:#DA5457"
   id="stop8" />
</linearGradient>
<path
   class="st1"
   d="m 217.29482,434.29424 c 33.36,-15.44 62.47,-47.69 63.29,-92.81 0,0 0,0 0,0 -0.03,-1.12 -0.08,-2.21 -0.13,-3.29 0,-0.02 0,-0.04 0,-0.06 -0.05,-1.01 -0.12,-1.99 -0.19,-2.95 -0.01,-0.09 -0.01,-0.19 -0.02,-0.28 -0.07,-0.87 -0.15,-1.71 -0.24,-2.53 -0.02,-0.16 -0.03,-0.32 -0.05,-0.48 -0.1,-0.89 -0.21,-1.74 -0.33,-2.55 -0.01,-0.05 -0.01,-0.11 -0.02,-0.16 -0.11,-0.75 -0.26,-1.51 -0.42,-2.28 -0.05,-0.24 -0.11,-0.48 -0.17,-0.72 -0.13,-0.54 -0.27,-1.09 -0.42,-1.64 -0.08,-0.29 -0.17,-0.58 -0.26,-0.87 -0.16,-0.53 -0.35,-1.07 -0.54,-1.61 -0.1,-0.29 -0.2,-0.57 -0.31,-0.86 -0.24,-0.63 -0.51,-1.27 -0.79,-1.91 -0.08,-0.19 -0.16,-0.38 -0.24,-0.57 -0.38,-0.82 -0.79,-1.64 -1.23,-2.46 -0.13,-0.24 -0.28,-0.49 -0.42,-0.73 -0.33,-0.59 -0.67,-1.18 -1.04,-1.77 -0.19,-0.31 -0.4,-0.62 -0.61,-0.94 -0.35,-0.53 -0.72,-1.07 -1.1,-1.6 -0.23,-0.32 -0.46,-0.63 -0.7,-0.95 -0.43,-0.56 -0.88,-1.12 -1.34,-1.68 -0.22,-0.27 -0.43,-0.54 -0.66,-0.81 -0.7,-0.8 -1.43,-1.6 -2.2,-2.39 -0.18,-0.19 -0.39,-0.37 -0.57,-0.55 -0.62,-0.61 -1.26,-1.22 -1.93,-1.82 -0.33,-0.29 -0.67,-0.58 -1.01,-0.87 -0.58,-0.49 -1.17,-0.98 -1.78,-1.46 -0.38,-0.3 -0.77,-0.6 -1.16,-0.89 -0.64,-0.48 -1.31,-0.95 -2,-1.42 -0.39,-0.27 -0.77,-0.54 -1.17,-0.8 -0.93,-0.61 -1.9,-1.2 -2.9,-1.79 -0.18,-0.11 -0.35,-0.22 -0.53,-0.32 -42.34,4.16 -84.91,19.39 -112.13,55.3 -31.22,41.2 -32.76,95.96 -32.84,101.26 0,0 0.01,0 0.01,0 0.67,0.17 1.34,0.33 2.01,0.48 0.02,0 0.03,0.01 0.05,0.01 11.26,0.16 66.73,-0.01 106.09,-18.23 z"
   id="path11"
   inkscape:connector-curvature="0"
   style="fill:url(#SVGID_1_)" />
<path
   class="st0"
   d="m 366.49482,442.24424 c -39.76,-18.4 -74.44,-56.83 -75.42,-110.59 0,0 0,0 0,0 0.04,-1.33 0.09,-2.64 0.16,-3.92 0,-0.02 0,-0.05 0,-0.07 0.06,-1.2 0.14,-2.37 0.23,-3.52 0.01,-0.11 0.02,-0.23 0.02,-0.34 0.08,-1.04 0.18,-2.04 0.28,-3.02 0.02,-0.19 0.04,-0.39 0.06,-0.57 0.12,-1.06 0.25,-2.07 0.39,-3.04 0.01,-0.06 0.02,-0.13 0.02,-0.19 0.13,-0.89 0.3,-1.8 0.5,-2.72 0.06,-0.28 0.14,-0.58 0.21,-0.86 0.15,-0.65 0.32,-1.3 0.51,-1.96 0.1,-0.34 0.2,-0.69 0.31,-1.03 0.2,-0.63 0.41,-1.28 0.64,-1.92 0.12,-0.34 0.24,-0.68 0.37,-1.03 0.29,-0.76 0.61,-1.51 0.94,-2.28 0.1,-0.23 0.18,-0.45 0.29,-0.68 0.45,-0.97 0.94,-1.95 1.46,-2.94 0.16,-0.29 0.33,-0.58 0.5,-0.87 0.39,-0.7 0.8,-1.4 1.24,-2.11 0.23,-0.37 0.48,-0.74 0.72,-1.12 0.42,-0.64 0.86,-1.27 1.31,-1.9 0.27,-0.38 0.54,-0.76 0.83,-1.13 0.51,-0.67 1.05,-1.34 1.6,-2 0.27,-0.32 0.52,-0.64 0.79,-0.96 0.83,-0.96 1.7,-1.91 2.63,-2.85 0.22,-0.22 0.46,-0.44 0.69,-0.66 0.74,-0.73 1.5,-1.45 2.3,-2.17 0.39,-0.35 0.8,-0.69 1.2,-1.04 0.69,-0.59 1.39,-1.17 2.13,-1.75 0.45,-0.36 0.91,-0.71 1.39,-1.06 0.77,-0.57 1.57,-1.14 2.38,-1.7 0.46,-0.32 0.92,-0.64 1.39,-0.95 1.11,-0.73 0.32,1.87 1.51,1.18 0.22,-0.13 -1.02,2.38 2.57,-3.69 50.46,4.96 101.19,23.1 133.62,65.9 37.21,49.09 39.04,114.35 39.13,120.67 0,0 -0.01,0 -0.01,0 -0.8,0.2 -1.6,0.39 -2.4,0.58 -0.02,0 -0.04,0.01 -0.06,0.01 -13.43,0.21 -79.53,0.01 -126.43,-21.7 z"
   id="path13"
   inkscape:connector-curvature="0"
   style="fill:#ffffff" />
<linearGradient
   id="SVGID_2_"
   gradientUnits="userSpaceOnUse"
   x1="7420.0635"
   y1="938.88739"
   x2="7598.2695"
   y2="782.7276"
   gradientTransform="matrix(-1,0,0,1,7903.2693,-480.17576)">
	<stop
   offset="0"
   style="stop-color:#984A84"
   id="stop15" />
	<stop
   offset="0.9995"
   style="stop-color:#DA5457"
   id="stop17" />
</linearGradient>
<path
   class="st2"
   d="m 371.75482,434.29424 c -33.36,-15.44 -62.47,-47.69 -63.29,-92.81 0,0 0,0 0,0 0.03,-1.12 0.08,-2.21 0.13,-3.29 0,-0.02 0,-0.04 0,-0.06 0.05,-1.01 0.12,-1.99 0.19,-2.95 0.01,-0.09 0.01,-0.19 0.02,-0.28 0.07,-0.87 0.15,-1.71 0.24,-2.53 0.02,-0.16 0.03,-0.32 0.05,-0.48 0.1,-0.89 0.21,-1.74 0.33,-2.55 0.01,-0.05 0.01,-0.11 0.02,-0.16 0.11,-0.75 0.26,-1.51 0.42,-2.28 0.05,-0.24 0.11,-0.48 0.17,-0.72 0.13,-0.54 0.27,-1.09 0.42,-1.64 0.08,-0.29 0.17,-0.58 0.26,-0.87 0.16,-0.53 0.35,-1.07 0.54,-1.61 0.1,-0.29 0.2,-0.57 0.31,-0.86 0.24,-0.63 0.51,-1.27 0.79,-1.91 0.08,-0.19 0.16,-0.38 0.24,-0.57 0.38,-0.82 0.79,-1.64 1.23,-2.46 0.13,-0.24 0.28,-0.49 0.42,-0.73 0.33,-0.59 0.67,-1.18 1.04,-1.77 0.19,-0.31 0.4,-0.62 0.61,-0.94 0.35,-0.53 0.72,-1.07 1.1,-1.6 0.23,-0.32 0.46,-0.63 0.7,-0.95 0.43,-0.56 0.88,-1.12 1.34,-1.68 0.22,-0.27 0.43,-0.54 0.66,-0.81 0.7,-0.8 1.43,-1.6 2.2,-2.39 0.18,-0.19 0.39,-0.37 0.57,-0.55 0.62,-0.61 1.26,-1.22 1.93,-1.82 0.33,-0.29 0.67,-0.58 1.01,-0.87 0.58,-0.49 1.17,-0.98 1.78,-1.46 0.38,-0.3 0.77,-0.6 1.16,-0.89 0.64,-0.48 1.31,-0.95 2,-1.42 0.39,-0.27 0.77,-0.54 1.17,-0.8 0.93,-0.61 1.9,-1.2 2.9,-1.79 0.18,-0.11 0.35,-0.22 0.53,-0.32 42.34,4.16 84.91,19.39 112.13,55.3 31.22,41.2 32.76,95.96 32.84,101.26 0,0 -0.01,0 -0.01,0 -0.67,0.17 -1.34,0.33 -2.01,0.48 -0.02,0 -0.03,0.01 -0.05,0.01 -11.26,0.16 -66.73,-0.01 -106.09,-18.23 z"
   id="path20"
   inkscape:connector-curvature="0"
   style="fill:url(#SVGID_2_)" />
<path
   class="st0"
   d="m 298.71482,341.48424 c 0,0 3.38,-0.66 1.4,-50.15 -3.26,-81.78 -13.06,-124.82 -65.8,-175.98 -63.24,-61.340002 -143.040002,-70.600002 -143.040002,-70.600002 0,0 -29.690001,33.69 -33.380001,98.940002 -4.21,74.6 49.330003,115.5 88.480003,130.16 39.15,14.66 104.13,11.54 124.04,34.99 9.52,11.22 24.66,15.12 28.3,32.64 z"
   id="path22"
   inkscape:connector-curvature="0"
   style="fill:#ffffff" />
<radialGradient
   id="SVGID_3_"
   cx="681.96692"
   cy="710.39337"
   r="224.78"
   gradientTransform="matrix(-0.5849,0.8111,-0.8225,-0.5931,1239.8057,98.39594)"
   gradientUnits="userSpaceOnUse">
	<stop
   offset="0"
   style="stop-color:#00A1D3"
   id="stop24" />
	<stop
   offset="1"
   style="stop-color:#FFFFFF;stop-opacity:0.08"
   id="stop26" />
</radialGradient>
<path
   class="st3"
   d="m 283.86482,315.95424 c 0.09,0.19 0.16,0.38 0.24,0.57 -0.09,-0.2 -0.16,-0.38 -0.24,-0.57 z"
   id="path29"
   inkscape:connector-curvature="0"
   style="fill:url(#SVGID_3_)" />
<linearGradient
   id="SVGID_4_"
   gradientUnits="userSpaceOnUse"
   x1="542.22559"
   y1="930.28741"
   x2="710.76099"
   y2="778.83337"
   gradientTransform="translate(-425.33518,-480.17576)">
	<stop
   offset="0"
   style="stop-color:#20739C"
   id="stop31" />
	<stop
   offset="0.9995"
   style="stop-color:#4095BF"
   id="stop33" />
</linearGradient>
<path
   class="st4"
   d="m 116.54482,449.25424 c 0,0 -0.01,0 -0.01,0 0,0.27 0,0.46 0,0.46 0,0 0.75,0.02 2.08,0.04 -0.02,0 -0.03,-0.01 -0.05,-0.01 -0.68,-0.16 -1.35,-0.32 -2.02,-0.49 z"
   id="path36"
   inkscape:connector-curvature="0"
   style="fill:url(#SVGID_4_)" />
<radialGradient
   id="SVGID_5_"
   cx="681.96661"
   cy="710.40442"
   r="224.76311"
   gradientTransform="matrix(-0.5849,0.8111,-0.8225,-0.5931,1239.8141,98.41354)"
   gradientUnits="userSpaceOnUse">
	<stop
   offset="0"
   style="stop-color:#00A1D3"
   id="stop38" />
	<stop
   offset="1"
   style="stop-color:#FFFFFF;stop-opacity:0.08"
   id="stop40" />
</radialGradient>
<path
   class="st5"
   d="m 116.54482,449.25424 c 0.67,0.17 1.34,0.33 2.01,0.48 -0.67,-0.15 -1.34,-0.31 -2.01,-0.48 z"
   id="path43"
   inkscape:connector-curvature="0"
   style="fill:url(#SVGID_5_)" />
<linearGradient
   id="SVGID_6_"
   gradientUnits="userSpaceOnUse"
   x1="542.21472"
   y1="930.27533"
   x2="710.74683"
   y2="778.82422"
   gradientTransform="translate(-425.33518,-480.17576)">
	<stop
   offset="0"
   style="stop-color:#20739C"
   id="stop45" />
	<stop
   offset="0.9995"
   style="stop-color:#4095BF"
   id="stop47" />
</linearGradient>
<path
   class="st6"
   d="m 116.54482,449.25424 c 0.67,0.17 1.34,0.33 2.01,0.48 -0.67,-0.15 -1.34,-0.31 -2.01,-0.48 z"
   id="path50"
   inkscape:connector-curvature="0"
   style="fill:url(#SVGID_6_)" />
<linearGradient
   id="SVGID_7_"
   gradientUnits="userSpaceOnUse"
   x1="541.64178"
   y1="929.63672"
   x2="581.22009"
   y2="894.06982">
	<stop
   offset="0"
   style="stop-color:#20739C"
   id="stop52" />
	<stop
   offset="0.9995"
   style="stop-color:#4095BF"
   id="stop54" />
</linearGradient>
<polygon
   class="st7"
   points="541.87,929.43 541.88,929.43 "
   id="polygon57"
   style="fill:url(#SVGID_7_)"
   transform="translate(-425.33518,-480.17576)" />
<linearGradient
   id="SVGID_8_"
   gradientUnits="userSpaceOnUse"
   x1="542.79633"
   y1="930.92841"
   x2="711.78387"
   y2="779.06787"
   gradientTransform="translate(-425.33518,-480.17576)">
	<stop
   offset="0"
   style="stop-color:#20739C"
   id="stop59" />
	<stop
   offset="0.9995"
   style="stop-color:#4095BF"
   id="stop61" />
</linearGradient>
<path
   class="st8"
   d="m 118.60482,449.75424 c 0,0 0,0 0,0 -0.02,0 -0.03,-0.01 -0.05,-0.01 0.02,0 0.03,0 0.05,0.01 z"
   id="path64"
   inkscape:connector-curvature="0"
   style="fill:url(#SVGID_8_)" />
<linearGradient
   id="SVGID_9_"
   gradientUnits="userSpaceOnUse"
   x1="728.20972"
   y1="689.34113"
   x2="560.89117"
   y2="433.241"
   gradientTransform="matrix(0.9996,-0.0285,0.0285,0.9996,-479.98208,-345.43786)">
	<stop
   offset="0"
   style="stop-color:#EE882D"
   id="stop66" />
	<stop
   offset="1"
   style="stop-color:#C75264"
   id="stop68" />
</linearGradient>
<path
   class="st9"
   d="m 286.03482,314.61424 c 0,0 -1.45,-35.06 -1.67,-42.79 -1.9,-66.46 -23.96,-112.52 -67.63,-153.74 -43.67,-41.220002 -118.110002,-59.640002 -118.110002,-59.640002 0,0 -22.04,34.040002 -24.79,89.830002 -2.75,55.79 40.240002,94.48 73.150002,106.95 32.91,12.47 78.94,17.23 103.17,26.38 21.37,8.07 29.72,16.29 35.88,33.01 z"
   id="path71"
   inkscape:connector-curvature="0"
   style="fill:url(#SVGID_9_)" />
<radialGradient
   id="SVGID_10_"
   cx="7570.8486"
   cy="710.39337"
   r="224.78"
   gradientTransform="matrix(0.5849,0.8111,0.8225,-0.5931,-4679.9602,-5489.2857)"
   gradientUnits="userSpaceOnUse">
	<stop
   offset="0"
   style="stop-color:#00A1D3"
   id="stop73" />
	<stop
   offset="1"
   style="stop-color:#FFFFFF;stop-opacity:0.08"
   id="stop75" />
</radialGradient>
<path
   class="st10"
   d="m 305.19482,315.95424 c -0.09,0.19 -0.16,0.38 -0.24,0.57 0.08,-0.2 0.15,-0.38 0.24,-0.57 z"
   id="path78"
   inkscape:connector-curvature="0"
   style="fill:url(#SVGID_10_)" />
<path
   class="st0"
   d="m 290.33482,341.48424 c 0,0 -3.38,-0.66 -1.4,-50.15 3.26,-81.78 13.06,-124.82 65.8,-175.98 63.24,-61.340002 143.04,-70.600002 143.04,-70.600002 0,0 29.69,33.69 33.38,98.940002 4.21,74.6 -49.33,115.5 -88.48,130.16 -39.15,14.66 -104.13,11.54 -124.04,34.99 -9.52,11.22 -24.66,15.12 -28.3,32.64 z"
   id="path80"
   inkscape:connector-curvature="0"
   style="fill:#ffffff" />
<linearGradient
   id="SVGID_11_"
   gradientUnits="userSpaceOnUse"
   x1="7614.2505"
   y1="885.67181"
   x2="7446.9316"
   y2="629.57172"
   gradientTransform="matrix(-0.9996,-0.0285,-0.0285,0.9996,7957.9158,-345.43786)">
	<stop
   offset="0"
   style="stop-color:#EE882D"
   id="stop82" />
	<stop
   offset="1"
   style="stop-color:#C75264"
   id="stop84" />
</linearGradient>
<path
   class="st11"
   d="m 303.01482,314.61424 c 0,0 1.45,-35.06 1.67,-42.79 1.9,-66.46 23.96,-112.52 67.63,-153.74 43.67,-41.220002 118.11,-59.640002 118.11,-59.640002 0,0 22.04,34.040002 24.79,89.830002 2.75,55.79 -40.24,94.48 -73.15,106.95 -32.91,12.47 -78.94,17.23 -103.17,26.38 -21.36,8.07 -29.72,16.29 -35.88,33.01 z"
   id="path87"
   inkscape:connector-curvature="0"
   style="fill:url(#SVGID_11_)" />
<g
   id="g99"
   transform="translate(-425.33518,-480.17576)">
	<path
   class="st12"
   d="m 531.49,1037.81 c 0.82,2.14 1.7,4.11 2.62,5.92 0.93,1.81 2.04,3.38 3.33,4.72 1.3,1.34 2.81,2.39 4.54,3.15 1.73,0.76 3.8,1.14 6.23,1.14 1.6,0 3.09,-0.27 4.44,-0.8 1.36,-0.53 2.55,-1.3 3.58,-2.28 1.03,-0.99 1.83,-2.15 2.41,-3.49 0.58,-1.34 0.86,-2.81 0.86,-4.41 0,-2.01 -0.37,-3.74 -1.11,-5.18 -0.74,-1.44 -1.73,-2.68 -2.96,-3.73 -1.23,-1.05 -2.63,-1.96 -4.2,-2.75 -1.56,-0.78 -3.17,-1.54 -4.81,-2.28 -1.85,-0.82 -3.71,-1.73 -5.58,-2.71 -1.87,-0.99 -3.55,-2.16 -5.03,-3.52 -1.48,-1.36 -2.69,-2.92 -3.64,-4.69 -0.95,-1.77 -1.42,-3.87 -1.42,-6.29 0,-2.59 0.52,-4.88 1.57,-6.88 1.05,-1.99 2.47,-3.67 4.26,-5.03 1.79,-1.36 3.87,-2.39 6.23,-3.09 2.37,-0.7 4.88,-1.05 7.56,-1.05 2.59,0 4.99,0.2 7.19,0.59 2.2,0.39 4.56,0.92 7.07,1.57 -0.12,1.32 -0.23,2.54 -0.31,3.67 -0.08,1.13 -0.13,2.24 -0.15,3.33 -0.02,1.09 -0.04,2.2 -0.06,3.33 -0.02,1.13 -0.03,2.35 -0.03,3.67 l -2.59,0.25 c -0.37,-4.36 -1.7,-7.62 -3.98,-9.78 -2.28,-2.16 -5.36,-3.24 -9.23,-3.24 -1.48,0 -2.84,0.23 -4.07,0.68 -1.23,0.45 -2.3,1.11 -3.21,1.98 -0.9,0.86 -1.61,1.89 -2.13,3.09 -0.51,1.19 -0.77,2.53 -0.77,4.01 0,1.98 0.32,3.63 0.96,4.97 0.64,1.34 1.51,2.5 2.62,3.49 1.11,0.99 2.4,1.84 3.86,2.56 1.46,0.72 2.99,1.43 4.6,2.13 1.97,0.86 3.96,1.81 5.95,2.84 1.99,1.03 3.78,2.24 5.37,3.64 1.58,1.4 2.87,3.02 3.86,4.87 0.99,1.85 1.48,4.03 1.48,6.54 0,2.8 -0.58,5.28 -1.73,7.44 -1.15,2.16 -2.67,3.99 -4.57,5.49 -1.89,1.5 -4.07,2.64 -6.54,3.42 -2.47,0.78 -5,1.17 -7.59,1.17 -2.26,0 -4.61,-0.23 -7.03,-0.68 -2.43,-0.45 -5,-1.07 -7.71,-1.85 -0.29,-2.72 -0.64,-5.27 -1.05,-7.65 -0.41,-2.39 -0.97,-4.94 -1.67,-7.65 z"
   id="path89"
   inkscape:connector-curvature="0"
   style="fill:#b2516b" />
	<path
   class="st12"
   d="m 612.73,1034.73 c 0,2.96 0.49,5.5 1.48,7.62 0.99,2.12 2.29,3.85 3.92,5.18 1.62,1.34 3.47,2.32 5.52,2.96 2.06,0.64 4.18,0.96 6.36,0.96 2.22,0 4.34,-0.34 6.36,-1.02 2.02,-0.68 3.81,-1.77 5.37,-3.27 1.56,-1.5 2.81,-3.43 3.73,-5.8 0.93,-2.37 1.39,-5.21 1.39,-8.55 v -25.92 c 0,-1.81 -0.13,-3.27 -0.4,-4.38 -0.27,-1.11 -0.76,-1.98 -1.48,-2.59 -0.72,-0.62 -1.72,-1.05 -2.99,-1.3 -1.27,-0.25 -2.92,-0.43 -4.94,-0.56 l 0.12,-2.22 c 1.44,0 3.18,0.02 5.21,0.06 2.04,0.04 4.17,0.06 6.39,0.06 1.81,0 3.7,-0.03 5.68,-0.09 1.98,-0.06 3.62,-0.09 4.94,-0.09 l 0.06,2.1 c -1.81,0.17 -3.28,0.36 -4.41,0.59 -1.13,0.23 -2.04,0.67 -2.71,1.33 -0.68,0.66 -1.14,1.63 -1.39,2.9 -0.25,1.28 -0.37,3.02 -0.37,5.24 v 26.1 c 0,4.03 -0.68,7.45 -2.04,10.24 -1.36,2.8 -3.14,5.09 -5.34,6.88 -2.2,1.79 -4.69,3.09 -7.47,3.89 -2.78,0.8 -5.61,1.2 -8.48,1.2 -2.84,0 -5.55,-0.39 -8.14,-1.17 -2.59,-0.78 -4.89,-1.97 -6.88,-3.58 -2,-1.6 -3.59,-3.62 -4.78,-6.05 -1.19,-2.43 -1.79,-5.28 -1.79,-8.58 v -32.95 c 0,-0.99 -0.09,-1.83 -0.28,-2.53 -0.18,-0.7 -0.58,-1.28 -1.17,-1.76 -0.6,-0.47 -1.45,-0.83 -2.56,-1.08 -1.11,-0.25 -2.59,-0.41 -4.44,-0.49 l 0.12,-2.22 c 0.74,0 1.61,0.01 2.62,0.03 1.01,0.02 2.07,0.03 3.18,0.03 1.15,0 2.31,0.01 3.49,0.03 1.17,0.02 2.27,0.03 3.3,0.03 0.82,0 1.74,-0.01 2.75,-0.03 1.01,-0.02 2.03,-0.03 3.05,-0.03 1.03,0 2.01,-0.01 2.93,-0.03 0.93,-0.02 1.74,-0.03 2.44,-0.03 l 0.18,2.1 c -1.77,0.12 -3.21,0.33 -4.32,0.62 -1.11,0.29 -1.97,0.74 -2.59,1.36 -0.62,0.62 -1.04,1.43 -1.26,2.44 -0.23,1.01 -0.34,2.27 -0.34,3.79 v 28.58 z"
   id="path91"
   inkscape:connector-curvature="0"
   style="fill:#b2516b" />
	<path
   class="st12"
   d="m 708.53,1035.65 c 0,-1.19 -0.02,-2.21 -0.06,-3.05 -0.04,-0.84 -0.18,-1.69 -0.4,-2.53 -0.23,-0.84 -0.57,-1.76 -1.02,-2.75 -0.45,-0.99 -1.09,-2.22 -1.91,-3.7 -1.11,-1.98 -2.46,-4.36 -4.04,-7.16 -1.58,-2.8 -3.59,-6.21 -6.02,-10.24 -0.95,-1.6 -1.76,-2.91 -2.44,-3.92 -0.68,-1.01 -1.4,-1.81 -2.16,-2.41 -0.76,-0.6 -1.66,-1.03 -2.68,-1.3 -1.03,-0.27 -2.34,-0.46 -3.95,-0.59 l 0.12,-2.22 c 1.73,0 3.63,0.02 5.71,0.06 2.08,0.04 4.17,0.06 6.26,0.06 1.73,0 3.49,-0.02 5.28,-0.06 1.79,-0.04 3.55,-0.06 5.28,-0.06 l 0.18,2.1 c -2.22,0.17 -3.75,0.43 -4.6,0.8 -0.84,0.37 -1.26,0.93 -1.26,1.67 0,0.49 0.14,1.07 0.43,1.73 0.29,0.66 0.68,1.46 1.17,2.41 l 11.23,20.67 10.86,-19.62 c 0.66,-1.19 1.16,-2.19 1.51,-2.99 0.35,-0.8 0.52,-1.49 0.52,-2.07 0,-0.78 -0.46,-1.35 -1.39,-1.7 -0.93,-0.35 -2.56,-0.61 -4.91,-0.77 l 0.12,-2.22 c 1.52,0 3.13,0.02 4.81,0.06 1.69,0.04 3.46,0.06 5.31,0.06 1.52,0 3.09,-0.02 4.72,-0.06 1.62,-0.04 3.2,-0.06 4.72,-0.06 l 0.19,2.1 c -1.6,0.12 -2.93,0.33 -3.98,0.62 -1.05,0.29 -1.98,0.78 -2.81,1.48 -0.82,0.7 -1.64,1.65 -2.44,2.84 -0.8,1.19 -1.78,2.76 -2.93,4.69 -2.1,3.5 -3.91,6.59 -5.43,9.29 -1.52,2.7 -2.72,4.91 -3.58,6.63 -0.86,1.69 -1.52,3.05 -1.97,4.07 -0.45,1.03 -0.78,1.93 -0.99,2.72 -0.21,0.78 -0.32,1.53 -0.34,2.25 -0.02,0.72 -0.03,1.6 -0.03,2.62 v 12.22 c 0,0.99 0.08,1.81 0.25,2.47 0.16,0.66 0.53,1.2 1.11,1.64 0.58,0.43 1.45,0.75 2.62,0.96 1.17,0.21 2.77,0.35 4.78,0.43 l -0.12,2.22 c -0.86,0 -1.84,-0.01 -2.93,-0.03 -1.09,-0.02 -2.21,-0.03 -3.36,-0.03 -1.15,0 -2.29,-0.01 -3.42,-0.03 -1.13,-0.02 -2.19,-0.03 -3.18,-0.03 -0.82,0 -1.72,0.01 -2.68,0.03 -0.97,0.02 -1.94,0.03 -2.93,0.03 -0.99,0 -1.98,0.01 -2.96,0.03 -0.99,0.02 -1.87,0.03 -2.65,0.03 l -0.18,-2.1 c 1.89,-0.12 3.41,-0.31 4.57,-0.56 1.15,-0.25 2.01,-0.66 2.59,-1.23 0.58,-0.57 0.96,-1.35 1.14,-2.31 0.18,-0.97 0.28,-2.23 0.28,-3.79 v -9.4 z"
   id="path93"
   inkscape:connector-curvature="0"
   style="fill:#b2516b" />
	<path
   class="st12"
   d="m 782.56,1044.97 c 0,1.4 0.09,2.55 0.28,3.46 0.18,0.9 0.55,1.61 1.11,2.13 0.56,0.51 1.34,0.88 2.34,1.08 1.01,0.21 2.35,0.31 4.04,0.31 h 4.5 c 2.39,0 4.33,-0.19 5.83,-0.59 1.5,-0.39 2.77,-1.05 3.79,-1.98 1.03,-0.93 1.94,-2.15 2.75,-3.67 0.8,-1.52 1.68,-3.39 2.62,-5.61 l 2.41,0.55 c -0.33,1.19 -0.64,2.47 -0.93,3.83 -0.29,1.36 -0.55,2.69 -0.8,4.01 -0.25,1.32 -0.45,2.55 -0.62,3.7 -0.17,1.15 -0.27,2.1 -0.31,2.84 -8.19,0 -14.82,-0.02 -19.9,-0.06 -5.08,-0.04 -8.88,-0.06 -11.39,-0.06 -0.74,0 -1.61,0.01 -2.62,0.03 -1.01,0.02 -2.05,0.03 -3.12,0.03 -1.07,0 -2.11,0.01 -3.12,0.03 -1.01,0.02 -1.86,0.03 -2.56,0.03 l -0.19,-2.1 c 1.89,-0.12 3.41,-0.32 4.57,-0.59 1.15,-0.27 2.04,-0.68 2.65,-1.23 0.62,-0.56 1.03,-1.32 1.23,-2.28 0.21,-0.97 0.31,-2.23 0.31,-3.79 v -41.53 c 0,-0.99 -0.09,-1.81 -0.28,-2.47 -0.19,-0.66 -0.56,-1.2 -1.11,-1.63 -0.56,-0.43 -1.36,-0.75 -2.41,-0.96 -1.05,-0.21 -2.46,-0.35 -4.23,-0.43 l 0.18,-2.22 c 0.78,0 1.68,0.01 2.68,0.03 1.01,0.02 2.03,0.03 3.05,0.03 1.07,0 2.11,0.01 3.12,0.03 1.01,0.02 1.94,0.03 2.81,0.03 1.6,0 4.98,-0.02 10.12,-0.06 5.14,-0.04 11.68,-0.06 19.62,-0.06 -0.25,2.1 -0.43,4.3 -0.56,6.6 -0.12,2.3 -0.21,4.75 -0.25,7.34 l -2.47,0.06 c -0.37,-2.14 -0.78,-3.91 -1.23,-5.31 -0.45,-1.4 -1.09,-2.52 -1.91,-3.36 -0.82,-0.84 -1.89,-1.44 -3.21,-1.79 -1.32,-0.35 -3.02,-0.52 -5.12,-0.52 h -8.82 c -1.23,0 -2.03,0.12 -2.38,0.37 -0.35,0.25 -0.52,0.89 -0.52,1.91 v 21.35 l 20.86,-0.62 0.43,0.43 -0.12,5.12 c -3.74,-0.33 -7.44,-0.55 -11.08,-0.68 -3.64,-0.13 -7,-0.23 -10.09,-0.31 v 18.58 z"
   id="path95"
   inkscape:connector-curvature="0"
   style="fill:#b2516b" />
	<path
   class="st12"
   d="m 894.03,1055.89 c -1.07,-1.52 -2.14,-2.99 -3.21,-4.41 -1.07,-1.42 -2.2,-2.85 -3.39,-4.29 l -33.01,-39.18 -0.25,0.12 v 36.1 c 0,1.93 0.11,3.45 0.34,4.54 0.23,1.09 0.65,1.91 1.26,2.47 0.62,0.56 1.45,0.93 2.5,1.11 1.05,0.18 2.42,0.34 4.1,0.46 l -0.12,2.22 c -1.32,0 -2.87,-0.02 -4.66,-0.06 -1.79,-0.04 -3.67,-0.06 -5.65,-0.06 -1.56,0 -3.2,0.02 -4.91,0.06 -1.71,0.04 -3.28,0.06 -4.72,0.06 l -0.18,-2.1 c 1.65,-0.16 3,-0.36 4.07,-0.59 1.07,-0.23 1.92,-0.69 2.56,-1.39 0.64,-0.7 1.08,-1.75 1.33,-3.15 0.25,-1.4 0.37,-3.33 0.37,-5.8 v -30.91 c 0,-1.73 -0.02,-3.13 -0.06,-4.2 -0.04,-1.07 -0.13,-1.94 -0.28,-2.62 -0.15,-0.68 -0.34,-1.24 -0.59,-1.7 -0.25,-0.45 -0.58,-0.93 -0.99,-1.42 -0.41,-0.54 -0.82,-0.99 -1.23,-1.36 -0.41,-0.37 -0.89,-0.68 -1.42,-0.93 -0.53,-0.25 -1.19,-0.43 -1.97,-0.56 -0.78,-0.12 -1.75,-0.23 -2.9,-0.31 l 0.12,-2.22 c 0.49,0 1.22,0.01 2.19,0.03 0.97,0.02 2.05,0.03 3.24,0.03 1.19,0 2.43,0.01 3.7,0.03 1.27,0.02 2.47,0.03 3.58,0.03 l 39.49,46.59 0.19,-0.12 v -35.73 c 0,-1.93 -0.11,-3.44 -0.34,-4.54 -0.23,-1.09 -0.65,-1.91 -1.26,-2.47 -0.62,-0.56 -1.46,-0.93 -2.53,-1.11 -1.07,-0.19 -2.45,-0.34 -4.13,-0.46 l 0.12,-2.22 c 1.32,0 2.88,0.02 4.69,0.06 1.81,0.04 3.7,0.06 5.68,0.06 0.78,0 1.6,-0.01 2.47,-0.03 0.86,-0.02 1.72,-0.04 2.56,-0.06 0.84,-0.02 1.65,-0.04 2.41,-0.06 0.76,-0.02 1.43,-0.03 2.01,-0.03 l 0.06,2.1 c -1.6,0.17 -2.92,0.37 -3.95,0.62 -1.03,0.25 -1.84,0.72 -2.44,1.42 -0.6,0.7 -1.02,1.75 -1.26,3.15 -0.25,1.4 -0.37,3.33 -0.37,5.8 v 46.4 z"
   id="path97"
   inkscape:connector-curvature="0"
   style="fill:#b2516b" />
</g>
</svg>