<?xml version="1.0" encoding="UTF-8" standalone="no"?>
<svg
   xmlns:dc="http://purl.org/dc/elements/1.1/"
   xmlns:cc="http://creativecommons.org/ns#"
   xmlns:rdf="http://www.w3.org/1999/02/22-rdf-syntax-ns#"
   xmlns:svg="http://www.w3.org/2000/svg"
   xmlns="http://www.w3.org/2000/svg"
   xmlns:sodipodi="http://sodipodi.sourceforge.net/DTD/sodipodi-0.dtd"
   xmlns:inkscape="http://www.inkscape.org/namespaces/inkscape"
   id="Layer_1"
   enable-background="new 0 0 512 512"
   height="511.99902"
   viewBox="0 0 465.29999 511.99902"
   width="465.29999"
   version="1.1"
   sodipodi:docname="nobleman.svg"
   inkscape:version="0.92.4 (5da689c313, 2019-01-14)">
  <metadata
     id="metadata23">
  </metadata>
  <g
     id="g16"
     transform="translate(-23.347,1.3034189e-5)" style="fill:#000000;stroke:none">
    <g
       id="g14">
      <path
         d="m 488.647,241.531 c 0,-30.453 -18.013,-57.162 -44.699,-67.652 8.389,-26.211 2.854,-52.264 -12.605,-71.593 C 432.399,51.732 394.177,-0.03 328.6,0 293.651,0.016 268.087,16.885 256,40.977 243.83,16.72 218.869,0 181.9,0 c -23.107,0 -44.531,7.043 -61.957,20.364 -3.291,2.516 -3.919,7.223 -1.403,10.513 2.517,3.292 7.223,3.92 10.514,1.403 14.786,-11.303 33.061,-17.279 52.847,-17.28 42.817,0 66.599,27.246 66.599,57.902 0,28.955 -20.916,53.785 -48.652,57.759 -3.693,0.528 -6.437,3.692 -6.437,7.424 0,25.507 -20.734,46.259 -46.22,46.259 -19.468,0 -35.476,-15.649 -35.476,-35.507 0,-14.836 12.059,-26.906 26.881,-26.906 11.03,0 20.004,8.983 20.004,20.024 0,4.143 3.358,7.5 7.5,7.5 4.142,0 7.5,-3.357 7.5,-7.5 0,-19.313 -15.703,-35.024 -35.004,-35.024 -23.093,0 -41.881,18.799 -41.881,41.906 0,21.44 13.298,40.284 33.293,47.502 26.28,28.216 7.531,74.618 -26.219,74.618 -16.557,0 -32.969,-11.908 -32.969,-29.426 0,-21.826 22.901,-32.297 36.162,-19.026 2.928,2.93 7.677,2.933 10.607,0.003 2.93,-2.928 2.931,-7.677 0.003,-10.606 -22.581,-22.594 -61.772,-5.772 -61.772,29.63 0,33.094 37.597,54.224 69.018,39.815 22.718,2.981 40.239,22.725 40.239,45.802 0,22.778 -18.778,38.116 -38.612,36.37 -14.45,-1.265 -25.742,-14.207 -24.436,-29.148 0.94,-10.744 10.542,-19.178 21.671,-18.203 4.125,0.356 7.764,-2.692 8.125,-6.818 0.361,-4.126 -2.692,-7.764 -6.818,-8.125 -19.402,-1.684 -36.224,12.419 -37.922,31.841 -3.575,41.007 45.323,60.262 76.107,32.729 4.991,3.426 10.136,6.549 15.412,9.377 -29.923,31.371 -83.279,27.924 -103.075,-12.449 -8.958,-18.271 -8.112,-38.808 2.265,-54.937 2.439,-3.792 1.003,-8.883 -3.083,-10.829 -22.768,-10.84 -36.361,-31.56 -36.361,-55.425 0,-26.097 17.377,-49.513 41.319,-55.679 4.441,-1.143 6.829,-5.979 5.029,-10.203 -18.796,-44.1 12.764,-86.21 53.896,-86.21 16.908,0 32.89,8.263 42.751,22.103 2.404,3.374 7.087,4.161 10.46,1.756 3.373,-2.404 4.159,-7.088 1.755,-10.461 -22.456,-31.513 -65.526,-37.011 -97.002,-15.352 1.864,-12.562 6.505,-24.553 13.693,-35.214 2.315,-3.434 1.408,-8.096 -2.026,-10.411 -3.435,-2.315 -8.096,-1.407 -10.412,2.026 -11.623,17.239 -17.61,37.481 -17.159,58.396 -15.964,19.96 -20.752,46.145 -12.608,71.596 -26.686,10.49 -44.699,37.199 -44.699,67.652 0,26.773 14.32,51.114 37.861,65.193 -9.381,19.283 -9.187,42.131 0.85,62.601 18.087,36.888 60.08,50.43 96.887,36.483 -26.215,25.895 -41.44,61.579 -41.44,98.691 0,4.143 3.358,7.5 7.5,7.5 h 262.258 c 4.143,0 7.5,-3.357 7.5,-7.5 0,-12.91 -1.799,-25.732 -5.347,-38.112 -1.141,-3.981 -5.296,-6.279 -9.276,-5.144 -3.981,1.142 -6.284,5.294 -5.144,9.276 2.475,8.634 3.995,17.512 4.539,26.479 h -13.943 c -1.266,-17.361 -6.64,-34.164 -15.744,-49.018 -2.165,-3.532 -6.782,-4.638 -10.314,-2.475 -3.531,2.165 -4.639,6.782 -2.475,10.314 7.658,12.492 12.246,26.591 13.48,41.178 h -42.801 v -46.421 l 22.787,-22.787 c 4.128,-4.129 7.203,-9.029 9.096,-14.374 9.798,8.958 18.029,19.359 24.546,31.049 2.017,3.62 6.588,4.914 10.203,2.898 3.617,-2.017 4.915,-6.585 2.898,-10.203 -6.435,-11.543 -14.365,-21.961 -23.666,-31.143 36.561,13.55 78.269,0.135 96.327,-36.694 10.037,-20.47 10.232,-43.317 0.851,-62.601 23.548,-14.075 37.867,-38.416 37.867,-65.19 z M 204.559,497 h -41.772 c 1.234,-14.586 5.823,-28.685 13.48,-41.179 2.165,-3.531 1.056,-8.148 -2.475,-10.313 -3.531,-2.166 -8.148,-1.055 -10.314,2.476 C 154.375,462.837 149,479.64 147.734,497 h -14.991 c 1.972,-31.825 16.418,-61.929 39.906,-83.536 1.894,5.328 4.964,10.211 9.081,14.328 l 22.829,22.83 z m 0,-67.593 -12.223,-12.223 c -9.195,-9.195 -9.195,-24.156 0,-33.352 l 1.489,-1.489 c 3.533,1.447 7.111,2.771 10.734,3.963 z M 292.744,497 h -73.185 v -22.328 c 9.132,10.056 21.101,17.412 34.699,20.936 1.234,0.32 2.528,0.32 3.763,0 13.61,-3.526 25.589,-10.892 34.723,-20.961 z m 0,-50.905 c -6.079,16.7 -19.6,29.433 -36.604,34.47 -16.983,-5.031 -30.49,-17.738 -36.581,-34.407 v -37.651 c 4.36,5.327 9.359,10.282 14.957,14.775 -2.669,4.162 -5.201,8.624 -7.561,13.33 -5.214,10.394 2.315,22.658 13.957,22.658 h 0.063 l 30.468,-0.123 c 11.61,-0.048 19.105,-12.292 13.887,-22.67 -2.339,-4.654 -4.847,-9.069 -7.49,-13.19 5.617,-4.491 10.583,-9.388 14.905,-14.66 v 37.468 z m -27.572,-32.014 -17.995,10e-4 c -8.846,-6.466 -15.991,-13.942 -21.353,-22.344 9.858,1.821 19.945,2.75 30.176,2.75 10.355,0 20.564,-0.956 30.54,-2.824 -5.363,8.439 -12.514,15.939 -21.368,22.417 z m 6.209,30.067 -30.466,0.123 c -0.473,0.011 -0.772,-0.493 -0.552,-0.933 2.573,-5.131 5.359,-9.906 8.302,-14.256 l 15.023,-10e-4 c 2.92,4.318 5.685,9.052 8.24,14.135 0.215,0.426 -0.061,0.932 -0.547,0.932 z m 48.543,-26.962 -12.18,12.181 V 386.2 c 3.58,-1.187 7.115,-2.506 10.606,-3.941 4.483,4.482 8.481,9.534 8.481,18.25 10e-4,6.3 -2.453,12.221 -6.907,16.677 z M 256,379.488 c -29.961,0 -58.565,-8.73 -83.189,-25.304 16.974,-28.205 3.588,-70.641 -32.183,-84.236 18.624,-19.662 21.568,-48.284 9.725,-70.69 30.205,-1.545 54.7,-25.093 57.741,-54.905 14.809,-3.487 28.176,-11.729 38.127,-23.623 3.891,-4.65 7.157,-9.756 9.779,-15.168 2.622,5.412 5.887,10.518 9.779,15.168 9.951,11.894 23.319,20.136 38.127,23.623 3.041,29.812 27.536,53.36 57.741,54.905 -11.85,22.415 -8.896,51.032 9.725,70.689 -35.63,13.541 -49.221,55.902 -32.191,84.224 -24.641,16.583 -53.243,25.317 -83.181,25.317 z m 181.287,-82.532 c -4.079,1.94 -5.528,7.03 -3.084,10.829 10.377,16.129 11.224,36.666 2.265,54.937 -19.755,40.29 -73.096,43.868 -103.082,12.437 5.274,-2.828 10.418,-5.95 15.409,-9.375 10.462,9.362 24.176,13.902 38.047,12.678 22.612,-1.981 40.108,-22.264 38.07,-45.397 -1.695,-19.403 -18.498,-33.526 -37.922,-31.841 -4.126,0.361 -7.179,3.998 -6.818,8.125 0.361,4.127 3.995,7.183 8.125,6.818 11.115,-0.972 20.732,7.441 21.673,18.208 1.308,14.904 -9.959,27.876 -24.44,29.145 -19.81,1.73 -38.607,-13.558 -38.607,-36.372 0,-23.077 17.521,-42.82 40.239,-45.801 31.437,14.418 69.019,-6.761 69.019,-39.815 0,-35.489 -39.25,-52.167 -61.773,-29.63 -2.928,2.931 -2.926,7.679 0.004,10.607 2.93,2.926 7.678,2.925 10.607,-0.004 13.244,-13.258 36.162,-2.815 36.162,19.026 0,17.427 -16.327,29.426 -32.97,29.426 -33.629,0 -52.573,-46.326 -26.217,-74.618 19.994,-7.219 33.292,-26.063 33.292,-47.502 0,-23.107 -18.788,-41.906 -41.881,-41.906 -19.302,0 -35.005,15.712 -35.005,35.024 0,4.143 3.357,7.5 7.5,7.5 4.143,0 7.5,-3.357 7.5,-7.5 0,-11.042 8.975,-20.024 20.005,-20.024 14.822,0 26.881,12.07 26.881,26.906 0,19.889 -16.038,35.507 -35.477,35.507 -25.485,0 -46.219,-20.752 -46.219,-46.259 0,-3.731 -2.743,-6.896 -6.437,-7.424 -27.736,-3.974 -48.652,-28.804 -48.652,-57.759 0,-30.431 23.567,-57.982 66.724,-57.899 45.998,0.088 79.113,32.561 85.175,72.455 -30.993,-21.297 -74.196,-16.572 -96.962,15.379 -2.404,3.373 -1.618,8.057 1.755,10.461 3.374,2.402 8.056,1.615 10.461,-1.756 22.919,-32.166 70.779,-27.878 92.184,4.516 11.537,17.457 13.163,39.178 4.463,59.592 -1.799,4.218 0.583,9.059 5.029,10.203 23.942,6.166 41.319,29.582 41.319,55.679 -0.002,23.864 -13.594,44.584 -36.362,55.424 z"
         id="path2"
         inkscape:connector-curvature="0" />
      <path
         d="m 186.897,266.303 h 0.007 c 4.139,0 7.496,-3.354 7.5,-7.493 l 0.012,-12.831 c 0.004,-4.142 -3.351,-7.503 -7.493,-7.507 -0.003,0 -0.005,0 -0.007,0 -4.139,0 -7.496,3.354 -7.5,7.493 l -0.012,12.831 c -0.004,4.142 3.351,7.503 7.493,7.507 z"
         id="path4"
         inkscape:connector-curvature="0" />
      <path
         d="m 317.951,245.97 c -0.001,0.054 -0.008,0.106 -0.008,0.16 l -0.012,12.831 c -0.004,4.142 3.351,7.503 7.493,7.507 h 0.007 c 4.139,0 7.496,-3.354 7.5,-7.493 l 0.013,-12.831 c 0,-0.055 -0.007,-0.108 -0.008,-0.163 3.622,-0.528 6.409,-3.636 6.412,-7.405 0.004,-4.143 -3.351,-7.504 -7.492,-7.508 l -12.822,-0.013 c -0.002,0 -0.005,0 -0.007,0 -4.139,0 -7.496,3.354 -7.5,7.492 -0.005,3.78 2.789,6.9 6.424,7.423 z"
         id="path6"
         inkscape:connector-curvature="0" />
      <path
         d="m 241.829,265.403 c 8.592,4.378 19.302,4.773 28.662,0.031 3.695,-1.872 5.173,-6.386 3.301,-10.08 -1.873,-3.695 -6.387,-5.171 -10.08,-3.301 -4.712,2.387 -10.357,2.386 -15.074,-0.016 -3.689,-1.88 -8.208,-0.414 -10.087,3.278 -1.881,3.692 -0.413,8.208 3.278,10.088 z"
         id="path8"
         inkscape:connector-curvature="0" />
      <path
         d="m 204.891,212.392 c -0.724,-4.077 -4.614,-6.79 -8.695,-6.073 l -21.137,3.753 c -4.079,0.725 -6.797,4.617 -6.073,8.696 0.645,3.635 3.808,6.189 7.375,6.189 0.435,0 0.876,-0.038 1.32,-0.116 l 21.137,-3.753 c 4.078,-0.725 6.797,-4.617 6.073,-8.696 z"
         id="path10"
         inkscape:connector-curvature="0" />
      <path
         d="m 318.941,478.647 c 0,4.486 3.637,8.123 8.123,8.123 4.486,0 8.123,-3.637 8.123,-8.123 0,-4.486 -3.637,-8.123 -8.123,-8.123 -4.486,0 -8.123,3.637 -8.123,8.123 z"
         id="path12"
         inkscape:connector-curvature="0" />
    </g>
  </g>
</svg>
