<?xml version="1.0" encoding="UTF-8" standalone="no"?>
<svg
   xmlns:dc="http://purl.org/dc/elements/1.1/"
   xmlns:cc="http://creativecommons.org/ns#"
   xmlns:rdf="http://www.w3.org/1999/02/22-rdf-syntax-ns#"
   xmlns:svg="http://www.w3.org/2000/svg"
   xmlns="http://www.w3.org/2000/svg"
   xmlns:sodipodi="http://sodipodi.sourceforge.net/DTD/sodipodi-0.dtd"
   xmlns:inkscape="http://www.inkscape.org/namespaces/inkscape"
   version="1.0"
   width="251.30269pt"
   height="251.56595pt"
   viewBox="0 0 251.30269 251.56595"
   preserveAspectRatio="xMidYMid meet"
   id="svg20"
   sodipodi:docname="nobleman.svg"
   inkscape:version="0.92.4 (5da689c313, 2019-01-14)">
  <defs
     id="defs14" />
  <sodipodi:namedview
     pagecolor="#ffffff"
     bordercolor="#666666"
     borderopacity="1"
     objecttolerance="10"
     gridtolerance="10"
     guidetolerance="10"
     inkscape:pageopacity="0"
     inkscape:pageshadow="2"
     inkscape:window-width="707"
     inkscape:window-height="480"
     id="namedview12"
     showgrid="false"
     inkscape:zoom="1.9900611"
     inkscape:cx="289.8474"
     inkscape:cy="162.75788"
     inkscape:window-x="227"
     inkscape:window-y="21"
     inkscape:window-maximized="0"
     inkscape:current-layer="svg20" />
  <metadata
     id="metadata2">
Created by potrace 1.16, written by Peter Selinger 2001-2019
        <rdf:RDF>
  <cc:Work
     rdf:about="">
    <dc:format>image/svg+xml</dc:format>
    <dc:type
       rdf:resource="http://purl.org/dc/dcmitype/StillImage" />
    <dc:title></dc:title>
  </cc:Work>
</rdf:RDF>
</metadata>
  <path
     style="fill:#000000;stroke:none;stroke-width:0.1"
     inkscape:connector-curvature="0"
     id="path4"
     d="m 104.40269,0.93787 c -20.800005,2.4 -40.300005,11.3 -47.400005,21.6 -6.1,8.9 -7.1,12.8 -7.2,26.8 0,7.1 0.4,15.7 0.8,19.1 l 0.8,6.1 -17.3,0.9 c -19,1.1 -21.1,1.8 -27.1999996,8 -4.3,4.5 -7,12 -6.9,19.9 0,12.5 5.2,22.2 14.1999996,26.7 6.3,3.2 10,3.4 22.1,1.3 4.7,-0.8 9.2,-1.5 10,-1.5 0.8,0 3.3,3.1 5.4,6.7 3.1,5.3 4.1,8.1 4.5,13.3 0.8,8.1 2.9,11.7 8.3,13.9 l 4,1.6 -0.6,18.5 -0.6,18.4 -5.9,6.1 c -8.4,8.6 -11.1,12.9 -11.1,18.1 0,5.6 3.3,9.5 11.3,13.3 32.5,15.5 93.700005,15.8 126.100005,0.7 9.4,-4.4 13.1,-8.3 13.1,-14 0,-4.9 -2.8,-9.5 -11.5,-18.9 l -5.5,-6 -0.3,-18.1 -0.2,-18.1 3.7,-1.7 c 5,-2.2 7.3,-6.3 7.3,-12.5 0,-5 3.6,-13.7 7.9,-19.2 l 1.8,-2.4 10,1.6 c 12.6,2.1 16.8,2.1 21.9,-0.2 8.3,-3.8 15.4,-16.4 15.4,-27.4 0,-6.2 -2.9,-15.1 -6.2,-19.1 -5.5,-6.7 -9.2,-7.8 -28.6,-9 l -17.2,-1 0.5,-3 c 1.5,-8.2 2.2,-22.6 1.4,-29.5 -2.6,-23.3 -21.7,-37.2 -56.3,-41 -10.9,-1.3 -29.7,-1.2 -40.5,0 z m 30,35.8 c 6.5,6.7 9.7,14.2 8.5,20.4 -1.3,7 -10.3,11.5 -20.4,10.3 -10,-1.2 -14.4,-5.1 -14.4,-13 0,-6.3 3.3,-12.8 9.2,-18.6 7.2,-7 9.6,-6.9 17.1,0.9 z m -21.2,34.6 c 8,3.6 20.7,2.8 28,-1.7 2.3,-1.5 4.8,-2.1 7.1,-1.9 13.1,1 45.6,9.8 46.7,12.7 0.3,0.8 0.2,2.9 -0.1,4.8 l -0.6,3.3 -11.6,-3.3 c -21,-6.1 -34.3,-7.9 -57.4,-7.8 -14.8,0 -23.3,0.5 -30.500005,1.7 -10.8,1.9 -26.5,5.7 -33.3,8.1 -4.7,1.7 -4.6,1.7 -5.6,-4.1 -0.5,-3 -0.3,-3.4 3.2,-4.9 6.4,-2.7 24.2,-7.3 35.7,-9.3 9.400005,-1.6 11.300005,-1.7 13.000005,-0.5 1.1,0.8 3.5,2.1 5.4,2.9 z m -62.800005,14.9 c 0.3,3.3 1.2,5.4 2.7,6.6 1.6,1.3 2.2,2.9 2.2,5.7 -0.1,3.2 -0.6,4.1 -3.2,5.8 -4.7,3 -7.1,7.7 -7.1,14.1 0,6.5 -1.2,7.1 -1.9,1 -0.4,-3 -1.7,-6.1 -4,-9.3 -7,-9.6 -9.5,-16.5 -8.3,-23.4 0.9,-5 2.7,-5.9 12,-5.6 l 7,0.2 z m 168.000005,-3.7 c 1.7,1.7 2.3,9.2 1,13.8 -0.6,2.2 -2.5,6.2 -4.3,8.9 -5.4,7.9 -7.8,12.8 -7.8,15.8 0,1.5 -0.3,2.8 -0.7,2.8 -0.5,0 -0.8,-2.7 -0.9,-6 0,-6.7 -1.8,-10.1 -7.2,-13.5 -2.6,-1.7 -3.1,-2.7 -3.2,-5.9 0,-2.9 0.6,-4.3 2.5,-5.8 1.8,-1.4 2.6,-3.3 3.1,-7 l 0.7,-5 7.8,0.4 c 4.3,0.2 8.3,0.8 9,1.5 z m -69.3,1.9 c 6.7,0.8 16.3,2.5 21.4,3.7 l 9.3,2.3 -0.1,22.9 c -0.1,26.3 -1.2,33.6 -6.9,45.2 -2.6,5.3 -5.3,8.8 -10.2,13.2 -3.6,3.4 -7.1,6.1 -7.8,6.1 -0.8,0 -1.4,-3.2 -1.8,-10.3 -0.6,-11.2 -2.1,-15.8 -6.7,-21.1 -4.5,-5 -8.8,-6.4 -21,-6.4 -12,-0.1 -17.1,1.6 -21.3,7.1 -4.300005,5.8 -5.100005,8.1 -6.100005,20 l -1.1,11.8 -5.9,-4.8 c -9.9,-8 -14.8,-16.6 -18.2,-31.8 -1.8,-8.1 -3.2,-50.9 -1.8,-51.8 1.6,-1 25.5,-5.7 33.400005,-6.6 12.4,-1.4 32.1,-1.2 44.8,0.5 z m -87.300005,24.6 c 2,0.9 2.5,1.8 2.5,4.9 0,3.8 0,3.8 -3.5,3.2 -2.7,-0.4 -3.6,-0.2 -4.2,1.3 -0.4,1.2 -0.1,2.1 1.2,2.8 1,0.6 3.1,2.2 4.6,3.6 2.7,2.4 2.8,3.1 4,17.1 0.6,8.1 1,15.2 0.8,15.8 -0.3,0.8 -1,0.7 -2.4,-0.2 -1.4,-1.1 -2.1,-3.2 -2.6,-8.6 -0.5,-5.9 -1.3,-8.3 -5.2,-14.9 -5.7,-9.8 -7,-14.5 -5.6,-19.6 0.8,-2.8 1.9,-4.1 4.2,-5.1 1.8,-0.8 3.3,-1.4 3.4,-1.5 0.1,0 1.4,0.5 2.8,1.2 z m 136.100005,1.9 c 0.9,1 1.9,3.8 2.1,6.1 0.5,3.8 -0.2,5.7 -5.2,15.3 -4.6,8.7 -5.8,12.1 -6.2,16.9 -0.5,5.6 -2.4,9.6 -4.5,9.6 -0.9,0 -0.5,-7.2 1.3,-23.9 0.9,-8.9 2.2,-11.5 6.5,-12.5 1.7,-0.5 2.4,-1.3 2.4,-3.1 0,-2.2 -0.6,-2.7 -3,-2.7 -0.3,0 -1.5,0.3 -2.8,0.7 -2.2,0.6 -2.3,0.4 -2,-3.1 0.2,-2.8 0.9,-4.2 2.6,-5 2.9,-1.4 6.6,-0.7 8.8,1.7 z m -57.5,38.4 c 4.5,4.4 5.8,7.5 6.4,15.7 0.3,4 0.8,9.6 1,12.5 0.4,4.5 0.3,5.2 -1.5,5.8 -1.3,0.4 -2.9,-0.1 -4.5,-1.3 -2.2,-1.7 -4,-1.9 -16.4,-1.8 -11.9,0.1 -14.2,0.4 -15.9,2 -1.1,1 -2.9,1.6 -3.9,1.4 -1.6,-0.3 -1.8,-1.4 -1.6,-12.7 0.3,-14 2,-18.6 8.1,-22.8 3,-2 4.4,-2.2 14.3,-2 10.5,0.3 10.9,0.4 14,3.2 z m -55.000005,27.9 c 3,2.7 6.4,5.3 7.7,5.9 3.1,1.4 2.8,2.3 -1.8,4.1 -2.2,0.9 -7,3.5 -10.6,5.7 -3.6,2.3 -6.6,4 -6.8,3.8 -0.2,-0.2 -0.1,-7.5 0.2,-16.1 l 0.5,-15.7 2.7,3.7 c 1.4,2 5.1,5.9 8.1,8.6 z m 91.500005,19.3 c -0.2,0.2 -2.9,-1.2 -6.1,-3.2 -3.1,-2 -7.9,-4.7 -10.6,-6 l -5,-2.3 6.6,-4.6 c 3.6,-2.6 8.4,-7.2 10.8,-10.3 l 4.2,-5.6 0.3,15.8 c 0.1,8.7 0.1,16 -0.2,16.2 z m -81.200005,1 c -1.5,13.8 -4.6,29 -7,34.4 -2.7,6 -2.6,7.9 0.6,7.9 2.2,0 6.2,-7.1 7.5,-13 0.4,-1.9 0.9,-3.8 1.2,-4.2 0.2,-0.4 2.600005,0.8 5.200005,2.7 2.7,1.9 5.3,3.5 6,3.5 1.6,0 1.4,-6 -0.4,-11.1 -1.9,-5.4 -3.5,-15.8 -2.4,-16.4 0.7,-0.5 7.1,15.4 8.8,22 0.5,2.2 1.4,7.4 2,11.6 0.6,4.1 1.3,8.4 1.7,9.3 0.6,1.7 0.1,1.7 -7.2,1.1 -23.900005,-2 -45.900005,-8.1 -53.200005,-14.8 -3.2,-3 -2.7,-6.3 2,-12.6 4.8,-6.3 5.6,-5.7 3.9,3.5 -1.1,5.9 -0.4,8.4 2.5,8.4 1.9,0 2.2,-0.8 4,-11.9 l 1.7,-10.1 2.2,3.6 c 2.1,3.5 8.6,8.4 11.2,8.4 1.2,0 4.4,-9.8 6.3,-19.5 1.6,-8.1 1.8,-8.5 3,-8.5 0.6,0 0.8,2 0.4,5.7 z m 62.000005,-1 c 0.4,2.1 1.9,8.2 3.4,13.5 2,7.3 3,9.8 4.3,9.8 2.6,0 9.4,-5.5 11.1,-9 1.9,-3.9 2,-3.5 3.8,8.7 1.3,8.4 2.7,11 5.6,9.9 1.7,-0.6 1.6,-4 -0.3,-14 l -0.6,-3.1 3.1,2.9 c 1.7,1.5 4.1,4.7 5.3,7.1 2.2,4.1 2.2,4.4 0.6,6.8 -2,3.1 -11.6,7.8 -21.7,10.7 -13.8,3.8 -42,7.4 -40.6,5.1 0.4,-0.7 1.6,-6.2 2.6,-12.4 1.7,-10.9 8.3,-30.7 10.1,-30.7 1.4,0 1.1,2.8 -1.6,13.5 -1.4,5.5 -2.5,11 -2.5,12.3 0,2.2 0.1,2.2 2.9,0.8 1.6,-0.9 4.3,-2.7 6,-4.2 1.8,-1.5 3.3,-2.5 3.4,-2.3 0.2,0.2 1.1,3.1 2.1,6.4 2.6,8.5 4.3,11.5 6.7,11.5 3,0 3.4,-2.7 1.1,-7.8 -2.7,-6 -3.8,-10.3 -5.7,-22.9 -1.7,-11.6 -1.9,-17.7 -0.6,-16.9 0.5,0.3 1.2,2.3 1.5,4.3 z" />
  <path
     style="fill:#000000;stroke:none;stroke-width:0.1"
     inkscape:connector-curvature="0"
     id="path6"
     d="m 119.20269,43.73787 c -5.9,6 -2.2,15.1 6.3,15.1 8.5,0 12.2,-10 5.7,-15.4 -4.1,-3.5 -8.3,-3.4 -12,0.3 z" />
  <path
     style="fill:#000000;stroke:none;stroke-width:0.1"
     inkscape:connector-curvature="0"
     id="path8"
     d="m 76.602685,96.13787 c -1.2,2 2.2,3.1 10.4,3.2 7.3,0.1 9.8,0.6 14.300005,2.8 3,1.5 6.3,3.2 7.2,3.9 1.5,1.1 2.1,1 3.5,-0.5 1.7,-1.7 1.7,-1.9 -1.4,-4.7 -4.8,-4.3 -12.400005,-6.2 -23.800005,-5.8 -5.3,0.2 -9.9,0.7 -10.2,1.1 z" />
  <path
     style="fill:#000000;stroke:none;stroke-width:0.1"
     inkscape:connector-curvature="0"
     id="path10"
     d="m 147.40269,96.73787 c -2.9,1 -6.5,3 -7.9,4.5 -2.5,2.5 -2.6,2.7 -0.9,4.3 1.4,1.5 2,1.5 3.5,0.5 0.9,-0.7 4.2,-2.4 7.2,-3.9 4.5,-2.2 7,-2.7 14.3,-2.8 8.2,-0.1 11.6,-1.2 10.4,-3.2 -0.3,-0.4 -5.2,-0.9 -10.9,-1 -7.9,-0.2 -11.5,0.2 -15.7,1.6 z" />
  <path
     style="fill:#000000;stroke:none;stroke-width:0.1"
     inkscape:connector-curvature="0"
     id="path12"
     d="m 79.902685,114.33787 c 0.9,2.4 3.6,3.4 11.4,4.5 4.4,0.6 8.2,1.8 10.000005,3.1 5.1,3.9 8.5,-0.4 3.8,-4.9 -3.6,-3.3 -7.300005,-4.2 -16.800005,-4.2 -7.6,0 -8.8,0.2 -8.4,1.5 z" />
  <path
     style="fill:#000000;stroke:none;stroke-width:0.1"
     inkscape:connector-curvature="0"
     id="path14"
     d="m 148.30269,115.03787 c -4.1,2.8 -5.5,5 -4.7,7.2 0.8,2.1 3.3,2 5.8,-0.3 2,-1.8 6.1,-3.1 10.3,-3.1 4.1,0 9.6,-2.1 10.6,-4 1,-1.9 0.7,-2 -8.8,-2 -8.6,0 -10.3,0.3 -13.2,2.2 z" />
  <path
     style="fill:#000000;stroke:none;stroke-width:0.1"
     inkscape:connector-curvature="0"
     id="path16"
     d="m 116.40269,149.33787 c -2.5,0.6 -4.9,1.8 -5.4,2.7 -2.3,3.6 7.6,11.8 14.3,11.8 6.8,0 16.6,-8.2 14.3,-11.9 -1.9,-3.1 -15.6,-4.6 -23.2,-2.6 z" />
</svg>
