<?xml version="1.0" encoding="iso-8859-1"?>
<!-- Generator: Adobe Illustrator 19.0.0, SVG Export Plug-In . SVG Version: 6.00 Build 0)  -->
<svg version="1.1" id="Capa_1" xmlns="http://www.w3.org/2000/svg" xmlns:xlink="http://www.w3.org/1999/xlink" x="0px" y="0px"
	 viewBox="0 0 512 512" style="enable-background:new 0 0 512 512;" xml:space="preserve">
<path style="fill:#000000;" d="M256,32c-0.048,0-0.096,0-0.144,0c-0.008,0-0.016,0-0.016,0c-0.048,0-0.096,0-0.136,0
	c-0.016,0-0.008,0-0.024,0c-0.048,0-0.088,0-0.136,0c0,0-0.016,0-0.024,0c-0.048,0-0.096,0-0.144,0h-0.016c-0.048,0-0.096,0-0.136,0
	H255.2c-0.048,0-0.096,0-0.136,0c-0.008,0-0.016,0-0.024,0c-0.048,0-0.088,0-0.136,0c-0.008,0-0.016,0-0.024,0
	c-0.048,0-0.096,0-0.144,0c-0.008,0,0,0-0.008,0c-0.048,0-0.096,0-0.144,0h-0.016c-0.048,0-0.096,0-0.144,0
	c-0.008,0-0.016,0-0.024,0c-0.048,0-0.096,0-0.144,0c0,0-0.008,0-0.016,0c-0.048,0-0.096,0-0.144,0c-0.008,0,0,0-0.008,0
	c-0.048,0-0.096,0-0.144,0c-0.008,0-0.008,0-0.016,0c-0.048,0-0.096,0-0.136,0c-0.008,0-0.024,0-0.024,0c-0.048,0-0.088,0-0.136,0
	c-0.008,0-0.016,0-0.024,0c-0.048,0-0.096,0-0.144,0c-0.008,0-0.008,0-0.016,0c-0.048,0-0.096,0-0.144,0c-0.008,0,0,0-0.008,0
	c-0.048,0-0.096,0-0.144,0c-0.008,0-0.016,0-0.024,0c-0.048,0-0.096,0-0.144,0c-0.008,0-0.016,0-0.024,0c-0.048,0-0.096,0-0.144,0
	c0,0-0.008,0-0.016,0c-0.048,0-0.096,0-0.136,0c-0.008,0-0.008,0-0.016,0c-0.048,0-0.096,0-0.144,0c-0.008,0-0.016,0-0.024,0
	c-0.048,0-0.096,0-0.144,0c0,0-0.008,0-0.016,0c-0.048,0-0.096,0-0.144,0c-0.008,0-0.008,0-0.016,0c-0.048,0-0.096,0-0.144,0
	c-0.008,0,0,0-0.008,0c-0.048,0-0.096,0-0.144,0c-0.008,0-0.016,0-0.024,0c-0.048,0-0.096,0-0.136,0c-0.008,0-0.008,0-0.016,0
	c-0.048,0-0.096,0-0.144,0h-0.016c-0.048,0-0.096,0-0.144,0c-0.008,0,0,0-0.008,0c-0.048,0-0.096,0-0.144,0
	c-0.008,0-0.016,0-0.024,0c-0.048,0-0.088,0-0.136,0c0,0-0.016,0-0.024,0c-0.048,0-0.096,0-0.136,0h-0.024
	c-0.096,0-0.192,0.008-0.288,0.008c-0.008,0-0.008,0-0.016,0c-0.048,0-0.096,0-0.144,0c-0.008,0-0.008,0-0.016,0
	c-0.048,0-0.096,0-0.144,0h-0.016c-0.096,0-0.2,0.008-0.296,0.008h-0.016c-0.048,0-0.096,0-0.144,0h-0.024c-0.048,0-0.096,0-0.144,0
	c-0.008,0-0.016,0-0.016,0c-0.096,0-0.2,0.008-0.296,0.008h-0.016c-0.048,0-0.096,0-0.144,0.008c-0.008,0-0.008,0-0.016,0
	c-0.048,0-0.096,0-0.144,0.008c-0.008,0-0.008,0-0.016,0c-0.096,0-0.2,0.008-0.296,0.008h-0.008c-0.048,0-0.096,0-0.144,0.008
	c-0.008,0-0.008,0-0.016,0c-0.048,0-0.096,0-0.144,0.008c-0.008,0-0.008,0-0.016,0c-0.104,0-0.2,0.008-0.304,0.008l0,0
	c-0.048,0-0.104,0-0.152,0.008c0,0,0,0-0.008,0c-0.048,0-0.096,0-0.152,0.008c-0.008,0,0,0-0.008,0
	c-0.144,0.064-0.304,0.072-0.456,0.08c-0.008,0,0,0,0,0c-0.048,0-0.104,0-0.152,0.008c-0.008,0,0,0-0.008,0
	c-0.152,0.008-0.312,0.016-0.464,0.016c-0.008,0,0,0,0,0c-0.048,0-0.104,0.008-0.152,0.008c-0.008,0,0,0-0.008,0
	c-0.152,0.008-0.312,0.016-0.464,0.024l0,0c-0.048,0-0.104,0.008-0.152,0.008h-0.008c-0.208,0.008-0.416,0.016-0.624,0.032l0,0
	c-9.856,0.464-19.552,1.568-29.032,3.272l5.648,31.496C233.04,65.016,244.528,64,256,64V32L256,32L256,32z M177.68,46.072
	c-2.952,1.104-5.864,2.264-8.76,3.48l0,0c-0.288,0.12-0.576,0.24-0.864,0.368c-0.008,0,0,0-0.008,0
	c-0.048,0.016-0.096,0.04-0.144,0.056h-0.008c-0.048,0.016-0.096,0.04-0.136,0.056h-0.008c-0.192,0.08-0.376,0.16-0.568,0.24
	c-0.008,0-0.008,0-0.016,0.008c-0.04,0.016-0.088,0.04-0.128,0.056l0,0.024c-0.048,0.016-0.088,0.04-0.136,0.056
	c-0.008,0,0,0-0.008,0.008c-0.048,0.016-0.088,0.04-0.136,0.056l0,0c-0.144,0.064-0.28,0.12-0.424,0.184c-0.008,0,0,0-0.008,0
	c-0.048,0.016-0.088,0.04-0.136,0.056l-0.016,0.008c-0.04,0.016-0.088,0.04-0.128,0.056c0,0-0.008,0.008-0.016,0.008
	c-0.048,0.016-0.088,0.04-0.128,0.056h-0.008c-0.096,0.04-0.184,0.08-0.28,0.12c-0.008,0,0,0-0.008,0
	c-0.04,0.016-0.088,0.04-0.128,0.056c-0.008,0-0.008,0.008-0.016,0.008c-0.04,0.016-0.08,0.04-0.128,0.056
	c-0.008,0-0.016,0.008-0.016,0.008c-0.04,0.016-0.088,0.04-0.128,0.056c-0.008,0-0.008,0.008-0.016,0.008
	c-0.048,0.04-0.088,0.056-0.136,0.08h-0.008c-0.048,0.016-0.088,0.04-0.136,0.064h-0.008c-0.088,0.04-0.184,0.08-0.272,0.12
	c-0.008,0-0.008,0.008-0.016,0.008c-0.04,0.016-0.088,0.04-0.128,0.056c-0.008,0-0.016,0.008-0.016,0.008
	c-0.048,0.024-0.088,0.04-0.128,0.056c-0.008,0-0.016,0.008-0.024,0.008c-0.04,0.016-0.08,0.04-0.12,0.056
	c-0.008,0-0.016,0.008-0.024,0.008c-0.04,0.016-0.088,0.04-0.128,0.056c-0.008,0-0.008,0-0.016,0.008
	c-0.04,0.016-0.088,0.04-0.128,0.056h-0.008c-0.04,0.016-0.088,0.04-0.128,0.056c-0.016,0.008-0.008,0-0.024,0.008
	c-0.04,0.016-0.08,0.04-0.12,0.056c-0.008,0-0.016,0.008-0.024,0.008c-0.04,0.016-0.08,0.04-0.12,0.056
	c-0.016,0.008-0.016,0.008-0.024,0.008c-0.04,0.016-0.08,0.04-0.12,0.056c-0.008,0-0.016,0.008-0.024,0.008
	c-0.04,0.016-0.08,0.04-0.12,0.056c-0.008,0-0.008,0-0.016,0.008c-0.04,0.016-0.088,0.04-0.128,0.056l0,0
	c-0.04,0.016-0.088,0.04-0.128,0.056c-0.008,0-0.008,0.008-0.016,0.008c-0.04,0.016-0.08,0.04-0.12,0.056
	c-0.008,0-0.016,0.008-0.024,0.008c-0.04,0.016-0.08,0.04-0.12,0.056c-0.016,0.008-0.016,0.008-0.024,0.016
	c-0.04,0.016-0.08,0.04-0.12,0.056c-0.008,0-0.024,0.008-0.024,0.016c-0.04,0.016-0.08,0.04-0.12,0.056
	c-0.008,0-0.016,0.008-0.024,0.008c-0.04,0.016-0.08,0.04-0.12,0.056l-0.008,0.008c-0.04,0.016-0.08,0.04-0.12,0.056
	c-0.008,0-0.016,0.008-0.024,0.008c-0.04,0.016-0.08,0.04-0.12,0.056c-0.008,0-0.016,0.008-0.024,0.008
	c-0.04,0.016-0.08,0.04-0.12,0.056c-0.016,0.008-0.016,0.008-0.032,0.016c-0.04,0.016-0.08,0.04-0.12,0.056
	c-0.008,0-0.016,0.008-0.024,0.008c-0.04,0.016-0.08,0.04-0.12,0.056c-0.016,0.008-0.016,0.008-0.024,0.008
	c-0.04,0.016-0.08,0.04-0.128,0.056l0,0c-0.04,0.024-0.088,0.04-0.128,0.064c-0.008,0-0.008,0.008-0.016,0.008
	c-0.04,0.016-0.08,0.04-0.128,0.056c-0.008,0-0.008,0.008-0.016,0.008c-0.04,0.016-0.08,0.04-0.12,0.056
	c-0.016,0.008-0.016,0.008-0.024,0.016c-0.04,0.016-0.08,0.04-0.12,0.056c-0.008,0-0.016,0.008-0.024,0.008
	c-0.04,0.016-0.08,0.04-0.12,0.056c-0.008,0-0.016,0.008-0.024,0.008c-0.04,0.016-0.08,0.04-0.128,0.056
	c-0.008,0-0.008,0-0.016,0.008c-0.04,0.016-0.08,0.04-0.12,0.056l-0.016,0.008c-0.04,0.016-0.08,0.04-0.128,0.056
	c-0.008,0-0.008,0.008-0.016,0.008c-0.04,0.016-0.08,0.04-0.128,0.056c-0.008,0-0.008,0.008-0.016,0.008
	c-0.04,0.016-0.08,0.04-0.12,0.056c-0.008,0-0.016,0.008-0.024,0.008c-0.04,0.016-0.08,0.04-0.12,0.056
	c-0.008,0-0.016,0.008-0.016,0.008c-0.048,0.024-0.088,0.04-0.128,0.064c-0.008,0-0.008,0-0.016,0.008
	c-0.04,0.024-0.088,0.04-0.128,0.064h-0.008c-0.04,0.024-0.088,0.04-0.128,0.064l0.008,0.04c-0.04,0.016-0.08,0.04-0.12,0.056
	c-0.008,0-0.016,0.008-0.016,0.008c-0.048,0.024-0.088,0.04-0.128,0.064L159.08,54c-0.04,0.016-0.08,0.04-0.128,0.064
	c-0.008,0-0.008,0-0.016,0.008c-0.04,0.024-0.088,0.04-0.128,0.064c-0.008,0,0,0-0.008,0.008c-0.048,0.024-0.088,0.04-0.136,0.064
	l0,0c-0.048,0.024-0.088,0.048-0.136,0.064h-0.008c-0.04,0.024-0.088,0.04-0.128,0.064c-0.008,0-0.008,0-0.008,0
	c-0.056,0.024-0.096,0.04-0.144,0.064l-0.016,0.008c-0.04,0.024-0.088,0.04-0.128,0.064c-0.008,0-0.008,0.008-0.016,0.008
	c-0.04,0.024-0.088,0.04-0.128,0.064h-0.008c-0.136,0.064-0.272,0.136-0.408,0.2c-0.008,0-0.008,0-0.016,0.008
	c-0.04,0.024-0.088,0.04-0.128,0.064l-0.016,0.008c-0.04,0.024-0.088,0.04-0.128,0.064c-0.008,0-0.008,0-0.016,0.008
	c-0.04,0.024-0.088,0.04-0.128,0.064h-0.008c-0.136,0.064-0.272,0.136-0.408,0.2h-0.008c-0.048,0.024-0.088,0.048-0.136,0.064l0,0
	c-0.048,0.024-0.096,0.048-0.136,0.072l0,0c-0.28,0.136-0.56,0.28-0.832,0.416l0,0c-0.232,0.12-0.464,0.232-0.696,0.352l0,0
	c-0.048,0.024-0.088,0.048-0.136,0.072h-0.008c-4.448,2.256-8.808,4.664-13.08,7.2l16.36,27.504
	c9.808-5.832,20.192-10.808,30.856-14.792L177.68,46.072L177.68,46.072z M109.272,86.736c-10.072,8.736-19.36,18.36-27.736,28.752
	l24.912,20.088c7.168-8.888,15.168-17.184,23.8-24.664L109.272,86.736L109.272,86.736z M59.328,148.688
	c-0.792,1.456-1.576,2.912-2.336,4.384l0,0c-0.096,0.184-0.192,0.368-0.288,0.552l0,0c-0.024,0.048-0.048,0.088-0.072,0.136
	c0,0.008,0,0,0,0c-0.024,0.04-0.048,0.088-0.072,0.136v0.008c-0.024,0.04-0.048,0.088-0.072,0.136v0.008
	c-0.024,0.048-0.048,0.088-0.072,0.136c0,0,0,0-0.008,0.008c-0.048,0.088-0.088,0.176-0.136,0.264l-0.008,0.008
	c-0.024,0.04-0.04,0.08-0.064,0.128c0,0-0.008,0.008-0.008,0.016c-0.024,0.04-0.04,0.08-0.064,0.12
	c-0.008,0.016-0.008,0.016-0.016,0.024c-0.016,0.04-0.04,0.08-0.056,0.12c0,0.008-0.008,0.016-0.008,0.016
	c-0.008,0.04-0.024,0.08-0.048,0.12c0,0.008-0.008,0.016-0.016,0.024c-0.016,0.032-0.032,0.072-0.048,0.104
	c-0.008,0.016-0.008,0.016-0.016,0.032c-0.016,0.032-0.032,0.072-0.056,0.104c-0.008,0.016-0.008,0.016-0.016,0.032
	c-0.016,0.032-0.032,0.072-0.056,0.104c-0.008,0.016-0.008,0.024-0.016,0.04c-0.016,0.032-0.032,0.072-0.056,0.104
	c-0.008,0.016-0.016,0.024-0.016,0.04c-0.016,0.032-0.032,0.072-0.056,0.104c-0.008,0.016-0.008,0.024-0.016,0.032
	c-0.016,0.04-0.04,0.072-0.056,0.112c-0.008,0.016-0.008,0.016-0.016,0.032c-0.016,0.032-0.032,0.064-0.048,0.096
	c-0.008,0.016-0.016,0.024-0.016,0.04c-0.016,0.032-0.032,0.064-0.048,0.096c-0.008,0.016-0.008,0.024-0.016,0.032
	c-0.016,0.032-0.032,0.072-0.056,0.104c-0.008,0.016-0.016,0.024-0.016,0.04c-0.016,0.032-0.032,0.064-0.048,0.104
	c-0.008,0.016-0.016,0.032-0.024,0.04c-0.016,0.032-0.032,0.072-0.048,0.104c-0.008,0.016-0.008,0.024-0.024,0.04
	c-0.016,0.032-0.032,0.064-0.048,0.096c-0.008,0.016-0.016,0.032-0.024,0.048c-0.016,0.024-0.024,0.056-0.04,0.08
	c-0.008,0.016-0.016,0.04-0.032,0.056c-0.016,0.024-0.024,0.056-0.04,0.08c-0.008,0.016-0.024,0.04-0.024,0.056
	c-0.016,0.032-0.032,0.064-0.04,0.088c-0.008,0.016-0.016,0.032-0.024,0.048c-0.016,0.032-0.032,0.064-0.048,0.096
	c-0.008,0.016-0.024,0.04-0.024,0.056c-0.016,0.032-0.032,0.064-0.048,0.088c-0.008,0.016-0.016,0.04-0.024,0.056
	c-0.008,0.024-0.024,0.04-0.032,0.064c-0.016,0.032-0.024,0.048-0.04,0.08c-0.008,0.024-0.024,0.04-0.032,0.064
	c-0.016,0.024-0.024,0.048-0.032,0.072c-0.008,0.024-0.024,0.048-0.032,0.064c-0.016,0.024-0.024,0.04-0.032,0.064
	c-0.016,0.024-0.024,0.056-0.04,0.08c-0.008,0.016-0.016,0.032-0.024,0.056c-0.016,0.032-0.032,0.064-0.048,0.088
	c-0.008,0.016-0.016,0.04-0.024,0.056c-0.016,0.032-0.032,0.064-0.048,0.088c-0.008,0.016-0.016,0.032-0.024,0.056
	c-0.016,0.024-0.024,0.048-0.032,0.072c-0.016,0.024-0.024,0.048-0.032,0.072c-0.008,0.024-0.024,0.04-0.032,0.064
	c-0.016,0.024-0.024,0.048-0.032,0.072c-0.008,0.024-0.024,0.048-0.032,0.064c-0.016,0.024-0.024,0.048-0.032,0.072
	c-0.008,0.024-0.024,0.048-0.032,0.072c-0.008,0.016-0.016,0.032-0.024,0.056c-0.016,0.032-0.032,0.064-0.048,0.096
	c-0.008,0.016-0.016,0.032-0.024,0.048c-0.016,0.032-0.032,0.064-0.048,0.096c-0.008,0.016-0.016,0.024-0.024,0.048
	c-0.016,0.024-0.024,0.056-0.04,0.08c-0.008,0.016-0.024,0.04-0.032,0.064c-0.008,0.024-0.024,0.048-0.032,0.072
	c-0.016,0.024-0.024,0.04-0.032,0.072c-0.008,0.024-0.024,0.048-0.032,0.072c-0.016,0.024-0.016,0.04-0.032,0.064
	c-0.016,0.024-0.024,0.056-0.04,0.08c-0.008,0.016-0.016,0.04-0.024,0.056c-0.016,0.032-0.024,0.056-0.04,0.088
	c-0.016,0.024-0.016,0.032-0.032,0.056c-0.016,0.024-0.024,0.056-0.04,0.088c-0.024,0.024-0.032,0.048-0.04,0.072
	s-0.024,0.048-0.032,0.072c-0.008,0.016-0.024,0.056-0.032,0.072c-0.008,0.024-0.024,0.048-0.032,0.072
	c-0.016,0.024-0.024,0.048-0.04,0.08c-0.008,0.024-0.016,0.04-0.032,0.064c-0.016,0.024-0.024,0.056-0.04,0.08
	c-0.008,0.024-0.024,0.048-0.032,0.072c-0.008,0.016-0.016,0.032-0.024,0.056c-0.016,0.032-0.032,0.064-0.04,0.088
	c-0.008,0.016-0.016,0.04-0.024,0.056c-0.016,0.032-0.032,0.064-0.04,0.088c-0.008,0.016-0.016,0.04-0.024,0.056
	c-0.008,0.024-0.016,0.04-0.032,0.064c-0.016,0.032-0.024,0.056-0.04,0.088c-0.008,0.016-0.016,0.04-0.024,0.056
	c-0.016,0.024-0.024,0.056-0.04,0.08c-0.008,0.024-0.024,0.048-0.032,0.064c-0.016,0.024-0.016,0.04-0.032,0.064
	c-0.016,0.024-0.024,0.056-0.04,0.08c-0.008,0.016-0.016,0.032-0.024,0.048c-0.016,0.032-0.032,0.064-0.048,0.096
	c-0.008,0.016-0.016,0.04-0.024,0.056c-0.016,0.032-0.032,0.064-0.04,0.096c-0.008,0.008-0.016,0.016-0.024,0.04
	c-0.016,0.032-0.024,0.056-0.04,0.08c-0.008,0.016-0.024,0.048-0.032,0.064c-0.008,0.024-0.024,0.048-0.032,0.072
	c-0.008,0.024-0.016,0.04-0.032,0.064c-0.008,0.024-0.024,0.048-0.032,0.072c-0.008,0.016-0.024,0.048-0.032,0.064
	c-0.008,0.024-0.024,0.056-0.04,0.08c-0.008,0.016-0.016,0.032-0.024,0.048c-0.016,0.032-0.032,0.064-0.048,0.096
	c-0.008,0.016-0.016,0.04-0.024,0.048c-0.016,0.032-0.032,0.064-0.048,0.096c-0.008,0.016-0.016,0.032-0.024,0.048
	c-0.016,0.032-0.032,0.064-0.048,0.096c-0.008,0.016-0.016,0.032-0.024,0.048c-0.008,0.024-0.024,0.056-0.032,0.08
	c-0.008,0.024-0.016,0.04-0.032,0.064c-0.016,0.024-0.024,0.056-0.04,0.08c-0.008,0.016-0.016,0.032-0.024,0.04
	c-0.016,0.032-0.032,0.064-0.048,0.104c-0.008,0.016-0.016,0.024-0.024,0.048c-0.016,0.032-0.032,0.064-0.048,0.096
	c-0.008,0.016-0.016,0.032-0.024,0.048c-0.016,0.032-0.032,0.064-0.048,0.104c-0.008,0.016-0.008,0.024-0.016,0.04
	c-0.016,0.032-0.032,0.072-0.048,0.104c-0.008,0.016-0.008,0.024-0.016,0.04c-0.016,0.032-0.032,0.064-0.048,0.096
	c-0.008,0.016-0.008,0.024-0.016,0.04c-0.016,0.032-0.032,0.072-0.048,0.104c-0.008,0.016-0.008,0.016-0.016,0.032
	c-0.016,0.04-0.032,0.072-0.048,0.112c0,0.008-0.008,0.024-0.016,0.032c-0.016,0.04-0.032,0.072-0.048,0.112
	c-0.008,0.016-0.008,0.024-0.016,0.04c-0.016,0.04-0.032,0.072-0.048,0.112c0,0.008-0.016,0.024-0.016,0.032
	c-0.016,0.04-0.032,0.072-0.048,0.112c-0.008,0.016-0.008,0.016-0.016,0.032c-0.016,0.04-0.032,0.072-0.048,0.112l-0.008,0.016
	c-0.016,0.04-0.032,0.08-0.056,0.12c0,0.008-0.008,0.016-0.008,0.024c-0.016,0.04-0.04,0.08-0.056,0.12
	c0,0.008-0.008,0.016-0.008,0.024c-0.016,0.04-0.032,0.08-0.056,0.12c-0.008,0.016-0.008,0.016-0.016,0.032
	c-0.016,0.04-0.032,0.08-0.056,0.12c0,0-0.008,0.016-0.008,0.024c-0.016,0.04-0.04,0.08-0.056,0.128
	c0,0.008-0.008,0.008-0.008,0.016c-0.016,0.04-0.04,0.088-0.056,0.128l0.032,0c-0.016,0.04-0.04,0.08-0.056,0.128
	c0,0.008-0.008,0.016-0.008,0.016c-0.016,0.04-0.04,0.08-0.056,0.128c0,0.008-0.008,0.016-0.008,0.024
	c-0.016,0.04-0.04,0.08-0.056,0.128c0,0.008-0.008,0.008-0.008,0.016c-0.016,0.04-0.04,0.088-0.056,0.128
	c0,0.008,0,0.008-0.008,0.016c-0.016,0.048-0.04,0.088-0.056,0.136v0.008c-0.064,0.136-0.12,0.28-0.184,0.416c0,0,0,0-0.008,0.008
	c-0.016,0.04-0.04,0.088-0.056,0.128l0,0.008c-0.016,0.048-0.04,0.088-0.056,0.136c0,0.008,0,0,0,0.008
	c-2.64,6.064-5.016,12.264-7.12,18.592l30.368,10.088c3.592-10.8,8.184-21.352,13.656-31.368L59.328,148.688L59.328,148.688z
	 M34.24,224.2c-1.16,8.184-1.88,16.488-2.136,24.928c0,0.008,0,0.008,0,0.016c0,0.12-0.008,0.224-0.008,0.344
	c0,0.008,0,0.016,0,0.024c0,0.072-0.008,0.168-0.008,0.248c0,0.008,0,0.016,0,0.024c0,0.032,0,0.048,0,0.08c0,0,0,0.008,0,0.016
	c0,0.056,0,0.104-0.008,0.16c0,0.008,0,0.008,0,0.016c0,0.024,0,0.056,0,0.072c0,0.008,0,0.024,0,0.032c0,0.024,0,0.048,0,0.072
	c0,0.008,0,0.008,0,0.008c0,0.048,0,0.096,0,0.144c0,0.016,0,0.024,0,0.04c0,0.024,0,0.048,0,0.072c0,0.008,0,0.024,0,0.04
	c0,0.04,0,0.08,0,0.112c0,0.016,0,0.032,0,0.04c0,0.024,0,0.04,0,0.064c0,0.016,0,0.032,0,0.04c0,0.072,0,0.144-0.008,0.216
	c0,0.016,0,0.032,0,0.04c0,0.016,0,0.048,0,0.064c0,0.016,0,0.032,0,0.048c0,0.04,0,0.064,0,0.104c0,0.016,0,0.032,0,0.056
	s0,0.04,0,0.056s0,0.032,0,0.048c0,0.024,0,0.04,0,0.064s0,0.048,0,0.072s0,0.048,0,0.072c0,0.016,0,0.04,0,0.056s0,0.04,0,0.056
	s0,0.032,0,0.056c0,0.032,0,0.072,0,0.104c0,0.016,0,0.032,0,0.048c0,0.024,0,0.04,0,0.064c0,0.016,0,0.032,0,0.048
	c0,0.024,0,0.032,0,0.056c0,0.032,0,0.056,0,0.08s0,0.04,0,0.064s0,0.04,0,0.064c0,0.016,0,0.032,0,0.048c0,0.024,0,0.048,0,0.072
	c0,0.016,0,0.032,0,0.048c0,0.032,0,0.064,0,0.096c0,0.016,0,0.032,0,0.048c0,0.024,0,0.048,0,0.064c0,0.024,0,0.024,0,0.048
	c0,0.032,0,0.072,0,0.104c0,0.016,0,0.024,0,0.032c0,0.024,0,0.048,0,0.072c0,0.016,0,0.032,0,0.048c0,0.024,0,0.056,0,0.08
	c0,0.008,0,0.016,0,0.024c0,0.04,0,0.072,0,0.112c0,0.008,0,0.032,0,0.04c0,0.024,0,0.056,0,0.08v0.032c0,0.032,0,0.072,0,0.104
	c0,0.008,0,0.024,0,0.024c0,0.032,0,0.056,0,0.08c0,0.016,0,0.024,0,0.04c0,0.024,0,0.048,0,0.072c0,0.016,0,0.024,0,0.04
	c0,0.032,0,0.072,0,0.104c0,0.008,0,0.032,0,0.04c0,0.024,0,0.048,0,0.072c0,0.008,0,0.032,0,0.04c0,0.032,0,0.072,0,0.104
	c0,0,0,0.008,0,0.016c0,0.032,0,0.064,0,0.096c0,0.016,0,0.024,0,0.04c0,0.032,0,0.056,0,0.088c0,0.008,0,0.016,0,0.024
	c0,0.04,0,0.072,0,0.112c0,0.016,0,0.016,0,0.032c0,0.032,0,0.056,0,0.08c0,0.008,0,0.024,0,0.032c0,0.04,0,0.072,0,0.112
	c0,0,0,0.008,0,0.016c0,0.032,0,0.064,0,0.096c0,0.016,0,0.024,0,0.04c0,0.024,0,0.056,0,0.08c0,0.016,0,0.024,0,0.04
	c0,0.04,0,0.072,0,0.104c0,0.008,0,0.024,0,0.032c0,0.032,0,0.056,0,0.088c0,0,0,0.024,0,0.032c0,0.04,0,0.072,0,0.112v0.008
	c0,0.032,0,0.072,0,0.104c0,0.016,0,0.024,0,0.04c0,0.032,0,0.056,0,0.088c0,0.016,0,0.008,0,0.024c0,0.04,0,0.072,0,0.112
	c0,0.016,0,0.008,0,0.024c0,0.032,0,0.064,0,0.088c0,0.008,0,0.024,0,0.032C32,255.928,32,255.96,32,256l0,0c0,0.04,0,0.08,0,0.112
	c0,0.008,0,0.024,0,0.032c0,0.032,0,0.064,0,0.096c0,0.016,0,0.008,0,0.024c0,0.04,0,0.072,0,0.112c0,0.008,0,0.016,0,0.024
	c0,0.032,0,0.056,0,0.088c0,0.008,0,0.024,0,0.032c0,0.08,0,0.152,0,0.232c0,0.008,0,0.016,0,0.024c0,0.032,0,0.072,0,0.104v0.008
	c0,0.04,0,0.08,0,0.12v0.016c0,0.032,0,0.072,0,0.104c0,0.008,0,0.008,0,0.016c0,0.08,0,0.16,0,0.248v0.008
	c0.016,2.24,0.064,4.48,0.136,6.704l31.976-1.136C64.04,260.656,64,258.328,64,256c0-9.144,0.648-18.32,1.92-27.296L34.24,224.2
	L34.24,224.2z M68.368,296.952l-31.272,6.792c1.88,8.648,4.256,17.104,7.096,25.352l0,0c0.064,0.192,0.136,0.392,0.2,0.584
	c0,0.008,0,0,0,0.008c0.016,0.048,0.032,0.096,0.048,0.144l0,0c0.016,0.048,0.032,0.096,0.048,0.144l0,0
	c0.032,0.096,0.064,0.192,0.104,0.288c0,0.008,0,0,0,0c0.016,0.048,0.032,0.096,0.048,0.144c0,0.008,0,0,0,0.008
	c0.016,0.048,0.032,0.088,0.048,0.136l0.008,0.016c0.016,0.048,0.032,0.088,0.048,0.136c0,0,0,0.008,0.008,0.016
	c0.016,0.048,0.032,0.088,0.048,0.136c0,0.008,0,0.008,0.008,0.016c0.016,0.04,0.032,0.088,0.048,0.128c0,0.008,0,0,0,0.008
	c0.016,0.04,0.032,0.088,0.048,0.128c0,0,0.008,0.016,0.008,0.024c0.016,0.04,0.032,0.08,0.048,0.128
	c0,0.008,0.008,0.016,0.008,0.024c0.016,0.04,0.032,0.08,0.04,0.12c0,0.008,0.008,0.024,0.008,0.032
	c0.016,0.04,0.032,0.08,0.04,0.12c0.008,0.016,0.008,0.016,0.008,0.024c0.016,0.04,0.032,0.08,0.04,0.12c0,0,0,0.008,0.008,0.016
	c0.016,0.04,0.024,0.08,0.04,0.12c0.008,0.016,0.008,0.016,0.008,0.024c0.016,0.04,0.024,0.08,0.04,0.112
	c0.008,0.016,0.008,0.024,0.016,0.04c0.016,0.04,0.024,0.072,0.04,0.112c0.008,0.016,0.008,0.024,0.016,0.04
	c0.016,0.04,0.024,0.072,0.04,0.112c0.008,0.016,0.008,0.024,0.016,0.04c0.016,0.032,0.024,0.072,0.04,0.104
	c0.008,0.016,0.008,0.032,0.016,0.04c0.008,0.032,0.024,0.056,0.032,0.088c0.008,0.024,0.016,0.04,0.024,0.064
	c0.008,0.032,0.024,0.056,0.032,0.088c0.008,0.024,0.008,0.024,0.016,0.048c0.016,0.032,0.024,0.064,0.04,0.104
	c0.008,0.016,0.016,0.04,0.016,0.048c0.016,0.032,0.024,0.064,0.04,0.104c0.008,0.024,0.008,0.024,0.016,0.048
	c0.008,0.032,0.024,0.056,0.032,0.088c0.008,0.024,0.016,0.04,0.024,0.072c0.008,0.024,0.016,0.048,0.024,0.072
	s0.016,0.056,0.032,0.08c0.008,0.024,0.016,0.04,0.024,0.064c0.016,0.032,0.024,0.056,0.032,0.088
	c0.008,0.024,0.016,0.04,0.024,0.064s0.016,0.048,0.024,0.064c0.008,0.032,0.024,0.056,0.032,0.088
	c0.008,0.024,0.016,0.048,0.024,0.072c0.008,0.008,0.008,0.024,0.016,0.032c0.016,0.04,0.032,0.072,0.04,0.112
	c0.008,0.016,0.008,0.024,0.016,0.04c0.016,0.04,0.024,0.072,0.04,0.112c0.008,0.008,0.008,0.024,0.016,0.032
	c0.016,0.04,0.032,0.08,0.048,0.12c0.008,0.008,0.008,0.024,0.016,0.032c0.048,0.136,0.096,0.256,0.144,0.392v0.008
	c0.024,0.056,0.04,0.096,0.056,0.152v0.008c0.88,2.352,1.808,4.68,2.768,6.992l29.552-12.272
	C74.224,319.064,70.784,308.088,68.368,296.952L68.368,296.952z M94.504,359.888l-26.896,17.344
	c1.696,2.632,3.448,5.224,5.248,7.784v0.008c0.12,0.168,0.24,0.336,0.36,0.504l0,0c0.056,0.08,0.12,0.168,0.176,0.248
	c0.008,0.008,0,0,0.008,0.008c0.032,0.04,0.056,0.08,0.088,0.12l0.008,0.008c0.024,0.04,0.056,0.08,0.08,0.12
	c0.008,0.008,0.008,0.008,0.008,0.008c0.032,0.048,0.056,0.08,0.088,0.12v0.008c0.032,0.04,0.056,0.08,0.088,0.12l0,0
	c0.024,0.04,0.056,0.08,0.08,0.12c0.008,0.008,0.008,0.008,0.008,0.008c0.024,0.04,0.056,0.072,0.08,0.112
	c0.008,0.008,0.008,0.016,0.016,0.024c0.024,0.04,0.048,0.072,0.08,0.112c0.008,0.008,0.008,0.016,0.016,0.016
	c0.024,0.04,0.056,0.072,0.08,0.112c0.008,0.008,0.008,0.016,0.016,0.016c0.024,0.04,0.056,0.072,0.08,0.112
	c0.008,0.008,0.008,0.016,0.016,0.024c0.024,0.032,0.056,0.072,0.08,0.104c0.008,0.008,0.008,0.016,0.016,0.016
	c0.024,0.04,0.056,0.072,0.08,0.112l0.008,0.008c0.024,0.04,0.056,0.072,0.08,0.112c0.008,0.008,0.008,0.008,0.008,0.016
	c0.024,0.04,0.048,0.072,0.08,0.104c0.008,0.008,0.016,0.016,0.016,0.024c0.024,0.032,0.048,0.064,0.072,0.104
	c0.008,0.008,0.016,0.016,0.024,0.032c0.024,0.032,0.048,0.064,0.072,0.096c0.008,0.008,0.016,0.016,0.024,0.032
	c0.024,0.032,0.048,0.064,0.072,0.104c0.008,0.008,0.016,0.024,0.016,0.024c0.024,0.032,0.048,0.072,0.072,0.104
	c0.008,0.008,0.016,0.016,0.024,0.032c0.024,0.032,0.04,0.056,0.064,0.088c0.008,0.008,0.024,0.032,0.032,0.04
	c0.024,0.024,0.04,0.056,0.056,0.08c0.008,0.008,0.016,0.024,0.024,0.04c0.024,0.032,0.04,0.056,0.064,0.088
	c0.008,0.008,0.016,0.024,0.032,0.04c0.024,0.032,0.048,0.064,0.064,0.088c0.008,0.008,0.016,0.024,0.024,0.04
	c0.024,0.032,0.04,0.056,0.064,0.088c0.008,0.008,0.024,0.032,0.032,0.04c0.024,0.032,0.04,0.056,0.064,0.088
	c0.016,0.016,0.016,0.024,0.024,0.04c0.024,0.032,0.048,0.064,0.064,0.088c0.008,0.008,0.016,0.024,0.024,0.04
	c0.016,0.024,0.04,0.056,0.056,0.08c0.016,0.016,0.016,0.024,0.032,0.04c0.016,0.024,0.04,0.048,0.056,0.072
	c0.016,0.016,0.032,0.04,0.04,0.056c0.016,0.024,0.032,0.048,0.048,0.072c0.016,0.016,0.016,0.024,0.032,0.04
	c0.024,0.032,0.04,0.056,0.064,0.088c0.016,0.016,0.024,0.032,0.032,0.048c0.024,0.024,0.04,0.056,0.064,0.08
	c0.016,0.016,0.024,0.032,0.032,0.048c0.016,0.024,0.04,0.056,0.056,0.08c0.016,0.016,0.024,0.04,0.04,0.056
	c0.016,0.024,0.032,0.048,0.048,0.064s0.032,0.04,0.04,0.056c0.016,0.024,0.032,0.04,0.048,0.064s0.024,0.04,0.048,0.064
	c0.016,0.024,0.032,0.048,0.048,0.064s0.024,0.032,0.04,0.056s0.04,0.048,0.056,0.072s0.024,0.032,0.04,0.056
	s0.032,0.048,0.056,0.072c0.016,0.016,0.024,0.032,0.04,0.048c0.016,0.024,0.04,0.048,0.056,0.08
	c0.016,0.024,0.024,0.032,0.04,0.056c0.048,0.008,0.064,0.032,0.08,0.056c0.016,0.016,0.032,0.04,0.04,0.056
	c0.016,0.016,0.024,0.032,0.04,0.048c0.024,0.024,0.04,0.048,0.056,0.08c0.008,0.016,0.024,0.032,0.032,0.04
	c0.024,0.032,0.04,0.056,0.064,0.088c0.008,0.016,0.024,0.024,0.032,0.04c0.024,0.024,0.048,0.056,0.064,0.088
	c0.008,0.016,0.024,0.024,0.032,0.04c0.024,0.024,0.04,0.056,0.064,0.08c0.016,0.016,0.024,0.032,0.04,0.048s0.032,0.04,0.04,0.056
	c0.016,0.024,0.04,0.048,0.056,0.072s0.024,0.032,0.04,0.056c0.016,0.016,0.024,0.032,0.04,0.048c0.016,0.024,0.04,0.056,0.056,0.08
	c0.008,0.016,0.024,0.032,0.032,0.04c0.024,0.024,0.048,0.056,0.064,0.088c0.008,0.008,0.016,0.024,0.024,0.04
	c0.024,0.032,0.048,0.056,0.072,0.096c0.008,0.016,0.016,0.024,0.032,0.04c0.024,0.032,0.048,0.056,0.072,0.088
	c0.008,0.008,0.016,0.024,0.024,0.032c0.024,0.024,0.048,0.064,0.064,0.088c0.008,0.016,0.024,0.032,0.032,0.04
	c0.016,0.024,0.048,0.064,0.064,0.08c0.008,0.016,0.024,0.032,0.032,0.048c0.016,0.024,0.032,0.04,0.048,0.064
	s0.032,0.048,0.056,0.072c0.016,0.016,0.032,0.04,0.048,0.056c0.008,0.016,0.024,0.024,0.032,0.04
	c0.024,0.024,0.048,0.064,0.072,0.088c0.008,0.008,0.016,0.024,0.024,0.032c0.024,0.032,0.056,0.072,0.08,0.104
	c0.008,0.008,0.016,0.016,0.016,0.024c0.024,0.032,0.056,0.072,0.08,0.104c0.008,0.008,0.016,0.016,0.016,0.024
	c0.032,0.04,0.048,0.064,0.08,0.104c0,0,0.016,0.016,0.016,0.024c0.088,0.112,0.168,0.216,0.256,0.328
	c0,0.008,0.008,0.008,0.008,0.016c0.024,0.032,0.064,0.08,0.088,0.112c0.008,0.008,0.016,0.016,0.024,0.024
	c0.024,0.032,0.056,0.072,0.08,0.104c0,0,0.008,0.016,0.016,0.016c0.024,0.032,0.064,0.08,0.088,0.112
	c0.008,0.008,0.008,0.008,0.016,0.016c0.032,0.048,0.056,0.08,0.096,0.12v0.008c0.088,0.112,0.168,0.216,0.256,0.328
	c0.008,0.008,0.016,0.016,0.024,0.032c0.024,0.032,0.056,0.064,0.08,0.104c0.008,0.008,0.016,0.016,0.024,0.024
	c0.024,0.032,0.048,0.064,0.08,0.096c0.008,0.008,0.016,0.024,0.024,0.032c0.024,0.032,0.048,0.056,0.072,0.088
	c0.008,0.008,0.016,0.024,0.024,0.032c0.024,0.032,0.056,0.072,0.088,0.112c0.008,0.008,0.008,0.008,0.008,0.016
	c0.056,0.064,0.104,0.128,0.152,0.192c0,0,0,0,0.008,0.008c0.032,0.04,0.056,0.072,0.096,0.12c0.008,0.008,0.016,0.016,0.024,0.032
	c0.024,0.032,0.056,0.064,0.08,0.096c0.008,0.008,0.016,0.016,0.024,0.024c0.024,0.032,0.056,0.064,0.08,0.096
	c0.008,0.008,0.016,0.024,0.024,0.032c0.024,0.032,0.048,0.064,0.072,0.096c0.008,0.008,0.016,0.024,0.024,0.032
	c0.024,0.024,0.048,0.064,0.072,0.096c0.008,0.016,0.016,0.024,0.032,0.04c0.032,0.04,0.064,0.08,0.096,0.12l0,0
	c0.056,0.064,0.104,0.128,0.152,0.192c0.008,0.008,0.008,0.016,0.016,0.024c0.024,0.032,0.056,0.072,0.088,0.104
	c0.008,0.008,0.016,0.016,0.024,0.024c0.024,0.032,0.056,0.072,0.08,0.104c0.008,0.008,0.016,0.016,0.024,0.024
	c0.024,0.032,0.056,0.072,0.08,0.104c0.008,0.008,0.016,0.016,0.016,0.024c0.024,0.032,0.056,0.072,0.08,0.104
	c0.008,0.008,0.016,0.016,0.016,0.024c0.024,0.032,0.056,0.072,0.08,0.104c0.008,0.008,0.016,0.016,0.024,0.024
	c0.016,0.024,0.032,0.04,0.048,0.056c0.008,0.008,0.016,0.024,0.024,0.032c0.024,0.032,0.056,0.064,0.08,0.096
	c0.008,0.008,0.016,0.016,0.024,0.024c0.024,0.032,0.056,0.064,0.08,0.096c0.008,0.008,0.016,0.016,0.024,0.032
	c0.024,0.032,0.056,0.064,0.08,0.096c0.008,0.008,0.016,0.016,0.024,0.032c0.024,0.032,0.056,0.064,0.08,0.096
	c0.008,0.008,0.016,0.016,0.024,0.032c0.024,0.032,0.056,0.072,0.08,0.104c0.008,0.008,0.016,0.016,0.016,0.024
	c0.032,0.04,0.056,0.072,0.088,0.104c0.008,0.008,0.008,0.016,0.016,0.016c0.016,0.024,0.032,0.04,0.048,0.064l0,0
	c0.032,0.04,0.064,0.08,0.096,0.12c0.008,0.008,0.016,0.016,0.016,0.024c0.024,0.032,0.056,0.072,0.08,0.104
	c0.008,0.008,0.016,0.016,0.024,0.032c0.024,0.032,0.056,0.064,0.08,0.096c0.008,0.008,0.016,0.016,0.024,0.032
	c0.024,0.032,0.056,0.064,0.08,0.096c0.008,0.008,0.016,0.016,0.024,0.024c0.024,0.024,0.056,0.064,0.072,0.088
	c0.008,0.008,0.016,0.024,0.032,0.032c0.016,0.024,0.032,0.04,0.056,0.064c0.016,0.024,0.032,0.04,0.048,0.064
	s0.032,0.032,0.048,0.056c0.016,0.016,0.024,0.032,0.04,0.048c0.016,0.024,0.048,0.056,0.064,0.08
	c0.008,0.016,0.024,0.024,0.032,0.04c0.024,0.024,0.048,0.056,0.072,0.08c0.008,0.016,0.024,0.024,0.032,0.04
	c0.024,0.024,0.048,0.056,0.064,0.08c0.016,0.016,0.024,0.032,0.04,0.048c0.016,0.024,0.04,0.048,0.056,0.072
	c0.016,0.016,0.024,0.032,0.04,0.048c0.016,0.024,0.04,0.048,0.056,0.072c0.016,0.016,0.032,0.032,0.04,0.056
	c0.016,0.016,0.032,0.04,0.04,0.056c0.016,0.024,0.04,0.048,0.056,0.072s0.032,0.032,0.048,0.056s0.04,0.048,0.056,0.072
	c0.016,0.016,0.032,0.04,0.048,0.056c0.008,0.016,0.024,0.024,0.032,0.04c0.024,0.024,0.048,0.056,0.072,0.088
	c0.008,0.016,0.024,0.024,0.032,0.04c0.024,0.024,0.048,0.056,0.072,0.088c0.008,0.008,0.016,0.024,0.024,0.032
	c0.024,0.032,0.048,0.056,0.072,0.088c0.008,0.016,0.024,0.024,0.032,0.04c0.016,0.024,0.04,0.048,0.056,0.072
	c0.016,0.016,0.032,0.04,0.048,0.056s0.032,0.04,0.048,0.056c0.016,0.024,0.04,0.048,0.056,0.064
	c0.016,0.024,0.024,0.032,0.048,0.056c0.016,0.024,0.04,0.04,0.056,0.064c0.016,0.016,0.04,0.04,0.048,0.056
	c0.016,0.016,0.032,0.032,0.04,0.048c0.016,0.024,0.04,0.048,0.056,0.072c0.016,0.016,0.032,0.032,0.04,0.048
	c0.024,0.024,0.04,0.048,0.064,0.072c0.016,0.016,0.024,0.032,0.04,0.04c0.024,0.024,0.04,0.048,0.064,0.08
	c0.016,0.016,0.024,0.032,0.04,0.048c0.024,0.024,0.04,0.048,0.064,0.08c0.016,0.016,0.024,0.032,0.04,0.048s0.032,0.04,0.048,0.056
	c0.024,0.024,0.04,0.048,0.064,0.072c0.016,0.016,0.024,0.032,0.04,0.048c0.024,0.024,0.04,0.048,0.064,0.072
	c0.016,0.016,0.032,0.04,0.048,0.056s0.024,0.032,0.04,0.048c0.024,0.024,0.04,0.048,0.064,0.072
	c0.016,0.016,0.024,0.032,0.04,0.048c0.024,0.024,0.04,0.048,0.064,0.072c0.016,0.016,0.024,0.032,0.04,0.048
	c0.024,0.024,0.04,0.048,0.064,0.072c0.016,0.016,0.024,0.032,0.04,0.048c0.024,0.024,0.04,0.048,0.064,0.072
	c0.016,0.016,0.024,0.032,0.04,0.048s0.032,0.04,0.048,0.056c0.024,0.024,0.04,0.048,0.056,0.072s0.024,0.032,0.04,0.048
	c0.024,0.024,0.04,0.048,0.064,0.072c0.016,0.016,0.024,0.032,0.04,0.048c0.024,0.024,0.04,0.048,0.064,0.072
	c0.016,0.016,0.024,0.032,0.04,0.048s0.032,0.04,0.048,0.056c0.016,0.024,0.04,0.04,0.056,0.064c0.016,0.016,0.032,0.04,0.048,0.056
	c0.016,0.024,0.032,0.04,0.056,0.064c0.016,0.016,0.032,0.04,0.048,0.056c0.016,0.024,0.032,0.032,0.048,0.056
	s0.04,0.048,0.056,0.064s0.024,0.032,0.04,0.048c0.024,0.024,0.04,0.048,0.064,0.072c0.008,0.008,0.032,0.032,0.04,0.048
	c0.024,0.024,0.048,0.056,0.064,0.08c0.016,0.016,0.024,0.024,0.032,0.04c0.024,0.024,0.048,0.056,0.072,0.08
	c0.008,0.008,0.024,0.024,0.032,0.032c0.024,0.024,0.048,0.056,0.072,0.08c0.008,0.008,0.016,0.024,0.032,0.032
	c0.024,0.024,0.04,0.048,0.064,0.072c0.016,0.016,0.024,0.032,0.04,0.048c0.024,0.024,0.04,0.048,0.064,0.072
	c0.008,0.008,0.016,0.024,0.032,0.032c0.024,0.032,0.048,0.056,0.072,0.088c0.016,0.016,0.016,0.016,0.032,0.032
	c0.024,0.032,0.048,0.056,0.072,0.088c0.008,0.008,0.024,0.024,0.032,0.04c0.024,0.024,0.048,0.056,0.072,0.08
	c0.016,0.016,0.024,0.024,0.04,0.04c0.024,0.024,0.048,0.056,0.072,0.08c0.008,0.008,0.024,0.024,0.032,0.04
	c0.024,0.024,0.04,0.048,0.064,0.072c0.016,0.016,0.024,0.032,0.04,0.04c0.024,0.024,0.04,0.048,0.064,0.072
	c0.016,0.016,0.016,0.024,0.032,0.04c0.024,0.024,0.048,0.056,0.072,0.08c0.008,0.008,0.024,0.024,0.032,0.032
	c0.024,0.032,0.048,0.056,0.072,0.088c0.016,0.016,0.016,0.016,0.032,0.032c0.024,0.032,0.048,0.056,0.072,0.088
	c0.008,0.008,0.024,0.024,0.032,0.04c0.024,0.032,0.048,0.056,0.072,0.08c0.008,0.008,0.024,0.024,0.032,0.032
	c0.024,0.032,0.048,0.056,0.08,0.088c0.008,0.008,0.024,0.024,0.032,0.032c0.024,0.024,0.048,0.056,0.072,0.08
	c0.016,0.016,0.016,0.016,0.032,0.032c0.024,0.024,0.048,0.048,0.072,0.08c0.008,0.008,0.016,0.024,0.032,0.032
	c0.024,0.024,0.048,0.056,0.072,0.088c0.008,0.008,0.016,0.016,0.024,0.024c0.024,0.032,0.056,0.064,0.08,0.088
	c0.008,0.008,0.024,0.024,0.024,0.024c0.032,0.032,0.056,0.064,0.088,0.096c0.008,0.008,0.016,0.016,0.024,0.024
	c0.024,0.032,0.056,0.064,0.08,0.088c0.008,0.008,0.016,0.016,0.024,0.032c0.024,0.032,0.056,0.064,0.08,0.088
	c0.008,0.008,0.016,0.016,0.024,0.032c0.024,0.032,0.048,0.056,0.072,0.088c0.016,0.016,0.016,0.016,0.032,0.032
	c0.024,0.024,0.048,0.056,0.072,0.08c0.008,0.008,0.016,0.024,0.024,0.024c0.024,0.032,0.056,0.056,0.08,0.088
	c0.008,0.008,0.016,0.016,0.024,0.024c0.024,0.032,0.056,0.064,0.08,0.096c0.008,0.008,0.016,0.016,0.024,0.024
	c0.032,0.032,0.056,0.064,0.08,0.096c0.008,0.008,0.016,0.016,0.024,0.024c0.032,0.032,0.056,0.064,0.088,0.096
	c0.008,0.008,0.008,0.016,0.016,0.016c0.032,0.032,0.056,0.064,0.088,0.096c0.008,0.008,0.016,0.016,0.016,0.016
	c0.032,0.032,0.064,0.064,0.088,0.104c0.008,0.008,0.008,0.008,0.008,0.008c0.032,0.032,0.056,0.064,0.088,0.096
	c0.008,0.008,0.008,0.008,0.008,0.008c0.032,0.032,0.064,0.072,0.096,0.104l0.008,0.008c0.032,0.032,0.064,0.072,0.096,0.104
	c0.008,0.008,0.008,0.008,0.016,0.016c0.032,0.032,0.064,0.072,0.096,0.104l0.008,0.008c0.032,0.032,0.064,0.072,0.096,0.104
	c0.008,0.008,0.008,0.008,0.016,0.016c0.032,0.032,0.064,0.072,0.096,0.104l0.008,0.008c0.032,0.04,0.064,0.072,0.104,0.112l0,0
	c0.072,0.072,0.136,0.152,0.208,0.224l0.008,0.008c0.032,0.032,0.064,0.072,0.096,0.104c0,0,0,0,0.008,0.008
	c0.032,0.04,0.064,0.072,0.096,0.104l0.008,0.008c0.032,0.04,0.064,0.072,0.096,0.104c0.008,0.008,0,0,0.008,0.008
	c0.032,0.04,0.064,0.072,0.096,0.112l0.008,0.008c0.136,0.152,0.28,0.304,0.416,0.448c0.008,0.008,0,0,0.008,0.008
	c0.032,0.04,0.064,0.072,0.104,0.112l0.008,0.008c0.032,0.04,0.064,0.072,0.104,0.112c0.008,0.008,0,0,0,0
	c0.208,0.224,0.424,0.456,0.632,0.68l0,0l23.4-21.824C107.768,378.568,100.68,369.472,94.504,359.888L94.504,359.888z
	 M141.064,409.816l-19.176,25.616c10.632,7.96,22,15,33.984,21l14.32-28.616C160.008,422.712,150.208,416.656,141.064,409.816
	L141.064,409.816z M202.024,440.32l-8.976,30.712c12.64,3.696,25.736,6.304,39.192,7.72l3.352-31.824
	C224.24,445.736,212.944,443.512,202.024,440.32L202.024,440.32z M303.704,442.032c-11.016,2.816-22.384,4.656-33.792,5.472
	l2.28,31.92c2.664-0.192,5.312-0.424,7.944-0.712h0.008c0.056-0.008,0.104-0.008,0.16-0.016c0.008,0,0.008,0,0.016,0
	c0.144-0.016,0.288-0.032,0.432-0.048h0.008c0.048-0.008,0.104-0.008,0.16-0.016c0.008,0,0.016,0,0.024,0
	c0.048-0.008,0.104-0.008,0.144-0.016c0.008,0,0.016,0,0.024,0c0.056-0.008,0.104-0.008,0.16-0.016h0.008
	c0.032,0,0.056-0.008,0.08-0.008c0.016,0,0.032,0,0.048-0.008c0.04-0.008,0.088-0.008,0.12-0.016c0.016,0,0.032,0,0.048-0.008
	c0.04-0.008,0.072-0.008,0.12-0.016c0.016,0,0.032-0.008,0.056-0.008c0.04-0.008,0.072-0.008,0.112-0.016
	c0.016,0,0.032-0.008,0.048-0.008c0.032,0,0.048-0.008,0.08-0.008c0.024,0,0.04-0.008,0.064-0.008c0.032,0,0.072-0.008,0.104-0.008
	c0.016,0,0.032,0,0.04-0.008c0.04-0.008,0.08-0.008,0.12-0.016c0.016,0,0.032,0,0.048-0.008c0.04-0.008,0.072-0.008,0.104-0.016
	c0.024,0,0.04-0.008,0.064-0.008s0.048-0.008,0.072-0.008c0.032,0,0.064-0.008,0.096-0.008c0.024,0,0.048-0.008,0.064-0.008
	c0.024,0,0.056-0.008,0.08-0.008c0.032,0,0.056-0.008,0.088-0.008c0.024,0,0.048-0.008,0.064-0.008c0.032,0,0.056-0.008,0.088-0.008
	c0.024,0,0.048-0.008,0.08-0.008c0.032,0,0.048-0.008,0.072-0.008c0.032,0,0.056-0.008,0.088-0.008c0.024,0,0.04-0.008,0.064-0.008
	c0.032-0.008,0.064-0.008,0.104-0.016c0.024,0,0.04-0.008,0.064-0.008c0.032,0,0.056-0.008,0.088-0.008
	c0.024,0,0.048-0.008,0.072-0.008s0.056-0.008,0.08-0.008s0.04-0.008,0.064-0.008c0.032,0,0.064-0.008,0.096-0.008
	c0.024,0,0.032,0,0.056-0.008c0.04-0.008,0.072-0.008,0.112-0.016c0.016,0,0.04-0.008,0.048-0.008
	c0.04-0.008,0.08-0.008,0.112-0.016c0.016,0,0.032,0,0.04-0.008c0.032-0.008,0.072-0.008,0.104-0.016
	c0.016,0,0.04-0.008,0.056-0.008c0.032-0.008,0.064-0.008,0.104-0.016c0.016,0,0.024,0,0.04-0.008
	c0.04-0.008,0.072-0.008,0.112-0.016c0.016,0,0.04-0.008,0.048-0.008c0.04-0.008,0.072-0.008,0.112-0.016
	c0.016,0,0.032-0.008,0.048-0.008c0.04-0.008,0.08-0.008,0.112-0.016c0.016,0,0.024,0,0.04-0.008
	c0.032-0.008,0.072-0.008,0.104-0.016c0.008,0,0.032-0.008,0.04-0.008c0.04-0.008,0.08-0.008,0.112-0.016
	c0.016,0,0.032-0.008,0.048-0.008c0.04-0.008,0.08-0.008,0.112-0.016c0.016,0,0.032,0,0.048-0.008c0.04-0.008,0.08-0.008,0.12-0.016
	c0.016,0,0.032,0,0.04-0.008c0.04-0.008,0.072-0.008,0.112-0.016c0.016,0,0.024,0,0.04-0.008c0.032-0.008,0.072-0.008,0.104-0.016
	c0.016,0,0.024,0,0.04-0.008c0.04-0.008,0.08-0.008,0.12-0.016c0.016,0,0.032,0,0.048-0.008c0.04-0.008,0.08-0.008,0.12-0.016
	c0.016,0,0.024,0,0.04-0.008c0.04-0.008,0.08-0.008,0.12-0.016c0.016,0,0.024,0,0.032-0.008c0.04-0.008,0.072-0.008,0.112-0.016
	c0.008,0,0.024,0,0.032-0.008c0.04-0.008,0.08-0.008,0.12-0.016c0.016,0,0.024,0,0.04-0.008c0.04-0.008,0.08-0.008,0.12-0.016
	c0.016,0,0.024,0,0.04-0.008c0.04-0.008,0.08-0.008,0.12-0.016c0.016,0,0.024,0,0.04-0.008c0.04-0.008,0.072-0.008,0.112-0.016
	c0.016,0,0.024,0,0.04-0.008c0.032-0.008,0.072-0.008,0.104-0.016c0.016,0,0.024,0,0.04-0.008c0.04-0.008,0.08-0.008,0.12-0.016
	c0.016,0,0.024,0,0.04-0.008c0.04-0.008,0.08-0.008,0.12-0.016c0.016,0,0.024,0,0.04-0.008c0.04-0.008,0.08-0.008,0.12-0.016
	c0.016,0,0.024,0,0.04-0.008c0.04-0.008,0.072-0.008,0.112-0.016c0.008,0,0.024,0,0.032-0.008c0.04-0.008,0.08-0.008,0.12-0.016
	c0.016,0,0.024,0,0.04-0.008c0.04-0.008,0.08-0.008,0.12-0.016c0.016,0,0.024,0,0.04-0.008c0.04-0.008,0.08-0.008,0.12-0.016
	c0.016,0,0.024,0,0.04-0.008c0.04-0.008,0.08-0.008,0.12-0.016c0.008,0,0.024,0,0.032-0.008c0.04-0.008,0.08-0.008,0.12-0.016
	c0.016,0,0.016,0,0.032-0.008c0.04-0.008,0.08-0.016,0.128-0.016c0.008,0,0.032-0.008,0.04-0.008c0.04-0.008,0.08-0.008,0.12-0.016
	c0.016,0,0.024,0,0.04-0.008c0.04-0.008,0.08-0.008,0.12-0.016c0.016,0,0.016,0,0.032-0.008c0.04-0.008,0.08-0.008,0.112-0.016
	c0.008,0,0.024,0,0.032-0.008c0.04-0.008,0.08-0.008,0.12-0.016c0.016,0,0.024,0,0.04-0.008c0.04-0.008,0.08-0.008,0.12-0.016
	c0.016,0,0.024-0.008,0.04-0.008c0.04-0.008,0.08-0.008,0.12-0.016c0.016,0,0.024,0,0.04-0.008c0.04-0.008,0.08-0.016,0.12-0.016
	c0.008,0,0.024,0,0.032-0.008c0.04-0.008,0.08-0.008,0.112-0.016c0.008,0,0.024,0,0.032-0.008c0.04-0.008,0.08-0.016,0.12-0.016
	c0.008,0,0.032-0.008,0.04-0.008c0.04-0.008,0.08-0.016,0.12-0.016c0.016,0,0.024-0.008,0.04-0.008
	c0.04-0.008,0.08-0.016,0.12-0.016c0.016,0,0.024-0.008,0.04-0.008c0.032-0.008,0.072-0.008,0.104-0.016
	c0.016,0,0.032-0.008,0.048-0.008c0.032-0.008,0.064-0.008,0.104-0.016c0.016,0,0.032-0.008,0.048-0.008
	c0.04-0.008,0.072-0.008,0.112-0.016c0.016,0,0.032-0.008,0.048-0.008c0.04-0.008,0.072-0.008,0.112-0.016
	c0.024,0,0.032-0.008,0.056-0.008c0.032-0.008,0.064-0.008,0.096-0.016c0.024,0,0.04-0.008,0.056-0.008
	c0.032-0.008,0.056-0.008,0.088-0.016c0.024,0,0.048-0.008,0.072-0.008c0.032-0.008,0.056-0.008,0.088-0.016
	c0.024,0,0.032-0.008,0.056-0.008c0.032-0.008,0.072-0.008,0.104-0.016c0.016,0,0.04-0.008,0.056-0.008
	c0.032-0.008,0.064-0.008,0.096-0.016c0.024,0,0.04-0.008,0.064-0.008s0.048-0.008,0.072-0.008c0.032-0.008,0.056-0.008,0.088-0.016
	c0.024,0,0.048-0.008,0.072-0.008s0.048-0.008,0.064-0.008c0.032-0.008,0.064-0.008,0.096-0.016c0.016,0,0.048-0.008,0.056-0.008
	c0.032-0.008,0.064-0.008,0.104-0.016c0.024,0,0.04-0.008,0.064-0.008c0.024-0.008,0.048-0.008,0.072-0.016
	c0.024,0,0.056-0.008,0.08-0.016s0.048-0.008,0.08-0.016c0.024,0,0.056-0.008,0.08-0.016s0.048-0.008,0.08-0.016
	c0.024,0,0.04-0.008,0.064-0.008c0.032-0.008,0.064-0.008,0.096-0.016c0.024,0,0.048-0.008,0.064-0.008
	c0.024,0,0.048-0.008,0.064-0.008c0.032-0.008,0.064-0.008,0.096-0.016c0.016,0,0.04-0.008,0.056-0.008
	c0.032-0.008,0.072-0.008,0.096-0.016c0.016,0,0.04-0.008,0.056-0.008c0.04-0.008,0.072-0.008,0.104-0.016
	c0.016,0,0.04-0.008,0.056-0.008c0.032-0.008,0.04-0.008,0.072-0.008c0.032-0.008,0.056-0.008,0.088-0.016
	c0.024,0,0.056-0.008,0.08-0.016c0.016,0,0.032-0.008,0.056-0.008c0.04-0.008,0.072-0.016,0.104-0.016
	c0.016,0,0.04-0.008,0.056-0.008c0.04-0.008,0.072-0.008,0.112-0.016c0.016,0,0.032-0.008,0.04-0.008
	c0.04-0.008,0.096-0.016,0.136-0.024c0.008,0,0.016,0,0.024-0.008c0.032-0.008,0.056-0.008,0.08-0.016c0.008,0,0.016,0,0.024,0
	c0.04-0.008,0.096-0.016,0.144-0.024c0.008,0,0.024-0.008,0.032-0.008c0.04-0.008,0.088-0.016,0.128-0.024
	c0.008,0,0.024,0,0.032-0.008c0.04-0.008,0.104-0.016,0.144-0.024c0.008,0,0.008,0,0.016,0c0.088-0.016,0.16-0.032,0.248-0.048
	c0.008,0,0.016,0,0.024-0.008c0.04-0.008,0.088-0.016,0.136-0.024c0.016,0,0.024-0.008,0.04-0.008
	c0.04-0.008,0.096-0.016,0.136-0.024c0.008,0,0.016,0,0.016,0c0.144-0.024,0.28-0.048,0.424-0.08h0.008
	c0.056-0.008,0.104-0.016,0.16-0.032h0.008c5.128-0.936,10.192-2.04,15.192-3.32L303.704,442.032L303.704,442.032z M365.656,413.632
	c-9.368,6.528-19.368,12.248-29.712,17l13.344,29.088c3.392-1.56,6.744-3.2,10.048-4.92c0,0,0.008,0,0.008-0.008
	c0.048-0.024,0.088-0.048,0.136-0.072c0.008,0,0.016-0.008,0.016-0.008c0.04-0.016,0.088-0.048,0.128-0.064
	c0.008,0,0.016-0.008,0.016-0.008c0.048-0.024,0.088-0.048,0.128-0.064c0.008-0.008,0.024-0.008,0.032-0.016
	c0.04-0.016,0.08-0.04,0.12-0.064c0.008-0.008,0.016-0.008,0.024-0.016c0.04-0.016,0.072-0.04,0.112-0.056
	c0.016-0.008,0.024-0.016,0.04-0.024c0.024-0.016,0.04-0.024,0.064-0.032c0.016-0.008,0.024-0.016,0.04-0.024
	c0.032-0.016,0.072-0.04,0.104-0.056c0.016-0.008,0.032-0.016,0.048-0.024c0.032-0.016,0.056-0.032,0.088-0.048
	c0.016-0.008,0.032-0.016,0.048-0.024c0.04-0.016,0.064-0.032,0.104-0.056c0.016-0.008,0.024-0.016,0.04-0.024
	c0.032-0.016,0.064-0.032,0.096-0.048c0.016-0.008,0.032-0.016,0.048-0.024s0.048-0.024,0.064-0.032
	c0.024-0.016,0.056-0.032,0.08-0.04c0.016-0.008,0.04-0.024,0.056-0.032c0.032-0.016,0.056-0.032,0.088-0.048
	c0.016-0.008,0.04-0.024,0.056-0.032c0.024-0.016,0.048-0.024,0.072-0.04c0.024-0.016,0.04-0.024,0.064-0.032
	c0.024-0.016,0.048-0.024,0.072-0.04c0.024-0.016,0.048-0.024,0.072-0.04c0.024-0.008,0.04-0.024,0.064-0.032
	c0.016-0.008,0.048-0.024,0.072-0.04c0.024-0.016,0.048-0.024,0.072-0.04c0.016-0.008,0.032-0.016,0.048-0.024
	c0.032-0.016,0.064-0.032,0.088-0.048c0.016-0.008,0.032-0.016,0.048-0.024c0.032-0.016,0.064-0.032,0.096-0.048
	c0.016-0.008,0.032-0.016,0.048-0.024c0.032-0.016,0.064-0.032,0.096-0.048c0.016-0.008,0.024-0.016,0.048-0.024
	c0.032-0.016,0.064-0.032,0.088-0.048c0.016-0.008,0.032-0.016,0.048-0.024c0.032-0.016,0.056-0.032,0.088-0.048
	c0.016-0.008,0.032-0.016,0.048-0.024c0.032-0.016,0.056-0.032,0.088-0.048c0.016-0.008,0.024-0.016,0.04-0.024
	c0.032-0.016,0.064-0.04,0.104-0.056c0.016-0.008,0.024-0.008,0.04-0.024c0.032-0.016,0.064-0.04,0.104-0.056
	c0.016-0.008,0.024-0.016,0.04-0.024c0.032-0.016,0.072-0.04,0.104-0.056c0.016-0.008,0.024-0.016,0.04-0.024
	c0.032-0.016,0.072-0.04,0.104-0.056c0.016-0.008,0.024-0.008,0.032-0.016c0.032-0.016,0.072-0.04,0.104-0.056
	c0.008,0,0.024-0.016,0.032-0.016c0.032-0.016,0.064-0.032,0.096-0.056c0.008,0,0.032-0.016,0.032-0.016
	c0.032-0.016,0.072-0.04,0.104-0.056c0.016-0.008,0.016-0.008,0.032-0.016c0.032-0.016,0.072-0.04,0.104-0.056
	c0.016-0.008,0.024-0.016,0.032-0.016c0.032-0.016,0.072-0.04,0.104-0.056c0.016-0.008,0.024-0.008,0.032-0.016
	c0.032-0.016,0.072-0.04,0.104-0.056c0.008,0,0.024-0.016,0.032-0.016c0.04-0.024,0.072-0.04,0.112-0.064
	c0.008,0,0.016-0.008,0.024-0.008c0.04-0.024,0.072-0.04,0.112-0.064c0.016-0.008,0.008-0.008,0.024-0.016
	c0.04-0.024,0.072-0.04,0.112-0.064c0.008,0,0.016-0.008,0.024-0.016c0.04-0.024,0.072-0.04,0.112-0.064
	c0,0,0.024-0.016,0.032-0.016c0.04-0.024,0.072-0.04,0.112-0.064c0.016-0.008,0.016-0.008,0.024-0.016
	c0.04-0.024,0.072-0.04,0.112-0.064c0.008,0,0.024-0.016,0.032-0.016c0.04-0.024,0.072-0.04,0.112-0.064
	c0.016-0.008,0.016-0.008,0.024-0.016c0.04-0.024,0.08-0.04,0.112-0.064c0.008,0,0.016-0.008,0.024-0.008
	c0.04-0.024,0.072-0.04,0.112-0.064c0.008,0,0.008,0,0.016-0.008c0.04-0.024,0.08-0.048,0.12-0.072l0.016-0.008
	c0.04-0.024,0.08-0.048,0.12-0.064c0.008,0,0.016-0.008,0.016-0.008c0.048-0.024,0.08-0.048,0.12-0.072
	c0.016-0.008,0.008-0.008,0.024-0.016c0.04-0.024,0.08-0.04,0.112-0.064c0.008,0,0.016-0.008,0.024-0.016
	c0.04-0.024,0.08-0.04,0.12-0.064c0.008,0,0.008-0.008,0.016-0.008c0.04-0.024,0.08-0.048,0.12-0.072l0.008-0.008
	c0.04-0.024,0.08-0.04,0.112-0.064c0.008,0,0.016-0.008,0.024-0.008c0.04-0.024,0.08-0.048,0.12-0.064
	c0.008,0,0.016-0.008,0.024-0.008c0.04-0.024,0.08-0.04,0.112-0.064c0.008,0,0.016-0.008,0.024-0.016
	c0.04-0.024,0.08-0.04,0.112-0.064c0.008,0,0.016-0.008,0.024-0.016c0.04-0.024,0.08-0.04,0.112-0.064
	c0.008,0,0.016-0.008,0.024-0.016c0.04-0.024,0.08-0.048,0.12-0.064c0.008,0,0.008-0.008,0.016-0.008
	c0.04-0.024,0.08-0.04,0.112-0.064c0.008,0,0.008-0.008,0.016-0.008c0.04-0.024,0.08-0.048,0.12-0.072
	c0.008,0,0.016-0.008,0.016-0.008c0.04-0.024,0.072-0.04,0.112-0.064c0.008,0,0.024-0.008,0.024-0.016
	c0.04-0.024,0.072-0.04,0.112-0.064c0.016-0.008,0.016-0.008,0.024-0.016c0.04-0.024,0.072-0.04,0.112-0.064
	c0.008,0,0.016-0.008,0.024-0.016c0.04-0.024,0.08-0.048,0.12-0.064l0.016-0.008c0.04-0.024,0.08-0.048,0.12-0.072
	c0.008,0,0.008,0,0.016-0.008c0.04-0.024,0.08-0.048,0.12-0.064c0,0,0.008,0,0.016-0.008c0.04-0.024,0.08-0.048,0.12-0.064
	c0.008,0,0.016-0.008,0.024-0.016c0.04-0.024,0.072-0.04,0.112-0.064c0.008,0,0.016-0.008,0.024-0.016
	c0.04-0.024,0.072-0.04,0.112-0.064c0.016-0.008,0.016-0.008,0.024-0.016c0.04-0.024,0.072-0.04,0.112-0.064
	c0.008,0,0.016-0.008,0.016-0.008c0.04-0.024,0.08-0.048,0.12-0.072c0,0,0.008-0.008,0.016-0.008c0.04-0.024,0.08-0.048,0.12-0.072
	l0,0c0.04-0.024,0.08-0.048,0.128-0.072c0.008,0,0.008-0.008,0.016-0.008c0.04-0.024,0.08-0.048,0.12-0.072
	c0.008,0,0.016-0.008,0.016-0.008c0.04-0.024,0.08-0.048,0.112-0.064c0.016-0.008,0.008-0.008,0.024-0.016
	c0.04-0.024,0.072-0.048,0.112-0.064c0.008,0,0.016-0.008,0.024-0.016c0.04-0.024,0.08-0.048,0.112-0.064
	c0.016-0.008,0.008-0.008,0.016-0.008c0.04-0.024,0.08-0.048,0.12-0.072h0.008c0.04-0.024,0.08-0.048,0.12-0.072c0.008,0,0,0,0,0
	c0.048-0.024,0.088-0.048,0.128-0.072c0.008,0,0.008-0.008,0.016-0.008c0.04-0.024,0.08-0.048,0.12-0.072
	c0.008,0,0.016-0.008,0.016-0.008c0.04-0.024,0.08-0.048,0.12-0.072c0.008,0,0.008-0.008,0.016-0.008
	c0.04-0.024,0.08-0.048,0.12-0.072c0.008,0,0.008-0.008,0.016-0.008c0.04-0.024,0.08-0.048,0.12-0.072
	c0.008,0,0.008-0.008,0.016-0.008c0.04-0.024,0.08-0.048,0.12-0.072l0.008-0.008c0.04-0.024,0.08-0.048,0.12-0.072
	c0.008,0,0.008-0.008,0.016-0.008c0.04-0.024,0.08-0.048,0.12-0.072c0.008,0,0.016-0.008,0.016-0.008
	c0.048-0.024,0.08-0.048,0.12-0.072c0.008,0,0.016-0.008,0.016-0.008c0.04-0.024,0.08-0.048,0.12-0.072
	c0.008,0,0.016-0.008,0.024-0.016c0.04-0.024,0.08-0.048,0.112-0.072l0.016-0.008c0.04-0.024,0.08-0.048,0.12-0.072
	c0.008,0,0.008-0.008,0.016-0.008c0.04-0.024,0.072-0.04,0.112-0.064c0.008,0,0.008-0.008,0.016-0.008
	c0.04-0.024,0.072-0.04,0.112-0.064c0.016-0.008,0.016-0.008,0.032-0.016c0.032-0.024,0.072-0.04,0.104-0.064
	c0.008,0,0.024-0.016,0.032-0.016c0.032-0.024,0.072-0.04,0.104-0.064c0.016-0.008,0.016-0.008,0.032-0.016
	c0.04-0.024,0.072-0.04,0.104-0.064c0.008,0,0.024-0.016,0.024-0.016c0.04-0.024,0.072-0.048,0.112-0.064l0.024-0.016
	c0.04-0.024,0.072-0.048,0.112-0.072l0.008-0.008c0.04-0.024,0.08-0.048,0.12-0.072c0.008,0,0.008-0.008,0.016-0.008
	c0.04-0.024,0.08-0.048,0.112-0.072c0.008,0,0.016-0.008,0.024-0.016c0.032-0.024,0.072-0.04,0.104-0.064
	c0.008-0.008,0.016-0.008,0.032-0.016c0.032-0.024,0.072-0.04,0.104-0.064c0.008,0,0.024-0.016,0.032-0.016
	c0.04-0.024,0.072-0.048,0.112-0.064c0.008-0.008,0.016-0.008,0.024-0.016c0.04-0.024,0.072-0.048,0.112-0.064
	c0.008,0,0.016-0.008,0.024-0.016c0.032-0.016,0.064-0.04,0.096-0.056c0.008,0,0.024-0.016,0.032-0.016
	c0.032-0.024,0.064-0.04,0.096-0.064c0.008-0.008,0.024-0.016,0.032-0.024c0.032-0.024,0.072-0.04,0.104-0.064
	c0.016-0.008,0.024-0.016,0.032-0.024c0.032-0.024,0.064-0.04,0.104-0.064c0.008-0.008,0.024-0.016,0.04-0.024
	c0.032-0.024,0.064-0.04,0.096-0.056c0.016-0.008,0.024-0.016,0.04-0.024c0.032-0.024,0.064-0.04,0.096-0.064
	c0.008-0.008,0.024-0.016,0.032-0.024c0.032-0.016,0.056-0.032,0.088-0.056c0.008-0.008,0.032-0.016,0.04-0.024
	c0.032-0.016,0.064-0.04,0.088-0.056c0.008-0.008,0.016-0.008,0.032-0.016c0.032-0.024,0.064-0.04,0.096-0.064
	c0.008-0.008,0.024-0.016,0.04-0.024c0.032-0.024,0.064-0.04,0.096-0.056c0.008-0.008,0.024-0.016,0.04-0.024
	c0.032-0.024,0.064-0.04,0.096-0.056c0.008-0.008,0.024-0.016,0.04-0.024c0.032-0.024,0.064-0.04,0.104-0.064
	c0.008-0.008,0.024-0.016,0.032-0.024c0.032-0.016,0.056-0.04,0.088-0.056c0.016-0.008,0.032-0.024,0.048-0.032
	c0.024-0.016,0.048-0.032,0.072-0.048c0.016-0.008,0.04-0.024,0.056-0.032c0.024-0.016,0.048-0.032,0.072-0.048
	c0.016-0.008,0.032-0.016,0.048-0.032c0.032-0.016,0.056-0.04,0.088-0.056c0.016-0.008,0.024-0.016,0.04-0.024
	c0.032-0.016,0.056-0.04,0.088-0.056c0.008-0.008,0.04-0.024,0.048-0.032c0.032-0.016,0.056-0.04,0.088-0.056
	c0.016-0.008,0.032-0.016,0.048-0.032c0.024-0.016,0.056-0.032,0.08-0.048c0.016-0.008,0.04-0.024,0.056-0.032
	c0.024-0.016,0.048-0.032,0.072-0.04c0.024-0.016,0.04-0.024,0.064-0.04c0.024-0.016,0.04-0.024,0.064-0.04
	c0.024-0.016,0.048-0.032,0.072-0.04c0.024-0.016,0.04-0.024,0.064-0.04c0.016-0.008,0.032-0.024,0.048-0.032
	c0.032-0.016,0.056-0.032,0.088-0.056c0.016-0.008,0.032-0.024,0.056-0.032c0.032-0.016,0.056-0.032,0.08-0.056
	c0.016-0.008,0.032-0.024,0.048-0.032c0.032-0.016,0.056-0.04,0.088-0.056c0.016-0.008,0.032-0.024,0.048-0.032
	c0.024-0.016,0.04-0.024,0.064-0.04c0.024-0.016,0.048-0.032,0.072-0.048c0.016-0.008,0.04-0.024,0.056-0.032
	c0.024-0.016,0.056-0.032,0.08-0.048c0.016-0.016,0.04-0.024,0.056-0.04c0.024-0.016,0.048-0.032,0.072-0.048s0.04-0.024,0.064-0.04
	c0.016-0.008,0.032-0.024,0.056-0.032c0.024-0.016,0.056-0.032,0.08-0.056c0.024-0.016,0.032-0.024,0.056-0.032
	c0.024-0.016,0.056-0.032,0.08-0.048c0.016-0.008,0.04-0.024,0.056-0.032c0.024-0.016,0.04-0.024,0.056-0.04
	c0.024-0.016,0.056-0.032,0.08-0.048c0.016-0.008,0.032-0.024,0.048-0.032c0.032-0.016,0.056-0.04,0.088-0.056
	c0.016-0.008,0.032-0.024,0.048-0.032c0.032-0.016,0.056-0.04,0.088-0.056c0.016-0.008,0.032-0.016,0.04-0.032
	c0.032-0.016,0.056-0.04,0.088-0.056c0.016-0.008,0.032-0.024,0.048-0.032c0.072-0.048,0.128-0.08,0.2-0.128
	c0.008-0.008,0.024-0.016,0.032-0.024c0.032-0.016,0.072-0.048,0.096-0.064c0.008-0.008,0.024-0.016,0.032-0.024
	c0.032-0.024,0.072-0.048,0.104-0.072c0.008-0.008,0.024-0.016,0.032-0.024c0.032-0.024,0.072-0.048,0.104-0.072
	c0.008-0.008,0.016-0.016,0.032-0.016c0.032-0.024,0.072-0.048,0.104-0.072c0.008-0.008,0.024-0.016,0.032-0.024
	c0.04-0.024,0.072-0.048,0.112-0.072c0.008-0.008,0.016-0.008,0.024-0.016c0.072-0.048,0.136-0.088,0.208-0.136
	c0.008,0,0.008-0.008,0.016-0.008c0.04-0.024,0.08-0.056,0.12-0.08c0.008-0.008,0.016-0.008,0.024-0.016
	c0.032-0.024,0.08-0.048,0.112-0.072c0.008-0.008,0.016-0.008,0.024-0.016c0.032-0.024,0.08-0.056,0.12-0.08
	c0.008,0,0.008-0.008,0.016-0.008c0.048-0.032,0.088-0.056,0.136-0.088l0,0c1.568-1.04,3.136-2.096,4.68-3.176L365.656,413.632
	L365.656,413.632z M413.872,365.304c-6.504,9.368-13.888,18.224-21.96,26.312l22.656,22.6l0,0c0.032-0.032,0.064-0.064,0.104-0.104
	c0.008-0.008,0.008-0.008,0.016-0.016c0.032-0.032,0.064-0.064,0.096-0.096c0.008-0.008,0.016-0.016,0.016-0.016
	c0.032-0.032,0.064-0.064,0.088-0.096c0.008-0.008,0.016-0.016,0.024-0.024c0.032-0.032,0.056-0.056,0.088-0.088
	c0.008-0.008,0.016-0.016,0.032-0.032c0.032-0.032,0.056-0.056,0.088-0.088c0.008-0.008,0.016-0.016,0.024-0.024
	c0.032-0.032,0.056-0.056,0.088-0.088c0.008-0.008,0.016-0.016,0.024-0.024c0.024-0.024,0.056-0.056,0.08-0.08
	c0.008-0.008,0.016-0.016,0.024-0.024c0.024-0.024,0.048-0.048,0.072-0.072c0.016-0.016,0.024-0.024,0.04-0.04
	c0.024-0.024,0.048-0.048,0.072-0.072c0.016-0.016,0.016-0.016,0.032-0.032c0.024-0.024,0.048-0.056,0.08-0.08
	c0.008-0.008,0.024-0.032,0.04-0.04c0.024-0.024,0.048-0.048,0.072-0.072c0.008-0.008,0.032-0.032,0.04-0.04
	c0.024-0.024,0.048-0.048,0.072-0.072c0.016-0.016,0.032-0.032,0.048-0.048s0.032-0.032,0.048-0.048
	c0.024-0.024,0.04-0.04,0.064-0.064c0.016-0.016,0.024-0.024,0.04-0.04c0.024-0.024,0.048-0.056,0.072-0.08
	c0.008-0.008,0.024-0.024,0.032-0.032c0.024-0.024,0.048-0.048,0.072-0.072c0.016-0.016,0.024-0.024,0.04-0.04
	c0.024-0.024,0.056-0.056,0.08-0.08c0.008-0.008,0.016-0.024,0.032-0.032c0.096-0.104,0.184-0.192,0.288-0.296
	c0,0,0.008-0.008,0.016-0.016c0.032-0.032,0.072-0.072,0.104-0.104l0.008-0.008c0.04-0.04,0.064-0.072,0.104-0.112
	c0.008-0.008,0.008-0.008,0.016-0.016c0.04-0.04,0.064-0.072,0.104-0.112l0.008-0.008c8.44-8.728,16.184-18.144,23.12-28.152
	L413.872,365.304L413.872,365.304z M442.144,303.28c-2.792,11.04-6.608,21.896-11.336,32.264l29.12,13.272
	c2.264-4.96,4.344-10.016,6.248-15.16l0,0c0.088-0.24,0.176-0.48,0.264-0.72l0,0c0.104-0.296,0.216-0.584,0.32-0.88v-0.008
	c0.088-0.24,0.176-0.48,0.256-0.72v-0.008c0.016-0.056,0.032-0.104,0.056-0.152v-0.008c0.048-0.136,0.096-0.264,0.144-0.4l0,0
	c0.016-0.056,0.04-0.104,0.056-0.16v-0.008c0.016-0.056,0.032-0.096,0.056-0.152c0-0.008,0-0.008,0-0.008
	c0.024-0.056,0.032-0.104,0.056-0.152v-0.008c0.048-0.136,0.096-0.264,0.144-0.4l0,0c0.016-0.056,0.032-0.104,0.056-0.152
	l0.008-0.016c0.016-0.048,0.032-0.096,0.048-0.144c0-0.008,0.008-0.008,0.008-0.016c0.016-0.048,0.032-0.096,0.048-0.144
	c0-0.008,0.008-0.016,0.008-0.016c0.032-0.088,0.056-0.16,0.088-0.24v-0.008c0.016-0.056,0.032-0.096,0.048-0.152
	c0-0.008,0.008-0.016,0.008-0.024c0.016-0.04,0.032-0.088,0.048-0.128c0-0.008,0.008-0.024,0.008-0.032
	c0.016-0.04,0.032-0.088,0.048-0.128c0-0.008,0.008-0.016,0.008-0.024c0.016-0.048,0.032-0.088,0.048-0.136
	c0-0.008,0.008-0.016,0.008-0.024c0.024-0.08,0.056-0.152,0.08-0.232c0-0.008,0.008-0.016,0.008-0.024
	c0.016-0.04,0.032-0.088,0.048-0.128c0-0.008,0.008-0.016,0.008-0.032c0.016-0.04,0.032-0.088,0.04-0.128
	c0-0.008,0.008-0.024,0.008-0.032c0.016-0.04,0.024-0.072,0.04-0.12c0.008-0.016,0.008-0.024,0.016-0.04
	c0.016-0.04,0.024-0.08,0.04-0.12c0-0.008,0.008-0.024,0.008-0.032c0.008-0.024,0.016-0.048,0.024-0.072
	c0-0.008,0.008-0.016,0.008-0.024c0.016-0.048,0.024-0.08,0.04-0.128c0.008-0.016,0.008-0.024,0.016-0.04
	c0.016-0.04,0.024-0.08,0.04-0.12c0.008-0.016,0.008-0.024,0.016-0.04c0.016-0.04,0.024-0.08,0.04-0.12
	c0.008-0.016,0.008-0.024,0.016-0.04c0.016-0.04,0.024-0.08,0.04-0.12c0-0.008,0.008-0.024,0.008-0.032
	c0.016-0.048,0.032-0.088,0.048-0.136c0-0.008,0.008-0.016,0.008-0.024c0.008-0.024,0.016-0.048,0.024-0.072
	c0.008-0.016,0.008-0.032,0.016-0.04c0.008-0.032,0.024-0.08,0.04-0.112c0.008-0.016,0.008-0.024,0.016-0.04
	c0.016-0.04,0.024-0.08,0.04-0.12c0-0.008,0.008-0.024,0.008-0.032c0.016-0.04,0.032-0.088,0.04-0.128
	c0-0.008,0.008-0.016,0.008-0.032c0.016-0.048,0.032-0.088,0.04-0.136c0-0.008,0.008-0.016,0.008-0.024
	c0.008-0.024,0.016-0.048,0.024-0.08c0-0.008,0.008-0.016,0.008-0.024c0.016-0.048,0.032-0.088,0.048-0.136
	c0-0.008,0.008-0.016,0.008-0.032c0.016-0.04,0.032-0.088,0.04-0.128c0.008-0.016,0.008-0.024,0.016-0.04
	c0.016-0.04,0.024-0.072,0.04-0.112c0.008-0.016,0.008-0.032,0.016-0.048c0.008-0.032,0.024-0.072,0.032-0.104
	c0.008-0.016,0.016-0.04,0.016-0.056c0.008-0.024,0.016-0.056,0.024-0.08s0.016-0.048,0.024-0.072s0.016-0.048,0.024-0.072
	c0.008-0.016,0.016-0.04,0.016-0.056c0.008-0.024,0.024-0.072,0.032-0.096c0.008-0.016,0.008-0.032,0.016-0.048
	c0.008-0.032,0.024-0.08,0.04-0.112c0.008-0.016,0.008-0.032,0.016-0.048c0.008-0.032,0.024-0.072,0.032-0.104
	c0.008-0.016,0.008-0.032,0.016-0.048c0.008-0.032,0.024-0.072,0.032-0.104c0.008-0.016,0.008-0.032,0.016-0.048
	c0.008-0.024,0.016-0.04,0.024-0.072c0.008-0.032,0.016-0.056,0.024-0.088c0.008-0.024,0.016-0.04,0.024-0.072
	c0.008-0.024,0.016-0.04,0.016-0.064c0.008-0.024,0.016-0.064,0.032-0.088c0.008-0.024,0.016-0.04,0.024-0.064
	c0.008-0.032,0.016-0.064,0.032-0.096c0.008-0.016,0.008-0.04,0.016-0.056c0.008-0.032,0.016-0.056,0.032-0.096
	c0.008-0.024,0.016-0.048,0.024-0.064c0.008-0.024,0.016-0.048,0.024-0.064c0.008-0.032,0.016-0.064,0.032-0.088
	c0.008-0.024,0.008-0.04,0.024-0.064c0.008-0.032,0.016-0.064,0.032-0.088c0.008-0.024,0.016-0.04,0.024-0.064
	s0.016-0.048,0.024-0.072s0.016-0.056,0.024-0.08s0.016-0.048,0.024-0.072s0.016-0.056,0.024-0.08s0.016-0.048,0.024-0.072
	s0.016-0.048,0.024-0.072s0.016-0.056,0.024-0.08s0.008-0.04,0.016-0.056c0.008-0.032,0.024-0.064,0.032-0.104
	c0.008-0.016,0.016-0.04,0.016-0.056c0.008-0.032,0.024-0.064,0.032-0.096c0.008-0.024,0.008-0.04,0.016-0.056
	c0.008-0.024,0.016-0.048,0.024-0.072s0.016-0.056,0.024-0.08s0.016-0.04,0.016-0.064c0.008-0.032,0.016-0.056,0.024-0.088
	c0.008-0.024,0.016-0.048,0.024-0.064c0.008-0.024,0.016-0.04,0.016-0.064c0.008-0.032,0.016-0.056,0.024-0.088
	c0.008-0.024,0.016-0.04,0.016-0.064c0.008-0.032,0.016-0.064,0.032-0.096c0.008-0.024,0.008-0.04,0.016-0.056
	c0.008-0.032,0.016-0.056,0.024-0.088c0.008-0.024,0.016-0.04,0.024-0.072c0.008-0.024,0.016-0.056,0.024-0.08
	s0.016-0.04,0.024-0.072c0.008-0.024,0.016-0.056,0.024-0.08s0.016-0.048,0.024-0.064c0.008-0.032,0.016-0.056,0.024-0.088
	c0.008-0.024,0.008-0.04,0.016-0.056c0.008-0.032,0.016-0.064,0.032-0.096c0.008-0.024,0.008-0.032,0.016-0.064
	c0.008-0.032,0.016-0.064,0.032-0.096c0.008-0.024,0.008-0.032,0.016-0.056c0.008-0.032,0.016-0.056,0.024-0.088
	c0.008-0.024,0.016-0.048,0.024-0.064c0.008-0.024,0.016-0.048,0.024-0.08c0.008-0.024,0.016-0.048,0.024-0.072
	s0.016-0.056,0.024-0.08s0.008-0.04,0.016-0.056c0.008-0.032,0.016-0.064,0.032-0.096c0.008-0.016,0.008-0.04,0.016-0.048
	c0.008-0.032,0.024-0.072,0.032-0.104c0.008-0.016,0.008-0.032,0.016-0.048c0.008-0.032,0.024-0.072,0.032-0.104
	c0.008-0.024,0.008-0.032,0.016-0.048c0.008-0.032,0.016-0.056,0.024-0.088c0.008-0.024,0.016-0.04,0.016-0.064
	c0.008-0.032,0.016-0.056,0.024-0.088c0.008-0.024,0.008-0.032,0.016-0.056c0.008-0.032,0.016-0.064,0.032-0.096
	c0.008-0.024,0.008-0.024,0.016-0.048c0.008-0.032,0.024-0.072,0.032-0.104c0.008-0.016,0.008-0.04,0.016-0.048
	c0.008-0.04,0.024-0.072,0.032-0.104c0.008-0.024,0.008-0.024,0.016-0.048c0.008-0.04,0.024-0.072,0.032-0.112
	c0.008-0.016,0.008-0.024,0.008-0.04c0.008-0.032,0.016-0.064,0.032-0.104c0.008-0.016,0.008-0.032,0.016-0.04
	c0.008-0.04,0.024-0.072,0.032-0.112c0-0.016,0.008-0.016,0.008-0.032c0.008-0.04,0.024-0.08,0.032-0.12
	c0.008-0.016,0.008-0.024,0.008-0.04c0.008-0.04,0.024-0.08,0.032-0.112c0.008-0.016,0.008-0.024,0.008-0.04
	c0.008-0.04,0.024-0.08,0.032-0.12c0-0.008,0.008-0.024,0.008-0.024c0.016-0.048,0.024-0.088,0.04-0.136
	c0-0.008,0-0.008,0.008-0.016c0.008-0.04,0.024-0.08,0.032-0.12c0-0.008,0.008-0.016,0.008-0.016
	c0.016-0.048,0.024-0.096,0.04-0.136c0,0,0.008-0.016,0.008-0.024c0.008-0.04,0.024-0.08,0.032-0.128
	c0.008-0.016,0.008-0.016,0.008-0.032c0.008-0.04,0.024-0.088,0.032-0.128c0-0.008,0.008-0.016,0.008-0.024
	c0.016-0.04,0.024-0.088,0.04-0.128c0-0.016,0-0.008,0.008-0.024c0.016-0.04,0.024-0.088,0.04-0.128c0-0.008,0-0.008,0-0.016
	c0.016-0.04,0.024-0.088,0.04-0.128c0-0.008,0.008-0.016,0.008-0.024c0.016-0.04,0.024-0.088,0.04-0.128
	c0-0.008,0.008-0.016,0.008-0.024c0.008-0.04,0.024-0.088,0.04-0.128c0-0.016,0.008-0.016,0.008-0.032
	c0.008-0.04,0.024-0.08,0.032-0.128c0-0.008,0.008-0.016,0.008-0.024c0.016-0.048,0.024-0.088,0.04-0.136
	c0-0.008,0-0.008,0.008-0.016c0.016-0.048,0.024-0.096,0.04-0.136l0,0c0.016-0.048,0.024-0.096,0.04-0.136l0.008-0.016
	c0.016-0.048,0.024-0.088,0.04-0.136c0-0.008,0.008-0.016,0.008-0.024c0.016-0.048,0.024-0.088,0.04-0.128
	c0-0.008,0.008-0.016,0.008-0.024c0.016-0.048,0.024-0.088,0.04-0.136L472,315.544c0.016-0.048,0.024-0.096,0.04-0.144l0,0
	c0.016-0.048,0.024-0.096,0.04-0.144c0-0.008,0,0,0-0.008c0.016-0.048,0.024-0.096,0.04-0.144v-0.008
	c0.016-0.048,0.024-0.096,0.04-0.144v-0.008c0.016-0.048,0.024-0.096,0.04-0.144c0-0.008,0,0,0,0
	c0.056-0.208,0.112-0.408,0.16-0.608c0-0.008,0,0.008,0,0c0.272-1.016,0.536-2.032,0.792-3.048L442.144,303.28L442.144,303.28z
	 M478.704,231.744l-31.816,3.424C447.624,242.032,448,249.04,448,256c0,4.488-0.16,9.024-0.464,13.48l31.92,2.208
	c0.168-2.448,0.296-4.92,0.392-7.384l0,0c0.008-0.12,0.008-0.232,0.016-0.352v-0.008c0-0.088,0.008-0.176,0.008-0.264l0,0
	c0-0.032,0-0.048,0-0.08c0-0.008,0-0.016,0-0.024c0-0.08,0.008-0.168,0.008-0.248c0-0.008,0-0.008,0-0.016c0-0.032,0-0.048,0-0.08
	c0-0.008,0-0.016,0-0.024c0-0.072,0.008-0.16,0.008-0.24c0-0.008,0-0.016,0-0.024c0-0.032,0-0.048,0-0.08c0-0.008,0-0.016,0-0.016
	c0-0.048,0-0.104,0.008-0.152c0-0.008,0-0.016,0-0.024c0-0.024,0-0.048,0-0.072c0-0.008,0-0.024,0-0.032c0-0.024,0-0.04,0-0.064
	c0-0.008,0-0.024,0-0.032c0-0.048,0-0.088,0-0.128c0-0.008,0-0.024,0-0.032c0-0.024,0-0.04,0-0.064c0-0.016,0-0.024,0-0.04
	c0-0.024,0-0.04,0-0.064s0-0.04,0-0.064c0-0.032,0-0.056,0-0.088c0-0.016,0-0.032,0-0.04c0-0.016,0-0.048,0-0.064s0-0.032,0-0.048
	s0-0.04,0-0.048c0-0.032,0-0.064,0-0.096c0-0.024,0-0.032,0-0.056c0-0.016,0-0.032,0-0.056c0-0.016,0-0.04,0-0.056s0-0.04,0-0.056
	c0-0.032,0-0.056,0-0.088c0-0.016,0-0.04,0-0.056c0-0.024,0-0.032,0-0.056c0-0.016,0-0.032,0-0.056s0-0.032,0-0.056s0-0.056,0-0.08
	s0-0.04,0-0.064s0-0.04,0-0.064c0-0.016,0-0.04,0-0.056s0-0.04,0-0.056s0-0.04,0-0.056c0-0.032,0-0.064,0-0.096
	c0-0.016,0-0.032,0-0.048c0-0.024,0-0.04,0-0.064c0-0.016,0-0.032,0-0.048c0-0.024,0-0.04,0-0.064c0-0.016,0-0.032,0-0.048
	c0-0.032,0-0.072,0-0.104c0-0.008,0-0.032,0-0.04c0-0.024,0-0.048,0-0.072c0-0.016,0-0.032,0-0.048c0-0.024,0-0.048,0-0.072
	s0-0.048,0-0.064c0-0.024,0-0.048,0-0.072c0-0.016,0-0.032,0-0.048c0-0.024,0-0.04,0-0.064c0-0.008,0-0.032,0-0.04
	c0-0.032,0-0.064,0-0.096c0-0.008,0-0.024,0-0.032c0-0.024,0-0.056,0-0.08c0-0.016,0-0.024,0-0.04c0-0.024,0-0.048,0-0.08
	c0-0.016,0-0.024,0-0.032c0-0.032,0-0.072,0-0.104c0-0.016,0-0.016,0-0.032c0-0.024,0-0.048,0-0.072c0-0.016,0-0.024,0-0.04
	c0-0.024,0-0.056,0-0.08c0-0.008,0-0.016,0-0.024c0-0.032,0-0.072,0-0.104c0-0.016,0-0.024,0-0.032c0-0.024,0-0.056,0-0.08
	c0-0.008,0-0.024,0-0.032c0-0.032,0-0.064,0-0.104v-0.008c0-0.032,0-0.072,0-0.104c0-0.008,0-0.024,0-0.032c0-0.024,0-0.056,0-0.08
	c0-0.008,0-0.024,0-0.032c0-0.032,0-0.072,0-0.104c0-0.008,0-0.008,0-0.016c0-0.032,0-0.064,0-0.088c0-0.016,0-0.024,0-0.04
	c0-0.024,0-0.056,0-0.08c0-0.016,0-0.016,0-0.032c0-0.032,0-0.072,0-0.104c0-0.016,0-0.016,0-0.032c0-0.024,0-0.056,0-0.08
	c0-0.016,0-0.024,0-0.032c0-0.032,0-0.056,0-0.088c0-0.008,0-0.016,0-0.024c0-0.04,0-0.072,0-0.112c0-0.008,0-0.024,0-0.024
	c0-0.024,0-0.056,0-0.08c0-0.008,0-0.024,0-0.032c0-0.032,0-0.072,0-0.104v-0.04c0-0.04,0-0.072,0-0.112c0-0.008,0-0.024,0-0.032
	c0-0.032,0-0.056,0-0.088c0-0.008,0-0.024,0-0.032c0-0.032,0-0.072,0-0.104c0-0.008,0-0.024,0-0.032c0-0.032,0-0.056,0-0.08
	c0-0.016,0-0.016,0-0.032c0-0.032,0-0.056,0-0.088c0-0.016,0-0.016,0-0.024c0-0.04,0-0.072,0-0.112c0-0.016,0-0.008,0-0.024
	c0-0.032,0-0.056,0-0.088c0-0.016,0-0.024,0-0.04c0-0.032,0-0.064,0-0.088c0-0.008,0-0.008,0-0.016c0-0.04,0-0.072,0-0.112
	c0-0.008,0-0.024,0-0.032c0-0.032,0-0.056,0-0.088c0-0.008,0-0.024,0-0.032c0-0.04,0-0.072,0-0.112l0,0c0-0.032,0-0.064,0-0.096
	c0-0.008,0-0.024,0-0.024c0-0.032,0-0.048,0-0.072c0-0.016,0-0.016,0-0.032c0-0.024,0-0.04,0-0.064c0-0.016,0-0.024,0-0.04
	c0-0.016,0-0.04,0-0.056c0-0.024,0-0.024,0-0.048c0-0.016,0-0.032,0-0.048s0-0.032,0-0.048s0-0.032,0-0.048s0-0.032,0-0.048
	s0-0.032,0-0.048s0-0.032,0-0.048s0-0.032,0-0.048s0-0.032,0-0.048s0-0.032,0-0.048s0-0.032,0-0.048s0-0.032,0-0.048
	s0-0.032,0-0.048s0-0.032,0-0.048s0-0.032,0-0.048s0-0.032,0-0.048c0-0.024,0-0.024,0-0.048c0-0.016,0-0.032,0-0.048
	c0-0.024,0-0.024,0-0.048c0-0.016,0-0.032,0-0.048s0-0.032,0-0.048s0-0.032,0-0.056c0-0.016,0-0.024,0-0.04c0-0.016,0-0.032,0-0.048
	c0-0.024,0-0.048,0-0.064c0-0.024,0-0.048,0-0.072v-0.008c0-0.024,0-0.056,0-0.08c0-0.016,0-0.024,0-0.032c0-0.024,0-0.04,0-0.056
	s0-0.024,0-0.032c0-0.016,0-0.04,0-0.056s0-0.024,0-0.04c0-0.016,0-0.04,0-0.056c0-0.008,0-0.032,0-0.04c0-0.016,0-0.04,0-0.056
	c0-0.008,0-0.032,0-0.032c0-0.016,0-0.04,0-0.056s0-0.024,0-0.04c0-0.016,0-0.032,0-0.048s0-0.032,0-0.048s0-0.032,0-0.048
	s0-0.024,0-0.04c0-0.016,0-0.04,0-0.056s0-0.024,0-0.04c0-0.016,0-0.04,0-0.056c0-0.008,0-0.024,0-0.032c0-0.016,0-0.04,0-0.056
	c0-0.008,0-0.032,0-0.04c0-0.024,0-0.04,0-0.056c0-0.008,0-0.024,0-0.032c0-0.024,0-0.048,0-0.064c0-0.008,0-0.016,0-0.024
	c0-0.024,0-0.048,0-0.072c0-0.008,0-0.016,0-0.024c0-0.024,0-0.04,0-0.064c0-0.008,0-0.024,0-0.032c0-0.032,0-0.056,0-0.088l0,0
	c0-0.064,0-0.128,0-0.192c0-0.008,0-0.008,0-0.016c0-0.024,0-0.048,0-0.08c0-0.008,0-0.016,0-0.024c0-0.024,0-0.048,0-0.072
	c0-0.008,0-0.016,0-0.024c0-0.024,0-0.048,0-0.072c0-0.008,0-0.016,0-0.024c0-0.024,0-0.04,0-0.064c0-0.008,0-0.024,0-0.032
	c0-0.016,0-0.04,0-0.064c0-0.016,0-0.024,0-0.032c0-0.024,0-0.04,0-0.056s0-0.016,0-0.032c0-0.024,0-0.04,0-0.064
	c0-0.016,0-0.024,0-0.032c0-0.016,0-0.04,0-0.056s0-0.016,0-0.032c0-0.024,0-0.04,0-0.064c0-0.008,0-0.024,0-0.032
	c0-0.024,0-0.048,0-0.064c0-0.008,0-0.016,0-0.024c0-0.024,0-0.048,0-0.08v-0.016c0-0.024,0-0.056,0-0.08v-0.016
	c0-0.024,0-0.048,0-0.072c0-0.008,0-0.016,0-0.024c0-0.128-0.008-0.248-0.008-0.376c0-0.008,0,0,0-0.008c0-0.032,0-0.056,0-0.088
	v-0.008c0-0.024,0-0.056,0-0.08c0-0.008,0-0.016,0-0.024c0-0.024,0-0.048,0-0.072c0-0.008,0-0.016,0-0.024c0-0.024,0-0.048,0-0.072
	c0-0.008,0-0.016,0-0.024c0-0.024,0-0.048,0-0.072c0-0.008,0-0.008,0-0.016c0-0.024,0-0.048,0-0.072c0-0.008,0-0.016,0-0.024
	c0-0.024,0-0.048,0-0.072c0-0.008,0-0.016,0-0.024c0-0.024,0-0.048,0-0.072c0-0.008,0-0.008,0-0.016c0-0.024,0-0.056,0-0.08
	c0-0.008,0-0.008,0-0.016c0-0.024,0-0.048,0-0.072c0-0.008,0-0.016,0-0.016c0-0.024,0-0.056,0-0.08v-0.016c0-0.032,0-0.056,0-0.088
	l0,0c-0.008-0.224-0.016-0.44-0.016-0.664v-0.008c0-0.032,0-0.056,0-0.088c0-0.008,0,0,0-0.008c0-0.032,0-0.056,0-0.088
	c0-0.008,0,0,0-0.008c0-0.032,0-0.056,0-0.088v-0.008c0-0.064,0-0.12-0.008-0.184v-0.008c0-0.032,0-0.064,0-0.088
	c0-0.008,0,0.008,0,0C479.696,242.944,479.304,237.312,478.704,231.744L478.704,231.744z M456.2,155.416l-28.584,14.392
	c5.128,10.184,9.36,20.888,12.576,31.808l30.696-9.048c-1.096-3.712-2.28-7.376-3.552-11v-0.008c-0.064-0.192-0.136-0.376-0.2-0.568
	l0,0c-0.016-0.056-0.04-0.104-0.056-0.16v-0.008c-0.016-0.056-0.04-0.104-0.056-0.16l0,0c-0.048-0.136-0.096-0.264-0.144-0.4
	c0-0.008-0.008-0.016-0.008-0.024c-0.016-0.048-0.032-0.088-0.048-0.128c0-0.008-0.008-0.016-0.008-0.024
	c-0.016-0.04-0.032-0.096-0.048-0.136c0-0.008-0.008-0.016-0.008-0.024c-0.016-0.04-0.032-0.088-0.048-0.128
	c0-0.008-0.008-0.016-0.008-0.024c-0.016-0.04-0.032-0.08-0.04-0.12c-0.008-0.016-0.008-0.024-0.016-0.04
	c-0.008-0.024-0.016-0.048-0.024-0.072l-0.008-0.008c-0.016-0.048-0.032-0.096-0.056-0.144c0-0.008-0.008-0.016-0.008-0.032
	c-0.016-0.04-0.032-0.08-0.048-0.12c-0.008-0.016-0.008-0.024-0.016-0.04c-0.016-0.04-0.024-0.072-0.04-0.112
	c-0.008-0.016-0.008-0.032-0.016-0.048c-0.016-0.032-0.024-0.064-0.04-0.104c-0.008-0.016-0.016-0.032-0.016-0.048
	c-0.016-0.032-0.032-0.08-0.04-0.12c-0.008-0.016-0.008-0.024-0.016-0.04c-0.008-0.024-0.016-0.048-0.024-0.072
	c-0.008-0.016-0.008-0.032-0.016-0.048c-0.016-0.04-0.024-0.064-0.04-0.104c-0.008-0.016-0.008-0.024-0.016-0.04
	c-0.016-0.032-0.032-0.08-0.04-0.112c-0.008-0.016-0.008-0.032-0.016-0.04c-0.016-0.04-0.024-0.072-0.04-0.112
	c-0.008-0.016-0.008-0.024-0.016-0.04c-0.016-0.032-0.024-0.072-0.04-0.104c-0.008-0.016-0.016-0.032-0.016-0.056
	c-0.008-0.024-0.016-0.048-0.024-0.072s-0.024-0.056-0.032-0.08c-0.008-0.024-0.016-0.04-0.024-0.064
	c-0.008-0.032-0.024-0.056-0.032-0.088c-0.008-0.024-0.016-0.04-0.024-0.064s-0.016-0.04-0.024-0.064
	c-0.016-0.032-0.024-0.056-0.032-0.088c-0.008-0.016-0.016-0.04-0.024-0.056c-0.008-0.024-0.024-0.064-0.032-0.088
	c-0.008-0.024-0.016-0.04-0.024-0.064s-0.016-0.048-0.032-0.072c-0.008-0.024-0.016-0.048-0.032-0.072
	c-0.008-0.024-0.016-0.04-0.024-0.056c-0.008-0.032-0.024-0.064-0.032-0.096c-0.008-0.024-0.016-0.04-0.024-0.056
	c-0.016-0.032-0.024-0.064-0.04-0.096c-0.008-0.024-0.016-0.032-0.024-0.056s-0.024-0.056-0.032-0.08
	c-0.008-0.024-0.016-0.048-0.024-0.064c-0.008-0.024-0.016-0.048-0.032-0.072c-0.008-0.024-0.016-0.048-0.024-0.072
	s-0.024-0.056-0.032-0.08c-0.008-0.024-0.008-0.032-0.016-0.048c-0.016-0.032-0.024-0.064-0.04-0.096
	c-0.008-0.024-0.016-0.032-0.024-0.056c-0.016-0.032-0.024-0.064-0.04-0.096c-0.008-0.016-0.016-0.04-0.024-0.056
	c-0.016-0.032-0.024-0.064-0.04-0.096c-0.008-0.016-0.016-0.032-0.024-0.056c-0.008-0.032-0.024-0.056-0.032-0.088
	c-0.008-0.024-0.016-0.04-0.024-0.056c-0.008-0.024-0.024-0.056-0.032-0.08c-0.008-0.024-0.016-0.04-0.024-0.064
	c-0.008-0.032-0.024-0.056-0.032-0.088c-0.008-0.016-0.008-0.032-0.016-0.048c-0.016-0.032-0.024-0.064-0.04-0.104
	c-0.008-0.016-0.016-0.04-0.016-0.048c-0.016-0.032-0.024-0.072-0.04-0.104c-0.008-0.016-0.008-0.032-0.016-0.04
	c-0.016-0.04-0.032-0.072-0.04-0.112c-0.008-0.016-0.008-0.024-0.016-0.04c-0.016-0.032-0.024-0.064-0.04-0.104
	c-0.008-0.016-0.008-0.032-0.016-0.04c-0.016-0.032-0.024-0.064-0.04-0.096c-0.008-0.016-0.008-0.024-0.016-0.048
	c-0.016-0.032-0.024-0.064-0.04-0.104c-0.008-0.016-0.008-0.024-0.016-0.04c-0.016-0.04-0.032-0.072-0.048-0.112
	c-0.008-0.016-0.008-0.024-0.016-0.032c-0.016-0.04-0.032-0.072-0.048-0.112c-0.008-0.016-0.008-0.024-0.016-0.04
	c-0.016-0.04-0.032-0.08-0.048-0.112c-0.008-0.016-0.008-0.016-0.016-0.032c-0.016-0.04-0.032-0.072-0.048-0.112
	c0-0.008-0.008-0.016-0.008-0.024c-0.016-0.04-0.032-0.08-0.048-0.112c0-0.008-0.008-0.016-0.008-0.016
	c-0.016-0.048-0.032-0.088-0.048-0.128c0-0.008-0.008-0.024-0.008-0.024c-0.016-0.04-0.032-0.08-0.048-0.12
	c-0.008-0.016-0.008-0.024-0.016-0.04c-0.016-0.04-0.032-0.072-0.04-0.112c0-0.008-0.008-0.032-0.016-0.032
	c-0.016-0.04-0.032-0.08-0.048-0.112c-0.008-0.016-0.008-0.016-0.008-0.032c-0.016-0.04-0.032-0.08-0.048-0.112
	c-0.008-0.016,0-0.008-0.008-0.024c-0.016-0.04-0.032-0.08-0.048-0.112c-0.008-0.016-0.008-0.016-0.008-0.032
	c-0.016-0.04-0.032-0.08-0.048-0.12c0-0.008-0.008-0.024-0.008-0.032c-0.016-0.04-0.032-0.08-0.048-0.12
	c-0.008-0.016-0.008-0.016-0.016-0.032c-0.016-0.04-0.032-0.08-0.048-0.12c0-0.008-0.008-0.016-0.008-0.024
	c-0.016-0.04-0.032-0.08-0.048-0.128c0-0.008-0.008-0.016-0.008-0.024c-0.016-0.04-0.032-0.088-0.048-0.128l0,0
	c-0.016-0.048-0.032-0.088-0.056-0.128l-0.008-0.016c-0.016-0.04-0.032-0.088-0.048-0.128c0-0.008-0.008-0.016-0.008-0.024
	c-0.016-0.04-0.032-0.08-0.048-0.12c0-0.008-0.008-0.016-0.008-0.024c-0.016-0.04-0.032-0.08-0.048-0.12
	c0-0.008-0.008-0.016-0.008-0.016c-0.016-0.04-0.032-0.088-0.056-0.128c0-0.008,0-0.008,0-0.008
	c-0.024-0.048-0.04-0.096-0.056-0.144l0,0c-0.016-0.048-0.04-0.088-0.056-0.136l-0.008-0.016c-0.016-0.04-0.032-0.088-0.056-0.128
	c0-0.008,0-0.008,0-0.008c-0.024-0.048-0.04-0.096-0.056-0.136c0-0.008,0-0.008-0.008-0.016c-0.016-0.04-0.04-0.088-0.056-0.136
	v-0.008c-0.056-0.136-0.112-0.28-0.176-0.424v-0.008c-0.016-0.048-0.04-0.088-0.056-0.136v-0.008
	c-0.016-0.048-0.04-0.088-0.056-0.136c0-0.008,0,0,0-0.008c-0.08-0.192-0.16-0.376-0.24-0.568v-0.008
	c-0.04-0.096-0.08-0.192-0.12-0.288c0,0,0,0.008,0,0C460.608,164.56,458.48,159.944,456.2,155.416L456.2,155.416z M408.376,91.816
	L386.6,115.264c8.368,7.768,16.088,16.336,22.952,25.456l25.576-19.232c-0.008-0.008-0.016-0.024-0.024-0.032
	c-0.008-0.016-0.024-0.032-0.032-0.04c-0.024-0.032-0.04-0.056-0.064-0.088c-0.008-0.016-0.024-0.032-0.032-0.04
	c-0.024-0.024-0.04-0.056-0.064-0.08c-0.016-0.016-0.024-0.032-0.04-0.048c-0.016-0.024-0.04-0.048-0.056-0.072
	c-0.016-0.016-0.032-0.04-0.04-0.056c-0.016-0.024-0.024-0.04-0.048-0.056c-0.016-0.024-0.04-0.048-0.056-0.072
	c-0.016-0.016-0.016-0.024-0.032-0.04c-0.024-0.032-0.04-0.056-0.064-0.088c-0.008-0.008-0.024-0.032-0.032-0.04
	c-0.024-0.032-0.048-0.056-0.064-0.088c-0.008-0.008-0.024-0.024-0.032-0.04c-0.024-0.032-0.048-0.064-0.072-0.088
	c-0.008-0.008-0.016-0.024-0.024-0.032c-0.024-0.032-0.048-0.064-0.072-0.096c-0.008-0.008-0.008-0.016-0.016-0.024
	c-0.024-0.032-0.048-0.064-0.072-0.096c-0.008-0.008-0.016-0.016-0.016-0.024c-0.024-0.032-0.056-0.072-0.08-0.104
	c0,0-0.008-0.008-0.016-0.016c-0.024-0.032-0.056-0.072-0.08-0.104c-0.008-0.008-0.016-0.016-0.016-0.024
	c-0.024-0.032-0.056-0.072-0.08-0.104c-0.008-0.008-0.008-0.008-0.008-0.008c-0.032-0.04-0.064-0.08-0.088-0.112
	c-0.008-0.008-0.008-0.008-0.008-0.016c-0.032-0.04-0.056-0.072-0.088-0.112l-0.008-0.016c-0.032-0.04-0.056-0.072-0.088-0.112
	c-0.008-0.008,0,0-0.008-0.008c-0.096-0.12-0.184-0.24-0.28-0.36l0,0c-0.032-0.04-0.064-0.08-0.096-0.12v-0.008
	c-5.68-7.336-11.808-14.312-18.336-20.888l0,0c-0.04-0.04-0.072-0.072-0.112-0.112l0,0c-0.032-0.032-0.072-0.072-0.104-0.104
	l-0.008-0.008c-0.144-0.144-0.288-0.288-0.432-0.432l-0.008-0.008c-0.032-0.032-0.064-0.064-0.104-0.104
	c-0.008-0.008-0.008-0.008-0.008-0.008c-0.032-0.032-0.064-0.064-0.096-0.096c-0.008-0.008-0.008-0.008-0.016-0.016
	c-0.032-0.032-0.064-0.064-0.096-0.096c-0.008-0.008-0.008-0.008-0.016-0.016c-0.032-0.032-0.064-0.064-0.096-0.096
	c-0.008-0.008-0.008-0.008-0.016-0.016c-0.032-0.032-0.064-0.064-0.096-0.096l-0.008-0.008c-0.032-0.032-0.064-0.064-0.096-0.096
	c-0.008-0.008-0.008-0.008-0.008-0.008c-0.032-0.032-0.064-0.064-0.096-0.096c-0.008-0.008-0.008-0.008-0.016-0.016
	c-0.032-0.032-0.064-0.064-0.096-0.088c-0.008-0.008-0.016-0.016-0.024-0.024c-0.032-0.032-0.056-0.056-0.088-0.088
	c-0.008-0.008-0.016-0.016-0.024-0.024c-0.032-0.032-0.056-0.056-0.088-0.088l-0.024-0.024c-0.032-0.032-0.056-0.056-0.088-0.088
	c-0.008-0.008-0.016-0.016-0.024-0.024c-0.024-0.024-0.048-0.048-0.08-0.072c-0.016-0.016-0.024-0.024-0.04-0.04
	c-0.024-0.024-0.048-0.048-0.064-0.064c-0.016-0.016-0.024-0.024-0.04-0.04c-0.024-0.024-0.048-0.048-0.072-0.072
	c-0.008-0.008-0.032-0.024-0.04-0.04c-0.024-0.024-0.048-0.048-0.072-0.072c-0.016-0.016-0.024-0.024-0.04-0.04
	c-0.024-0.024-0.048-0.048-0.08-0.072c-0.008-0.008-0.032-0.032-0.04-0.04c-0.024-0.024-0.048-0.048-0.072-0.072
	c-0.016-0.016-0.024-0.024-0.04-0.04c-0.024-0.024-0.04-0.04-0.064-0.064c-0.024-0.016-0.032-0.032-0.056-0.056
	c-0.016-0.016-0.032-0.032-0.04-0.04c-0.024-0.024-0.048-0.048-0.072-0.072c-0.008-0.008-0.024-0.024-0.032-0.032
	c-0.032-0.032-0.056-0.056-0.088-0.08c-0.008-0.008-0.016-0.016-0.032-0.024c-0.024-0.024-0.056-0.056-0.08-0.08
	c-0.016-0.008-0.024-0.024-0.04-0.032c-0.024-0.016-0.04-0.04-0.064-0.056c-0.016-0.016-0.04-0.032-0.056-0.056
	c-0.024-0.016-0.032-0.032-0.056-0.048c-0.016-0.016-0.032-0.032-0.048-0.04c-0.024-0.024-0.048-0.048-0.072-0.072
	c-0.016-0.008-0.024-0.024-0.04-0.032c-0.024-0.024-0.056-0.056-0.08-0.08c-0.008-0.008-0.024-0.016-0.032-0.032
	c-0.032-0.032-0.056-0.056-0.088-0.088c-0.008-0.008-0.016-0.016-0.024-0.024c-0.032-0.032-0.064-0.064-0.096-0.096l-0.016-0.016
	c-0.032-0.032-0.072-0.072-0.104-0.104c-0.008,0-0.008-0.008-0.016-0.008c-0.144-0.136-0.28-0.264-0.424-0.4l0,0
	c-0.04-0.04-0.08-0.072-0.12-0.112l0,0C409.784,93.128,409.088,92.472,408.376,91.816L408.376,91.816z M341.392,48.856
	L329.184,78.44c10.52,4.344,20.728,9.672,30.336,15.84l17.28-26.936C365.64,60.176,353.792,53.968,341.392,48.856L341.392,48.856z
	 M263.6,32.128l-1.064,31.984c11.448,0.384,22.888,1.784,34,4.168l6.72-31.288c-5.696-1.224-11.472-2.232-17.32-3.008l0,0
	c-1.544-0.208-3.088-0.4-4.648-0.568l0,0c-0.208-0.024-0.4-0.048-0.608-0.064c0,0-0.008,0-0.016,0
	c-0.056-0.008-0.104-0.008-0.16-0.016h-0.016c-0.144-0.016-0.288-0.032-0.432-0.048h-0.008c-0.056-0.008-0.112-0.008-0.168-0.016
	l0,0c-0.144-0.016-0.288-0.032-0.432-0.048c-0.008,0-0.008,0-0.008,0c-0.056-0.008-0.104-0.008-0.16-0.016c-0.008,0-0.016,0-0.024,0
	c-0.048-0.008-0.104-0.008-0.152-0.016c-0.008,0-0.008,0-0.008,0c-0.096-0.008-0.176-0.016-0.264-0.024c-0.008,0-0.016,0-0.016,0
	c-0.048-0.008-0.104-0.008-0.152-0.016c-0.008,0-0.016,0-0.032,0c-0.048-0.008-0.096-0.008-0.136-0.016c-0.008,0-0.024,0-0.032,0
	c-0.088-0.008-0.16-0.016-0.248-0.024c-0.008,0-0.024,0-0.032,0c-0.048-0.008-0.096-0.008-0.136-0.016c-0.008,0-0.016,0-0.032,0
	c-0.048-0.008-0.096-0.008-0.144-0.016c-0.008,0-0.016,0-0.024,0c-0.056-0.008-0.104-0.008-0.16-0.016h-0.008
	c-0.032,0-0.056-0.008-0.088-0.008c-0.008,0-0.008,0-0.008,0c-0.056-0.008-0.096-0.008-0.152-0.016c-0.008,0-0.024,0-0.032,0
	c-0.048-0.008-0.096-0.008-0.144-0.016c-0.008,0-0.016,0-0.024,0c-0.048-0.008-0.096-0.008-0.152-0.016c-0.008,0-0.016,0-0.016,0
	c-0.04,0-0.064-0.008-0.088-0.008h-0.008c-0.048-0.008-0.104-0.008-0.152-0.016c-0.016,0-0.032,0-0.048-0.008
	c-0.04,0-0.08-0.008-0.12-0.008c-0.016,0-0.032,0-0.048-0.008c-0.04,0-0.08-0.008-0.112-0.008c-0.016,0-0.032,0-0.056-0.008
	c-0.024,0-0.056-0.008-0.072-0.008c-0.032,0-0.064-0.008-0.088-0.008c-0.024,0-0.056-0.008-0.072-0.008s-0.04,0-0.056-0.008
	c-0.04,0-0.072-0.008-0.112-0.008c-0.016,0-0.032,0-0.048-0.008c-0.04,0-0.072-0.008-0.112-0.008c-0.016,0-0.04,0-0.056-0.008
	c-0.024,0-0.048-0.008-0.072-0.008c-0.032,0-0.064-0.008-0.096-0.008s-0.04,0-0.072-0.008c-0.024,0-0.048-0.008-0.072-0.008
	c-0.032,0-0.056-0.008-0.088-0.008c-0.016,0-0.04,0-0.056-0.008c-0.04,0-0.072-0.008-0.112-0.008c-0.016,0-0.032,0-0.048-0.008
	c-0.032,0-0.072-0.008-0.096-0.008c-0.024,0-0.048,0-0.072-0.008c-0.032,0-0.04,0-0.072-0.008c-0.032,0-0.056-0.008-0.088-0.008
	c-0.024,0-0.048-0.008-0.072-0.008s-0.048-0.008-0.072-0.008c-0.032,0-0.056-0.008-0.088-0.008c-0.024,0-0.048,0-0.072-0.008
	c-0.032,0-0.064-0.008-0.088-0.008c-0.024,0-0.048,0-0.072-0.008c-0.024,0-0.048,0-0.064-0.008c-0.032,0-0.064-0.008-0.104-0.008
	c-0.024,0-0.04,0-0.064-0.008c-0.024,0-0.048,0-0.072-0.008c-0.04,0-0.056-0.008-0.088-0.008c-0.024,0-0.048,0-0.072-0.008
	c-0.032,0-0.064-0.008-0.088-0.008c-0.024,0-0.048,0-0.072-0.008c-0.024,0-0.04,0-0.064-0.008c-0.032,0-0.072-0.008-0.104-0.008
	c-0.016,0-0.04,0-0.056-0.008c-0.04,0-0.072-0.008-0.112-0.008c-0.016,0-0.04,0-0.056-0.008c-0.032,0-0.064-0.008-0.096-0.008
	c-0.016,0-0.032,0-0.048,0c-0.04,0-0.072-0.008-0.104-0.008c-0.016,0-0.032,0-0.048,0c-0.04,0-0.08-0.008-0.112-0.008
	c-0.016,0-0.032,0-0.048,0c-0.04,0-0.08-0.008-0.12-0.008c-0.016,0-0.032,0-0.048,0c-0.04,0-0.072-0.008-0.112-0.008
	c-0.016,0-0.032,0-0.048,0c-0.032,0-0.072-0.008-0.104-0.008c-0.016,0-0.024,0-0.04,0c-0.04,0-0.08-0.008-0.12-0.008
	c-0.016,0-0.024,0-0.04,0c-0.04,0-0.08-0.008-0.12-0.008c-0.008,0-0.032,0-0.032,0c-0.048,0-0.096-0.008-0.136-0.008
	c-0.008,0-0.016,0-0.024,0c-0.04,0-0.08-0.008-0.128-0.008c-0.008,0-0.016,0-0.024,0c-0.048,0-0.088-0.008-0.136-0.008
	c-0.008,0-0.024,0-0.032,0c-0.04,0-0.088-0.008-0.128-0.008c-0.008,0-0.024,0-0.032,0c-0.048,0-0.088-0.008-0.136-0.008
	c-0.008,0-0.016,0-0.024,0c-0.04,0-0.088-0.008-0.128-0.008c-0.008,0-0.008,0-0.016,0c-0.048,0-0.096-0.008-0.144-0.008
	c-0.008,0-0.016,0-0.024,0c-0.048,0-0.096-0.008-0.136-0.008h-0.016c-0.048,0-0.096-0.008-0.144-0.008h-0.008
	c-0.152-0.008-0.312-0.016-0.464-0.032h-0.008c-0.048,0-0.104-0.008-0.152-0.008l0,0C267.936,32.304,265.768,32.2,263.6,32.128
	L263.6,32.128z"/>
<g>
	<rect x="216" y="216" style="fill:#000000;" width="80" height="80"/>
	<rect x="216" style="fill:#000000;" width="80" height="80"/>
	<rect x="216" y="432" style="fill:#000000;" width="80" height="80"/>
	<rect x="432" y="216" style="fill:#000000;" width="80" height="80"/>
	<rect y="216" style="fill:#000000;" width="80" height="80"/>
</g>
</svg>
