<?xml version="1.0" encoding="UTF-8" standalone="no"?>
<!-- Generator: Adobe Illustrator 19.0.0, SVG Export Plug-In . SVG Version: 6.00 Build 0)  -->

<svg
   xmlns:dc="http://purl.org/dc/elements/1.1/"
   xmlns:cc="http://creativecommons.org/ns#"
   xmlns:rdf="http://www.w3.org/1999/02/22-rdf-syntax-ns#"
   xmlns:svg="http://www.w3.org/2000/svg"
   xmlns="http://www.w3.org/2000/svg"
   xmlns:sodipodi="http://sodipodi.sourceforge.net/DTD/sodipodi-0.dtd"
   xmlns:inkscape="http://www.inkscape.org/namespaces/inkscape"
   version="1.1"
   id="Capa_1"
   x="0px"
   y="0px"
   viewBox="0 0 512.04 512.04"
   style="enable-background:new 0 0 512.04 512.04;"
   xml:space="preserve"
   sodipodi:docname="unlock.svg"
   inkscape:version="0.92.4 (5da689c313, 2019-01-14)"><metadata
   id="metadata49"><rdf:RDF><cc:Work
       rdf:about=""><dc:format>image/svg+xml</dc:format><dc:type
         rdf:resource="http://purl.org/dc/dcmitype/StillImage" /><dc:title></dc:title></cc:Work></rdf:RDF></metadata><defs
   id="defs47">
	
</defs><sodipodi:namedview
   pagecolor="#ffffff"
   bordercolor="#666666"
   borderopacity="1"
   objecttolerance="10"
   gridtolerance="10"
   guidetolerance="10"
   inkscape:pageopacity="0"
   inkscape:pageshadow="2"
   inkscape:window-width="988"
   inkscape:window-height="869"
   id="namedview45"
   showgrid="false"
   inkscape:zoom="1.3036263"
   inkscape:cx="217.29479"
   inkscape:cy="309.52559"
   inkscape:window-x="0"
   inkscape:window-y="0"
   inkscape:window-maximized="0"
   inkscape:current-layer="Capa_1" />
















<g
   id="g3777"><g
     id="g4">
		<path
   sodipodi:nodetypes="csssssssscssccccssccccccccc"
   d="m 176,208.02 h -16 c -8.832,0 -16,7.168 -16,16 v 128 c 0,8.832 7.168,16 16,16 h 160 c 8.832,0 16,-7.168 16,-16 v -128 c 0,-8.832 -7.168,-16 -16,-16 h -16 v -32 c 0,-35.296 -28.704,-64 -64,-64 -35.296,0 -64,28.704 -64,64 m 0,32 v -32 h 32 c 0,-17.632 14.336,-32 32,-32 17.664,0 32,14.368 32,32 v 32 h -64 m 0,0 v -32 m 96,160 H 176 v -96 h 128 z"
   id="path2"
   inkscape:connector-curvature="0" />
	</g><g
     id="g12">
	<g
   id="g10">
		<path
   id="path8"
   d="M501.984,161.172c-8.224-3.296-17.536,0.704-20.768,8.928l-9.568,23.936C444.16,91.668,350.88,16.02,240,16.02    c-132.352,0-240,107.648-240,240s107.648,240,240,240c64.096,0,124.352-24.96,169.728-70.304c6.24-6.24,6.24-16.384,0-22.624    s-16.384-6.24-22.624,0C347.776,442.388,295.52,464.02,240,464.02c-114.688,0-208-93.312-208-208s93.312-208,208-208    c99.872,0,183.488,70.784,203.424,164.8l-32.096-32.128c-6.24-6.24-16.384-6.24-22.624,0s-6.24,16.384,0,22.624l64,64    c0.352,0.352,0.832,0.48,1.216,0.8c1.216,1.024,2.464,2.016,3.936,2.624c1.92,0.864,4.032,1.28,6.144,1.28    c1.056,0,2.144-0.096,3.232-0.32c0.448-0.096,0.768-0.448,1.184-0.576c1.632-0.48,3.104-1.216,4.48-2.144    c0.608-0.416,1.216-0.704,1.76-1.184c1.76-1.6,3.232-3.488,4.16-5.728c0-0.032,0.032-0.064,0.064-0.096l32-80    C514.176,173.78,510.208,164.468,501.984,161.172z" />
	</g>
</g><g
     id="g14">
</g><g
     id="g16">
</g><g
     id="g18">
</g><g
     id="g20">
</g><g
     id="g22">
</g><g
     id="g24">
</g><g
     id="g26">
</g><g
     id="g28">
</g><g
     id="g30">
</g><g
     id="g32">
</g><g
     id="g34">
</g><g
     id="g36">
</g><g
     id="g38">
</g><g
     id="g40">
</g><g
     id="g42">
</g></g>
</svg>