<svg xmlns="http://www.w3.org/2000/svg" height="512pt" version="1.1" viewBox="0 0 512 512" width="512pt">
<g id="surface1">
<path d="M 437.019531 74.980469 C 388.664062 26.628906 324.378906 0 256 0 C 187.621094 0 123.332031 26.628906 74.980469 74.980469 C 26.628906 123.332031 0 187.621094 0 256 C 0 324.382812 26.628906 388.667969 74.980469 437.019531 C 123.332031 485.371094 187.617188 512 256 512 C 324.378906 512 388.667969 485.371094 437.019531 437.019531 C 485.371094 388.667969 512 324.378906 512 256 C 512 187.621094 485.371094 123.332031 437.019531 74.980469 Z M 256 80.332031 C 286.417969 80.332031 311.164062 105.082031 311.164062 135.5 C 311.164062 165.917969 286.417969 190.664062 256 190.664062 C 225.582031 190.664062 200.832031 165.917969 200.832031 135.5 C 200.832031 105.082031 225.582031 80.332031 256 80.332031 Z M 256 482 C 131.382812 482 30 380.617188 30 256 C 30 172.324219 75.71875 99.140625 143.484375 60.082031 C 128.976562 81.652344 120.5 107.605469 120.5 135.5 C 120.5 210.214844 181.285156 271 256 271 C 314.171875 271 361.5 318.328125 361.5 376.5 C 361.5 434.671875 314.171875 482 256 482 Z M 256 482 " style=" stroke:none;fill-rule:nonzero;fill:rgb(0%,0%,0%);fill-opacity:1;" />
<path d="M 256 321.332031 C 225.582031 321.332031 200.832031 346.082031 200.832031 376.5 C 200.832031 406.917969 225.582031 431.664062 256 431.664062 C 286.417969 431.664062 311.164062 406.917969 311.164062 376.5 C 311.164062 346.082031 286.417969 321.332031 256 321.332031 Z M 256 321.332031 " style=" stroke:none;fill-rule:nonzero;fill:rgb(0%,0%,0%);fill-opacity:1;" />
</g>
</svg>