<?xml version="1.0" encoding="UTF-8" standalone="no"?>
<!-- Generator: Adobe Illustrator 19.0.0, SVG Export Plug-In . SVG Version: 6.00 Build 0)  -->

<svg
   xmlns:dc="http://purl.org/dc/elements/1.1/"
   xmlns:cc="http://creativecommons.org/ns#"
   xmlns:rdf="http://www.w3.org/1999/02/22-rdf-syntax-ns#"
   xmlns:svg="http://www.w3.org/2000/svg"
   xmlns="http://www.w3.org/2000/svg"
   xmlns:sodipodi="http://sodipodi.sourceforge.net/DTD/sodipodi-0.dtd"
   xmlns:inkscape="http://www.inkscape.org/namespaces/inkscape"
   version="1.1"
   id="Layer_1"
   x="0px"
   y="0px"
   viewBox="0 0 512 512"
   xml:space="preserve"
   sodipodi:docname="yinyang.svg"
   width="512"
   height="512"
   inkscape:version="0.92.4 (5da689c313, 2019-01-14)"><metadata
   id="metadata3903"><rdf:RDF><cc:Work
       rdf:about=""><dc:format>image/svg+xml</dc:format><dc:type
         rdf:resource="http://purl.org/dc/dcmitype/StillImage" /><dc:title></dc:title></cc:Work></rdf:RDF></metadata><defs
   id="defs3901" /><sodipodi:namedview
   pagecolor="#ffffff"
   bordercolor="#666666"
   borderopacity="1"
   objecttolerance="10"
   gridtolerance="10"
   guidetolerance="10"
   inkscape:pageopacity="0"
   inkscape:pageshadow="2"
   inkscape:window-width="1920"
   inkscape:window-height="1017"
   id="namedview3899"
   showgrid="false"
   fit-margin-top="0"
   fit-margin-left="0"
   fit-margin-right="0"
   fit-margin-bottom="0"
   inkscape:zoom="0.2927864"
   inkscape:cx="1906.3218"
   inkscape:cy="-191.44327"
   inkscape:window-x="-8"
   inkscape:window-y="-8"
   inkscape:window-maximized="1"
   inkscape:current-layer="Layer_1" />
<g
   id="g3860">
	<g
   id="g3858">
		<path
   d="m 256,94.609 c -21.478,0 -38.957,17.478 -38.957,38.957 0,21.479 17.478,38.956 38.957,38.956 21.479,0 38.957,-17.478 38.957,-38.956 0,-21.478 -17.479,-38.957 -38.957,-38.957 z"
   id="path3856"
   inkscape:connector-curvature="0" />
	</g>
</g>
<g
   id="g3866">
	<g
   id="g3864">
		<path
   d="M 256,0 C 114.843,0 0,114.843 0,256 0,397.157 114.843,512 256,512 397.157,512 512,397.157 512,256 512,114.843 397.157,0 256,0 Z m 0,417.391 c -21.478,0 -38.957,-17.478 -38.957,-38.957 0,-21.479 17.478,-38.956 38.957,-38.956 21.479,0 38.957,17.478 38.957,38.956 0,21.478 -17.479,38.957 -38.957,38.957 z m 0,-178.087 c -75.185,0 -136.348,61.163 -136.348,136.348 0,25.278 7.038,48.888 19.074,69.206 C 75.616,405.521 33.391,335.684 33.391,256 33.391,133.256 133.256,33.391 256,33.391 c 56.772,0 102.957,46.185 102.957,102.957 0,56.772 -46.185,102.956 -102.957,102.956 z"
   id="path3862"
   inkscape:connector-curvature="0" />
	</g>
</g>
<g
   id="g3868">
</g>
<g
   id="g3870">
</g>
<g
   id="g3872">
</g>
<g
   id="g3874">
</g>
<g
   id="g3876">
</g>
<g
   id="g3878">
</g>
<g
   id="g3880">
</g>
<g
   id="g3882">
</g>
<g
   id="g3884">
</g>
<g
   id="g3886">
</g>
<g
   id="g3888">
</g>
<g
   id="g3890">
</g>
<g
   id="g3892">
</g>
<g
   id="g3894">
</g>
<g
   id="g3896">
</g>
</svg>