<?xml version="1.0" encoding="utf-8"?>
<!-- www.vectorico.com  -->
<svg version="1.1" id="youtube-icon" xmlns="http://www.w3.org/2000/svg" xmlns:xlink="http://www.w3.org/1999/xlink" x="0px"
	 y="0px" viewBox="0 0 64 64" style="enable-background:new 0 0 64 64;" xml:space="preserve">
<style type="text/css">
	.st0{fill:#E52D27;}
	.st1{fill:#FFFFFF;}
</style>
<title>youtube icon</title>
<circle class="st0" cx="32" cy="32" r="32"/>
<path class="st1" d="M51.1,24.3c0-3.2-2.6-5.7-5.7-5.7c0,0,0,0,0,0H18.6c-3.2,0-5.7,2.6-5.7,5.7c0,0,0,0,0,0v15.3
	c0,3.2,2.6,5.7,5.7,5.7c0,0,0,0,0,0h26.8c3.2,0,5.7-2.6,5.7-5.7V24.3z M28.2,38.5V24.1l10.9,7.2L28.2,38.5z"/>
</svg>
