<?xml version="1.0" encoding="UTF-8" standalone="no"?>
<!-- Created with Inkscape (http://www.inkscape.org/) -->

<svg
   xmlns:dc="http://purl.org/dc/elements/1.1/"
   xmlns:cc="http://creativecommons.org/ns#"
   xmlns:rdf="http://www.w3.org/1999/02/22-rdf-syntax-ns#"
   xmlns:svg="http://www.w3.org/2000/svg"
   xmlns="http://www.w3.org/2000/svg"
   xmlns:sodipodi="http://sodipodi.sourceforge.net/DTD/sodipodi-0.dtd"
   xmlns:inkscape="http://www.inkscape.org/namespaces/inkscape"
   width="32.250061mm"
   height="38.90395mm"
   viewBox="0 0 32.250061 38.90395"
   version="1.1"
   id="svg2134"
   inkscape:version="0.92.4 (5da689c313, 2019-01-14)"
   sodipodi:docname="九天.svg">
  <defs
     id="defs2128" />
  <sodipodi:namedview
     id="base"
     pagecolor="#ffffff"
     bordercolor="#666666"
     borderopacity="1.0"
     inkscape:pageopacity="0.0"
     inkscape:pageshadow="2"
     inkscape:zoom="1.4"
     inkscape:cx="303.7733"
     inkscape:cy="30.625697"
     inkscape:document-units="mm"
     inkscape:current-layer="layer1"
     showgrid="false"
     fit-margin-top="0"
     fit-margin-left="0"
     fit-margin-right="0"
     fit-margin-bottom="0"
     inkscape:window-width="1920"
     inkscape:window-height="1009"
     inkscape:window-x="-8"
     inkscape:window-y="-8"
     inkscape:window-maximized="1" />
  <metadata
     id="metadata2131">
    <rdf:RDF>
      <cc:Work
         rdf:about="">
        <dc:format>image/svg+xml</dc:format>
        <dc:type
           rdf:resource="http://purl.org/dc/dcmitype/StillImage" />
        <dc:title></dc:title>
      </cc:Work>
    </rdf:RDF>
  </metadata>
  <g
     inkscape:label="Layer 1"
     inkscape:groupmode="layer"
     id="layer1"
     transform="translate(-76.10116,-158.10755)">
    <g
       transform="matrix(0.26458333,0,0,0.26458333,15.052527,46.923015)"
       id="g921">
      <circle
         class="st0"
         cx="291.67999"
         cy="481.17001"
         r="60.57"
         id="circle10"
         style="fill:#ffffff;stroke:#604b3b;stroke-width:0.75;stroke-miterlimit:10" />
      <path
         class="st1"
         d="m 300.54,462.58 c 0,-0.61 0.49,-1.1 1.1,-1.1 5.19,0 10.03,2.79 12.63,7.29 0.31,0.53 0.12,1.2 -0.4,1.51 -0.17,0.1 -0.36,0.15 -0.55,0.15 -0.38,0 -0.75,-0.2 -0.96,-0.55 -2.21,-3.82 -6.31,-6.19 -10.72,-6.19 -0.61,-0.01 -1.1,-0.5 -1.1,-1.11 z m 1.1,-7.94 c 0.61,0 1.1,-0.49 1.1,-1.1 v -4.43 c 0,-0.61 -0.49,-1.1 -1.1,-1.1 -0.61,0 -1.1,0.49 -1.1,1.1 v 4.43 c 0,0.6 0.49,1.1 1.1,1.1 z m -12.21,2.46 c 0.2,0.35 0.58,0.55 0.96,0.55 0.19,0 0.38,-0.05 0.55,-0.15 0.53,-0.3 0.71,-0.98 0.4,-1.51 l -2.21,-3.84 c -0.31,-0.53 -0.98,-0.71 -1.51,-0.4 -0.53,0.31 -0.71,0.98 -0.4,1.51 z m -11.68,6.44 3.84,2.21 c 0.17,0.1 0.36,0.15 0.55,0.15 0.38,0 0.75,-0.2 0.96,-0.55 0.3,-0.53 0.12,-1.2 -0.4,-1.51 l -3.84,-2.21 c -0.53,-0.3 -1.2,-0.12 -1.51,0.4 -0.3,0.53 -0.12,1.2 0.4,1.51 z m 43.4,2.36 c 0.19,0 0.38,-0.05 0.55,-0.15 l 3.84,-2.21 c 0.53,-0.3 0.71,-0.98 0.4,-1.51 -0.3,-0.53 -0.98,-0.71 -1.51,-0.4 l -3.84,2.21 c -0.53,0.3 -0.71,0.98 -0.4,1.51 0.2,0.35 0.57,0.55 0.96,0.55 z m -8.8,-8.39 c 0.17,0.1 0.36,0.15 0.55,0.15 0.38,0 0.75,-0.2 0.96,-0.55 l 2.21,-3.84 c 0.3,-0.53 0.12,-1.2 -0.4,-1.51 -0.53,-0.3 -1.2,-0.12 -1.51,0.4 l -2.21,3.84 c -0.31,0.53 -0.13,1.2 0.4,1.51 z m 16.24,17.44 h -4.43 c -0.61,0 -1.1,0.49 -1.1,1.1 0,0.61 0.49,1.1 1.1,1.1 h 4.43 c 0.61,0 1.1,-0.49 1.1,-1.1 0.01,-0.61 -0.49,-1.1 -1.1,-1.1 z m -53.89,2.21 h 4.43 c 0.61,0 1.1,-0.49 1.1,-1.1 0,-0.61 -0.49,-1.1 -1.1,-1.1 h -4.43 c -0.61,0 -1.1,0.49 -1.1,1.1 -0.01,0.6 0.49,1.1 1.1,1.1 z m 45.49,9.6 c -0.3,0.53 -0.12,1.2 0.4,1.51 l 3.84,2.21 c 0.17,0.1 0.36,0.15 0.55,0.15 0.38,0 0.75,-0.2 0.96,-0.55 0.3,-0.53 0.12,-1.2 -0.4,-1.51 l -3.84,-2.21 c -0.53,-0.31 -1.21,-0.13 -1.51,0.4 z m 7.94,17.31 c 0,5.37 -4.37,9.75 -9.75,9.75 h -52.22 c -6.89,0 -12.49,-5.6 -12.49,-12.49 0,-6.89 5.6,-12.49 12.49,-12.49 1.48,0 2.91,0.26 4.29,0.77 1.89,-5.68 6.4,-9.99 11.96,-11.72 -0.06,-0.61 -0.1,-1.22 -0.1,-1.83 0,-10.66 8.67,-19.33 19.33,-19.33 10.66,0 19.33,8.67 19.33,19.33 0,3.68 -1.04,7.23 -3,10.32 1.82,2.1 2.94,4.82 2.94,7.81 0,0.16 0,0.32 -0.01,0.48 4.24,1.12 7.23,4.92 7.23,9.4 z m -43.56,-26.72 c 1.08,-0.2 2.19,-0.31 3.32,-0.31 5.72,0 11.08,2.66 14.56,7.16 1.93,-1.26 4.21,-1.95 6.52,-1.95 2.78,0 5.34,0.97 7.37,2.57 1.59,-2.65 2.42,-5.66 2.42,-8.77 0,-9.44 -7.68,-17.12 -17.12,-17.12 -9.44,0 -17.12,7.68 -17.12,17.12 0,0.43 0.02,0.87 0.05,1.3 z m 41.35,26.72 c 0,-3.73 -2.68,-6.86 -6.38,-7.43 -0.59,-0.09 -1,-0.64 -0.93,-1.23 0.06,-0.47 0.08,-0.86 0.08,-1.22 0,-5.36 -4.36,-9.72 -9.72,-9.72 -2.23,0 -4.33,0.74 -6.08,2.14 -0.24,0.19 -0.55,0.28 -0.86,0.23 -0.3,-0.05 -0.58,-0.22 -0.75,-0.47 -3.02,-4.46 -8.03,-7.12 -13.4,-7.12 -7.38,0 -13.82,4.98 -15.66,12.11 -0.85,4.38 0.24,7.75 0.25,7.79 0.19,0.58 -0.12,1.2 -0.7,1.39 -0.12,0.04 -0.23,0.06 -0.35,0.06 -0.46,0 -0.89,-0.29 -1.05,-0.75 -0.05,-0.15 -1.15,-3.51 -0.47,-8.06 -1.21,-0.48 -2.47,-0.74 -3.76,-0.74 -5.67,0 -10.28,4.61 -10.28,10.28 0,5.67 4.61,10.28 10.28,10.28 h 52.22 c 4.18,0 7.56,-3.38 7.56,-7.54 z"
         id="path12"
         inkscape:connector-curvature="0"
         style="fill:#501702" />
      <g
         id="g34">
        <text
           transform="translate(241.1724,566.0605)"
           class="st2 st3 st6"
           id="text32"
           style="font-size:16.20980072px;font-family:FZYLHJW;fill:#4f4d4d">九天 Jiu TIAN</text>
      </g>
    </g>
  </g>
</svg>
