<?xml version="1.0" encoding="UTF-8" standalone="no"?>
<!-- Created with Inkscape (http://www.inkscape.org/) -->

<svg
   xmlns:dc="http://purl.org/dc/elements/1.1/"
   xmlns:cc="http://creativecommons.org/ns#"
   xmlns:rdf="http://www.w3.org/1999/02/22-rdf-syntax-ns#"
   xmlns:svg="http://www.w3.org/2000/svg"
   xmlns="http://www.w3.org/2000/svg"
   xmlns:sodipodi="http://sodipodi.sourceforge.net/DTD/sodipodi-0.dtd"
   xmlns:inkscape="http://www.inkscape.org/namespaces/inkscape"
   width="32.250061mm"
   height="38.908897mm"
   viewBox="0 0 32.250061 38.908897"
   version="1.1"
   id="svg1552"
   inkscape:version="0.92.4 (5da689c313, 2019-01-14)"
   sodipodi:docname="值符.svg">
  <defs
     id="defs1546" />
  <sodipodi:namedview
     id="base"
     pagecolor="#ffffff"
     bordercolor="#666666"
     borderopacity="1.0"
     inkscape:pageopacity="0.0"
     inkscape:pageshadow="2"
     inkscape:zoom="1.979899"
     inkscape:cx="5.1945103"
     inkscape:cy="-56.953202"
     inkscape:document-units="mm"
     inkscape:current-layer="layer1"
     showgrid="false"
     fit-margin-top="0"
     fit-margin-left="0"
     fit-margin-right="0"
     fit-margin-bottom="0"
     inkscape:window-width="1920"
     inkscape:window-height="1009"
     inkscape:window-x="-8"
     inkscape:window-y="-8"
     inkscape:window-maximized="1" />
  <metadata
     id="metadata1549">
    <rdf:RDF>
      <cc:Work
         rdf:about="">
        <dc:format>image/svg+xml</dc:format>
        <dc:type
           rdf:resource="http://purl.org/dc/dcmitype/StillImage" />
        <dc:title></dc:title>
      </cc:Work>
    </rdf:RDF>
  </metadata>
  <g
     inkscape:label="Layer 1"
     inkscape:groupmode="layer"
     id="layer1"
     transform="translate(-130.52973,-93.093169)">
    <g
       transform="matrix(0.26458333,0,0,0.26458333,69.481098,31.052349)"
       id="g915">
      <circle
         class="st0"
         cx="291.67999"
         cy="295.42999"
         r="60.57"
         id="circle8"
         style="fill:#ffffff;stroke:#604b3b;stroke-width:0.75;stroke-miterlimit:10" />
      <g
         id="g18">
        <path
           class="st1"
           d="m 330.36,270.5 c -0.14,-0.79 -0.86,-1.34 -1.67,-1.25 -24.69,2.78 -33.58,-10.51 -33.95,-11.07 -0.6,-0.93 -1.96,-0.93 -2.56,0 -0.37,0.57 -9.26,13.87 -33.95,11.08 -0.8,-0.09 -1.53,0.46 -1.67,1.25 -0.09,0.53 -8.63,53.08 36.37,69.82 0.34,0.13 0.72,0.13 1.06,0 44.99,-16.76 36.46,-69.3 36.37,-69.83 z m -36.9,66.78 c -38.03,-14.55 -35.06,-56.63 -34.09,-64.86 20.65,1.87 30.76,-7.1 34.09,-10.95 3.34,3.85 13.45,12.83 34.09,10.95 0.97,8.22 3.94,50.3 -34.09,64.86 z"
           id="path14"
           inkscape:connector-curvature="0"
           style="fill:#501702" />
        <path
           class="st1"
           d="m 322.63,276.46 c -0.11,-0.62 -0.68,-1.06 -1.32,-0.99 -19.52,2.21 -26.55,-8.31 -26.84,-8.75 -0.47,-0.73 -1.54,-0.75 -2.02,0 -0.29,0.45 -7.32,10.97 -26.84,8.76 -0.64,-0.07 -1.21,0.36 -1.32,0.99 -0.07,0.42 -6.82,41.96 28.75,55.2 0.27,0.1 0.57,0.1 0.84,0 35.57,-13.25 28.82,-54.8 28.75,-55.21 z m -7.17,33.1 -8.41,-8.41 h 11.61 c -0.78,2.78 -1.81,5.62 -3.2,8.41 z m -11.8,-8.42 10.62,10.62 c -1.07,1.87 -2.31,3.69 -3.74,5.43 l -15.88,-15.88 v -0.18 h 9 z m -9,16.15 7.49,7.48 c -2.23,1.49 -4.71,2.83 -7.49,3.98 z m -2.4,-32.13 -13.59,13.59 h -9.18 l 22.76,-22.76 v 9.17 z m 0,3.39 v 10.19 h -10.19 z m 0,-17.97 v 2.01 l -24.88,24.88 c -0.58,-2.85 -0.92,-5.59 -1.09,-8.09 l 11.9,-11.9 c 7.19,-1.38 11.67,-4.59 14.07,-6.9 z m -25.75,7.39 c 2.83,0.26 5.4,0.24 7.75,0.05 l -8.11,8.11 c -0.07,-3.74 0.18,-6.66 0.36,-8.16 z m 1.75,23.17 h 24 v 27.6 c -14.46,-5.99 -21.09,-17.15 -24,-27.6 z m 35.87,22.22 -9.47,-9.47 v -9.18 l 14.3,14.3 c -1.43,1.54 -3.05,2.99 -4.83,4.35 z m 15.14,-24.62 h -24.61 v -28.17 c 3.49,3.37 11.4,8.7 25.75,7.4 0.35,2.94 1.01,11.37 -1.14,20.77 z"
           id="path16"
           inkscape:connector-curvature="0"
           style="fill:#501702" />
      </g>
      <g
         id="g30">
        <text
           transform="translate(247.6157,380.0859)"
           class="st2 st3 st6"
           id="text28"
           style="font-size:16.20980072px;font-family:FZYLHJW;fill:#4f4d4d">直符 ZHI FU</text>
      </g>
    </g>
  </g>
</svg>
