<?xml version="1.0" encoding="UTF-8" standalone="no"?>
<svg
   xmlns:dc="http://purl.org/dc/elements/1.1/"
   xmlns:cc="http://creativecommons.org/ns#"
   xmlns:rdf="http://www.w3.org/1999/02/22-rdf-syntax-ns#"
   xmlns:svg="http://www.w3.org/2000/svg"
   xmlns="http://www.w3.org/2000/svg"
   xmlns:sodipodi="http://sodipodi.sourceforge.net/DTD/sodipodi-0.dtd"
   xmlns:inkscape="http://www.inkscape.org/namespaces/inkscape"
   width="211.17505"
   height="400.004"
   version="1.1"
   id="svg31"
   sodipodi:docname="前间.svg"
   inkscape:version="0.92.4 (5da689c313, 2019-01-14)">
  <metadata
     id="metadata37">
    <rdf:RDF>
      <cc:Work
         rdf:about="">
        <dc:format>image/svg+xml</dc:format>
        <dc:type
           rdf:resource="http://purl.org/dc/dcmitype/StillImage" />
        <dc:title></dc:title>
      </cc:Work>
    </rdf:RDF>
  </metadata>
  <defs
     id="defs35" />
  <sodipodi:namedview
     pagecolor="#ffffff"
     bordercolor="#666666"
     borderopacity="1"
     objecttolerance="10"
     gridtolerance="10"
     guidetolerance="10"
     inkscape:pageopacity="0"
     inkscape:pageshadow="2"
     inkscape:window-width="1920"
     inkscape:window-height="1017"
     id="namedview33"
     showgrid="false"
     inkscape:zoom="1.6687553"
     inkscape:cx="299.1132"
     inkscape:cy="199.81542"
     inkscape:window-x="-8"
     inkscape:window-y="-8"
     inkscape:window-maximized="1"
     inkscape:current-layer="svg31"
     fit-margin-top="0"
     fit-margin-left="0"
     fit-margin-right="0"
     fit-margin-bottom="0" />
  <g
     id="g68"
     transform="translate(0,5e-6)">
    <g
       transform="translate(-94.41446,4.5e-5)"
       id="svg_3" />
    <g
       transform="translate(-94.41446,4.5e-5)"
       id="svg_4" />
    <g
       transform="translate(-94.41446,4.5e-5)"
       id="svg_5" />
    <g
       transform="translate(-94.41446,4.5e-5)"
       id="svg_6" />
    <g
       transform="translate(-94.41446,4.5e-5)"
       id="svg_7" />
    <g
       transform="translate(-94.41446,4.5e-5)"
       id="svg_8" />
    <g
       transform="translate(-94.41446,4.5e-5)"
       id="svg_9" />
    <g
       transform="translate(-94.41446,4.5e-5)"
       id="svg_10" />
    <g
       transform="translate(-94.41446,4.5e-5)"
       id="svg_11" />
    <g
       transform="translate(-94.41446,4.5e-5)"
       id="svg_12" />
    <g
       transform="translate(-94.41446,4.5e-5)"
       id="svg_13" />
    <g
       transform="translate(-94.41446,4.5e-5)"
       id="svg_14" />
    <g
       transform="translate(-94.41446,4.5e-5)"
       id="svg_15" />
    <g
       transform="translate(-94.41446,4.5e-5)"
       id="svg_16" />
    <g
       transform="translate(-94.41446,4.5e-5)"
       id="svg_17" />
    <path
       d="M 120.32151,382.68799 V 59.115995 l 65.70229,77.208995 c 5.75216,6.764 15.08326,6.764 20.83457,0 5.75557,-6.764 5.75557,-17.73 0,-24.484 L 116.00653,5.072995 c -5.75216,-6.764 -15.08411,-6.764 -20.83457,0 L 4.31587,111.84099 c -2.87864,3.381 -4.31583,7.812 -4.31583,12.242 0,4.43 1.43719,8.861 4.31583,12.242 5.75216,6.764 15.08326,6.764 20.83372,0 L 90.85529,59.115995 V 382.68799 c 0,9.562 6.59711,17.316 14.73353,17.316 8.13642,0 14.73269,-7.753 14.73269,-17.316 z"
       id="svg_2"
       stroke="null"
       inkscape:connector-curvature="0"
       style="fill:#000000" />
    <path
       d="m 120.32147,166.11603 65.70229,77.209 c 5.75216,6.764 15.08326,6.764 20.83457,0 5.75557,-6.764 5.75557,-17.73 0,-24.484 l -90.85184,-106.768 c -5.75216,-6.764 -15.08411,-6.764 -20.83457,0 L 4.31583,218.84103 C 1.43719,222.22203 0,226.65303 0,231.08303 c 0,4.43 1.43719,8.861 4.31583,12.242 5.75216,6.764 15.08326,6.764 20.83372,0 l 65.7057,-77.209 z"
       id="svg_18"
       stroke="null"
       inkscape:connector-curvature="0"
       style="fill:#000000" />
  </g>
</svg>
