<?xml version="1.0" encoding="UTF-8" standalone="no"?>
<svg
   xmlns:dc="http://purl.org/dc/elements/1.1/"
   xmlns:cc="http://creativecommons.org/ns#"
   xmlns:rdf="http://www.w3.org/1999/02/22-rdf-syntax-ns#"
   xmlns:svg="http://www.w3.org/2000/svg"
   xmlns="http://www.w3.org/2000/svg"
   xmlns:sodipodi="http://sodipodi.sourceforge.net/DTD/sodipodi-0.dtd"
   xmlns:inkscape="http://www.inkscape.org/namespaces/inkscape"
   width="145.1369"
   height="274.90161"
   viewBox="-1.018405 -1 211.18544 276.27336"
   version="1.1"
   id="svg32"
   sodipodi:docname="正冲.svg"
   inkscape:version="0.92.4 (5da689c313, 2019-01-14)">
  <metadata
     id="metadata38">
    <rdf:RDF>
      <cc:Work
         rdf:about="">
        <dc:format>image/svg+xml</dc:format>
        <dc:type
           rdf:resource="http://purl.org/dc/dcmitype/StillImage" />
        <dc:title></dc:title>
      </cc:Work>
    </rdf:RDF>
  </metadata>
  <defs
     id="defs36" />
  <sodipodi:namedview
     pagecolor="#ffffff"
     bordercolor="#666666"
     borderopacity="1"
     objecttolerance="10"
     gridtolerance="10"
     guidetolerance="10"
     inkscape:pageopacity="0"
     inkscape:pageshadow="2"
     inkscape:window-width="1920"
     inkscape:window-height="1017"
     id="namedview34"
     showgrid="false"
     inkscape:zoom="1.6687553"
     inkscape:cx="72.216236"
     inkscape:cy="87.725927"
     inkscape:window-x="-8"
     inkscape:window-y="-8"
     inkscape:window-maximized="1"
     inkscape:current-layer="svg32"
     fit-margin-top="0"
     fit-margin-left="0"
     fit-margin-right="0"
     fit-margin-bottom="0" />
  <g
     id="svg_3"
     transform="translate(-95.593081,-62.865278)" />
  <g
     id="svg_4"
     transform="translate(-95.593081,-62.865278)" />
  <g
     id="svg_5"
     transform="translate(-95.593081,-62.865278)" />
  <g
     id="svg_6"
     transform="translate(-95.593081,-62.865278)" />
  <g
     id="svg_7"
     transform="translate(-95.593081,-62.865278)" />
  <g
     id="svg_8"
     transform="translate(-95.593081,-62.865278)" />
  <g
     id="svg_9"
     transform="translate(-95.593081,-62.865278)" />
  <g
     id="svg_10"
     transform="translate(-95.593081,-62.865278)" />
  <g
     id="svg_11"
     transform="translate(-95.593081,-62.865278)" />
  <g
     id="svg_12"
     transform="translate(-95.593081,-62.865278)" />
  <g
     id="svg_13"
     transform="translate(-95.593081,-62.865278)" />
  <g
     id="svg_14"
     transform="translate(-95.593081,-62.865278)" />
  <g
     id="svg_15"
     transform="translate(-95.593081,-62.865278)" />
  <g
     id="svg_16"
     transform="translate(-95.593081,-62.865278)" />
  <g
     id="svg_17"
     transform="translate(-95.593081,-62.865278)" />
  <g
     id="g54"
     transform="translate(-1.4220757,26.945959)">
    <path
       d="M 90.71212,-72.463829 91.393935,251.10745 25.5291,174.03707 c -5.7664,-6.75187 -15.097479,-6.7322 -20.8345195,0.0439 -5.7413045,6.77611 -5.7181974,17.74209 0.051591,24.48395 L 95.822783,305.14124 c 5.766397,6.75186 15.098327,6.7322 20.834527,-0.0439 l 90.63091,-106.9592 c 2.87151,-3.38706 4.29936,-7.82108 4.29002,-12.25107 -0.009,-4.42999 -1.45586,-8.85795 -4.34161,-12.23288 -5.7664,-6.75186 -15.09748,-6.7322 -20.83368,0.0439 l -65.54286,77.34728 -0.68182,-323.571279 c -0.0201,-9.561979 -6.63358,-17.30206 -14.76998,-17.284916 -8.136403,0.01714 -14.716322,7.784027 -14.696171,17.347006 z"
       id="svg_2"
       stroke="null"
       inkscape:connector-curvature="0"
       style="fill:#000000" />
    <path
       d="m 120.47492,78.103126 66.01222,76.944184 c 5.77932,6.74081 15.11034,6.70329 20.83441,-0.0838 5.72832,-6.78709 5.68422,-17.753 -0.0985,-24.4838 L 115.94266,24.077914 c -5.77931,-6.740816 -15.11119,-6.703291 -20.834401,0.08378 L 4.6822288,131.29417 c -2.8650214,3.39255 -4.28438227,7.82929 -4.26656877,12.25926 0.0178135,4.42996 1.47280937,8.85514 4.36502147,12.22454 5.7793125,6.74082 15.1103365,6.7033 20.8335515,-0.0838 L 91.008936,78.221612 Z"
       id="svg_18"
       stroke="null"
       inkscape:connector-curvature="0"
       style="fill:#000000" />
  </g>
</svg>
