<?xml version="1.0" encoding="UTF-8" standalone="no"?>
<!-- Created with Inkscape (http://www.inkscape.org/) -->

<svg
   xmlns:dc="http://purl.org/dc/elements/1.1/"
   xmlns:cc="http://creativecommons.org/ns#"
   xmlns:rdf="http://www.w3.org/1999/02/22-rdf-syntax-ns#"
   xmlns:svg="http://www.w3.org/2000/svg"
   xmlns="http://www.w3.org/2000/svg"
   xmlns:sodipodi="http://sodipodi.sourceforge.net/DTD/sodipodi-0.dtd"
   xmlns:inkscape="http://www.inkscape.org/namespaces/inkscape"
   width="36.391571mm"
   height="40.016197mm"
   viewBox="0 0 36.391571 40.016197"
   version="1.1"
   id="svg952"
   inkscape:version="0.92.4 (5da689c313, 2019-01-14)"
   sodipodi:docname="生门.svg">
  <defs
     id="defs946" />
  <sodipodi:namedview
     id="base"
     pagecolor="#ffffff"
     bordercolor="#666666"
     borderopacity="1.0"
     inkscape:pageopacity="0.0"
     inkscape:pageshadow="2"
     inkscape:zoom="2.8"
     inkscape:cx="167.78645"
     inkscape:cy="78.10862"
     inkscape:document-units="mm"
     inkscape:current-layer="layer1"
     showgrid="false"
     fit-margin-top="0"
     fit-margin-left="0"
     fit-margin-right="0"
     fit-margin-bottom="0"
     inkscape:window-width="1920"
     inkscape:window-height="1009"
     inkscape:window-x="-8"
     inkscape:window-y="-8"
     inkscape:window-maximized="1" />
  <metadata
     id="metadata949">
    <rdf:RDF>
      <cc:Work
         rdf:about="">
        <dc:format>image/svg+xml</dc:format>
        <dc:type
           rdf:resource="http://purl.org/dc/dcmitype/StillImage" />
        <dc:title></dc:title>
      </cc:Work>
    </rdf:RDF>
  </metadata>
  <g
     inkscape:label="Layer 1"
     inkscape:groupmode="layer"
     id="layer1"
     transform="translate(-105.78041,-123.53357)">
    <g
       transform="matrix(0.26458333,0,0,0.26458333,47.227011,116.03925)"
       id="g907">
      <circle
         class="st0"
         cx="291.67999"
         cy="89.269997"
         r="60.57"
         id="circle6"
         style="fill:#ffffff;stroke:#604b3b;stroke-width:0.75;stroke-miterlimit:10" />
      <text
         y="177.9014"
         x="219.79691"
         id="text26">
        <tspan
           x="219.79691"
           y="177.9014"
           class="st2 st3 st4"
           id="tspan20"
           style="font-size:20.3083992px;font-family:FZYLHJW;fill:#4f4d4d">生</tspan>
        <tspan
           x="240.1069"
           y="177.9014"
           class="st2 st5 st4"
           id="tspan22"
           style="font-size:20.3083992px;font-family:PingFangTC-Medium-B5pc-H;fill:#4f4d4d">門</tspan>
        <tspan
           x="260.4169"
           y="177.9014"
           class="st2 st3 st6"
           id="tspan24"
           style="font-size:16.20980072px;font-family:FZYLHJW;fill:#4f4d4d">SHENG MEN</tspan>
      </text>
      <g
         id="g52">
        <g
           id="g38">
          <path
             class="st1"
             d="m 296.94,75.93 c 0,0 0,0 0,0 -0.7,0 -1.47,-0.17 -2.28,-0.34 -0.95,-0.21 -1.93,-0.42 -2.95,-0.42 -1.03,0 -2,0.21 -2.95,0.42 -0.81,0.18 -1.58,0.34 -2.28,0.34 -3.07,0 -3.07,-3.32 -3.07,-4.57 0,-0.79 -0.89,-2.53 -1.68,-4.06 -1.28,-2.49 -2.38,-4.63 -1.76,-5.96 0.99,-2.13 4.05,-2.13 5.06,-2.13 1.45,0 2.98,0.18 4.32,0.35 0.93,0.11 1.81,0.22 2.37,0.22 0.54,0 1.33,-0.08 2.24,-0.17 1.25,-0.13 2.66,-0.27 4.04,-0.27 1.14,0 4.62,0 5.64,2.41 0.52,1.22 -0.38,2.97 -1.88,5.72 -0.77,1.42 -1.74,3.18 -1.74,3.9 0,1.6 -0.23,2.68 -0.72,3.42 -0.51,0.75 -1.31,1.14 -2.36,1.14 z m -5.23,-2.59 c 1.24,0 2.38,0.25 3.38,0.46 0.7,0.15 1.37,0.3 1.85,0.3 v 0 c 0.5,0 0.63,-0.14 0.74,-0.31 0.19,-0.29 0.42,-0.94 0.42,-2.44 0,-1.17 0.9,-2.82 1.95,-4.74 0.74,-1.35 1.97,-3.61 1.8,-4.2 -0.36,-0.83 -1.66,-1.26 -3.86,-1.26 -1.28,0 -2.64,1.05 -3.84,1.17 -0.96,0.1 -1.8,0.18 -2.44,0.18 -0.67,0 -1.57,-0.11 -2.61,-0.23 -1.29,-0.16 -2.76,-1.25 -4.08,-1.25 -1.87,0 -2.98,0.35 -3.31,1.05 -0.24,0.58 1.05,3.07 1.73,4.41 0.97,1.88 1.88,3.65 1.88,4.86 0,2.74 0.7,2.74 1.16,2.74 0.49,0 1.15,-0.14 1.86,-0.3 0.99,-0.2 2.13,-0.44 3.37,-0.44 z"
             id="path36"
             inkscape:connector-curvature="0"
             style="fill:#501702" />
        </g>
        <path
           class="st1"
           d="m 291.68,76.68 c -14.18,0 -24.45,20.31 -24.45,34 0,15.7 13.07,17.71 24.45,17.71 11.39,0 24.45,-2.01 24.45,-17.71 0,-13.69 -10.27,-34 -24.45,-34 z m 3.04,39.31 c -0.99,0.29 -1.83,1.12 -1.83,2.02 v 1.19 c 0,0.9 -0.7,1.63 -1.56,1.63 -0.86,0 -1.56,-0.73 -1.56,-1.63 v -1.06 c 0,-0.9 -0.85,-1.63 -1.88,-1.75 -1.46,-0.17 -2.87,-0.51 -4.06,-0.96 -0.95,-0.36 -1.37,-1.43 -1.05,-2.22 0.33,-0.79 1.3,-1.02 2.24,-0.64 1.57,0.62 3.48,1.05 5.48,1.05 3.51,0 5.89,-1.75 5.89,-4.19 0,-2.35 -1.93,-3.8 -5.59,-5.08 -5.05,-1.71 -8.17,-3.67 -8.17,-7.39 0,-3.04 2.15,-5.46 5.64,-6.49 0.99,-0.29 1.83,-1.12 1.83,-2.02 v -1.06 c 0,-0.9 0.69,-1.63 1.54,-1.63 0.84,0 1.54,0.73 1.54,1.63 v 0.89 c 0,0.9 0.84,1.64 1.87,1.77 1.11,0.14 2.06,0.37 2.87,0.65 0.97,0.33 1.41,1.34 1.07,2.12 -0.34,0.78 -1.34,1.03 -2.31,0.69 -1.11,-0.39 -2.62,-0.73 -4.55,-0.73 -3.81,0 -5.25,1.96 -5.25,3.67 0,2.22 1.83,3.33 6.14,4.87 5.1,1.8 7.68,4.01 7.68,7.82 0.01,2.92 -2.06,5.71 -5.98,6.85 z"
           id="path40"
           inkscape:connector-curvature="0"
           style="fill:#501702" />
        <g
           id="g50">
          <path
             class="st1"
             d="m 267.88,65.45 c 0,1.17 0,4.28 2.87,4.28 0.66,0 1.37,-0.16 2.13,-0.32 0.88,-0.19 1.8,-0.39 2.76,-0.39 0.96,0 1.87,0.2 2.76,0.39 0.2,0.04 0.38,0.08 0.58,0.12 -0.04,-0.07 -0.08,-0.15 -0.11,-0.22 -0.3,-0.58 -0.6,-1.16 -0.88,-1.74 -0.73,-0.14 -1.51,-0.26 -2.35,-0.26 -1.16,0 -2.22,0.23 -3.15,0.43 -0.66,0.14 -1.28,0.28 -1.73,0.28 -0.43,0 -1.08,0 -1.08,-2.57 0,-1.13 -0.85,-2.79 -1.75,-4.55 -0.64,-1.25 -1.84,-3.58 -1.62,-4.12 0.31,-0.65 1.34,-0.98 3.09,-0.98 1.24,0 2.61,1.02 3.82,1.17 0.97,0.12 1.81,0.22 2.43,0.22 0.6,0 1.38,-0.08 2.28,-0.17 1.13,-0.11 2.4,-1.1 3.59,-1.1 1.5,0 2.54,0.21 3.13,0.63 0.13,0 0.24,-0.02 0.37,-0.02 0.6,0 1.21,0.03 1.81,0.08 -0.01,-0.05 -0.02,-0.1 -0.04,-0.14 -0.96,-2.25 -4.21,-2.25 -5.27,-2.25 -1.29,0 -2.61,0.13 -3.78,0.25 -0.85,0.09 -1.59,0.16 -2.1,0.16 -0.52,0 -1.34,-0.1 -2.21,-0.2 -1.26,-0.15 -2.69,-0.33 -4.04,-0.33 -0.94,0 -3.8,0 -4.73,1.99 -0.58,1.24 0.45,3.25 1.65,5.57 0.74,1.42 1.57,3.05 1.57,3.79 z"
             id="path42"
             inkscape:connector-curvature="0"
             style="fill:#501702" />
          <path
             class="st1"
             d="m 297.99,56.65 c 0.17,0 0.33,0.02 0.5,0.02 0.37,-0.58 1.38,-0.87 3.02,-0.87 1.24,0 2.61,1.02 3.82,1.17 0.97,0.12 1.81,0.22 2.43,0.22 0.6,0 1.38,-0.08 2.28,-0.17 1.13,-0.11 2.4,-1.1 3.59,-1.1 2.06,0 3.28,0.4 3.61,1.18 0.16,0.54 -1,2.66 -1.69,3.92 -0.98,1.79 -1.83,3.34 -1.83,4.43 0,1.4 -0.21,2.01 -0.39,2.28 -0.11,0.16 -0.23,0.29 -0.69,0.29 -0.45,0 -1.07,-0.13 -1.73,-0.28 -0.93,-0.2 -2,-0.43 -3.16,-0.43 -0.76,0 -1.47,0.1 -2.13,0.23 -0.32,0.64 -0.68,1.29 -1.04,1.96 0.14,-0.03 0.27,-0.05 0.42,-0.08 0.88,-0.19 1.8,-0.39 2.76,-0.39 0.96,0 1.87,0.2 2.76,0.39 0.76,0.16 1.47,0.32 2.13,0.32 0.99,0 1.73,-0.36 2.21,-1.08 0.46,-0.69 0.67,-1.7 0.67,-3.19 0,-0.67 0.9,-2.32 1.63,-3.64 1.41,-2.57 2.25,-4.21 1.76,-5.35 -0.96,-2.25 -4.21,-2.25 -5.27,-2.25 -1.29,0 -2.61,0.13 -3.78,0.25 -0.85,0.09 -1.59,0.16 -2.1,0.16 -0.52,0 -1.34,-0.1 -2.21,-0.2 -1.26,-0.15 -2.69,-0.33 -4.04,-0.33 -0.94,0 -3.8,0 -4.73,1.99 -0.09,0.19 -0.13,0.4 -0.15,0.62 0.45,-0.04 0.89,-0.07 1.35,-0.07 z"
             id="path44"
             inkscape:connector-curvature="0"
             style="fill:#501702" />
          <path
             class="st1"
             d="m 307.74,70.43 c -1.36,0 -2.69,0.21 -3.97,0.59 -0.24,0.46 -0.45,0.9 -0.55,1.18 -0.01,0.58 -0.05,1.11 -0.12,1.61 1.49,-0.65 3.04,-1.02 4.64,-1.02 11.25,0 20.38,17.8 20.38,29.42 0,6.7 -2.78,10.26 -8.94,11.89 -0.13,1.29 -0.35,2.48 -0.64,3.59 6.7,-1.67 12.05,-5.77 12.05,-15.48 0,-12.8 -9.59,-31.78 -22.85,-31.78 z"
             id="path46"
             inkscape:connector-curvature="0"
             style="fill:#501702" />
          <path
             class="st1"
             d="m 264.17,114.09 c -6.16,-1.62 -8.94,-5.19 -8.94,-11.89 0,-11.62 9.13,-29.42 20.38,-29.42 1.62,0 3.2,0.38 4.71,1.05 -0.08,-0.53 -0.13,-1.1 -0.14,-1.72 -0.07,-0.24 -0.24,-0.62 -0.44,-1.05 -1.33,-0.41 -2.71,-0.64 -4.13,-0.64 -13.26,0 -22.85,18.98 -22.85,31.78 0,9.71 5.35,13.81 12.05,15.48 -0.29,-1.1 -0.51,-2.3 -0.64,-3.59 z"
             id="path48"
             inkscape:connector-curvature="0"
             style="fill:#501702" />
        </g>
      </g>
    </g>
  </g>
</svg>
