<?xml version="1.0" encoding="UTF-8" standalone="no"?>
<svg
   xmlns:dc="http://purl.org/dc/elements/1.1/"
   xmlns:cc="http://creativecommons.org/ns#"
   xmlns:rdf="http://www.w3.org/1999/02/22-rdf-syntax-ns#"
   xmlns:svg="http://www.w3.org/2000/svg"
   xmlns="http://www.w3.org/2000/svg"
   xmlns:sodipodi="http://sodipodi.sourceforge.net/DTD/sodipodi-0.dtd"
   xmlns:inkscape="http://www.inkscape.org/namespaces/inkscape"
   width="145.20906"
   height="274.91959"
   viewBox="-1 -1 211.27707 276.29142"
   version="1.1"
   id="svg32"
   sodipodi:docname="背冲.svg"
   inkscape:version="0.92.4 (5da689c313, 2019-01-14)">
  <metadata
     id="metadata38">
    <rdf:RDF>
      <cc:Work
         rdf:about="">
        <dc:format>image/svg+xml</dc:format>
        <dc:type
           rdf:resource="http://purl.org/dc/dcmitype/StillImage" />
        <dc:title></dc:title>
      </cc:Work>
    </rdf:RDF>
  </metadata>
  <defs
     id="defs36" />
  <sodipodi:namedview
     pagecolor="#ffffff"
     bordercolor="#666666"
     borderopacity="1"
     objecttolerance="10"
     gridtolerance="10"
     guidetolerance="10"
     inkscape:pageopacity="0"
     inkscape:pageshadow="2"
     inkscape:window-width="1920"
     inkscape:window-height="1017"
     id="namedview34"
     showgrid="false"
     inkscape:zoom="1.6687553"
     inkscape:cx="173.82294"
     inkscape:cy="53.805972"
     inkscape:window-x="-8"
     inkscape:window-y="-8"
     inkscape:window-maximized="1"
     inkscape:current-layer="svg32"
     fit-margin-top="0"
     fit-margin-left="0"
     fit-margin-right="0"
     fit-margin-bottom="0" />
  <g
     id="g54"
     transform="translate(-3.1708853e-8,5.0679218e-6)">
    <path
       d="M 119.42354,319.8317 V -3.740295 L 185.12583,73.4687 c 5.75216,6.764 15.08326,6.764 20.83457,0 5.75557,-6.764 5.75557,-17.73 0,-24.484 L 115.10856,-57.783295 c -5.75216,-6.764 -15.08411,-6.764 -20.83457,0 L 3.4179,48.9847 c -2.87864001,3.381 -4.31583001,7.812 -4.31583001,12.242 0,4.43 1.43719,8.861 4.31583001,12.242 5.7521601,6.764 15.08326,6.764 20.83372,0 L 89.95732,-3.740295 V 319.8317 c 0,9.562 6.59711,17.316 14.73353,17.316 8.13642,0 14.73269,-7.753 14.73269,-17.316 z"
       id="svg_2"
       stroke="null"
       inkscape:connector-curvature="0"
       style="fill:#000000" />
    <path
       d="M 89.977747,169.20226 24.127801,92.119153 C 18.362706,85.366174 9.0316227,85.384034 3.2932692,92.159029 -2.4493442,98.934033 -2.4283557,109.90001 3.3401307,116.64298 L 94.396155,223.2369 c 5.765095,6.75298 15.097025,6.73512 20.834535,-0.0399 l 90.65157,-106.9417 c 2.87216,-3.38651 4.30087,-7.82025 4.29239,-12.25024 -0.008,-4.429994 -1.45414,-8.858235 -4.33925,-12.233719 -5.7651,-6.752979 -15.09618,-6.735119 -20.83368,0.03987 l -65.55781,77.334609 z"
       id="svg_18"
       stroke="null"
       inkscape:connector-curvature="0"
       style="fill:#000000" />
  </g>
</svg>
