<?xml version="1.0" encoding="UTF-8" standalone="no"?>
<svg
   xmlns:dc="http://purl.org/dc/elements/1.1/"
   xmlns:cc="http://creativecommons.org/ns#"
   xmlns:rdf="http://www.w3.org/1999/02/22-rdf-syntax-ns#"
   xmlns:svg="http://www.w3.org/2000/svg"
   xmlns="http://www.w3.org/2000/svg"
   xmlns:sodipodi="http://sodipodi.sourceforge.net/DTD/sodipodi-0.dtd"
   xmlns:inkscape="http://www.inkscape.org/namespaces/inkscape"
   width="211.175"
   height="399.15652"
   version="1.1"
   id="svg28"
   sodipodi:docname="退茹.svg"
   inkscape:version="0.92.4 (5da689c313, 2019-01-14)">
  <metadata
     id="metadata34">
    <rdf:RDF>
      <cc:Work
         rdf:about="">
        <dc:format>image/svg+xml</dc:format>
        <dc:type
           rdf:resource="http://purl.org/dc/dcmitype/StillImage" />
        <dc:title></dc:title>
      </cc:Work>
    </rdf:RDF>
  </metadata>
  <defs
     id="defs32" />
  <sodipodi:namedview
     pagecolor="#ffffff"
     bordercolor="#666666"
     borderopacity="1"
     objecttolerance="10"
     gridtolerance="10"
     guidetolerance="10"
     inkscape:pageopacity="0"
     inkscape:pageshadow="2"
     inkscape:window-width="1920"
     inkscape:window-height="1017"
     id="namedview30"
     showgrid="false"
     inkscape:zoom="1.1799882"
     inkscape:cx="417.9101"
     inkscape:cy="60.334396"
     inkscape:window-x="-8"
     inkscape:window-y="-8"
     inkscape:window-maximized="1"
     inkscape:current-layer="svg28"
     fit-margin-top="0"
     fit-margin-left="0"
     fit-margin-right="0"
     fit-margin-bottom="0" />
  <g
     id="g26"
     transform="matrix(1,0,0,0.99788136,-94.414478,0)">
    <title
       id="title7">Layer 1</title>
    <g
       transform="rotate(-90,200.00198,200.00201)"
       stroke="null"
       id="svg_1">
      <path
         stroke="null"
         id="svg_2"
         d="M 382.68799,185.26805 H 59.115987 l 77.209003,-65.7023 c 6.764,-5.75216 6.764,-15.08325 0,-20.834567 -6.764,-5.755567 -17.73,-5.755567 -24.484,0 L 5.072987,189.58302 c -6.764,5.75217 -6.764,15.08411 0,20.83457 l 106.768003,90.8561 c 3.381,2.87863 7.812,4.31582 12.242,4.31582 4.43,0 8.861,-1.43719 12.242,-4.31582 6.764,-5.75216 6.764,-15.08326 0,-20.83372 L 59.115987,214.73427 H 382.68799 c 9.562,0 17.316,-6.59712 17.316,-14.73354 0,-8.13641 -7.753,-14.73268 -17.316,-14.73268 z"
         inkscape:connector-curvature="0" />
    </g>
    <g
       id="svg_3" />
    <g
       id="svg_4" />
    <g
       id="svg_5" />
    <g
       id="svg_6" />
    <g
       id="svg_7" />
    <g
       id="svg_8" />
    <g
       id="svg_9" />
    <g
       id="svg_10" />
    <g
       id="svg_11" />
    <g
       id="svg_12" />
    <g
       id="svg_13" />
    <g
       id="svg_14" />
    <g
       id="svg_15" />
    <g
       id="svg_16" />
    <g
       id="svg_17" />
  </g>
</svg>
