<?xml version="1.0" encoding="UTF-8" standalone="no"?>
<!-- Created with Inkscape (http://www.inkscape.org/) -->

<svg
   xmlns:dc="http://purl.org/dc/elements/1.1/"
   xmlns:cc="http://creativecommons.org/ns#"
   xmlns:rdf="http://www.w3.org/1999/02/22-rdf-syntax-ns#"
   xmlns:svg="http://www.w3.org/2000/svg"
   xmlns="http://www.w3.org/2000/svg"
   xmlns:sodipodi="http://sodipodi.sourceforge.net/DTD/sodipodi-0.dtd"
   xmlns:inkscape="http://www.inkscape.org/namespaces/inkscape"
   width="33.70562mm"
   height="34.112293mm"
   viewBox="0 0 33.70562 34.112293"
   version="1.1"
   id="svg4590"
   inkscape:version="0.92.4 (5da689c313, 2019-01-14)"
   sodipodi:docname="cow.svg">
  <defs
     id="defs4584" />
  <sodipodi:namedview
     id="base"
     pagecolor="#ffffff"
     bordercolor="#666666"
     borderopacity="1.0"
     inkscape:pageopacity="0.0"
     inkscape:pageshadow="2"
     inkscape:zoom="0.35"
     inkscape:cx="192.26709"
     inkscape:cy="301.60704"
     inkscape:document-units="mm"
     inkscape:current-layer="layer1"
     showgrid="false"
     fit-margin-top="0"
     fit-margin-left="0"
     fit-margin-right="0"
     fit-margin-bottom="0"
     inkscape:window-width="1920"
     inkscape:window-height="1017"
     inkscape:window-x="1912"
     inkscape:window-y="-8"
     inkscape:window-maximized="1" />
  <metadata
     id="metadata4587">
    <rdf:RDF>
      <cc:Work
         rdf:about="">
        <dc:format>image/svg+xml</dc:format>
        <dc:type
           rdf:resource="http://purl.org/dc/dcmitype/StillImage" />
        <dc:title></dc:title>
      </cc:Work>
    </rdf:RDF>
  </metadata>
  <g
     inkscape:label="Layer 1"
     inkscape:groupmode="layer"
     id="layer1"
     transform="translate(-54.962666,-194.52124)">
    <path
       style="fill:#000000;stroke:none;stroke-width:0.03527778"
       inkscape:connector-curvature="0"
       id="path4"
       d="m 61.940195,194.93136 c -0.246945,0.24695 -0.423334,0.88195 -0.423334,1.41111 0,0.91722 -0.07055,0.98778 -0.9525,0.74084 -1.905,-0.45862 -2.398889,-0.35278 -2.504722,0.70555 -0.105833,0.77611 0.07056,1.05833 0.917222,1.41111 l 1.058334,0.42334 -1.058334,1.5875 c -0.599722,0.88194 -1.658055,2.2225 -2.398889,3.03388 -1.622778,1.76389 -1.975555,3.13973 -1.27,4.86834 0.987778,2.36361 3.739445,3.28083 6.420556,2.15194 0.705556,-0.28222 1.375834,-0.45861 1.552222,-0.35278 0.141112,0.0706 0.352778,1.65806 0.458612,3.52778 0.141111,2.36361 0.423333,3.81 0.917222,4.86834 0.917222,1.905 1.023055,5.50333 0.176389,6.77333 -0.599722,0.91722 -0.282222,2.04611 0.740833,2.43417 1.446389,0.52916 2.645833,-1.12889 1.799167,-2.43417 -0.352778,-0.52917 -0.564445,-1.65806 -0.564445,-2.96333 v -2.08139 l 0.987778,0.24694 c 0.881944,0.24695 0.9525,0.42334 1.058333,2.32834 0.07056,1.12888 -0.07056,2.2225 -0.246944,2.39889 -0.599722,0.59972 -0.458611,1.48166 0.3175,2.18722 1.023056,0.9525 2.469445,0.24694 2.469445,-1.19945 0,-0.56444 -0.141112,-1.16416 -0.352778,-1.27 -0.176389,-0.10583 -0.352778,-1.09361 -0.352778,-2.15194 v -1.905 h 2.081389 c 1.128889,0 3.033889,-0.10584 4.233334,-0.21167 l 2.151944,-0.24694 v 2.11666 c 0,1.48167 -0.176389,2.25778 -0.529167,2.57528 -1.305277,1.09361 0.388056,3.31611 1.905,2.46945 0.776111,-0.38806 1.058333,-2.2225 0.388056,-2.64584 -0.176389,-0.10583 -0.352778,-1.30528 -0.352778,-2.68111 0,-1.86972 0.105833,-2.43417 0.493889,-2.43417 0.282222,0 0.740833,-0.10583 1.058333,-0.21166 0.49389,-0.17639 0.564446,0.17639 0.564446,2.43416 0,1.48167 -0.141113,2.78695 -0.352779,2.89278 -0.176388,0.10584 -0.352777,0.70556 -0.352777,1.27 0,1.44639 1.446389,2.15195 2.469443,1.19945 0.740834,-0.67028 0.917223,-1.76389 0.35278,-2.11667 -0.211667,-0.10583 -0.35278,-1.72861 -0.35278,-3.63361 0.03528,-5.57389 1.340557,-9.45445 1.5875,-4.69195 0.03528,0.88195 0.105834,1.72862 0.141113,1.83445 0.07055,0.42333 1.340554,0.56444 1.940277,0.24694 0.705556,-0.38805 0.740833,-2.01083 0.07056,-2.25777 -0.282223,-0.10584 -0.881946,-1.79917 -1.446389,-4.12751 -0.529167,-2.18722 -1.164167,-4.30388 -1.44639,-4.72722 -0.811387,-1.30528 -2.610554,-1.62278 -7.902222,-1.37583 l -4.833056,0.24694 -0.740833,-2.57527 c -0.987778,-3.24556 -0.987778,-3.45723 0.141111,-3.45723 1.375833,0 2.257778,-0.635 2.257778,-1.62277 0,-0.88195 -0.07056,-0.91723 -1.905,-0.77612 l -1.905,0.10584 1.023055,-1.16417 c 1.093611,-1.19944 1.27,-2.15194 0.635,-2.78694 -0.599722,-0.59973 -1.375833,-0.14111 -1.375833,0.81139 0,1.27 -1.446389,2.08138 -2.8575,1.5875 -0.635,-0.21167 -1.799167,-0.38806 -2.610556,-0.38806 -1.728611,0 -2.645833,-0.74083 -1.940278,-1.5875 0.776108,-0.9525 -0.423337,-1.72861 -1.340559,-0.81139 z m 3.598333,4.7625 c -1.905,2.92806 -2.081389,4.58611 -0.635,5.715 0.740833,0.56445 1.446389,0.74083 3.210278,0.74083 h 2.257778 l 0.529167,1.27 c 0.282222,0.70556 0.811389,1.34056 1.199444,1.44639 0.493889,0.14111 0.635,0.49389 0.564445,1.86973 -0.03528,1.94027 0.776111,3.10444 2.998611,4.23333 1.411111,0.74083 5.715,1.41111 7.126112,1.16417 0.881944,-0.17639 0.917221,-0.14112 0.599721,0.9525 -0.423333,1.44639 -0.282221,1.37583 -2.504722,1.94027 -4.268611,1.12889 -9.454445,1.37584 -13.158612,0.635 l -1.058333,-0.17638 1.058333,-0.52917 c 2.610556,-1.37583 3.210278,-2.82222 1.905001,-4.93889 -0.776112,-1.30528 -1.869723,-2.04611 -3.421945,-2.39889 -0.987778,-0.21167 -1.128889,-0.38806 -1.234722,-1.51694 -0.07056,-1.05834 -0.282222,-1.34056 -0.881945,-1.41112 -0.529166,-0.0706 -0.811389,-0.35277 -0.811389,-0.84666 0,-1.05834 -0.846666,-0.56445 -0.987777,0.56444 -0.105834,0.74084 -0.423334,1.09361 -1.305278,1.48167 -1.658056,0.67028 -2.081389,0.635 -3.316112,-0.42333 -1.516944,-1.27 -1.446388,-2.46945 0.246945,-4.37445 0.987778,-1.09361 1.658056,-1.55222 2.54,-1.65805 1.411111,-0.14112 2.928056,-1.44639 3.915834,-3.38667 0.388055,-0.70556 0.952499,-1.30528 1.234722,-1.30528 0.493889,0 0.493889,0.10583 -0.07056,0.9525 z" />
  </g>
</svg>
