<?xml version="1.0" encoding="UTF-8" standalone="no"?>
<!-- Created with Inkscape (http://www.inkscape.org/) -->

<svg
   xmlns:dc="http://purl.org/dc/elements/1.1/"
   xmlns:cc="http://creativecommons.org/ns#"
   xmlns:rdf="http://www.w3.org/1999/02/22-rdf-syntax-ns#"
   xmlns:svg="http://www.w3.org/2000/svg"
   xmlns="http://www.w3.org/2000/svg"
   xmlns:sodipodi="http://sodipodi.sourceforge.net/DTD/sodipodi-0.dtd"
   xmlns:inkscape="http://www.inkscape.org/namespaces/inkscape"
   width="27.822958mm"
   height="22.919298mm"
   viewBox="0 0 27.822958 22.919298"
   version="1.1"
   id="svg4814"
   inkscape:version="0.92.4 (5da689c313, 2019-01-14)"
   sodipodi:docname="dog.svg">
  <defs
     id="defs4808" />
  <sodipodi:namedview
     id="base"
     pagecolor="#ffffff"
     bordercolor="#666666"
     borderopacity="1.0"
     inkscape:pageopacity="0.0"
     inkscape:pageshadow="2"
     inkscape:zoom="0.35"
     inkscape:cx="-138.84976"
     inkscape:cy="151.88332"
     inkscape:document-units="mm"
     inkscape:current-layer="layer1"
     showgrid="false"
     fit-margin-top="0"
     fit-margin-left="0"
     fit-margin-right="0"
     fit-margin-bottom="0"
     inkscape:window-width="1920"
     inkscape:window-height="1017"
     inkscape:window-x="1912"
     inkscape:window-y="-8"
     inkscape:window-maximized="1" />
  <metadata
     id="metadata4811">
    <rdf:RDF>
      <cc:Work
         rdf:about="">
        <dc:format>image/svg+xml</dc:format>
        <dc:type
           rdf:resource="http://purl.org/dc/dcmitype/StillImage" />
        <dc:title></dc:title>
      </cc:Work>
    </rdf:RDF>
  </metadata>
  <g
     inkscape:label="Layer 1"
     inkscape:groupmode="layer"
     id="layer1"
     transform="translate(-142.57066,-166.09983)">
    <path
       style="fill:#000000;stroke:none;stroke-width:0.03527778"
       inkscape:connector-curvature="0"
       id="path24"
       d="m 153.51192,168.04018 c -0.77611,1.905 -0.84667,1.94028 -2.18722,1.94028 -1.72861,0 -3.06917,0.67027 -4.40972,2.18722 -0.56445,0.635 -1.51695,1.41111 -2.04611,1.69333 -2.01084,1.02306 -2.89278,3.66889 -1.86973,5.64445 0.70556,1.37583 2.68111,2.54 4.1275,2.39889 0.67028,-0.10584 1.62278,0.0353 2.11667,0.3175 0.49389,0.24694 1.16417,0.45861 1.48167,0.45861 1.79916,0 0.0353,2.08139 -2.04611,2.43416 -1.55223,0.24695 -2.25778,1.12889 -1.69334,2.04611 0.52917,0.88195 1.72861,0.98778 2.32834,0.21167 0.24694,-0.35278 1.12888,-1.09361 1.97555,-1.62278 0.81139,-0.52916 1.48167,-1.12889 1.48167,-1.30527 0,-0.42334 1.30528,-0.45862 1.55222,-0.0353 0.24695,0.38805 -1.16417,1.65805 -2.15194,1.94027 -0.9525,0.28223 -1.37584,1.48167 -0.81139,2.15195 0.59972,0.74083 2.08139,0.67028 2.36361,-0.10583 0.14111,-0.3175 0.81139,-1.27 1.48167,-2.11667 l 1.23472,-1.48167 h 2.50472 c 2.68111,0 2.43417,-0.17639 4.30389,2.92806 0.59972,1.02305 1.23472,1.30528 1.94028,0.91722 1.09361,-0.56444 0.77611,-1.94028 -0.59973,-2.75167 -1.34055,-0.77611 -1.62277,-1.44639 -0.59972,-1.44639 0.35278,0 1.48167,0.81139 2.54,1.76389 2.01084,1.86973 2.96334,2.11667 3.66889,0.9525 0.56445,-0.91722 -0.14111,-1.83444 -1.51694,-1.83444 -0.59973,-0.0353 -1.34056,-0.28222 -1.65806,-0.59972 -0.52917,-0.52917 -0.52917,-0.70556 0.0353,-2.18723 0.56445,-1.48166 0.56445,-3.03389 -0.0353,-4.55083 -0.0706,-0.24694 0.21167,-0.59972 0.635,-0.77611 1.02306,-0.45861 1.83445,-2.08139 1.55222,-3.175 -0.24694,-1.02306 -1.37583,-2.15195 -2.39889,-2.39889 -0.52916,-0.14111 -0.635,-0.0705 -0.45861,0.38806 0.52917,1.27 0.59973,2.2225 0.21167,3.21027 -0.42333,0.98778 -0.52917,0.98778 -3.66889,1.19945 -1.79917,0.0706 -3.4925,0.28222 -3.84528,0.42333 -0.84666,0.35278 -1.23472,-2.25778 -0.49389,-3.59833 0.38806,-0.70556 0.52917,-0.81139 0.56445,-0.38806 0,0.67028 0.35278,0.74084 2.04611,0.42334 l 1.09361,-0.21167 -0.91722,-1.65805 c -1.5875,-2.75167 -1.5875,-2.78695 -3.42195,-1.27 -1.65805,1.34055 -2.32833,1.37583 -2.32833,0.0705 0,-0.635 0.0706,-0.67028 0.35278,-0.24694 0.28222,0.45861 0.45861,0.42333 1.30528,-0.21167 0.52916,-0.42333 0.98777,-0.91722 0.98777,-1.12889 0,-0.38805 -3.10444,-2.54 -3.66888,-2.54 -0.14112,0 -0.635,0.88195 -1.05834,1.94028 z m 0.24695,3.84528 c 2.18722,1.12889 3.31611,3.45722 2.75166,5.64444 -0.52916,2.18722 -3.38666,4.09222 -5.3975,3.56306 -0.81139,-0.21167 -0.84666,-0.24695 -0.3175,-0.84667 0.3175,-0.35278 0.56445,-0.88194 0.56445,-1.19944 0,-0.81139 -0.91723,-0.77612 -1.16417,0.0706 -0.10583,0.49388 -0.635,0.70555 -2.08139,0.88194 -2.32833,0.28222 -2.96333,0.0706 -3.66889,-1.27 -0.52916,-1.02306 -0.52916,-1.05833 0.17639,-0.81139 1.5875,0.49389 2.89278,-1.41111 1.72861,-2.57528 -0.3175,-0.3175 -0.28222,-0.42333 0.17639,-0.42333 0.35278,0 0.74083,-0.35278 0.91722,-0.81139 0.84667,-2.2225 4.1275,-3.35139 6.31473,-2.2225 z m 11.71222,6.52639 c 0.42333,0.81138 0.45861,3.21027 0.0705,3.77472 -0.49389,0.70555 -1.62278,0.88194 -5.96195,0.88194 -5.22111,0 -6.0325,-0.28222 -4.19805,-1.41111 0.70555,-0.45861 1.51694,-1.27 1.79917,-1.83444 0.52916,-1.02306 0.81138,-1.12889 3.70416,-1.69334 2.82223,-0.56444 4.16278,-0.45861 4.58611,0.28223 z" />
  </g>
</svg>
