<?xml version="1.0" encoding="UTF-8" standalone="no"?>
<!-- Created with Inkscape (http://www.inkscape.org/) -->

<svg
   xmlns:dc="http://purl.org/dc/elements/1.1/"
   xmlns:cc="http://creativecommons.org/ns#"
   xmlns:rdf="http://www.w3.org/1999/02/22-rdf-syntax-ns#"
   xmlns:svg="http://www.w3.org/2000/svg"
   xmlns="http://www.w3.org/2000/svg"
   xmlns:sodipodi="http://sodipodi.sourceforge.net/DTD/sodipodi-0.dtd"
   xmlns:inkscape="http://www.inkscape.org/namespaces/inkscape"
   width="27.442493mm"
   height="34.302956mm"
   viewBox="0 0 27.442493 34.302956"
   version="1.1"
   id="svg4668"
   inkscape:version="0.92.4 (5da689c313, 2019-01-14)"
   sodipodi:docname="sheep.svg">
  <defs
     id="defs4662" />
  <sodipodi:namedview
     id="base"
     pagecolor="#ffffff"
     bordercolor="#666666"
     borderopacity="1.0"
     inkscape:pageopacity="0.0"
     inkscape:pageshadow="2"
     inkscape:zoom="0.35"
     inkscape:cx="351.85985"
     inkscape:cy="-6.6042066"
     inkscape:document-units="mm"
     inkscape:current-layer="layer1"
     showgrid="false"
     fit-margin-top="0"
     fit-margin-left="0"
     fit-margin-right="0"
     fit-margin-bottom="0"
     inkscape:window-width="1920"
     inkscape:window-height="1017"
     inkscape:window-x="1912"
     inkscape:window-y="-8"
     inkscape:window-maximized="1" />
  <metadata
     id="metadata4665">
    <rdf:RDF>
      <cc:Work
         rdf:about="">
        <dc:format>image/svg+xml</dc:format>
        <dc:type
           rdf:resource="http://purl.org/dc/dcmitype/StillImage" />
        <dc:title></dc:title>
      </cc:Work>
    </rdf:RDF>
  </metadata>
  <g
     inkscape:label="Layer 1"
     inkscape:groupmode="layer"
     id="layer1"
     transform="translate(-12.737082,-112.78301)">
    <path
       style="fill:#000000;stroke:none;stroke-width:0.03527778"
       inkscape:connector-curvature="0"
       id="path12"
       d="m 22.152647,113.22185 c 0,0.42333 -0.211667,0.52917 -0.846667,0.35278 -1.234723,-0.28222 -1.411111,0.38805 -0.388056,1.37583 0.9525,0.84667 0.917222,1.79917 -0.03528,2.15195 -0.352777,0.14111 -0.917222,-0.35278 -1.658055,-1.41111 l -1.128889,-1.62278 -0.3175,1.09361 c -0.211667,0.74083 -0.176389,1.41111 0.105833,2.01083 0.352778,0.77611 0.282222,1.05834 -0.388055,1.97556 -2.116667,2.82222 -3.810001,3.88055 -3.810001,2.36361 0,-0.38806 -0.176389,-0.67028 -0.423333,-0.59972 -0.670278,0.24694 -0.705556,0.88194 -0.07056,1.51694 0.388056,0.35278 0.670278,1.23472 0.705556,2.15195 0.07056,1.86972 0.811389,2.82222 2.610556,3.35139 l 1.305278,0.38805 -1.093612,2.01083 c -0.987777,1.76389 -1.093611,2.25778 -1.023055,4.79778 0,1.55222 0.141111,4.02167 0.282222,5.50334 0.211667,2.25778 0.141111,2.8575 -0.352778,3.63361 -0.811389,1.19944 -0.282222,2.68111 0.9525,2.68111 1.552223,0 2.328334,-1.23472 1.516945,-2.36361 -0.282222,-0.35278 -0.529167,-1.16417 -0.529167,-1.79917 v -1.16417 l 1.023056,0.70556 c 0.529166,0.38806 1.411111,0.88195 1.940278,1.09361 0.917222,0.3175 0.917222,0.38806 0.388055,1.19945 -0.670278,1.02305 -0.282222,2.11666 0.881945,2.43416 1.27,0.3175 2.786944,-1.76389 1.763889,-2.39889 -0.776111,-0.45861 -0.282223,-0.70555 1.622778,-0.77611 1.093611,-0.0706 2.504722,-0.24694 3.175,-0.42333 0.9525,-0.24694 1.199444,-0.21167 1.199444,0.14111 0,0.28222 -0.141111,0.59972 -0.352777,0.70556 -0.493889,0.3175 -0.458612,1.69333 0.07055,2.2225 0.529167,0.52916 1.799167,0.52916 2.328334,0 0.529166,-0.52917 0.564444,-1.905 0.07055,-2.2225 -0.176389,-0.10584 -0.352778,-0.635 -0.352778,-1.16417 0,-0.67028 0.282223,-1.12889 1.058334,-1.55222 l 1.058333,-0.59973 v 1.55223 c 0,0.84666 -0.141111,1.65805 -0.352778,1.76389 -0.564444,0.35277 -0.423333,2.18722 0.211667,2.43416 1.869722,0.70556 3.210278,-0.77611 2.116667,-2.39889 -0.811389,-1.27 -0.740834,-4.445 0.105833,-5.92666 0.388056,-0.635 1.023056,-2.64584 1.411111,-4.48028 0.670278,-3.06917 1.093612,-4.09222 2.645832,-6.45584 l 0.599724,-0.91722 -1.516944,0.3175 c -2.434167,0.56445 -3.633612,1.30528 -6.632223,4.05695 -2.822222,2.61055 -3.81,3.13972 -5.326945,2.8575 -0.776111,-0.14111 -0.740833,-0.17639 0.282222,-0.42334 0.635,-0.14111 1.164167,-0.52916 1.27,-0.91722 0.105834,-0.38805 0.635,-0.88194 1.199445,-1.12889 0.599722,-0.21166 0.987778,-0.59972 0.917222,-0.84666 -0.105833,-0.24695 0.246945,-0.84667 0.740834,-1.34056 0.493889,-0.49389 0.917222,-0.9525 0.917222,-0.98778 0,-0.0353 -1.27,-0.10583 -2.822222,-0.10583 l -2.786945,-0.0706 -0.388056,1.12889 c -0.423333,1.23472 -1.622778,2.92805 -1.905,2.68111 -0.352778,-0.35278 0.423334,-2.8575 1.27,-4.05695 0.705556,-1.05833 0.9525,-1.19944 1.869723,-1.02305 0.811389,0.14111 1.234722,0 1.728611,-0.52917 0.881944,-0.9525 0.423333,-1.41111 -0.493889,-0.56444 -1.023056,0.91722 -1.375834,0.3175 -1.164167,-2.04611 0.176389,-1.79917 0.282222,-2.01084 0.9525,-2.01084 0.740834,0 2.328334,-1.30528 2.328334,-1.86972 0,-0.14111 -0.9525,-0.24694 -2.081389,-0.24694 -1.164167,0 -2.2225,-0.17639 -2.328334,-0.38806 -0.388055,-0.59972 0.881945,-1.72861 1.763889,-1.51694 1.023056,0.24694 1.799167,-0.635 1.058334,-1.27 -0.388056,-0.3175 -0.423334,-0.56445 -0.141112,-0.91723 0.423334,-0.52916 0.141112,-1.19944 -0.564444,-1.19944 -0.246944,0 -1.199445,0.81139 -2.046111,1.79917 -1.305268,1.48166 -1.728601,1.76388 -2.363601,1.55221 -0.705556,-0.21166 -0.776112,-0.42333 -0.635001,-2.39889 0.07056,-1.83444 0,-2.18722 -0.493888,-2.29305 -0.388056,-0.0706 -0.635,0.10583 -0.635,0.42333 z m -1.234723,5.85611 c -0.352778,0.52917 0.493889,1.41111 1.305278,1.41111 0.599722,0 0.635,-0.0705 0.282222,-0.52916 -0.352777,-0.42334 -0.352777,-0.67028 -0.07056,-0.9525 1.058334,-1.05834 3.598334,1.65805 3.598334,3.84528 0,1.79916 -0.246944,2.08138 -1.5875,1.94027 -0.740833,-0.10583 -1.234722,0 -1.234722,0.24695 0,0.21166 0.388055,0.38805 0.881944,0.38805 0.493889,0 0.881945,0.14111 0.881945,0.3175 0,0.49389 -2.293056,1.44639 -3.492501,1.44639 -1.023055,0 -1.058333,-0.0706 -0.846666,-1.05833 0.211666,-1.19945 -0.423334,-1.48167 -0.776112,-0.35278 -0.458611,1.41111 -3.527778,1.16417 -4.268611,-0.3175 -0.564444,-1.12889 -0.211667,-2.15194 0.9525,-2.82222 0.564445,-0.3175 1.023056,-0.77611 1.023056,-1.05833 0,-0.67028 2.293055,-2.85751 2.998611,-2.85751 0.3175,0 0.458611,0.17639 0.352778,0.35278 z m 1.693334,11.07723 c -0.458611,2.92805 0.670277,4.93888 3.033889,5.32694 2.575278,0.42333 4.480278,-0.38806 7.514167,-3.28083 1.516944,-1.44639 2.822222,-2.57528 2.892778,-2.50473 0.246944,0.24695 -1.199445,6.38528 -1.799167,7.62 -0.635,1.37584 -2.081389,2.64584 -4.092222,3.66889 -1.234723,0.67028 -1.587501,0.67028 -2.928056,0.3175 -4.268612,-1.19944 -6.879167,-5.99722 -5.785556,-10.54805 0.493889,-2.08139 1.481667,-2.57528 1.164167,-0.59972 z" />
  </g>
</svg>
