<?xml version="1.0" encoding="UTF-8" standalone="no"?>
<!-- Created with Inkscape (http://www.inkscape.org/) -->

<svg
   xmlns:dc="http://purl.org/dc/elements/1.1/"
   xmlns:cc="http://creativecommons.org/ns#"
   xmlns:rdf="http://www.w3.org/1999/02/22-rdf-syntax-ns#"
   xmlns:svg="http://www.w3.org/2000/svg"
   xmlns="http://www.w3.org/2000/svg"
   xmlns:sodipodi="http://sodipodi.sourceforge.net/DTD/sodipodi-0.dtd"
   xmlns:inkscape="http://www.inkscape.org/namespaces/inkscape"
   width="32.603821mm"
   height="29.17951mm"
   viewBox="0 0 32.603821 29.17951"
   version="1.1"
   id="svg4713"
   inkscape:version="0.92.4 (5da689c313, 2019-01-14)"
   sodipodi:docname="sheep1.svg">
  <defs
     id="defs4707" />
  <sodipodi:namedview
     id="base"
     pagecolor="#ffffff"
     bordercolor="#666666"
     borderopacity="1.0"
     inkscape:pageopacity="0.0"
     inkscape:pageshadow="2"
     inkscape:zoom="0.35"
     inkscape:cx="73.042053"
     inkscape:cy="246.57103"
     inkscape:document-units="mm"
     inkscape:current-layer="layer1"
     showgrid="false"
     fit-margin-top="0"
     fit-margin-left="0"
     fit-margin-right="0"
     fit-margin-bottom="0"
     inkscape:window-width="1920"
     inkscape:window-height="1017"
     inkscape:window-x="1912"
     inkscape:window-y="-8"
     inkscape:window-maximized="1" />
  <metadata
     id="metadata4710">
    <rdf:RDF>
      <cc:Work
         rdf:about="">
        <dc:format>image/svg+xml</dc:format>
        <dc:type
           rdf:resource="http://purl.org/dc/dcmitype/StillImage" />
        <dc:title></dc:title>
      </cc:Work>
    </rdf:RDF>
  </metadata>
  <g
     inkscape:label="Layer 1"
     inkscape:groupmode="layer"
     id="layer1"
     transform="translate(-86.507624,-184.89241)">
    <path
       style="fill:#000000;stroke:none;stroke-width:0.03527778"
       inkscape:connector-curvature="0"
       id="path16"
       d="m 95.808363,185.17486 c -0.458611,0.24694 -1.058333,0.38805 -1.305278,0.28222 -1.023055,-0.3175 -2.187222,0.38806 -3.245555,1.905 -0.846667,1.30528 -1.023056,1.83444 -0.846667,2.78694 0.176389,1.05834 0.07055,1.23473 -1.340556,2.15195 -2.046111,1.37583 -2.963333,3.21028 -2.398889,4.93889 0.564445,1.69333 2.151945,2.64583 4.339167,2.54 0.917222,0 1.763889,0.0705 1.940278,0.21166 0.141111,0.14112 0.211667,1.34056 0.141111,2.64584 -0.07055,2.01083 0.03528,2.50472 0.635,3.03389 0.388056,0.35278 0.705556,0.81139 0.705556,1.05833 0,0.21167 0.388055,0.77611 0.881944,1.23472 0.9525,0.91723 1.093611,1.97556 0.458611,3.73945 -0.493889,1.44639 0.03528,2.25777 1.516944,2.25777 0.811389,0 1.058334,-0.21166 1.234723,-0.9525 0.141111,-0.49388 0.07055,-1.19944 -0.176389,-1.55222 -0.987778,-1.62277 0,-3.81 1.234722,-2.75166 0.599725,0.49389 0.635005,2.15194 0.105833,2.68111 -0.211666,0.21166 -0.3175,0.81139 -0.246944,1.37583 0.105833,0.91722 0.246944,1.02306 1.305276,1.02306 1.55222,0 2.11667,-0.81139 1.44639,-2.18723 -0.74083,-1.51694 -0.635,-1.97555 0.49389,-2.11666 0.56444,-0.0706 1.30528,-0.28222 1.62278,-0.45861 0.3175,-0.17639 0.77611,-0.17639 1.09361,0.0353 0.24694,0.17639 1.30528,0.3175 2.25778,0.28222 0.98777,-0.0353 1.97555,-0.0353 2.2225,0 0.52916,0.0353 0.56444,1.51694 0.0353,2.04611 -0.21167,0.21167 -0.3175,0.81139 -0.24695,1.34056 0.14111,1.34055 1.37584,1.76388 2.46945,0.88194 0.81139,-0.635 0.81139,-0.67028 0.21166,-2.25778 l -0.59972,-1.5875 1.23472,-0.70555 1.19945,-0.70556 v 1.27 c 0,0.70556 -0.24695,1.5875 -0.59973,1.94028 -0.88194,0.98778 -0.14111,2.39889 1.27001,2.39889 1.44638,0 2.08138,-1.12889 1.30527,-2.29306 -0.70555,-1.05833 -0.77611,-4.05694 -0.10583,-4.05694 0.74083,0 2.01083,-1.55223 2.01083,-2.50473 0,-0.45861 0.24695,-1.16416 0.52917,-1.51694 0.56444,-0.77611 0.70556,-3.28083 0.21167,-4.05694 -0.17639,-0.24695 -0.21167,-0.88195 -0.0706,-1.41112 0.35278,-1.23472 -0.10584,-2.82222 -0.98778,-3.45722 -0.42333,-0.28222 -0.74083,-0.74083 -0.74083,-1.02305 0,-0.84667 -1.97556,-2.61056 -2.89278,-2.61056 -0.45861,0 -1.19945,-0.24694 -1.62278,-0.56444 -0.45861,-0.31751 -1.34055,-0.49389 -2.11666,-0.45862 -0.81139,0.0706 -1.65806,-0.14111 -2.18723,-0.49389 -0.49389,-0.3175 -1.05833,-0.59972 -1.34055,-0.59972 -0.24695,0 -0.81139,-0.38805 -1.23472,-0.88194 -0.42334,-0.49389 -1.16417,-0.9525 -1.65806,-1.02306 -0.49389,-0.0353 -1.30528,-0.35278 -1.83444,-0.70555 -0.52917,-0.35278 -1.34056,-0.56445 -1.79917,-0.49389 -0.458613,0.0353 -1.058335,-0.0706 -1.340557,-0.28222 -0.846667,-0.67028 -2.257778,-0.84667 -3.175,-0.35278 z m 2.363611,2.2225 c 0.635,0.81139 0.881944,0.91722 1.234722,0.52916 0.740834,-0.70555 2.081394,-0.52916 2.081394,0.24695 0,0.81139 0.67027,1.09361 1.44638,0.635 0.84667,-0.52917 1.72862,-0.0353 1.72862,0.98778 0,0.88194 0.21166,1.02305 1.65805,0.88194 0.52917,-0.0353 0.9525,0.28222 1.34056,1.02306 0.28222,0.59972 0.59972,1.09361 0.67027,1.09361 0.0353,0 0.45862,-0.3175 0.91723,-0.70556 1.09361,-0.9525 1.94028,-0.88194 2.75166,0.24695 0.59973,0.81139 0.77612,0.88194 1.23473,0.49389 0.42333,-0.3175 0.74083,-0.35278 1.27,-0.0353 0.74083,0.38805 0.81139,0.52916 0.88194,2.08139 0.0353,0.635 0.28222,0.9525 0.91722,1.09361 1.09362,0.24694 1.34056,1.55222 0.49389,2.50472 -0.59972,0.635 -0.56444,0.70556 0.21167,1.55222 0.91722,0.98778 0.77611,2.39889 -0.35278,2.99861 -0.56444,0.3175 -0.635,0.52917 -0.35278,1.05834 0.59973,1.16416 -0.14111,2.11666 -1.62277,2.11666 -0.9525,0 -1.44639,0.24695 -1.97556,0.88195 -0.84667,1.09361 -1.5875,1.12889 -2.64583,0.10583 l -0.81139,-0.74083 -0.81139,0.74083 c -1.02306,0.98778 -1.79917,0.98778 -2.68111,0.0353 l -0.67028,-0.74083 -1.05833,0.77611 c -1.37584,1.02306 -2.92806,0.84667 -3.52778,-0.45861 -0.564447,-1.12889 -1.093614,-1.19945 -1.940281,-0.24695 -1.058333,1.27 -2.434166,0.81139 -2.504721,-0.84666 -0.03528,-0.42334 -0.388056,-0.88195 -0.811389,-1.09362 -0.987778,-0.42333 -1.058334,-1.44639 -0.105834,-1.94027 0.846667,-0.45862 0.917223,-1.02306 0.105834,-1.5875 -0.811389,-0.59973 -0.352778,-1.48167 0.917222,-1.76389 0.564444,-0.10584 1.305277,-0.59973 1.587499,-1.09361 0.3175,-0.45862 0.811389,-0.84667 1.093612,-0.84667 0.740833,0 0.9525,-0.59972 0.493889,-1.34056 -0.529167,-0.84666 0.176388,-2.89277 0.987779,-2.89277 0.24694,0 0.9525,-0.3175 1.48167,-0.74084 0.91722,-0.67028 1.12888,-0.70555 1.97555,-0.28222 1.30528,0.635 1.69333,1.76389 0.98778,2.75167 -0.67028,1.02305 -2.01083,0.84666 -2.15195,-0.24695 -0.14111,-0.98778 0.49389,-1.02305 0.74084,-0.0353 0.10583,0.42334 0.42333,0.67028 0.67028,0.59973 0.635,-0.21167 0.77611,-1.62278 0.28222,-2.25778 -0.635,-0.74083 -2.36361,-0.635 -2.82222,0.17639 -1.41112,2.71639 1.55222,5.11528 3.95111,3.21028 1.86972,-1.44639 1.34055,-4.33917 -0.91723,-5.43278 -1.65805,-0.77611 -3.10444,-0.49389 -4.26861,0.88194 -0.952497,1.16417 -1.587497,1.09361 -1.587497,-0.21166 0,-1.02306 -0.564445,-1.44639 -1.234723,-0.88195 -0.599722,0.49389 -1.940277,0.14111 -1.940277,-0.56444 0,-0.56445 -0.635,-0.635 -1.340555,-0.17639 -0.282223,0.17639 -0.846667,0.14111 -1.340556,-0.10584 -0.9525,-0.42333 -1.128889,-0.91722 -0.3175,-0.91722 0.3175,0 0.529167,-0.3175 0.529167,-0.88194 0,-0.9525 0.917222,-1.23472 1.693333,-0.45861 0.352778,0.35277 0.599722,0.24694 1.199444,-0.35278 1.023055,-0.98778 1.340556,-0.98778 2.257778,0.17639 z m -3.175,4.72722 c 0.105834,0.17639 0.635,0.3175 1.199445,0.3175 1.09361,0 1.41111,0.52917 1.340555,2.32833 -0.07056,1.65806 -1.305278,2.96334 -3.033889,3.21028 -1.340555,0.17639 -1.481666,0.14111 -1.481666,-0.56444 0,-0.9525 -0.282223,-0.9525 -1.270001,0.14111 -0.987777,1.05833 -1.516944,1.09361 -2.751666,0.14111 -1.5875,-1.23472 -1.093612,-3.03389 1.199444,-4.19806 0.846667,-0.42333 1.446389,-0.56444 1.5875,-0.35277 0.388056,0.635 1.234723,0.35277 1.234723,-0.38806 0,-0.59972 -0.176389,-0.70556 -0.740834,-0.56444 -0.529167,0.14111 -0.635,0.0705 -0.352778,-0.24695 0.388056,-0.45861 2.751667,-0.3175 3.069167,0.17639 z" />
  </g>
</svg>
