<?xml version="1.0" encoding="UTF-8" standalone="no"?>
<!-- Created with Inkscape (http://www.inkscape.org/) -->

<svg
   xmlns:dc="http://purl.org/dc/elements/1.1/"
   xmlns:cc="http://creativecommons.org/ns#"
   xmlns:rdf="http://www.w3.org/1999/02/22-rdf-syntax-ns#"
   xmlns:svg="http://www.w3.org/2000/svg"
   xmlns="http://www.w3.org/2000/svg"
   xmlns:sodipodi="http://sodipodi.sourceforge.net/DTD/sodipodi-0.dtd"
   xmlns:inkscape="http://www.inkscape.org/namespaces/inkscape"
   width="37.22184mm"
   height="33.690281mm"
   viewBox="0 0 37.22184 33.690281"
   version="1.1"
   id="svg4730"
   inkscape:version="0.92.4 (5da689c313, 2019-01-14)"
   sodipodi:docname="horse.svg">
  <defs
     id="defs4724" />
  <sodipodi:namedview
     id="base"
     pagecolor="#ffffff"
     bordercolor="#666666"
     borderopacity="1.0"
     inkscape:pageopacity="0.0"
     inkscape:pageshadow="2"
     inkscape:zoom="0.35"
     inkscape:cx="1.7690582"
     inkscape:cy="35.095093"
     inkscape:document-units="mm"
     inkscape:current-layer="layer1"
     showgrid="false"
     fit-margin-top="0"
     fit-margin-left="0"
     fit-margin-right="0"
     fit-margin-bottom="0"
     inkscape:window-width="1920"
     inkscape:window-height="1017"
     inkscape:window-x="1912"
     inkscape:window-y="-8"
     inkscape:window-maximized="1" />
  <metadata
     id="metadata4727">
    <rdf:RDF>
      <cc:Work
         rdf:about="">
        <dc:format>image/svg+xml</dc:format>
        <dc:type
           rdf:resource="http://purl.org/dc/dcmitype/StillImage" />
        <dc:title></dc:title>
      </cc:Work>
    </rdf:RDF>
  </metadata>
  <g
     inkscape:label="Layer 1"
     inkscape:groupmode="layer"
     id="layer1"
     transform="translate(-105.36527,-124.42863)">
    <path
       style="fill:#000000;stroke:none;stroke-width:0.03527778"
       inkscape:connector-curvature="0"
       id="path14"
       d="m 114.43545,125.91034 c -0.56445,1.05833 -1.02306,1.51694 -1.83445,1.69333 -0.56444,0.14111 -1.55222,0.81139 -2.18722,1.55222 -0.635,0.74084 -1.55222,1.55223 -2.04611,1.79917 -2.50472,1.27 -3.59833,3.63361 -2.68111,5.78556 0.81139,1.97555 2.01083,2.50472 5.36222,2.39889 l 2.8575,-0.0706 0.42333,3.59833 c 0.21167,1.97556 0.635,3.95111 0.91723,4.40972 0.28222,0.42334 0.52916,0.98778 0.52916,1.23472 0,0.88195 -3.4925,5.22112 -4.19805,5.22112 -0.91723,0 -1.51695,0.84666 -1.37584,2.01083 0.0706,0.77611 0.3175,1.02305 1.09361,1.09361 1.12889,0.14111 2.01084,-0.42333 2.01084,-1.30528 0,-0.3175 0.88194,-1.72861 1.94028,-3.175 1.05833,-1.44639 1.94027,-2.75166 1.94027,-2.89278 0,-0.24694 1.34056,0.17639 2.04611,0.59973 0.24695,0.14111 -2.43416,5.08 -2.75166,5.08 -0.17639,0 -0.59972,0.38805 -0.88195,0.84666 -0.77611,1.19945 -0.17639,2.32834 1.19945,2.32834 1.16416,0 1.905,-0.70556 1.72861,-1.65806 -0.0353,-0.38805 0.52917,-2.04611 1.27,-3.73944 l 1.37583,-3.06917 h 2.71639 c 1.51695,0 2.99861,-0.10583 3.31611,-0.21167 0.35278,-0.14111 0.635,0.0353 0.77611,0.42334 0.14112,0.38805 0.67028,1.69333 1.23473,2.92805 0.56444,1.23472 1.02305,2.64584 1.02305,3.175 0,1.16417 0.59972,1.79917 1.62278,1.79917 1.65805,0 2.11667,-2.32833 0.59972,-2.99861 -0.70555,-0.28222 -2.92805,-4.48028 -2.92805,-5.46806 0,-0.21166 0.42333,-0.35278 0.98777,-0.35278 0.81139,0.0353 1.27,0.49389 2.99861,3.06917 1.09362,1.65806 2.01084,3.28083 2.01084,3.63361 0,1.65806 2.61055,1.79917 3.03389,0.17639 0.24694,-0.9525 -0.35278,-1.94028 -1.12889,-1.94028 -1.02306,0 -4.83306,-5.46805 -4.1275,-5.92666 1.19944,-0.77611 1.51694,-3.4925 0.67028,-5.53862 -0.88195,-2.08138 0.28222,-2.18722 2.92805,-0.17638 1.27,0.9525 2.2225,1.41111 2.99861,1.41111 1.5875,0 2.68111,-0.88195 2.68111,-2.15195 0,-0.91722 -0.0705,-0.98778 -0.67027,-0.59972 -0.59973,0.38806 -0.88195,0.24694 -1.97556,-0.84667 -0.74083,-0.77611 -1.72861,-1.41111 -2.43417,-1.55222 -1.44639,-0.24694 -3.42194,0.3175 -4.26861,1.27 -0.49389,0.56445 -0.74083,0.59972 -1.34055,0.28222 -1.02306,-0.52916 -4.23334,-0.42333 -6.70278,0.24695 -1.12889,0.28222 -2.18722,0.52916 -2.36361,0.52916 -0.70556,0 -0.3175,-0.59972 0.635,-1.02305 l 0.9525,-0.45861 -1.02306,-0.81139 -1.02305,-0.81139 0.81139,-0.42333 0.81139,-0.42334 -0.91723,-0.59972 c -1.12889,-0.67028 -1.19944,-0.98778 -0.21166,-1.27 0.67027,-0.21167 0.67027,-0.28222 -0.38806,-1.05833 -1.02306,-0.74083 -1.05833,-0.84666 -0.45861,-1.19944 0.56444,-0.35278 0.52917,-0.45861 -0.74083,-1.55222 l -1.34056,-1.16417 0.24694,-2.2225 0.24695,-2.2225 -1.34056,0.91722 c -0.74083,0.49389 -1.62277,0.91722 -1.905,0.91722 -0.3175,0 -0.88194,-0.67028 -1.30527,-1.48166 l -0.70556,-1.51695 z m -0.0353,4.69194 c 0.77611,0.42334 1.72861,0.0706 1.02305,-0.35277 -0.635,-0.38806 -0.14111,-1.41112 0.67028,-1.41112 0.38806,0 1.09361,0.35278 1.5875,0.77612 0.74084,0.67027 1.05834,1.5875 1.79917,5.04472 1.44639,7.02028 1.5875,7.37305 2.92806,7.51416 0.635,0.0706 2.25777,-0.14111 3.59833,-0.42333 4.48028,-1.02305 6.0325,-0.59972 6.70278,1.86972 0.77611,2.89278 -0.24695,3.63361 -5.82084,4.26861 -5.04472,0.56445 -7.58472,0.45862 -8.92528,-0.35277 -1.44638,-0.88195 -1.83444,-1.86973 -2.04611,-5.43278 -0.28222,-4.51556 -0.24694,-4.445 -2.11666,-4.445 -1.44639,0 -1.5875,-0.0706 -1.37584,-0.70556 0.14111,-0.45861 0.0706,-0.70555 -0.24694,-0.70555 -0.24695,0 -0.67028,0.3175 -0.91722,0.70555 -1.02306,1.62278 -4.30389,0.28223 -4.30389,-1.76389 0,-1.09361 1.44639,-2.71638 2.71639,-3.03388 0.49389,-0.14112 1.02305,-0.59973 1.16416,-1.05834 0.17639,-0.45861 0.84667,-1.16416 1.48167,-1.55222 l 1.16417,-0.70556 0.10583,0.70556 c 0.0706,0.38806 0.42333,0.88194 0.81139,1.05833 z" />
  </g>
</svg>
