<?xml version="1.0" encoding="UTF-8" standalone="no"?>
<!-- Created with Inkscape (http://www.inkscape.org/) -->

<svg
   xmlns:dc="http://purl.org/dc/elements/1.1/"
   xmlns:cc="http://creativecommons.org/ns#"
   xmlns:rdf="http://www.w3.org/1999/02/22-rdf-syntax-ns#"
   xmlns:svg="http://www.w3.org/2000/svg"
   xmlns="http://www.w3.org/2000/svg"
   xmlns:sodipodi="http://sodipodi.sourceforge.net/DTD/sodipodi-0.dtd"
   xmlns:inkscape="http://www.inkscape.org/namespaces/inkscape"
   width="27.239544mm"
   height="20.69072mm"
   viewBox="0 0 27.239544 20.69072"
   version="1.1"
   id="svg4682"
   inkscape:version="0.92.4 (5da689c313, 2019-01-14)"
   sodipodi:docname="monkey.svg">
  <defs
     id="defs4676" />
  <sodipodi:namedview
     id="base"
     pagecolor="#ffffff"
     bordercolor="#666666"
     borderopacity="1.0"
     inkscape:pageopacity="0.0"
     inkscape:pageshadow="2"
     inkscape:zoom="0.35"
     inkscape:cx="-182.80927"
     inkscape:cy="-52.327929"
     inkscape:document-units="mm"
     inkscape:current-layer="layer1"
     showgrid="false"
     fit-margin-top="0"
     fit-margin-left="0"
     fit-margin-right="0"
     fit-margin-bottom="0"
     inkscape:window-width="1920"
     inkscape:window-height="1017"
     inkscape:window-x="1912"
     inkscape:window-y="-8"
     inkscape:window-maximized="1" />
  <metadata
     id="metadata4679">
    <rdf:RDF>
      <cc:Work
         rdf:about="">
        <dc:format>image/svg+xml</dc:format>
        <dc:type
           rdf:resource="http://purl.org/dc/dcmitype/StillImage" />
        <dc:title></dc:title>
      </cc:Work>
    </rdf:RDF>
  </metadata>
  <g
     inkscape:label="Layer 1"
     inkscape:groupmode="layer"
     id="layer1"
     transform="translate(-154.20161,-114.29752)">
    <path
       style="fill:#000000;stroke:none;stroke-width:0.03527778"
       inkscape:connector-curvature="0"
       id="path28"
       d="m 175.58051,114.81817 c 0,0.3175 0.38805,0.70555 0.84666,0.84666 0.45861,0.17639 0.91722,0.56445 1.02306,0.84667 0.24694,0.67028 -0.3175,3.10445 -1.19945,5.18583 l -0.70555,1.65806 -2.36361,0.21167 c -1.30528,0.10583 -2.64584,0.3175 -2.96334,0.42333 -0.45861,0.17639 -0.635,0.0706 -0.635,-0.38806 0,-0.67027 -1.30527,-2.8575 -2.82222,-4.83305 -1.76389,-2.2225 -5.18583,-2.96334 -7.9375,-1.69333 -1.65806,0.74083 -3.24556,2.46944 -3.56306,3.84527 -0.10583,0.52917 -0.42333,1.5875 -0.70555,2.36361 -0.45861,1.19945 -0.45861,1.65806 -0.0706,2.78695 0.24695,0.77611 0.84667,1.65805 1.34056,2.04611 0.91722,0.635 4.37444,1.69333 5.75028,1.69333 0.77611,0 0.77611,0.0353 -0.10584,0.70556 -0.49389,0.38805 -1.37583,0.70555 -2.01083,0.70555 -0.98778,0 -1.86972,0.74084 -1.86972,1.55223 0,0.35277 1.12889,1.27 1.55222,1.27 0.45861,0 2.08139,-1.23473 4.02167,-3.10445 0.9525,-0.91722 1.41111,-1.12889 1.905,-0.88194 0.67028,0.28222 0.67028,0.3175 -0.0706,1.27 -0.42334,0.52916 -1.05834,0.9525 -1.41111,0.9525 -0.84667,0 -1.48167,0.84666 -1.34056,1.83444 0.14111,1.16417 2.04611,1.16417 2.61056,0 0.21166,-0.45861 0.81139,-1.27 1.34055,-1.79916 0.49389,-0.52917 0.91722,-1.12889 0.91722,-1.37584 0,-0.28222 0.81139,-0.42333 2.57528,-0.42333 2.39889,0 2.57528,0.0706 3.13972,0.98778 0.35278,0.52916 0.77612,1.19944 0.9525,1.48166 0.17639,0.28223 0.42334,0.81139 0.52917,1.12889 0.24695,0.81139 2.15195,0.84667 2.46945,0.0706 0.42333,-1.09361 0.17639,-1.55222 -1.09361,-2.15194 -0.74084,-0.35278 -1.37584,-0.91722 -1.44639,-1.27 -0.24695,-1.19945 1.16416,-0.59972 3.175,1.34055 1.09361,1.05834 2.32833,1.94028 2.71639,1.94028 0.81138,0 1.55222,-1.09361 1.23472,-1.905 -0.24695,-0.59972 -1.37584,-1.05833 -1.86972,-0.77611 -0.17639,0.14111 -0.81139,-0.17639 -1.41112,-0.67028 -0.9525,-0.81139 -1.05833,-1.09361 -1.05833,-3.10444 -0.0353,-1.19945 -0.0353,-2.50472 -0.0706,-2.89278 -0.0353,-0.38806 0.42333,-1.72861 0.9525,-2.99861 1.27,-2.89278 1.41111,-6.10306 0.35278,-6.91445 -0.9525,-0.67027 -2.68111,-0.635 -2.68111,0.0353 z m -14.56973,4.02166 c 0.45861,0.56445 0.74084,0.635 1.27,0.35278 1.44639,-0.81139 3.77473,1.16417 3.77473,3.175 0,0.56445 0.21166,0.70556 0.77611,0.635 0.59972,-0.0353 0.84666,0.14111 0.91722,0.70556 0.0706,0.52916 -0.0706,0.81139 -0.38806,0.81139 -0.3175,0 -0.84666,0.52916 -1.23472,1.12888 -0.9525,1.51695 -2.57528,2.43417 -4.33917,2.46945 -1.72861,0 -1.83444,-0.0706 -1.41111,-1.27 0.49389,-1.23472 -0.35278,-1.27 -1.16416,-0.0353 -0.74084,1.09361 -0.9525,1.09361 -2.29306,-0.0353 -1.27,-1.05833 -1.37583,-1.55222 -0.38806,-1.55222 0.38806,0 0.81139,-0.24694 0.9525,-0.52917 0.24695,-0.74083 -0.21166,-1.16416 -0.56444,-0.56444 -0.67028,1.05833 -1.02306,0.0353 -0.52917,-1.44639 0.81139,-2.36361 1.30528,-3.175 2.43417,-3.88055 1.34056,-0.81139 1.44639,-0.77611 2.18722,0.0353 z" />
  </g>
</svg>
