<?xml version="1.0" encoding="UTF-8" standalone="no"?>
<!-- Created with Inkscape (http://www.inkscape.org/) -->

<svg
   xmlns:dc="http://purl.org/dc/elements/1.1/"
   xmlns:cc="http://creativecommons.org/ns#"
   xmlns:rdf="http://www.w3.org/1999/02/22-rdf-syntax-ns#"
   xmlns:svg="http://www.w3.org/2000/svg"
   xmlns="http://www.w3.org/2000/svg"
   xmlns:sodipodi="http://sodipodi.sourceforge.net/DTD/sodipodi-0.dtd"
   xmlns:inkscape="http://www.inkscape.org/namespaces/inkscape"
   width="27.297377mm"
   height="20.947546mm"
   viewBox="0 0 27.297377 20.947546"
   version="1.1"
   id="svg4845"
   inkscape:version="0.92.4 (5da689c313, 2019-01-14)"
   sodipodi:docname="pig.svg">
  <defs
     id="defs4839" />
  <sodipodi:namedview
     id="base"
     pagecolor="#ffffff"
     bordercolor="#666666"
     borderopacity="1.0"
     inkscape:pageopacity="0.0"
     inkscape:pageshadow="2"
     inkscape:zoom="0.35"
     inkscape:cx="-265.55727"
     inkscape:cy="473.87157"
     inkscape:document-units="mm"
     inkscape:current-layer="layer1"
     showgrid="false"
     fit-margin-top="0"
     fit-margin-left="0"
     fit-margin-right="0"
     fit-margin-bottom="0"
     inkscape:window-width="1920"
     inkscape:window-height="1017"
     inkscape:window-x="1912"
     inkscape:window-y="-8"
     inkscape:window-maximized="1" />
  <metadata
     id="metadata4842">
    <rdf:RDF>
      <cc:Work
         rdf:about="">
        <dc:format>image/svg+xml</dc:format>
        <dc:type
           rdf:resource="http://purl.org/dc/dcmitype/StillImage" />
        <dc:title></dc:title>
      </cc:Work>
    </rdf:RDF>
  </metadata>
  <g
     inkscape:label="Layer 1"
     inkscape:groupmode="layer"
     id="layer1"
     transform="translate(-176.09536,-253.26431)">
    <path
       style="fill:#000000;stroke:none;stroke-width:0.03527778"
       inkscape:connector-curvature="0"
       id="path26"
       d="m 182.511,253.29145 c -0.0706,0.17639 -0.28222,0.91723 -0.38806,1.65806 -0.17639,0.88194 -0.77611,1.97555 -1.65805,2.96333 -0.74084,0.88195 -1.37584,1.79917 -1.37584,2.04611 0,0.28223 -0.56444,1.09361 -1.23472,1.83445 -2.2225,2.46944 -2.36361,4.7625 -0.28222,5.18583 0.52916,0.14111 2.25778,0.67028 3.81,1.19945 2.68111,0.9525 2.75167,1.02305 1.94028,1.44639 -0.45861,0.24694 -1.16417,0.49388 -1.5875,0.52916 -0.38806,0.0353 -0.81139,0.10584 -0.9525,0.14111 -0.49389,0.0706 -0.67028,1.48167 -0.28223,1.97556 0.70556,0.84667 1.55223,0.635 3.84528,-0.88195 1.16417,-0.77611 2.29306,-1.41111 2.50472,-1.41111 0.77612,0 0.3175,0.635 -0.88194,1.19945 -1.48167,0.70555 -2.01083,1.5875 -1.55222,2.43416 0.59972,1.05834 1.72861,0.67028 3.35139,-1.12888 l 1.51694,-1.69334 1.86972,0.3175 c 1.02306,0.14111 2.29306,0.24695 2.82223,0.21167 1.02305,-0.10583 2.29305,0.84667 2.78694,2.08139 0.35278,0.9525 1.76389,1.09361 2.43417,0.28222 0.45861,-0.56444 0.17639,-1.94028 -0.45861,-1.94028 -0.24695,0 -0.74084,-0.24694 -1.09361,-0.52916 -0.59973,-0.45862 -0.59973,-0.52917 -0.10584,-0.74084 0.52917,-0.17639 2.78695,1.19945 3.63361,2.25778 0.17639,0.28222 0.74084,0.42333 1.23473,0.35278 1.51694,-0.21167 1.19944,-2.75167 -0.38806,-2.75167 -0.3175,0 -1.02306,-0.3175 -1.51694,-0.70555 -0.88195,-0.70556 -0.88195,-0.74084 -0.35278,-2.01084 0.35278,-0.88194 0.45861,-1.83444 0.3175,-2.92805 -0.21167,-1.51695 -0.14111,-1.69334 0.67028,-2.04612 0.49388,-0.21166 0.88194,-0.635 0.88194,-0.9525 0,-0.67027 -0.49389,-0.67027 -1.05833,0 -0.56445,0.67028 -1.19945,0.67028 -1.79917,-0.0353 -0.635,-0.77611 -3.45722,-2.15195 -5.04472,-2.43417 -1.23473,-0.24694 -1.30528,-0.3175 -1.09361,-1.27 l 0.24694,-1.02306 -1.62278,0.21167 c -1.16416,0.17639 -1.83444,0.0706 -2.46944,-0.3175 -0.45861,-0.3175 -1.55222,-0.74083 -2.39889,-0.9525 -0.88195,-0.24694 -2.08139,-0.91722 -2.82222,-1.62278 -0.70556,-0.67027 -1.37584,-1.09361 -1.44639,-0.9525 z m 1.86972,5.04473 c 0.14111,0 0.45861,-0.24695 0.70556,-0.52917 0.24694,-0.28222 0.59972,-0.52917 0.81138,-0.52917 0.17639,0 0.0706,0.3175 -0.28222,0.70556 -0.91722,1.02305 -0.38805,1.27 0.74084,0.38805 1.19944,-0.9525 1.86972,-0.9525 1.02305,-0.0353 -0.81139,0.88194 -0.42333,1.37583 0.45861,0.59972 0.88195,-0.81139 0.9525,-0.77611 1.83445,0.635 0.9525,1.51694 1.02305,3.95111 0.14111,5.43278 -0.70556,1.19944 -2.8575,2.50472 -4.16278,2.50472 -0.91722,0 -1.23472,-0.45861 -0.56444,-0.88195 0.52916,-0.3175 0.42333,-0.88194 -0.17639,-0.88194 -0.3175,0 -0.635,0.21167 -0.74084,0.49389 -0.24694,0.59972 -1.02305,0.9525 -1.65805,0.70555 -0.28222,-0.10583 -0.38806,-0.635 -0.3175,-1.5875 0.10583,-1.12889 -0.0353,-1.62277 -0.67028,-2.29305 -0.42333,-0.45861 -1.02306,-0.84667 -1.27,-0.84667 -0.81139,0 1.12889,-3.35139 2.43417,-4.16278 0.9525,-0.635 1.19944,-0.67027 1.27,-0.24694 0.0705,0.28222 0.24694,0.52917 0.42333,0.52917 z m 11.60639,3.21027 c 2.08139,0.88195 2.8575,2.01084 2.8575,4.1275 0,3.31612 -3.66889,4.7625 -9.17222,3.56306 l -1.79917,-0.38806 1.48167,-1.05833 c 1.83444,-1.30528 2.89277,-3.59833 2.71639,-5.82083 l -0.10584,-1.5875 1.09361,0.17639 c 0.59973,0.10583 1.94028,0.52916 2.92806,0.98777 z" />
  </g>
</svg>
