<?xml version="1.0" encoding="UTF-8" standalone="no"?>
<!-- Created with Inkscape (http://www.inkscape.org/) -->

<svg
   xmlns:dc="http://purl.org/dc/elements/1.1/"
   xmlns:cc="http://creativecommons.org/ns#"
   xmlns:rdf="http://www.w3.org/1999/02/22-rdf-syntax-ns#"
   xmlns:svg="http://www.w3.org/2000/svg"
   xmlns="http://www.w3.org/2000/svg"
   xmlns:sodipodi="http://sodipodi.sourceforge.net/DTD/sodipodi-0.dtd"
   xmlns:inkscape="http://www.inkscape.org/namespaces/inkscape"
   width="25.873133mm"
   height="23.799196mm"
   viewBox="0 0 25.873133 23.799196"
   version="1.1"
   id="svg4645"
   inkscape:version="0.92.4 (5da689c313, 2019-01-14)"
   sodipodi:docname="rabbit.svg">
  <defs
     id="defs4639" />
  <sodipodi:namedview
     id="base"
     pagecolor="#ffffff"
     bordercolor="#666666"
     borderopacity="1.0"
     inkscape:pageopacity="0.0"
     inkscape:pageshadow="2"
     inkscape:zoom="0.35"
     inkscape:cx="48.894104"
     inkscape:cy="44.974818"
     inkscape:document-units="mm"
     inkscape:current-layer="layer1"
     showgrid="false"
     fit-margin-top="0"
     fit-margin-left="0"
     fit-margin-right="0"
     fit-margin-bottom="0"
     inkscape:window-width="1920"
     inkscape:window-height="1017"
     inkscape:window-x="1912"
     inkscape:window-y="-8"
     inkscape:window-maximized="1" />
  <metadata
     id="metadata4642">
    <rdf:RDF>
      <cc:Work
         rdf:about="">
        <dc:format>image/svg+xml</dc:format>
        <dc:type
           rdf:resource="http://purl.org/dc/dcmitype/StillImage" />
        <dc:title></dc:title>
      </cc:Work>
    </rdf:RDF>
  </metadata>
  <g
     inkscape:label="Layer 1"
     inkscape:groupmode="layer"
     id="layer1"
     transform="translate(-92.896769,-136.93373)">
    <path
       style="fill:#000000;stroke:none;stroke-width:0.03527778"
       inkscape:connector-curvature="0"
       id="path8"
       d="m 105.49951,137.41452 c -1.72861,0.56444 -3.98639,2.25777 -4.65667,3.52777 -0.28222,0.52917 -0.917219,0.98778 -1.587497,1.12889 -1.728611,0.35278 -3.704167,1.5875 -4.445,2.78695 -0.705556,1.16416 -1.658056,3.77472 -1.869722,5.15055 -0.352778,2.25778 1.446389,4.26861 4.550833,4.93889 l 2.010834,0.45861 -1.023056,0.81139 c -0.599722,0.49389 -1.27,0.70556 -1.728611,0.59972 -1.093611,-0.28222 -2.116667,0.98778 -1.5875,1.94028 0.423333,0.81139 1.905,1.02306 2.363611,0.28222 0.141111,-0.21166 0.917222,-0.84666 1.693333,-1.37583 0.776112,-0.52917 1.622775,-1.30528 1.869725,-1.69333 0.49389,-0.77611 1.83444,-0.9525 1.83444,-0.24695 0,0.635 -1.79916,2.25778 -2.64583,2.43417 -0.987779,0.17639 -1.164168,1.86972 -0.21167,2.36361 0.67028,0.38806 1.79917,0.21167 1.79917,-0.28222 0,-0.17639 2.39889,-3.56306 2.96333,-4.16278 0.0353,-0.0353 1.19945,0.10583 2.57528,0.3175 1.97556,0.28222 2.57528,0.52917 2.89278,1.12889 1.51694,2.89278 2.61055,3.66889 3.52778,2.54 0.59972,-0.74083 0.35277,-1.69333 -0.56445,-2.15194 -0.38805,-0.21167 -0.98778,-0.59973 -1.34055,-0.88195 -0.56445,-0.45861 -0.52917,-0.49389 0.10583,-0.74083 0.52917,-0.21167 1.09361,0.10583 2.39889,1.34055 2.39889,2.18723 2.75167,2.36361 3.73944,1.51695 0.67028,-0.52917 0.74084,-0.77611 0.42334,-1.30528 -0.21167,-0.35278 -0.88195,-0.70556 -1.48167,-0.81139 -0.635,-0.10583 -1.44639,-0.45861 -1.83444,-0.77611 -0.70556,-0.635 -0.9525,-1.34056 -0.42334,-1.34056 0.56445,0 1.48167,-2.08138 1.48167,-3.38666 0,-0.70556 0.24694,-1.5875 0.56444,-1.94028 1.19945,-1.34056 -0.70555,-3.63361 -2.08139,-2.50472 -0.3175,0.28222 -0.91722,0.21166 -2.11666,-0.17639 -1.48167,-0.49389 -1.905,-0.49389 -3.77473,-0.0353 -1.905,0.45861 -2.08138,0.45861 -2.2225,-0.10583 -0.17638,-0.67028 0.42334,-1.34056 1.76389,-2.04611 1.09361,-0.56445 1.86973,-0.49389 3.45723,0.3175 0.77611,0.38805 1.72861,0.70555 2.18722,0.70555 1.02305,0 1.69333,-1.16417 1.16417,-2.11667 -0.635,-1.19944 -3.13973,-2.25777 -5.29167,-2.25777 -1.79917,0 -2.92806,0.35277 -4.83306,1.55222 -0.59972,0.38805 -0.88194,0.42333 -1.19944,0.10583 -1.05834,-1.05833 2.25778,-2.92805 5.11528,-2.92805 1.55222,0 2.01083,-0.14111 2.32833,-0.67028 1.12889,-2.11667 -2.08139,-3.175 -5.89139,-2.01083 z m -4.86833,6.56166 c 0.14111,0.21167 0.67027,0.3175 1.16416,0.28222 1.12889,-0.0705 1.83445,0.28223 1.83445,0.91723 0,0.24694 0.38805,0.77611 0.88194,1.19944 0.70556,0.59972 0.88195,1.09361 0.88195,2.29306 0,2.8575 -2.57528,5.32694 -5.29167,5.11528 -1.27,-0.10584 -1.446389,-0.45862 -0.881945,-1.79917 0.388056,-0.9525 -0.705555,-0.74083 -1.234722,0.28222 -0.529167,1.02306 -1.27,1.12889 -2.398889,0.3175 -0.9525,-0.67028 -0.987778,-1.41111 -0.07055,-1.65805 0.917222,-0.24695 0.917222,-1.55223 0.03528,-1.83445 -0.670278,-0.21167 -0.670278,-0.28222 -0.176389,-1.65805 0.599723,-1.76389 1.023056,-2.29306 2.434167,-3.17501 1.164167,-0.70555 2.469448,-0.84666 2.822228,-0.28222 z m 13.0175,5.43278 c 2.82222,2.61056 0.56444,5.50333 -4.26861,5.50333 -1.12889,0 -2.64584,-0.17638 -3.38667,-0.38805 l -1.30528,-0.35278 0.88195,-1.30528 c 0.49388,-0.70555 1.05833,-1.86972 1.23472,-2.57527 0.38805,-1.44639 1.51694,-1.97556 4.1275,-2.04612 1.19944,-0.0353 1.69333,0.17639 2.71639,1.16417 z" />
  </g>
</svg>
