<?xml version="1.0" encoding="UTF-8" standalone="no"?>
<!-- Created with Inkscape (http://www.inkscape.org/) -->

<svg
   xmlns:dc="http://purl.org/dc/elements/1.1/"
   xmlns:cc="http://creativecommons.org/ns#"
   xmlns:rdf="http://www.w3.org/1999/02/22-rdf-syntax-ns#"
   xmlns:svg="http://www.w3.org/2000/svg"
   xmlns="http://www.w3.org/2000/svg"
   xmlns:xlink="http://www.w3.org/1999/xlink"
   xmlns:sodipodi="http://sodipodi.sourceforge.net/DTD/sodipodi-0.dtd"
   xmlns:inkscape="http://www.inkscape.org/namespaces/inkscape"
   width="28.780561mm"
   height="19.904102mm"
   viewBox="0 0 28.780561 19.904102"
   version="1.1"
   id="svg4574"
   inkscape:version="0.92.4 (5da689c313, 2019-01-14)"
   sodipodi:docname="rat.svg">
  <defs
     id="defs4568" />
  <sodipodi:namedview
     id="base"
     pagecolor="#ffffff"
     bordercolor="#666666"
     borderopacity="1.0"
     inkscape:pageopacity="0.0"
     inkscape:pageshadow="2"
     inkscape:zoom="0.35"
     inkscape:cx="54.38857"
     inkscape:cy="37.613968"
     inkscape:document-units="mm"
     inkscape:current-layer="layer1"
     showgrid="false"
     fit-margin-top="0"
     fit-margin-left="0"
     fit-margin-right="0"
     fit-margin-bottom="0"
     inkscape:window-width="1920"
     inkscape:window-height="1017"
     inkscape:window-x="1912"
     inkscape:window-y="-8"
     inkscape:window-maximized="1" />
  <metadata
     id="metadata4571">
    <rdf:RDF>
      <cc:Work
         rdf:about="">
        <dc:format>image/svg+xml</dc:format>
        <dc:type
           rdf:resource="http://purl.org/dc/dcmitype/StillImage" />
        <dc:title></dc:title>
      </cc:Work>
    </rdf:RDF>
  </metadata>
  <g
     inkscape:label="Layer 1"
     inkscape:groupmode="layer"
     id="layer1"
     transform="translate(-91.443024,-138.88126)">
    <path
       style="fill:#000000;stroke:none;stroke-width:0.03527778"
       inkscape:connector-curvature="0"
       id="path10"
       d="m 98.619884,139.48139 c -0.846666,0.67027 -0.987778,0.9525 -0.811389,2.15194 0.105834,0.74083 0.03528,1.34056 -0.105833,1.34056 -0.599722,0 -2.54,1.905 -3.704167,3.66888 -0.670278,0.98778 -1.552222,2.22251 -1.975556,2.75167 -0.740833,0.91722 -0.740833,0.98778 -0.176388,1.86972 0.776111,1.19945 4.480278,2.92806 6.455833,3.06917 1.728616,0.10583 1.975556,0.52917 0.564445,0.84667 -1.658056,0.35278 -1.869723,0.45861 -2.081389,1.02305 -0.246945,0.635 0.423333,1.5875 1.164166,1.5875 0.493889,0 2.116664,-1.02305 3.527774,-2.25777 0.45862,-0.38806 0.91723,-0.56445 1.05834,-0.42334 0.17639,0.14111 -0.24695,0.70556 -0.91722,1.23472 -1.30528,1.05834 -1.41112,2.25778 -0.17639,2.43417 0.52916,0.0706 1.19944,-0.38805 2.15194,-1.48167 1.37583,-1.55222 1.51695,-1.62277 3.31611,-1.62277 1.79917,0 1.97556,0.0705 2.96334,1.44639 0.70555,0.9525 1.27,1.37583 1.76388,1.30527 1.12889,-0.17639 1.09362,-1.37583 -0.0353,-2.29305 -0.70555,-0.52917 -0.84666,-0.81139 -0.45861,-0.81139 0.28223,0 0.91723,0.38805 1.34056,0.84667 0.98778,1.02305 2.64583,1.76388 3.38667,1.48166 0.74083,-0.28222 0.67027,-1.5875 -0.0706,-1.83444 -2.25778,-0.67028 -2.39889,-0.88195 -2.39889,-3.77472 v -2.71639 l 2.18722,-1.44639 c 3.38667,-2.15195 5.43278,-5.04473 4.33917,-6.06778 -0.3175,-0.3175 -0.635,-0.14111 -1.34056,0.81139 -2.36361,3.10444 -6.31472,5.64444 -8.74889,5.64444 -0.77611,0 -1.905,0.14111 -2.54,0.3175 -0.98778,0.3175 -1.12889,0.24695 -1.12889,-0.35278 0,-0.42333 0.24695,-0.67027 0.70556,-0.67027 1.76389,0 2.78694,-2.78695 1.48166,-3.98639 -0.88193,-0.81139 -2.78693,-0.77611 -3.28082,0.0705 -0.42334,0.635 -0.49389,0.59973 -1.69334,-0.21166 -1.05833,-0.70556 -1.23472,-1.02306 -1.16416,-1.97556 0.21166,-2.2225 -1.83445,-3.35139 -3.598336,-1.97555 z m 4.303886,5.89138 c 2.68111,2.50473 1.12889,6.84389 -2.57527,7.16139 -2.046116,0.14112 -2.822227,0 -2.363616,-0.45861 0.599723,-0.59972 0.529167,-1.69333 -0.105833,-1.69333 -0.282222,0 -0.529167,0.21167 -0.529167,0.49389 0,0.88194 -0.881944,1.34055 -1.834444,0.88194 -1.305278,-0.56444 -1.199445,-2.08139 0.282222,-4.40972 1.411111,-2.18722 2.54,-2.92806 4.586108,-2.96333 1.12889,0 1.72861,0.21166 2.54,0.98777 z m 8.74889,5.53862 c 0.10584,0.49389 0.10584,1.27 0,1.72861 -0.17639,0.77611 -0.45861,0.88194 -2.82222,1.09361 -1.41111,0.14111 -3.24556,0.14111 -4.05694,0 l -1.44639,-0.24695 0.84666,-0.67027 c 0.49389,-0.38806 0.9525,-0.98778 1.09361,-1.34056 0.21167,-0.70555 2.36362,-1.34055 4.83306,-1.41111 1.12889,-0.0353 1.37583,0.10583 1.55222,0.84667 z" />
    <use
       x="0"
       y="0"
       xlink:href="#path10"
       id="use4582"
       width="100%"
       height="100%" />
  </g>
</svg>
