<?xml version="1.0" encoding="UTF-8" standalone="no"?>
<!-- Created with Inkscape (http://www.inkscape.org/) -->

<svg xmlns:dc="http://purl.org/dc/elements/1.1/" 
    xmlns:cc="http://creativecommons.org/ns#" 
    xmlns:rdf="http://www.w3.org/1999/02/22-rdf-syntax-ns#" 
    xmlns:svg="http://www.w3.org/2000/svg" 
    xmlns="http://www.w3.org/2000/svg" 
    xmlns:sodipodi="http://sodipodi.sourceforge.net/DTD/sodipodi-0.dtd" 
    xmlns:inkscape="http://www.inkscape.org/namespaces/inkscape" width="22.056128mm" height="23.861193mm" viewBox="0 0 22.056128 23.861193" version="1.1" id="svg4774" inkscape:version="0.92.4 (5da689c313, 2019-01-14)" sodipodi:docname="Rooster.svg">
    <defs id="defs4768" />
    <sodipodi:namedview id="base" pagecolor="#ffffff" bordercolor="#666666" borderopacity="1.0" inkscape:pageopacity="0.0" inkscape:pageshadow="2" inkscape:zoom="0.35" inkscape:cx="101.68088" inkscape:cy="85.091855" inkscape:document-units="mm" inkscape:current-layer="layer1" showgrid="false" fit-margin-top="0" fit-margin-left="0" fit-margin-right="0" fit-margin-bottom="0" inkscape:window-width="1920" inkscape:window-height="1017" inkscape:window-x="1912" inkscape:window-y="-8" inkscape:window-maximized="1" />
    <metadata id="metadata4771">
        <rdf:RDF>
            <cc:Work rdf:about="">
                <dc:format>image/svg+xml</dc:format>
                <dc:type rdf:resource="http://purl.org/dc/dcmitype/StillImage" />
                <dc:title></dc:title>
            </cc:Work>
        </rdf:RDF>
    </metadata>
    <g inkscape:label="Layer 1" inkscape:groupmode="layer" id="layer1" transform="translate(-78.930267,-147.48603)">
        <path style="fill:#000000;stroke:none;stroke-width:0.03527778" inkscape:connector-curvature="0" id="path20" d="m 82.757906,147.95805 c -0.211666,0.24694 -0.3175,0.67028 -0.246944,0.91722 0.105833,0.24694 -0.211667,0.74083 -0.635,1.09361 -0.635,0.49389 -0.987778,0.56445 -1.516945,0.28222 -1.058333,-0.59972 -1.234722,-0.45861 -0.599722,0.49389 0.740834,1.12889 0.705556,1.48167 -0.141111,1.76389 -0.917222,0.28222 -0.917222,0.88195 0,0.88195 0.776111,0 0.881945,0.38805 1.234722,3.70416 0.529167,5.43278 2.187223,8.29028 5.644445,9.525 0.987778,0.35278 1.799167,0.67028 1.869722,0.74084 0.07056,0.0353 0,0.49388 -0.141111,1.02305 -0.176389,0.77611 -0.388055,0.91722 -1.058333,0.74083 -0.599722,-0.17638 -0.846667,-0.0706 -0.846667,0.3175 0,0.28223 -0.03528,0.635 -0.07056,0.77612 -0.07056,0.14111 0.564445,0.45861 1.375834,0.67027 l 1.516944,0.45862 0.352778,-1.48167 c 0.599722,-2.29306 0.635,-2.36361 1.516945,-2.36361 0.564444,0 0.987777,0.3175 1.234722,0.88194 0.529166,1.16417 0.529166,1.23472 -0.141111,1.23472 -0.388056,0 -0.493889,0.17639 -0.352778,0.56445 0.105833,0.3175 0.211667,0.67028 0.211667,0.81139 0,0.17639 0.776111,0.14111 1.728611,-0.0706 l 1.728611,-0.3175 -0.987778,-1.65806 -0.9525,-1.65805 1.516944,-0.45861 c 4.409723,-1.30528 6.949729,-6.59695 5.644449,-11.71223 -0.3175,-1.19944 -0.670282,-2.29305 -0.740837,-2.36361 -0.07056,-0.10583 -0.458611,0.21167 -0.846667,0.67028 -0.670278,0.81139 -0.705555,0.84667 -1.199444,0.17639 -0.493889,-0.67028 -0.529167,-0.67028 -0.987778,0.0705 l -0.493889,0.77611 -0.599722,-0.77611 -0.564445,-0.77611 -0.776111,1.27 c -0.635,1.12889 -0.917222,1.30528 -2.398889,1.41111 -2.187222,0.21167 -2.434167,0.10584 -2.928055,-1.4111 -0.211667,-0.74084 -0.705556,-1.83445 -1.093611,-2.50473 -0.458611,-0.84666 -0.564445,-1.30527 -0.3175,-1.55222 0.740833,-0.74083 0.388055,-1.62278 -0.740834,-2.11666 -1.481666,-0.67028 -3.668889,-0.67028 -4.198056,-0.0353 z m 2.928056,3.28083 c 0.458611,0.38806 1.305278,1.79917 1.834445,3.175 0.776111,1.97556 1.164167,2.54 1.834444,2.71639 1.446389,0.35278 4.727222,-0.0353 5.326944,-0.67028 0.529167,-0.52916 0.599723,-0.52916 1.058334,0.0353 0.423333,0.56444 0.493889,0.56444 0.9525,-0.0353 0.493889,-0.635 0.529167,-0.635 0.846667,0 0.352777,0.59972 0.388055,0.59972 1.093611,-0.0353 l 0.740833,-0.67027 v 2.11666 c 0,4.79778 -3.175,7.86695 -8.078611,7.86695 -4.233333,0 -6.596945,-1.23472 -7.831667,-4.09222 -0.776111,-1.72862 -1.5875,-8.00806 -1.234722,-9.41917 0.211666,-0.88195 1.128889,-1.5875 2.187222,-1.62278 0.211667,-0.0353 0.776111,0.28222 1.27,0.635 z" />
    </g>
</svg>
