<?xml version="1.0" encoding="UTF-8" standalone="no"?>
<!-- Created with Inkscape (http://www.inkscape.org/) -->

<svg
   xmlns:dc="http://purl.org/dc/elements/1.1/"
   xmlns:cc="http://creativecommons.org/ns#"
   xmlns:rdf="http://www.w3.org/1999/02/22-rdf-syntax-ns#"
   xmlns:svg="http://www.w3.org/2000/svg"
   xmlns="http://www.w3.org/2000/svg"
   xmlns:sodipodi="http://sodipodi.sourceforge.net/DTD/sodipodi-0.dtd"
   xmlns:inkscape="http://www.inkscape.org/namespaces/inkscape"
   width="35.359467mm"
   height="31.544445mm"
   viewBox="0 0 35.359467 31.544445"
   version="1.1"
   id="svg4613"
   inkscape:version="0.92.4 (5da689c313, 2019-01-14)"
   sodipodi:docname="tiger.svg">
  <defs
     id="defs4607" />
  <sodipodi:namedview
     id="base"
     pagecolor="#ffffff"
     bordercolor="#666666"
     borderopacity="1.0"
     inkscape:pageopacity="0.0"
     inkscape:pageshadow="2"
     inkscape:zoom="0.35"
     inkscape:cx="-70.32182"
     inkscape:cy="68.182963"
     inkscape:document-units="mm"
     inkscape:current-layer="layer1"
     showgrid="false"
     fit-margin-top="0"
     fit-margin-left="0"
     fit-margin-right="0"
     fit-margin-bottom="0"
     inkscape:window-width="1920"
     inkscape:window-height="1017"
     inkscape:window-x="1912"
     inkscape:window-y="-8"
     inkscape:window-maximized="1" />
  <metadata
     id="metadata4610">
    <rdf:RDF>
      <cc:Work
         rdf:about="">
        <dc:format>image/svg+xml</dc:format>
        <dc:type
           rdf:resource="http://purl.org/dc/dcmitype/StillImage" />
        <dc:title></dc:title>
      </cc:Work>
    </rdf:RDF>
  </metadata>
  <g
     inkscape:label="Layer 1"
     inkscape:groupmode="layer"
     id="layer1"
     transform="translate(-124.43932,-135.32897)">
    <path
       style="fill:#000000;stroke:none;stroke-width:0.03527778"
       inkscape:connector-curvature="0"
       id="path6"
       d="m 152.26643,135.95906 c 0,0.42333 0.38805,0.74083 1.16417,0.9525 l 1.12888,0.35278 v 2.46944 c -0.0353,1.97556 -0.28222,3.06917 -1.23472,5.46806 l -1.23472,2.99861 -3.35139,0.21167 c -1.83444,0.10583 -4.26861,0.38805 -5.43278,0.635 -2.71639,0.59972 -3.175,0.17639 -1.65805,-1.55222 0.59972,-0.70556 1.09361,-1.55223 1.09361,-1.94028 0,-0.81139 -1.23472,-1.23472 -2.89278,-0.98778 -0.77611,0.14111 -1.48167,-0.0706 -2.32833,-0.635 -0.67028,-0.45861 -1.86973,-1.02306 -2.68111,-1.23472 -0.88195,-0.21167 -1.90501,-0.84667 -2.61056,-1.62278 -1.09361,-1.16417 -1.19945,-1.19945 -1.79917,-0.67028 -0.35278,0.35278 -0.77611,1.09361 -0.88194,1.72861 -0.35278,1.69334 -1.51695,2.71639 -3.13972,2.71639 -1.34056,0 -1.34056,0.0353 -1.12889,1.09361 0.17639,0.81139 0.10583,1.19945 -0.38806,1.51695 -0.56444,0.42333 -0.59972,0.56444 -0.10583,1.30528 0.38805,0.59972 0.45861,1.19944 0.28222,2.04611 -0.49389,2.36361 1.12889,5.08 3.35139,5.50333 1.97555,0.38806 4.445,1.27 4.445,1.5875 0,0.38806 -1.905,1.83445 -3.35139,2.57528 -0.59972,0.28222 -1.55222,0.42333 -2.18722,0.35278 -0.9525,-0.14111 -1.19945,-0.0353 -1.55222,0.70555 -0.49389,1.09361 0.10583,2.36361 1.09361,2.36361 0.98777,0 1.76389,-0.38805 1.76389,-0.88194 0,-0.21167 0.67027,-0.74083 1.51694,-1.09361 0.81139,-0.35278 2.08139,-1.19945 2.82222,-1.86972 1.05834,-0.9525 1.41111,-1.09362 1.83445,-0.74084 0.38805,0.3175 0.42333,0.59972 0.14111,1.19945 -0.635,1.19944 -2.54,3.03389 -3.13972,3.03389 -0.74084,0 -1.76389,1.09361 -1.76389,1.86972 0,0.3175 0.38805,0.84666 0.84666,1.12889 1.05834,0.70555 2.32834,0.21166 2.32834,-0.88195 0,-0.38805 0.38805,-1.02305 0.84666,-1.48166 0.45862,-0.45862 1.27,-1.41112 1.76389,-2.18723 l 0.91723,-1.37583 4.30388,-0.10583 c 2.39889,-0.0353 4.93889,-0.24695 5.67973,-0.42334 1.27,-0.35277 1.34055,-0.3175 1.86972,0.84667 0.56444,1.16417 2.36361,2.96333 2.96333,2.96333 0.14111,0 0.38806,0.38806 0.49389,0.84667 0.38806,1.48167 2.75167,1.65806 3.21028,0.21167 0.35278,-1.12889 -0.42333,-2.11667 -1.65806,-2.11667 -0.77611,0 -1.44638,-0.38806 -2.46944,-1.41111 -0.77611,-0.77611 -1.34056,-1.5875 -1.27,-1.83445 0.3175,-0.88194 1.37583,-0.67027 2.50472,0.42334 0.635,0.635 1.86972,1.48166 2.75167,1.94028 0.91722,0.45861 1.72861,1.09361 1.83444,1.41111 0.3175,0.81139 1.86973,0.635 2.50473,-0.24695 0.84666,-1.19944 0.0353,-2.2225 -1.79917,-2.2225 -1.41111,-0.0353 -2.71639,-0.67028 -4.23333,-2.04611 l -0.77612,-0.67028 0.77612,-1.05833 c 0.9525,-1.27 1.05833,-4.79778 0.21166,-6.45583 -0.49389,-0.98778 -0.45861,-1.19945 0.59972,-3.52778 2.46945,-5.36222 2.8575,-9.45445 1.02306,-11.00667 -1.12889,-0.98778 -2.99861,-1.09361 -2.99861,-0.17639 z m -20.60223,8.89 c 0,0.38806 -0.17638,0.70556 -0.35277,0.70556 -0.17639,0 0,0.3175 0.42333,0.70555 0.84667,0.81139 1.37583,0.88195 1.55222,0.3175 0.10584,-0.3175 0.35278,-0.3175 0.9525,0 1.12889,0.635 1.41111,0.10584 0.38806,-0.67027 -0.49389,-0.38806 -0.70556,-0.70556 -0.49389,-0.70556 0.21167,0 0.81139,0.3175 1.30528,0.70556 0.49389,0.38805 0.98778,0.56444 1.09361,0.38805 0.14111,-0.17639 -0.21167,-0.67028 -0.70556,-1.05833 -0.52916,-0.42334 -0.74083,-0.74084 -0.49389,-0.74084 0.24695,0 1.09362,0.67028 1.905,1.48167 l 1.44639,1.44639 -1.16416,0.3175 c -1.44639,0.38806 -1.12889,1.12889 0.35277,0.81139 0.74084,-0.17639 0.98778,-0.14111 0.84667,0.14111 -0.14111,0.21167 -0.59972,0.38806 -1.05833,0.38806 -0.88195,0 -1.34056,0.3175 -1.09361,0.70555 0.10583,0.17639 0.74083,0.14111 1.41111,0 1.41111,-0.3175 2.43416,0.38806 1.41111,0.9525 -0.45861,0.28222 -0.49389,0.52917 -0.21167,1.27 0.3175,0.84667 0.28222,0.9525 -0.49389,1.16417 -0.59972,0.14111 -0.88194,0.45861 -0.88194,0.98778 0,0.67027 -0.3175,0.81138 -2.43417,1.19944 -2.32833,0.45861 -4.26861,0.3175 -4.26861,-0.28222 0,-0.17639 0.17639,-0.42334 0.35278,-0.52917 0.45861,-0.28222 0.45861,-1.5875 0,-1.5875 -0.17639,0 -0.56445,0.45861 -0.88195,1.05833 -0.635,1.19945 -0.88194,1.27 -2.29305,0.52917 -1.23472,-0.635 -2.08139,-1.94028 -1.27,-1.94028 0.56444,0 1.62278,-0.91722 1.62278,-1.44639 0,-0.17638 -0.38806,-0.49388 -0.88195,-0.74083 -0.45861,-0.21167 -0.77611,-0.52917 -0.67028,-0.70555 0.10584,-0.17639 0,-0.56445 -0.28222,-0.88195 -0.35278,-0.45861 -0.35278,-0.59972 0,-0.70555 0.21167,-0.10584 0.42333,-0.56445 0.42333,-1.02306 0,-0.52917 0.21167,-0.84667 0.52917,-0.84667 0.28222,0 1.19945,-0.49389 2.01083,-1.05833 1.69334,-1.23472 1.905,-1.27 1.905,-0.35278 z m 18.16806,5.99722 c 0.14111,0.49389 0.24695,1.79917 0.28222,2.92806 0.0353,1.48167 0.17639,2.01083 0.49389,1.905 0.28222,-0.0706 0.42334,-0.98778 0.42334,-2.82222 0,-1.51695 0.10583,-2.71639 0.24694,-2.71639 0.52917,0 1.34056,2.11667 1.34056,3.4925 0,2.2225 -0.49389,3.03389 -2.18723,3.73944 -2.36361,0.9525 -6.38527,1.5875 -9.91305,1.5875 -2.78695,0 -3.45722,-0.10583 -4.62139,-0.84666 -1.55222,-0.9525 -1.34056,-1.12889 1.79917,-1.48167 1.79916,-0.24694 1.905,-0.28222 1.76388,-1.09361 -0.14111,-0.70556 0.0353,-0.9525 0.84667,-1.23472 0.9525,-0.3175 1.02306,-0.45861 0.81139,-1.55223 -0.17639,-0.9525 -0.10583,-1.19944 0.35278,-1.19944 0.42333,0 0.56444,0.35278 0.56444,1.55222 0,0.88195 -0.17639,2.01084 -0.35278,2.54 -0.28222,0.67028 -0.28222,1.05834 0,1.34056 0.70556,0.70555 1.19945,-0.49389 1.41112,-3.42195 0.14111,-2.29305 0.28222,-2.89277 0.77611,-2.99861 0.70555,-0.14111 1.16416,2.11667 0.84666,4.33917 -0.28222,1.72861 0.21167,2.39889 0.88195,1.19944 0.24694,-0.49389 0.35278,-1.76389 0.24694,-3.38666 -0.14111,-2.25778 -0.10583,-2.57528 0.42334,-2.57528 0.77611,0 1.05833,0.98778 1.05833,3.77472 0,2.39889 0.49389,3.13972 1.09361,1.62278 0.38806,-0.98778 0.24694,-3.95111 -0.24694,-5.15056 -0.21167,-0.52916 -0.10584,-0.635 0.59972,-0.52916 0.52916,0.0706 0.91722,0.42333 1.05833,0.98777 z" />
  </g>
</svg>
