<?xml version="1.0" standalone="no"?>
<!DOCTYPE svg PUBLIC "-//W3C//DTD SVG 20010904//EN"
 "http://www.w3.org/TR/2001/REC-SVG-20010904/DTD/svg10.dtd">
<svg version="1.0" xmlns="http://www.w3.org/2000/svg"
 width="450.000000pt" height="437.000000pt" viewBox="0 0 450.000000 437.000000"
 preserveAspectRatio="xMidYMid meet">
<metadata>
Created by potrace 1.16, written by Peter Selinger 2001-2019
</metadata>
<g transform="translate(0.000000,437.000000) scale(0.100000,-0.100000)"
fill="#000000" stroke="none">
<path d="M1302 4198 c-7 -7 -12 -25 -12 -40 0 -26 -2 -28 -27 -21 -54 13 -68
10 -71 -20 -3 -22 2 -30 26 -40 l30 -12 -30 -45 c-17 -25 -47 -63 -68 -86 -46
-50 -56 -89 -36 -138 28 -67 106 -93 182 -61 20 8 39 13 44 10 4 -2 10 -47 13
-100 4 -67 12 -108 26 -138 26 -54 29 -156 5 -192 -17 -26 -8 -58 21 -69 41
-15 75 32 51 69 -10 15 -16 47 -16 84 l0 59 28 -7 c25 -7 27 -12 30 -66 2 -32
-2 -63 -7 -68 -17 -17 -13 -42 9 -62 29 -27 70 -7 70 34 0 16 -4 33 -10 36 -5
3 -10 31 -10 61 l0 54 59 0 c32 0 86 3 120 6 l61 7 0 -60 c0 -42 -5 -64 -15
-73 -37 -31 11 -94 54 -70 22 11 30 63 11 75 -5 3 -10 37 -10 76 0 53 3 69 14
69 8 0 21 3 30 6 14 5 16 -5 16 -69 0 -42 -4 -79 -10 -82 -5 -3 -10 -20 -10
-36 0 -41 41 -61 70 -34 21 19 26 50 10 60 -6 3 -10 49 -10 103 1 158 38 268
45 133 1 -25 3 -49 4 -52 2 -12 38 -16 55 -7 20 11 21 57 2 64 -8 3 -25 51
-41 117 -15 62 -33 122 -41 134 -23 37 -74 46 -224 39 l-137 -7 -21 73 c-28
92 -28 98 4 98 39 0 64 18 64 46 0 25 -2 26 -54 22 l-54 -3 29 33 c31 34 36
61 18 79 -17 17 -39 4 -39 -23 0 -36 -41 -59 -81 -45 -18 6 -51 11 -74 11 -49
0 -75 21 -55 45 22 27 -12 49 -38 23z m102 -135 c-54 -83 -59 -130 -18 -162
21 -16 41 -21 91 -21 l64 0 15 -36 c8 -20 23 -38 34 -41 14 -4 18 -14 16 -53
-1 -55 22 -88 85 -120 40 -21 162 -40 202 -33 25 5 26 4 17 -27 -12 -41 -8
-39 -71 -55 -121 -32 -268 -39 -373 -18 l-30 5 30 15 c74 39 91 80 54 140 -22
37 -53 58 -97 68 -28 6 -32 11 -35 43 -2 30 -8 38 -25 40 -15 2 -23 10 -23 24
0 30 -24 16 -28 -16 -3 -21 -12 -31 -37 -42 -47 -19 -59 -18 -94 12 -43 36
-41 70 7 124 28 31 47 44 72 47 40 4 83 41 111 96 11 20 27 37 35 37 14 0 14
-3 -2 -27z"/>
<path d="M3060 4122 c0 -12 11 -21 33 -27 l32 -10 0 -70 c-1 -56 -8 -87 -35
-155 l-35 -85 -95 -6 c-52 -3 -121 -11 -154 -18 -77 -17 -90 -5 -47 44 17 20
31 44 31 55 0 23 -35 35 -82 28 -22 -4 -42 2 -66 18 -19 13 -53 29 -76 35 -25
6 -54 24 -74 46 -31 33 -34 34 -51 19 -10 -10 -22 -31 -25 -49 -10 -48 -43
-77 -89 -77 -38 0 -38 -1 -32 -31 5 -23 3 -34 -11 -43 -16 -12 -17 -16 -3 -37
11 -17 13 -34 8 -58 -14 -67 32 -144 95 -156 56 -11 126 -36 126 -45 0 -11
-54 -52 -95 -73 -17 -8 -44 -12 -62 -10 -27 4 -34 1 -44 -20 -14 -31 3 -67 31
-67 28 0 50 11 50 25 0 6 19 21 43 31 23 10 59 34 80 53 30 27 40 31 52 21 11
-9 12 -17 4 -34 -18 -34 -72 -86 -89 -86 -21 0 -50 -31 -50 -53 0 -9 11 -24
24 -32 30 -20 66 -6 66 25 0 11 11 29 24 42 13 13 36 40 50 62 l26 39 122 3
c68 1 140 7 161 12 36 10 38 9 53 -24 16 -33 67 -84 84 -84 4 0 11 -11 14 -24
11 -42 78 -47 91 -6 10 32 -12 60 -47 60 -22 0 -41 11 -70 40 -22 22 -38 45
-36 52 9 25 39 19 71 -12 18 -18 53 -42 78 -55 26 -13 49 -31 52 -40 9 -23 53
-18 71 7 24 34 1 63 -51 63 -40 1 -77 19 -120 58 l-22 19 22 30 c27 36 30 136
6 183 -14 28 -13 34 17 100 70 152 81 268 29 312 -32 28 -85 31 -85 5z m-584
-252 c0 -11 -5 -20 -10 -20 -5 0 0 -9 12 -20 24 -23 39 -25 44 -9 3 9 10 9 27
0 32 -18 40 -3 11 19 -14 11 -20 20 -14 20 6 0 23 -9 37 -20 14 -11 28 -16 31
-11 4 5 -6 19 -20 30 -15 12 -21 21 -14 21 7 0 31 -19 54 -42 l41 -41 -33 -9
c-41 -11 -32 -32 10 -23 21 5 28 4 24 -4 -4 -6 -17 -11 -30 -11 -25 0 -38 -9
-31 -20 3 -5 21 -4 40 0 40 9 69 -11 40 -27 -13 -8 -14 -15 -6 -36 9 -24 8
-27 -14 -33 -17 -4 -25 -13 -25 -28 0 -19 -9 -23 -69 -34 -66 -13 -121 -9
-121 8 0 5 5 12 10 15 13 8 13 45 0 45 -5 0 -16 -13 -25 -30 -18 -34 -25 -36
-65 -15 -35 18 -59 55 -36 55 16 0 46 26 46 41 0 5 -11 14 -25 21 -13 6 -22
15 -19 20 3 5 0 16 -8 25 -10 13 -10 17 0 20 6 3 12 16 12 29 0 15 6 24 15 24
8 0 34 14 57 30 48 35 54 36 54 10z m515 -170 c4 -14 7 -51 8 -83 1 -42 5 -57
14 -54 8 2 12 28 12 80 0 43 3 77 7 77 15 0 38 -60 38 -99 0 -63 -14 -86 -62
-106 -67 -27 -181 -45 -281 -45 -79 0 -98 3 -131 24 -44 27 -38 32 51 42 51 7
54 8 50 31 -4 20 1 27 24 35 27 9 29 13 23 44 -5 27 -3 34 10 34 12 0 16 -10
16 -44 0 -25 -5 -57 -10 -72 -8 -19 -8 -30 0 -38 20 -20 34 14 40 97 4 65 8
82 22 85 20 4 33 -60 24 -123 -8 -49 6 -68 25 -34 7 14 10 50 7 96 -4 64 -3
73 12 73 22 0 30 -28 30 -107 0 -68 14 -89 31 -46 11 28 7 112 -7 146 -6 15
-3 18 17 15 15 -2 26 -12 30 -28z"/>
<path d="M3803 3906 c-49 -16 -113 -64 -132 -100 -8 -15 -26 -28 -45 -32 -49
-10 -105 -45 -126 -79 -20 -33 -47 -107 -53 -146 -10 -64 41 -121 129 -140
l57 -13 -29 -23 c-17 -14 -36 -20 -49 -17 -31 8 -60 -28 -45 -55 12 -23 54
-29 67 -8 4 6 26 24 48 39 22 15 46 37 53 48 14 22 52 27 52 7 0 -18 -51 -64
-75 -69 -28 -5 -33 -53 -6 -67 19 -11 51 -6 51 8 0 5 68 101 84 118 1 1 34 -3
73 -9 56 -8 73 -15 82 -32 43 -82 74 -104 100 -72 17 21 10 48 -16 61 -11 6
-28 17 -38 25 -16 13 -15 14 3 21 15 6 31 -3 68 -38 68 -62 78 -67 106 -43 19
15 21 22 12 37 -6 10 -25 20 -42 23 -18 3 -41 13 -52 22 -20 18 -27 38 -12 38
16 0 42 59 42 96 0 20 7 45 16 55 34 38 -20 103 -59 71 -9 -8 -26 -6 -60 5
-42 14 -54 14 -107 1 -54 -13 -59 -13 -63 3 -5 19 12 38 50 58 31 16 53 14 98
-9 22 -11 49 -20 62 -20 29 0 48 33 33 60 -18 34 -89 64 -150 64 -51 0 -83
-10 -137 -44 -17 -11 -25 -12 -34 -3 -30 30 64 83 145 83 44 0 57 4 66 19 32
60 -59 90 -167 57z m-138 -186 c4 -6 19 -9 33 -8 32 2 52 -8 52 -26 0 -7 11
-22 25 -34 20 -17 25 -31 25 -65 0 -81 -73 -151 -150 -145 -36 3 -41 13 -25
51 11 27 -20 21 -35 -8 -15 -29 -36 -32 -68 -9 -27 19 -28 40 -2 47 26 7 26
44 1 52 -19 6 -19 8 -5 47 17 50 29 65 69 90 33 20 70 24 80 8z m369 -154 c80
-74 16 -156 -121 -156 -32 0 -75 5 -96 11 l-37 10 25 37 c14 20 30 53 35 73
11 41 43 56 117 58 34 1 48 -5 77 -33z"/>
<path d="M426 3759 c-24 -19 -28 -27 -23 -61 3 -21 1 -38 -3 -38 -17 0 -72
-54 -105 -104 -19 -28 -44 -63 -56 -78 -21 -26 -21 -28 -5 -53 22 -34 127 -83
183 -87 49 -3 56 -15 16 -24 -47 -10 -53 -13 -59 -29 -7 -18 12 -45 33 -45 14
0 60 29 100 64 13 11 26 16 30 12 5 -4 -7 -20 -26 -35 -37 -30 -40 -64 -5 -69
15 -2 34 11 61 42 39 44 43 46 94 46 51 0 56 -2 84 -41 20 -27 36 -39 50 -37
32 5 31 39 -1 65 -20 15 -24 23 -13 23 8 0 26 -11 38 -24 28 -29 75 -50 96
-42 21 8 19 45 -2 52 -64 19 -68 25 -68 107 l0 77 62 41 c96 61 154 143 123
172 -9 9 -18 4 -38 -23 -67 -88 -179 -160 -248 -160 -22 0 -54 -4 -72 -9 -28
-9 -32 -7 -32 10 0 12 7 19 20 19 50 0 79 79 42 113 -25 23 -79 22 -93 -2 -12
-18 -14 -17 -48 6 -30 20 -35 29 -33 56 6 63 -52 95 -102 56z m122 -167 c76
-71 32 -194 -73 -203 -58 -4 -80 0 -67 13 17 17 15 48 -3 48 -8 0 -15 -6 -15
-14 0 -25 -25 -38 -52 -25 -37 16 -34 59 8 125 40 62 72 83 130 84 32 0 49 -6
72 -28z m248 -157 c3 -14 3 -36 0 -49 -5 -22 -13 -25 -80 -31 -40 -4 -92 -4
-115 0 l-41 7 24 19 c14 11 27 28 31 38 6 20 67 38 137 40 32 1 39 -3 44 -24z"/>
<path d="M500 2736 c0 -12 -6 -15 -24 -10 -35 8 -40 -11 -11 -39 27 -24 26
-51 -1 -61 -10 -4 -26 10 -47 40 l-32 46 -9 -31 c-6 -21 -5 -40 3 -57 10 -22
8 -30 -11 -56 -60 -80 -108 -110 -108 -67 0 11 -5 19 -12 17 -19 -7 -20 -25
-2 -43 11 -10 19 -35 20 -61 2 -53 23 -80 74 -95 l37 -11 -31 -57 c-28 -50
-31 -64 -29 -136 0 -44 4 -114 8 -156 6 -64 4 -81 -10 -103 -23 -34 -8 -76 27
-76 44 0 66 35 43 67 -8 10 -15 33 -15 51 l0 33 29 -20 c15 -11 40 -25 55 -31
26 -9 26 -11 11 -34 -19 -29 -8 -60 25 -69 36 -9 79 50 50 68 -22 13 -8 20 46
22 31 2 71 7 90 12 27 7 34 6 34 -4 0 -8 -4 -17 -10 -20 -14 -9 -13 -48 2 -63
15 -15 51 -15 66 0 15 15 16 54 2 63 -5 3 -10 18 -10 33 0 19 8 32 30 44 l30
17 0 -44 c0 -24 -4 -47 -10 -50 -16 -10 -12 -62 6 -69 53 -20 91 22 60 68 -23
36 -21 126 3 168 11 18 29 75 40 127 19 87 31 116 75 183 l17 26 -43 -9 c-69
-16 -103 -37 -188 -115 -80 -74 -108 -89 -151 -81 -22 4 -21 5 8 12 18 4 33
15 36 26 3 11 18 25 34 32 17 6 28 17 26 24 -3 7 7 24 21 38 14 14 26 27 26
28 0 1 -36 3 -80 3 l-79 2 -11 -32 c-12 -35 -46 -83 -54 -76 -10 10 12 81 36
115 20 30 27 34 53 29 23 -4 35 0 49 15 25 27 12 40 -14 16 -29 -26 -39 -9
-33 58 5 51 8 57 27 57 21 0 66 37 66 53 0 4 -27 7 -59 7 -33 0 -63 5 -66 11
-11 17 25 49 50 43 29 -7 51 18 30 36 -11 9 -12 16 -4 26 12 15 4 34 -16 34
-7 0 -34 -23 -58 -51 -37 -42 -49 -50 -67 -44 -20 6 -22 12 -18 68 2 52 0 62
-14 65 -11 2 -18 -3 -18 -12z m-35 -166 c-10 -15 14 -40 37 -40 17 0 18 2 8
15 -10 12 -10 19 -2 27 30 30 102 -47 102 -109 0 -51 -7 -59 -45 -55 -21 3
-35 0 -35 -7 0 -6 11 -11 25 -11 14 0 25 -4 25 -9 0 -14 -65 -41 -99 -41 -29
0 -30 2 -24 30 6 34 -12 42 -22 10 -13 -40 -100 -33 -121 9 -16 32 -6 61 27
80 16 9 29 22 29 30 0 19 65 81 85 81 9 0 13 -5 10 -10z m48 -314 c-13 -83 19
-140 86 -151 73 -12 127 11 213 93 43 41 80 73 82 71 7 -7 -34 -181 -51 -216
-18 -39 -59 -75 -116 -104 -35 -19 -45 -19 -83 -9 -121 34 -195 170 -164 299
14 59 42 73 33 17z"/>
<path d="M2422 2693 c-16 -30 -29 -43 -52 -48 -16 -4 -44 -23 -62 -44 -18 -21
-44 -44 -58 -51 -71 -36 -102 -103 -76 -164 23 -56 57 -71 152 -68 l81 2 12
-102 c6 -56 18 -112 26 -125 8 -12 15 -28 15 -35 0 -25 -99 -148 -119 -148
-26 0 -43 -24 -39 -57 2 -22 9 -29 31 -31 32 -4 57 12 57 37 0 9 25 49 55 90
30 41 55 78 55 82 0 7 38 -5 58 -17 7 -4 -69 -144 -78 -144 -5 0 -17 -11 -25
-24 -22 -34 -5 -66 34 -66 33 0 54 20 49 47 -1 11 15 58 36 106 l39 87 77 0
c43 0 85 3 94 6 10 4 18 -1 22 -12 4 -11 19 -48 35 -83 16 -35 29 -75 29 -90
0 -33 17 -51 46 -51 47 0 60 66 17 85 -20 8 -83 127 -83 155 0 6 12 10 28 10
23 -1 36 -14 85 -87 31 -47 57 -93 57 -103 0 -47 74 -51 86 -5 7 27 -10 55
-32 55 -29 0 -137 155 -117 168 34 22 43 99 19 157 -25 59 8 62 83 5 36 -27
63 -40 85 -40 45 0 76 25 76 61 0 26 -2 28 -19 17 -17 -11 -25 -7 -56 24 -21
22 -49 40 -69 44 -41 7 -97 -9 -121 -36 -14 -16 -21 -17 -38 -8 -29 15 -120
12 -190 -7 -32 -8 -62 -15 -67 -15 -20 0 -9 17 18 29 l27 13 -29 23 -29 23 23
12 23 12 -26 17 c-32 19 -34 28 -6 36 19 6 19 8 -11 30 -29 21 -30 24 -13 34
16 10 15 13 -21 44 l-38 33 7 63 7 63 -38 -26 c-21 -14 -46 -26 -54 -26 -9 0
-25 19 -37 42 l-20 43 -21 -42z m-1 -133 c22 -12 49 -2 29 10 -18 11 -4 40 19
40 11 0 31 -10 45 -22 21 -19 30 -45 51 -143 41 -199 45 -209 83 -213 18 -2
64 4 102 12 127 29 171 17 190 -53 22 -82 -7 -103 -165 -121 -143 -16 -215
-13 -253 10 -41 25 -52 53 -58 154 -8 128 -7 126 -60 126 -41 0 -45 2 -39 20
4 13 2 20 -7 20 -7 0 -19 -9 -26 -20 -29 -46 -122 -8 -122 50 0 31 41 77 77
86 14 4 29 17 33 30 5 13 24 33 42 44 l33 20 3 -20 c2 -11 12 -25 23 -30z"/>
<path d="M3609 2596 c-13 -7 -30 -11 -37 -8 -29 9 -62 -11 -92 -54 -24 -37
-29 -52 -24 -79 5 -30 2 -35 -38 -61 -58 -39 -84 -91 -68 -140 16 -48 61 -75
123 -72 26 0 50 -2 55 -6 4 -4 6 -38 4 -75 -2 -57 1 -71 18 -86 11 -10 20 -23
20 -30 0 -6 11 -22 25 -35 27 -26 31 -56 13 -106 -14 -41 1 -64 43 -64 23 0
30 6 35 27 4 14 2 34 -5 44 -28 46 0 108 35 78 17 -14 18 -61 3 -76 -6 -6 -9
-23 -7 -39 3 -26 7 -29 37 -29 44 0 60 23 41 62 -21 43 -18 56 14 60 16 2 37
8 46 13 9 5 22 5 31 -1 7 -5 37 -9 64 -8 28 1 56 1 63 0 15 -1 16 -43 1 -58
-6 -6 -9 -23 -7 -38 4 -38 39 -50 70 -25 23 18 23 19 6 64 l-17 45 35 20 34
20 0 -36 c0 -20 -7 -45 -17 -55 -25 -28 -4 -68 36 -68 41 0 59 32 37 65 -20
30 -22 115 -3 115 21 0 57 44 57 71 0 13 7 33 15 43 16 22 20 93 6 115 -5 7
-6 25 -2 40 10 35 -3 80 -28 98 -12 8 -21 21 -21 29 0 24 -56 74 -82 74 -13 0
-34 7 -46 16 -13 9 -38 14 -60 13 -23 -2 -47 4 -62 14 -14 9 -30 17 -38 17 -7
0 -23 11 -35 25 -12 14 -33 27 -47 29 -14 1 -37 10 -52 20 -15 10 -38 16 -51
14 -13 -1 -30 2 -38 8 -24 19 -64 24 -90 10z m67 -63 c18 -23 25 -26 35 -15
21 20 59 15 59 -7 0 -23 19 -31 41 -18 24 15 49 1 49 -28 0 -25 6 -29 47 -25
15 1 27 -8 38 -29 8 -17 17 -31 19 -31 1 0 13 9 26 20 31 27 55 25 78 -7 17
-23 22 -25 35 -14 12 9 21 10 36 1 21 -11 23 -15 25 -59 1 -18 8 -27 26 -31
31 -7 38 -44 14 -71 -17 -18 -16 -20 6 -44 26 -28 22 -68 -10 -85 -16 -9 -18
-15 -10 -30 17 -33 -4 -60 -46 -60 -27 0 -41 -7 -56 -25 -24 -31 -45 -32 -75
-3 l-23 21 -23 -21 c-29 -28 -51 -28 -76 -1 l-19 21 -30 -22 c-39 -29 -83 -24
-100 13 -16 32 -31 34 -55 7 -30 -36 -69 -23 -71 24 -1 12 -11 25 -23 31 -28
12 -30 41 -3 55 24 13 26 29 3 45 -23 17 -10 42 26 50 16 3 37 17 45 31 9 13
23 24 31 24 21 0 27 17 14 38 -15 24 5 82 28 82 7 0 27 9 42 21 26 19 32 20
56 8 37 -18 48 -50 28 -78 -19 -29 -57 -24 -61 7 -4 28 14 29 21 1 3 -12 12
-19 19 -17 18 6 22 46 8 64 -18 21 -67 18 -80 -5 -40 -77 44 -145 112 -91 53
41 38 123 -26 154 -47 22 -88 14 -121 -25 -27 -33 -45 -31 -45 6 0 29 -16 41
-35 25 -17 -14 -55 -4 -55 16 0 16 -18 18 -38 5 -8 -5 -24 -4 -38 3 -27 12
-32 26 -9 26 9 0 15 9 15 25 0 27 26 35 48 13 10 -10 17 -7 34 10 29 28 38 28
64 -5z m-90 -134 c3 -5 18 -9 34 -9 31 0 40 -15 38 -66 -2 -47 -37 -84 -86
-91 -38 -5 -42 -4 -42 16 0 27 -8 27 -36 -4 -28 -30 -43 -31 -78 -4 -45 35
-31 86 34 119 24 12 41 16 45 10 11 -18 35 -10 35 11 0 17 -5 20 -21 16 -15
-4 -18 -2 -10 7 11 13 78 9 87 -5z"/>
<path d="M1499 2571 c-65 -21 -92 -52 -123 -142 -24 -69 -21 -112 12 -147 l29
-31 -44 3 c-43 2 -63 -6 -43 -19 6 -4 8 -10 5 -15 -3 -4 2 -10 10 -14 9 -3 15
0 15 9 0 11 11 14 39 13 l39 -1 -24 -51 c-13 -28 -24 -59 -24 -68 0 -9 -18
-37 -40 -62 -48 -57 -58 -101 -36 -160 21 -54 36 -68 111 -103 52 -23 72 -27
150 -27 109 1 182 25 238 81 96 92 95 176 -4 293 -47 56 -56 94 -35 145 9 21
14 40 11 43 -2 3 -21 -2 -42 -9 -44 -17 -81 -66 -89 -121 -6 -32 -11 -38 -30
-38 -13 0 -24 3 -24 8 0 11 40 73 75 117 60 74 68 150 24 222 -37 60 -133 96
-200 74z m142 -80 c33 -33 39 -45 39 -82 0 -80 -57 -139 -134 -139 -34 0 -35
1 -29 30 6 35 -10 41 -27 9 -15 -27 -48 -21 -73 13 -19 25 -19 31 -7 70 32
102 71 138 149 138 37 0 49 -6 82 -39z m-61 -266 c0 -2 -7 -19 -16 -40 -19
-46 -21 -110 -4 -130 17 -20 103 -20 120 0 20 24 2 37 -46 29 -52 -8 -62 12
-11 21 73 14 142 -44 121 -102 -16 -44 -55 -65 -133 -71 -82 -5 -147 14 -170
50 -19 31 -15 111 9 166 30 68 46 82 91 80 22 -1 39 -2 39 -3z m145 -52 c3
-12 23 -43 45 -68 73 -85 86 -133 51 -191 -47 -77 -148 -119 -269 -112 -86 5
-146 30 -181 74 -24 31 -27 90 -7 117 13 17 15 15 32 -20 30 -60 90 -88 189
-87 136 0 205 49 205 143 0 43 -34 95 -70 106 -21 7 -27 46 -13 82 7 17 8 17
11 -2 1 -11 5 -30 7 -42z"/>
<path d="M1419 1204 c-6 -7 -9 -19 -7 -26 3 -7 -6 -21 -18 -31 -18 -14 -28
-16 -43 -8 -30 17 -35 13 -17 -14 21 -32 20 -42 -4 -50 -26 -8 -26 -25 0 -25
22 0 25 -11 35 -105 15 -154 62 -235 160 -270 28 -10 51 -19 53 -21 2 -1 0
-14 -4 -29 -5 -22 -11 -26 -30 -21 -17 5 -24 2 -24 -9 0 -8 -1 -18 -2 -22 -2
-4 16 -13 39 -19 l43 -13 10 42 c17 65 18 67 43 67 16 0 28 -9 35 -25 15 -33
15 -35 -4 -35 -11 0 -14 -5 -10 -16 3 -9 6 -19 6 -23 0 -5 22 -4 49 2 l49 9
-28 47 -27 47 43 13 c125 37 197 187 160 332 -9 34 -19 65 -21 67 -2 3 -13 -6
-24 -19 -19 -23 -20 -24 -34 -5 -14 19 -15 19 -28 -2 l-14 -22 -17 22 -16 22
-22 -36 c-18 -32 -26 -37 -68 -40 -62 -6 -69 -3 -83 40 -6 21 -20 52 -31 71
-13 24 -16 37 -9 44 21 21 11 46 -21 60 -42 19 -104 19 -119 1z m83 -93 c13
-11 37 -51 52 -90 22 -56 33 -72 52 -77 41 -10 134 1 151 19 15 15 17 15 30
-1 12 -16 14 -16 27 1 14 18 15 18 24 0 10 -17 11 -17 31 1 l21 19 0 -60 c0
-136 -90 -223 -229 -223 -120 0 -187 35 -222 116 -22 49 -45 227 -35 267 6 25
32 45 62 46 6 1 22 -8 36 -18z"/>
<path d="M1537 898 c-51 -44 -37 -120 26 -149 56 -25 102 -24 162 5 59 27 86
63 93 122 l4 43 -38 -11 c-36 -9 -87 -7 -185 8 -28 5 -41 1 -62 -18z m161 -26
c86 -5 94 -10 67 -48 -36 -53 -165 -74 -205 -34 -11 11 -20 31 -20 44 0 29 37
59 60 50 8 -4 52 -9 98 -12z"/>
<path d="M2631 1165 c-22 -54 -24 -55 -62 -55 -49 0 -87 -19 -125 -62 -16 -18
-43 -40 -58 -48 -57 -29 -82 -104 -53 -160 20 -39 76 -72 117 -68 19 3 46 -1
60 -9 14 -7 33 -13 42 -13 51 0 1 -59 -58 -69 -44 -7 -64 -32 -48 -58 15 -25
49 -28 66 -6 7 10 32 31 56 46 23 15 42 32 42 37 0 12 37 13 44 1 7 -11 -33
-47 -61 -55 -27 -8 -39 -42 -23 -61 17 -21 59 -19 67 3 4 9 23 36 42 60 l35
42 71 0 c76 0 69 5 122 -83 17 -29 35 -37 55 -26 31 16 22 55 -17 78 -38 22
-46 41 -17 41 10 0 42 -23 72 -50 57 -53 84 -60 104 -27 16 26 -4 52 -43 52
-17 1 -38 8 -47 17 -15 15 -15 20 1 62 16 42 16 86 -1 129 -2 7 6 17 18 22 29
13 52 59 44 90 -7 29 -39 61 -68 68 -15 4 -18 2 -13 -11 15 -36 17 -63 6 -91
-12 -28 -15 -28 -104 -34 -51 -2 -99 -8 -109 -12 -24 -10 -35 64 -14 102 11
20 15 23 16 11 0 -19 10 -21 58 -12 l31 6 -26 47 c-45 78 -45 79 -97 36 -47
-38 -66 -39 -66 -2 0 18 2 19 10 7 8 -13 13 -12 37 6 15 12 28 26 28 32 0 11
-88 72 -104 72 -4 0 -18 -25 -30 -55z m7 -109 c62 -32 94 -98 78 -160 -15 -62
-96 -116 -153 -101 -23 6 -24 7 -9 24 9 10 16 25 16 34 0 23 -26 22 -33 -2 -3
-14 -18 -20 -59 -25 -66 -8 -84 -2 -104 36 -15 29 -15 30 5 23 45 -14 82 40
49 73 -9 9 -8 12 5 12 10 0 21 10 26 23 24 63 117 95 179 63z m332 -185 c12
-23 13 -91 2 -107 -14 -20 -46 -25 -169 -25 -148 0 -171 8 -119 40 20 13 43
36 51 52 15 29 23 32 105 48 80 16 118 13 130 -8z"/>
<path d="M3607 1163 c-2 -5 -8 -26 -11 -47 -5 -25 -22 -56 -47 -84 -21 -25
-39 -51 -39 -58 0 -8 -16 -31 -35 -52 -63 -70 -67 -135 -8 -147 15 -4 64 -19
108 -34 76 -27 78 -29 55 -41 -13 -7 -33 -14 -45 -15 -11 -1 -23 -3 -27 -4
-14 -2 -19 -42 -8 -56 20 -24 44 -18 109 25 33 22 65 40 71 40 22 0 9 -18 -25
-34 -42 -20 -57 -45 -44 -69 17 -30 49 -19 95 32 l43 48 53 -9 c29 -4 65 -7
80 -6 29 3 65 -24 79 -59 10 -27 50 -31 69 -8 13 16 5 55 -13 55 -7 0 -21 7
-31 15 -17 13 -17 15 -3 21 15 5 79 -34 103 -64 5 -8 21 -12 35 -10 43 6 34
78 -11 78 -9 0 -29 9 -43 20 -25 20 -25 21 -10 57 10 25 13 52 9 83 -6 43 -4
48 19 58 14 6 25 18 25 27 0 19 -14 19 -30 0 -16 -19 -34 -19 -51 1 -18 22
-98 61 -143 69 -35 7 -37 9 -31 36 l7 29 -46 -6 c-33 -5 -52 -2 -70 9 -13 9
-44 21 -68 27 -25 7 -59 26 -80 46 -20 19 -39 31 -41 27z m53 -143 c4 0 13 7
20 15 7 8 17 15 23 15 5 0 2 -9 -8 -20 -26 -29 -11 -36 21 -11 34 27 53 27 29
1 -23 -25 -12 -39 13 -17 25 23 27 22 52 -18 27 -43 29 -112 4 -154 -20 -34
-81 -71 -118 -71 -26 0 -35 13 -16 25 15 9 12 25 -5 25 -9 0 -18 -6 -21 -14
-7 -17 -29 -27 -47 -20 -8 3 -11 18 -9 45 3 32 -1 46 -19 65 -12 13 -29 24
-36 24 -23 0 32 95 69 118 27 18 34 19 36 7 2 -8 7 -15 12 -15z m329 -91 c59
-25 81 -57 81 -117 0 -94 -104 -135 -260 -101 l-51 11 42 30 c52 37 82 102 77
165 l-3 45 31 -5 c17 -3 55 -15 83 -28z"/>
<path d="M840 1145 c0 -9 11 -20 24 -24 13 -5 26 -16 29 -24 7 -19 -9 -88 -34
-147 l-20 -47 -67 -6 c-37 -3 -75 -9 -84 -12 -13 -5 -18 -2 -18 11 0 19 -37
81 -80 137 -50 63 -147 84 -225 48 -47 -21 -92 -70 -101 -109 -3 -15 -12 -45
-20 -67 -13 -34 -13 -47 -2 -79 7 -22 24 -47 38 -58 26 -18 124 -48 163 -48
22 0 22 -1 -3 -20 -14 -11 -39 -20 -57 -20 -28 0 -53 -21 -53 -44 0 -10 32
-36 44 -36 13 0 59 35 114 88 27 26 40 32 54 25 19 -8 19 -9 -2 -36 -12 -15
-30 -27 -40 -27 -24 0 -42 -24 -38 -52 4 -33 58 -33 74 0 6 13 23 36 38 51 14
15 26 32 26 39 0 8 23 12 73 12 68 0 73 -2 89 -28 10 -15 22 -34 27 -42 5 -8
12 -23 15 -32 7 -23 61 -24 70 -2 12 31 5 44 -31 61 -21 10 -39 26 -41 36 -7
34 33 17 90 -38 31 -30 66 -55 77 -55 23 0 44 31 35 54 -7 17 -39 30 -53 22
-5 -4 -23 5 -40 19 -27 23 -30 31 -30 88 -1 34 -1 71 -2 82 -1 11 12 49 27 85
36 82 40 173 10 196 -27 19 -76 18 -76 -1z m-413 -114 c13 -16 21 -18 36 -10
41 23 107 -33 107 -90 0 -16 6 -20 22 -18 17 1 24 -4 26 -20 2 -15 -2 -23 -11
-23 -9 0 -24 -15 -35 -32 -27 -43 -73 -69 -123 -70 -49 0 -52 2 -40 36 14 35
-10 36 -33 1 -21 -31 -27 -31 -65 1 -36 30 -39 44 -11 44 11 0 23 7 27 15 7
21 -6 33 -16 16 -19 -30 -29 -1 -15 41 23 67 37 90 69 110 38 23 41 22 62 -1z"/>
</g>
</svg>
